<?xml version="1.0" encoding="utf-8"?>
<!-- Generator: Adobe Illustrator 19.2.1, SVG Export Plug-In . SVG Version: 6.00 Build 0)  -->
<svg version="1.1" id="layer" xmlns="http://www.w3.org/2000/svg" xmlns:xlink="http://www.w3.org/1999/xlink" x="0px" y="0px"
	 viewBox="0 0 652 652" style="enable-background:new 0 0 652 652;" xml:space="preserve">
<style type="text/css">
	.st0{fill:#7F0C1D;}
	.st1{fill:#DC322F;}
</style>
<path class="st0" d="M26.1,304.6c0,0,104.5,10.2,104.5,27.9v-41.8c0,0,0-17.4-104.5-27.9V304.6z M26.1,360.4
	c0,0,104.5,10.2,104.5,27.9v-41.8c0,0,0-17.4-104.5-27.9V360.4z"/>
<path class="st1" d="M26.1,262.8c0,0,104.5-10.2,104.5-27.9v41.8c0,0,0,17.4-104.5,27.9V262.8z M26.1,318.6
	c0,0,104.5-10.2,104.5-27.9v41.8c0,0,0,17.4-104.5,27.9V318.6z M26.1,374.3c0,0,104.5-10.2,104.5-27.9v41.8c0,0,0,17.4-104.5,27.9
	V374.3z"/>
<path d="M474.5,246h33.2v151.6h-33.8V247.6C473.8,246.9,473.8,246.1,474.5,246z M234.8,265.1c-1.3,8.3-3,16.6-5.1,24.8
	c-1.6,1.2-3.5-1-5.1-1.7c-9.1-4.3-50.4-13.6-44.6,9c2.3,9,16.3,14.3,26.5,19.2c18.5,8.8,39.6,21,35,49.6c-5.9,35.8-60,40-94.1,24.8
	c1.3-8.9,3.2-17.1,3.9-26.5c9.6,3.8,19.6,6.4,29.9,7.9c12.9,0.9,27.8,0.7,25.9-13.5c-1.6-12.6-29.5-18.8-41.6-27.6
	c-15.9-11.3-27.8-41-10.7-59.8C169.4,255,211.8,252.9,234.8,265.1z M336.8,297.3c-0.7,8.9-2.9,16.3-3.4,25.6
	c-19.6-9.7-42.3-3.6-44,19.2c-0.7,9.1,1.1,21.3,8.4,27c7.4,5.8,26.4,5.7,35.8,0.6c2,5.7,2.5,12.9,4.5,18.6
	c-18.1,18.6-59,11.6-72.7-5.6c-6-8.4-9.6-18.4-10.2-28.7c-2.3-30.7,12.1-57.8,46.1-60.9C313.4,291.3,325.6,292.8,336.8,297.3z
	 M445.7,399.3c-9.6,0.5-19.2,0.1-28.7-1.1c-1.8-2.4-2.8-5.4-2.8-8.4c-3.5,1.3-7.7,5.1-11.8,6.8c-24.8,9.6-48.1-3.7-50.7-24.2
	c-4.2-33.3,27.4-38.6,60.3-38.9c9.1-28.7-41-15.4-49.1-10.2c-3.2-6.5-5.6-13.4-7.3-20.5c17.3-9.5,62.7-18,80.6-1.9
	c10.5,9.4,10.2,27.2,10.2,44.6C446.2,363.4,446.7,381.9,445.7,399.3z M388.1,356.3c-11,14.5,11.1,29.7,24.2,18v-24.6
	C401.6,350.1,392.6,350.7,388.1,356.3z M624.9,399.3c-12.2-1.7-33.4,5.6-31.5-10.2c-8.2,6.5-18.3,10.2-28.7,10.2
	c-32.3,0-47.3-40.5-22-56.9c12.1-7.9,29-8.2,49.1-9c6.8-29.1-41-15.4-50.2-10.2c-3-6.2-4.8-13.6-7.3-20.5
	c20-11.2,73.1-19.7,86.2,4.5C632.5,329.7,620.7,366.5,624.9,399.3z M565.7,370.5c3.2,9,18.8,10.2,25.9,3.4v-24.2
	C575.4,348,560.7,356.3,565.7,370.5L565.7,370.5z"/>
</svg>
