<?xml version="1.0" encoding="UTF-8"?>
<svg width="1200px" height="1120px" viewBox="0 0 1200 1120" version="1.1" xmlns="http://www.w3.org/2000/svg" xmlns:xlink="http://www.w3.org/1999/xlink">
    <title>Overflow icon Color</title>
    <g id="Overflow-icon-Color" stroke="none" stroke-width="1" fill="none" fill-rule="evenodd">
        <g id="Overlfow-logo-icon" transform="translate(279.000000, 278.000000)">
            <g id="Group-20">
                <path d="M641.155174,247.25463 C641.107301,245.109498 639.373881,243.407418 637.220743,243.407418 L564.155455,243.407418 C564.155455,377.909542 455.140338,486.906077 320.657188,486.906077 C186.11726,486.906077 77.0943504,377.909542 77.0943504,243.407418 L3.97450946,243.407418 C1.82137184,243.407418 0.0879513297,245.109498 0.0322859312,247.239045 L0,247.36595 C0,247.413817 0.0322859312,247.444987 0.0322859312,247.508439 C2.23329579,422.406284 145.203192,563.992798 320.657188,563.992798 C496.054406,563.992798 638.946371,422.374001 641.155174,247.508439 C641.155174,247.444987 641.17076,247.397119 641.17076,247.36595 C641.17076,247.36595 641.155174,247.302497 641.155174,247.25463" id="Fill-82" fill="#FB5D2E"></path>
                <path d="M320.612642,0 C186.151793,0 77.1779619,108.97956 77.1779619,243.407418 L563.992798,243.407418 C563.992798,108.97956 455.025643,0 320.612642,0" id="Fill-100" fill="#16B4F2"></path>
                <path d="M563.992798,243.407418 C563.992798,377.866116 455.025013,486.814836 320.60986,486.814836 C186.14686,486.814836 77.1779619,377.866116 77.1779619,243.407418 L563.992798,243.407418 Z" id="Fill-104" fill="#2C2C96"></path>
            </g>
        </g>
    </g>
</svg>