<svg xmlns="http://www.w3.org/2000/svg" width="326" height="200" viewBox="0 0 326 200" fill="none"><path d="M169.1 73.3319C181.118 75.1431 192.342 66.8537 194.14 54.836C194.471 52.648 194.464 50.4864 194.16 48.3975C193.453 43.519 193.968 38.5282 195.978 34.0265C199.363 26.4444 206.383 19.7811 219.716 19.1531C220 19.1597 220.278 19.1531 220.555 19.1465C220.833 19.1399 221.111 19.1135 221.388 19.1069C240.757 18.9019 249.099 31.422 252.034 37.616C252.444 38.4819 252.774 39.3743 253.092 40.2733C253.178 40.5179 253.27 40.7559 253.376 40.9939C254.658 43.8826 257.349 46.0773 260.707 46.5863C265.87 47.3663 270.695 43.8628 271.574 38.7397C271.594 38.6802 271.608 38.6141 271.608 38.5414C271.654 38.2307 271.687 37.9266 271.7 37.6226C271.726 37.1202 271.773 36.6178 271.832 36.1154C274.338 14.9225 289.938 20.0191 289.938 20.0191C294.598 21.4866 299.774 19.1994 301.698 14.4465C303.47 10.0639 301.718 4.96064 297.626 2.59412C292.761 -0.221909 286.62 1.70833 284.194 6.66612C283.923 7.21478 283.718 7.77666 283.559 8.34516C283.519 8.48397 283.486 8.62279 283.453 8.76161C278.978 26.6692 261.13 27.4293 261.13 27.4293L261.163 27.5814C261.163 27.5814 261.15 27.5814 261.137 27.5814L261.123 27.4227C236.321 27.3038 229.598 8.21295 229.136 6.7851C229.129 6.75866 229.116 6.72561 229.109 6.69917C228.038 3.32126 225.136 0.670494 221.402 0.108611C217.455 -0.486324 213.714 1.41086 211.77 4.62351C211.136 5.67456 210.693 6.86443 210.494 8.15345C210.488 8.21295 210.481 8.26583 210.475 8.32533C200.275 34.443 177.231 30.1198 177.231 30.1198C176.709 30.0008 176.18 29.9016 175.644 29.8223C163.627 28.0111 152.416 36.2807 150.604 48.2983C148.793 60.316 157.063 71.5272 169.08 73.3385L169.1 73.3319Z" fill="url(#paint0_linear_497_445)"></path><path d="M54.2316 86.8503H69.4157V150.812H54.496L53.716 141.465C50.0803 148.995 40.092 152.624 32.9594 152.756C14.014 152.888 0 141.208 0 118.765C0 96.323 14.6618 85.158 33.3494 85.2902C41.9099 85.2902 50.0869 89.3093 53.716 95.6685L54.2316 86.8503ZM15.8319 118.765C15.8319 130.961 24.2667 138.226 34.7773 138.226C59.6918 138.226 59.6918 99.4298 34.7773 99.4298C24.2733 99.4298 15.8319 106.569 15.8319 118.765Z" fill="white"></path><path d="M98.5278 60.1245V150.812H82.8281V60.1245H98.5278Z" fill="white"></path><path d="M134.74 68.8172V86.9759H152.39V100.6H134.614V128.238C134.614 134.339 137.986 137.321 142.917 137.321C145.376 137.321 148.238 136.547 150.572 135.377L154.981 148.876C150.44 150.687 146.678 151.467 141.873 151.599C127.991 152.121 118.908 144.202 118.908 128.245V100.607H106.97V86.9825H118.908V60.1245L134.733 68.8172H134.74Z" fill="white"></path><path d="M164.215 86.5928V150.813H180.047V86.5928H164.215Z" fill="white"></path><path d="M210.555 86.8506V120.326C210.555 130.056 215.876 137.453 225.996 137.453C236.117 137.453 242.344 129.283 242.344 119.546V86.8506H258.044V150.945H243.897L242.86 142.252C236.243 148.737 230.148 151.857 221.191 151.857C205.881 151.857 194.723 140.302 194.723 120.451V86.8506H210.555Z" fill="white"></path><path d="M313.874 103.845C309.332 99.5685 304.137 98.1407 298.042 98.1407C290.513 98.1407 286.361 100.474 286.361 104.493C286.361 108.512 290.129 110.978 298.3 111.5C310.364 112.274 325.68 115.004 325.68 131.992C325.68 143.283 316.465 153.014 298.174 153.014C288.054 153.014 277.933 151.321 268.586 141.591L276.373 130.3C280.914 135.364 291.293 139.118 298.432 139.251C304.401 139.383 309.98 136.269 309.98 131.596C309.98 127.187 306.344 125.369 297.268 124.847C285.198 123.941 270.8 119.525 270.8 104.996C270.8 90.466 286.11 85.019 297.791 85.019C307.779 85.019 315.308 86.9625 322.705 93.4473L313.887 103.826L313.874 103.845Z" fill="white"></path><path d="M82.8289 159.584H85.6647V171.205C87.0794 168.495 89.9945 167.034 93.3592 167.034C98.2575 167.034 102.184 170.114 102.184 176.593V189.549H99.3879V176.916C99.3879 172.018 96.7173 169.506 92.6651 169.506C88.613 169.506 85.6581 172.097 85.6581 177.485V189.549H82.8223V159.584H82.8289Z" fill="#F1F1F1"></path><path d="M118.142 189.873C111.909 189.873 107.169 185.497 107.169 178.497C107.169 171.496 112.028 167.12 118.222 167.12C124.415 167.12 129.274 171.45 129.274 178.497C129.274 185.543 124.376 189.873 118.136 189.873H118.142ZM118.142 187.401C122.313 187.401 126.366 184.565 126.366 178.49C126.366 172.415 122.399 169.579 118.188 169.579C113.978 169.579 110.051 172.415 110.051 178.49C110.051 184.565 113.938 187.401 118.149 187.401H118.142Z" fill="#F1F1F1"></path><path d="M142.072 189.873C137.048 189.873 133.525 187.361 133.161 183.315H136.076C136.321 185.748 138.423 187.487 142.026 187.487C145.185 187.487 146.964 185.788 146.964 183.679C146.964 178.212 133.683 181.412 133.683 173.109C133.683 169.83 136.803 167.113 141.457 167.113C146.111 167.113 149.31 169.625 149.555 173.876H146.719C146.554 171.403 144.736 169.546 141.371 169.546C138.416 169.546 136.552 171.126 136.552 173.069C136.552 179.065 149.634 175.865 149.753 183.679C149.753 187.242 146.633 189.873 142.059 189.873H142.072Z" fill="#F1F1F1"></path><path d="M166.688 167.113C172.723 167.113 177.218 171.529 177.218 178.45C177.218 185.371 172.723 189.873 166.688 189.873C162.272 189.873 159.198 187.44 157.903 184.69V200H155.106V167.444H157.903V172.302C159.198 169.506 162.279 167.12 166.688 167.12V167.113ZM166.119 169.586C161.624 169.586 157.896 172.99 157.896 178.496C157.896 184.003 161.624 187.407 166.119 187.407C170.614 187.407 174.343 184.049 174.343 178.457C174.343 172.864 170.78 169.586 166.119 169.586Z" fill="#F1F1F1"></path><path d="M181.792 161.164C181.792 159.948 182.724 159.102 183.854 159.102C184.985 159.102 185.917 159.954 185.917 161.164C185.917 162.374 184.985 163.273 183.854 163.273C182.724 163.273 181.792 162.38 181.792 161.164ZM182.44 167.444H185.276V189.556H182.44V167.444Z" fill="#F1F1F1"></path><path d="M192.528 169.83H189.447V167.444H192.528V161.898H195.403V167.444H201.478V169.83H195.403V183.56C195.403 186.27 196.335 187.123 198.887 187.123H201.478V189.556H198.444C194.597 189.556 192.534 187.976 192.534 183.56V169.83H192.528Z" fill="#F1F1F1"></path><path d="M215.4 167.113C219.856 167.113 222.89 169.5 224.146 172.296V167.437H226.981V189.549H224.146V184.651C222.85 187.486 219.77 189.873 215.36 189.873C209.325 189.873 204.83 185.378 204.83 178.45C204.83 171.522 209.325 167.113 215.4 167.113ZM215.929 169.586C211.275 169.586 207.706 172.825 207.706 178.457C207.706 184.089 211.269 187.407 215.929 187.407C220.589 187.407 224.152 184.003 224.152 178.496C224.152 172.99 220.464 169.586 215.929 169.586Z" fill="#F1F1F1"></path><path d="M233.461 159.584H236.297V189.549H233.461V159.584Z" fill="#F1F1F1"></path><path d="M250.349 189.873C245.325 189.873 241.802 187.361 241.438 183.315H244.354C244.598 185.748 246.7 187.487 250.303 187.487C253.463 187.487 255.241 185.788 255.241 183.679C255.241 178.212 241.961 181.412 241.961 173.109C241.961 169.83 245.081 167.113 249.735 167.113C254.388 167.113 257.588 169.625 257.832 173.876H254.996C254.838 171.403 253.013 169.546 249.649 169.546C246.694 169.546 244.83 171.126 244.83 173.069C244.83 179.065 257.912 175.865 258.031 183.679C258.031 187.242 254.91 189.873 250.336 189.873H250.349Z" fill="#F1F1F1"></path><defs><linearGradient id="paint0_linear_497_445" x1="295.93" y1="-4.43347" x2="155.579" y2="66.8066" gradientUnits="userSpaceOnUse"><stop stop-color="#F4472C"></stop><stop offset="1" stop-color="#FF832E"></stop></linearGradient></defs></svg>