<svg xmlns="http://www.w3.org/2000/svg" width="245" height="150" viewBox="0 0 245 150" fill="none"><path d="M226.961 10.8438C225.807 13.6843 223.097 15.35 220.267 15.35C219.546 15.35 218.82 15.2409 218.114 15.0179C218.114 15.0179 206.378 11.1958 204.494 27.0889C204.449 27.4657 204.414 27.8424 204.394 28.2192C204.384 28.4472 204.359 28.6802 204.324 28.9083C204.324 28.9628 204.314 29.0173 204.3 29.057C203.638 32.8989 200.008 35.5263 196.124 34.9413C194.861 34.7529 193.722 34.2473 192.782 33.5136C191.843 32.7799 191.092 31.8281 190.609 30.7474C190.53 30.569 190.46 30.3905 190.396 30.2071C190.157 29.5329 189.908 28.8637 189.6 28.2142C187.387 23.5692 181.116 14.1801 166.546 14.3337C166.337 14.3337 166.128 14.3486 165.919 14.3635C165.79 14.3684 165.661 14.3734 165.526 14.3734C165.447 14.3734 165.367 14.3734 165.288 14.3734C155.257 14.8443 149.981 19.8413 147.43 25.5274C145.918 28.8984 145.531 32.6461 146.063 36.2996C146.291 37.8612 146.296 39.4822 146.048 41.1281C145.118 47.3049 140.861 52.168 135.366 54.1757C135.356 54.1757 135.341 54.1856 135.331 54.1906C134.123 54.6318 132.85 54.9342 131.542 55.078C131.761 54.607 131.945 54.2055 132.129 53.8039C133.805 50.2049 134.73 46.4423 134.705 42.4566C134.69 39.4574 133.626 36.954 131.348 34.9711C130.463 34.2027 129.503 33.5087 128.722 32.6411C127.698 31.496 126.818 30.222 125.878 28.9975C125.783 28.8736 125.704 28.7298 125.619 28.596L125.356 28.6604C125.256 30.1179 125.117 31.5803 125.072 33.0427C125.047 33.7169 125.231 34.3911 125.261 35.0702C125.276 35.4321 125.226 35.8287 125.082 36.1509C124.63 37.1572 124.122 38.1388 123.585 39.2244C123.983 39.3434 124.257 39.4872 124.535 39.4971C125.52 39.5318 125.813 40.1069 125.813 40.9744C125.813 41.2718 125.873 41.5693 125.928 41.8617C126.136 43.0267 126.718 43.4481 127.877 43.2845C128.389 43.2101 128.896 43.106 129.409 43.0168C130.254 42.873 130.443 43.0664 130.259 43.9339C129.846 45.8772 128.772 47.3594 127.041 48.336C124.272 49.9075 121.228 50.1603 118.155 49.8678C117.911 49.843 117.673 49.8182 117.434 49.7835C110.144 48.7673 104.321 43.1457 103.008 35.8882C102.983 35.7295 102.978 35.5709 102.958 35.3429C103.167 35.3577 103.346 35.3627 103.515 35.3924C105.574 35.7543 108.428 36.835 111.83 34.4406C113.734 33.1022 114.813 31.6794 115.574 30.45C116.743 28.5563 117.951 26.6229 119.756 25.3192C119.826 25.2696 125.008 21.1748 132.144 22.3646C132.546 22.434 132.944 22.4985 133.337 22.5877C133.337 22.5877 150.672 25.8298 158.341 6.2434C158.346 6.20374 158.351 6.15913 158.355 6.11451C158.5 5.14783 158.838 4.25551 159.315 3.4673C160.777 1.05804 163.592 -0.364708 166.556 0.0814505C167.963 0.289658 169.211 0.894451 170.211 1.76198C171.21 2.62951 171.956 3.75978 172.359 5.02886C172.364 5.04869 172.374 5.07347 172.379 5.0933C172.732 6.15913 177.784 20.4808 196.442 20.5701V20.689C196.442 20.689 196.462 20.689 196.467 20.689L196.442 20.575C196.442 20.575 209.864 20.0049 213.236 6.57554C213.256 6.47144 213.286 6.36733 213.31 6.26323C213.43 5.8369 213.584 5.41553 213.788 5.00407C215.613 1.28112 220.233 -0.161458 223.893 1.95036C226.971 3.73004 228.289 7.55709 226.951 10.8438H226.961Z" fill="#B2B2B2"></path><path d="M40.7972 65.1474H52.2198V113.114H40.9961L40.4093 106.105C37.6743 111.751 30.1603 114.473 24.7946 114.572C10.5424 114.671 0 105.911 0 89.0813C0 72.2512 11.0298 63.8783 25.088 63.9774C31.5278 63.9774 37.6792 66.9915 40.4093 71.7604L40.7972 65.1474ZM11.91 89.0813C11.91 98.2276 18.2553 103.676 26.1621 103.676C44.9048 103.676 44.9048 74.5811 26.1621 74.5811C18.2603 74.5811 11.91 79.935 11.91 89.0813Z" fill="#B2B2B2"></path><path d="M74.1201 45.103V113.113H62.3096V45.103H74.1201Z" fill="#B2B2B2"></path><path d="M101.362 51.6226V65.2403H114.639V75.4574H101.267V96.1839C101.267 100.76 103.803 102.995 107.513 102.995C109.363 102.995 111.516 102.415 113.272 101.538L116.588 111.661C113.172 113.019 110.343 113.604 106.727 113.703C96.2843 114.095 89.4517 108.156 89.4517 96.1889V75.4623H80.4707V65.2453H89.4517V52.8916L101.357 51.6275L101.362 51.6226Z" fill="#B2B2B2"></path><path d="M123.535 64.9526V113.113H135.445V64.9526H123.535Z" fill="#B2B2B2"></path><path d="M158.396 65.147V90.2508C158.396 97.548 162.399 103.095 170.013 103.095C177.626 103.095 182.311 96.968 182.311 89.6659V65.147H194.121V113.213H183.479L182.699 106.694C177.721 111.557 173.136 113.897 166.398 113.897C154.88 113.897 146.486 105.232 146.486 90.345V65.147H158.396Z" fill="#B2B2B2"></path><path d="M236.119 77.8919C232.702 74.6845 228.794 73.6137 224.209 73.6137C218.545 73.6137 215.422 75.3637 215.422 78.3777C215.422 81.3918 218.256 83.2408 224.403 83.6325C233.478 84.2125 245 86.2598 245 99.0002C245 107.467 238.068 114.764 224.308 114.764C216.695 114.764 209.081 113.495 202.05 106.198L207.908 97.7311C211.324 101.528 219.132 104.344 224.502 104.443C228.993 104.542 233.19 102.208 233.19 98.7027C233.19 95.3962 230.455 94.0329 223.627 93.6413C214.547 92.9621 203.716 89.6506 203.716 78.7545C203.716 67.8583 215.233 63.7734 224.02 63.7734C231.534 63.7734 237.198 65.2309 242.762 70.094L236.129 77.877L236.119 77.8919Z" fill="#B2B2B2"></path><path d="M62.3087 119.691H64.442V128.406C65.5062 126.374 67.6992 125.278 70.2304 125.278C73.9153 125.278 76.8692 127.588 76.8692 132.447V142.163H74.7657V132.69C74.7657 129.016 72.7566 127.132 69.7083 127.132C66.6599 127.132 64.4371 129.076 64.4371 133.116V142.163H62.3037V119.691H62.3087Z" fill="#B2B2B2"></path><path d="M88.875 142.405C84.1856 142.405 80.6201 139.124 80.6201 133.874C80.6201 128.624 84.2752 125.342 88.9347 125.342C93.5943 125.342 97.2493 128.589 97.2493 133.874C97.2493 139.158 93.5644 142.405 88.8701 142.405H88.875ZM88.875 140.551C92.0129 140.551 95.0613 138.425 95.0613 133.869C95.0613 129.313 92.0775 127.186 88.9098 127.186C85.7421 127.186 82.7883 129.313 82.7883 133.869C82.7883 138.425 85.7123 140.551 88.88 140.551H88.875Z" fill="#B2B2B2"></path><path d="M106.877 142.405C103.098 142.405 100.447 140.521 100.174 137.487H102.367C102.551 139.312 104.132 140.615 106.842 140.615C109.219 140.615 110.557 139.341 110.557 137.76C110.557 133.66 100.567 136.06 100.567 129.833C100.567 127.374 102.914 125.337 106.415 125.337C109.916 125.337 112.322 127.221 112.506 130.408H110.373C110.249 128.554 108.881 127.161 106.35 127.161C104.127 127.161 102.725 128.346 102.725 129.803C102.725 134.3 112.566 131.9 112.656 137.76C112.656 140.432 110.308 142.405 106.867 142.405H106.877Z" fill="#B2B2B2"></path><path d="M125.395 125.337C129.935 125.337 133.317 128.648 133.317 133.839C133.317 139.029 129.935 142.405 125.395 142.405C122.073 142.405 119.761 140.581 118.786 138.518V150H116.683V125.585H118.786V129.228C119.761 127.131 122.078 125.342 125.395 125.342V125.337ZM124.967 127.191C121.586 127.191 118.781 129.744 118.781 133.873C118.781 138.003 121.586 140.556 124.967 140.556C128.349 140.556 131.154 138.038 131.154 133.844C131.154 129.65 128.473 127.191 124.967 127.191Z" fill="#B2B2B2"></path><path d="M136.759 120.876C136.759 119.964 137.46 119.329 138.31 119.329C139.161 119.329 139.862 119.969 139.862 120.876C139.862 121.783 139.161 122.457 138.31 122.457C137.46 122.457 136.759 121.788 136.759 120.876ZM137.246 125.585H139.379V142.167H137.246V125.585Z" fill="#B2B2B2"></path><path d="M144.833 127.375H142.516V125.585H144.833V121.426H146.996V125.585H151.566V127.375H146.996V137.671C146.996 139.703 147.697 140.343 149.617 140.343H151.566V142.167H149.284C146.389 142.167 144.838 140.982 144.838 137.671V127.375H144.833Z" fill="#B2B2B2"></path><path d="M162.039 125.337C165.391 125.337 167.674 127.127 168.619 129.223V125.58H170.752V142.162H168.619V138.489C167.644 140.615 165.327 142.405 162.01 142.405C157.469 142.405 154.088 139.034 154.088 133.839C154.088 128.643 157.469 125.337 162.039 125.337ZM162.437 127.191C158.936 127.191 156.251 129.62 156.251 133.844C156.251 138.067 158.931 140.556 162.437 140.556C165.943 140.556 168.624 138.003 168.624 133.873C168.624 129.744 165.849 127.191 162.437 127.191Z" fill="#B2B2B2"></path><path d="M175.626 119.691H177.759V142.163H175.626V119.691Z" fill="#B2B2B2"></path><path d="M188.33 142.405C184.551 142.405 181.9 140.521 181.627 137.487H183.82C184.004 139.312 185.585 140.615 188.296 140.615C190.673 140.615 192.01 139.341 192.01 137.76C192.01 133.66 182.02 136.06 182.02 129.833C182.02 127.374 184.367 125.337 187.868 125.337C191.369 125.337 193.776 127.221 193.96 130.408H191.826C191.707 128.554 190.334 127.161 187.803 127.161C185.58 127.161 184.178 128.346 184.178 129.803C184.178 134.3 194.019 131.9 194.109 137.76C194.109 140.432 191.762 142.405 188.32 142.405H188.33Z" fill="#B2B2B2"></path></svg>