<svg xmlns="http://www.w3.org/2000/svg" width="245" height="150" viewBox="0 0 245 150" fill="none"><path d="M127.211 54.9989C136.251 56.3573 144.695 50.1403 146.048 41.127C146.296 39.486 146.291 37.8648 146.062 36.2981C145.53 32.6393 145.918 28.8961 147.43 25.5199C149.976 19.8333 155.257 14.8358 165.287 14.3649C165.501 14.3698 165.71 14.3649 165.919 14.3599C166.128 14.3549 166.337 14.3351 166.545 14.3302C181.116 14.1765 187.391 23.5665 189.599 28.212C189.908 28.8614 190.156 29.5307 190.395 30.205C190.46 30.3884 190.529 30.5669 190.609 30.7454C191.574 32.912 193.598 34.5579 196.124 34.9397C200.007 35.5247 203.638 32.8971 204.299 29.0548C204.314 29.0102 204.324 28.9606 204.324 28.9061C204.359 28.673 204.384 28.445 204.393 28.2169C204.413 27.8401 204.448 27.4633 204.493 27.0865C206.378 11.1919 218.113 15.0143 218.113 15.0143C221.619 16.115 225.513 14.3996 226.96 10.8349C228.293 7.54789 226.975 3.72048 223.897 1.94559C220.237 -0.166431 215.617 1.28124 213.792 4.99959C213.588 5.41108 213.434 5.8325 213.315 6.25887C213.285 6.36298 213.26 6.46709 213.235 6.57121C209.869 20.0019 196.442 20.572 196.442 20.572L196.467 20.686C196.467 20.686 196.457 20.686 196.447 20.686L196.437 20.5671C177.779 20.4778 172.722 6.15971 172.374 5.08883C172.369 5.069 172.359 5.04421 172.354 5.02438C171.548 2.49095 169.365 0.502871 166.555 0.0814582C163.587 -0.364743 160.772 1.05814 159.31 3.46763C158.833 4.25592 158.499 5.14832 158.35 6.11509C158.345 6.15971 158.34 6.19937 158.335 6.24399C150.662 25.8322 133.327 22.5898 133.327 22.5898C132.934 22.5006 132.536 22.4262 132.134 22.3667C123.093 21.0083 114.659 27.2105 113.297 36.2238C111.934 45.237 118.155 53.6454 127.196 55.0039L127.211 54.9989Z" fill="#B2B2B2"></path><path d="M40.7969 65.1377L52.2195 71.7514V113.109H40.9958L40.409 106.099C37.674 111.746 30.1601 114.468 24.7944 114.567C10.5424 114.666 0 105.906 0 89.0739C0 72.2422 11.0297 63.8685 25.0878 63.9677C31.5276 63.9677 37.679 66.982 40.409 71.7514L40.7969 65.1377ZM11.9099 89.0739C11.9099 98.2211 18.2552 103.67 26.1619 103.67C44.9045 103.67 44.9045 74.5724 26.1619 74.5724C18.2602 74.5724 11.9099 79.9268 11.9099 89.0739Z" fill="#B2B2B2"></path><path d="M74.12 45.0933V113.109H62.3096V51.7502L74.12 45.0933Z" fill="#B2B2B2"></path><path d="M101.36 51.6128V65.2318H114.638V75.4498H101.266V96.1784C101.266 100.754 103.802 102.99 107.512 102.99C109.362 102.99 111.515 102.41 113.27 101.533L116.587 111.657C113.171 113.015 110.341 113.6 106.726 113.699C96.2833 114.091 89.4506 108.151 89.4506 96.1833V75.4548H80.4697V65.2368H89.4506V45.0933L101.356 51.6128H101.36Z" fill="#B2B2B2"></path><path d="M123.533 64.9443V113.109H135.443V64.9443H123.533Z" fill="#B2B2B2"></path><path d="M158.394 65.1382V90.2444C158.394 97.5423 162.397 103.09 170.011 103.09C177.624 103.09 182.308 96.9623 182.308 89.6594V65.1382H194.119V113.209H183.477L182.696 106.689C177.719 111.553 173.134 113.893 166.395 113.893C154.878 113.893 146.484 105.227 146.484 90.3386V65.1382H158.394Z" fill="#B2B2B2"></path><path d="M236.119 77.884C232.702 74.6763 228.794 73.6054 224.209 73.6054C218.545 73.6054 215.422 75.3555 215.422 78.3698C215.422 81.3842 218.256 83.2334 224.403 83.6251C233.478 84.2051 245 86.2527 245 98.9942C245 107.462 238.068 114.76 224.308 114.76C216.695 114.76 209.081 113.491 202.05 106.193L207.908 97.725C211.324 101.523 219.131 104.339 224.502 104.438C228.992 104.537 233.19 102.202 233.19 98.6968C233.19 95.3899 230.455 94.0265 223.627 93.6349C214.546 92.9556 203.716 89.6438 203.716 78.7466C203.716 67.8494 215.233 63.7642 224.02 63.7642C231.534 63.7642 237.198 65.2218 242.762 70.0853L236.128 77.8691L236.119 77.884Z" fill="#B2B2B2"></path><path d="M62.3077 119.688H64.441V128.404C65.5052 126.371 67.6982 125.275 70.2294 125.275C73.9142 125.275 76.8681 127.586 76.8681 132.444V142.162H74.7646V132.687C74.7646 129.014 72.7556 127.13 69.7072 127.13C66.6589 127.13 64.4361 129.073 64.4361 133.114V142.162H62.3027V119.688H62.3077Z" fill="#B2B2B2"></path><path d="M88.8711 142.405C84.1817 142.405 80.6162 139.123 80.6162 133.872C80.6162 128.622 84.2712 125.34 88.9307 125.34C93.5903 125.34 97.2453 128.587 97.2453 133.872C97.2453 139.157 93.5604 142.405 88.8661 142.405H88.8711ZM88.8711 140.55C92.0089 140.55 95.0573 138.423 95.0573 133.867C95.0573 129.311 92.0736 127.184 88.9059 127.184C85.7382 127.184 82.7844 129.311 82.7844 133.867C82.7844 138.423 85.7084 140.55 88.876 140.55H88.8711Z" fill="#B2B2B2"></path><path d="M106.873 142.405C103.094 142.405 100.443 140.521 100.17 137.487H102.363C102.547 139.311 104.128 140.615 106.838 140.615C109.215 140.615 110.553 139.341 110.553 137.759C110.553 133.659 100.563 136.059 100.563 129.832C100.563 127.373 102.91 125.335 106.411 125.335C109.912 125.335 112.318 127.219 112.502 130.407H110.369C110.245 128.553 108.877 127.159 106.346 127.159C104.123 127.159 102.721 128.344 102.721 129.802C102.721 134.299 112.562 131.899 112.652 137.759C112.652 140.431 110.305 142.405 106.863 142.405H106.873Z" fill="#B2B2B2"></path><path d="M125.393 125.335C129.933 125.335 133.315 128.647 133.315 133.838C133.315 139.028 129.933 142.405 125.393 142.405C122.071 142.405 119.759 140.58 118.784 138.518V150H116.681V125.583H118.784V129.227C119.759 127.13 122.076 125.34 125.393 125.34V125.335ZM124.965 127.189C121.584 127.189 118.779 129.742 118.779 133.872C118.779 138.002 121.584 140.555 124.965 140.555C128.347 140.555 131.152 138.037 131.152 133.843C131.152 129.648 128.471 127.189 124.965 127.189Z" fill="#B2B2B2"></path><path d="M136.757 120.873C136.757 119.961 137.458 119.326 138.308 119.326C139.159 119.326 139.86 119.966 139.86 120.873C139.86 121.78 139.159 122.455 138.308 122.455C137.458 122.455 136.757 121.785 136.757 120.873ZM137.244 125.583H139.378V142.167H137.244V125.583Z" fill="#B2B2B2"></path><path d="M144.832 127.372H142.515V125.582H144.832V121.423H146.995V125.582H151.565V127.372H146.995V137.67C146.995 139.702 147.696 140.342 149.616 140.342H151.565V142.166H149.283C146.388 142.166 144.837 140.981 144.837 137.67V127.372H144.832Z" fill="#B2B2B2"></path><path d="M162.036 125.335C165.388 125.335 167.671 127.125 168.616 129.222V125.578H170.749V142.162H168.616V138.488C167.641 140.615 165.324 142.405 162.007 142.405C157.466 142.405 154.085 139.033 154.085 133.838C154.085 128.642 157.466 125.335 162.036 125.335ZM162.434 127.189C158.933 127.189 156.248 129.618 156.248 133.843C156.248 138.067 158.928 140.555 162.434 140.555C165.94 140.555 168.62 138.002 168.62 133.872C168.62 129.742 165.846 127.189 162.434 127.189Z" fill="#B2B2B2"></path><path d="M175.623 119.688H177.756V142.162H175.623V119.688Z" fill="#B2B2B2"></path><path d="M188.33 142.405C184.551 142.405 181.9 140.521 181.627 137.487H183.82C184.004 139.311 185.585 140.615 188.295 140.615C190.672 140.615 192.01 139.341 192.01 137.759C192.01 133.659 182.02 136.059 182.02 129.832C182.02 127.373 184.367 125.335 187.868 125.335C191.369 125.335 193.776 127.219 193.96 130.407H191.826C191.707 128.553 190.334 127.159 187.803 127.159C185.58 127.159 184.178 128.344 184.178 129.802C184.178 134.299 194.019 131.899 194.109 137.759C194.109 140.431 191.762 142.405 188.32 142.405H188.33Z" fill="#B2B2B2"></path></svg>