<svg xmlns="http://www.w3.org/2000/svg" width="232" height="60" viewBox="0 0 232 60" fill="none"><path d="M47.3229 48.6162C44.1426 40.8289 38.0648 31.1823 22.0352 37.1768C23.3173 33.4691 25.3322 29.5782 27.458 26.7309C29.2674 24.3053 32.0537 21.408 35.0176 21.408C36.9603 21.408 38.2147 22.7345 38.2147 24.7938C38.2147 26.853 36.9492 28.5403 34.9177 29.0787L34.84 29.1009V29.1786C35.0898 33.3914 38.1703 34.89 40.9733 34.89C45.1916 34.89 48.3775 31.5819 48.3775 27.186C48.3775 24.6883 47.3063 22.618 45.2804 21.1915C43.5986 20.0093 41.3063 19.3321 38.9918 19.3321C28.457 19.3321 22.9677 33.3414 21.7854 36.766V0L0.0999077 2.93618L0 2.94728L0.0666051 3.36911L7.72619 2.35893V58.9677H1.21554V59.3896H25.9038V58.9677H21.7854V37.5653C23.6781 36.9825 25.1712 37.0269 26.359 37.693C28.6402 38.9806 29.5061 42.5107 30.4219 46.2462C31.3433 50.0038 32.3867 54.2665 35.062 56.9307C36.9603 58.829 40.0463 59.9169 43.5209 59.9169C48.7938 59.9169 50.7698 59.7559 52.8623 59.5838C53.6671 59.5172 54.4996 59.4506 55.5487 59.3896H55.643V58.9622H55.5431C51.7133 59.1176 50.7698 57.1139 47.3229 48.6162Z" fill="#B2B2B2"></path><path d="M57.1915 2.63641C54.9936 2.63641 52.7456 3.8242 51.3247 5.73355C49.9094 7.63734 49.5097 9.96297 50.2035 12.2775L50.2202 12.333L50.2757 12.3441C53.939 13.1378 56.6975 15.58 57.6467 18.8825C58.6124 22.2516 57.5523 25.865 54.7993 28.5458L54.7271 28.618L55.0491 28.9343L55.1157 28.8788C60.7549 24.5273 65.0065 16.9232 65.0065 11.1952C65.0065 6.31634 61.6485 2.63086 57.1915 2.63086" fill="#B2B2B2"></path><path d="M86.6642 0.0166016C81.5245 0.0166016 75.5133 2.98053 73.6595 9.60219L73.6262 9.72985H74.1646L74.1868 9.66324C75.2303 6.37184 77.3339 3.8908 79.0878 3.8908C79.6429 3.8908 80.0425 4.05731 80.3089 4.40699C81.0971 5.42827 80.5809 7.75945 79.9759 10.0629L69.7686 49.0879C68.7529 52.9732 68.9527 55.865 70.3514 57.68C71.5392 59.2175 73.604 60.0001 76.4791 60.0001C81.6188 60.0001 87.6299 57.0361 89.4838 50.4145L89.5171 50.2868H88.9787L88.9565 50.3534C87.913 53.6448 85.8094 56.1259 84.0555 56.1259C83.506 56.1259 83.1063 55.9594 82.8455 55.6208C82.0073 54.5329 82.7289 51.7799 83.2007 49.9594L93.4301 11.0453C94.4625 7.14335 94.2627 4.22938 92.8418 2.38663C91.6484 0.810313 89.5615 0.0166016 86.6642 0.0166016Z" fill="#B2B2B2"></path><path d="M180.822 27.3579L180.739 27.369V27.4522C180.606 29.0563 181.038 30.4883 181.965 31.4929C182.848 32.4476 184.097 32.9527 185.584 32.9527C189.181 32.9527 192.2 29.9832 192.617 26.048C192.811 24.2163 192.372 22.6955 191.318 21.5244C189.986 20.0479 187.666 19.1987 184.952 19.1987H184.63H184.635C181.371 19.2875 178.463 20.7417 176.204 23.4171C174.206 25.7871 172.846 29.0063 172.324 32.5475L171.925 29.7667C170.981 23.2616 169.111 19.4929 162.334 19.4929C157.194 19.4929 151.183 22.4568 149.329 29.0785L149.296 29.2061H149.834L149.856 29.1395C150.861 25.9536 152.976 23.3671 154.568 23.3671C156.433 23.3671 156.794 26.2922 157.249 29.9999C157.299 30.4217 157.355 30.8546 157.41 31.2931L159.114 44.7362C158.931 52.2016 154.396 58.7511 149.401 58.7511C148.574 58.7511 147.941 58.518 147.525 58.0573C147.042 57.5189 146.848 56.6586 146.959 55.5651C147.259 52.7011 149.257 51.2136 151.105 51.0082L151.188 50.9971V50.9139C151.283 49.2709 150.833 47.8278 149.917 46.8621C149.068 45.9629 147.858 45.4911 146.409 45.4911C143.257 45.4911 140.62 47.4226 139.555 50.2867H139.466L139.444 50.3533C138.4 53.6447 136.296 56.1257 134.543 56.1257C133.993 56.1257 133.599 55.9592 133.333 55.6151C132.55 54.5938 133.099 52.1794 133.682 49.9925L141.636 19.8148L141.492 19.8315C137.207 20.3921 132.761 20.5919 127.888 20.4309H127.81L119.973 50.3366C118.574 52.7955 115.061 56.4199 111.936 56.4199C111.009 56.4199 110.298 56.1091 109.832 55.4874C108.783 54.1109 108.855 51.2136 110.054 46.8787L114.489 30.3218C115.505 26.5308 115.31 23.6835 113.912 21.8629C112.702 20.2866 110.609 19.4818 107.69 19.4818C102.55 19.4818 96.5388 22.4457 94.6849 29.0674L94.6516 29.195H95.19L95.2122 29.1284C96.2557 25.837 98.3926 23.356 100.191 23.356C100.718 23.356 101.096 23.517 101.345 23.8389C102.106 24.8213 101.579 27.1858 100.968 29.5225L96.2113 47.6891C95.1178 51.813 95.3843 54.9768 97.0105 57.0915C98.4648 58.9842 101.035 59.9888 104.426 59.9888C110.343 59.9888 115.921 56.9583 119.79 51.6576C119.412 54.344 119.817 56.4032 120.988 57.7853C122.187 59.2007 124.202 59.9167 126.983 59.9167C131.462 59.9167 136.602 57.6854 139.066 52.7733C138.988 54.5883 139.51 56.1424 140.631 57.3857C142.363 59.3061 145.088 59.9944 146.898 59.9944C153.381 59.9944 158.037 55.2987 159.458 47.3949C160.335 55.8704 164.004 59.9944 170.676 59.9944C173.79 59.9944 176.737 59.134 178.974 57.5799C181.449 55.8593 182.959 53.3727 183.347 50.3977L183.359 50.2867H182.826L182.815 50.3699C182.382 53.4893 180.378 56.1257 178.441 56.1257C176.038 56.1257 175.505 52.74 175.149 50.5031L172.829 35.5392C172.535 31.1821 174.211 26.3588 177.109 23.2616C178.896 21.3467 180.927 20.331 182.976 20.331C183.769 20.331 184.369 20.5475 184.752 20.9804C185.273 21.5577 185.307 22.3958 185.246 22.9952C184.94 25.8981 182.432 27.1969 180.822 27.3634" fill="#B2B2B2"></path><path d="M220.619 24.4831C220.119 29.2287 215.196 35.6395 205.81 35.1122C207.464 27.6746 212.127 19.8152 217.572 19.7597H217.633C218.526 19.7597 219.242 20.0483 219.758 20.6255C220.491 21.4415 220.802 22.8124 220.624 24.4831M230.127 22.9068C228.001 20.5367 223.583 19.2157 217.677 19.188C210.839 19.188 204.212 21.7967 199.005 26.5368C193.921 31.1658 190.746 37.2602 190.069 43.6987C189.553 48.6164 190.663 52.7514 193.277 55.6543C195.831 58.4906 199.633 59.9892 204.273 59.9892C213.009 59.9892 221.807 54.5109 227.801 45.3361L227.862 45.2472L227.412 45.0086L227.362 45.0696C222.817 50.5146 216.9 51.1418 214.424 51.1418H214.291C211.366 51.1085 209.096 50.2038 207.536 48.4554C205.572 46.2519 204.822 42.8162 205.305 38.2482C205.388 37.4489 205.516 36.6219 205.683 35.7838C219.37 37.9762 225.753 34.9901 228.339 33.0086C230.249 31.5488 231.37 29.6949 231.586 27.6468C231.781 25.793 231.292 24.2 230.132 22.9068" fill="#B2B2B2"></path></svg>