<svg xmlns="http://www.w3.org/2000/svg" width="212" height="60" viewBox="0 0 212 60" fill="none"><path d="M19.5889 32.7573C21.1046 28.0195 26.1053 16.987 34.7973 16.987C38.5195 16.987 42.9634 19.0285 42.9634 23.8024C42.9634 27.4575 40.329 30.4837 36.545 30.4837C33.8126 30.4837 31.4411 28.901 31.2452 25.5449C33.2197 25.019 34.2096 23.4054 34.2096 21.6938C34.2096 19.8843 33.1218 18.6315 31.3122 18.6315C26.7033 18.6315 21.8624 26.4986 19.759 32.7212C34.1477 27.2565 39.4113 36.2114 42.0457 42.6659C45.139 50.3062 45.9948 51.9507 49.3561 51.8167V52.0126C45.9999 52.2085 45.1751 52.4714 38.7875 52.4714C35.6582 52.4714 33.029 51.4816 31.4154 49.8731C25.5898 44.0785 28.7139 29.9888 19.5992 32.8552V51.8167H23.2183V52.0126H1.67914V51.8167H7.40676V1.87656L0.658374 2.76328L0.627441 2.56738L19.5889 0V32.7573Z" fill="#B2B2B2"></path><path d="M48.7581 25.0551C53.8928 20.0492 51.7534 12.1821 44.742 10.6716C43.3604 6.06269 47.1805 2.30957 50.7996 2.30957C54.4187 2.30957 57.5789 5.33578 57.5789 9.74878C57.5789 14.4247 54.1248 21.204 48.9231 25.2201L48.7581 25.0551Z" fill="#B2B2B2"></path><path d="M59.1257 2.76328L59.0947 2.56738L78.0562 0V51.8167H83.7838V52.0126H60.1464V51.8167H65.874V1.87656L59.1257 2.76328Z" fill="#B2B2B2"></path><path d="M111.241 18.8327L106.271 19.4925L106.241 19.2966L123.423 16.9922V52.0127H113.515C119.382 62.4265 138.699 61.7563 139.065 49.4092C139.122 47.4347 137.786 44.5322 136.111 44.0064C136.307 39.8563 139.271 37.9488 142.565 37.9488C146.056 37.9488 149.345 40.2533 149.345 44.6663C149.345 62.6585 111.051 67.52 111.246 44.4136V43.3259C109.829 48.8576 105.354 52.2137 99.4612 52.2137C93.5686 52.2137 89.1247 48.9865 89.1247 42.5371V18.8327L82.8351 19.6884L82.8042 19.4925L101.307 16.9922V43.3619C101.307 45.9293 101.441 49.9454 104.864 49.9454C108.287 49.9454 111.118 45.2694 111.252 41.4184V18.8327H111.241Z" fill="#B2B2B2"></path><path d="M149.128 37.923L148.994 37.7271L135.461 17.6469H130.718V17.451H153.763V17.6469H149.613L156.923 28.4474L169.76 12.9761C173.415 8.56311 180.194 1.19092 187.371 1.19092C192.438 1.19092 196.784 3.82532 196.784 8.96007C196.784 13.0431 193.428 15.2135 190.067 15.2135C186.907 15.2135 183.777 13.27 183.551 9.15598C185.195 8.82603 186.778 7.34644 186.778 5.40286C186.778 4.05215 185.891 2.57256 183.948 2.57256C181.349 2.57256 176.869 4.90795 170.085 13.007L157.016 28.6124L172.786 51.8219H177.524V52.0178H152.505V51.8219H158.495L149.113 37.9281L149.128 37.923Z" fill="#B2B2B2"></path><path d="M188.732 30.3549V30.7158H198.475C199.527 26.6327 199.527 17.219 194.851 17.219C189.582 17.219 188.727 24.6943 188.727 30.3549M188.727 30.9478C188.856 37.5002 191.098 47.4759 199.919 47.4759C204.528 47.4759 208.807 44.0527 211.374 38.82L211.57 38.918C208.343 45.9654 201.955 52.4818 192.475 52.4818C182.994 52.4818 175.555 45.7643 175.555 35.2989C175.555 24.8335 183.52 16.9973 195.372 16.9973C206.234 16.9973 212.23 22.5961 210.121 30.9529H188.722L188.727 30.9478Z" fill="#B2B2B2"></path></svg>