<svg xmlns="http://www.w3.org/2000/svg" width="222" height="60" viewBox="0 0 222 60" fill="none"><path d="M36.3525 18.8948H35.2701L7.74232 39.1768V0L0.570068 1.38716V59.38H7.74232V40.0228L15.7605 34.0853L33.9618 59.38H42.1376L21.3144 29.9974L36.3525 18.8948Z" fill="#B2B2B2"></path><path d="M53.6237 1.23486C52.7462 1.23486 51.9896 1.55538 51.3485 2.20167C50.7075 2.84271 50.387 3.6046 50.387 4.47683C50.387 5.14414 50.6707 6.55757 51.2329 8.71713C51.8004 10.8241 52.2628 12.8681 52.6201 14.849C52.9774 16.8299 53.2086 19.0788 53.3137 21.5957H53.9284C54.0808 19.0788 54.3383 16.8667 54.7008 14.9646C55.0581 13.0625 55.5205 10.9818 56.088 8.71713C56.6029 6.76249 56.8604 5.34906 56.8604 4.47683C56.8604 3.6046 56.5504 2.84796 55.9356 2.20167C55.3208 1.56064 54.5484 1.23486 53.6237 1.23486Z" fill="#B2B2B2"></path><path d="M67.5059 59.38H74.6781V0L67.5059 1.38716V59.38Z" fill="#B2B2B2"></path><path d="M119.251 45.419C116.781 49.2757 113.991 52.3338 110.886 54.5984C107.775 56.8631 104.654 57.9928 101.517 57.9928C98.843 57.9928 96.8621 57.3885 95.58 56.18C94.2927 54.9715 93.5098 53.6369 93.226 52.1709C92.9423 50.7049 92.8004 49.076 92.8004 47.2738V18.8948H85.6282V47.505C85.6282 51.719 86.8209 54.8559 89.2117 56.9103C91.6024 58.9701 94.6237 59.9947 98.2703 59.9947C102.127 59.9947 105.852 58.823 109.452 56.4847C113.051 54.1465 116.34 50.8152 119.325 46.4961L120.481 59.3747H126.497V18.8948H119.246V45.4242L119.251 45.419Z" fill="#B2B2B2"></path><path d="M173.613 18.8948H172.615L157.346 36.5548L144.157 18.8948H135.829L152.102 40.7163L135.829 59.3799H136.832L152.564 41.3363L165.979 59.3799H174.386L157.808 37.1696L173.613 18.8948Z" fill="#B2B2B2"></path><path d="M192.739 23.0983C195.566 20.5026 199.318 19.2048 203.999 19.2048C206.774 19.2048 209.233 19.704 211.366 20.7076C213.499 21.7112 215.154 23.0983 216.342 24.8743C217.524 26.6503 218.118 28.6417 218.118 30.8485C218.118 31.8784 217.987 32.7769 217.734 33.5493H187.348C188.121 29.1777 189.918 25.694 192.744 23.0983M221.045 43.3435C219.295 47.6101 216.878 50.9414 213.794 53.3321C210.709 55.7229 207.136 56.9156 203.075 56.9156C200.043 56.9156 197.29 56.1695 194.825 54.6772C192.356 53.185 190.417 51.0517 189.003 48.2774C187.59 45.5031 186.881 42.2348 186.881 38.4832C186.881 37.4533 186.986 36.0136 187.191 34.1641H218.192C218.549 33.2393 218.733 32.1359 218.733 30.8485C218.733 28.5892 218.118 26.5032 216.883 24.6011C215.648 22.699 213.825 21.1699 211.408 20.014C208.991 18.858 206.085 18.28 202.691 18.28C198.267 18.28 194.274 19.1523 190.701 20.902C187.128 22.6517 184.311 25.158 182.257 28.421C180.202 31.684 179.172 35.5565 179.172 40.028C179.172 43.7271 179.992 47.0952 181.642 50.1322C183.287 53.164 185.662 55.5705 188.777 57.3412C191.888 59.1172 195.577 60 199.843 60C204.83 60 209.212 58.4814 212.99 55.4496C216.768 52.4179 219.636 48.4613 221.586 43.5747L221.045 43.3435Z" fill="#B2B2B2"></path></svg>