<svg xmlns="http://www.w3.org/2000/svg" width="275" height="116" viewBox="0 0 275 116" fill="none"><path d="M61.5303 54.5967C61.5262 54.487 61.5059 54.3732 61.4693 54.2675C60.7865 52.1905 59.1728 51.1987 56.9251 51.4751C56.2463 51.5604 55.6041 51.8206 55.0635 52.2189C52.1532 54.1984 49.8323 55.5925 48.174 56.3567C45.9222 57.3932 43.3737 58.0963 40.5975 58.4378C37.0329 58.8808 33.9844 58.5516 31.5375 57.4541C28.7004 56.2104 27.1355 54.0886 26.7494 50.967C26.1885 46.4268 28.1354 42.8866 32.6959 40.1511C36.1874 38.0822 40.8008 36.6799 46.4059 35.9848C46.853 35.9279 47.5115 35.8751 48.3853 35.8223C49.3243 35.7654 50.0356 35.7044 50.5152 35.6434C53.2344 35.306 54.6205 33.7005 54.3156 31.2414C54.3075 31.1723 54.2912 31.1032 54.275 31.0382L49.6738 16.0357C49.0723 14.0359 47.418 13.0523 45.1337 13.3368L43.9468 13.4831C31.2367 15.0561 20.9289 18.8525 13.3118 24.7624C3.84124 32.0747 -0.203051 41.9232 1.29679 54.0399C2.54463 64.0957 7.44249 71.5461 15.8603 76.1839C23.2498 80.2485 32.2122 81.663 42.4917 80.3907C46.5807 79.8827 50.69 78.8462 54.7058 77.3016C59.7703 75.3466 63.3594 72.981 65.3673 70.2658C65.9811 69.4325 66.2412 68.453 66.1152 67.4287L66.0949 67.2661C66.0827 67.1726 66.0623 67.0832 66.0298 66.9978C64.1073 61.596 62.5952 57.4297 61.5303 54.5967ZM45.6214 17.5925L49.8608 31.3878C49.4218 31.4365 48.804 31.4894 48.0155 31.5382C47.0765 31.5991 46.3652 31.656 45.8856 31.717C39.3538 32.5259 33.9641 34.2411 29.8629 36.814C24.205 40.4153 21.7255 45.3578 22.4856 51.4995C23.0547 56.0844 25.3634 59.3604 29.3548 61.2342C32.5537 62.73 36.5126 63.1974 41.1219 62.6284C46.54 61.9577 52.0069 59.6937 57.4088 55.873C57.425 55.8608 57.4413 55.8486 57.4535 55.8364L61.8026 67.8311C59.9979 69.9975 57.0064 71.8957 52.9093 73.4768C49.43 74.8182 45.7474 75.7368 41.9754 76.2042C32.8016 77.3423 24.8106 76.1066 18.2259 72.5339C10.7958 68.5139 6.65802 62.2951 5.5687 53.5115C4.22331 42.6671 7.77985 34.2371 16.4293 27.7418C23.4367 22.4944 33.0089 19.0882 44.8857 17.6169C45.2556 17.5721 45.4873 17.5762 45.6214 17.5884V17.5925Z" fill="#B2B2B2"></path><path d="M199.5 55.4868C199.545 55.3852 199.573 55.2755 199.59 55.1617C199.874 52.9911 198.85 51.4019 196.7 50.6784C196.049 50.4589 195.362 50.4182 194.7 50.5443C191.216 51.0686 188.526 51.3206 186.701 51.2921C184.221 51.2515 181.62 50.78 178.97 49.8899C175.564 48.7436 172.962 47.13 171.227 45.0814C169.211 42.7321 168.715 40.1429 169.719 37.1595C171.178 32.8225 174.466 30.4773 179.762 29.9814C183.807 29.6277 188.57 30.3594 193.923 32.16C194.35 32.3023 194.968 32.5421 195.777 32.8672C196.651 33.2209 197.317 33.4729 197.777 33.6273C200.374 34.5012 202.321 33.6558 203.109 31.3024C203.13 31.2373 203.15 31.1682 203.158 31.0991L205.508 15.5845C205.833 13.5237 204.768 11.9182 202.585 11.1866L201.451 10.8045C189.314 6.72365 178.38 5.67904 168.95 7.71135C157.236 10.1989 149.327 17.3282 145.433 28.9002C142.201 38.5049 143.392 47.3413 148.973 55.1657C153.875 62.0308 161.342 67.1848 171.158 70.4893C175.064 71.8022 179.218 72.6436 183.506 72.9931C188.916 73.424 193.176 72.8427 196.163 71.2657C197.078 70.782 197.736 70.0097 198.065 69.0301L198.118 68.8757C198.147 68.7862 198.167 68.6968 198.175 68.6074C198.781 62.9047 199.224 58.4946 199.488 55.4828L199.5 55.4868ZM201.179 15.239L199.029 29.5099C198.61 29.3635 198.033 29.1441 197.301 28.8433C196.427 28.4897 195.761 28.2376 195.305 28.0832C189.066 25.9859 183.465 25.1973 178.657 25.742C171.999 26.5386 167.621 29.9204 165.65 35.7856C164.179 40.1632 164.841 44.114 167.625 47.5364C169.861 50.2719 173.226 52.4058 177.628 53.8854C182.803 55.625 188.713 55.9502 195.232 54.8446C195.253 54.8405 195.269 54.8365 195.289 54.8324L194.021 67.5262C191.456 68.6968 187.936 69.1155 183.559 68.7659C179.84 68.4692 176.125 67.7051 172.519 66.4897C163.76 63.5429 157.09 58.9702 152.7 52.8977C147.745 46.061 146.705 38.6593 149.526 30.274C153.009 19.9174 159.862 13.857 170.471 11.7475C179.059 10.0526 189.164 11.1256 200.508 14.9423C200.862 15.0602 201.069 15.1659 201.183 15.235L201.179 15.239Z" fill="#B2B2B2"></path><path d="M258.908 24.0269C251.185 19.1981 242.82 17.9462 234.044 20.3037C224.314 22.9132 216.839 28.0143 211.827 35.4647C206.568 43.3338 205.21 52.2109 207.795 61.8481C210.441 71.7129 215.92 78.574 224.07 82.2525C231.561 85.6464 240.422 86.0122 250.4 83.3336C259.066 81.0087 265.757 76.1068 270.297 68.762C274.918 61.2343 276.085 53.0401 273.764 44.3987C271.398 35.5785 266.399 28.7256 258.904 24.0309L258.908 24.0269ZM249.287 79.1715C240.389 81.5615 232.557 81.2932 226.013 78.3748C218.981 75.2288 214.25 69.2945 211.949 60.7303C209.697 52.3328 210.888 44.6101 215.489 37.7815C219.92 31.2578 226.537 26.7746 235.158 24.4618C242.775 22.4173 250.006 23.5066 256.648 27.7013C263.18 31.8147 267.541 37.8059 269.61 45.5124C271.605 52.9507 270.585 60.0231 266.578 66.5305C262.651 72.8957 256.831 77.1514 249.287 79.1756V79.1715ZM237.564 39.6187C233.849 40.6146 231.073 42.8785 229.309 46.3416C227.569 49.7599 227.187 53.3653 228.179 57.0559C229.175 60.771 231.28 63.7016 234.439 65.7664C237.764 67.9044 241.328 68.4856 245.043 67.4898C248.758 66.494 251.543 64.2056 253.323 60.6978C255.046 57.3242 255.416 53.7311 254.42 50.0119C253.429 46.3213 251.315 43.4069 248.128 41.3503C244.803 39.2123 241.251 38.627 237.564 39.6187ZM243.95 63.413C241.377 64.104 239.007 63.6975 236.719 62.1814C234.492 60.6775 233.057 58.633 232.337 55.9422C231.622 53.2799 231.87 50.8005 233.085 48.3577C234.276 45.9677 236.105 44.4719 238.682 43.7809C241.235 43.094 243.604 43.4923 245.917 44.984C248.189 46.4757 249.636 48.4837 250.343 51.1135C251.059 53.7758 250.815 56.2633 249.604 58.7143C248.352 61.1978 246.502 62.7342 243.954 63.4211L243.95 63.413Z" fill="#B2B2B2"></path><path d="M56.9823 101.636H55.4581V102.644H56.8116V103.283H55.4581V104.347H56.9823V105.002H54.6533V100.982H56.9823V101.636Z" fill="#B2B2B2"></path><path d="M60.2505 105.042C59.4173 105.042 58.771 104.603 58.7588 103.847H59.6205C59.6449 104.169 59.8562 104.384 60.2302 104.384C60.6041 104.384 60.8358 104.181 60.8358 103.896C60.8358 103.026 58.7629 103.551 58.771 102.096C58.771 101.372 59.3563 100.933 60.1855 100.933C61.0147 100.933 61.5715 101.352 61.6243 102.079H60.7383C60.722 101.815 60.5066 101.608 60.1611 101.604C59.844 101.592 59.6083 101.746 59.6083 102.075C59.6083 102.88 61.6691 102.433 61.6691 103.847C61.6691 104.482 61.161 105.051 60.2464 105.051L60.2505 105.042Z" fill="#B2B2B2"></path><path d="M63.3066 100.986H66.2535V101.636H65.1845V105.002H64.3797V101.636H63.3107V100.986H63.3066Z" fill="#B2B2B2"></path><path d="M71.5131 102.998C71.5131 104.213 70.6799 105.002 69.3955 105.002H67.9932V100.986H69.3955C70.6799 100.986 71.5131 101.778 71.5131 102.998ZM69.367 104.315C70.2124 104.315 70.6921 103.831 70.6921 102.998C70.6921 102.165 70.2165 101.665 69.367 101.665H68.798V104.315H69.367Z" fill="#B2B2B2"></path><path d="M204.438 104.348C205.389 103.543 206.381 102.799 206.381 102.031C206.381 101.657 206.214 101.405 205.816 101.405C205.418 101.405 205.218 101.681 205.21 102.124H204.426C204.454 101.165 205.072 100.722 205.824 100.722C206.726 100.722 207.182 101.258 207.182 101.986C207.182 102.957 206.243 103.718 205.576 104.283H207.275V104.949H204.434V104.352L204.438 104.348Z" fill="#B2B2B2"></path><path d="M210.494 100.726C211.681 100.726 212.047 101.637 212.047 102.848C212.047 104.059 211.677 104.99 210.494 104.99C209.311 104.99 208.941 104.075 208.941 102.848C208.941 101.62 209.311 100.726 210.494 100.726ZM210.494 101.474C209.815 101.474 209.734 102.128 209.734 102.848C209.734 103.567 209.815 104.242 210.494 104.242C211.173 104.242 211.254 103.596 211.254 102.848C211.254 102.1 211.173 101.474 210.494 101.474Z" fill="#B2B2B2"></path><path d="M213.762 104.347C214.713 103.543 215.705 102.799 215.705 102.03C215.705 101.657 215.538 101.405 215.14 101.405C214.742 101.405 214.543 101.681 214.534 102.124H213.75C213.778 101.165 214.396 100.722 215.148 100.722C216.051 100.722 216.506 101.258 216.506 101.986C216.506 102.957 215.567 103.717 214.9 104.282H216.599V104.949H213.758V104.351L213.762 104.347Z" fill="#B2B2B2"></path><path d="M219.818 100.726C221.005 100.726 221.371 101.637 221.371 102.848C221.371 104.059 221.001 104.99 219.818 104.99C218.636 104.99 218.266 104.075 218.266 102.848C218.266 101.62 218.636 100.726 219.818 100.726ZM219.818 101.474C219.14 101.474 219.058 102.128 219.058 102.848C219.058 103.567 219.14 104.242 219.818 104.242C220.497 104.242 220.578 103.596 220.578 102.848C220.578 102.1 220.497 101.474 219.818 101.474Z" fill="#B2B2B2"></path><path d="M108.485 111.522L108.363 111.538C107.956 111.562 107.595 111.453 107.273 111.209C106.956 110.965 106.753 110.628 106.672 110.201L103.384 92.3042C103.298 91.8531 103.384 91.4425 103.636 91.0849C103.888 90.7231 104.241 90.4995 104.697 90.4142C105.152 90.3288 105.558 90.4142 105.916 90.6662C106.278 90.9223 106.501 91.2759 106.587 91.7271L107.977 99.336C108.225 98.2955 108.493 97.3525 108.781 96.507C109.07 95.6657 109.387 94.9056 109.737 94.2309C111.009 91.8002 112.614 90.4752 114.553 90.2516C115.899 90.0768 117.081 90.4589 118.102 91.3938C119.175 92.2961 120.089 93.7878 120.849 95.877C121.41 97.4704 121.837 99.3157 122.134 101.409C122.276 102.291 122.39 103.136 122.479 103.945C122.569 104.754 122.642 105.47 122.695 106.091C122.747 106.713 122.78 107.213 122.784 107.595C122.792 107.977 122.796 108.181 122.8 108.209C122.804 108.672 122.666 109.067 122.378 109.392C122.089 109.717 121.715 109.88 121.252 109.884C120.788 109.888 120.394 109.741 120.069 109.441C119.744 109.14 119.577 108.758 119.573 108.294C119.549 107.697 119.508 107.047 119.443 106.343C119.394 105.75 119.325 105.075 119.244 104.319C119.158 103.567 119.049 102.758 118.91 101.905C118.675 100.515 118.431 99.336 118.171 98.3727C117.911 97.4094 117.642 96.6168 117.374 95.9949C117.102 95.373 116.85 94.8934 116.614 94.556C116.378 94.2187 116.171 93.9789 115.988 93.8366C115.744 93.6496 115.541 93.5399 115.37 93.5074C115.204 93.4748 115.049 93.4667 114.915 93.483C114.11 93.5887 113.346 94.3406 112.627 95.7429C111.907 97.1452 111.306 99.0556 110.822 101.466C110.602 102.531 110.432 103.571 110.302 104.588C110.172 105.604 110.078 106.51 110.017 107.307C109.956 108.107 109.907 109.002 109.871 109.989C109.867 110.371 109.724 110.713 109.448 111.006C109.172 111.302 108.846 111.473 108.468 111.522H108.485Z" fill="#B2B2B2"></path><path d="M130.141 110.16C129.938 110.083 129.723 109.998 129.503 109.9C129.28 109.802 129.072 109.701 128.877 109.599C127.028 108.587 125.703 107.181 124.902 105.376C124.557 104.523 124.345 103.62 124.268 102.665L124.223 102.433C124.174 101.173 124.366 99.8523 124.792 98.4784C125.109 97.5557 125.54 96.6981 126.081 95.9014C126.625 95.1048 127.272 94.4016 128.024 93.7879C129.438 92.6376 131.019 91.8856 132.775 91.532C133.503 91.3694 134.23 91.2962 134.962 91.3084C135.694 91.3206 136.405 91.4141 137.092 91.5848C138.571 91.9628 139.787 92.6945 140.742 93.7757C141.697 94.8568 142.266 96.1982 142.445 97.7996C142.632 99.4621 142.376 101.263 141.681 103.197C141.583 103.535 141.388 103.803 141.1 103.998C140.811 104.193 140.49 104.299 140.136 104.311L127.926 104.12C128.243 104.819 128.65 105.376 129.146 105.791C129.641 106.209 130.068 106.514 130.43 106.705C131.438 107.258 132.479 107.53 133.552 107.526C134.438 107.482 135.039 107.258 135.364 106.86C135.645 106.502 135.998 106.303 136.433 106.262C136.868 106.222 137.263 106.343 137.624 106.62C137.982 106.9 138.189 107.258 138.242 107.697C138.295 108.136 138.181 108.534 137.901 108.892C136.929 110.091 135.511 110.717 133.641 110.77C133.056 110.782 132.474 110.737 131.889 110.636C131.304 110.534 130.723 110.371 130.137 110.152L130.141 110.16ZM136.771 94.8934C135.755 94.5114 134.641 94.4423 133.421 94.6821C132.909 94.8081 132.381 94.9869 131.832 95.2145C131.284 95.4421 130.751 95.7592 130.243 96.1616C129.731 96.564 129.267 97.0395 128.861 97.5964C128.45 98.1532 128.125 98.7914 127.885 99.5108C127.825 99.7466 127.759 99.9783 127.694 100.198C127.625 100.417 127.581 100.641 127.556 100.86L138.945 101.047C139.535 98.7792 139.319 97.0802 138.295 95.9421C137.893 95.4747 137.384 95.1251 136.779 94.8975L136.771 94.8934Z" fill="#B2B2B2"></path><path d="M160.235 108.388C160.479 108.766 160.548 109.181 160.438 109.628C160.328 110.075 160.085 110.408 159.707 110.624C159.491 110.815 159.207 110.908 158.853 110.908C158.284 110.908 157.825 110.652 157.471 110.136C156.687 108.888 155.825 107.644 154.89 106.396C153.955 105.148 153.012 103.929 152.065 102.738C151.171 104.173 150.329 105.51 149.545 106.742C148.761 107.973 148.013 109.107 147.309 110.136C147.013 110.652 146.566 110.908 145.968 110.908C145.696 110.908 145.399 110.815 145.074 110.624C144.696 110.38 144.456 110.042 144.363 109.607C144.269 109.172 144.342 108.766 144.586 108.388C145.346 107.221 146.163 105.957 147.045 104.588C147.927 103.218 148.866 101.734 149.87 100.137C149.004 99.1613 148.191 98.2589 147.431 97.4338C146.671 96.6087 146.001 95.8974 145.419 95.2999C144.838 94.7024 144.192 94.0521 143.489 93.3489C143.164 93.0522 143.001 92.6701 143.001 92.2108C143.001 91.7515 143.164 91.3694 143.489 91.0727C143.785 90.7475 144.159 90.5768 144.606 90.5646C145.054 90.5524 145.44 90.7069 145.765 91.0321C145.818 91.0849 146.342 91.6133 147.33 92.6173C148.317 93.6212 149.545 94.9341 151.008 96.5599L151.659 97.2509C152.228 96.3283 152.809 95.3731 153.406 94.3854C154.004 93.3977 154.614 92.3856 155.235 91.3572C155.451 90.9792 155.784 90.7353 156.231 90.6256C156.678 90.5159 157.093 90.5728 157.471 90.7882C157.849 91.0036 158.093 91.3369 158.203 91.784C158.312 92.2311 158.243 92.6457 157.999 93.0237C157.296 94.2431 156.597 95.4218 155.906 96.5599C155.215 97.698 154.544 98.7955 153.894 99.8523C155.195 101.397 156.374 102.88 157.43 104.303C158.487 105.726 159.422 107.087 160.235 108.388Z" fill="#B2B2B2"></path><path d="M177.335 103.563C177.794 103.592 178.176 103.766 178.473 104.092C178.769 104.417 178.908 104.811 178.879 105.27C178.879 105.323 178.847 105.656 178.778 106.266C178.708 106.876 178.554 107.616 178.31 108.481C177.631 110.973 176.575 112.843 175.14 114.091C173.729 115.363 172.051 116.001 170.1 116.001C169.99 116.001 169.888 115.993 169.795 115.981C169.701 115.968 169.6 115.96 169.49 115.96C167.592 115.826 166.08 114.985 164.95 113.44C163.718 111.786 162.942 109.335 162.621 106.083C162.487 104.998 162.418 103.84 162.418 102.608C162.418 101.376 162.458 100.055 162.539 98.645L160.751 99.0108C160.67 99.0393 160.56 99.0515 160.426 99.0515C160.048 99.0515 159.702 98.9377 159.389 98.706C159.076 98.4743 158.881 98.1695 158.8 97.7915C158.719 97.3322 158.8 96.9176 159.044 96.5518C159.288 96.1859 159.625 95.9502 160.06 95.8404L162.824 95.2714C162.93 94.1049 163.064 93.0155 163.226 91.9994C163.385 90.9832 163.527 90.0971 163.649 89.3371C163.771 88.577 163.877 87.9754 163.97 87.5283C164.064 87.0812 164.112 86.8292 164.112 86.7764C164.218 86.3414 164.454 86.0041 164.816 85.7602C165.177 85.5163 165.584 85.435 166.043 85.5163C166.502 85.6261 166.848 85.8618 167.08 86.2276C167.311 86.5934 167.384 87.008 167.303 87.4673C167.141 88.199 167.006 88.8818 166.897 89.52C166.787 90.1581 166.665 90.9101 166.531 91.7758C166.397 92.6416 166.275 93.5765 166.165 94.5804L176.936 92.3042C177.371 92.1945 177.778 92.2636 178.156 92.5075C178.534 92.7513 178.765 93.105 178.847 93.5643C178.956 93.9992 178.887 94.4056 178.643 94.7836C178.4 95.1617 178.046 95.3933 177.587 95.4746L165.799 97.954C165.584 100.962 165.584 103.563 165.799 105.758C165.933 107.059 166.145 108.197 166.429 109.172C166.714 110.148 167.088 110.92 167.547 111.489C168.116 112.274 168.836 112.68 169.701 112.709C171.03 112.79 172.128 112.453 172.994 111.692C173.591 111.176 174.059 110.542 174.396 109.782C174.733 109.022 174.998 108.298 175.189 107.608C175.38 106.917 175.526 106.083 175.636 105.108C175.664 104.648 175.839 104.266 176.164 103.97C176.489 103.673 176.883 103.535 177.343 103.563H177.335Z" fill="#B2B2B2"></path><path d="M137.892 59.6328L135.108 30.4122C135.108 30.3879 135.096 30.3675 135.096 30.3431C135.079 30.2415 135.055 30.1399 135.035 30.0424C135.018 29.9814 135.006 29.9123 134.986 29.8473C134.953 29.7538 134.909 29.6562 134.864 29.5668C134.835 29.5058 134.807 29.4367 134.775 29.3798C134.73 29.2945 134.669 29.2213 134.612 29.1441C134.563 29.0831 134.522 29.014 134.466 28.953C134.462 28.949 134.453 28.9287 134.441 28.9246C134.38 28.8555 134.311 28.8067 134.246 28.7498C134.197 28.7051 134.157 28.6563 134.108 28.6157L111.846 11.9223C110.805 11.1419 109.342 11.272 108.456 12.2312C106.708 14.1253 104.668 14.7188 102.871 14.7635L97.0264 0.968185C96.8557 0.565788 96.5265 0.248748 96.1119 0.0983572C95.7014 -0.0520335 95.2421 -0.0276459 94.8519 0.167456L83.6417 5.77256C82.8572 6.16276 82.5402 7.11795 82.9304 7.90242C83.3246 8.68689 84.2757 9.00799 85.0602 8.61372L94.7543 3.76464L99.1482 14.1538C98.632 13.9709 98.3109 13.8124 98.258 13.788C97.2663 13.2799 96.0591 13.475 95.2827 14.2635L69.0863 40.9315C69.0863 40.9315 69.0619 40.9559 69.0538 40.964C69.0294 40.9924 69.0091 41.0209 68.9806 41.0493C68.9074 41.1347 68.8424 41.2241 68.7774 41.3176C68.753 41.3501 68.7327 41.3867 68.7083 41.4192C68.6351 41.5412 68.5701 41.6712 68.5172 41.8054C68.5132 41.8216 68.5132 41.8379 68.505 41.8501C68.4603 41.972 68.4278 42.098 68.4034 42.224C68.3912 42.2647 68.3872 42.3094 68.379 42.3541C68.3628 42.4841 68.3506 42.6102 68.3506 42.7483V42.7931C68.3547 42.9435 68.379 43.0938 68.4075 43.2402C68.4116 43.2564 68.4116 43.2808 68.4197 43.2971C68.4237 43.3215 68.4359 43.3418 68.4441 43.3702C68.4563 43.4109 68.4603 43.4475 68.4725 43.484C72.9964 57.633 80.7029 67.323 91.3848 72.29C97.4451 75.1027 103.676 76.0335 109.289 76.0335C119.971 76.0335 128.373 72.6436 128.901 72.4241C129.34 72.2453 129.714 71.9485 129.99 71.5705L137.412 61.3643C137.778 60.8643 137.945 60.2506 137.888 59.6328H137.892ZM97.7215 19.0435C101.01 20.141 106.151 20.5678 110.472 17.2551L128.617 30.8594L119.284 39.5251L107.485 32.2047C106.908 31.8471 106.217 31.7332 105.558 31.8918L78.8942 38.2082L97.7215 19.0435ZM126.328 67.9652C123.016 69.1643 107.46 74.1434 93.5349 67.6726C84.8489 63.6364 78.3617 55.8527 74.224 44.5368L105.7 37.0823L118.252 44.8741C119.223 45.4798 120.483 45.3578 121.325 44.5774L130.535 36.0255L132.738 59.1572L126.332 67.9693L126.328 67.9652Z" fill="#B2B2B2"></path></svg>