<svg xmlns="http://www.w3.org/2000/svg" width="271" height="127" viewBox="0 0 271 127" fill="none"><path d="M60.4595 65.6189C60.4558 65.509 60.4338 65.4027 60.3972 65.2927C59.7264 63.2474 58.1393 62.2761 55.9291 62.5474C55.2584 62.6317 54.6316 62.8846 54.1001 63.2804C51.2375 65.2267 48.9576 66.5976 47.3266 67.349C45.109 68.3679 42.6056 69.057 39.8786 69.3979C36.3709 69.8341 33.3763 69.5078 30.9682 68.4339C28.1788 67.2097 26.6394 65.1241 26.2582 62.0525C25.7047 57.5882 27.6217 54.1061 32.1081 51.4157C35.5425 49.3815 40.0802 48.0033 45.5929 47.3179C46.029 47.2629 46.6815 47.2116 47.5391 47.1566C48.4628 47.098 49.1629 47.0393 49.6357 46.9807C52.3114 46.6508 53.6749 45.071 53.3744 42.6519C53.367 42.5859 53.3524 42.5163 53.334 42.4503L48.811 27.6973C48.2209 25.7327 46.5935 24.7651 44.3466 25.0436L43.1811 25.1866C30.6823 26.7334 20.5476 30.4683 13.0557 36.2779C3.72737 43.4656 -0.253189 53.1531 1.22394 65.0691C2.44816 74.9582 7.26808 82.2852 15.5444 86.8449C22.8128 90.8438 31.6243 92.2329 41.7332 90.9831C45.7541 90.4846 49.797 89.4619 53.7446 87.9482C58.7258 86.0275 62.2518 83.7 64.2311 81.028C64.8359 80.2106 65.0888 79.243 64.9642 78.2387L64.9458 78.0774C64.9348 77.9858 64.9128 77.8978 64.8835 77.8135C62.9922 72.5024 61.5077 68.4046 60.4595 65.6189ZM44.8121 29.2258L48.9833 42.7949C48.5508 42.8425 47.946 42.8938 47.1689 42.9415C46.2453 43.0001 45.5452 43.0588 45.076 43.1174C38.6507 43.9128 33.3506 45.5988 29.3188 48.1316C23.7584 51.6723 21.3173 56.5326 22.0651 62.573C22.6222 67.0814 24.8947 70.3032 28.8203 72.1469C31.9651 73.6167 35.8614 74.0785 40.3917 73.5177C45.7211 72.858 51.0982 70.6294 56.4056 66.8725C56.4203 66.8615 56.4349 66.8505 56.4496 66.8395L60.727 78.6345C58.9493 80.7641 56.0097 82.6334 51.9815 84.1875C48.5581 85.507 44.9404 86.4124 41.2274 86.8705C32.207 87.9885 24.3486 86.7752 17.8719 83.2602C10.5669 79.309 6.4947 73.1878 5.42808 64.556C4.10856 53.8898 7.60163 45.6025 16.1089 39.2138C22.9997 34.053 32.416 30.7066 44.0937 29.2588C44.4566 29.2148 44.6838 29.2185 44.8158 29.2331L44.8121 29.2258Z" fill="#B2B2B2"></path><path d="M196.135 66.4914C196.179 66.3924 196.208 66.2825 196.223 66.1725C196.502 64.0393 195.494 62.4742 193.383 61.7631C192.745 61.5469 192.067 61.5065 191.418 61.6312C187.994 62.148 185.348 62.3936 183.548 62.3642C181.111 62.3239 178.553 61.8621 175.946 60.9861C172.596 59.8608 170.038 58.2701 168.334 56.2578C166.351 53.9486 165.863 51.4012 166.853 48.4653C168.286 44.2025 171.519 41.8933 176.731 41.4095C180.708 41.0613 185.396 41.7834 190.659 43.5537C191.077 43.693 191.685 43.9276 192.481 44.2501C193.339 44.5983 193.995 44.8476 194.445 44.9979C197 45.8556 198.913 45.0235 199.691 42.7144C199.713 42.6484 199.727 42.5824 199.738 42.5164L202.047 27.2576C202.366 25.2307 201.318 23.6546 199.174 22.9325L198.059 22.5587C186.121 18.5451 175.371 17.5188 166.101 19.5164C154.581 21.9649 146.803 28.973 142.973 40.3539C139.795 49.7995 140.968 58.49 146.455 66.1835C151.275 72.9351 158.617 78.0042 168.275 81.2517C172.116 82.5419 176.199 83.3739 180.418 83.7148C185.74 84.14 189.926 83.5682 192.866 82.0178C193.764 81.5413 194.412 80.7826 194.735 79.8186L194.786 79.6646C194.816 79.5767 194.834 79.4887 194.845 79.4007C195.439 73.7928 195.875 69.4567 196.135 66.4951V66.4914ZM197.785 26.9131L195.67 40.9477C195.259 40.8047 194.691 40.5885 193.969 40.2916C193.111 39.9434 192.455 39.6941 192.004 39.5438C185.869 37.4803 180.36 36.7032 175.631 37.242C169.085 38.0264 164.782 41.3509 162.839 47.1201C161.391 51.4269 162.044 55.3121 164.782 58.6732C166.981 61.3599 170.291 63.4638 174.62 64.919C179.711 66.6307 185.52 66.9496 191.931 65.861C191.949 65.8573 191.968 65.8536 191.986 65.85L190.736 78.3341C188.211 79.485 184.754 79.8955 180.448 79.551C176.79 79.2578 173.139 78.5064 169.591 77.3151C160.974 74.4159 154.416 69.9222 150.099 63.9513C145.224 57.2254 144.205 49.9497 146.976 41.7027C150.403 31.5168 157.14 25.5569 167.575 23.4823C176.02 21.8146 185.957 22.8702 197.114 26.6235C197.462 26.7408 197.664 26.8434 197.777 26.9131H197.785Z" fill="#B2B2B2"></path><path d="M254.558 35.5562C246.963 30.8096 238.734 29.578 230.106 31.8945C220.54 34.4639 213.187 39.4781 208.257 46.8014C203.085 54.539 201.751 63.2698 204.295 72.7447C206.897 82.4432 212.285 89.1947 220.301 92.8087C227.669 96.1479 236.381 96.5034 246.197 93.8717C254.719 91.5845 261.298 86.7646 265.763 79.5439C270.308 72.1436 271.455 64.0835 269.175 55.5872C266.848 46.915 261.932 40.1745 254.561 35.5598L254.558 35.5562ZM245.097 89.7848C236.345 92.1343 228.644 91.8704 222.211 89.0004C215.295 85.9069 210.643 80.0717 208.382 71.6487C206.164 63.3907 207.337 55.7962 211.864 49.0813C216.218 42.6633 222.728 38.2575 231.206 35.9814C238.698 33.9691 245.808 35.043 252.34 39.1665C258.765 43.2094 263.054 49.1033 265.088 56.6832C267.053 63.9992 266.048 70.9523 262.105 77.352C258.241 83.6124 252.52 87.7946 245.101 89.7848H245.097ZM233.57 50.8883C229.919 51.8669 227.185 54.0918 225.451 57.5005C223.739 60.8617 223.366 64.406 224.341 68.0347C225.323 71.6891 227.39 74.57 230.498 76.6043C233.768 78.7082 237.276 79.2763 240.926 78.2977C244.581 77.3154 247.319 75.0685 249.067 71.6194C250.764 68.3023 251.127 64.7689 250.145 61.1109C249.17 57.4822 247.091 54.6159 243.957 52.5927C240.688 50.4888 237.195 49.917 233.57 50.8883ZM239.849 74.2878C237.316 74.9659 234.988 74.57 232.738 73.0746C230.55 71.5938 229.139 69.5852 228.427 66.9388C227.724 64.3217 227.966 61.8806 229.164 59.4798C230.333 57.1303 232.133 55.6569 234.666 54.9788C237.199 54.3007 239.508 54.6929 241.78 56.1627C244.016 57.6325 245.438 59.6044 246.135 62.1922C246.838 64.8092 246.597 67.2577 245.405 69.6658C244.174 72.1069 242.356 73.6207 239.849 74.2951V74.2878Z" fill="#B2B2B2"></path><path d="M55.9852 111.876H54.4861V112.866H55.8166V113.492H54.4861V114.541H55.9852V115.186H53.6943V111.231H55.9852V111.876Z" fill="#B2B2B2"></path><path d="M59.1995 115.226C58.3785 115.226 57.7444 114.797 57.7334 114.05H58.5838C58.6057 114.365 58.8147 114.577 59.1849 114.577C59.5551 114.577 59.7787 114.38 59.7787 114.097C59.7787 113.243 57.7407 113.756 57.7481 112.327C57.7481 111.612 58.3235 111.183 59.1409 111.183C59.9583 111.183 60.5044 111.598 60.5557 112.309H59.6834C59.665 112.048 59.4561 111.843 59.1189 111.839C58.8073 111.828 58.5764 111.982 58.5764 112.305C58.5764 113.097 60.6034 112.657 60.6034 114.046C60.6034 114.669 60.1049 115.23 59.2069 115.23L59.1995 115.226Z" fill="#B2B2B2"></path><path d="M62.2061 111.238H65.1017V111.876H64.0497V115.186H63.258V111.876H62.2061V111.238Z" fill="#B2B2B2"></path><path d="M70.2762 113.218C70.2762 114.412 69.4552 115.186 68.1943 115.186H66.8125V111.238H68.1943C69.4552 111.238 70.2762 112.019 70.2762 113.218ZM68.165 114.515C68.997 114.515 69.4662 114.039 69.4662 113.218C69.4662 112.397 68.997 111.905 68.165 111.905H67.6042V114.515H68.165Z" fill="#B2B2B2"></path><path d="M200.994 114.54C201.929 113.749 202.907 113.019 202.907 112.26C202.907 111.894 202.742 111.645 202.354 111.645C201.965 111.645 201.764 111.916 201.76 112.352H200.99C201.02 111.406 201.624 110.97 202.365 110.97C203.252 110.97 203.699 111.498 203.699 112.216C203.699 113.173 202.775 113.921 202.119 114.474H203.787V115.13H200.99V114.54H200.994Z" fill="#B2B2B2"></path><path d="M206.95 110.981C208.116 110.981 208.479 111.876 208.479 113.071C208.479 114.266 208.116 115.175 206.95 115.175C205.785 115.175 205.422 114.277 205.422 113.071C205.422 111.865 205.785 110.981 206.95 110.981ZM206.95 111.718C206.283 111.718 206.203 112.363 206.203 113.071C206.203 113.778 206.283 114.442 206.95 114.442C207.617 114.442 207.698 113.807 207.698 113.071C207.698 112.334 207.617 111.718 206.95 111.718Z" fill="#B2B2B2"></path><path d="M210.164 114.54C211.098 113.749 212.077 113.019 212.077 112.26C212.077 111.894 211.912 111.645 211.524 111.645C211.135 111.645 210.934 111.916 210.93 112.352H210.16C210.189 111.406 210.794 110.97 211.535 110.97C212.422 110.97 212.869 111.498 212.869 112.216C212.869 113.173 211.945 113.921 211.289 114.474H212.957V115.13H210.16V114.54H210.164Z" fill="#B2B2B2"></path><path d="M216.117 110.981C217.283 110.981 217.646 111.876 217.646 113.071C217.646 114.266 217.283 115.175 216.117 115.175C214.952 115.175 214.589 114.277 214.589 113.071C214.589 111.865 214.952 110.981 216.117 110.981ZM216.117 111.718C215.45 111.718 215.37 112.363 215.37 113.071C215.37 113.778 215.45 114.442 216.117 114.442C216.784 114.442 216.865 113.807 216.865 113.071C216.865 112.334 216.784 111.718 216.117 111.718Z" fill="#B2B2B2"></path><path d="M106.632 121.596L106.515 121.611C106.115 121.636 105.76 121.526 105.444 121.285C105.133 121.043 104.935 120.713 104.854 120.291L101.622 102.694C101.537 102.247 101.622 101.847 101.871 101.492C102.12 101.136 102.468 100.916 102.915 100.832C103.363 100.748 103.762 100.832 104.118 101.081C104.473 101.33 104.693 101.679 104.777 102.126L106.145 109.607C106.39 108.58 106.65 107.653 106.936 106.825C107.218 105.996 107.534 105.249 107.878 104.589C109.128 102.199 110.708 100.894 112.614 100.674C113.933 100.506 115.099 100.88 116.103 101.796C117.159 102.683 118.061 104.149 118.808 106.202C119.358 107.77 119.78 109.581 120.073 111.641C120.212 112.51 120.326 113.342 120.414 114.137C120.502 114.932 120.571 115.636 120.626 116.245C120.678 116.857 120.707 117.348 120.714 117.725C120.722 118.099 120.729 118.301 120.733 118.327C120.736 118.785 120.601 119.17 120.318 119.488C120.036 119.807 119.67 119.969 119.211 119.972C118.753 119.976 118.368 119.833 118.046 119.54C117.727 119.247 117.562 118.869 117.558 118.415C117.536 117.828 117.492 117.187 117.434 116.498C117.386 115.915 117.32 115.251 117.24 114.507C117.159 113.767 117.049 112.975 116.913 112.132C116.682 110.765 116.44 109.607 116.184 108.661C115.927 107.715 115.667 106.935 115.4 106.323C115.132 105.71 114.883 105.241 114.652 104.908C114.421 104.574 114.216 104.34 114.036 104.2C113.798 104.017 113.596 103.907 113.431 103.874C113.266 103.841 113.116 103.834 112.984 103.852C112.192 103.955 111.441 104.695 110.734 106.077C110.026 107.459 109.432 109.336 108.96 111.707C108.747 112.755 108.575 113.778 108.446 114.775C108.318 115.772 108.226 116.663 108.168 117.451C108.109 118.239 108.062 119.118 108.025 120.09C108.018 120.467 107.882 120.801 107.611 121.09C107.339 121.38 107.017 121.548 106.65 121.596H106.632Z" fill="#B2B2B2"></path><path d="M127.931 120.258C127.729 120.185 127.52 120.097 127.3 120.002C127.08 119.906 126.875 119.808 126.684 119.709C124.866 118.715 123.562 117.33 122.777 115.556C122.436 114.716 122.227 113.829 122.154 112.891L122.114 112.66C122.066 111.418 122.253 110.124 122.675 108.771C122.986 107.862 123.408 107.019 123.943 106.238C124.478 105.458 125.116 104.765 125.852 104.157C127.242 103.028 128.799 102.287 130.526 101.939C131.24 101.781 131.955 101.708 132.677 101.719C133.399 101.734 134.096 101.822 134.774 101.99C136.229 102.364 137.424 103.083 138.362 104.146C139.3 105.208 139.861 106.528 140.037 108.104C140.22 109.739 139.971 111.509 139.286 113.415C139.191 113.749 139 114.013 138.714 114.203C138.428 114.394 138.113 114.496 137.768 114.511L125.761 114.324C126.072 115.01 126.472 115.559 126.959 115.966C127.447 116.377 127.868 116.677 128.224 116.868C129.217 117.41 130.24 117.682 131.292 117.674C132.16 117.63 132.754 117.41 133.073 117.018C133.348 116.666 133.7 116.468 134.125 116.432C134.55 116.391 134.942 116.509 135.294 116.784C135.646 117.059 135.848 117.41 135.899 117.843C135.95 118.275 135.84 118.668 135.565 119.019C134.612 120.2 133.216 120.815 131.376 120.863C130.801 120.878 130.229 120.834 129.653 120.731C129.078 120.629 128.506 120.471 127.931 120.258ZM134.451 105.245C133.454 104.871 132.355 104.802 131.156 105.036C130.654 105.161 130.133 105.337 129.595 105.56C129.056 105.784 128.532 106.096 128.03 106.491C127.527 106.887 127.073 107.356 126.67 107.903C126.267 108.449 125.944 109.075 125.709 109.783C125.651 110.017 125.585 110.241 125.519 110.457C125.453 110.674 125.405 110.89 125.38 111.11L136.581 111.293C137.16 109.064 136.947 107.389 135.943 106.275C135.547 105.813 135.049 105.472 134.451 105.245Z" fill="#B2B2B2"></path><path d="M157.525 118.513C157.763 118.887 157.829 119.294 157.723 119.734C157.616 120.174 157.374 120.5 157.004 120.712C156.792 120.899 156.509 120.991 156.165 120.991C155.604 120.991 155.153 120.738 154.805 120.232C154.032 119.008 153.185 117.78 152.269 116.556C151.349 115.332 150.421 114.133 149.49 112.96C148.611 114.371 147.786 115.684 147.013 116.897C146.239 118.11 145.506 119.221 144.813 120.236C144.52 120.742 144.08 120.995 143.494 120.995C143.226 120.995 142.933 120.903 142.614 120.716C142.24 120.478 142.009 120.144 141.914 119.715C141.819 119.29 141.896 118.891 142.134 118.517C142.878 117.373 143.684 116.127 144.553 114.778C145.418 113.433 146.345 111.974 147.331 110.402C146.477 109.442 145.678 108.558 144.934 107.744C144.187 106.931 143.53 106.231 142.955 105.648C142.383 105.061 141.749 104.424 141.056 103.731C140.737 103.438 140.576 103.064 140.576 102.613C140.576 102.162 140.737 101.788 141.056 101.495C141.35 101.176 141.716 101.008 142.156 100.997C142.596 100.982 142.977 101.136 143.296 101.455C143.351 101.51 143.86 102.027 144.835 103.012C145.807 103.998 147.013 105.292 148.453 106.89L149.091 107.569C149.652 106.663 150.223 105.725 150.81 104.75C151.396 103.779 151.994 102.785 152.609 101.774C152.822 101.4 153.148 101.162 153.588 101.055C154.028 100.949 154.435 101.004 154.809 101.216C155.183 101.429 155.421 101.755 155.527 102.195C155.633 102.635 155.567 103.042 155.325 103.416C154.633 104.614 153.947 105.772 153.266 106.894C152.587 108.012 151.928 109.093 151.286 110.131C152.565 111.648 153.724 113.107 154.765 114.507C155.806 115.907 156.722 117.245 157.521 118.524L157.525 118.513Z" fill="#B2B2B2"></path><path d="M174.338 113.771C174.793 113.796 175.163 113.972 175.456 114.291C175.75 114.61 175.881 114.998 175.856 115.449C175.856 115.504 175.823 115.83 175.757 116.428C175.691 117.029 175.537 117.755 175.299 118.605C174.632 121.057 173.594 122.897 172.179 124.121C170.794 125.375 169.141 126.002 167.224 126.002C167.118 126.002 167.019 125.994 166.923 125.983C166.828 125.969 166.729 125.965 166.623 125.965C164.757 125.833 163.269 125.005 162.158 123.487C160.949 121.864 160.186 119.452 159.871 116.252C159.739 115.185 159.67 114.049 159.67 112.836C159.67 111.623 159.71 110.325 159.791 108.94L158.031 109.299C157.951 109.325 157.844 109.339 157.712 109.339C157.339 109.339 156.998 109.226 156.693 108.998C156.386 108.771 156.195 108.474 156.114 108.1C156.034 107.646 156.114 107.243 156.353 106.88C156.591 106.521 156.924 106.286 157.353 106.18L160.073 105.619C160.179 104.475 160.311 103.401 160.465 102.401C160.623 101.4 160.762 100.528 160.879 99.7836C160.997 99.0396 161.103 98.4458 161.194 98.006C161.286 97.5661 161.334 97.3205 161.334 97.2655C161.44 96.8404 161.671 96.5068 162.023 96.2649C162.375 96.023 162.782 95.946 163.229 96.0267C163.683 96.133 164.02 96.3675 164.248 96.7268C164.475 97.086 164.548 97.4928 164.468 97.9473C164.306 98.6657 164.174 99.3401 164.068 99.9669C163.962 100.594 163.841 101.334 163.709 102.184C163.573 103.038 163.456 103.958 163.35 104.941L173.942 102.701C174.368 102.595 174.767 102.661 175.141 102.899C175.515 103.137 175.742 103.486 175.819 103.94C175.925 104.365 175.859 104.765 175.621 105.139C175.383 105.513 175.035 105.74 174.58 105.817L162.99 108.254C162.778 111.212 162.778 113.771 162.99 115.929C163.122 117.209 163.331 118.327 163.61 119.287C163.888 120.247 164.255 121.006 164.71 121.567C165.27 122.34 165.974 122.74 166.828 122.765C168.133 122.846 169.214 122.512 170.065 121.765C170.651 121.259 171.109 120.632 171.443 119.884C171.776 119.14 172.037 118.426 172.223 117.747C172.41 117.069 172.557 116.248 172.663 115.288C172.689 114.834 172.861 114.463 173.184 114.17C173.503 113.877 173.891 113.745 174.342 113.771H174.338Z" fill="#B2B2B2"></path><path d="M131.388 33.822V33.8074C131.388 33.6681 131.373 33.5288 131.348 33.3932C131.34 33.3455 131.326 33.3016 131.315 33.2576C131.293 33.1623 131.267 33.067 131.231 32.9753C131.212 32.924 131.19 32.8764 131.168 32.8287C131.128 32.7371 131.08 32.6528 131.029 32.5685C131.011 32.5428 131.003 32.5099 130.985 32.4842C130.974 32.4659 130.959 32.4549 130.945 32.4365C130.93 32.4146 130.919 32.3889 130.901 32.3706L110.958 5.92516C110.562 5.40102 109.968 5.06014 109.315 4.98683C108.663 4.90986 108.007 5.10779 107.501 5.53297C102.601 9.64181 96.5857 12.0353 91.7145 13.4098L82.9654 0.493131C82.7858 0.229226 82.5035 0.0532902 82.1846 0.00930612C81.8694 -0.0310126 81.5469 0.0606208 81.305 0.26588L70.7231 9.26062C70.2503 9.66381 70.1917 10.3712 70.5948 10.8477C70.998 11.3205 71.7054 11.3792 72.1819 10.976L81.8071 2.79496L89.409 13.9999C85.5458 14.9199 82.8297 15.1581 82.7674 15.1618C81.9647 15.2241 81.25 15.686 80.8578 16.386L65.5037 43.964C65.4927 43.9824 65.489 44.0043 65.478 44.0227C65.434 44.107 65.3974 44.1986 65.3644 44.2866C65.3424 44.3489 65.3131 44.4112 65.2948 44.4735C65.2691 44.5578 65.2581 44.6458 65.2434 44.7337C65.2324 44.8107 65.2141 44.884 65.2105 44.961C65.2105 44.9757 65.2031 44.994 65.2031 45.0087C65.2031 45.082 65.2105 45.1516 65.2141 45.2212C65.2141 45.2982 65.2141 45.3715 65.2251 45.4485C65.2398 45.5548 65.2654 45.6538 65.2948 45.7564C65.3094 45.804 65.3131 45.8517 65.3278 45.8993L80.1247 89.4142C80.4363 90.3305 81.2683 90.972 82.2359 91.0343C82.5952 91.06 85.2012 91.2212 89.1158 91.2212C99.4154 91.2212 118.79 90.0886 130.347 82.2961C131.011 81.849 131.406 81.1049 131.406 80.3058L131.388 33.811V33.822ZM84.4461 19.8058C88.2398 19.3293 99.441 17.4123 108.597 10.7524L125.483 33.144C109.367 42.3073 81.7924 42.9377 71.6285 42.8314L84.4461 19.8058ZM84.1419 86.328L70.9834 47.6367C71.8484 47.6514 72.8527 47.6624 73.9779 47.6624C85.6667 47.6624 110.386 46.5518 126.59 38.0005L126.605 79.0047C113.692 86.8448 90.406 86.5626 84.1419 86.328Z" fill="#B2B2B2"></path></svg>