<svg xmlns="http://www.w3.org/2000/svg" width="292" height="116" viewBox="0 0 292 116" fill="none"><path d="M64.5345 50.8285C64.5306 50.7116 64.5071 50.5947 64.4679 50.4778C63.74 48.2722 62.022 47.22 59.623 47.5162C58.899 47.6058 58.2141 47.8825 57.6388 48.3072C54.5354 50.4077 52.066 51.8846 50.2971 52.6991C47.8942 53.8019 45.1782 54.5423 42.2234 54.9086C38.4234 55.3763 35.1752 55.0294 32.5688 53.8682C29.5475 52.5471 27.8765 50.2947 27.4655 46.9823C26.8668 42.1618 28.9409 38.4051 33.8055 35.5019C37.5272 33.304 42.4465 31.8154 48.4225 31.0789C48.896 31.0204 49.6004 30.962 50.5319 30.9035C51.5337 30.8412 52.289 30.7749 52.8017 30.7126C55.7016 30.3541 57.181 28.6511 56.8522 26.0402C56.8444 25.9661 56.8287 25.896 56.8092 25.8258L51.9055 9.90296C51.2676 7.78302 49.5026 6.73475 47.0684 7.03871L45.8043 7.19459C32.2557 8.86637 21.2704 12.8958 13.1499 19.166C3.0373 26.9209 -1.2754 37.3763 0.325228 50.2362C1.65191 60.9099 6.87647 68.8168 15.8502 73.7425C23.7281 78.0564 33.281 79.5606 44.2389 78.2084C48.5986 77.6706 52.9778 76.5678 57.2592 74.9311C62.6599 72.8579 66.4834 70.3444 68.6241 67.4646C69.2816 66.5799 69.5555 65.5395 69.4185 64.4522L69.3951 64.2769C69.3833 64.1794 69.3598 64.0859 69.3285 63.9924C67.2778 58.26 65.6694 53.837 64.5345 50.8324V50.8285ZM47.5732 11.5475L52.0934 26.1921C51.6237 26.2467 50.9702 26.2974 50.1249 26.348C49.123 26.4104 48.3677 26.4766 47.855 26.539C40.8889 27.3963 35.1478 29.2162 30.7764 31.9479C24.7456 35.7708 22.1001 41.0161 22.9141 47.5356C23.5207 52.4029 25.9823 55.879 30.2363 57.8703C33.6489 59.4564 37.8677 59.9552 42.7792 59.3511C48.5555 58.638 54.3828 56.2336 60.1396 52.1808C60.1552 52.1691 60.1709 52.1574 60.1865 52.1418L64.8241 64.8731C62.8986 67.1723 59.7091 69.187 55.3416 70.8666C51.6316 72.2929 47.7102 73.2671 43.6871 73.762C33.9072 74.97 25.3914 73.6568 18.3705 69.8651C10.4534 65.5979 6.03898 58.9965 4.88057 49.6751C3.44822 38.1635 7.23652 29.2162 16.4568 22.3225C23.9238 16.7538 34.1303 13.1374 46.7905 11.5786C47.1858 11.5319 47.4324 11.5358 47.5732 11.5514V11.5475Z" fill="#B2B2B2"></path><path d="M211.597 51.7716C211.644 51.6625 211.675 51.5495 211.691 51.4248C211.992 49.1217 210.9 47.4343 208.611 46.6666C207.918 46.4328 207.183 46.39 206.482 46.5225C202.768 47.0797 199.9 47.3447 197.955 47.3135C195.309 47.2707 192.538 46.7719 189.717 45.8249C186.085 44.6091 183.31 42.8944 181.467 40.7238C179.314 38.2298 178.79 35.4825 179.858 32.3142C181.412 27.712 184.919 25.2218 190.566 24.6957C194.879 24.3216 199.958 25.0971 205.664 27.0105C206.118 27.1625 206.776 27.4158 207.641 27.7626C208.572 28.1367 209.28 28.4056 209.769 28.5693C212.54 29.4968 214.611 28.6005 215.456 26.1025C215.479 26.0324 215.499 25.9622 215.511 25.8882L218.015 9.41977C218.36 7.23359 217.225 5.53063 214.9 4.75124L213.695 4.34596C200.749 0.0203669 189.094 -1.08246 179.044 1.06864C166.56 3.71076 158.127 11.2786 153.978 23.5578C150.534 33.7522 151.806 43.1321 157.751 51.4365C162.975 58.7238 170.932 64.1951 181.4 67.6984C185.564 69.0935 189.991 69.9859 194.562 70.3561C200.33 70.8159 204.87 70.1963 208.051 68.5245C209.026 68.0101 209.726 67.1879 210.079 66.1513L210.133 65.9837C210.165 65.8902 210.184 65.7967 210.196 65.6993C210.842 59.6473 211.311 54.9632 211.597 51.7677V51.7716ZM213.386 9.04956L211.092 24.1969C210.646 24.0411 210.032 23.8072 209.249 23.4916C208.318 23.1175 207.609 22.8486 207.12 22.6849C200.467 20.4559 194.499 19.6219 189.372 20.1987C182.277 21.0482 177.612 24.6334 175.507 30.8607C173.937 35.5058 174.646 39.7028 177.612 43.3309C179.995 46.2341 183.584 48.5021 188.276 50.0726C193.794 51.9197 200.091 52.2665 207.042 51.0897C207.061 51.0858 207.081 51.0819 207.1 51.078L205.746 64.5536C203.011 65.7967 199.262 66.237 194.593 65.8668C190.628 65.5512 186.668 64.7406 182.825 63.4546C173.487 60.3254 166.376 55.4737 161.696 49.0282C156.412 41.7682 155.305 33.9159 158.314 25.0114C162.028 14.0181 169.331 7.58431 180.641 5.34747C189.795 3.54709 200.565 4.68889 212.658 8.73781C213.033 8.86251 213.253 8.97552 213.378 9.04956H213.386Z" fill="#B2B2B2"></path><path d="M274.926 18.3788C266.692 13.2544 257.777 11.9255 248.42 14.4234C238.049 17.1942 230.081 22.607 224.735 30.5139C219.127 38.8689 217.683 48.2878 220.438 58.5172C223.26 68.9844 229.099 76.2717 237.787 80.1725C245.774 83.7771 255.218 84.1629 265.855 81.3182C275.09 78.8514 282.225 73.649 287.062 65.8513C291.985 57.8625 293.23 49.1646 290.76 39.9912C288.236 30.6308 282.91 23.3552 274.922 18.3749L274.926 18.3788ZM264.673 76.9108C255.186 79.4477 246.839 79.1632 239.865 76.0651C232.366 72.7293 227.326 66.428 224.876 57.3365C222.473 48.4242 223.745 40.2289 228.649 32.9767C233.368 26.0519 240.424 21.2937 249.613 18.8387C257.734 16.6681 265.44 17.8255 272.523 22.2758C279.485 26.6403 284.135 33.0001 286.342 41.1837C288.471 49.0789 287.383 56.5844 283.109 63.4936C278.922 70.2509 272.719 74.7635 264.677 76.9146L264.673 76.9108ZM252.177 34.9291C248.22 35.9852 245.258 38.3857 243.375 42.0644C241.52 45.6924 241.117 49.5192 242.17 53.4356C243.234 57.3793 245.477 60.4891 248.842 62.6831C252.384 64.955 256.188 65.5707 260.145 64.5107C264.105 63.4507 267.076 61.0269 268.97 57.3014C270.809 53.7201 271.2 49.905 270.14 45.9574C269.083 42.041 266.829 38.9468 263.436 36.7646C259.894 34.4965 256.106 33.8769 252.177 34.9252V34.9291ZM258.982 60.1851C256.239 60.9177 253.715 60.4891 251.273 58.8758C248.901 57.278 247.371 55.1113 246.6 52.251C245.837 49.4257 246.099 46.7914 247.398 44.1999C248.666 41.663 250.619 40.0731 253.363 39.3404C256.082 38.6117 258.611 39.0326 261.076 40.6147C263.499 42.2008 265.044 44.3285 265.796 47.1226C266.559 49.9479 266.297 52.59 265.005 55.1893C263.671 57.8236 261.698 59.4564 258.982 60.1851Z" fill="#B2B2B2"></path><path d="M147.916 48.6969C147.916 56.857 144.915 63.8014 139.001 69.3623C133.213 74.7985 126.059 77.5459 117.751 77.5459C107.947 77.5459 99.9833 75.1259 94.0582 70.3443C88.8298 66.1084 85.7263 60.3682 84.8027 53.2329C95.1344 38.5921 112.092 29.4382 130.024 27.3222C133.127 26.9559 136.254 26.7805 139.369 26.7805L139.381 26.7922C145.028 32.8052 147.916 40.1821 147.916 48.6969Z" fill="#333333"></path><path d="M114.349 69.1597C112.103 69.1597 110.279 67.0593 110.279 64.4717C110.279 61.8841 112.107 59.7837 114.349 59.7837C116.592 59.7837 118.419 61.8841 118.419 64.4717C118.419 67.0593 116.592 69.1597 114.349 69.1597ZM114.349 61.5763C113.097 61.5763 112.076 62.874 112.076 64.4717C112.076 66.0694 113.097 67.3671 114.349 67.3671C115.602 67.3671 116.623 66.0694 116.623 64.4717C116.623 62.874 115.602 61.5763 114.349 61.5763Z" fill="#B2B2B2"></path><path d="M138.339 22.2835C137.525 21.1729 136.625 20.0973 135.651 19.049C135.529 18.9204 135.412 18.7957 135.291 18.671C134.05 17.3811 132.313 16.6992 130.516 16.7382C128.998 16.7732 127.475 16.8473 125.957 16.9759C108.127 18.3515 90.8409 25.4556 78.4781 38.7636C78.0985 39.1689 77.7306 39.5742 77.3745 39.9912C76.22 41.2927 75.1203 42.645 74.0832 44.0362C73.1205 45.33 72.6704 46.9394 72.8504 48.541C73.0735 50.5363 73.4453 52.438 73.958 54.25C75.633 60.2513 78.8929 65.2433 83.7066 69.1636C90.4848 74.6972 99.4937 77.503 110.51 77.503C120.079 77.503 128.317 74.3309 135.017 68.0491C141.858 61.6035 145.321 53.5174 145.321 44.0245C145.321 35.7981 142.985 28.5069 138.339 22.2874V22.2835ZM123.734 68.6063C123.734 67.0086 124.756 65.7109 126.008 65.7109C126.998 65.7109 127.832 66.5254 128.145 67.6477C126.83 68.5518 125.464 69.3467 124.035 70.0209C123.848 69.6 123.734 69.1246 123.734 68.6063ZM131.804 64.7328C131.107 65.3875 130.391 65.9954 129.659 66.5682C128.998 65.0056 127.616 63.9183 126.008 63.9183C123.762 63.9183 121.938 66.0188 121.938 68.6063C121.938 69.3779 122.118 70.0989 122.407 70.7418C118.764 72.1915 114.796 72.9319 110.51 72.9319C100.687 72.9319 92.7038 70.5041 86.767 65.7148C81.5267 61.4671 78.4155 55.7192 77.488 48.5644C87.8432 33.8925 104.836 24.7191 122.807 22.5952C125.918 22.2289 129.053 22.0536 132.172 22.0536C132.176 22.0536 132.183 22.0575 132.187 22.0614C137.854 28.0899 140.738 35.4902 140.738 44.0167C140.738 52.5432 137.729 59.1563 131.804 64.7289V64.7328Z" fill="#B2B2B2"></path><path d="M130.775 59.9005C130.36 59.9005 129.937 59.8343 129.51 59.7018C128.419 59.3588 127.448 58.6028 126.787 57.5779C126.121 56.5492 125.836 55.3606 125.977 54.2266C126.125 53.0341 126.724 52.0443 127.667 51.4403C128.61 50.8363 129.761 50.7038 130.911 51.0662C132.003 51.4091 132.974 52.1651 133.635 53.19C134.301 54.2188 134.586 55.4074 134.445 56.5414C134.297 57.7338 133.698 58.7236 132.755 59.3277C132.16 59.7096 131.483 59.9005 130.771 59.9005H130.775ZM129.655 52.66C129.283 52.66 128.935 52.7574 128.638 52.9484C128.152 53.2562 127.843 53.7901 127.761 54.4487C127.671 55.1657 127.863 55.9334 128.301 56.6115C128.736 57.2857 129.358 57.7806 130.051 57.9949C130.684 58.1937 131.299 58.1313 131.784 57.8235C132.269 57.5156 132.579 56.9817 132.661 56.3231C132.751 55.6061 132.559 54.8384 132.121 54.1603C131.686 53.4862 131.064 52.9913 130.371 52.7769C130.129 52.699 129.886 52.6639 129.655 52.6639V52.66Z" fill="#B2B2B2"></path><path d="M59.6814 100.756H58.0573V101.824H59.4974V102.502H58.0573V103.632H59.6814V104.329H57.1963V100.062H59.6814V100.76V100.756Z" fill="#B2B2B2"></path><path d="M63.168 104.372C62.2796 104.372 61.5908 103.909 61.5791 103.102H62.4988C62.5223 103.445 62.7492 103.671 63.1484 103.671C63.5476 103.671 63.7942 103.457 63.7942 103.153C63.7942 102.229 61.5869 102.786 61.5908 101.243C61.5908 100.475 62.217 100.008 63.0975 100.008C63.9781 100.008 64.5769 100.452 64.6316 101.224H63.6885C63.6689 100.943 63.4419 100.725 63.0741 100.717C62.7375 100.705 62.487 100.869 62.487 101.22C62.487 102.073 64.6825 101.598 64.6825 103.102C64.6825 103.772 64.1425 104.38 63.168 104.38V104.372Z" fill="#B2B2B2"></path><path d="M66.4248 100.066H69.5635V100.756H68.4246V104.329H67.5676V100.756H66.4287V100.066H66.4248Z" fill="#B2B2B2"></path><path d="M75.1749 102.202C75.1749 103.492 74.2866 104.326 72.9168 104.326H71.4219V100.062H72.9168C74.2827 100.062 75.1749 100.904 75.1749 102.198V102.202ZM72.8855 103.601C73.7856 103.601 74.2944 103.086 74.2944 102.202C74.2944 101.317 73.7856 100.783 72.8855 100.783H72.2789V103.597H72.8855V103.601Z" fill="#B2B2B2"></path><path d="M216.864 103.632C217.878 102.778 218.938 101.987 218.938 101.173C218.938 100.775 218.762 100.507 218.336 100.507C217.909 100.507 217.698 100.799 217.69 101.27H216.856C216.888 100.249 217.545 99.7817 218.347 99.7817C219.31 99.7817 219.796 100.351 219.796 101.126C219.796 102.159 218.798 102.966 218.085 103.562H219.893V104.271H216.864V103.636V103.632Z" fill="#B2B2B2"></path><path d="M223.318 99.7896C224.582 99.7896 224.973 100.756 224.973 102.042C224.973 103.328 224.582 104.314 223.318 104.314C222.053 104.314 221.662 103.344 221.662 102.042C221.662 100.74 222.053 99.7896 223.318 99.7896ZM223.318 100.585C222.594 100.585 222.507 101.282 222.507 102.046C222.507 102.81 222.594 103.523 223.318 103.523C224.042 103.523 224.128 102.837 224.128 102.046C224.128 101.255 224.042 100.585 223.318 100.585Z" fill="#B2B2B2"></path><path d="M226.805 103.632C227.818 102.778 228.879 101.987 228.879 101.173C228.879 100.775 228.703 100.507 228.276 100.507C227.85 100.507 227.638 100.799 227.63 101.27H226.797C226.828 100.249 227.486 99.7817 228.288 99.7817C229.251 99.7817 229.736 100.351 229.736 101.126C229.736 102.159 228.738 102.966 228.026 103.562H229.834V104.271H226.805V103.636V103.632Z" fill="#B2B2B2"></path><path d="M233.258 99.7896C234.522 99.7896 234.913 100.756 234.913 102.042C234.913 103.328 234.522 104.314 233.258 104.314C231.994 104.314 231.603 103.344 231.603 102.042C231.603 100.74 231.994 99.7896 233.258 99.7896ZM233.258 100.585C232.534 100.585 232.448 101.282 232.448 102.046C232.448 102.81 232.534 103.523 233.258 103.523C233.982 103.523 234.068 102.837 234.068 102.046C234.068 101.255 233.982 100.585 233.258 100.585Z" fill="#B2B2B2"></path><path d="M114.58 111.247L114.451 111.262C114.016 111.289 113.633 111.173 113.292 110.911C112.952 110.65 112.741 110.296 112.651 109.84L109.144 90.8462C109.054 90.3668 109.144 89.9343 109.414 89.5485C109.684 89.1666 110.064 88.9289 110.545 88.8392C111.027 88.7496 111.461 88.8392 111.848 89.1081C112.232 89.377 112.471 89.755 112.561 90.2343L114.04 98.3088C114.306 97.2021 114.592 96.2005 114.897 95.3081C115.202 94.4118 115.543 93.6091 115.918 92.892C117.273 90.3123 118.983 88.9016 121.049 88.6678C122.481 88.4846 123.742 88.886 124.83 89.8797C125.972 90.8345 126.951 92.4205 127.761 94.6379C128.36 96.3291 128.813 98.2854 129.13 100.507C129.279 101.446 129.404 102.342 129.502 103.199C129.6 104.057 129.674 104.817 129.729 105.475C129.784 106.134 129.819 106.668 129.827 107.073C129.835 107.478 129.843 107.696 129.847 107.724C129.851 108.219 129.702 108.636 129.397 108.979C129.091 109.322 128.692 109.497 128.199 109.501C127.706 109.505 127.283 109.349 126.939 109.033C126.591 108.714 126.415 108.308 126.411 107.817C126.387 107.182 126.34 106.492 126.274 105.748C126.219 105.117 126.148 104.4 126.062 103.601C125.972 102.802 125.855 101.945 125.71 101.037C125.46 99.5597 125.197 98.3127 124.92 97.2878C124.642 96.2668 124.356 95.425 124.07 94.7665C123.781 94.1079 123.511 93.5974 123.26 93.2389C123.01 92.8804 122.787 92.6271 122.595 92.4751C122.337 92.2763 122.117 92.1594 121.937 92.1243C121.757 92.0893 121.597 92.0815 121.452 92.101C120.591 92.2101 119.777 93.0128 119.01 94.5015C118.243 95.9901 117.601 98.0165 117.089 100.577C116.858 101.711 116.67 102.814 116.533 103.889C116.396 104.965 116.294 105.927 116.228 106.777C116.161 107.626 116.11 108.573 116.071 109.625C116.063 110.031 115.915 110.393 115.621 110.705C115.327 111.021 114.979 111.2 114.58 111.25V111.247Z" fill="#B2B2B2"></path><path d="M137.666 109.801C137.451 109.719 137.224 109.629 136.985 109.524C136.746 109.419 136.523 109.314 136.32 109.205C134.347 108.133 132.934 106.637 132.085 104.723C131.717 103.819 131.49 102.861 131.408 101.843L131.361 101.598C131.31 100.257 131.51 98.8584 131.968 97.4009C132.304 96.4228 132.762 95.5109 133.342 94.6653C133.921 93.8235 134.609 93.0753 135.412 92.4206C136.918 91.2009 138.605 90.402 140.476 90.024C141.251 89.8525 142.026 89.7746 142.808 89.7863C143.591 89.8019 144.346 89.8993 145.082 90.0825C146.659 90.4878 147.955 91.2632 148.972 92.4089C149.99 93.5546 150.596 94.9809 150.788 96.68C150.988 98.4453 150.718 100.355 149.974 102.412C149.868 102.771 149.661 103.055 149.352 103.262C149.043 103.468 148.702 103.581 148.326 103.593L135.31 103.39C135.647 104.131 136.081 104.723 136.609 105.164C137.138 105.608 137.592 105.931 137.979 106.134C139.055 106.718 140.163 107.011 141.306 107.007C142.249 106.96 142.894 106.722 143.239 106.298C143.536 105.916 143.916 105.705 144.378 105.662C144.839 105.62 145.262 105.748 145.646 106.044C146.029 106.34 146.248 106.722 146.303 107.186C146.358 107.654 146.237 108.075 145.939 108.457C144.906 109.731 143.391 110.393 141.396 110.448C140.773 110.463 140.151 110.413 139.529 110.304C138.907 110.195 138.284 110.023 137.662 109.793L137.666 109.801ZM144.734 93.5936C143.65 93.1883 142.46 93.1143 141.165 93.3676C140.621 93.504 140.057 93.691 139.47 93.9326C138.887 94.1742 138.32 94.5094 137.776 94.9341C137.228 95.3589 136.738 95.8694 136.3 96.4579C135.862 97.0463 135.514 97.7244 135.259 98.4881C135.193 98.7415 135.126 98.9831 135.056 99.2169C134.981 99.4507 134.934 99.6845 134.907 99.9222L147.047 100.117C147.673 97.7088 147.442 95.9045 146.354 94.7003C145.923 94.2015 145.383 93.8313 144.738 93.5897L144.734 93.5936Z" fill="#B2B2B2"></path><path d="M169.749 107.923C170.007 108.324 170.082 108.764 169.964 109.24C169.847 109.715 169.589 110.066 169.185 110.296C168.955 110.498 168.649 110.596 168.278 110.596C167.671 110.596 167.178 110.323 166.806 109.778C165.969 108.456 165.053 107.131 164.055 105.807C163.057 104.485 162.055 103.192 161.045 101.925C160.09 103.449 159.198 104.867 158.361 106.173C157.523 107.482 156.729 108.682 155.977 109.774C155.66 110.319 155.183 110.592 154.549 110.592C154.259 110.592 153.942 110.491 153.594 110.292C153.191 110.035 152.936 109.672 152.835 109.212C152.733 108.753 152.811 108.32 153.073 107.919C153.884 106.683 154.756 105.339 155.696 103.885C156.635 102.432 157.637 100.857 158.705 99.1623C157.781 98.1257 156.913 97.1709 156.106 96.2941C155.296 95.4173 154.584 94.6613 153.962 94.03C153.34 93.3987 152.655 92.7089 151.903 91.9607C151.555 91.6451 151.383 91.2437 151.383 90.7527C151.383 90.2617 151.555 89.8603 151.903 89.5446C152.22 89.1978 152.619 89.0185 153.097 89.0069C153.574 88.9913 153.985 89.1588 154.33 89.5018C154.388 89.5602 154.944 90.1214 155.997 91.1852C157.05 92.2491 158.357 93.6442 159.918 95.3705L160.611 96.1032C161.218 95.125 161.84 94.1118 162.474 93.0636C163.108 92.0153 163.757 90.9436 164.423 89.8486C164.654 89.4472 165.006 89.1861 165.483 89.0731C165.961 88.9601 166.399 89.0146 166.806 89.2446C167.209 89.4745 167.471 89.8252 167.585 90.3006C167.698 90.7761 167.628 91.2125 167.37 91.6178C166.618 92.9116 165.875 94.1625 165.139 95.3705C164.403 96.5786 163.687 97.7438 162.994 98.8661C164.38 100.507 165.636 102.081 166.763 103.589C167.89 105.097 168.884 106.543 169.753 107.926L169.749 107.923Z" fill="#B2B2B2"></path><path d="M187.97 102.802C188.46 102.829 188.867 103.016 189.184 103.363C189.501 103.71 189.645 104.127 189.618 104.614C189.618 104.673 189.583 105.023 189.508 105.67C189.434 106.317 189.27 107.1 189.011 108.02C188.287 110.666 187.164 112.65 185.63 113.975C184.127 115.327 182.339 116.001 180.257 116.001C180.139 116.001 180.034 115.993 179.932 115.978C179.83 115.962 179.721 115.958 179.607 115.958C177.584 115.814 175.972 114.921 174.766 113.285C173.455 111.531 172.625 108.928 172.285 105.475C172.14 104.326 172.07 103.094 172.07 101.785C172.07 100.476 172.113 99.0727 172.199 97.5801L170.293 97.9698C170.207 97.9971 170.089 98.0127 169.945 98.0127C169.542 98.0127 169.17 97.8919 168.841 97.6464C168.508 97.4009 168.301 97.0774 168.211 96.6761C168.125 96.1889 168.211 95.7486 168.469 95.3589C168.728 94.9692 169.092 94.7198 169.553 94.6029L172.5 93.9989C172.614 92.7635 172.759 91.6061 172.927 90.5267C173.099 89.4472 173.248 88.5081 173.377 87.7014C173.506 86.8948 173.619 86.2557 173.717 85.7802C173.815 85.3048 173.866 85.0398 173.866 84.9814C173.98 84.5215 174.23 84.163 174.614 83.9019C174.997 83.6408 175.435 83.5551 175.921 83.6447C176.41 83.7616 176.782 84.011 177.024 84.4007C177.271 84.7904 177.349 85.2269 177.263 85.7179C177.091 86.4934 176.946 87.2221 176.829 87.8963C176.711 88.5743 176.582 89.3693 176.437 90.289C176.292 91.2087 176.163 92.2024 176.046 93.2662L187.528 90.8501C187.99 90.7371 188.424 90.8073 188.827 91.0645C189.231 91.3217 189.477 91.6958 189.563 92.1868C189.677 92.6466 189.606 93.0792 189.348 93.4806C189.09 93.882 188.714 94.1275 188.221 94.2132L175.655 96.8436C175.424 100.035 175.424 102.798 175.655 105.128C175.799 106.508 176.022 107.716 176.328 108.753C176.629 109.789 177.028 110.608 177.517 111.212C178.124 112.046 178.887 112.478 179.815 112.505C181.231 112.591 182.398 112.233 183.325 111.426C183.959 110.88 184.46 110.202 184.82 109.4C185.18 108.597 185.462 107.825 185.665 107.093C185.869 106.36 186.025 105.475 186.143 104.439C186.17 103.952 186.358 103.546 186.706 103.231C187.055 102.915 187.473 102.771 187.963 102.798L187.97 102.802Z" fill="#B2B2B2"></path></svg>