<svg xmlns="http://www.w3.org/2000/svg" width="304" height="196" viewBox="0 0 304 196" fill="none"><g clip-path="url(#clip0_565_297)"><path d="M103.051 110.965V35.5065C103.051 30.447 104.082 26.8873 106.143 24.8274C107.68 23.2915 109.615 22.3158 111.948 21.9363C111.459 21.8821 110.971 21.8459 110.447 21.8459C107.481 21.8459 105.203 22.6771 103.485 24.3937C101.803 26.0742 100.936 29.2364 100.936 33.7538V109.194C100.936 113.711 101.785 116.855 103.485 118.554C103.829 118.897 104.208 119.204 104.606 119.476C103.557 117.398 103.033 114.561 103.033 110.965H103.051Z" fill="#67917B"></path><path d="M259.264 110.965V35.5065C259.264 30.447 260.295 26.8873 262.356 24.8274C263.893 23.2915 265.828 22.3158 268.161 21.9363C267.672 21.8821 267.184 21.8459 266.66 21.8459C263.694 21.8459 261.416 22.6771 259.698 24.3937C258.016 26.0742 257.148 29.2364 257.148 33.7538V109.194C257.148 113.711 257.998 116.855 259.698 118.554C260.042 118.897 260.421 119.204 260.819 119.476C259.77 117.398 259.246 114.561 259.246 110.965H259.264Z" fill="#67917B"></path><path d="M29.0583 24.8274C30.5953 23.2915 32.5301 22.3158 34.8627 21.9363C34.3745 21.8821 33.8863 21.8459 33.3619 21.8459C30.3964 21.8459 28.118 22.6771 26.4002 24.3937C24.7185 26.0742 23.8506 29.2364 23.8506 33.7538V109.194C23.8506 113.693 24.7005 116.801 26.3821 118.427C26.7076 118.753 27.0692 119.024 27.449 119.295C26.4544 117.253 25.9481 114.488 25.9481 110.965V35.5065C25.9481 30.447 26.9788 26.8873 29.0402 24.8274H29.0583Z" fill="#67917B"></path><path d="M185.254 24.8274C186.791 23.2915 188.725 22.3158 191.058 21.9363C190.57 21.8821 190.082 21.8459 189.557 21.8459C186.592 21.8459 184.313 22.6771 182.596 24.3937C180.914 26.0742 180.046 29.2364 180.046 33.7538V109.194C180.046 113.693 180.896 116.801 182.577 118.427C182.903 118.753 183.265 119.024 183.644 119.295C182.65 117.253 182.143 114.488 182.143 110.965V35.5065C182.143 30.447 183.174 26.8873 185.236 24.8274H185.254Z" fill="#67917B"></path><path d="M223.606 107.785C223.606 119.53 220.659 128.727 214.818 135.106C209.574 140.852 202.07 144.068 192.486 144.683C192.649 144.683 192.794 144.683 192.938 144.683C203.715 144.683 211.889 141.647 217.404 135.594C222.937 129.54 225.685 120.867 225.685 109.537V90.98H223.588V107.767L223.606 107.785Z" fill="#67917B"></path><path d="M216.698 10.1008C221.273 16.3167 223.606 24.7191 223.606 35.1271V48.6973C223.606 49.5104 223.081 50.2151 222.34 50.4681H225.703V36.8979C225.703 25.5864 222.937 16.895 217.422 10.8417C217.186 10.5887 216.951 10.3538 216.698 10.1008Z" fill="#67917B"></path><path d="M138.836 10.4622C143.393 16.6419 145.708 24.9178 145.708 35.127V107.785C145.708 119.548 142.652 128.745 136.594 135.124C131.169 140.852 123.575 144.068 113.991 144.682C114.136 144.682 114.299 144.682 114.443 144.682C125.22 144.682 133.484 141.647 139.216 135.594C144.948 129.54 147.805 120.867 147.805 109.537V36.8979C147.805 25.5863 144.948 16.8949 139.216 10.8416C139.089 10.7151 138.963 10.5886 138.836 10.4622Z" fill="#67917B"></path><path d="M295.411 10.8416C295.285 10.7151 295.158 10.5886 295.032 10.4622C299.588 16.6419 301.903 24.9178 301.903 35.127V107.785C301.903 119.548 298.847 128.745 292.789 135.124C287.365 140.852 279.77 144.068 270.187 144.682C270.331 144.682 270.494 144.682 270.639 144.682C281.416 144.682 289.679 141.647 295.411 135.594C301.143 129.54 304 120.867 304 109.537V36.8979C304 25.5863 301.143 16.8949 295.411 10.8416Z" fill="#67917B"></path><path d="M67.4107 107.785C67.4107 119.53 64.4633 128.727 58.6227 135.106C53.3788 140.852 45.8746 144.068 36.291 144.683C36.4538 144.683 36.5984 144.683 36.7431 144.683C47.5201 144.683 55.6933 141.647 61.2085 135.594C66.7416 129.54 69.4902 120.867 69.4902 109.537V90.98H67.3926V107.767L67.4107 107.785Z" fill="#67917B"></path><path d="M60.4854 10.1008C65.0602 16.3167 67.3928 24.7191 67.3928 35.1271V48.6973C67.3928 49.5104 66.8684 50.2151 66.127 50.4681H69.4903V36.8979C69.4903 25.5864 66.7237 16.895 61.2086 10.8417C60.9736 10.5887 60.7385 10.3538 60.4854 10.1008Z" fill="#67917B"></path><path d="M65.5128 89.2273V107.785C65.5128 119.096 62.7462 127.788 57.2311 133.841C51.6979 139.894 43.5428 142.93 32.7657 142.93C21.9887 142.93 13.8155 139.894 8.30035 133.841C2.76716 127.788 0.0186428 119.114 0.0186428 107.785V35.1452C0.000560431 23.8156 2.76716 15.1423 8.28226 9.08897C13.8155 3.03568 21.9706 0 32.7657 0C43.5609 0 51.716 3.03568 57.2311 9.08897C62.7643 15.1423 65.5128 23.8337 65.5128 35.1452V48.7154H44.7362V33.7538C44.7362 28.6944 43.7055 25.1347 41.6441 23.0748C39.5828 21.0148 36.8162 19.9849 33.3624 19.9849C29.9087 19.9849 27.1421 21.0148 25.0807 23.0748C23.0194 25.1347 21.9887 28.6944 21.9887 33.7538V109.194C21.9887 114.254 23.0194 117.777 25.0807 119.783C27.1421 121.789 29.9087 122.764 33.3624 122.764C36.8162 122.764 39.5828 121.77 41.6441 119.783C43.7055 117.777 44.7362 114.254 44.7362 109.194V89.2453H65.5128V89.2273Z" fill="#FFE175"></path><path d="M77.1035 35.1452C77.1035 23.8337 79.9605 15.1423 85.6926 9.08897C91.4066 3.03568 99.6703 0 110.465 0C121.261 0 129.506 3.03568 135.238 9.08897C140.97 15.1423 143.827 23.8337 143.827 35.1452V107.785C143.827 119.096 140.97 127.788 135.238 133.841C129.524 139.894 121.261 142.93 110.465 142.93C99.6703 142.93 91.4247 139.894 85.6926 133.841C79.9605 127.788 77.1035 119.114 77.1035 107.785V35.1452ZM99.0735 109.194C99.0735 114.254 100.104 117.813 102.166 119.873C104.227 121.933 106.994 122.963 110.447 122.963C113.901 122.963 116.668 121.933 118.729 119.873C120.79 117.813 121.821 114.254 121.821 109.194V33.7358C121.821 28.6763 120.79 25.1166 118.729 23.0567C116.668 20.9968 113.901 19.9668 110.447 19.9668C106.994 19.9668 104.227 20.9968 102.166 23.0567C100.104 25.1166 99.0735 28.6763 99.0735 33.7358V109.194Z" fill="#FFE175"></path><path d="M221.726 89.2273V107.785C221.726 119.096 218.959 127.788 213.444 133.841C207.911 139.894 199.756 142.93 188.979 142.93C178.201 142.93 170.028 139.894 164.513 133.841C158.98 127.788 156.231 119.114 156.231 107.785V35.1452C156.231 23.8337 158.998 15.1423 164.513 9.08897C170.028 3.03568 178.201 0 188.979 0C199.756 0 207.929 3.03568 213.444 9.08897C218.977 15.1423 221.726 23.8337 221.726 35.1452V48.7154H200.949V33.7538C200.949 28.6944 199.918 25.1347 197.857 23.0748C195.796 21.0148 193.029 19.9849 189.575 19.9849C186.122 19.9849 183.355 21.0148 181.294 23.0748C179.232 25.1347 178.201 28.6944 178.201 33.7538V109.194C178.201 114.254 179.232 117.777 181.294 119.783C183.355 121.789 186.122 122.764 189.575 122.764C193.029 122.764 195.796 121.77 197.857 119.783C199.918 117.777 200.949 114.254 200.949 109.194V89.2453H221.726V89.2273Z" fill="#FFE175"></path><path d="M233.316 35.1452C233.316 23.8337 236.173 15.1423 241.906 9.08897C247.62 3.03568 255.883 0 266.678 0C277.473 0 285.719 3.03568 291.451 9.08897C297.183 15.1423 300.04 23.8337 300.04 35.1452V107.785C300.04 119.096 297.183 127.788 291.451 133.841C285.737 139.894 277.473 142.93 266.678 142.93C255.883 142.93 247.638 139.894 241.906 133.841C236.173 127.788 233.316 119.114 233.316 107.785V35.1452ZM255.286 109.194C255.286 114.254 256.317 117.813 258.379 119.873C260.44 121.933 263.206 122.963 266.66 122.963C270.114 122.963 272.881 121.933 274.942 119.873C277.003 117.813 278.034 114.254 278.034 109.194V33.7358C278.034 28.6763 277.003 25.1166 274.942 23.0567C272.881 20.9968 270.114 19.9668 266.66 19.9668C263.206 19.9668 260.44 20.9968 258.379 23.0567C256.317 25.1166 255.286 28.6763 255.286 33.7358V109.194Z" fill="#FFE175"></path><path d="M118.837 179.683H117.318V183.189H118.837V179.683Z" fill="#67917B"></path><path d="M118.837 164.523H117.318V167.233H118.837V164.523Z" fill="#67917B"></path><path d="M133.737 170.594H133.032C133.285 171.462 133.412 172.383 133.412 173.341C133.412 175.509 132.905 177.081 131.838 178.129C131.061 178.906 130.103 179.394 128.981 179.593H131.025C132.218 179.593 133.158 179.231 133.882 178.527C134.587 177.822 134.949 176.629 134.949 174.949C134.949 174.064 134.822 173.232 134.587 172.473C134.352 171.696 134.063 171.064 133.755 170.594H133.737Z" fill="#67917B"></path><path d="M135.273 158.18C135.273 160.331 134.731 161.957 133.664 162.987C132.869 163.746 131.91 164.234 130.789 164.432H132.832C134.026 164.432 134.984 164.071 135.707 163.366C136.431 162.662 136.792 161.469 136.792 159.789C136.792 158.903 136.666 158.072 136.431 157.277C136.196 156.482 135.906 155.849 135.599 155.362H134.894C135.147 156.265 135.273 157.205 135.273 158.18Z" fill="#67917B"></path><path d="M193.445 175.292L200.262 166.944C201.365 165.571 202.233 164.414 202.884 163.439C203.517 162.463 203.842 161.361 203.842 160.132C203.842 158.723 203.263 157.53 202.124 156.554C202.088 156.518 202.034 156.5 201.998 156.464C202.215 157.114 202.341 157.801 202.341 158.506C202.341 160.078 201.925 161.505 201.094 162.77C200.425 163.782 199.52 165.011 198.381 166.42L192.378 173.756" fill="#67917B"></path><path d="M202.848 188.718L202.685 189.459C202.251 191.483 201.275 193.109 199.792 194.301C198.779 195.115 197.55 195.657 196.121 195.91C196.465 195.964 196.826 196 197.206 196C199.195 196 200.768 195.53 201.944 194.573C203.119 193.633 203.878 192.332 204.222 190.706" fill="#67917B"></path><path d="M182.414 184.833L175.543 195.187L175.109 195.855L174.313 195.946C174.675 195.964 175.055 195.982 175.435 195.982C175.742 195.982 176.049 195.982 176.357 195.946C176.664 195.928 176.99 195.892 177.351 195.837L183.517 186.55L182.414 184.815V184.833Z" fill="#67917B"></path><path d="M253.713 164.722V194.898L252.447 195.241C251.887 195.404 251.055 195.548 249.934 195.693C249.627 195.729 249.319 195.747 249.012 195.783C249.283 195.783 249.572 195.801 249.88 195.801C250.892 195.801 251.923 195.729 252.954 195.602C253.984 195.476 254.744 195.331 255.232 195.205V164.722H253.713Z" fill="#67917B"></path><path d="M266.353 157.15C266.082 156.319 265.792 155.651 265.485 155.163H264.78C265.069 156.121 265.214 157.132 265.214 158.18C265.214 160.385 264.653 162.047 263.532 163.113C262.7 163.908 261.706 164.414 260.53 164.631H262.555C263.785 164.631 264.798 164.252 265.575 163.511C266.353 162.77 266.732 161.523 266.732 159.807C266.732 158.885 266.606 158 266.335 157.15H266.353Z" fill="#67917B"></path><path d="M60.5942 169.998C60.6665 170.142 60.7388 170.287 60.8112 170.45C60.8112 170.088 60.8112 169.727 60.8112 169.365L55.6758 159.012C55.2057 158.036 54.6451 157.277 53.9941 156.681L60.5942 170.016V169.998Z" fill="#67917B"></path><path d="M50.4134 177.533C50.3049 177.298 50.1964 177.081 50.0879 176.846C50.0879 179.069 50.106 181.255 50.106 183.333V194.916L48.8403 195.259C48.2797 195.422 47.466 195.566 46.3991 195.711C46.1279 195.747 45.8567 195.765 45.6035 195.783C45.8928 195.783 46.1641 195.819 46.4715 195.819C47.4479 195.819 48.4244 195.747 49.4189 195.62C50.4134 195.494 51.1548 195.349 51.643 195.223V184.959C51.643 183.333 51.643 181.671 51.643 179.99L50.4496 177.533H50.4134Z" fill="#67917B"></path><path d="M135.87 186.531H135.165C135.418 187.435 135.545 188.375 135.545 189.35C135.545 191.501 135.002 193.109 133.954 194.175C133.158 194.97 132.182 195.476 131.061 195.675H133.104C134.297 195.675 135.256 195.313 135.979 194.59C136.702 193.868 137.064 192.657 137.064 190.977C137.064 190.091 136.937 189.26 136.702 188.465C136.467 187.67 136.178 187.037 135.87 186.55V186.531Z" fill="#67917B"></path><path d="M75.3311 155.795C75.2226 155.723 75.0961 155.669 74.9876 155.615C75.2227 156.428 75.3311 157.367 75.3311 158.451V193.181L74.8248 193.687C73.9931 194.518 72.8358 195.133 71.3892 195.548C70.7021 195.747 69.9426 195.891 69.1289 195.982C69.4001 195.982 69.6714 196.018 69.9426 196.018C71.57 196.018 72.9804 195.855 74.1558 195.53C75.3311 195.205 76.2172 194.717 76.832 194.103V160.078C76.832 157.909 76.3257 156.5 75.3131 155.813L75.3311 155.795Z" fill="#67917B"></path><path d="M73.6131 192.458C72.9983 193.073 72.0942 193.543 70.9369 193.886C69.7615 194.211 68.3692 194.374 66.7237 194.374C65.0782 194.374 63.5412 194.139 62.0946 193.651C60.63 193.163 59.4365 191.989 58.5143 190.146L51.9505 176.774C51.2814 175.401 50.6847 174.118 50.1603 172.907C49.6359 171.697 49.0573 170.287 48.4425 168.697L48.0447 168.769C48.2255 171.154 48.3159 173.576 48.334 176.051C48.3521 178.527 48.3702 180.948 48.3702 183.333V193.597C47.8819 193.723 47.1406 193.868 46.146 193.994C45.1515 194.121 44.1751 194.193 43.1986 194.193C42.2222 194.193 41.3723 194.121 40.6128 193.994C39.8534 193.868 39.2386 193.597 38.7504 193.199C38.2621 192.802 37.8824 192.26 37.6293 191.573C37.358 190.886 37.2314 190.001 37.2314 188.899V155.813C37.8462 154.928 38.8046 154.278 40.0704 153.826C41.3542 153.392 42.7285 153.157 44.1751 153.157C45.8025 153.157 47.3575 153.41 48.8403 153.916C50.323 154.422 51.4984 155.579 52.3844 157.385L59.0026 170.757C59.6716 172.13 60.2683 173.413 60.7927 174.624C61.3171 175.834 61.8957 177.244 62.5105 178.834L62.836 178.762C62.6552 176.377 62.5467 173.991 62.5105 171.606C62.4744 169.221 62.4382 166.836 62.4382 164.451V153.735C62.9264 153.609 63.6678 153.464 64.6623 153.338C65.6569 153.211 66.6333 153.139 67.6097 153.139C69.5446 153.139 71.0273 153.482 72.0399 154.169C73.0525 154.856 73.5588 156.283 73.5588 158.434V192.458H73.6131Z" fill="#FFE175"></path><path d="M104.335 159.897C104.335 158 104.877 156.5 105.999 155.398C107.12 154.296 108.602 153.735 110.501 153.735H132.363C132.67 154.223 132.941 154.856 133.194 155.651C133.429 156.446 133.556 157.277 133.556 158.162C133.556 159.843 133.194 161.035 132.471 161.74C131.748 162.445 130.789 162.806 129.596 162.806H115.618V168.968H130.518C130.826 169.456 131.097 170.088 131.35 170.847C131.585 171.624 131.712 172.455 131.712 173.323C131.712 175.003 131.35 176.196 130.645 176.9C129.94 177.605 128.981 177.967 127.788 177.967H115.6V184.923H132.616C132.923 185.411 133.194 186.044 133.448 186.839C133.683 187.634 133.809 188.465 133.809 189.35C133.809 191.031 133.448 192.223 132.724 192.964C132.001 193.687 131.043 194.048 129.849 194.048H110.501C108.602 194.048 107.102 193.506 105.999 192.386C104.896 191.284 104.335 189.784 104.335 187.887V159.897Z" fill="#FFE175"></path><path d="M164.441 158.632C164.658 158.018 164.965 157.404 165.363 156.771C165.761 156.157 166.249 155.597 166.846 155.091C167.443 154.585 168.13 154.169 168.925 153.826C169.721 153.501 170.607 153.338 171.583 153.338C172.867 153.338 173.988 153.663 174.965 154.296C175.941 154.928 176.936 156.03 177.948 157.566L183.12 165.444L190.733 154.187C191.094 154.006 191.583 153.844 192.215 153.699C192.848 153.537 193.481 153.464 194.096 153.464C196.121 153.464 197.712 153.952 198.87 154.928C200.009 155.904 200.587 157.096 200.587 158.506C200.587 159.734 200.262 160.837 199.629 161.812C198.996 162.788 198.11 163.945 197.007 165.318L190.19 173.666L200.985 189.079C200.624 190.706 199.864 192.007 198.707 192.946C197.532 193.886 195.958 194.374 193.969 194.374C192.686 194.374 191.583 194.049 190.66 193.416C189.738 192.784 188.78 191.681 187.803 190.145L182.433 181.671L174.079 194.247C173.717 194.283 173.392 194.32 173.084 194.356C172.777 194.374 172.469 194.392 172.162 194.392C169.649 194.392 167.786 193.886 166.593 192.874C165.399 191.862 164.803 190.597 164.803 189.097C164.803 187.815 165.074 186.712 165.634 185.755C166.195 184.815 166.972 183.695 167.985 182.412L174.947 173.485L164.423 158.65L164.441 158.632Z" fill="#FFE175"></path><path d="M230.459 163.005C230.152 162.517 229.862 161.867 229.591 161.017C229.32 160.186 229.193 159.301 229.193 158.361C229.193 156.645 229.573 155.398 230.351 154.657C231.128 153.916 232.123 153.537 233.37 153.537H262.248C262.555 154.024 262.845 154.693 263.116 155.524C263.387 156.355 263.514 157.241 263.514 158.18C263.514 159.897 263.134 161.144 262.356 161.885C261.579 162.644 260.584 163.005 259.337 163.005H251.977V193.579C251.489 193.705 250.729 193.85 249.699 193.976C248.668 194.103 247.637 194.175 246.625 194.175C245.612 194.175 244.708 194.103 243.949 193.94C243.171 193.777 242.52 193.506 241.996 193.109C241.471 192.711 241.073 192.169 240.802 191.446C240.531 190.742 240.404 189.82 240.404 188.664V162.987H230.477L230.459 163.005Z" fill="#FFE175"></path></g><defs><clipPath id="clip0_565_297"><rect width="304" height="196" fill="white"></rect></clipPath></defs></svg>