<svg xmlns="http://www.w3.org/2000/svg" xmlns:xlink="http://www.w3.org/1999/xlink" viewBox="0 0 330.1 72.6"><defs><linearGradient id="linear-gradient" y1="37.69" x2="330.12" y2="37.69" gradientTransform="matrix(1, 0, 0, -1, 0, 74)" gradientUnits="userSpaceOnUse"><stop offset="0" stop-color="#0948d5"></stop><stop offset="0.13" stop-color="#2d63dc"></stop><stop offset="0.35" stop-color="#658de8"></stop><stop offset="0.56" stop-color="#91aef2"></stop><stop offset="0.74" stop-color="#b1c6f9"></stop><stop offset="0.89" stop-color="#c5d4fd"></stop><stop offset="1" stop-color="#ccdaff"></stop></linearGradient></defs><g id="Layer_2" data-name="Layer 2"><g id="Layer_1-2" data-name="Layer 1"><path d="M202.4,0H106.3V72.6h16.9V15.4h33.9V72.6h16.7V15.4h25.1c6,0,8.9,3.4,8.9,9.9V72.6h16.8v-49c0-15.7-7-23.6-22.2-23.6ZM78.4,43c12.4,0,16.8-5.8,16.8-16.4V16.4C95.2,5.8,90.8,0,78.4,0H17C4.6,0,0,5.8,0,16.4V49C0,64.8,7.1,72.6,22.3,72.6H93.4V57.1H26c-6.3,0-9.1-3.4-9.1-9.8V43ZM16.9,20.4c0-4.2,1.8-6.3,6.2-6.3H72.3c4.5,0,6.2,2.1,6.2,6.3v4c0,4-1.7,6.4-6.2,6.4H16.9V20.4Zm313.2,3.2V49c0,15.8-6.9,23.6-22.2,23.6H257.2c-15.2,0-22.3-7.8-22.3-23.6V23.6C234.9,7.8,242,0,257.2,0h50.7C323.2,0,330.1,7.8,330.1,23.6Z" style="fill:url(#linear-gradient)"></path><path d="M292.4,23.4H268.3a7.1,7.1,0,0,0-7.1,7.1V42.1a7.1,7.1,0,0,0,7.1,7.1h24.1a7.1,7.1,0,0,0,7.1-7.1V30.5A7.1,7.1,0,0,0,292.4,23.4Zm4.7,18.7a4.7,4.7,0,0,1-4.7,4.7H268.3a4.7,4.7,0,0,1-4.6-4.7V30.5a4.7,4.7,0,0,1,4.6-4.7h24.1a4.7,4.7,0,0,1,4.7,4.7Z" style="fill:#232830"></path><path d="M273.1,25.8v21h-4.8a4.7,4.7,0,0,1-4.6-4.7V30.5a4.7,4.7,0,0,1,4.6-4.7Z" style="fill:#8298e5"></path><path d="M302.6,40.7a1.3,1.3,0,0,1-1.3-1.3V33.2a1.2,1.2,0,0,1,1.3-1.2,1.2,1.2,0,0,1,1.2,1.2v6.2A1.3,1.3,0,0,1,302.6,40.7Z" style="fill:#232830"></path><path d="M285.6,44.5h-.5a1.4,1.4,0,0,1-.7-1.6l2.2-5.3h-3.4a1.2,1.2,0,0,1-1-.5,1.1,1.1,0,0,1-.1-1.2l2.9-6.9a1.2,1.2,0,0,1,1.6-.6,1.2,1.2,0,0,1,.7,1.6l-2.2,5.2h3.3a1.6,1.6,0,0,1,1.1.5,1.7,1.7,0,0,1,.1,1.2l-2.9,6.9A1.3,1.3,0,0,1,285.6,44.5Z" style="fill:#232830"></path><path d="M275.5,24.6V48a1.2,1.2,0,1,1-2.4,0V24.6a1.2,1.2,0,1,1,2.4,0Z" style="fill:#232830"></path></g></g></svg>