<svg xmlns="http://www.w3.org/2000/svg" xmlns:xlink="http://www.w3.org/1999/xlink" viewBox="0 0 330.1 72.6"><defs><linearGradient id="linear-gradient" y1="37.7" x2="330.12" y2="37.7" gradientTransform="matrix(1, 0, 0, -1, 0, 74)" gradientUnits="userSpaceOnUse"><stop offset="0" stop-color="#0948d5"></stop><stop offset="0.13" stop-color="#2d63dc"></stop><stop offset="0.35" stop-color="#658de8"></stop><stop offset="0.56" stop-color="#91aef2"></stop><stop offset="0.74" stop-color="#b1c6f9"></stop><stop offset="0.89" stop-color="#c5d4fd"></stop><stop offset="1" stop-color="#ccdaff"></stop></linearGradient></defs><g id="Layer_2" data-name="Layer 2"><g id="Layer_1-2" data-name="Layer 1"><path d="M202.4,0H106.3V72.6h16.9V15.4h33.9V72.6h16.7V15.4h25.1c6,0,8.9,3.4,8.9,9.9V72.6h16.8v-49c0-15.7-7-23.6-22.2-23.6ZM78.4,43c12.4,0,16.8-5.8,16.8-16.4V16.4C95.2,5.8,90.8,0,78.4,0H17C4.6,0,0,5.8,0,16.4V49C0,64.8,7.1,72.6,22.3,72.6H93.4V57H26c-6.3,0-9.1-3.3-9.1-9.7V43ZM16.9,20.4c0-4.2,1.8-6.4,6.2-6.4H72.3c4.5,0,6.2,2.2,6.2,6.4v3.9c0,4.1-1.7,6.5-6.2,6.5H16.9V20.4Zm313.2,3.2V49c0,15.8-6.9,23.6-22.2,23.6H257.2c-15.2,0-22.3-7.8-22.3-23.6V23.6C234.9,7.8,242,0,257.2,0h50.7C323.2,0,330.1,7.8,330.1,23.6Z" style="fill:url(#linear-gradient)"></path><path d="M266.4,48.4a1.3,1.3,0,0,1-1.1,1.2h-.1c-2.1,0-3.6-2.6-4.5-6.3a13,13,0,0,1-.4-2.1,37.7,37.7,0,0,1,0-13.4,15.5,15.5,0,0,1,.4-2.1c.9-3.6,2.4-6.2,4.5-6.2h.1a1.1,1.1,0,1,1,0,2.2h-.1c-1.1,0-3.2,4.9-3.2,12.8s2.1,12.8,3.2,12.8h.1A1.1,1.1,0,0,1,266.4,48.4Z" style="fill:#232830"></path><path d="M274.8,48.4a1.2,1.2,0,0,1-1.2,1.2c-1.2,0-2.2-.9-3-2.3s-2.5-7.8-2.5-12.8.9-10,2.5-12.8,1.8-2.2,3-2.2a1.1,1.1,0,1,1,0,2.2c-1.1,0-3.2,4.9-3.2,12.8s2.1,12.8,3.2,12.8a1.1,1.1,0,0,1,1.2,1.1Z" style="fill:#232830"></path><path d="M260.2,43.5c-2.5,0-3.6-4.5-3.6-9s1.1-8.9,3.6-8.9a1.1,1.1,0,1,1,0,2.2c-.4.3-1.4,2.6-1.4,6.7s1,6.5,1.5,6.7a1,1,0,0,1,1,1.1,1.2,1.2,0,0,1-1.2,1.2Z" style="fill:#232830"></path><path d="M297.8,39.8c0,.3-.1.7-.1,1-.6,3.3-1.9,8.8-5.1,8.8h-.4a3.8,3.8,0,0,1-2.7-2.2c-1.6-2.8-2.5-7.8-2.5-12.8s.9-10,2.5-12.8a4.1,4.1,0,0,1,2.7-2.2h.4c3.2,0,4.5,5.5,5.1,8.7,0,.4.1.7.1,1a1.2,1.2,0,0,1-1,1.3h-.3c-.2-.1-.4-.1-.5-.3a.8.8,0,0,1-.4-.7,6.9,6.9,0,0,1-.2-1.3c-.8-4.6-2.2-6.5-2.8-6.5s-3.3,4.9-3.3,12.8,2.1,12.8,3.3,12.8,2-1.9,2.8-6.5a6.9,6.9,0,0,1,.2-1.3.8.8,0,0,1,.4-.7l.5-.2h.3A1.1,1.1,0,0,1,297.8,39.8Z" style="fill:#232830"></path><path d="M305.7,40.8c-2.1,0-2.8-3.4-2.8-6.3s.8-6.3,2.8-6.3,2.8,3.4,2.8,6.3S307.7,40.8,305.7,40.8Zm0-9.8a9.2,9.2,0,0,0-.5,3.5,9.8,9.8,0,0,0,.5,3.6,9.8,9.8,0,0,0,.5-3.6,9.2,9.2,0,0,0-.5-3.5Z" style="fill:#232830"></path><path d="M296,38.8a1.1,1.1,0,0,1,.5.9,1.1,1.1,0,0,1-1.1,1.1h-.3c-1.9-.2-2.5-3.5-2.5-6.3s.6-6,2.5-6.3h.3a1.1,1.1,0,0,1,1.1,1.1,1.4,1.4,0,0,1-.5,1h-.4a7.9,7.9,0,0,0-.8,4,8.7,8.7,0,0,0,.8,4.1h0Z" style="fill:#232830"></path><path d="M293.1,20.6a1.1,1.1,0,0,1-1.2,1.1H265.3a1.1,1.1,0,1,1,0-2.2h26.9A1.2,1.2,0,0,1,293.1,20.6Z" style="fill:#232830"></path><path d="M268.1,34.5c0,5,.8,10,2.5,12.8h-5.3c-1.2,0-3.3-4.9-3.3-12.8s2.1-12.8,3.3-12.8h5.3C268.9,24.5,268.1,29.5,268.1,34.5Z" style="fill:#8298e5"></path><path d="M293.1,48.4a1.1,1.1,0,0,1-.9,1.1H265.3a1.3,1.3,0,0,1-1.2-1.2,1.1,1.1,0,0,1,1.2-1.1h26.6A1.1,1.1,0,0,1,293.1,48.4Z" style="fill:#232830"></path><path d="M306.6,29.3a1.1,1.1,0,0,1-1.1,1.2H295.3a1.1,1.1,0,0,1-1.1-1.2,1.2,1.2,0,0,1,.9-1.1h10.5a1.1,1.1,0,0,1,1,1.1Z" style="fill:#232830"></path><path d="M295.3,40.8h.1c-.8,4.6-2.2,6.5-2.8,6.5s-3.3-4.9-3.3-12.8,2.1-12.8,3.3-12.8,2,1.9,2.8,6.5h-.3c-1.8.3-2.5,3.5-2.5,6.3s.7,6.1,2.5,6.3Z" style="fill:#8298e5"></path><path d="M306.6,39.7a1,1,0,0,1-1,1.1H295.1a1.2,1.2,0,0,1-.9-1.1,1.1,1.1,0,0,1,1.1-1.1h10.2a1.1,1.1,0,0,1,1.1,1.1Z" style="fill:#232830"></path><path d="M281.9,28.9h-5.2a1.1,1.1,0,0,1-1.1-1.2,1.1,1.1,0,0,1,1.1-1.1h5.2a1.1,1.1,0,0,1,1.1,1.1A1.1,1.1,0,0,1,281.9,28.9Z" style="fill:#232830"></path><path d="M281.9,35.6h-5.2a1.1,1.1,0,0,1,0-2.2h5.2a1.1,1.1,0,1,1,0,2.2Z" style="fill:#232830"></path><path d="M281.9,42.4h-5.2a1.1,1.1,0,0,1,0-2.2h5.2a1.1,1.1,0,1,1,0,2.2Z" style="fill:#232830"></path><path d="M287.1,53.1H271.4a1.1,1.1,0,0,1,0-2.2h15.7a1.1,1.1,0,1,1,0,2.2Z" style="fill:#232830"></path></g></g></svg>