<svg xmlns="http://www.w3.org/2000/svg" width="101" height="100" viewBox="0 0 101 100" fill="none"><path d="M50.8573 19.5925C34.092 19.5925 20.4499 33.2346 20.4499 49.9998C20.4499 66.7651 34.092 80.4072 50.8573 80.4072C67.6225 80.4072 81.2646 66.7651 81.2646 49.9998C81.2646 33.2346 67.6225 19.5925 50.8573 19.5925ZM50.8573 81.4425C33.5174 81.4425 19.4146 67.3397 19.4146 49.9998C19.4146 32.66 33.5174 18.5571 50.8573 18.5571C68.1971 18.5571 82.3 32.66 82.3 49.9998C82.3 67.3397 68.1914 81.4425 50.8573 81.4425Z" fill="white"></path><path d="M50.8572 1.03539C23.8575 1.03539 1.89256 23.0003 1.89256 50C1.89256 76.9996 23.8575 98.9646 50.8572 98.9646C77.8568 98.9646 99.8218 76.9996 99.8218 50C99.8218 23.0003 77.8568 1.03539 50.8572 1.03539ZM50.8572 100C23.2886 100 0.857178 77.5685 0.857178 50C0.857178 22.4314 23.2886 0 50.8572 0C78.4257 0 100.857 22.4258 100.857 50C100.857 77.5742 78.4257 100 50.8572 100Z" fill="white"></path><path d="M28.4315 10.1262L26.5655 6.88916L25.6724 7.40685L27.5497 10.6609C27.8455 10.4846 28.13 10.2911 28.4315 10.1262Z" fill="white"></path><path d="M11.5181 26.6928L8.26403 24.8154L7.74634 25.7086L10.9833 27.5746C11.154 27.2731 11.3417 26.9886 11.5181 26.6928Z" fill="white"></path><path d="M90.7308 27.5746L93.9678 25.7086L93.4501 24.8154L90.196 26.6928C90.3724 26.9886 90.5658 27.2731 90.7308 27.5746Z" fill="white"></path><path d="M5.08394 50.0001C5.08394 49.8238 5.10669 49.6588 5.11238 49.4824H1.37476V50.5178H5.11238C5.11238 50.3415 5.08394 50.1765 5.08394 50.0001Z" fill="white"></path><path d="M74.1647 10.6609L76.0421 7.40685L75.1489 6.88916L73.283 10.1262C73.5845 10.2968 73.8689 10.4846 74.1647 10.6609Z" fill="white"></path><path d="M50.857 4.23262C51.0334 4.23262 51.1984 4.25538 51.3747 4.26107V0.523438H50.3394V4.26107C50.5157 4.26107 50.6807 4.23262 50.857 4.23262Z" fill="white"></path><path d="M50.857 95.7672C50.6807 95.7672 50.5157 95.7445 50.3394 95.7388V99.4764H51.3747V95.7388C51.1984 95.7388 51.0334 95.7672 50.857 95.7672Z" fill="white"></path><path d="M96.6018 49.4824C96.6018 49.6588 96.6246 49.8238 96.6246 50.0001C96.6246 50.1765 96.6018 50.3415 96.6018 50.5178H100.339V49.4824H96.6018Z" fill="white"></path><path d="M90.196 73.3076L93.4501 75.1849L93.9678 74.2917L90.7308 72.4258C90.5601 72.7273 90.3724 73.0117 90.196 73.3076Z" fill="white"></path><path d="M27.5497 89.3389L25.6724 92.5929L26.5655 93.1106L28.4315 89.8736C28.13 89.703 27.8455 89.5152 27.5497 89.3389Z" fill="white"></path><path d="M73.283 89.8736L75.1489 93.1106L76.0421 92.5929L74.1647 89.3389C73.8689 89.5152 73.5845 89.7086 73.283 89.8736Z" fill="white"></path><path d="M10.9833 72.4258L7.74634 74.2917L8.26403 75.1849L11.5181 73.3076C11.3417 73.0117 11.1483 72.7273 10.9833 72.4258Z" fill="white"></path><path d="M50.8574 4.74454C25.9057 4.74454 5.60765 25.0426 5.60765 50C5.60765 74.9573 25.9057 95.2497 50.8574 95.2497C75.809 95.2497 96.1071 74.9516 96.1071 50C96.1071 25.0483 75.809 4.74454 50.8574 4.74454ZM50.8574 96.2851C25.3369 96.2851 4.57227 75.5205 4.57227 50C4.57227 24.4794 25.3369 3.71484 50.8574 3.71484C76.3779 3.71484 97.1425 24.4794 97.1425 50C97.1425 75.5205 76.3779 96.2851 50.8574 96.2851Z" fill="white"></path><path d="M14.7153 64.626C15.7279 64.2334 16.3423 63.4768 15.9782 62.5438C15.6198 61.6165 14.6527 61.4402 13.6344 61.8327C12.6274 62.2252 12.0244 63.0046 12.3771 63.9319C12.7355 64.8592 13.6969 65.0128 14.7096 64.626M13.2248 60.7859C14.7437 60.2 16.2399 60.712 16.8202 62.2139C17.4004 63.7101 16.6381 65.0925 15.1135 65.6784C13.5945 66.2701 12.1097 65.7581 11.5295 64.2619C10.9492 62.7657 11.7058 61.3833 13.2248 60.7916" fill="white"></path><path d="M16.6211 67.8176L17.207 68.8245C17.5085 69.3422 17.9181 69.4389 18.2936 69.2228C18.6691 69.0066 18.8113 68.597 18.5212 68.0963L17.9238 67.061L16.6211 67.8176ZM18.1343 65.6729L19.3802 67.8176C19.9093 68.7164 19.7329 69.621 18.9535 70.0761C18.4074 70.3947 17.8385 70.3833 17.3265 69.877L17.3037 69.8883C17.4346 70.3947 17.3151 70.7588 16.7747 71.1513C16.1546 71.6007 15.6312 71.8624 15.6596 72.0672L15.6141 72.0957L15.085 71.1854C15.068 71.0432 15.58 70.7189 16.0578 70.389C16.5471 70.0533 16.6666 69.5982 16.3252 69.0123L15.8815 68.25L14.0098 69.3422L13.458 68.3979L18.1286 65.6842L18.1343 65.6729Z" fill="white"></path><path d="M19.8811 76.5334L19.8698 76.5221C19.153 76.6245 18.6637 76.3685 18.2598 75.8678C17.7421 75.2307 17.5714 74.548 17.6738 73.8938C17.7819 73.2339 18.1631 72.591 18.8002 72.079C19.5 71.5101 20.3135 71.2655 21.0758 71.3793C21.6618 71.4646 22.1965 71.7775 22.6517 72.3464C23.5107 73.4045 23.414 74.4854 22.7029 75.2819L22.0259 74.4456C22.3558 74.0246 22.3956 73.4728 21.9576 72.9323C21.3148 72.1359 20.3363 72.2724 19.5 72.9494C18.641 73.6435 18.3793 74.6049 18.9652 75.3331C19.4886 75.9816 20.3306 76.0214 20.7914 75.6403L20.8198 75.6232L20.0006 74.6049L20.6605 74.0758L22.0941 75.8451L19.8527 77.6598L19.335 77.017L19.8755 76.5334H19.8811Z" fill="white"></path><path d="M23.721 78.644L24.7848 79.6054L25.4732 78.1149C25.5983 77.8419 25.8714 77.3526 25.8714 77.3526L25.8543 77.3412C25.8543 77.3412 25.3878 77.6541 25.1261 77.8077L23.721 78.6497V78.644ZM26.1331 76.1978L26.9864 76.9601L24.7734 82.2792L23.9201 81.5112L24.4207 80.4133L22.9644 79.1048L21.929 79.7249L21.0984 78.974L26.1388 76.2034L26.1331 76.1978Z" fill="white"></path><path d="M29.1595 78.752L30.0925 79.355L29.9673 82.8821C29.9503 83.2234 29.8763 83.7241 29.8763 83.7241H29.8877C29.8877 83.7241 30.1665 83.2462 30.3713 82.9219L31.913 80.5326L32.8289 81.1242L29.8877 85.6811L28.9945 85.1008L29.0685 81.5794C29.0799 81.2437 29.1481 80.7374 29.1481 80.7374H29.1311C29.1311 80.7374 28.8466 81.2266 28.6418 81.5452L27.1229 83.9004L26.2126 83.3088L29.1538 78.752H29.1595Z" fill="white"></path><path d="M34.1601 81.8066L35.1386 82.2959L32.7208 87.1429L31.731 86.6536L34.1601 81.8066Z" fill="white"></path><path d="M35.3262 85.4706C35.8724 83.963 37.232 83.1552 38.7282 83.7013C39.9741 84.1564 40.4463 85.1747 40.2017 86.176L39.1776 85.8062C39.2687 85.2601 39.0127 84.7879 38.4153 84.5717C37.4823 84.2304 36.7485 84.8505 36.3844 85.8574C36.0089 86.8928 36.2763 87.8371 37.1296 88.1443C37.7327 88.3662 38.2902 88.1557 38.5519 87.6494L39.5588 88.0135C39.3654 88.4459 39.0184 88.8156 38.5632 89.0091C38.0911 89.2082 37.5279 89.2423 36.8224 88.9863C35.3945 88.4629 34.7858 86.9952 35.3376 85.4706" fill="white"></path><path d="M44.0818 85.1919L45.174 85.3796L44.2467 90.7443L43.1602 90.5566L44.0818 85.1919Z" fill="white"></path><path d="M46.5394 85.6411L47.6544 85.7037L49.2985 88.8212C49.4578 89.1284 49.6399 89.6006 49.6399 89.6006H49.6512C49.6512 89.6006 49.6512 89.0374 49.674 88.6619L49.8276 85.8175L50.9142 85.8744L50.6241 91.2959L49.5602 91.239L47.8706 88.1442C47.7113 87.8484 47.5179 87.3762 47.5179 87.3762H47.5065C47.5065 87.3762 47.5065 87.9451 47.4838 88.3206L47.3359 91.1196L46.2493 91.0627L46.5394 85.6411Z" fill="white"></path><path d="M56.7339 90.1465H56.7168C56.421 90.8007 55.9374 91.0738 55.2946 91.142C54.4867 91.2274 53.8211 90.9998 53.3262 90.5618C52.8313 90.1123 52.507 89.4524 52.416 88.6389C52.3193 87.7458 52.5525 86.9322 53.0588 86.352C53.4514 85.9082 53.9975 85.6295 54.72 85.5498C56.0683 85.4019 56.9216 86.0675 57.2117 87.0972L56.1422 87.211C55.9659 86.7047 55.5278 86.3747 54.8395 86.4487C53.8268 86.5568 53.4115 87.4499 53.531 88.5194C53.6505 89.6117 54.3104 90.3513 55.232 90.2546C56.0626 90.1692 56.5404 89.4866 56.4836 88.8892V88.8608L55.1865 89.003L55.1011 88.1611L57.3597 87.9164L57.6669 90.7723L56.8476 90.8576L56.7339 90.1408V90.1465Z" fill="white"></path><path d="M60.1243 87.1087L61.2507 86.7958C61.8367 86.6422 62.0358 86.2611 61.922 85.8401C61.8026 85.4134 61.4442 85.1745 60.881 85.3281L59.7261 85.6467L60.13 87.1087H60.1243ZM58.4233 85.0778L60.8298 84.4179C61.8481 84.1391 62.6843 84.543 62.9233 85.4134C63.0939 86.0278 62.9347 86.5797 62.3089 86.9495L62.3203 86.9722C62.8436 86.9836 63.1679 87.1884 63.4125 87.8085C63.6856 88.531 63.8164 89.1056 64.0212 89.134L64.0326 89.1852L63.0143 89.4639C62.8664 89.4412 62.69 88.8609 62.4852 88.3091C62.2861 87.7459 61.8765 87.5127 61.2166 87.6947L60.3519 87.9336L60.9322 90.0385L59.8683 90.3344L58.429 85.0835L58.4233 85.0778Z" fill="white"></path><path d="M63.6799 83.5873L67.3265 81.9717L67.7077 82.8193L65.0623 83.9855L65.5516 85.0949L67.867 84.0709L68.2311 84.8958L65.9157 85.9198L66.5073 87.2624L69.1697 86.0848L69.5452 86.921L65.8702 88.5424L63.6799 83.5873Z" fill="white"></path><path d="M72.5662 84.0939C73.4309 83.5477 73.4366 82.8025 72.8677 81.8979C72.2931 80.9877 71.5024 80.6122 70.7173 81.1072L69.9777 81.5737L71.8551 84.5433L72.5662 84.0939ZM68.5498 81.3689L70.3304 80.2425C71.5422 79.4745 72.953 79.958 73.8007 81.3063C74.2729 82.0459 74.4378 82.848 74.2103 83.5591C74.051 84.0483 73.7154 84.4864 73.1351 84.8505L71.4341 85.9314L68.5498 81.3746V81.3689Z" fill="white"></path><path d="M74.1481 77.4281L73.2957 78.1201L76.7091 82.3249L77.5615 81.6329L74.1481 77.4281Z" fill="white"></path><path d="M75.3308 76.5216L78.1354 73.7227L78.784 74.3712L76.753 76.4021L77.6064 77.2498L79.387 75.4748L80.0185 76.1063L78.2379 77.8869L79.2675 78.9167L81.3099 76.8686L81.9527 77.5172L79.1424 80.3275L75.3308 76.5216Z" fill="white"></path><path d="M78.8979 72.7273L79.5636 71.8285L83.085 72.1698C83.4263 72.204 83.9213 72.3177 83.9213 72.3177L83.9327 72.3063C83.9327 72.3063 83.4605 71.9991 83.1533 71.7716L80.8549 70.0763L81.4978 69.2002L85.884 72.4315L85.2525 73.2905L81.7253 73.0004C81.3897 72.972 80.8891 72.8639 80.8891 72.8639L80.8777 72.8752C80.8777 72.8752 81.3556 73.1881 81.6628 73.4157L83.927 75.0825L83.2784 75.9586L78.8979 72.7273Z" fill="white"></path><path d="M82.1294 68.2503L84.1717 64.3989L84.9909 64.837L84.2286 66.2763L88.1995 68.3812L87.6818 69.354L83.7109 67.2434L82.9486 68.6884L82.1294 68.2503Z" fill="white"></path><path d="M88.0971 64.8198L88.4555 63.7958C89.0926 63.938 89.4624 63.6764 89.7127 62.9425C89.9005 62.4134 89.8777 61.8786 89.4055 61.7137C88.9049 61.5373 88.6318 61.9924 88.1824 62.7092C87.6533 63.5569 87.1129 64.3078 86.0434 63.938C85.0307 63.5853 84.7918 62.5784 85.19 61.4406C85.5939 60.2858 86.4188 59.7339 87.4827 60.0127L87.1356 61.0082C86.6009 60.8831 86.197 61.2017 86.0149 61.7307C85.8215 62.2883 85.9296 62.7377 86.2937 62.8685C86.7146 63.0164 86.9536 62.6979 87.3859 61.9924C87.9776 61.0196 88.5294 60.2402 89.6388 60.6271C90.6798 60.9912 90.97 62.0322 90.5661 63.1871C90.0825 64.5809 89.1893 65.1555 88.0914 64.8141" fill="white"></path><path d="M50.8573 19.5925C34.092 19.5925 20.4499 33.2346 20.4499 49.9998C20.4499 66.7651 34.092 80.4072 50.8573 80.4072C67.6225 80.4072 81.2646 66.7651 81.2646 49.9998C81.2646 33.2346 67.6225 19.5925 50.8573 19.5925ZM50.8573 81.4425C33.5174 81.4425 19.4146 67.3397 19.4146 49.9998C19.4146 32.66 33.5174 18.5571 50.8573 18.5571C68.1971 18.5571 82.3 32.66 82.3 49.9998C82.3 67.3397 68.1914 81.4425 50.8573 81.4425Z" fill="white"></path><path d="M52.7231 71.9192C56.1876 72.7498 59.8456 72.0102 62.7413 69.9395C65.6426 67.863 67.5086 64.6431 67.8556 61.0932L68.3904 55.666C68.7602 51.9113 67.1673 48.35 64.118 46.1313C61.0687 43.9183 57.1832 43.486 53.73 44.9878C52.2281 45.6364 50.5101 45.6364 49.0139 44.9878C45.5664 43.486 41.6695 43.9126 38.6259 46.1313C35.5766 48.35 33.9781 51.917 34.3535 55.666L34.8883 61.0932C35.241 64.6431 37.1013 67.863 40.0026 69.9395C42.8926 72.0102 46.5506 72.7441 50.0208 71.9192C50.8969 71.7144 51.8299 71.7144 52.7174 71.9192M55.5391 73.3016C54.5151 73.3016 53.4911 73.1879 52.4785 72.9489C51.7446 72.7669 50.9993 72.7669 50.2655 72.9489C46.5051 73.8307 42.5342 73.0456 39.3939 70.7928C36.2423 68.54 34.217 65.047 33.8358 61.1956L33.3011 55.7684C32.8915 51.6382 34.655 47.7185 38.0058 45.2723C41.3566 42.826 45.6404 42.3539 49.4406 44.015C50.6694 44.5498 52.0802 44.5555 53.309 44.015C57.1036 42.3539 61.3873 42.8204 64.7438 45.2723C68.0946 47.7185 69.8581 51.6382 69.4485 55.7684L68.9138 61.1956C68.5326 65.047 66.5074 68.54 63.3557 70.7928C61.0574 72.4369 58.321 73.296 55.5448 73.296" fill="white"></path><path d="M51.3993 26.0574L50.9329 26.0659L51.2394 42.7886L51.7058 42.78L51.3993 26.0574Z" fill="white"></path><path d="M51.1471 26.2545L51.4429 42.5817H51.5112L51.2153 26.2545H51.1471ZM51.0504 42.98V42.7865L50.7432 25.862L51.6079 25.8506V26.0497L51.9151 42.9686L51.0504 42.9856V42.98Z" fill="white"></path><path d="M48.4127 29.8751L48.0854 30.2075L51.1382 33.2127L51.4655 32.8803L48.4127 29.8751Z" fill="white"></path><path d="M48.3712 30.2137L51.1417 32.9387L51.1872 32.8875L48.4167 30.1625L48.3712 30.2137ZM51.1417 33.4962L50.9995 33.3597L47.7966 30.2137L48.411 29.605L48.5533 29.7415L51.7447 32.8875L51.1417 33.4962Z" fill="white"></path><path d="M46.4686 32.982L46.1414 33.3145L51.2293 38.3231L51.5566 37.9907L46.4686 32.982Z" fill="white"></path><path d="M46.4254 33.3148L51.2326 38.0366L51.2781 37.9854L46.4709 33.2636L46.4254 33.3148ZM51.2326 38.5941L51.0904 38.4576L45.8679 33.3148L46.4709 32.7061L46.6132 32.8426L51.8356 37.9854L51.2326 38.5941Z" fill="white"></path><path d="M51.4716 33.2117L51.136 32.8931L54.0772 29.7812L54.4185 30.0998L51.4716 33.2117Z" fill="white"></path><path d="M51.4147 32.8878L51.4659 32.9334L54.134 30.106L54.0828 30.0605L51.4147 32.8878ZM51.4773 33.4909L50.8572 32.8992L50.9937 32.7627L54.0771 29.5029L54.6972 30.0946L54.5607 30.2368L51.4773 33.4966V33.4909Z" fill="white"></path><path d="M55.9273 33.0158L51.228 37.9834L51.5669 38.304L56.2662 33.3364L55.9273 33.0158Z" fill="white"></path><path d="M51.5114 37.9846L51.5626 38.0301L55.9829 33.3481L55.9317 33.3026L51.5114 37.9846ZM51.574 38.5876L50.9539 37.996L51.0904 37.8595L55.9203 32.7451L56.5404 33.3368L56.4039 33.4733L51.574 38.5819V38.5876Z" fill="white"></path><path d="M51.1815 26.3854C48.7808 28.8885 45.6007 33.9801 45.6632 36.944C45.7201 40.09 48.3256 42.6045 51.4716 42.5476C54.6176 42.4907 57.1321 39.8852 57.0752 36.7392C57.0354 33.7753 53.6676 28.7975 51.1815 26.3854ZM51.483 43.0141C48.081 43.0767 45.265 40.3574 45.2024 36.9554C45.1342 33.8037 48.5418 28.3879 51.0108 25.8961L51.1701 25.7368L51.3351 25.8904C53.8951 28.2968 57.4962 33.5818 57.5417 36.7335C57.6043 40.1355 54.885 42.9515 51.483 43.0141Z" fill="white"></path><path d="M51.1873 26.6698C48.9231 29.0989 45.7999 34.0255 45.8625 36.9383C45.9194 39.942 48.377 42.3484 51.3694 42.3484H51.4661C54.504 42.2915 56.9274 39.777 56.8762 36.7392C56.8307 33.815 53.5311 29.0022 51.1816 26.6641M51.3694 42.741C48.1608 42.741 45.5268 40.1582 45.4643 36.9439C45.3903 33.8662 48.7126 28.6609 51.028 26.2431L51.1702 26.1065L51.3125 26.2431C53.7132 28.5755 57.2176 33.6501 57.2631 36.7335C57.3257 39.9932 54.7201 42.6841 51.4718 42.741C51.4376 42.741 51.3978 42.741 51.3637 42.741M51.1646 26.0041L51.1361 26.0326C48.6956 28.5016 45.322 33.8435 45.3846 36.9439C45.413 38.5368 46.0673 40.0274 47.2108 41.131C48.3315 42.2176 49.7992 42.8092 51.3523 42.8092H51.4604C54.7543 42.7467 57.3882 40.0217 57.3314 36.7335C57.2858 33.6273 53.7246 28.4049 51.1873 26.0326L51.1646 26.0041ZM51.358 43.2075C49.7025 43.2075 48.138 42.5703 46.9434 41.4211C45.7203 40.2379 45.0262 38.6563 44.9978 36.9553C44.9238 33.7468 48.3656 28.2683 50.863 25.7538L51.1589 25.458L51.4661 25.7425C54.0545 28.1659 57.6898 33.5192 57.7353 36.7221C57.7637 38.4231 57.1322 40.033 55.9489 41.2562C54.7656 42.4793 53.1784 43.1733 51.4831 43.2018C51.4433 43.2018 51.4035 43.2018 51.3637 43.2018" fill="white"></path></svg>