<svg xmlns="http://www.w3.org/2000/svg" width="101" height="100" viewBox="0 0 101 100" fill="none"><path d="M50.1429 19.5867C33.3776 19.5867 19.7355 33.2287 19.7355 49.994C19.7355 66.7593 33.3776 80.4013 50.1429 80.4013C66.9082 80.4013 80.5502 66.7593 80.5502 49.994C80.5502 33.2287 66.9082 19.5867 50.1429 19.5867ZM50.1429 81.4367C32.803 81.4367 18.7002 67.3338 18.7002 49.994C18.7002 32.6541 32.803 18.5513 50.1429 18.5513C67.4827 18.5513 81.5856 32.6541 81.5856 49.994C81.5856 67.3338 67.4827 81.4367 50.1429 81.4367Z" fill="white"></path><path d="M50.1428 1.03539C23.1431 1.03539 1.17818 23.0003 1.17818 50C1.17818 76.9997 23.1431 98.9646 50.1428 98.9646C77.1425 98.9646 99.1074 76.9997 99.1074 50C99.1074 23.0003 77.1368 1.03539 50.1428 1.03539ZM50.1428 99.9943C22.5742 99.9943 0.142822 77.5629 0.142822 49.9943C0.142822 22.4258 22.5686 0 50.1428 0C77.717 0 100.143 22.4258 100.143 50C100.143 77.5742 77.7113 100 50.1428 100" fill="white"></path><path d="M10.8037 26.6869L7.54966 24.8096L7.03198 25.7027L10.269 27.5687C10.4397 27.2672 10.6274 26.9827 10.8037 26.6869Z" fill="white"></path><path d="M50.1427 4.22676C50.319 4.22676 50.484 4.24952 50.6604 4.2552V0.517578H49.625V4.2552C49.8014 4.2552 49.9663 4.22676 50.1427 4.22676Z" fill="white"></path><path d="M27.7171 10.1208L25.8511 6.88379L24.958 7.40148L26.8353 10.6555C27.1312 10.4792 27.4156 10.2858 27.7171 10.1208Z" fill="white"></path><path d="M90.0167 27.5746L93.2537 25.7086L92.736 24.8154L89.4819 26.6928C89.6583 26.9886 89.8517 27.273 90.0167 27.5746Z" fill="white"></path><path d="M73.4504 10.6609L75.3277 7.40685L74.4346 6.88916L72.5686 10.1262C72.8701 10.2968 73.1546 10.4846 73.4504 10.6609Z" fill="white"></path><path d="M4.36959 50.0001C4.36959 49.8238 4.39234 49.6588 4.39803 49.4824H0.6604V50.5178H4.39803C4.39803 50.3415 4.36959 50.1765 4.36959 50.0001Z" fill="white"></path><path d="M72.5686 89.8736L74.4346 93.1106L75.3277 92.5929L73.4504 89.3389C73.1546 89.5152 72.8701 89.7086 72.5686 89.8736Z" fill="white"></path><path d="M89.4819 73.3076L92.736 75.1849L93.2537 74.2917L90.0167 72.4258C89.846 72.7273 89.6583 73.0117 89.4819 73.3076Z" fill="white"></path><path d="M50.1427 95.7669C49.9663 95.7669 49.8014 95.7441 49.625 95.7441V99.4818H50.6604V95.7441C50.484 95.7441 50.319 95.7669 50.1427 95.7669Z" fill="white"></path><path d="M26.8295 89.333L24.9521 92.5871L25.8453 93.1048L27.7113 89.8678C27.4098 89.6971 27.1253 89.5094 26.8295 89.333Z" fill="white"></path><path d="M10.2636 72.4199L7.02661 74.2859L7.54429 75.179L10.7984 73.3017C10.622 73.0059 10.4286 72.7214 10.2636 72.4199Z" fill="white"></path><path d="M50.143 4.74486C25.1914 4.74486 4.8876 25.043 4.8876 49.9946C4.8876 74.9462 25.1857 95.25 50.143 95.25C75.1004 95.25 95.3928 74.9519 95.3928 49.9946C95.3928 25.0373 75.0947 4.74486 50.143 4.74486ZM50.143 96.2854C24.6225 96.2854 3.85791 75.5208 3.85791 50.0003C3.85791 24.4798 24.6168 3.70947 50.143 3.70947C75.6693 3.70947 96.4282 24.4741 96.4282 49.9946C96.4282 75.5151 75.6636 96.2797 50.143 96.2797" fill="white"></path><path d="M20.1793 74.4056L20.9302 75.2703C21.3114 75.7027 21.7494 75.7254 22.1249 75.4011C22.5117 75.0655 22.5174 74.6331 22.1533 74.2178L21.3967 73.3531L20.1849 74.4113L20.1793 74.4056ZM21.3626 71.8569L22.9384 73.6603C23.3537 74.1325 23.53 74.6104 23.4902 75.0655C23.4561 75.4978 23.2513 75.9188 22.8758 76.2488C22.1021 76.9258 21.135 76.8689 20.384 76.0099L19.508 75.0029L18.0288 76.2943L17.2722 75.4353L21.3683 71.8569H21.3626Z" fill="white"></path><path d="M24.8441 75.7026L28.1835 78.5357L27.5805 79.2411L26.3289 78.183L23.4162 81.6248L22.5742 80.9137L25.4869 77.4719L24.2411 76.4138L24.8441 75.7026Z" fill="white"></path><path d="M29.1276 79.2241L30.0663 79.8101L28.9399 81.6192L30.749 82.7513L31.8811 80.9422L32.8141 81.5281L29.9355 86.1419L28.9968 85.5616L30.2654 83.525L28.4506 82.3929L27.182 84.4238L26.249 83.8435L29.1276 79.2241Z" fill="white"></path><path d="M33.935 85.8293L35.2605 86.3925L35.4255 84.7541C35.454 84.4526 35.5507 83.8951 35.5507 83.8951H35.5393C35.5393 83.8951 35.1923 84.3388 34.9988 84.572L33.935 85.8293ZM35.4312 82.7231L36.4836 83.1669L36.1196 88.9411L35.0614 88.4917L35.1752 87.28L33.3661 86.512L32.581 87.4393L31.5457 87.0012L35.4312 82.7231Z" fill="white"></path><path d="M39.1517 84.1846L40.2212 84.4633L39.0664 88.8267L41.5297 89.4753L41.2964 90.3627L37.7693 89.4355L39.1517 84.1846Z" fill="white"></path><path d="M44.8181 88.9411L46.2403 89.106L45.9388 87.5075C45.8819 87.2059 45.8193 86.6541 45.8193 86.6541H45.8023C45.8023 86.6541 45.6031 87.1775 45.478 87.4506L44.8181 88.9411ZM45.3756 85.5618L46.502 85.6984L47.7593 91.2849L46.6272 91.1484L46.3996 89.9651L44.4654 89.7375L43.9818 90.8355L42.8782 90.7046L45.3813 85.5562L45.3756 85.5618Z" fill="white"></path><path d="M49.0903 85.9031L53.448 85.7153L53.4879 86.6426L51.8551 86.7052L52.0486 91.2052L50.9506 91.2507L50.7572 86.7564L49.1245 86.8247L49.0903 85.9031Z" fill="white"></path><path d="M54.7339 85.5783L58.682 84.9014L58.8413 85.8116L55.9798 86.3065L56.1846 87.5069L58.6934 87.0745L58.8413 87.9677L56.3382 88.4001L56.5885 89.845L59.4671 89.3501L59.6264 90.2603L55.6612 90.943L54.7339 85.5783Z" fill="white"></path><path d="M63.7053 83.3141L67.2211 81.7041L67.6079 82.5461L65.0934 83.7009L65.6339 84.8785L67.7672 83.9057L68.1541 84.7477L66.0207 85.7319L66.9537 87.7628L65.9581 88.2122L63.7053 83.3141Z" fill="white"></path><path d="M70.5205 82.4895L71.499 81.8524C72.0053 81.5281 72.085 81.1071 71.8517 80.743C71.6071 80.3789 71.1975 80.2538 70.7025 80.5724L69.6956 81.2152L70.5148 82.4839L70.5205 82.4895ZM68.2961 81.073L70.3897 79.719C71.2658 79.1501 72.1874 79.2867 72.6709 80.0433C73.018 80.5781 73.035 81.1413 72.5515 81.6874L72.5628 81.7045C73.0635 81.5566 73.4333 81.659 73.8485 82.1767C74.3264 82.7797 74.6222 83.286 74.827 83.2576L74.8555 83.2974L73.968 83.872C73.8258 83.9004 73.4788 83.3884 73.126 82.9276C72.7619 82.4554 72.3068 82.353 71.7322 82.7285L70.9813 83.2063L72.1646 85.0382L71.243 85.6298L68.3018 81.073H68.2961Z" fill="white"></path><path d="M72.8418 78.0178L75.8114 75.3838L76.4201 76.0778L74.264 77.9836L75.0662 78.8825L76.9549 77.2099L77.5522 77.8812L75.6635 79.5538L76.6306 80.646L78.7981 78.7232L79.4011 79.4059L76.4144 82.0569L72.8418 78.0178Z" fill="white"></path><path d="M76.6987 74.4054L79.2872 71.3447L79.9983 71.9478L78.1153 74.1607L79.0483 74.9458L80.6924 73.0116L81.3864 73.5919L79.7366 75.5318L80.863 76.4818L82.7575 74.2518L83.4572 74.8491L80.8517 77.9211L76.6987 74.4054Z" fill="white"></path><path d="M50.1429 19.5867C33.3776 19.5867 19.7355 33.2287 19.7355 49.994C19.7355 66.7593 33.3776 80.4013 50.1429 80.4013C66.9082 80.4013 80.5502 66.7593 80.5502 49.994C80.5502 33.2287 66.9082 19.5867 50.1429 19.5867ZM50.1429 81.4367C32.803 81.4367 18.7002 67.3338 18.7002 49.994C18.7002 32.6541 32.803 18.5513 50.1429 18.5513C67.4827 18.5513 81.5856 32.6541 81.5856 49.994C81.5856 67.3338 67.4827 81.4367 50.1429 81.4367Z" fill="white"></path><path d="M34.9816 38.3774H33.6618V39.6631H32.6833V38.3774H31.3691V37.4501H32.6833V36.1587H33.6618V37.4501H34.9816V38.3774Z" fill="white"></path><path d="M67.8751 38.3774H66.5553V39.6631H65.5768V38.3774H64.2683V37.4501H65.5768V36.1587H66.5553V37.4501H67.8751V38.3774Z" fill="white"></path><path d="M44.0556 28.9283H42.7358V30.2197H41.7573V28.9283H40.4431V28.0067H41.7573V26.7153H42.7358V28.0067H44.0556V28.9283Z" fill="white"></path><path d="M58.9664 28.9283H57.6522V30.2197H56.6738V28.9283H55.3596V28.0067H56.6738V26.7153H57.6522V28.0067H58.9664V28.9283Z" fill="white"></path><path d="M46.1434 72.7442C40.8356 74.6443 34.8395 72.4825 32.0803 67.4308C31.1701 65.7639 30.6012 63.3973 30.3851 60.7292L36.3357 62.544C36.2617 62.2083 36.239 61.8613 36.1878 61.52L30.3452 59.7166L30.3111 59.8417C30.1746 57.7027 30.2144 55.4157 30.4192 53.1402L36.8704 55.1256C36.9558 54.8468 37.0809 54.5453 37.1833 54.2609L30.4647 52.1901C30.7435 49.2034 31.227 46.3134 31.8926 43.9412L37.3142 53.8911C37.4564 53.4929 37.5759 53.1003 37.7465 52.6964L32.6834 43.4121C34.9988 44.163 37.7522 45.3406 40.4317 46.7629L40.2042 47.5764C40.4943 47.0644 40.8072 46.5581 41.1087 46.0461C37.8432 44.3223 34.5209 42.9456 31.8699 42.2004L31.4375 42.0752L31.2725 42.5246C29.1676 49.34 28.1266 62.2652 31.2384 67.8859C34.4868 73.8422 41.8539 76.0779 47.8671 73.0457C47.2812 72.9718 46.6952 72.8978 46.132 72.7442" fill="white"></path><path d="M62.4993 54.3011L68.1939 43.8562C68.8595 46.2285 69.3431 49.1185 69.6218 52.1052L62.4993 54.3011ZM68.8083 42.4397L68.6433 41.9902L68.211 42.1154C65.4006 42.9005 61.828 44.4194 58.3748 46.2911C59.268 47.7873 60.1099 49.2948 60.8097 50.791L59.6548 46.6665C62.3343 45.2443 65.0878 44.0667 67.4032 43.3158L61.8621 53.4876C62.084 54.0849 62.3286 54.6822 62.4936 55.2568L69.673 53.0495C69.8778 55.3251 69.9177 57.612 69.7811 59.7511L69.747 59.6259L63.0511 61.691C62.9942 62.0437 62.9316 62.3907 62.8463 62.7321L69.7072 60.6385C69.491 63.301 68.9221 65.6676 68.0119 67.3401C65.1902 72.5113 58.9722 74.6561 53.5791 72.517C53.0727 72.6706 52.555 72.7787 52.0203 72.8697C58.0676 76.0499 65.5656 73.8141 68.8481 67.7895C71.96 62.1689 70.9189 49.2436 68.814 42.4283" fill="white"></path><path d="M50.2168 34.0825H49.1074V73.7344H50.2168V34.0825Z" fill="white"></path><path d="M50.0576 50.3132L49.6878 50.683L49.2668 51.0528L49.1075 50.8935L42.3889 44.0725L42.1272 43.8108L42.9179 43.02L43.026 43.1224L49.1075 49.3632L49.6878 49.8922L50.0576 50.3132Z" fill="white"></path><path d="M50.0575 62.4185L49.6877 62.7883L49.2667 63.1581L49.1074 63.0045L38.1619 51.7916L37.4224 51.0521L38.2131 50.3125L38.6398 50.7335L49.1074 61.4685L50.0575 62.4185Z" fill="white"></path><path d="M57.1403 43.8108L56.8786 44.0782L50.2169 50.8935L50.0576 51.0528L49.6878 50.683L49.2668 50.3132L49.6878 49.8922L50.2169 49.3632L56.2984 43.1224L56.4008 43.02L57.1403 43.8108Z" fill="white"></path><path d="M61.4241 51.5818L61.1624 51.8492L50.2169 63.0051L50.0576 63.1587L49.6878 62.789L49.2668 62.4192L49.6366 61.9982L50.2169 61.4691L60.6333 50.791L61.4241 51.5818Z" fill="white"></path><path d="M50.2168 73.2052H49.1074C41.9166 72.8866 36.1026 66.9644 36.1026 59.6712C36.1026 57.4525 36.8933 54.6991 38.1619 51.792C38.3212 51.4223 38.4805 51.1037 38.6398 50.7339C39.698 48.5152 41.0178 46.2397 42.3945 44.0722C42.605 43.7536 42.8155 43.4407 43.026 43.1221C44.983 40.1639 47.1504 37.4104 49.1074 35.351C49.3179 35.1406 49.4773 34.9813 49.6365 34.822C49.847 35.0325 50.0575 35.243 50.2168 35.4534C52.225 37.5128 54.3413 40.2094 56.2983 43.1221C56.5087 43.4407 56.7192 43.7536 56.8785 44.0722C58.3577 46.2909 59.6832 48.6176 60.7356 50.8932C60.8949 51.2118 61.0542 51.5247 61.1566 51.8432C62.4253 54.6991 63.1648 57.4468 63.1648 59.6655C63.1648 66.9075 57.4531 72.8866 50.2111 73.1995M50.0518 33.6501L49.6308 33.2803L49.2611 33.6501C43.2877 39.4641 34.9875 52.1561 34.9875 59.6655C34.9875 67.7552 41.5981 74.3088 49.6308 74.3088C57.6636 74.3088 64.2741 67.7495 64.2741 59.6655C64.3253 52.1561 56.0252 39.4698 50.0518 33.6501Z" fill="white"></path></svg>