<svg xmlns="http://www.w3.org/2000/svg" width="101" height="100" viewBox="0 0 101 100" fill="none"><path d="M50.4288 19.5867C33.6635 19.5867 20.0215 33.2287 20.0215 49.994C20.0215 66.7593 33.6635 80.4013 50.4288 80.4013C67.1941 80.4013 80.8361 66.7593 80.8361 49.994C80.8361 33.2287 67.1941 19.5867 50.4288 19.5867ZM50.4288 81.4367C33.0889 81.4367 18.9861 67.3338 18.9861 49.994C18.9861 32.6541 33.0889 18.5513 50.4288 18.5513C67.7687 18.5513 81.8715 32.6541 81.8715 49.994C81.8715 67.3338 67.7687 81.4367 50.4288 81.4367Z" fill="white"></path><path d="M50.4287 1.03539C23.429 1.03539 1.46408 23.0003 1.46408 50C1.46408 76.9997 23.429 98.9646 50.4287 98.9646C77.4284 98.9646 99.3933 76.9997 99.3933 50C99.3933 23.0003 77.4284 1.03539 50.4287 1.03539ZM50.4287 99.9943C22.8602 99.9943 0.428711 77.5629 0.428711 49.9943C0.428711 22.4258 22.8602 0 50.4287 0C77.9973 0 100.429 22.4258 100.429 50C100.429 77.5742 78.0029 100 50.4287 100" fill="white"></path><path d="M4.65546 50.0001C4.65546 49.8238 4.67821 49.6588 4.6839 49.4824H0.946289V50.5178H4.6839C4.6839 50.3415 4.65546 50.1765 4.65546 50.0001Z" fill="white"></path><path d="M28.003 10.1208L26.1371 6.88379L25.2439 7.40148L27.1212 10.6555C27.4171 10.4792 27.7015 10.2858 28.003 10.1208Z" fill="white"></path><path d="M11.0896 26.6869L7.83557 24.8096L7.31787 25.7027L10.5549 27.5687C10.7255 27.2672 10.9133 26.9827 11.0896 26.6869Z" fill="white"></path><path d="M90.3024 27.5746L93.5337 25.7086L93.016 24.8154L89.762 26.6928C89.9383 26.9886 90.1317 27.273 90.2967 27.5746" fill="white"></path><path d="M73.7363 10.6609L75.6137 7.40685L74.7148 6.88916L72.8489 10.1262C73.1504 10.2968 73.4348 10.4846 73.7307 10.6609" fill="white"></path><path d="M50.4286 4.22676C50.6049 4.22676 50.7699 4.24952 50.9463 4.2552V0.517578H49.9109V4.2552C50.0872 4.2552 50.2522 4.22676 50.4286 4.22676Z" fill="white"></path><path d="M50.4286 95.7669C50.2522 95.7669 50.0872 95.7441 49.9109 95.7441V99.4818H50.9463V95.7441C50.7699 95.7441 50.6049 95.7669 50.4286 95.7669Z" fill="white"></path><path d="M89.7678 73.3076L93.0219 75.1849L93.5396 74.2917L90.3026 72.4258C90.1319 72.7273 89.9442 73.0117 89.7678 73.3076Z" fill="white"></path><path d="M96.1733 49.4824C96.1733 49.6588 96.1961 49.8238 96.1961 50.0001C96.1961 50.1765 96.1733 50.3415 96.1733 50.5178H99.9109V49.4824H96.1733Z" fill="white"></path><path d="M72.8545 89.8736L74.7205 93.1106L75.6193 92.5929L73.742 89.3389C73.4461 89.5152 73.1617 89.7086 72.8602 89.8736" fill="white"></path><path d="M10.5495 72.4199L7.3125 74.2859L7.83019 75.179L11.0843 73.3017C10.9079 73.0059 10.7145 72.7214 10.5495 72.4199Z" fill="white"></path><path d="M27.1154 89.333L25.238 92.5871L26.1312 93.1048L27.9972 89.8678C27.6957 89.6971 27.4112 89.5094 27.1154 89.333Z" fill="white"></path><path d="M50.4289 4.74486C25.4773 4.74486 5.17349 25.043 5.17349 49.9946C5.17349 74.9462 25.4716 95.25 50.4289 95.25C75.3862 95.25 95.6786 74.9519 95.6786 49.9946C95.6786 25.0373 75.3806 4.74486 50.4289 4.74486ZM50.4289 96.2854C24.9084 96.2854 4.1438 75.5208 4.1438 50.0003C4.1438 24.4798 24.9027 3.70947 50.4289 3.70947C75.9551 3.70947 96.714 24.4741 96.714 49.9946C96.714 75.5151 75.9495 96.2797 50.4289 96.2797" fill="white"></path><path d="M16.5512 68.7789L17.1428 69.7461C17.4443 70.2353 17.871 70.332 18.292 70.0703C18.7187 69.8086 18.804 69.382 18.5195 68.9212L17.9165 67.937L16.5455 68.7789H16.5512ZM18.1441 66.4692L19.3842 68.5002C19.7142 69.0349 19.7995 69.5299 19.6915 69.9736C19.5834 70.3946 19.316 70.7701 18.8893 71.0318C18.0189 71.5608 17.0746 71.3447 16.4829 70.3832L15.7889 69.2454L14.1163 70.2694L13.5247 69.3023L18.1384 66.4749L18.1441 66.4692Z" fill="white"></path><path d="M18.2067 73.4272L21.0227 71.0776L21.7224 71.9196L18.9064 74.2691C18.474 74.6275 18.3546 75.0883 18.8211 75.6572C19.2705 76.192 19.7939 76.1806 20.2205 75.8165L23.0252 73.4841L23.7249 74.326L20.9089 76.6699C20.0214 77.4151 19.0429 77.3013 18.1611 76.2375C17.2623 75.1623 17.3021 74.1781 18.201 73.4272" fill="white"></path><path d="M23.9751 77.8819L24.8455 78.6556C25.2893 79.0481 25.7159 79.014 26.0004 78.6897C26.2905 78.3597 26.2962 77.9331 25.8582 77.5462L24.965 76.7555L23.9694 77.8762L23.9751 77.8819ZM24.7374 75.373L26.592 77.0171C27.3714 77.7112 27.4909 78.6157 26.8936 79.287C26.4726 79.7592 25.9321 79.9299 25.2893 79.6113L25.2779 79.6284C25.551 80.0664 25.5567 80.4476 25.1698 80.988C24.7204 81.6081 24.3108 82.0234 24.4018 82.2111L24.362 82.251L23.5769 81.5512C23.5143 81.4147 23.9069 80.9539 24.2596 80.4874C24.618 80.0152 24.5838 79.5487 24.0775 79.0993L23.4176 78.519L21.984 80.1404L21.1648 79.4122L24.7431 75.373H24.7374Z" fill="white"></path><path d="M28.9532 78.8828L32.304 81.0503L31.8034 81.8297L29.3685 80.2595L28.7143 81.2835L30.8419 82.6546L30.3527 83.4112L28.225 82.0402L27.4286 83.269L29.8748 84.8505L29.3799 85.6185L26.0063 83.4453L28.9532 78.8828Z" fill="white"></path><path d="M35.2109 86.2552L36.5535 86.7786L36.6672 85.1345C36.6843 84.8329 36.7583 84.2754 36.7583 84.2754H36.7412C36.7412 84.2754 36.4169 84.7305 36.2292 84.9695L35.2052 86.2552H35.2109ZM36.599 83.1035L37.6685 83.5131L37.4921 89.2817L36.4226 88.8664L36.4966 87.6603L34.6704 86.9549L33.9195 87.905L32.8784 87.5011L36.6047 83.1092L36.599 83.1035Z" fill="white"></path><path d="M40.4846 84.52L41.5769 84.759L42.6976 88.104C42.8057 88.4283 42.9081 88.9289 42.9081 88.9289H42.9252C42.9252 88.9289 43.0162 88.3771 43.0958 88.0073L43.6989 85.2254L44.757 85.453L43.6078 90.7608L42.5725 90.5332L41.3948 87.2052C41.2867 86.8923 41.1787 86.3917 41.1787 86.3917H41.1616C41.1616 86.3917 41.0763 86.9549 40.9909 87.319L40.3993 90.061L39.3354 89.8278L40.4846 84.52Z" fill="white"></path><path d="M47.8743 90.2148C48.9097 90.266 49.3421 89.663 49.399 88.5821C49.4559 87.5069 49.0292 86.7275 48.0905 86.682L47.2144 86.6365L47.0267 90.1693L47.8743 90.2148ZM46.1677 85.6353L48.2783 85.749C49.7289 85.8287 50.5993 87.0461 50.514 88.6447C50.4685 89.5208 50.1328 90.2831 49.5355 90.7268C49.1145 91.0397 48.5798 91.2047 47.8971 91.1649L45.8718 91.0568L46.162 85.6353H46.1677Z" fill="white"></path><path d="M53.8477 85.7438L54.9457 85.5788L57.1814 88.3038C57.3976 88.5655 57.6707 88.9978 57.6707 88.9978H57.6878C57.6878 88.9978 57.574 88.446 57.5171 88.0705L57.0961 85.2545L58.1713 85.0952L58.9735 90.4599L57.921 90.6192L55.6511 87.9283C55.4349 87.6723 55.1562 87.2399 55.1562 87.2399H55.1391C55.1391 87.2399 55.2529 87.8031 55.3098 88.1729L55.7251 90.9434L54.6499 91.1027L53.842 85.7381L53.8477 85.7438Z" fill="white"></path><path d="M61.8407 87.6153L63.2117 87.1887L62.2787 85.8404C62.1081 85.5901 61.8236 85.1065 61.8236 85.1065H61.8066C61.8066 85.1065 61.835 85.6754 61.835 85.9712V87.6153H61.8407ZM60.976 84.2873L62.0626 83.9517L65.51 88.5711L64.4121 88.9124L63.718 87.9168L61.8464 88.5028V89.7089L60.7769 90.0445L60.9703 84.2873H60.976Z" fill="white"></path><path d="M64.5088 83.121L68.4 81.2266L68.8039 82.0515L67.3476 82.7626L69.3102 86.779L68.3318 87.2568L66.3691 83.2348L64.9127 83.9516L64.5088 83.121Z" fill="white"></path><path d="M71.4492 83.6555L69.3784 80.6403L70.2773 80.0202L72.3537 83.0354C72.6666 83.4962 73.1217 83.6612 73.7248 83.2402C74.2937 82.8476 74.3278 82.3243 74.0149 81.8691L71.9498 78.8711L72.8487 78.251L74.9251 81.2661C75.5794 82.2162 75.3745 83.1719 74.2368 83.9513C73.0933 84.7477 72.1148 84.6169 71.4492 83.6555Z" fill="white"></path><path d="M76.4102 78.314L77.2579 77.5176C77.6902 77.108 77.6902 76.6813 77.4057 76.3684C77.1042 76.0498 76.6776 76.0043 76.2509 76.4026L75.3919 77.2161L76.4159 78.3027L76.4102 78.314ZM73.981 77.3298L75.7844 75.6346C76.541 74.9234 77.457 74.8836 78.0714 75.5435C78.5037 76.0043 78.6232 76.5562 78.2477 77.1706L78.2648 77.1876C78.7256 76.9487 79.1067 76.9828 79.6074 77.4152C80.1876 77.9158 80.5574 78.3595 80.7508 78.2913L80.785 78.3254L80.0227 79.0422C79.8861 79.0877 79.4595 78.6667 79.0328 78.2742C78.5948 77.876 78.1226 77.8589 77.6333 78.3254L76.9848 78.9284L78.4696 80.5043L77.6675 81.2552L73.9753 77.3298H73.981Z" fill="white"></path><path d="M81.3708 74.5417L82.2582 73.4096L80.7222 72.8293C80.4435 72.7269 79.9314 72.488 79.9314 72.488L79.9201 72.4993C79.9201 72.4993 80.2671 72.9488 80.4378 73.1991L81.3651 74.5473L81.3708 74.5417ZM78.7766 72.3002L79.4763 71.4014L84.9263 73.2446L84.2209 74.1434L83.0888 73.7224L81.8827 75.2585L82.5711 76.254L81.8827 77.1301L78.7823 72.3002H78.7766Z" fill="white"></path><path d="M81.2002 69.0352L81.7577 68.0908L85.6376 70.3379L86.9062 68.1477L87.7026 68.6028L85.8765 71.7431L81.2002 69.0352Z" fill="white"></path><path d="M50.4288 19.5867C33.6635 19.5867 20.0215 33.2287 20.0215 49.994C20.0215 66.7593 33.6635 80.4013 50.4288 80.4013C67.1941 80.4013 80.8361 66.7593 80.8361 49.994C80.8361 33.2287 67.1941 19.5867 50.4288 19.5867ZM50.4288 81.4367C33.0889 81.4367 18.9861 67.3338 18.9861 49.994C18.9861 32.6541 33.0889 18.5513 50.4288 18.5513C67.7687 18.5513 81.8715 32.6541 81.8715 49.994C81.8715 67.3338 67.7687 81.4367 50.4288 81.4367Z" fill="white"></path><path d="M34.42 51.3424L44.7796 52.429C47.2087 52.685 49.1657 54.6306 49.4217 57.0598L50.4855 67.1121L51.3047 56.7924C51.5152 54.2153 53.5291 52.2071 56.0948 52.0023L66.9322 51.1319L55.9868 49.7666C53.6258 49.4707 51.7713 47.6161 51.4697 45.2496L50.0987 34.5316L49.1543 45.6933C48.9268 48.3842 47.2372 50.2501 44.8535 50.4549L34.42 51.3367V51.3424ZM50.5766 74.9344C50.2409 74.9344 49.9565 74.6841 49.9223 74.3427L48.1076 57.2077C47.9085 55.3986 46.4521 53.9422 44.643 53.7488L27.3601 51.934C27.0187 51.8999 26.7627 51.6155 26.7684 51.2741C26.7684 50.9328 27.0301 50.6483 27.3714 50.6199L44.7397 49.1408C46.8162 48.9701 47.698 47.1952 47.8345 45.5909L49.3136 28.2283C49.3421 27.8869 49.6379 27.557 49.9736 27.6252C50.3035 27.6252 50.5879 27.8699 50.6278 28.2055L52.7839 45.1016C53.0114 46.8652 54.3938 48.2533 56.1574 48.4752L73.5086 50.6313C73.8443 50.6711 74.0946 50.9612 74.0889 51.3026C74.0889 51.6382 73.8215 51.917 73.4802 51.9511L56.2029 53.3392C54.2858 53.4871 52.7839 54.989 52.6303 56.9119L51.2422 74.337C51.2137 74.6784 50.9293 74.9401 50.5936 74.9458H50.5823L50.5766 74.9344Z" fill="white"></path></svg>