<svg xmlns="http://www.w3.org/2000/svg" width="101" height="100" viewBox="0 0 101 100" fill="none"><path d="M50.7144 19.5867C33.9492 19.5867 20.3071 33.2287 20.3071 49.994C20.3071 66.7593 33.9492 80.4013 50.7144 80.4013C67.4797 80.4013 81.1218 66.7593 81.1218 49.994C81.1218 33.2287 67.4797 19.5867 50.7144 19.5867ZM50.7144 81.4367C33.3803 81.4367 19.2717 67.3338 19.2717 49.994C19.2717 32.6541 33.3746 18.5513 50.7144 18.5513C68.0543 18.5513 82.1572 32.6541 82.1572 49.994C82.1572 67.3338 68.0543 81.4367 50.7144 81.4367Z" fill="white"></path><path d="M50.7144 1.03539C23.7147 1.03539 1.74974 23.0003 1.74974 50C1.74974 76.9997 23.7147 98.9646 50.7144 98.9646C77.714 98.9646 99.679 76.9997 99.679 50C99.679 23.0003 77.714 1.03539 50.7144 1.03539ZM50.7144 99.9943C23.1458 99.9943 0.714355 77.5629 0.714355 49.9943C0.714355 22.4258 23.1458 0 50.7144 0C78.2829 0 100.714 22.4258 100.714 50C100.714 77.5742 78.2829 100 50.7144 100" fill="white"></path><path d="M50.7201 4.22676C50.8964 4.22676 51.0614 4.24952 51.2378 4.2552V0.517578H50.2024V4.2552C50.3787 4.2552 50.5437 4.22676 50.7201 4.22676Z" fill="white"></path><path d="M28.2943 10.1208L26.4283 6.88379L25.5352 7.40148L27.4125 10.6555C27.7083 10.4792 27.9928 10.2858 28.2943 10.1208Z" fill="white"></path><path d="M4.9468 50.0001C4.9468 49.8238 4.96956 49.6588 4.96956 49.4824H1.23193V50.5178H4.96956C4.96956 50.3415 4.9468 50.1765 4.9468 50.0001Z" fill="white"></path><path d="M96.459 49.4824C96.459 49.6588 96.4817 49.8238 96.4817 50.0001C96.4817 50.1765 96.459 50.3415 96.459 50.5178H100.197V49.4824H96.459Z" fill="white"></path><path d="M74.0278 10.6609L75.9051 7.40685L75.012 6.88916L73.146 10.1262C73.4475 10.2968 73.732 10.4846 74.0278 10.6609Z" fill="white"></path><path d="M90.5938 27.5746L93.8308 25.7086L93.3132 24.8154L90.0591 26.6928C90.2354 26.9886 90.4289 27.273 90.5938 27.5746Z" fill="white"></path><path d="M11.3811 26.6869L8.12707 24.8096L7.60938 25.7027L10.8464 27.5687C11.017 27.2672 11.2048 26.9827 11.3811 26.6869Z" fill="white"></path><path d="M10.8405 72.4199L7.60352 74.2859L8.12121 75.179L11.3753 73.3017C11.1989 73.0059 11.0055 72.7214 10.8405 72.4199Z" fill="white"></path><path d="M90.0591 73.3076L93.3132 75.1849L93.8308 74.2917L90.5938 72.4258C90.4232 72.7273 90.2354 73.0117 90.0591 73.3076Z" fill="white"></path><path d="M73.146 89.8736L75.012 93.1106L75.9051 92.5929L74.0278 89.3389C73.732 89.5152 73.4475 89.7086 73.146 89.8736Z" fill="white"></path><path d="M27.4069 89.333L25.5295 92.5871L26.4227 93.1048L28.2887 89.8678C27.9872 89.6971 27.7027 89.5094 27.4069 89.333Z" fill="white"></path><path d="M50.7201 95.7669C50.5437 95.7669 50.3787 95.7441 50.2024 95.7441V99.4818H51.2378V95.7441C51.0614 95.7441 50.8964 95.7669 50.7201 95.7669Z" fill="white"></path><path d="M50.7202 4.74486C25.7685 4.74486 5.46475 25.043 5.46475 49.9946C5.46475 74.9462 25.7629 95.25 50.7202 95.25C75.6775 95.25 95.9699 74.9519 95.9699 49.9946C95.9699 25.0373 75.6718 4.74486 50.7202 4.74486ZM50.7202 96.2854C25.1996 96.2854 4.43506 75.5208 4.43506 50.0003C4.43506 24.4798 25.194 3.70947 50.7202 3.70947C76.2464 3.70947 97.0053 24.4741 97.0053 49.9946C97.0053 75.5151 76.2407 96.2797 50.7202 96.2797" fill="white"></path><path d="M23.0605 76.9203L23.8797 77.7053C24.295 78.1036 24.7387 78.0808 25.0801 77.7281C25.4328 77.364 25.3986 76.9316 25.0061 76.5562L24.1698 75.754L23.0605 76.9203ZM24.0106 74.2749L25.7286 75.9247C26.1837 76.3571 26.3999 76.8179 26.4056 77.273C26.4056 77.7053 26.2463 78.1377 25.8993 78.5018C25.1938 79.247 24.2267 79.2755 23.4075 78.4904L22.4404 77.5688L21.0808 78.991L20.2559 78.206L24.0106 74.2806V74.2749Z" fill="white"></path><path d="M27.0942 81.5168L28.2661 82.3417L28.7667 80.783C28.8578 80.4928 29.0683 79.9751 29.0683 79.9751H29.0569C29.0569 79.9751 28.6302 80.3392 28.3913 80.5213L27.0942 81.5168ZM29.1934 78.8032L30.1264 79.4574L28.579 84.9985L27.6403 84.3385L28.0044 83.1894L26.4001 82.063L25.4444 82.8082L24.5342 82.1654L29.1934 78.8032Z" fill="white"></path><path d="M32.4815 83.7067L33.5225 84.2301C34.0573 84.4918 34.4612 84.3496 34.6603 83.9627C34.8594 83.5702 34.7457 83.1549 34.228 82.8932L33.1585 82.3585L32.4815 83.7124V83.7067ZM32.5668 81.0728L34.7912 82.1821C35.7242 82.6486 36.0769 83.5019 35.673 84.3098C35.3885 84.8786 34.9106 85.1802 34.1995 85.0379L34.1881 85.0607C34.5693 85.4134 34.6717 85.7889 34.4385 86.409C34.1654 87.1258 33.8753 87.6321 34.0118 87.7914L33.9833 87.8369L33.0447 87.3704C32.9536 87.2566 33.204 86.7048 33.4258 86.1644C33.6477 85.6182 33.4998 85.1688 32.8911 84.8616L32.1003 84.469L31.1275 86.409L30.1433 85.9197L32.5668 81.0784V81.0728Z" fill="white"></path><path d="M37.7777 87.1488L39.1374 87.5926L39.1658 85.9599C39.1658 85.6583 39.2113 85.1008 39.2113 85.1008H39.1943C39.1943 85.1008 38.8984 85.573 38.7278 85.8119L37.7834 87.1431L37.7777 87.1488ZM38.9838 83.9517L40.0647 84.3044L40.2012 90.0274L39.1146 89.6747L39.1317 88.4744L37.2771 87.8713L36.583 88.8498L35.5249 88.5028L38.9838 83.9517Z" fill="white"></path><path d="M44.8205 87.5697C45.2927 87.6493 45.651 87.473 45.7193 87.052C45.7819 86.6537 45.5259 86.375 45.048 86.2953L43.8476 86.1019L43.6429 87.3762L44.8205 87.5697ZM43.2731 89.6803L44.5246 89.8851C45.0537 89.9704 45.4121 89.7258 45.4861 89.2934C45.5657 88.7814 45.2301 88.4628 44.7351 88.3775L43.5177 88.1784L43.2731 89.6746V89.6803ZM42.909 85.0438L45.304 85.4306C45.8843 85.5216 46.3053 85.7321 46.5442 86.028C46.7945 86.3352 46.8742 86.6822 46.8059 87.1032C46.7206 87.6493 46.328 87.9508 45.7933 88.0418V88.0646C46.3565 88.332 46.6807 88.8952 46.5727 89.5494C46.493 90.0557 46.2768 90.3743 45.9184 90.5905C45.5657 90.8124 45.0708 90.8977 44.5019 90.801L42.0386 90.4028L42.909 85.0381V85.0438Z" fill="white"></path><path d="M48.6834 85.7153L52.6657 85.9258L52.6202 86.8531L49.7302 86.6995L49.6676 87.9169L52.1992 88.0478L52.148 88.9523L49.6164 88.8158L49.5368 90.2779L52.4495 90.4371L52.404 91.3531L48.3933 91.1369L48.6834 85.7153Z" fill="white"></path><path d="M53.667 85.7949L54.765 85.6413L56.9723 88.3834C57.1884 88.6508 57.4501 89.0831 57.4501 89.0831H57.4672C57.4672 89.0831 57.3591 88.5256 57.3079 88.1558L56.9154 85.3398L57.9906 85.1919L58.7415 90.5566L57.6891 90.6988L55.4476 87.9908C55.2371 87.7292 54.9584 87.2968 54.9584 87.2968H54.947C54.947 87.2968 55.0551 87.86 55.1063 88.2355L55.4931 91.006L54.4179 91.1539L53.667 85.7892V85.7949Z" fill="white"></path><path d="M61.3127 84.3441L64.9423 83.0186L65.2666 83.9003L62.6553 84.8447L63.0991 86.0678L65.3121 85.26L65.6306 86.1418L63.4233 86.9439L64.1856 89.0488L63.156 89.4243L61.3127 84.3441Z" fill="white"></path><path d="M68.2246 84.0991L69.26 83.553C69.7891 83.2742 69.9029 82.8589 69.6981 82.4778C69.4989 82.0909 69.095 81.9317 68.5773 82.2047L67.5192 82.7679L68.2246 84.0991ZM66.1311 82.5005L68.327 81.3343C69.2486 80.8508 70.1475 81.0556 70.5742 81.852C70.8757 82.4152 70.8359 82.9841 70.3125 83.479L70.3238 83.5018C70.8358 83.3937 71.1942 83.5246 71.5697 84.0821C71.9907 84.7249 72.241 85.2483 72.4458 85.2312L72.4743 85.2767L71.5413 85.7717C71.3991 85.7831 71.0975 85.254 70.7846 84.7591C70.4718 84.2584 70.0223 84.1162 69.4136 84.4405L68.6286 84.8558L69.6469 86.7786L68.6741 87.2963L66.1368 82.5119L66.1311 82.5005Z" fill="white"></path><path d="M70.9214 79.816L74.1072 77.438L74.659 78.1776L72.355 79.8956L73.0775 80.8684L75.0971 79.3552L75.6318 80.0777L73.6122 81.5852L74.4826 82.7515L76.8037 81.0163L77.3499 81.7502L74.1527 84.1395L70.9214 79.816Z" fill="white"></path><path d="M75.1028 76.5561L77.9472 73.7515L78.5958 74.4114L76.5364 76.4423L77.3897 77.307L79.1931 75.5264L79.8246 76.1749L78.0212 77.9499L79.0509 78.9967L81.1274 76.9486L81.7645 77.6029L78.9087 80.4189L75.1028 76.5561Z" fill="white"></path><path d="M50.7144 19.5867C33.9492 19.5867 20.3071 33.2287 20.3071 49.994C20.3071 66.7593 33.9492 80.4013 50.7144 80.4013C67.4797 80.4013 81.1218 66.7593 81.1218 49.994C81.1218 33.2287 67.4797 19.5867 50.7144 19.5867ZM50.7144 81.4367C33.3803 81.4367 19.2717 67.3338 19.2717 49.994C19.2717 32.6541 33.3746 18.5513 50.7144 18.5513C68.0543 18.5513 82.1572 32.6541 82.1572 49.994C82.1572 67.3338 68.0543 81.4367 50.7144 81.4367Z" fill="white"></path><path d="M35.559 38.3774H34.2392V39.6631H33.2607V38.3774H31.9465V37.4501H33.2607V36.1587H34.2392V37.4501H35.559V38.3774Z" fill="white"></path><path d="M68.4525 38.3774H67.1327V39.6631H66.1542V38.3774H64.8457V37.4501H66.1542V36.1587H67.1327V37.4501H68.4525V38.3774Z" fill="white"></path><path d="M44.633 28.9283H43.3131V30.2197H42.3346V28.9283H41.0205V28.0067H42.3346V26.7153H43.3131V28.0067H44.633V28.9283Z" fill="white"></path><path d="M59.5495 28.9283H58.2297V30.2197H57.2455V28.9283H55.937V28.0067H57.2455V26.7153H58.2297V28.0067H59.5495V28.9283Z" fill="white"></path><path d="M50.7826 34.0713H49.679V73.7629H50.7826V34.0713Z" fill="white"></path><path d="M43.5107 43.0376L42.7224 43.8101L49.8418 51.0751L50.63 50.3026L43.5107 43.0376Z" fill="white"></path><path d="M38.7641 50.29L37.9758 51.0625L49.8295 63.1586L50.6178 62.3862L38.7641 50.29Z" fill="white"></path><path d="M56.9464 43.0267L49.8308 50.2954L50.6195 51.0675L57.735 43.7987L56.9464 43.0267Z" fill="white"></path><path d="M61.1852 50.797L49.8313 62.3872L50.6197 63.1595L61.9736 51.5693L61.1852 50.797Z" fill="white"></path><path d="M50.2308 34.8444C44.4338 40.6756 36.6627 52.628 36.6911 59.6652C36.6911 67.1348 42.7669 73.2106 50.2308 73.2106C57.6946 73.2106 63.7704 67.1348 63.7704 59.6709C63.7989 52.6337 56.0278 40.6756 50.2308 34.8501M50.2308 74.3142C42.1582 74.3142 35.5875 67.7435 35.5875 59.6709C35.559 52.19 43.8762 39.4866 49.8496 33.6782L50.2365 33.3027L50.6233 33.6782C56.5967 39.4923 64.9082 52.19 64.8798 59.6766C64.8798 67.7492 58.3091 74.3199 50.2365 74.3199" fill="white"></path></svg>