<svg xmlns="http://www.w3.org/2000/svg" width="100" height="100" viewBox="0 0 100 100" fill="none"><path d="M50.0001 19.5867C33.2348 19.5867 19.5928 33.2287 19.5928 49.994C19.5928 66.7593 33.2348 80.4013 50.0001 80.4013C66.7654 80.4013 80.4074 66.7593 80.4074 49.994C80.4074 33.2287 66.7654 19.5867 50.0001 19.5867ZM50.0001 81.4367C32.6602 81.4367 18.5574 67.3338 18.5574 49.994C18.5574 32.6541 32.6602 18.5513 50.0001 18.5513C67.3399 18.5513 81.4428 32.6541 81.4428 49.994C81.4428 67.3338 67.3343 81.4367 50.0001 81.4367Z" fill="white"></path><path d="M50 1.03539C23.0003 1.03539 1.03539 23.0003 1.03539 50C1.03539 76.9997 23.0003 98.9646 50 98.9646C76.9997 98.9646 98.9646 76.9997 98.9646 50C98.9646 23.0003 76.9997 1.03539 50 1.03539ZM50 99.9943C22.4314 99.9943 0 77.5686 0 50C0 22.4314 22.4314 0 50 0C77.5686 0 100 22.4258 100 50C100 77.5742 77.5686 100 50 100" fill="white"></path><path d="M50.0002 4.74486C25.0486 4.74486 4.74478 25.043 4.74478 50.0003C4.74478 74.9576 25.0429 95.2557 49.9945 95.2557C74.9462 95.2557 95.2443 74.9576 95.2443 50.0003C95.2443 25.043 74.9519 4.74486 50.0002 4.74486ZM50.0002 96.2854C24.4797 96.2854 3.71509 75.5208 3.71509 50.0003C3.71509 24.4798 24.4797 3.70947 50.0002 3.70947C75.5208 3.70947 96.2853 24.4741 96.2853 49.9946C96.2853 75.5151 75.5208 96.2797 50.0002 96.2797" fill="white"></path><path d="M49.9999 4.22676C50.1762 4.22676 50.3412 4.24952 50.5176 4.2552V0.517578H49.4822V4.2552C49.6585 4.2552 49.8235 4.22676 49.9999 4.22676Z" fill="white"></path><path d="M10.6609 26.6869L7.40685 24.8096L6.88916 25.7027L10.1262 27.5687C10.2968 27.2672 10.4846 26.9827 10.6609 26.6869Z" fill="white"></path><path d="M27.5743 10.1208L25.7083 6.88379L24.8152 7.40148L26.6925 10.6555C26.9884 10.4792 27.2728 10.2858 27.5743 10.1208Z" fill="white"></path><path d="M89.8736 27.5746L93.1106 25.7086L92.5929 24.8154L89.3389 26.6928C89.5152 26.9886 89.7086 27.273 89.8736 27.5746Z" fill="white"></path><path d="M73.3076 10.6609L75.1849 7.40685L74.2917 6.88916L72.4258 10.1262C72.7273 10.2968 73.0117 10.4846 73.3076 10.6609Z" fill="white"></path><path d="M4.22676 50.0001C4.22676 49.8238 4.24952 49.6588 4.2552 49.4824H0.517578V50.5178H4.2552C4.2552 50.3415 4.22676 50.1765 4.22676 50.0001Z" fill="white"></path><path d="M72.4258 89.8736L74.2917 93.1106L75.1849 92.5929L73.3076 89.3389C73.0117 89.5152 72.7273 89.7086 72.4258 89.8736Z" fill="white"></path><path d="M89.3389 73.3076L92.5929 75.1849L93.1106 74.2917L89.8736 72.4258C89.703 72.7273 89.5152 73.0117 89.3389 73.3076Z" fill="white"></path><path d="M95.7446 49.4824C95.7446 49.6588 95.7674 49.8238 95.7674 50.0001C95.7674 50.1765 95.7446 50.3415 95.7446 50.5178H99.4823V49.4824H95.7446Z" fill="white"></path><path d="M49.9999 95.7669C49.8235 95.7669 49.6585 95.7441 49.4822 95.7441V99.4818H50.5176V95.7441C50.3412 95.7441 50.1762 95.7669 49.9999 95.7669Z" fill="white"></path><path d="M10.1262 72.4199L6.88916 74.2859L7.40685 75.179L10.6609 73.3017C10.4846 73.0059 10.2911 72.7214 10.1262 72.4199Z" fill="white"></path><path d="M26.6925 89.333L24.8152 92.5871L25.7083 93.1048L27.5743 89.8678C27.2728 89.6971 26.9884 89.5094 26.6925 89.333Z" fill="white"></path><path d="M17.26 65.6732L17.8175 66.6346L16.1165 69.7009C15.9515 70.0024 15.65 70.4064 15.65 70.4064L15.6614 70.4177C15.6614 70.4177 16.1279 70.1105 16.4578 69.9228L18.9041 68.5063L19.4445 69.4392L14.7739 72.1472L14.2448 71.2256L15.8946 68.1365C16.0596 67.8406 16.3497 67.4254 16.3497 67.4254V67.414C16.3497 67.414 15.8719 67.7269 15.5419 67.9146L13.1298 69.3141L12.5894 68.3811L17.26 65.6675V65.6732Z" fill="white"></path><path d="M20.6222 75.31C21.4642 74.6159 21.8055 73.7057 21.174 72.932C20.5369 72.164 19.5584 72.3005 18.7164 72.9946C17.8801 73.6886 17.5559 74.6159 18.1873 75.3839C18.8245 76.1576 19.7859 75.9983 20.6279 75.31M18.011 72.1242C19.2682 71.0888 20.8555 71.1058 21.8738 72.346C22.8978 73.5919 22.6076 75.145 21.3447 76.1804C20.0818 77.2157 18.5173 77.1987 17.4933 75.9528C16.4693 74.7069 16.748 73.1539 18.0167 72.1242" fill="white"></path><path d="M24.6615 80.1853L25.7936 81.0728L26.3795 79.5424C26.4819 79.2637 26.7209 78.7517 26.7209 78.7517L26.7095 78.7403C26.7095 78.7403 26.2601 79.0873 26.0097 79.258L24.6615 80.1853ZM26.9029 77.5854L27.8017 78.2852L25.9585 83.7352L25.0597 83.0298L25.4864 81.8977L23.9447 80.6916L22.9491 81.38L22.073 80.6916L26.9086 77.5854H26.9029Z" fill="white"></path><path d="M30.1057 80.0093L31.0785 80.5554L31.1695 84.0769C31.1695 84.4239 31.1297 84.9245 31.1297 84.9245L31.1468 84.9359C31.1468 84.9359 31.3914 84.4296 31.5791 84.0996L32.9672 81.6192L33.9116 82.1483L31.2606 86.8815L30.339 86.3581L30.191 82.8367C30.1797 82.501 30.2195 81.9947 30.2195 81.9947L30.2081 81.9833C30.2081 81.9833 29.9578 82.4953 29.7701 82.831L28.399 85.2659L27.449 84.7425L30.1 80.0093H30.1057Z" fill="white"></path><path d="M35.3682 82.7852L36.3865 83.2004L34.3101 88.2181L33.2917 87.8028L35.3682 82.7852Z" fill="white"></path><path d="M37.6378 83.7754L39.1397 84.1907L39.1567 87.0238C39.1567 87.7349 39.0998 88.5313 39.0998 88.5313H39.1112C39.1112 88.5313 39.4639 87.8202 39.8223 87.2115L41.2901 84.7823L42.8147 85.2033L41.3697 90.4485L40.3799 90.1811L41.2047 87.1717C41.3242 86.745 41.5518 86.0965 41.5518 86.0965H41.5347C41.5347 86.0965 41.2446 86.6767 41.0341 87.0238L39.2762 89.8739L38.2522 89.5952L38.2237 86.2558C38.2237 85.8405 38.2693 85.1919 38.2693 85.1919H38.2522C38.2522 85.1919 38.1157 85.8632 37.9962 86.2842L37.1713 89.2937L36.1985 89.0263L37.6378 83.7811V83.7754Z" fill="white"></path><path d="M45.1758 88.9695L46.6094 89.106L46.2737 87.4961C46.2112 87.2003 46.1372 86.6427 46.1372 86.6427H46.1202C46.1202 86.6427 45.9267 87.1718 45.8129 87.4563L45.1758 88.9695ZM45.665 85.5562L46.8028 85.6642L48.1966 91.2735L47.0474 91.1654L46.7971 89.9765L44.8401 89.7887L44.368 90.9094L43.2529 90.8013L45.665 85.5618V85.5562Z" fill="white"></path><path d="M49.8237 85.88L50.9274 85.8345L51.1151 90.3401L53.6694 90.232L53.7036 91.1479L50.057 91.3072L49.8237 85.88Z" fill="white"></path><path d="M56.3318 85.3733L60.5473 84.355L60.7635 85.2481L59.1933 85.635L60.2401 89.987L59.1763 90.243L58.1238 85.891L56.548 86.2721L56.3318 85.3733Z" fill="white"></path><path d="M61.6736 84.0086L65.3657 82.5181L65.707 83.3771L63.0389 84.458L63.4883 85.5787L65.8322 84.6343L66.1678 85.4706L63.824 86.415L64.3701 87.7633L67.0667 86.6824L67.408 87.5357L63.6932 89.0262L61.6736 84.0086Z" fill="white"></path><path d="M68.2954 85.2656L69.2227 84.7308C69.6096 85.2599 70.059 85.294 70.7246 84.9072C71.2081 84.6227 71.5324 84.2074 71.2878 83.7751C71.0204 83.3199 70.5255 83.4849 69.7176 83.7352C68.7676 84.0368 67.8744 84.2529 67.3112 83.2801C66.7765 82.3585 67.2487 81.4483 68.2954 80.8453C69.3422 80.2365 70.3264 80.356 70.9408 81.2549L70.0305 81.7839C69.7063 81.3459 69.2 81.3231 68.7164 81.6019C68.2044 81.8977 67.9996 82.3073 68.1873 82.6373C68.4092 83.0184 68.8017 82.9388 69.5811 82.6885C70.662 82.3358 71.5779 82.1082 72.1639 83.1151C72.71 84.0652 72.2549 85.038 71.2025 85.6467C69.9338 86.3863 68.8871 86.2384 68.284 85.2712" fill="white"></path><path d="M70.9751 79.2295L74.4055 76.4932L74.9858 77.2213L73.7001 78.2453L76.5218 81.7896L75.6571 82.4722L72.8354 78.9394L71.5497 79.9577L70.9751 79.2295Z" fill="white"></path><path d="M75.2703 75.6682L76.0553 74.8945L79.8612 78.763L79.0818 79.531L75.2703 75.6682Z" fill="white"></path><path d="M77.0909 73.8706L77.7906 73.0059L81.2723 73.5065C81.6136 73.5577 82.0972 73.6885 82.0972 73.6885L82.1085 73.6772C82.1085 73.6772 81.6534 73.3472 81.3576 73.1083L79.1503 71.3219L79.833 70.48L84.0485 73.882L83.3829 74.7069L79.8898 74.2631C79.5599 74.2176 79.065 74.0925 79.065 74.0925L79.0536 74.1038C79.0536 74.1038 79.5201 74.4395 79.8102 74.6784L81.9834 76.4363L81.3007 77.2782L77.0852 73.8763L77.0909 73.8706Z" fill="white"></path><path d="M86.6196 68.2218L86.6083 68.2332C86.9723 68.8647 86.9155 69.4165 86.5969 69.974C86.193 70.6908 85.6241 71.1004 84.9755 71.2484C84.3213 71.3906 83.5874 71.2768 82.8763 70.8786C82.0856 70.4405 81.5565 69.7749 81.3801 69.0183C81.2436 68.438 81.3346 67.8293 81.6873 67.1978C82.3529 66.0032 83.3883 65.6903 84.4009 66.0601L83.8776 66.993C83.3599 66.8451 82.8365 67.0101 82.4952 67.6188C81.9945 68.512 82.4838 69.3767 83.4225 69.9001C84.3896 70.4405 85.3794 70.3268 85.8402 69.5132C86.2555 68.7794 85.9768 67.9886 85.4534 67.6928L85.425 67.6757L84.7878 68.8192L84.0425 68.4039L85.1633 66.4128L87.6721 67.8236L87.2682 68.5461L86.6196 68.2275V68.2218Z" fill="white"></path><path d="M50.0001 19.5867C33.2348 19.5867 19.5928 33.2287 19.5928 49.994C19.5928 66.7593 33.2348 80.4013 50.0001 80.4013C66.7654 80.4013 80.4074 66.7593 80.4074 49.994C80.4074 33.2287 66.7654 19.5867 50.0001 19.5867ZM50.0001 81.4367C32.6602 81.4367 18.5574 67.3338 18.5574 49.994C18.5574 32.6541 32.6602 18.5513 50.0001 18.5513C67.3399 18.5513 81.4428 32.6541 81.4428 49.994C81.4428 67.3338 67.3343 81.4367 50.0001 81.4367Z" fill="white"></path><path d="M56.1213 50.2047C55.6548 48.2705 56.0189 44.0607 57.9304 38.6107C59.364 34.5261 61.924 31.3687 63.8184 29.4458C63.9948 29.2638 64.1996 29.1671 64.3987 29.1671C64.4612 29.1671 64.5238 29.1785 64.5864 29.1955C64.831 29.2809 64.996 29.5312 65.0301 29.8668C65.3089 32.552 65.343 36.6139 63.9094 40.7042C61.9752 46.2282 59.5915 49.7553 58.0214 50.9272C58.3684 51.0808 58.7154 51.2401 59.0511 51.4165C61.1446 49.5505 63.386 45.3293 64.8822 41.0456C66.3784 36.7789 66.3443 32.552 66.0541 29.7587C65.9745 29.0192 65.5535 28.4389 64.9221 28.217C64.2849 27.9952 63.6022 28.1829 63.0788 28.712C61.1105 30.7145 58.448 33.997 56.9519 38.258C55.4614 42.5133 54.608 47.1384 55.0574 49.9032C55.4102 49.9942 55.7686 50.0796 56.1156 50.1934" fill="white"></path><path d="M40.926 51.5871C41.2673 51.4051 41.6257 51.2515 41.9841 51.0865C40.4196 50.1479 37.8938 46.5638 35.8401 40.7042C34.4064 36.6196 34.4406 32.5577 34.7193 29.8668C34.7535 29.5312 34.9185 29.2809 35.1631 29.1955C35.4077 29.1102 35.6921 29.2012 35.9311 29.4401C37.8255 31.363 40.3912 34.5204 41.8191 38.605C42.9455 41.8136 43.6396 44.9482 43.7875 47.4285C43.8671 48.8053 43.7647 49.7439 43.5713 50.3754C43.924 50.2502 44.3052 50.182 44.6693 50.0796C44.8115 49.3286 44.8855 48.4639 44.8172 47.3716C44.6636 44.7946 43.9468 41.5633 42.7919 38.2637C41.2957 33.997 38.6333 30.7145 36.665 28.712C36.1416 28.1829 35.4532 27.9952 34.8217 28.217C34.1903 28.4389 33.7693 29.0135 33.6896 29.7587C33.3995 32.552 33.3654 36.7789 34.8616 41.0456C36.4203 45.4829 38.7699 49.835 40.926 51.5815" fill="white"></path><path d="M50.1709 49.7436C41.0174 49.7436 33.1212 56.2574 31.3918 65.2288C31.2439 66.0082 31.443 66.8047 31.9436 67.4134C32.4328 68.005 33.161 68.3464 33.929 68.3464H66.4014C67.1751 68.3464 67.8976 68.005 68.3869 67.4134C68.8875 66.8047 69.0923 66.0082 68.9387 65.2288C67.215 56.2574 59.313 49.7436 50.1595 49.7436M66.3957 69.3817H33.9347C32.8538 69.3817 31.8412 68.9039 31.1528 68.0733C30.4531 67.2256 30.1743 66.122 30.3791 65.0411C32.1996 55.5804 40.5225 48.7139 50.1709 48.7139C59.8193 48.7139 68.1423 55.5804 69.9627 65.0411C70.1732 66.122 69.8887 67.2313 69.189 68.0733C68.5006 68.9039 67.488 69.3817 66.4071 69.3817" fill="white"></path><path d="M47.6448 56.7414C47.2409 56.7414 46.8598 56.9007 46.5753 57.1851C46.2909 57.4696 46.1316 57.8507 46.1316 58.2547C46.1316 58.6586 46.2909 59.0397 46.5753 59.3242L50.5177 63.2666L54.4602 59.3242C54.7446 59.0397 54.9039 58.6586 54.9039 58.2547C54.9039 57.8507 54.7446 57.4696 54.4602 57.1851C53.8856 56.6105 52.89 56.6105 52.3211 57.1851L50.5177 58.9885L48.7144 57.1851C48.4299 56.9007 48.0487 56.7414 47.6448 56.7414ZM50.5177 64.7343L45.8414 60.058C45.3579 59.5745 45.0962 58.9373 45.0962 58.2547C45.0962 57.572 45.3636 56.9348 45.8414 56.4513C46.8029 55.4898 48.4811 55.4898 49.4425 56.4513L50.5121 57.5208L51.5816 56.4513C52.5771 55.4557 54.1928 55.4557 55.1827 56.4513C56.1782 57.4468 56.1782 59.0625 55.1827 60.0524L50.5064 64.7287L50.5177 64.7343Z" fill="white"></path></svg>