<svg xmlns="http://www.w3.org/2000/svg" width="101" height="100" viewBox="0 0 101 100" fill="none"><path d="M50.5716 19.5925C33.8063 19.5925 20.1643 33.2346 20.1643 49.9998C20.1643 66.7651 33.8063 80.4072 50.5716 80.4072C67.3369 80.4072 80.9789 66.7651 80.9789 49.9998C80.9789 33.2346 67.3369 19.5925 50.5716 19.5925ZM50.5716 81.4425C33.2374 81.4425 19.1289 67.3397 19.1289 49.9998C19.1289 32.66 33.2318 18.5571 50.5716 18.5571C67.9115 18.5571 82.0143 32.66 82.0143 49.9998C82.0143 67.3397 67.9115 81.4425 50.5716 81.4425Z" fill="white"></path><path d="M50.5715 1.03539C23.5719 1.03539 1.60692 23.0003 1.60692 50C1.60692 76.9996 23.5719 98.9646 50.5715 98.9646C77.5712 98.9646 99.5361 76.9996 99.5361 50C99.5361 23.0003 77.5712 1.03539 50.5715 1.03539ZM50.5715 100C23.003 100 0.571533 77.5685 0.571533 50C0.571533 22.4314 23.003 0 50.5715 0C78.1401 0 100.572 22.4258 100.572 50C100.572 77.5742 78.1401 100 50.5715 100Z" fill="white"></path><path d="M50.5773 4.23262C50.7536 4.23262 50.9186 4.25538 51.095 4.26107V0.523438H50.0596V4.26107C50.2359 4.26107 50.4009 4.23262 50.5773 4.23262Z" fill="white"></path><path d="M28.1515 10.1262L26.2855 6.88916L25.3923 7.40685L27.2697 10.6609C27.5655 10.4846 27.8499 10.2911 28.1515 10.1262Z" fill="white"></path><path d="M11.2383 26.6928L7.98425 24.8154L7.46655 25.7086L10.7036 27.5746C10.8742 27.2731 11.0619 26.9886 11.2383 26.6928Z" fill="white"></path><path d="M90.451 27.5746L93.688 25.7086L93.1703 24.8154L89.9163 26.6928C90.0926 26.9886 90.286 27.2731 90.451 27.5746Z" fill="white"></path><path d="M73.885 10.6609L75.7623 7.40685L74.8692 6.88916L73.0032 10.1262C73.3047 10.2968 73.5891 10.4846 73.885 10.6609Z" fill="white"></path><path d="M4.80398 50.0001C4.80398 49.8238 4.82674 49.6588 4.82674 49.4824H1.08911V50.5178H4.82674C4.82674 50.3415 4.80398 50.1765 4.80398 50.0001Z" fill="white"></path><path d="M89.9163 73.3076L93.1703 75.1849L93.688 74.2917L90.451 72.4258C90.2804 72.7273 90.0926 73.0117 89.9163 73.3076Z" fill="white"></path><path d="M96.3162 49.4824C96.3162 49.6588 96.3389 49.8238 96.3389 50.0001C96.3389 50.1765 96.3162 50.3415 96.3162 50.5178H100.054V49.4824H96.3162Z" fill="white"></path><path d="M73.0032 89.8736L74.8692 93.1106L75.7623 92.5929L73.885 89.3389C73.5891 89.5152 73.3047 89.7086 73.0032 89.8736Z" fill="white"></path><path d="M10.6977 72.4258L7.46069 74.2917L7.97839 75.1849L11.2325 73.3076C11.0561 73.0117 10.8627 72.7273 10.6977 72.4258Z" fill="white"></path><path d="M50.5773 95.7672C50.4009 95.7672 50.2359 95.7445 50.0596 95.7388V99.4764H51.095V95.7388C50.9186 95.7388 50.7536 95.7672 50.5773 95.7672Z" fill="white"></path><path d="M27.2641 89.3389L25.3867 92.5929L26.2799 93.1106L28.1459 89.8736C27.8443 89.703 27.5599 89.5152 27.2641 89.3389Z" fill="white"></path><path d="M50.5774 4.74454C25.6257 4.74454 5.32193 25.0426 5.32193 50C5.32193 74.9573 25.62 95.2497 50.5774 95.2497C75.5347 95.2497 95.8271 74.9516 95.8271 50C95.8271 25.0483 75.529 4.74454 50.5774 4.74454ZM50.5774 96.2851C25.0568 96.2851 4.29224 75.5205 4.29224 50C4.29224 24.4794 25.0568 3.71484 50.5774 3.71484C76.0979 3.71484 96.8625 24.4794 96.8625 50C96.8625 75.5205 76.0979 96.2851 50.5774 96.2851Z" fill="white"></path><path d="M21.6716 77.4321L22.4623 78.166C22.0755 78.695 22.1665 79.1388 22.7354 79.6621C23.1507 80.0433 23.6456 80.2367 23.987 79.8669C24.3511 79.4744 24.0439 79.0477 23.566 78.3423C23.0085 77.5231 22.5249 76.7266 23.2986 75.9018C24.0268 75.1167 25.0451 75.3044 25.9326 76.1236C26.8257 76.9542 26.9964 77.9327 26.3137 78.7917L25.54 78.0749C25.87 77.6312 25.7392 77.1419 25.3352 76.7608C24.9029 76.3569 24.4478 76.2829 24.1804 76.5617C23.8789 76.8802 24.0723 77.2386 24.5445 77.9099C25.193 78.8486 25.688 79.6678 24.8915 80.5212C24.1406 81.329 23.0767 81.1697 22.1779 80.3391C21.097 79.3379 20.9263 78.2968 21.6829 77.4264" fill="white"></path><path d="M26.3595 81.4541L28.4359 78.4048L29.3519 79.0249L27.2754 82.0742C26.9625 82.5463 26.9682 83.0299 27.5826 83.4395C28.1629 83.832 28.6635 83.6784 28.9764 83.2119L31.0415 80.1684L31.9574 80.7884L29.8809 83.8377C29.2324 84.8048 28.2539 84.9584 27.1047 84.1791C25.9442 83.3883 25.7053 82.4212 26.3652 81.4484" fill="white"></path><path d="M33.2318 81.4824L34.233 81.9603L32.2646 86.0279L34.5687 87.1429L34.1704 87.9678L30.8708 86.3806L33.2318 81.4824Z" fill="white"></path><path d="M37.5383 83.5249L41.219 84.7253L40.9346 85.6071L38.2949 84.7423L37.891 85.9825L40.1267 86.705L39.8366 87.5982L37.6009 86.87L36.9125 88.9976L35.8657 88.6563L37.5383 83.5249Z" fill="white"></path><path d="M43.2838 88.6164L44.706 88.861L44.4955 87.2283C44.4557 86.9268 44.4159 86.3636 44.4159 86.3636H44.3988C44.3988 86.3636 44.1712 86.8813 44.029 87.1486L43.2781 88.6164H43.2838ZM44.029 85.2485L45.1554 85.4477L46.1225 91.1309L44.9905 90.9432L44.8255 89.7371L42.8912 89.4015L42.3451 90.4824L41.2415 90.2946L44.0347 85.2485H44.029Z" fill="white"></path><path d="M47.8749 85.7036L52.2383 85.9369L52.1871 86.8585L50.56 86.7788L50.3211 91.2731L49.2174 91.2105L49.4621 86.7162L47.8293 86.6309L47.8749 85.7036Z" fill="white"></path><path d="M53.1714 85.823L57.1138 85.311L57.2333 86.2269L54.3717 86.5967L54.5254 87.7971L57.0342 87.4728L57.1479 88.366L54.6448 88.6903L54.8326 90.1409L57.7112 89.7655L57.8306 90.6757L53.8597 91.1877L53.1714 85.823Z" fill="white"></path><path d="M60.4248 84.56L64.0998 83.3198L64.4014 84.2016L61.7674 85.0891L62.177 86.3236L64.4127 85.5669L64.7143 86.4601L62.4785 87.2167L63.1953 89.3387L62.1542 89.6914L60.4248 84.56Z" fill="white"></path><path d="M67.2002 84.5085L68.247 83.9737C68.7818 83.7006 68.9012 83.2853 68.7078 82.9042C68.5087 82.5059 68.1048 82.3467 67.5814 82.6141L66.5119 83.1602L67.2002 84.5085ZM65.1238 82.87L67.3425 81.7266C68.2754 81.2544 69.18 81.4763 69.5953 82.2784C69.8854 82.8473 69.8399 83.4162 69.3051 83.9054L69.3165 83.9282C69.8342 83.8315 70.1926 83.968 70.5567 84.5255C70.972 85.1741 71.2109 85.7088 71.4271 85.6974L71.4499 85.743L70.5112 86.2265C70.3633 86.2379 70.0731 85.6974 69.7603 85.1968C69.4474 84.6905 68.9979 84.5483 68.3892 84.8555L67.5984 85.2651L68.5883 87.2107L67.6098 87.7113L65.1295 82.87H65.1238Z" fill="white"></path><path d="M70.1643 80.1971L73.4354 77.9102L73.9645 78.6611L71.5979 80.3223L72.292 81.3178L74.3684 79.8615L74.8918 80.601L72.8153 82.0517L73.6573 83.2577L76.041 81.5852L76.57 82.3305L73.2818 84.6402L70.1643 80.1971Z" fill="white"></path><path d="M74.3569 77.0796L77.2469 74.3262L77.8841 74.9975L75.7962 76.9943L76.6382 77.8704L78.47 76.1239L79.0901 76.7724L77.2583 78.5246L78.2709 79.5827L80.3815 77.5689L81.0073 78.2345L78.1059 81.005L74.3569 77.0796Z" fill="white"></path><path d="M50.5716 19.5925C33.8063 19.5925 20.1643 33.2346 20.1643 49.9998C20.1643 66.7651 33.8063 80.4072 50.5716 80.4072C67.3369 80.4072 80.9789 66.7651 80.9789 49.9998C80.9789 33.2346 67.3369 19.5925 50.5716 19.5925ZM50.5716 81.4425C33.2374 81.4425 19.1289 67.3397 19.1289 49.9998C19.1289 32.66 33.2318 18.5571 50.5716 18.5571C67.9115 18.5571 82.0143 32.66 82.0143 49.9998C82.0143 67.3397 67.9115 81.4425 50.5716 81.4425Z" fill="white"></path><path d="M50.0879 29.605C43.7903 35.9368 35.3536 48.9189 35.3821 56.5648C35.3821 64.6772 41.9812 71.2707 50.0879 71.2707C58.1947 71.2707 64.7938 64.6715 64.7938 56.5648C64.8223 48.9189 56.3856 35.9368 50.0879 29.605ZM50.0879 72.4711C41.3156 72.4711 34.1817 65.3372 34.1817 56.5648C34.1533 48.441 43.1816 34.6454 49.667 28.3307L50.0823 27.9268L50.4976 28.3307C56.9829 34.6454 66.017 48.441 65.9828 56.5648C65.9828 65.3315 58.8489 72.4654 50.0766 72.4654" fill="white"></path><path d="M46.6803 55.9962C46.6803 54.3351 46.1967 53.2257 45.0362 53.2257C43.8756 53.2257 43.3807 54.3237 43.3807 55.9962C43.3807 57.6688 43.87 58.7667 45.0362 58.7667C46.2024 58.7667 46.6803 57.6745 46.6803 55.9962ZM41.7537 55.9962C41.7537 53.4874 43.0451 51.8945 45.0362 51.8945C47.0273 51.8945 48.3073 53.476 48.3073 55.9962C48.3073 58.5164 47.0671 60.1037 45.0305 60.1037C42.9939 60.1037 41.7594 58.4994 41.7594 55.9962" fill="white"></path><path d="M58.1434 57.8167C58.1434 56.9918 57.8817 56.3945 57.3526 56.3945C56.8236 56.3945 56.5619 56.9804 56.5619 57.8167C56.5619 58.653 56.8122 59.2162 57.3526 59.2162C57.8931 59.2162 58.1434 58.6416 58.1434 57.8167ZM55.3331 57.8167C55.3331 56.4172 56.1978 55.5241 57.3526 55.5241C58.5075 55.5241 59.3551 56.4058 59.3551 57.8167C59.3551 59.2275 58.5303 60.098 57.3526 60.098C56.175 60.098 55.3331 59.1991 55.3331 57.8167ZM56.3116 52.0538H57.2844L53.268 59.9102H52.2952L56.3173 52.0538H56.3116ZM53.012 54.1872C53.012 53.3623 52.7503 52.7649 52.2212 52.7649C51.6922 52.7649 51.4305 53.3509 51.4305 54.1872C51.4305 55.0234 51.6808 55.5809 52.2212 55.5809C52.7617 55.5809 53.012 55.0064 53.012 54.1872ZM50.2017 54.1872C50.2017 52.7877 51.0664 51.8945 52.2212 51.8945C53.3761 51.8945 54.2237 52.7763 54.2237 54.1872C54.2237 55.598 53.3988 56.4627 52.2212 56.4627C51.0436 56.4627 50.2017 55.5696 50.2017 54.1872Z" fill="white"></path></svg>