<svg xmlns="http://www.w3.org/2000/svg" width="101" height="100" viewBox="0 0 101 100" fill="none"><path d="M50.2857 19.5925C33.5204 19.5925 19.8784 33.2346 19.8784 49.9998C19.8784 66.7651 33.5204 80.4072 50.2857 80.4072C67.051 80.4072 80.6931 66.7651 80.6931 49.9998C80.6931 33.2346 67.051 19.5925 50.2857 19.5925ZM50.2857 81.4425C32.9459 81.4425 18.843 67.3397 18.843 49.9998C18.843 32.66 32.9459 18.5571 50.2857 18.5571C67.6256 18.5571 81.7284 32.66 81.7284 49.9998C81.7284 67.3397 67.6256 81.4425 50.2857 81.4425Z" fill="white"></path><path d="M50.2856 1.03539C23.286 1.03539 1.32102 23.0003 1.32102 50C1.32102 76.9996 23.286 98.9646 50.2856 98.9646C77.2853 98.9646 99.2502 76.9996 99.2502 50C99.2502 23.0003 77.2853 1.03539 50.2856 1.03539ZM50.2856 100C22.7171 100 0.285645 77.5685 0.285645 50C0.285645 22.4314 22.7171 0 50.2856 0C77.8542 0 100.286 22.4258 100.286 50C100.286 77.5742 77.8599 100 50.2856 100Z" fill="white"></path><path d="M27.86 10.1262L25.994 6.88916L25.1008 7.40685L26.9782 10.6609C27.274 10.4846 27.5585 10.2911 27.86 10.1262Z" fill="white"></path><path d="M10.9466 26.6928L7.6925 24.8154L7.1748 25.7086L10.4118 27.5746C10.5825 27.2731 10.7702 26.9886 10.9466 26.6928Z" fill="white"></path><path d="M50.2855 4.23262C50.4619 4.23262 50.6269 4.25538 50.8032 4.26107V0.523438H49.7678V4.26107C49.9442 4.26107 50.1091 4.23262 50.2855 4.23262Z" fill="white"></path><path d="M4.5124 50.0001C4.5124 49.8238 4.53515 49.6588 4.54084 49.4824H0.803223V50.5178H4.54084C4.54084 50.3415 4.5124 50.1765 4.5124 50.0001Z" fill="white"></path><path d="M90.1594 27.5746L93.3907 25.7086L92.8729 24.8154L89.6189 26.6928C89.7953 26.9886 89.9887 27.2731 90.1537 27.5746" fill="white"></path><path d="M73.5933 10.6609L75.4706 7.40685L74.5718 6.88916L72.7058 10.1262C73.0073 10.2968 73.2918 10.4846 73.5876 10.6609" fill="white"></path><path d="M89.6248 73.3076L92.8788 75.1849L93.3965 74.2917L90.1595 72.4258C89.9888 72.7273 89.8011 73.0117 89.6248 73.3076Z" fill="white"></path><path d="M72.7114 89.8736L74.5774 93.1106L75.4763 92.5929L73.5989 89.3389C73.3031 89.5152 73.0186 89.7086 72.7171 89.8736" fill="white"></path><path d="M10.4064 72.4258L7.16943 74.2917L7.68713 75.1849L10.9412 73.3076C10.7648 73.0117 10.5714 72.7273 10.4064 72.4258Z" fill="white"></path><path d="M96.0303 49.4824C96.0303 49.6588 96.053 49.8238 96.053 50.0001C96.053 50.1765 96.0303 50.3415 96.0303 50.5178H99.7679V49.4824H96.0303Z" fill="white"></path><path d="M26.9723 89.3389L25.095 92.5929L25.9881 93.1106L27.8541 89.8736C27.5526 89.703 27.2682 89.5152 26.9723 89.3389Z" fill="white"></path><path d="M50.2855 95.7672C50.1091 95.7672 49.9442 95.7445 49.7678 95.7388V99.4764H50.8032V95.7388C50.6269 95.7388 50.4619 95.7672 50.2855 95.7672Z" fill="white"></path><path d="M50.2858 4.74454C25.3342 4.74454 5.03043 25.0426 5.03043 50C5.03043 74.9573 25.3285 95.2497 50.2858 95.2497C75.2432 95.2497 95.5356 74.9516 95.5356 50C95.5356 25.0483 75.2375 4.74454 50.2858 4.74454ZM50.2858 96.2851C24.7653 96.2851 4.00073 75.5205 4.00073 50C4.00073 24.4794 24.7653 3.71484 50.2858 3.71484C75.8064 3.71484 96.571 24.4794 96.571 50C96.571 75.5205 75.8064 96.2851 50.2858 96.2851Z" fill="white"></path><path d="M24.7652 78.9397L25.6412 79.6679C26.0793 80.0377 26.5173 79.9808 26.8359 79.6053C27.1545 79.2185 27.0976 78.7918 26.6823 78.4448L25.8005 77.7109L24.7708 78.9397H24.7652ZM25.5275 76.2489L27.3479 77.7735C27.8315 78.1717 28.0761 78.6154 28.1103 79.0649C28.1501 79.4972 28.0135 79.9353 27.695 80.3221C27.0464 81.1015 26.085 81.1982 25.2146 80.4757L24.1906 79.6224L22.939 81.1243L22.0686 80.4018L25.5275 76.2432V76.2489Z" fill="white"></path><path d="M29.7087 79.5425L30.6417 80.1171L28.2979 83.9514L30.4654 85.2826L29.9875 86.062L26.8813 84.1619L29.7087 79.5425Z" fill="white"></path><path d="M33.8219 85.738L35.1361 86.3012L35.3124 84.6856C35.3409 84.3841 35.4376 83.8322 35.4376 83.8322H35.4205C35.4205 83.8322 35.0849 84.2703 34.8914 84.4979L33.8276 85.738H33.8219ZM35.3181 82.666L36.3592 83.1154L35.9723 88.8271L34.9256 88.3777L35.045 87.1773L33.2587 86.4093L32.4793 87.3252L31.4553 86.8872L35.3181 82.666Z" fill="white"></path><path d="M39.0159 84.1445L40.0968 84.4176L41.1038 87.7911C41.2005 88.1211 41.2858 88.616 41.2858 88.616H41.3029C41.3029 88.616 41.411 88.0699 41.502 87.7001L42.1961 84.9467L43.2428 85.2084L41.9173 90.4592L40.8933 90.1976L39.8351 86.8468C39.7384 86.5282 39.6417 86.0276 39.6417 86.0276H39.6247C39.6247 86.0276 39.5166 86.5794 39.4255 86.9492L38.7429 89.6571L37.6904 89.3954L39.0159 84.1445Z" fill="white"></path><path d="M44.3522 85.4077L48.7156 85.8287L48.6246 86.7503L46.9975 86.5967L46.5652 91.0966L45.4615 90.9886L45.8996 86.4943L44.2668 86.3407L44.3522 85.4077Z" fill="white"></path><path d="M53.5055 90.2493L54.7628 90.1128C55.2861 90.0559 55.5706 89.7316 55.5194 89.2993C55.4682 88.7873 55.0586 88.5654 54.5637 88.6166L53.3462 88.7531L53.5055 90.2493ZM54.4328 87.8201C54.9107 87.7689 55.2008 87.5129 55.161 87.0863C55.1155 86.688 54.7969 86.4889 54.319 86.5401L53.1187 86.671L53.2552 87.9453L54.4328 87.8201ZM51.9354 85.8973L54.3361 85.6413C54.9164 85.5787 55.3772 85.6754 55.6787 85.8973C55.9973 86.1305 56.168 86.432 56.2078 86.8587C56.2704 87.4048 55.9688 87.7917 55.4853 88.0192V88.042C56.0997 88.1501 56.5605 88.6052 56.6287 89.2651C56.6856 89.7657 56.5662 90.1298 56.276 90.4313C55.9973 90.7386 55.5421 90.9434 54.9733 91.0059L52.51 91.2676L51.9297 85.903L51.9354 85.8973Z" fill="white"></path><path d="M59.5359 88.1842L60.924 87.8258L60.0536 86.4377C59.8943 86.1817 59.6326 85.6811 59.6326 85.6811H59.6156C59.6156 85.6811 59.6156 86.25 59.6156 86.5515L59.5416 88.1842H59.5359ZM58.8134 84.8277L59.9114 84.5376L63.1484 89.2992L62.0391 89.5894L61.3905 88.5654L59.4961 89.066L59.4449 90.272L58.364 90.5565L58.8077 84.8277H58.8134Z" fill="white"></path><path d="M64.0983 87.2281L65.0824 86.8072C65.4067 87.3704 65.8504 87.4614 66.5616 87.1599C67.0736 86.938 67.4434 86.5682 67.2499 86.1074C67.0451 85.6239 66.5274 85.7263 65.6969 85.8799C64.7241 86.0619 63.8138 86.1757 63.3701 85.1346C62.9434 84.1561 63.5237 83.3085 64.6273 82.8306C65.7424 82.3527 66.7038 82.586 67.2101 83.5588L66.243 83.9741C65.9756 83.5019 65.4807 83.4166 64.963 83.6384C64.4225 83.8717 64.1665 84.2528 64.3145 84.6056C64.4908 85.0095 64.889 84.9753 65.6912 84.8217C66.8062 84.6055 67.7392 84.4861 68.2 85.5556C68.6323 86.5625 68.0635 87.4728 66.9427 87.9563C65.6002 88.5366 64.5761 88.2635 64.0926 87.2338" fill="white"></path><path d="M67.7676 81.4655L71.1696 79.3833L71.6474 80.1741L69.1898 81.6816L69.8213 82.717L71.9774 81.3915L72.4496 82.1595L70.2935 83.4793L71.0558 84.7252L73.5305 83.212L74.014 83.9913L70.6007 86.0792L67.7676 81.4655Z" fill="white"></path><path d="M76.5967 80.7432C77.3875 80.072 77.2851 79.3267 76.5854 78.5075C75.8913 77.6826 75.0437 77.4152 74.3269 78.0182L73.6556 78.5871L75.9482 81.2951L76.5967 80.7432ZM72.1992 78.5814L73.8205 77.2104C74.9299 76.2718 76.4033 76.5619 77.4387 77.7907C78.0133 78.462 78.2864 79.2471 78.1612 79.9809C78.0702 80.4986 77.7914 80.9822 77.268 81.4259L75.7207 82.74L72.1992 78.5814Z" fill="white"></path><path d="M50.2857 19.5925C33.5204 19.5925 19.8784 33.2346 19.8784 49.9998C19.8784 66.7651 33.5204 80.4072 50.2857 80.4072C67.051 80.4072 80.6931 66.7651 80.6931 49.9998C80.6931 33.2346 67.051 19.5925 50.2857 19.5925ZM50.2857 81.4425C32.9459 81.4425 18.843 67.3397 18.843 49.9998C18.843 32.66 32.9459 18.5571 50.2857 18.5571C67.6256 18.5571 81.7284 32.66 81.7284 49.9998C81.7284 67.3397 67.6256 81.4425 50.2857 81.4425Z" fill="white"></path><path d="M66.0554 27.5175C62.4088 27.5175 56.2818 28.735 54.1143 30.8399C52.9537 31.9549 52.2938 33.4568 52.2654 35.0667C52.2369 36.6767 52.8343 38.2013 53.9493 39.3619C56.259 41.7569 60.0706 41.8252 62.4656 39.5269C64.7014 37.3992 66.1748 31.1186 66.2659 27.5175H66.061H66.0554ZM58.2957 42.2632H58.1534C56.259 42.2291 54.5011 41.4554 53.187 40.0957C51.8785 38.7361 51.1731 36.9384 51.2072 35.044C51.2471 33.1496 52.0208 31.386 53.3804 30.0776C55.9689 27.5574 62.8923 26.357 66.573 26.4708L67.324 26.4992V27.2445C67.3012 30.9878 65.8221 37.786 63.1995 40.2892C61.874 41.5635 60.1389 42.2632 58.3014 42.2632" fill="white"></path><path d="M35.3465 27.5173C35.4375 31.1354 36.911 37.4046 39.1467 39.5266C40.2731 40.6132 41.7523 41.2048 43.3167 41.2048H43.4362C45.0461 41.1764 46.548 40.5165 47.6574 39.3616C49.9614 36.9666 49.8818 33.1436 47.4924 30.8396C45.2794 28.6949 38.9419 27.5286 35.3408 27.5116M43.311 42.2573C41.4735 42.2573 39.7384 41.5632 38.4129 40.2832C35.7903 37.7858 34.3055 30.9818 34.2884 27.2385L34.2656 26.4876L35.0336 26.4591C35.2043 26.4591 35.3863 26.4478 35.5684 26.4478C39.397 26.4478 45.7459 27.6652 48.2206 30.0659C51.0366 32.7738 51.1219 37.2681 48.4197 40.0841C47.1056 41.4438 45.3477 42.2175 43.4532 42.2516H43.311V42.2573Z" fill="white"></path><path d="M66.0497 44.3735C62.4144 44.3735 56.2818 45.5909 54.1143 47.6958C52.9537 48.8109 52.2938 50.3071 52.2654 51.9227C52.2369 53.5327 52.8343 55.0573 53.9493 56.2122C55.0586 57.3727 56.5605 58.0269 58.1705 58.0611H58.2957C59.8601 58.0611 61.3392 57.4694 62.46 56.3828C64.6957 54.2495 66.1691 47.9746 66.2602 44.3735H66.0497ZM58.2957 59.1192H58.1534C56.259 59.0794 54.5011 58.3114 53.187 56.946C51.8785 55.5864 51.1731 53.7944 51.2072 51.9C51.2471 50.0055 52.0208 48.242 53.3804 46.9278C55.9689 44.4076 62.8809 43.1902 66.5673 43.3267L67.324 43.3438V44.1004C67.3012 47.8438 65.8221 54.6363 63.1995 57.1508C61.874 58.4252 60.1389 59.1249 58.3014 59.1249" fill="white"></path><path d="M35.3467 44.3737C35.4377 47.9862 36.9168 54.2554 39.1469 56.3831C40.2961 57.4924 41.7922 58.0329 43.4363 58.0613C45.0463 58.0329 46.5482 57.3729 47.6575 56.2124C48.7726 55.0576 49.3699 53.5329 49.3358 51.9173C49.3073 50.3073 48.6474 48.8054 47.4926 47.6961C45.3194 45.5969 39.1924 44.3737 35.5515 44.3737H35.3467ZM43.3169 59.1194C41.4794 59.1194 39.7442 58.4254 38.4187 57.1454C35.7961 54.6423 34.3113 47.8383 34.2942 44.1007L34.2715 43.3384L35.0452 43.3213C38.7657 43.1961 45.6323 44.4079 48.2321 46.9224C51.0481 49.636 51.1335 54.1246 48.4312 56.9406C47.1171 58.3059 45.3592 59.0739 43.4648 59.1137H43.3226L43.3169 59.1194Z" fill="white"></path><path d="M66.0554 61.4975C62.4088 61.4975 56.2818 62.7149 54.1143 64.8198C52.9537 65.9348 52.2938 67.4367 52.2654 69.0467C52.2369 70.6567 52.8343 72.1813 53.9493 73.3418C56.259 75.7426 60.0706 75.8051 62.4656 73.5068C64.7014 71.3735 66.1748 65.0986 66.2659 61.4975H66.061H66.0554ZM58.2957 76.2432H58.1534C56.259 76.2091 54.5011 75.4354 53.187 74.0757C51.8785 72.7104 51.1731 70.9184 51.2072 69.0239C51.2471 67.1295 52.0208 65.366 53.3804 64.0575C55.9689 61.5373 62.8923 60.3142 66.573 60.4507L67.324 60.4792V61.2244C67.3012 64.9677 65.8221 71.7603 63.1995 74.2691C61.874 75.5435 60.1389 76.2432 58.3014 76.2432" fill="white"></path><path d="M35.3465 61.4977C35.4375 65.1102 36.9167 71.3794 39.1467 73.5071C40.2731 74.5936 41.7523 75.1853 43.3167 75.1853H43.4362C45.0461 75.1568 46.548 74.4969 47.6574 73.3421C49.9614 70.947 49.8818 67.1241 47.4924 64.8201C45.2794 62.6696 38.9419 61.4579 35.3408 61.492M43.311 76.2377C41.4735 76.2377 39.7384 75.5437 38.4129 74.2637C35.7903 71.7606 34.3055 64.9566 34.2884 61.219L34.2656 60.468L35.0336 60.4396C35.2043 60.4396 35.3863 60.4282 35.5684 60.4282C39.397 60.4282 45.7459 61.6456 48.2206 64.0464C51.0366 66.7543 51.1219 71.2485 48.4197 74.0646C47.1056 75.4242 45.3477 76.1979 43.4532 76.2321H43.311V76.2377Z" fill="white"></path></svg>