<svg xmlns="http://www.w3.org/2000/svg" width="100" height="100" viewBox="0 0 100 100" fill="none"><path d="M50.0001 19.5925C33.2348 19.5925 19.5927 33.2346 19.5927 49.9998C19.5927 66.7651 33.2348 80.4072 50.0001 80.4072C66.7653 80.4072 80.4074 66.7651 80.4074 49.9998C80.4074 33.2346 66.7653 19.5925 50.0001 19.5925ZM50.0001 81.4425C32.6602 81.4425 18.5574 67.3397 18.5574 49.9998C18.5574 32.66 32.6602 18.5571 50.0001 18.5571C67.3399 18.5571 81.4428 32.66 81.4428 49.9998C81.4428 67.3397 67.3399 81.4425 50.0001 81.4425Z" fill="white"></path><path d="M50 1.03539C23.0003 1.03539 1.03535 23.0003 1.03535 50C1.03535 76.9996 23.0003 98.9646 50 98.9646C76.9996 98.9646 98.9646 76.9996 98.9646 50C98.9646 23.0003 76.9996 1.03539 50 1.03539ZM50 100C22.4314 100 0 77.5685 0 50C0 22.4314 22.4314 0 50 0C77.5685 0 100 22.4258 100 50C100 77.5742 77.5685 100 50 100Z" fill="white"></path><path d="M4.22677 50.0001C4.22677 49.8238 4.24952 49.6588 4.25521 49.4824H0.517578V50.5178H4.25521C4.25521 50.3415 4.22677 50.1765 4.22677 50.0001Z" fill="white"></path><path d="M10.6609 26.6928L7.40684 24.8154L6.88916 25.7086L10.1262 27.5746C10.2968 27.2731 10.4846 26.9886 10.6609 26.6928Z" fill="white"></path><path d="M27.5743 10.1262L25.7083 6.88916L24.8152 7.40685L26.6925 10.6609C26.9883 10.4846 27.2728 10.2911 27.5743 10.1262Z" fill="white"></path><path d="M49.9999 4.23262C50.1762 4.23262 50.3412 4.25538 50.5176 4.26107V0.523438H49.4822V4.26107C49.6585 4.26107 49.8235 4.23262 49.9999 4.23262Z" fill="white"></path><path d="M73.3076 10.6609L75.1849 7.40685L74.2917 6.88916L72.4258 10.1262C72.7273 10.2968 73.0117 10.4846 73.3076 10.6609Z" fill="white"></path><path d="M89.8736 27.5746L93.1106 25.7086L92.5929 24.8154L89.3389 26.6928C89.5152 26.9886 89.7086 27.2731 89.8736 27.5746Z" fill="white"></path><path d="M10.1208 72.4258L6.88379 74.2917L7.40147 75.1849L10.6556 73.3076C10.4792 73.0117 10.2858 72.7273 10.1208 72.4258Z" fill="white"></path><path d="M72.4258 89.8736L74.2917 93.1106L75.1849 92.5929L73.3076 89.3389C73.0117 89.5152 72.7273 89.7086 72.4258 89.8736Z" fill="white"></path><path d="M89.3389 73.3076L92.5929 75.1849L93.1106 74.2917L89.8736 72.4258C89.703 72.7273 89.5152 73.0117 89.3389 73.3076Z" fill="white"></path><path d="M49.9999 95.7672C49.8235 95.7672 49.6585 95.7445 49.4822 95.7388V99.4764H50.5176V95.7388C50.3412 95.7388 50.1762 95.7672 49.9999 95.7672Z" fill="white"></path><path d="M26.6867 89.3389L24.8093 92.5929L25.7025 93.1106L27.5684 89.8736C27.2669 89.703 26.9825 89.5152 26.6867 89.3389Z" fill="white"></path><path d="M50.0002 4.74454C25.0486 4.74454 4.74478 25.0426 4.74478 50C4.74478 74.9573 25.0429 95.2497 50.0002 95.2497C74.9575 95.2497 95.25 74.9516 95.25 50C95.25 25.0483 74.9519 4.74454 50.0002 4.74454ZM50.0002 96.2851C24.4797 96.2851 3.71509 75.5205 3.71509 50C3.71509 24.4794 24.4797 3.71484 50.0002 3.71484C75.5207 3.71484 96.2854 24.4794 96.2854 50C96.2854 75.5205 75.5207 96.2851 50.0002 96.2851Z" fill="white"></path><path d="M12.2139 60.3079C13.7215 59.7618 15.2063 60.2795 15.7581 61.7757C16.2132 63.0273 15.7353 64.0399 14.8081 64.4893L14.4383 63.4653C14.9161 63.1865 15.1096 62.6859 14.8934 62.0886C14.5521 61.1556 13.6077 60.9906 12.6007 61.3547C11.5597 61.7302 11.0135 62.5437 11.3264 63.3913C11.5483 63.9944 12.066 64.2902 12.6178 64.1593L12.9819 65.1663C12.5268 65.3028 12.0205 65.263 11.5767 65.0411C11.1273 64.8136 10.7348 64.3983 10.4788 63.6985C9.96109 62.2706 10.6893 60.8541 12.2196 60.3023" fill="white"></path><path d="M13.6534 66.6114L16.862 64.8535L17.391 65.8149L14.1768 67.5785C13.6876 67.8459 13.4828 68.2782 13.8298 68.9211C14.1654 69.5298 14.6774 69.6208 15.1667 69.3478L18.3639 67.5899L18.8929 68.5513L15.6787 70.3149C14.6661 70.8724 13.7388 70.5709 13.0732 69.3648C12.4019 68.1417 12.6294 67.1803 13.6534 66.6171" fill="white"></path><path d="M16.5262 71.7887L17.1804 72.6534C16.7025 73.1085 16.7253 73.5636 17.1975 74.178C17.5388 74.6275 17.9939 74.9005 18.3921 74.5933C18.8131 74.2748 18.5856 73.7969 18.2386 73.0232C17.8233 72.113 17.4933 71.2482 18.3978 70.5656C19.2512 69.917 20.2183 70.2755 20.9465 71.2369C21.6917 72.2097 21.6917 73.2052 20.8668 73.9334L20.2297 73.0915C20.6279 72.716 20.5881 72.2097 20.2524 71.7603C19.894 71.2881 19.456 71.1345 19.1488 71.3677C18.7961 71.6351 18.9269 72.0106 19.2796 72.7615C19.7575 73.7969 20.0988 74.6844 19.1658 75.3955C18.2897 76.0611 17.26 75.7254 16.5205 74.7526C15.6273 73.5807 15.6444 72.5169 16.5319 71.7944" fill="white"></path><path d="M22.8638 73.8423L25.97 76.9086L25.3215 77.5685L24.1609 76.4194L21.0036 79.6279L20.2185 78.8542L23.3759 75.6457L22.2096 74.5079L22.8638 73.8423Z" fill="white"></path><path d="M28.3937 82.1367C29.0308 81.2606 29.1275 80.2935 28.3254 79.7132C27.5176 79.1273 26.6187 79.5141 25.9816 80.3902C25.3501 81.2606 25.2704 82.2391 26.0726 82.8194C26.8747 83.3997 27.7622 83.0014 28.3937 82.131M25.0713 79.7303C26.0214 78.4219 27.5517 78.035 28.8431 78.9737C30.1345 79.9123 30.2483 81.4768 29.2982 82.791C28.3482 84.1051 26.8292 84.4806 25.5321 83.5476C24.2407 82.6146 24.1213 81.0501 25.0656 79.736" fill="white"></path><path d="M31.9033 81.1245L33.3028 81.7958L32.8078 84.5948C32.6827 85.2888 32.4779 86.0682 32.4779 86.0682H32.495C32.495 86.0682 32.9671 85.431 33.4336 84.8963L35.3109 82.7686L36.7275 83.457L34.3609 88.3552L33.4393 87.9114L34.7933 85.0954C34.9924 84.6972 35.3223 84.0998 35.3223 84.0998H35.3109C35.3109 84.0998 34.9184 84.6232 34.6453 84.9247L32.4096 87.4108L31.4539 86.95L32.0285 83.6561C32.0967 83.2522 32.2674 82.6207 32.2674 82.6207H32.2503C32.2503 82.6207 32 83.2522 31.8009 83.6504L30.4469 86.4607L29.531 86.0227L31.8976 81.1245H31.9033Z" fill="white"></path><path d="M39.9588 84.4639L43.759 85.3343L43.5485 86.2445L40.8235 85.6301L40.5334 86.9044L42.8374 87.4278L42.6326 88.3494L40.3229 87.8203L39.8166 90.0219L38.7471 89.7716L39.9588 84.4639Z" fill="white"></path><path d="M48.6118 88.5827C48.6915 87.4961 48.2705 86.62 47.2749 86.546C46.2851 86.4664 45.7105 87.2742 45.6308 88.3608C45.5455 89.4417 45.9949 90.3178 46.9905 90.3917C47.9804 90.4714 48.5322 89.6579 48.6118 88.5827ZM44.5101 88.2755C44.6353 86.6484 45.7389 85.522 47.3375 85.6415C48.9361 85.761 49.8577 87.041 49.7326 88.6623C49.6131 90.2837 48.5151 91.4101 46.9108 91.2906C45.3123 91.1711 44.385 89.8968 44.5044 88.2755" fill="white"></path><path d="M52.2926 88.1956L53.4588 88.0989C54.0561 88.0477 54.3235 87.712 54.2894 87.2797C54.2553 86.8416 53.9424 86.5344 53.3621 86.5856L52.1674 86.688L52.2983 88.1956H52.2926ZM50.9841 85.8916L53.4759 85.6811C54.5226 85.5958 55.2736 86.1419 55.3475 87.0464C55.3987 87.6836 55.1484 88.1899 54.4658 88.4402V88.463C54.9834 88.5654 55.2622 88.8328 55.3874 89.487C55.5296 90.2436 55.5466 90.8353 55.7458 90.9035V90.9547L54.6933 91.0458C54.5568 90.9946 54.4885 90.3915 54.3918 89.8113C54.2951 89.2196 53.931 88.9181 53.2483 88.975L52.3608 89.049L52.5486 91.2278L51.4506 91.3188L50.9841 85.8973V85.8916Z" fill="white"></path><path d="M56.5649 85.3456L58.0611 84.9644L59.472 87.4106C59.8247 88.025 60.1603 88.7475 60.1603 88.7475H60.1774C60.1774 88.7475 60.1262 87.9511 60.1433 87.2457L60.2229 84.4183L61.7419 84.0371L63.0674 89.2823L62.0775 89.5326L61.3209 86.5232C61.2128 86.0965 61.0876 85.4252 61.0876 85.4252H61.0706C61.0706 85.4252 61.1104 86.0737 61.099 86.4833L60.9795 89.8114L59.9555 90.0674L58.2944 87.1888C58.0896 86.8304 57.8165 86.2444 57.8165 86.2444H57.7994C57.7994 86.2444 58.0099 86.8986 58.118 87.3253L58.8746 90.3347L57.9018 90.5851L56.5763 85.3399L56.5649 85.3456Z" fill="white"></path><path d="M64.3759 86.9328L62.8911 83.5649L63.898 83.1212L65.3885 86.489C65.6161 87.001 66.0314 87.2457 66.7027 86.9498C67.3399 86.6711 67.4707 86.1648 67.2431 85.6471L65.764 82.2963L66.7653 81.8525L68.2501 85.2204C68.7223 86.2842 68.3411 87.1888 67.0725 87.752C65.7868 88.3152 64.8481 88.008 64.3702 86.9384" fill="white"></path><path d="M68.0513 81.1411L68.9786 80.5552L71.3736 84.344L73.5126 82.99L74.0076 83.758L70.9355 85.698L68.0513 81.1411Z" fill="white"></path><path d="M75.2872 80.2315L76.3852 79.3042L74.9971 78.4224C74.7468 78.2631 74.2916 77.9275 74.2916 77.9275L74.2803 77.9388C74.2803 77.9388 74.5249 78.4451 74.6444 78.7239L75.2815 80.2372L75.2872 80.2315ZM73.188 77.5008L74.0584 76.7612L79.0419 79.6797L78.1658 80.4249L77.1418 79.7764L75.6456 81.045L76.1178 82.16L75.2588 82.8825L73.188 77.5008Z" fill="white"></path><path d="M76.0098 74.997L78.8827 71.7031L79.5881 72.3175L78.5072 73.5463L81.9035 76.516L81.181 77.3465L77.7847 74.3769L76.7095 75.6114L76.0098 74.997Z" fill="white"></path><path d="M79.5483 70.7192L80.1798 69.8203L84.6229 72.9379L83.9914 73.8367L79.5483 70.7192Z" fill="white"></path><path d="M85.2599 66.5093C84.2985 65.9973 83.3314 66.0372 82.8649 66.9133C82.3984 67.7894 82.9047 68.6313 83.8661 69.1376C84.8162 69.6439 85.7947 69.5871 86.2612 68.711C86.7277 67.8349 86.21 67.01 85.2599 66.5093ZM83.3371 70.1275C81.9035 69.3709 81.3118 67.9088 82.0628 66.4923C82.8137 65.0814 84.3497 64.7515 85.7833 65.5138C87.2169 66.2704 87.8086 67.7268 87.0519 69.1319C86.301 70.5485 84.7707 70.8841 83.3428 70.1218" fill="white"></path><path d="M83.8946 63.0956L84.253 62.0432L87.6948 61.298C88.0305 61.224 88.5311 61.1785 88.5311 61.1785V61.1671C88.5311 61.1671 87.9963 61.0135 87.6379 60.894L84.9414 59.9838L85.2884 58.9541L90.4255 60.6892L90.0842 61.6905L86.6537 62.4869C86.3295 62.5666 85.8232 62.6178 85.8232 62.6178V62.6348C85.8232 62.6348 86.3636 62.7828 86.7277 62.9079L89.3731 63.8011L89.026 64.8308L83.8889 63.0956H83.8946Z" fill="white"></path><path d="M50.0001 19.5925C33.2348 19.5925 19.5927 33.2346 19.5927 49.9998C19.5927 66.7651 33.2348 80.4072 50.0001 80.4072C66.7653 80.4072 80.4074 66.7651 80.4074 49.9998C80.4074 33.2346 66.7653 19.5925 50.0001 19.5925ZM50.0001 81.4425C32.6602 81.4425 18.5574 67.3397 18.5574 49.9998C18.5574 32.66 32.6602 18.5571 50.0001 18.5571C67.3399 18.5571 81.4428 32.66 81.4428 49.9998C81.4428 67.3397 67.3399 81.4425 50.0001 81.4425Z" fill="white"></path><path d="M58.704 55.0239H40.2434V56.0764H58.704V55.0239Z" fill="white"></path><path d="M66.2248 66.0029L53.6067 46.8711V32.9958C53.2825 33.1551 52.9298 33.2574 52.5486 33.2688V47.1896L65.343 66.5775C65.7754 67.2374 65.8095 68.0452 65.4397 68.7336C65.0642 69.4277 64.3702 69.8429 63.5851 69.8429H35.3737C34.5887 69.8429 33.8946 69.422 33.5248 68.7336C33.1494 68.0396 33.1835 67.2374 33.6158 66.5775L46.4671 47.0986L46.5525 46.9678V33.2347C46.1656 33.1949 45.8186 33.0697 45.5 32.8706V46.6492L32.7341 66.0029C32.0798 66.9871 32.0286 68.1988 32.5861 69.2399C33.1494 70.281 34.1847 70.9011 35.368 70.9011H63.5794C64.7627 70.9011 65.7981 70.281 66.3613 69.2456C66.9245 68.2045 66.8676 66.9871 66.2191 66.0029" fill="white"></path><path d="M46.8026 28.7404C45.6989 28.7404 44.7944 29.645 44.7944 30.7486C44.7944 31.8523 45.6989 32.7568 46.8026 32.7568H52.4802C53.5838 32.7568 54.4883 31.8523 54.4883 30.7486C54.4883 29.645 53.5838 28.7404 52.4802 28.7404H46.8026ZM52.4802 33.8093H46.8026C45.113 33.8093 43.7419 32.4382 43.7419 30.7486C43.7419 29.059 45.113 27.688 46.8026 27.688H52.4802C54.1698 27.688 55.5408 29.059 55.5408 30.7486C55.5408 32.4382 54.1698 33.8093 52.4802 33.8093Z" fill="white"></path><path d="M55.6718 58.7496C54.7957 58.7496 54.0732 59.4664 54.0732 60.3424C54.0732 61.2185 54.79 61.9354 55.6718 61.9354C56.5536 61.9354 57.2647 61.2185 57.2647 60.3424C57.2647 59.4664 56.5479 58.7496 55.6718 58.7496ZM55.6718 62.9935C54.2098 62.9935 53.0208 61.8045 53.0208 60.3424C53.0208 58.8804 54.2098 57.6914 55.6718 57.6914C57.1339 57.6914 58.3171 58.8804 58.3171 60.3424C58.3171 61.8045 57.1282 62.9935 55.6718 62.9935Z" fill="white"></path><path d="M42.3938 64.7741C41.5007 64.7741 40.7668 65.508 40.7668 66.4012C40.7668 67.2943 41.5007 68.0225 42.3938 68.0225C43.287 68.0225 44.0208 67.2943 44.0208 66.4012C44.0208 65.508 43.287 64.7741 42.3938 64.7741ZM42.3938 69.075C40.9147 69.075 39.7144 67.8746 39.7144 66.4012C39.7144 64.9277 40.9147 63.7217 42.3938 63.7217C43.8729 63.7217 45.0733 64.9221 45.0733 66.4012C45.0733 67.8803 43.8729 69.075 42.3938 69.075Z" fill="white"></path><path d="M49.9146 48.7998C49.01 48.7998 48.2705 49.5394 48.2705 50.4439C48.2705 51.3485 49.01 52.088 49.9146 52.088C50.8191 52.088 51.553 51.3485 51.553 50.4439C51.553 49.5394 50.8134 48.7998 49.9146 48.7998ZM49.9146 53.1348C48.4241 53.1348 47.218 51.9287 47.218 50.4382C47.218 48.9477 48.4241 47.7417 49.9146 47.7417C51.4051 47.7417 52.6111 48.9477 52.6111 50.4382C52.6111 51.9287 51.4051 53.1348 49.9146 53.1348Z" fill="white"></path></svg>