<svg xmlns="http://www.w3.org/2000/svg" width="455" height="100" viewBox="0 0 455 100" fill="none"><path d="M30.7155 99.9968C9.74106 99.9968 0 89.2156 0 67.5013V22.5995C0 7.98002 6.35177 0 23.4753 0H107.964C125.104 0 131.152 7.98002 131.152 22.5995V36.6341C131.152 51.2536 125.104 59.2336 107.964 59.2336H23.333V65.1396C23.333 74.0049 27.1681 78.5798 35.7457 78.5798H128.651V100H30.7155V99.9968ZM108.122 28.066C108.122 22.3055 105.754 19.3525 99.5479 19.3525H31.8948C25.7011 19.3525 23.333 22.3055 23.333 28.066V42.3946H99.5479C105.754 42.3946 108.122 39.1413 108.122 33.5294V28.0629V28.066ZM286.18 100V34.8604C286.18 25.8529 282.187 21.2716 273.926 21.2716H239.359V100H216.317V21.2685H169.642V99.9968H146.454V0H278.798C299.627 0 309.371 10.933 309.371 32.4955V99.9968H286.184L286.18 100ZM354.216 100C333.242 100 323.501 89.2188 323.501 67.5045V32.4955C323.501 10.7812 333.242 0 354.216 0H424.079C445.054 0 454.652 10.7812 454.652 32.4955V67.4982C454.652 89.2124 445.054 99.9937 424.079 99.9937H354.216V100ZM431.465 34.8636C431.465 25.7043 427.63 21.2748 419.065 21.2748H359.243C350.669 21.2748 346.83 25.7074 346.83 34.8636V65.1427C346.83 74.008 350.666 78.5829 359.243 78.5829H419.065C427.627 78.5829 431.465 74.008 431.465 65.1427V34.8604V34.8636Z" fill="white"></path></svg>