<svg xmlns="http://www.w3.org/2000/svg" xmlns:xlink="http://www.w3.org/1999/xlink" width="125" zoomAndPan="magnify" viewBox="0 0 93.75 93.749996" height="125" preserveAspectRatio="xMidYMid meet" version="1.0"><defs><clipPath id="b2e1a53647"><path d="M 12 15 L 78 15 L 78 81 L 12 81 Z M 12 15 " clip-rule="nonzero"/></clipPath><clipPath id="7e26aa4324"><path d="M 50.136719 96.136719 L -2.753906 43.242188 L 26.335938 14.152344 L 79.226562 67.042969 Z M 50.136719 96.136719 " clip-rule="nonzero"/></clipPath><clipPath id="d1cd7a0935"><path d="M 50.136719 96.136719 L -2.753906 43.242188 L 26.335938 14.152344 L 79.226562 67.042969 Z M 50.136719 96.136719 " clip-rule="nonzero"/></clipPath><clipPath id="fc83081723"><path d="M 49.519531 16.410156 L 60.738281 16.410156 L 60.738281 27.632812 L 49.519531 27.632812 Z M 49.519531 16.410156 " clip-rule="nonzero"/></clipPath><clipPath id="bedccf3c97"><path d="M 65.523438 32.269531 L 76.746094 32.269531 L 76.746094 43.488281 L 65.523438 43.488281 Z M 65.523438 32.269531 " clip-rule="nonzero"/></clipPath></defs><g clip-path="url(#b2e1a53647)"><g clip-path="url(#7e26aa4324)"><g clip-path="url(#d1cd7a0935)"><path fill="#ac5fda" d="M 23.5625 69.5625 C 38.226562 84.226562 62.003906 84.226562 76.667969 69.5625 C 78.003906 68.226562 78.003906 66.066406 76.667969 64.734375 L 28.390625 16.457031 C 27.058594 15.121094 24.898438 15.121094 23.5625 16.457031 C 8.898438 31.121094 8.898438 54.894531 23.5625 69.5625 Z M 23.5625 69.5625 " fill-opacity="1" fill-rule="evenodd"/></g></g></g><g clip-path="url(#fc83081723)"><path fill="#ffffff" d="M 60.65625 21.980469 C 60.65625 22.34375 60.621094 22.707031 60.550781 23.066406 C 60.476562 23.425781 60.371094 23.773438 60.234375 24.109375 C 60.09375 24.449219 59.921875 24.769531 59.71875 25.074219 C 59.515625 25.378906 59.285156 25.660156 59.023438 25.917969 C 58.765625 26.175781 58.484375 26.40625 58.179688 26.609375 C 57.875 26.8125 57.554688 26.984375 57.21875 27.125 C 56.878906 27.265625 56.53125 27.371094 56.171875 27.441406 C 55.8125 27.515625 55.449219 27.550781 55.085938 27.550781 C 54.71875 27.550781 54.355469 27.515625 54 27.441406 C 53.640625 27.371094 53.292969 27.265625 52.953125 27.125 C 52.613281 26.984375 52.292969 26.8125 51.988281 26.609375 C 51.6875 26.40625 51.40625 26.175781 51.144531 25.917969 C 50.886719 25.660156 50.65625 25.378906 50.453125 25.074219 C 50.25 24.769531 50.078125 24.449219 49.9375 24.109375 C 49.796875 23.773438 49.691406 23.425781 49.621094 23.066406 C 49.550781 22.707031 49.515625 22.34375 49.515625 21.980469 C 49.515625 21.613281 49.550781 21.25 49.621094 20.890625 C 49.691406 20.53125 49.796875 20.183594 49.9375 19.847656 C 50.078125 19.507812 50.25 19.1875 50.453125 18.882812 C 50.65625 18.578125 50.886719 18.296875 51.144531 18.039062 C 51.40625 17.78125 51.6875 17.550781 51.988281 17.347656 C 52.292969 17.144531 52.613281 16.972656 52.953125 16.832031 C 53.292969 16.691406 53.640625 16.585938 54 16.515625 C 54.355469 16.441406 54.71875 16.40625 55.085938 16.40625 C 55.449219 16.40625 55.8125 16.441406 56.171875 16.515625 C 56.53125 16.585938 56.878906 16.691406 57.21875 16.832031 C 57.554688 16.972656 57.875 17.144531 58.179688 17.347656 C 58.484375 17.550781 58.765625 17.78125 59.023438 18.039062 C 59.285156 18.296875 59.515625 18.578125 59.71875 18.882812 C 59.921875 19.1875 60.09375 19.507812 60.234375 19.847656 C 60.371094 20.183594 60.476562 20.53125 60.550781 20.890625 C 60.621094 21.25 60.65625 21.613281 60.65625 21.980469 Z M 60.65625 21.980469 " fill-opacity="1" fill-rule="nonzero"/></g><g clip-path="url(#bedccf3c97)"><path fill="#ffffff" d="M 76.664062 37.835938 C 76.664062 38.203125 76.628906 38.566406 76.558594 38.921875 C 76.484375 39.28125 76.378906 39.628906 76.238281 39.96875 C 76.101562 40.304688 75.929688 40.628906 75.726562 40.933594 C 75.523438 41.234375 75.289062 41.515625 75.03125 41.777344 C 74.773438 42.035156 74.492188 42.265625 74.1875 42.46875 C 73.882812 42.671875 73.5625 42.84375 73.222656 42.984375 C 72.886719 43.125 72.539062 43.230469 72.179688 43.300781 C 71.820312 43.371094 71.457031 43.40625 71.09375 43.40625 C 70.726562 43.40625 70.363281 43.371094 70.003906 43.300781 C 69.648438 43.230469 69.296875 43.125 68.960938 42.984375 C 68.621094 42.84375 68.300781 42.671875 67.996094 42.46875 C 67.691406 42.265625 67.410156 42.035156 67.152344 41.777344 C 66.894531 41.515625 66.664062 41.234375 66.460938 40.933594 C 66.257812 40.628906 66.085938 40.304688 65.945312 39.96875 C 65.804688 39.628906 65.699219 39.28125 65.628906 38.921875 C 65.558594 38.566406 65.519531 38.203125 65.519531 37.835938 C 65.519531 37.46875 65.558594 37.109375 65.628906 36.75 C 65.699219 36.390625 65.804688 36.042969 65.945312 35.703125 C 66.085938 35.367188 66.257812 35.046875 66.460938 34.742188 C 66.664062 34.4375 66.894531 34.15625 67.152344 33.898438 C 67.410156 33.636719 67.691406 33.40625 67.996094 33.203125 C 68.300781 33 68.621094 32.828125 68.960938 32.6875 C 69.296875 32.550781 69.648438 32.445312 70.003906 32.371094 C 70.363281 32.300781 70.726562 32.265625 71.09375 32.265625 C 71.457031 32.265625 71.820312 32.300781 72.179688 32.371094 C 72.539062 32.445312 72.886719 32.550781 73.222656 32.6875 C 73.5625 32.828125 73.882812 33 74.1875 33.203125 C 74.492188 33.40625 74.773438 33.636719 75.03125 33.898438 C 75.289062 34.15625 75.523438 34.4375 75.726562 34.742188 C 75.929688 35.046875 76.101562 35.367188 76.238281 35.703125 C 76.378906 36.042969 76.484375 36.390625 76.558594 36.75 C 76.628906 37.109375 76.664062 37.46875 76.664062 37.835938 Z M 76.664062 37.835938 " fill-opacity="1" fill-rule="nonzero"/></g></svg>