<svg width="60" height="61" viewBox="0 0 60 61" fill="none" xmlns="http://www.w3.org/2000/svg">
<path d="M33.6207 28.2148C34.4397 28.5078 35.2371 28.8301 36.0129 29.1816C36.7888 29.5332 37.5431 29.9336 38.2759 30.3828C37.8017 30.8516 37.3707 31.3398 36.9828 31.8477C36.5948 32.3555 36.2392 32.9023 35.9159 33.4883C34.2565 32.5117 32.4892 31.7695 30.6142 31.2617C28.7392 30.7539 26.8103 30.5 24.8276 30.5C22.931 30.5 21.0991 30.7246 19.3319 31.1738C17.5647 31.623 15.9159 32.248 14.3858 33.0488C12.8556 33.8496 11.4655 34.8262 10.2155 35.9785C8.96552 37.1309 7.88793 38.4004 6.98276 39.7871C6.07759 41.1738 5.37715 42.668 4.88147 44.2695C4.38578 45.8711 4.13793 47.5312 4.13793 49.25H0C0 46.9062 0.377155 44.6504 1.13147 42.4824C1.88578 40.3145 2.97414 38.3125 4.39655 36.4766C5.81897 34.6406 7.5 33.0098 9.43965 31.584C11.3793 30.1582 13.5776 29.0352 16.0345 28.2148C13.5991 26.7695 11.7026 24.9531 10.3448 22.7656C8.98707 20.5781 8.29741 18.1562 8.27586 15.5C8.27586 13.4297 8.7069 11.4863 9.56896 9.66992C10.431 7.85352 11.6056 6.26172 13.0927 4.89453C14.5797 3.52734 16.3362 2.45312 18.3621 1.67188C20.3879 0.890625 22.5431 0.5 24.8276 0.5C27.1121 0.5 29.2565 0.890625 31.2608 1.67188C33.2651 2.45312 35.0215 3.51758 36.5302 4.86523C38.0388 6.21289 39.2241 7.80469 40.0862 9.64062C40.9483 11.4766 41.3793 13.4297 41.3793 15.5C41.3793 16.7891 41.2069 18.0488 40.8621 19.2793C40.5172 20.5098 40 21.6719 39.3103 22.7656C38.6207 23.8594 37.8125 24.8652 36.8858 25.7832C35.959 26.7012 34.8707 27.5117 33.6207 28.2148ZM12.4138 15.5C12.4138 17.0625 12.7371 18.5176 13.3836 19.8652C14.0302 21.2129 14.9138 22.4043 16.0345 23.4395C17.1552 24.4746 18.4698 25.2852 19.9784 25.8711C21.4871 26.457 23.1034 26.75 24.8276 26.75C26.5302 26.75 28.1358 26.457 29.6444 25.8711C31.153 25.2852 32.4677 24.4844 33.5884 23.4688C34.709 22.4531 35.6034 21.2617 36.2715 19.8945C36.9397 18.5273 37.2629 17.0625 37.2414 15.5C37.2414 13.957 36.9181 12.502 36.2715 11.1348C35.625 9.76758 34.7414 8.57617 33.6207 7.56055C32.5 6.54492 31.1746 5.73438 29.6444 5.12891C28.1142 4.52344 26.5086 4.23047 24.8276 4.25C23.1034 4.25 21.4978 4.54297 20.0108 5.12891C18.5237 5.71484 17.2091 6.51562 16.0668 7.53125C14.9246 8.54688 14.0302 9.74805 13.3836 11.1348C12.7371 12.5215 12.4138 13.9766 12.4138 15.5ZM60 39.875C60 40.8906 59.8276 41.877 59.4828 42.834C59.1379 43.791 58.6207 44.6797 57.931 45.5V60.5L49.6552 56.75L41.3793 60.5V45.5C40.7112 44.6797 40.2047 43.791 39.8599 42.834C39.5151 41.877 39.3319 40.8906 39.3103 39.875C39.3103 38.5859 39.5797 37.375 40.1185 36.2422C40.6573 35.1094 41.3901 34.123 42.3168 33.2832C43.2435 32.4434 44.3427 31.7695 45.6142 31.2617C46.8858 30.7539 48.2328 30.5 49.6552 30.5C51.0776 30.5 52.4138 30.7441 53.6638 31.2324C54.9138 31.7207 56.0022 32.3945 56.9289 33.2539C57.8556 34.1133 58.5991 35.1094 59.1595 36.2422C59.7198 37.375 60 38.5859 60 39.875ZM49.6552 34.25C48.7931 34.25 47.9849 34.3965 47.2306 34.6895C46.4763 34.9824 45.819 35.3828 45.2586 35.8906C44.6983 36.3984 44.2565 36.9941 43.9332 37.6777C43.6099 38.3613 43.4483 39.0938 43.4483 39.875C43.4483 40.6562 43.6099 41.3887 43.9332 42.0723C44.2565 42.7559 44.6983 43.3516 45.2586 43.8594C45.819 44.3672 46.4763 44.7676 47.2306 45.0605C47.9849 45.3535 48.7931 45.5 49.6552 45.5C50.5172 45.5 51.3254 45.3535 52.0797 45.0605C52.834 44.7676 53.4914 44.3672 54.0517 43.8594C54.6121 43.3516 55.0539 42.7559 55.3772 42.0723C55.7004 41.3887 55.8621 40.6562 55.8621 39.875C55.8621 39.0938 55.7004 38.3613 55.3772 37.6777C55.0539 36.9941 54.6121 36.3984 54.0517 35.8906C53.4914 35.3828 52.834 34.9824 52.0797 34.6895C51.3254 34.3965 50.5172 34.25 49.6552 34.25ZM53.7931 54.4355V48.459C52.5 48.9863 51.1207 49.25 49.6552 49.25C48.1897 49.25 46.8103 48.9863 45.5172 48.459V54.4355C46.2069 54.123 46.8965 53.8203 47.5862 53.5273C48.2759 53.2344 48.9655 52.9121 49.6552 52.5605C50.3448 52.8926 51.0345 53.2051 51.7241 53.498C52.4138 53.791 53.1034 54.1035 53.7931 54.4355Z" fill="#4E2979"/>
</svg>
