<svg width="61" height="61" viewBox="0 0 61 61" fill="none" xmlns="http://www.w3.org/2000/svg">
<path d="M42.5005 8.75C42.5005 8.15326 42.7375 7.58097 43.1595 7.15901C43.5814 6.73705 44.1537 6.5 44.7505 6.5H52.2505C52.8472 6.5 53.4195 6.73705 53.8415 7.15901C54.2634 7.58097 54.5005 8.15326 54.5005 8.75V16.25C54.5005 16.8467 54.2634 17.419 53.8415 17.841C53.4195 18.2629 52.8472 18.5 52.2505 18.5C51.6537 18.5 51.0814 18.2629 50.6595 17.841C50.2375 17.419 50.0005 16.8467 50.0005 16.25V14.18L36.5905 27.59C36.1686 28.0114 35.5967 28.248 35.0005 28.248C34.4042 28.248 33.8323 28.0114 33.4105 27.59L26.0005 20.18L13.3405 32.84C13.1345 33.0611 12.8861 33.2384 12.6101 33.3613C12.3341 33.4843 12.0361 33.5504 11.734 33.5558C11.4319 33.5611 11.1318 33.5055 10.8517 33.3924C10.5715 33.2792 10.317 33.1108 10.1033 32.8971C9.88969 32.6835 9.72126 32.429 9.60809 32.1488C9.49493 31.8686 9.43936 31.5685 9.44469 31.2664C9.45002 30.9643 9.51614 30.6664 9.63912 30.3904C9.76209 30.1144 9.9394 29.866 10.1605 29.66L24.4105 15.41C24.8323 14.9886 25.4042 14.752 26.0005 14.752C26.5967 14.752 27.1686 14.9886 27.5905 15.41L35.0005 22.82L46.8205 11H44.7505C44.1537 11 43.5814 10.7629 43.1595 10.341C42.7375 9.91903 42.5005 9.34674 42.5005 8.75ZM11.7505 42.5C12.3472 42.5 12.9195 42.7371 13.3415 43.159C13.7634 43.581 14.0005 44.1533 14.0005 44.75V52.25C14.0005 52.8467 13.7634 53.419 13.3415 53.841C12.9195 54.2629 12.3472 54.5 11.7505 54.5C11.1537 54.5 10.5814 54.2629 10.1595 53.841C9.73751 53.419 9.50046 52.8467 9.50046 52.25V44.75C9.50046 44.1533 9.73751 43.581 10.1595 43.159C10.5814 42.7371 11.1537 42.5 11.7505 42.5ZM26.0005 35.75C26.0005 35.1533 25.7634 34.581 25.3414 34.159C24.9195 33.7371 24.3472 33.5 23.7505 33.5C23.1537 33.5 22.5814 33.7371 22.1595 34.159C21.7375 34.581 21.5005 35.1533 21.5005 35.75V52.25C21.5005 52.8467 21.7375 53.419 22.1595 53.841C22.5814 54.2629 23.1537 54.5 23.7505 54.5C24.3472 54.5 24.9195 54.2629 25.3414 53.841C25.7634 53.419 26.0005 52.8467 26.0005 52.25V35.75ZM35.7505 39.5C36.3472 39.5 36.9195 39.7371 37.3414 40.159C37.7634 40.581 38.0005 41.1533 38.0005 41.75V52.25C38.0005 52.8467 37.7634 53.419 37.3414 53.841C36.9195 54.2629 36.3472 54.5 35.7505 54.5C35.1537 54.5 34.5814 54.2629 34.1595 53.841C33.7375 53.419 33.5005 52.8467 33.5005 52.25V41.75C33.5005 41.1533 33.7375 40.581 34.1595 40.159C34.5814 39.7371 35.1537 39.5 35.7505 39.5ZM50.0005 29.75C50.0005 29.1533 49.7634 28.581 49.3415 28.159C48.9195 27.7371 48.3472 27.5 47.7505 27.5C47.1537 27.5 46.5814 27.7371 46.1595 28.159C45.7375 28.581 45.5005 29.1533 45.5005 29.75V52.25C45.5005 52.8467 45.7375 53.419 46.1595 53.841C46.5814 54.2629 47.1537 54.5 47.7505 54.5C48.3472 54.5 48.9195 54.2629 49.3415 53.841C49.7634 53.419 50.0005 52.8467 50.0005 52.25V29.75Z" fill="#4E2979"/>
</svg>
