<svg width="61" height="61" viewBox="0 0 61 61" fill="none" xmlns="http://www.w3.org/2000/svg">
<path d="M38 53H23M38 53V32C38 31.6022 37.842 31.2207 37.5607 30.9394C37.2794 30.6581 36.8978 30.5 36.5 30.5H24.5C24.1022 30.5 23.7206 30.6581 23.4393 30.9394C23.158 31.2207 23 31.6022 23 32V53M38 53H51.5C51.8978 53 52.2794 52.842 52.5607 52.5607C52.842 52.2794 53 51.8979 53 51.5V45.75C53 45.3522 52.842 44.9707 52.5607 44.6894C52.2794 44.4081 51.8978 44.25 51.5 44.25H39.5C39.1022 44.25 38.7206 44.4081 38.4393 44.6894C38.158 44.9707 38 45.3522 38 45.75V53ZM23 53V40.75C23 40.3522 22.842 39.9707 22.5607 39.6894C22.2794 39.4081 21.8978 39.25 21.5 39.25H9.5C9.10218 39.25 8.72064 39.4081 8.43934 39.6894C8.15804 39.9707 8 40.3522 8 40.75V51.5C8 51.8979 8.15804 52.2794 8.43934 52.5607C8.72064 52.842 9.10218 53 9.5 53H23ZM27.515 13.2825L29.7875 8.46504C29.8489 8.32732 29.9488 8.21033 30.0753 8.12823C30.2017 8.04613 30.3492 8.00244 30.5 8.00244C30.6508 8.00244 30.7983 8.04613 30.9248 8.12823C31.0512 8.21033 31.1512 8.32732 31.2125 8.46504L33.4875 13.2825L38.5675 14.06C39.22 14.16 39.48 15 39.0075 15.48L35.3325 19.23L36.2 24.525C36.31 25.205 35.63 25.725 35.045 25.4025L30.5 22.9025L25.955 25.4025C25.3725 25.7225 24.69 25.205 24.8 24.525L25.6675 19.23L21.9925 15.48C21.5175 15 21.78 14.16 22.43 14.06L27.515 13.2825Z" stroke="#4E2979" stroke-width="2.5" stroke-linecap="round" stroke-linejoin="round"/>
</svg>
