<svg width="60" height="61" viewBox="0 0 60 61" fill="none" xmlns="http://www.w3.org/2000/svg">
<path d="M6.25 19.425C6.25 12.51 12.3175 6.75 20 6.75C25.6875 6.75 30.52 9.925 32.62 14.3825C32.7685 14.6701 33.0228 14.8889 33.3293 14.9929C33.6358 15.0968 33.9708 15.0778 34.2636 14.9398C34.5564 14.8019 34.7843 14.5557 34.8992 14.2531C35.0142 13.9505 35.0073 13.6151 34.88 13.3175C32.35 7.945 26.6125 4.25 20 4.25C11.115 4.25 3.75 10.9575 3.75 19.425C3.75 22.675 4.845 25.6775 6.6925 28.1375L4.8075 33.6775C4.1 35.7625 6.42 37.5675 8.2675 36.375L13.1775 33.2C14.0658 33.5867 14.9933 33.895 15.96 34.125C16.1219 34.1701 16.2913 34.1821 16.4579 34.1602C16.6246 34.1384 16.7851 34.0831 16.9299 33.9978C17.0747 33.9125 17.2008 33.7988 17.3007 33.6636C17.4006 33.5285 17.4722 33.3745 17.5112 33.211C17.5502 33.0475 17.5559 32.8779 17.5278 32.7121C17.4998 32.5464 17.4386 32.3881 17.3479 32.2465C17.2572 32.105 17.139 31.9832 17.0001 31.8885C16.8613 31.7937 16.7048 31.7279 16.54 31.695C15.5323 31.4537 14.5534 31.105 13.62 30.655L12.9875 30.3475L7.34 33.9975L9.5025 27.6375L9.0575 27.1C7.25251 24.9489 6.25902 22.233 6.25 19.425ZM37.475 30.175C38.8375 29.1675 40.6375 29.0625 42.0125 29.48C45.5825 30.57 46.66 34.5175 45.6875 37.44C44.9375 39.7475 43.2725 41.4325 41.7025 42.5225C40.9852 43.0205 40.2177 43.442 39.4125 43.78C38.755 44.05 38.0575 44.25 37.5 44.25C36.9425 44.25 36.25 44.05 35.5925 43.7825C34.7895 43.4496 34.025 43.0305 33.3125 42.5325C31.7475 41.4425 30.0875 39.7575 29.3125 37.4475C28.3375 34.5125 29.42 30.6025 32.975 29.4825L32.9875 29.48C34.395 29.0525 36.1275 29.215 37.475 30.175ZM41.285 31.87C40.235 31.5525 39.08 31.8375 38.5275 32.635L37.545 34.06L36.5025 32.6775C35.8775 31.8525 34.715 31.57 33.7175 31.87C31.8775 32.4525 31.015 34.64 31.685 36.6525C32.235 38.2925 33.4525 39.5825 34.7425 40.48C35.38 40.925 36.01 41.255 36.5375 41.4675C36.8008 41.5742 37.0233 41.65 37.205 41.695L37.42 41.74C37.47 41.7483 37.4967 41.7517 37.5 41.75L37.5775 41.7425L37.795 41.695C37.9767 41.6483 38.2017 41.5717 38.47 41.465C39.1052 41.1965 39.7109 40.8631 40.2775 40.47C41.575 39.57 42.785 38.28 43.31 36.665L43.3125 36.655C43.9875 34.63 43.11 32.43 41.285 31.87Z" fill="#4E2979"/>
<path d="M37.5 19.25C27.2325 19.25 18.75 27 18.75 36.75C18.75 46.5 27.2325 54.25 37.5 54.25C40.35 54.25 43.055 53.6575 45.4775 52.5925L51.3025 56.355C53.2925 57.6425 55.79 55.695 55.0275 53.45L52.7925 46.88C55.0286 43.9759 56.2439 40.4152 56.25 36.75C56.25 27 47.7675 19.25 37.5 19.25ZM21.25 36.75C21.25 28.55 28.4375 21.75 37.5 21.75C46.5625 21.75 53.75 28.55 53.75 36.75C53.7404 40.0759 52.5637 43.2929 50.425 45.84L49.98 46.38L52.66 54.255L45.6675 49.7375L45.035 50.0425C42.785 51.1325 40.225 51.75 37.5 51.75C28.4375 51.75 21.25 44.95 21.25 36.75ZM13.75 14.25C13.4185 14.25 13.1005 14.3817 12.8661 14.6161C12.6317 14.8505 12.5 15.1685 12.5 15.5C12.5 15.8315 12.6317 16.1495 12.8661 16.3839C13.1005 16.6183 13.4185 16.75 13.75 16.75H26.25C26.5815 16.75 26.8995 16.6183 27.1339 16.3839C27.3683 16.1495 27.5 15.8315 27.5 15.5C27.5 15.1685 27.3683 14.8505 27.1339 14.6161C26.8995 14.3817 26.5815 14.25 26.25 14.25H13.75ZM12.5 25.5C12.5 25.1685 12.6317 24.8505 12.8661 24.6161C13.1005 24.3817 13.4185 24.25 13.75 24.25H16.25C16.5815 24.25 16.8995 24.3817 17.1339 24.6161C17.3683 24.8505 17.5 25.1685 17.5 25.5C17.5 25.8315 17.3683 26.1495 17.1339 26.3839C16.8995 26.6183 16.5815 26.75 16.25 26.75H13.75C13.4185 26.75 13.1005 26.6183 12.8661 26.3839C12.6317 26.1495 12.5 25.8315 12.5 25.5ZM13.75 19.25C13.4185 19.25 13.1005 19.3817 12.8661 19.6161C12.6317 19.8505 12.5 20.1685 12.5 20.5C12.5 20.8315 12.6317 21.1495 12.8661 21.3839C13.1005 21.6183 13.4185 21.75 13.75 21.75H21.25C21.5815 21.75 21.8995 21.6183 22.1339 21.3839C22.3683 21.1495 22.5 20.8315 22.5 20.5C22.5 20.1685 22.3683 19.8505 22.1339 19.6161C21.8995 19.3817 21.5815 19.25 21.25 19.25H13.75Z" fill="#4E2979"/>
</svg>
