<svg xmlns="http://www.w3.org/2000/svg" width="1512" height="757" viewBox="0 0 1512 757" fill="none"><path fill-rule="evenodd" clip-rule="evenodd" d="M763.886 150.783C835.038 93.4531 896.633 59.7753 952.167 50.7035C1028.66 38.2083 1100.22 71.9245 1176.89 177.535C1270.54 306.526 1367.76 370.056 1452.73 389.052C1537.51 408.007 1758.01 364 1806.47 243.423L1758.01 205.346C1748.2 309.769 1533.65 358.39 1463.11 342.62C1392.76 326.892 1304.53 272.358 1215.4 149.583C1133.25 36.4419 1045.92 -12.8204 944.497 3.74784C848.939 19.3578 747.41 93.0094 632.142 204.845C614.484 218.997 597.216 233.32 580.797 247.517C570.693 256.27 560.62 265.14 550.695 274.092C516.456 304.978 483.204 337.359 451.665 370.436C448.267 374.064 445.05 377.827 442.018 381.712C401.08 424.731 317.875 511.384 212.187 584.725C100.824 662.005 -31.4502 721.64 -162.924 704.379C-228.45 695.777 -273.406 671.61 -304.677 641.33C-336.19 610.816 -355.136 572.787 -366.239 534.685C-377.353 496.542 -380.364 459.131 -380.526 431.03C-380.606 417.043 -379.98 405.523 -379.344 397.582C-379.027 393.615 -378.708 390.553 -378.477 388.536C-378.361 387.527 -378.267 386.781 -378.206 386.314C-378.175 386.081 -378.153 385.918 -378.141 385.826L-378.131 385.755C-378.132 385.763 -378.133 385.772 -401.674 382.344C-425.215 378.917 -425.216 378.928 -425.218 378.941L-425.223 378.973L-425.235 379.057C-425.244 379.123 -425.256 379.207 -425.27 379.31C-425.299 379.516 -425.337 379.796 -425.383 380.148C-425.475 380.852 -425.599 381.844 -425.744 383.107C-426.034 385.63 -426.407 389.238 -426.771 393.787C-427.498 402.876 -428.192 415.767 -428.103 431.304C-427.925 462.251 -424.638 504.337 -411.917 547.995C-399.183 591.693 -376.754 637.766 -337.774 675.51C-298.553 713.488 -243.898 741.735 -169.117 751.553C-19.9769 771.133 124.651 703.382 239.312 623.814C304.672 578.458 361.612 528.33 405.685 486.05C405.312 511.277 410.345 536.691 421.102 560.231C436.416 595.72 457.424 628.387 483.564 657.364L483.568 657.288L484.035 657.807C513.454 690.26 548.01 716.706 586.867 736.381C658.009 771.97 745.07 760.452 803.503 707.742C836.347 678.115 858.226 637.053 865.197 591.726C866.479 582.328 867.194 572.863 867.455 563.375C887.491 555.133 905.916 543.501 922.298 528.723C980.891 475.869 1000.8 391.111 971.649 317.281C958.45 285.739 939.72 256.079 917.463 231.406C898.407 210.28 875.555 191.278 851.502 176.395C827.821 161.683 801.209 152.939 774.502 151.222C770.914 150.991 767.375 150.845 763.886 150.783ZM881.666 263.77C865.63 245.992 846.424 229.99 826.128 217.429C809.079 206.783 790.167 200.564 771.377 199.368C749.103 197.917 730.078 200.548 714.796 207.249C700.255 213.57 686.872 223.257 676.822 230.949C673.182 233.726 669.574 236.619 665.967 239.512C647.139 254.544 629.273 269.359 612.328 283.993C602.462 292.531 592.669 301.149 582.983 309.886C549.621 339.981 517.25 371.494 486.715 403.521C452.929 439.637 444.197 494.793 465.169 540.722C478.619 571.82 496.813 600.085 519.393 625.116C531.115 638.11 549.198 655.993 574.274 673.134C578.239 675.846 594.495 686.413 608.54 693.408C662.008 720.144 727.442 711.579 771.287 672.028C795.562 650.131 812.399 618.388 817.584 584.866C817.996 582.036 818.296 579.163 818.56 576.25C757.745 583.685 695.731 561.26 653.951 514.943C617.168 474.167 620.416 411.09 661.152 374.343C701.888 337.597 765.006 340.809 801.788 381.585C834.161 418.675 855.547 463.942 863.797 511.876C873.188 506.658 881.987 500.384 890.158 493.013C933.883 453.57 948.774 390.256 927.118 335.474C916.147 309.368 900.406 284.385 881.746 263.698L881.666 263.77ZM765.631 413.55C746.929 392.861 714.397 391.161 693.364 410.133C672.319 429.117 670.68 461.682 689.628 482.687C721.952 518.521 770.466 535.196 817.407 527.769C811.706 485.705 793.733 445.746 765.631 413.55Z" fill="#31205B"></path></svg>