<svg xmlns="http://www.w3.org/2000/svg" width="212" height="263" viewBox="0 0 212 263" fill="none"><path d="M103.394 263C86.5557 263 70.0181 260.281 54.2218 254.913C25.7096 245.896 4.74817 219.798 2.2467 190.052C0.76434 170.321 0 150.243 0 130.28C0 124.493 0.0694854 118.683 0.185294 112.897C0.393751 102.927 0.833825 92.6089 1.45919 82.2209C1.62133 79.7808 1.73714 77.666 1.89927 75.5512C2.43199 68.8815 3.40479 60.1435 6.27685 51.5217C9.61215 41.4823 16.028 31.7915 25.3159 22.7049C33.5846 14.6176 44.0769 8.59857 55.6347 5.2521C67.3545 1.83591 80.0472 0 92.323 0C106.66 0 121.576 2.57957 135.497 7.48308C167.576 19.5211 188.977 50.4992 188.977 84.661C188.977 94.2124 187.379 103.508 184.229 112.339C187.194 115.174 190.019 118.149 192.66 121.286C205.167 136.671 212 155.611 212 174.76C212 208.829 190.529 240.156 158.566 252.705C141.032 259.491 122.572 262.93 103.672 262.977H103.371L103.394 263ZM92.3461 20.8922C82.0159 20.8922 71.3384 22.426 61.4483 25.3077C53.11 27.7013 45.6519 31.9774 39.8383 37.671C32.9361 44.4104 28.2806 51.2893 26.0107 58.1449C23.8335 64.6519 23.0692 71.7632 22.6291 77.2244C22.467 79.1998 22.3511 81.1984 22.2353 83.197C21.61 93.6082 21.1931 103.648 20.9846 113.338C20.8688 118.986 20.7993 124.633 20.7993 130.28C20.7993 149.731 21.5405 169.276 22.9765 188.378C24.7831 209.712 39.931 228.513 60.7071 235.089C74.5578 239.784 88.8718 242.131 103.417 242.131C110.968 242.131 121.924 241.504 134.663 238.413C136.678 237.925 144.761 235.763 151.061 233.277C175.08 223.842 191.247 200.323 191.247 174.76C191.247 160.607 185.943 145.99 176.701 134.602C175.914 133.65 175.08 132.72 174.223 131.79C159.029 153.496 133.922 166.928 107.008 166.928C83.313 166.928 64.0424 147.593 64.0424 123.843C64.0424 100.092 83.313 80.7336 107.008 80.7336C128.247 81.0822 148.93 87.3336 166.672 98.5814C167.715 94.0498 168.247 89.4019 168.247 84.6378C168.247 59.1442 152.266 35.9978 128.455 27.0739C116.921 23.0302 104.367 20.8457 92.3461 20.8457V20.8922ZM106.822 101.626C94.7781 101.626 84.8185 111.595 84.8185 123.866C84.8185 136.136 94.7781 146.106 106.984 146.106C127.807 146.106 147.17 135.346 158.357 118.103C143.233 107.738 125.236 101.928 106.799 101.626H106.822Z" fill="#1A1A1A"></path></svg>