<svg xmlns="http://www.w3.org/2000/svg" xmlns:xlink="http://www.w3.org/1999/xlink" width="516" zoomAndPan="magnify" viewBox="0 0 386.88 307.499996" height="410" preserveAspectRatio="xMidYMid meet" version="1.0"><defs><filter x="0%" y="0%" width="100%" height="100%" id="25b61c52ef"><feColorMatrix values="0 0 0 0 1 0 0 0 0 1 0 0 0 0 1 0 0 0 1 0" color-interpolation-filters="sRGB"/></filter><clipPath id="2116922e78"><path d="M 0.253906 0 L 386.507812 0 L 386.507812 307 L 0.253906 307 Z M 0.253906 0 " clip-rule="nonzero"/></clipPath><mask id="8933df74d8"><g filter="url(#25b61c52ef)"><rect x="-38.688" width="464.256" fill="#000000" y="-30.75" height="368.999995" fill-opacity="0.49"/></g></mask><clipPath id="4979d5305a"><path d="M 136 96 L 348 96 L 348 307 L 136 307 Z M 136 96 " clip-rule="nonzero"/></clipPath><clipPath id="f812851012"><path d="M 134 0 L 347 0 L 347 171 L 134 171 Z M 134 0 " clip-rule="nonzero"/></clipPath><clipPath id="9768f97bbf"><rect x="0" width="387" y="0" height="307"/></clipPath></defs><g clip-path="url(#2116922e78)"><g mask="url(#8933df74d8)"><g transform="matrix(1, 0, 0, 1, 0.000000000000000056, 0)"><g clip-path="url(#9768f97bbf)"><path fill="#4f297a" d="M 115.144531 49.605469 L 115.144531 100.046875 L 90.859375 86.246094 C 90.859375 86.246094 82.757812 77.734375 83.800781 95.796875 C 84.839844 113.851562 83.703125 216.597656 83.703125 216.597656 C 83.703125 216.597656 80.785156 226.765625 100.292969 214.210938 L 178.648438 169.175781 C 178.648438 169.175781 185.8125 161.394531 198.570312 171.042969 L 230.636719 190.03125 L 104.539062 261.328125 C 104.539062 261.328125 85.550781 279.382812 56.90625 257.898438 C 56.90625 257.898438 38.847656 247.625 39.15625 222.40625 L 39.15625 76.386719 C 39.15625 76.386719 47.5625 36.847656 80.253906 37.78125 C 80.253906 37.78125 105.167969 37.78125 115.125 49.617188 L 115.144531 49.617188 Z M 115.144531 49.605469 " fill-opacity="1" fill-rule="nonzero"/><g clip-path="url(#4979d5305a)"><path fill="#cd8df8" d="M 137.472656 267.199219 L 181.152344 241.980469 L 181.34375 269.917969 C 181.34375 269.917969 178.023438 281.183594 193.140625 271.253906 C 208.257812 261.328125 297.800781 210.925781 297.800781 210.925781 C 297.800781 210.925781 308.066406 208.367188 287.441406 197.753906 L 209.25 152.417969 C 209.25 152.417969 198.925781 150.109375 200.902344 134.230469 L 201.316406 96.964844 L 326.113281 170.511719 C 326.113281 170.511719 351.246094 177.925781 346.96875 213.480469 C 346.96875 213.480469 347.105469 234.257812 325.109375 246.59375 L 198.65625 319.613281 C 198.65625 319.613281 160.207031 332.101562 144.675781 303.320312 C 144.675781 303.320312 132.226562 281.75 137.484375 267.210938 Z M 137.472656 267.199219 " fill-opacity="1" fill-rule="nonzero"/></g><g clip-path="url(#f812851012)"><path fill="#a100ff" d="M 313.890625 140.824219 L 270.222656 115.585938 L 294.324219 101.46875 C 294.324219 101.46875 305.746094 98.714844 289.585938 90.578125 C 273.441406 82.441406 185.050781 30.039062 185.050781 30.039062 C 185.050781 30.039062 177.703125 22.421875 178.8125 45.601562 L 178.589844 135.980469 C 178.589844 135.980469 181.75 146.074219 166.996094 152.292969 L 134.507812 170.550781 L 135.882812 25.707031 C 135.882812 25.707031 129.761719 0.226562 162.691406 -13.820312 C 162.691406 -13.820312 180.621094 -24.316406 202.296875 -11.425781 L 328.722656 61.652344 C 328.722656 61.652344 358.746094 88.722656 341.578125 116.558594 C 341.578125 116.558594 329.105469 138.121094 313.882812 140.824219 Z M 313.890625 140.824219 " fill-opacity="1" fill-rule="nonzero"/></g></g></g></g></g></svg>