<svg xmlns="http://www.w3.org/2000/svg" width="111" height="100" viewBox="0 0 111 100" fill="none"><path d="M41.0957 98.6072C40.9984 98.6384 40.901 98.6696 40.7948 98.6731C38.1603 98.9682 35.2691 99.1321 31.7053 99.2066C31.096 99.2188 30.6572 98.902 30.4711 98.3212C30.4445 98.2383 30.418 98.1553 30.3775 98.0768C27.0064 91.335 23.5608 83.2601 23.6611 74.3847C23.6622 73.9574 23.5014 73.5515 23.2055 73.2499C22.9096 72.9483 22.5012 72.7742 22.072 72.7744C20.9228 72.7767 19.7692 72.7651 18.6295 72.749C18.4588 72.7427 18.2831 72.7685 18.1162 72.822C17.7269 72.9467 17.3958 73.2053 17.2063 73.5709C17.1355 73.6851 17.0408 73.8679 17.0023 73.987C17.0023 73.987 16.9549 74.0784 16.8658 74.1831C16.0634 75.1721 14.6858 76.0404 13.1841 76.5215C11.6824 77.0026 10.2323 77.0707 9.08365 76.6916C8.53681 76.5161 8.14476 76.1538 8.0169 75.7069C5.66246 69.5542 3.72086 63.5895 1.59885 56.966C1.52354 56.7309 1.39261 56.5136 1.21492 56.3418C0.809588 55.9381 0.719628 55.418 0.962152 54.8829C1.78951 53.0626 3.52093 51.6236 5.71787 50.9197C7.26129 50.4253 8.90537 50.3407 10.3682 50.6954C10.5844 50.7481 10.7494 50.8325 10.891 50.9396C11.3248 51.2885 11.8912 51.3815 12.3918 51.2211C12.5864 51.1588 12.7817 51.0505 12.9359 50.9096C22.5054 42.7817 31.7283 34.0025 40.6428 25.5051C49.0891 17.5084 57.7136 9.30214 66.6265 1.61334C66.7807 1.47246 66.9526 1.38689 67.1333 1.32898C67.2307 1.2978 67.328 1.26662 67.4342 1.26309C67.5543 1.25511 67.6516 1.22393 67.7628 1.18829C67.8463 1.16156 67.9436 1.13038 68.0182 1.07599C68.0972 1.03544 68.1762 0.994884 68.2735 0.963699C68.7045 0.825605 69.1559 0.894464 69.5258 1.18763C87.718 14.6622 92.7037 43.1932 91.4302 63.5292C91.4114 63.9011 91.2781 64.203 91.0304 64.4348C90.8762 64.5757 90.7632 64.7492 90.6867 64.9414C90.6154 65.1015 90.4783 65.3436 90.0473 65.4817L89.936 65.5173C76.8249 68.9554 62.5863 71.1233 46.4388 72.1188C46.3048 72.1313 46.1708 72.1437 46.0457 72.1838C45.4895 72.362 45.0725 72.831 44.9539 73.4179C44.1647 77.5588 42.0309 81.4747 38.78 84.7271C38.3592 85.1364 38.2172 85.746 38.3805 86.3036C39.2983 89.4554 40.5846 92.6569 42.2831 96.0922C42.6829 96.9094 42.2501 97.5207 41.9601 97.8119C41.8805 97.8983 41.8148 97.9804 41.7535 98.0763C41.5886 98.3273 41.3694 98.5043 41.0774 98.5978L41.0957 98.6072ZM27.4152 72.8465C26.7617 73.0559 26.2967 73.6623 26.2919 74.3652C26.2768 82.7407 29.3668 90.1366 32.0529 95.6494C32.3268 96.2172 32.9129 96.5631 33.5501 96.542C34.6859 96.4982 35.8774 96.4367 37.1524 96.3484C37.2864 96.336 37.4159 96.3097 37.5411 96.2697C37.9026 96.1538 38.2243 95.9136 38.4226 95.5756C38.6917 95.1234 38.7313 94.5771 38.5207 94.1109C35.3093 86.8148 33.9118 80.5386 34.1009 74.3334C34.1159 73.9017 33.9464 73.4681 33.6321 73.1571C33.3178 72.8461 32.8955 72.6765 32.4524 72.6812C30.929 72.7118 29.4057 72.7425 27.8734 72.7454C27.7072 72.753 27.5454 72.7743 27.3924 72.8233L27.4152 72.8465ZM37.8436 72.6159C37.204 72.8208 36.7485 73.409 36.7209 74.0887C36.669 75.5538 36.7277 77.0292 36.8775 78.5974C36.9423 79.278 37.4425 79.8344 38.105 79.988C38.404 80.06 38.6903 80.0445 38.9684 79.9554C39.316 79.844 39.6238 79.6082 39.8405 79.2796C40.807 77.7501 41.5156 76.1814 42.0049 74.4542C42.1545 73.9641 42.0462 73.4346 41.7192 73.0362C41.4062 72.6334 40.9061 72.4124 40.389 72.4256L38.2601 72.5282C38.1078 72.5313 37.9643 72.562 37.8392 72.6021L37.8436 72.6159ZM62.005 9.34527C61.7964 9.41209 61.5872 9.52485 61.4096 9.68847C54.9164 15.55 48.573 21.5923 42.4355 27.4161L42.3092 27.548C32.9087 36.4908 23.1722 45.7243 13.0762 54.219C12.6048 54.614 12.3978 55.2597 12.5604 55.8632C13.8885 60.7742 15.224 65.4694 16.2475 68.999C16.4463 69.6672 17.0583 70.142 17.7688 70.1583C43.8902 70.4806 63.7156 68.8099 82.0407 64.7534C82.0963 64.7356 82.138 64.7222 82.1798 64.7089C82.7359 64.5307 83.1669 64.0572 83.2716 63.4747C83.3908 62.8419 83.1086 62.2004 82.5687 61.855C74.1267 56.4177 69.5158 45.7582 67.1259 37.772C63.9676 27.196 62.963 18.4611 64.0859 11.1029C64.1918 10.4286 63.8591 9.77281 63.254 9.4635C62.8646 9.25284 62.4126 9.22991 62.0094 9.3591L62.005 9.34527ZM69.0166 5.10157C68.5438 5.25302 68.1558 5.62128 67.9879 6.102C66.1466 11.266 65.7395 17.5563 66.7688 24.7891C66.8829 25.5759 67.5626 26.1662 68.3565 26.1558C73.2395 26.1314 77.1407 28.7848 79.0495 33.4031C81.2621 38.7778 80.0199 45.0459 75.9658 48.9977C75.4281 49.5207 75.3247 50.3467 75.727 50.9801C78.8085 55.9088 82.5146 59.3413 86.7637 61.1667C87.1215 61.3265 87.5229 61.3351 87.8984 61.2148C88.0235 61.1747 88.1581 61.1164 88.27 61.0348C88.7168 60.7544 89.0004 60.2519 89.0122 59.7145C89.2304 48.5751 87.8778 20.9995 70.5906 5.42062C70.1986 5.05831 69.6372 4.93322 69.1234 5.0521C69.0956 5.06101 69.0538 5.07438 69.026 5.08328L69.0166 5.10157ZM6.61705 53.3914C6.25552 53.5072 5.33277 53.8333 4.64333 54.3134C4.08407 54.7213 3.83909 55.4401 4.05173 56.1039C5.82376 61.635 7.72992 67.4891 9.86361 73.2398C10.1578 74.0146 10.9873 74.4503 11.8027 74.2195C11.9278 74.1795 12.0668 74.1349 12.2337 74.0815C12.7065 73.93 13.1286 73.7642 13.4213 73.6248C14.1455 73.3012 14.5118 72.4825 14.3004 71.7269C12.7782 66.4969 11.0369 60.3918 9.42459 54.3063C9.21379 53.5048 8.42219 52.996 7.60809 53.1349C7.3028 53.1869 6.96466 53.28 6.63095 53.3869L6.61705 53.3914ZM69.015 29.0248C68.7647 29.105 68.5322 29.2405 68.3496 29.4362C67.9705 29.8321 67.8107 30.3864 67.9329 30.9114C68.3002 32.4405 68.704 33.9882 69.1591 35.5044C70.2946 39.2878 71.4741 42.5388 72.7874 45.4419C73.0114 45.9495 73.4913 46.2989 74.0489 46.3642C74.2884 46.3942 74.5103 46.3689 74.7328 46.2976C75.0248 46.2041 75.3041 46.0231 75.4968 45.7631C77.825 42.8369 78.4214 38.956 77.1078 35.3821C75.8474 31.9742 73.1834 29.641 69.7957 28.9729C69.5194 28.9242 69.247 28.9352 68.9967 29.0154L69.015 29.0248ZM99.7538 51.943C99.2532 52.1033 98.6274 51.9684 98.2581 51.6293C97.8888 51.2902 97.8949 50.8308 97.9776 50.5146C101.822 34.6152 97.9921 19.0704 87.2288 6.72267C86.8924 6.34254 86.7835 5.85903 86.9192 5.37338C87.0644 4.86946 87.4675 4.40488 87.8847 4.27124C88.0237 4.22669 88.3713 4.11532 88.8077 4.61591C100.394 17.9046 104.557 34.3945 100.541 51.0504C100.433 51.5271 100.175 51.8231 99.7582 51.9568L99.7538 51.943ZM110.065 38.3781C109.634 38.5162 109.054 38.3818 108.639 38.0422C108.246 37.7258 108.054 37.269 108.089 36.7548C108.95 27.5746 106.683 19.0153 101.331 11.3072C101.1 10.9695 101.04 10.6381 101.137 10.3175C101.271 9.9237 101.663 9.56928 102.108 9.42673C102.692 9.23963 103.193 9.41465 103.537 9.91431C109.174 18.0342 111.542 27.3388 110.584 37.5564C110.52 38.2173 110.172 38.3287 110.033 38.3732L110.065 38.3781Z" fill="#3EE595"></path></svg>