<svg xmlns="http://www.w3.org/2000/svg" width="32" height="30" viewBox="0 0 32 30" fill="none"><path d="M21 8.33329V3.66663C21 2.56206 20.1046 1.66663 19 1.66663H13C11.8954 1.66663 11 2.56205 11 3.66662V8.33329M21 8.33329H29C30.1046 8.33329 31 9.22872 31 10.3333V16.6666M21 8.33329H11M11 8.33329H3C1.89543 8.33329 1 9.22872 1 10.3333V16.6666M1 16.6666V26.3333C1 27.4379 1.89543 28.3333 3 28.3333H29C30.1046 28.3333 31 27.4379 31 26.3333V16.6666M1 16.6666H12.6667M31 16.6666H19.3333M19.3333 16.6666V13.3333H12.6667V16.6666M19.3333 16.6666V20H12.6667V16.6666" stroke="#3EE595" stroke-width="2" stroke-linecap="round" stroke-linejoin="round"></path></svg>