<svg xmlns="http://www.w3.org/2000/svg" width="470" height="129" viewBox="0 0 470 129" fill="none"><path d="M76.0909 40.6006H71.2048L15.2519 81.1412V0.421021L0 3.37351V126.696H15.2519V85.5298L32.3089 72.9015L71.0123 126.696H88.3902L44.1109 64.2125L76.0909 40.6006Z" fill="white"></path><path d="M112.82 3.04452C110.959 3.04452 109.346 3.72648 107.982 5.09843C106.618 6.47038 105.937 8.07499 105.937 9.93635C105.937 11.3564 106.538 14.3651 107.742 18.9543C108.945 23.4392 109.924 27.7877 110.694 31.9918C111.456 36.2039 111.954 40.9857 112.17 46.3371H113.486C113.815 40.9857 114.361 36.2841 115.131 32.2325C115.893 28.1889 116.88 23.7601 118.083 18.9463C119.175 14.7903 119.72 11.7897 119.72 9.92832C119.72 8.06697 119.062 6.45433 117.755 5.09041C116.439 3.72648 114.802 3.0365 112.836 3.0365" fill="white"></path><path d="M142.345 126.696H157.589V0.421021L142.345 3.37351V126.696Z" fill="white"></path><path d="M252.374 96.1524C247.127 104.352 241.198 110.859 234.579 115.664C227.96 120.478 221.317 123.744 214.649 123.744C208.961 123.744 204.757 122.46 202.021 119.893C199.285 117.325 197.616 114.477 197.015 111.364C196.413 108.251 196.116 104.777 196.116 100.95V40.6006H180.864V101.44C180.864 110.401 183.408 117.077 188.494 121.449C193.581 125.822 199.999 128.012 207.766 128.012C215.965 128.012 223.892 126.391 231.546 121.417C239.2 116.443 246.196 109.366 252.534 100.18L254.997 126.704H267.786V40.6006H252.374V96.1524Z" fill="white"></path><path d="M368.853 40.6006H364.994L332.998 77.6351L305.342 40.6006H287.635L321.798 86.4284L285.91 126.696H289.761L323.531 88.739L351.756 126.696H369.631L334.691 79.8976L368.853 40.6006Z" fill="white"></path><path d="M408.655 49.5383C414.665 44.0185 422.367 41.9244 432.315 41.9244C438.22 41.9244 443.251 42.799 447.784 44.9331C452.317 47.0672 455.967 50.0839 458.455 53.8708C463.092 60.9311 462.129 68.4327 461.495 70.2299L397.287 70.27C398.931 60.9792 402.638 55.0582 408.655 49.5303M468.058 92.2372C464.344 101.311 459.875 108.468 453.312 113.546C446.757 118.633 439.263 121.433 430.631 121.433C424.18 121.433 418.331 119.853 413.084 116.675C407.837 113.506 403.713 108.965 400.705 103.068C397.696 97.1633 396.196 90.2234 396.196 82.2404C396.196 80.0581 396.412 76.9933 396.853 73.054H462.779C463.541 71.0883 463.926 68.7376 463.926 66.0017C463.926 61.1959 462.611 56.7671 459.987 52.7155C457.364 48.6718 453.48 45.4145 448.346 42.9594C443.203 40.4963 437.033 39.2688 429.812 39.2688C420.409 39.2688 411.913 41.1302 404.315 44.8448C396.717 48.5595 390.732 53.8949 386.359 60.8348C381.987 67.7748 379.804 76.0065 379.804 85.5138C379.804 93.3845 381.553 100.549 385.052 107C388.55 113.45 393.604 118.561 400.223 122.332C406.834 126.103 414.681 127.988 423.755 127.988C434.361 127.988 443.676 124.763 451.715 118.312C459.754 111.862 465.844 103.445 470 93.0555L468.066 92.2291L468.058 92.2372Z" fill="white"></path></svg>