<svg xmlns="http://www.w3.org/2000/svg" width="104" height="105" viewBox="0 0 104 105" fill="none"><path d="M45.1844 101.435C33.51 102.912 23.0781 104.009 13.2944 104.788C12.2116 104.876 11.8814 104.014 11.7958 103.629C11.785 103.544 11.7515 103.474 11.7166 103.391C11.6466 103.227 11.607 103.108 11.5901 102.974C9.9578 91.722 8.84549 79.6242 7.65592 66.8186C6.09719 50.0255 4.47815 32.6584 1.64639 17.4618C1.63253 17.3522 1.61866 17.2425 1.62283 17.0811C1.627 16.9197 1.60697 16.7614 1.56429 16.6183C1.55505 16.5452 1.52315 16.4874 1.5139 16.4143L1.00705 12.4072C0.911534 11.6521 1.46051 10.9391 2.21058 10.8443C2.28316 10.8351 2.44352 10.8396 2.5403 10.8273C2.5645 10.8243 2.77918 10.7724 2.77918 10.7724C16.3939 9.08737 30.277 7.67781 43.7003 6.3264C57.8027 4.90148 72.3905 3.42752 86.7144 1.61572C88.5653 1.3816 90.4163 1.14747 92.2763 0.887455C93.2804 0.760445 93.5937 1.48804 93.6855 1.92192C93.6962 2.00718 93.7312 2.08937 93.7662 2.17157C93.8362 2.33597 93.8788 2.47906 93.8868 2.63893C94.589 10.0367 95.3446 17.6628 96.1335 25.26C96.172 25.5645 96.2952 25.8583 96.4954 26.0805C96.9125 26.5598 97.0051 27.3896 96.6933 27.9364C96.5426 28.2029 96.4722 28.5212 96.4987 28.8272C98.6729 49.5147 101.502 73.2377 103.876 90.7444C103.917 91.0733 103.879 91.3504 103.758 91.5636C103.668 91.7236 103.615 91.8911 103.588 92.0677C103.497 92.7103 103.116 93.0927 102.464 93.1875C97.4919 93.9154 92.5215 94.6555 87.551 95.3956C73.6786 97.472 59.3343 99.6081 45.1919 101.397L45.1844 101.435ZM8.86144 37.0909C8.49851 37.1368 8.16461 37.3152 7.93081 37.6046C7.67436 37.9093 7.55429 38.3204 7.59303 38.7239C8.56804 47.0153 9.44084 56.2477 10.2751 65.1755C11.4085 77.2459 12.5823 89.7318 14.0667 100.496C14.1653 101.275 14.8624 101.83 15.6412 101.769C24.7503 101 34.4154 99.9634 45.1704 98.6031C59.3974 96.8035 73.8143 94.6582 87.7594 92.5726C91.7167 91.9854 95.674 91.3982 99.6192 90.8126C100.416 90.6994 100.962 89.9621 100.86 89.1583C98.5814 72.3078 95.9007 49.754 93.8564 30.2875C93.8071 29.8978 93.6141 29.5386 93.3125 29.2921C92.9989 29.0471 92.6159 28.9347 92.2167 28.9852C66.0323 32.2601 37.8179 35.5195 8.9613 37.103C8.92501 37.1076 8.88872 37.1122 8.86452 37.1153L8.86144 37.0909ZM42.6209 9.25958C41.8346 9.35904 41.272 10.0613 41.3479 10.8561C41.8954 16.739 42.8553 23.0647 44.2875 30.2093C44.4314 30.9583 45.1224 31.4649 45.8619 31.3837C59.2778 30.0703 73.9287 28.4152 91.9939 26.1549C92.7802 26.0554 93.3413 25.341 93.2654 24.5462C92.6 18.0224 91.959 11.5945 91.3684 5.37051C91.3312 4.97923 91.1367 4.60784 90.823 4.36291C90.5093 4.11797 90.1143 4.00707 89.7271 4.05604L88.9408 4.1555C73.8669 6.06218 58.5048 7.63407 43.6523 9.15387C43.6523 9.15387 42.6451 9.25652 42.633 9.25805L42.6209 9.25958ZM30.9504 10.4759C30.1762 10.5738 29.6015 11.2776 29.6774 12.0724C29.9568 15.1554 30.2709 18.2217 30.5865 21.3002C30.9314 24.61 31.2763 27.9199 31.5592 31.2253C31.6246 32.0337 32.34 32.6362 33.143 32.5717C35.4781 32.3754 37.8117 32.1668 40.1453 31.9583C40.1574 31.9567 40.1816 31.9537 40.1937 31.9522C40.5929 31.9017 40.9479 31.6959 41.1771 31.3699C41.4305 31.0409 41.5233 30.6084 41.4346 30.1989C40.042 23.173 39.0944 16.9448 38.5623 11.1836C38.5251 10.7924 38.3322 10.4332 38.0306 10.1867C37.729 9.94022 37.3445 9.81562 36.9558 9.8524L30.9399 10.4896L30.9504 10.4759ZM18.4589 11.8084C18.0838 11.8559 17.7273 12.0495 17.495 12.3511C17.2522 12.6664 17.1411 13.0517 17.192 13.4536C17.9407 19.373 18.6903 25.6882 19.0001 32.1209C19.0131 32.5152 19.1954 32.8881 19.4865 33.1483C19.7775 33.4085 20.1756 33.5437 20.5659 33.5191L21.4552 33.4561C23.4531 33.3148 25.451 33.1735 27.4337 33.0093C27.4579 33.0062 27.4821 33.0032 27.5063 33.0001C27.8692 32.9542 28.2031 32.7758 28.4369 32.4864C28.6934 32.1817 28.8165 31.7949 28.7793 31.4036C28.4905 28.1485 28.1533 24.8996 27.8161 21.6506C27.4989 18.5599 27.1817 15.4693 26.9024 12.3863C26.8652 11.995 26.6723 11.6358 26.3691 11.3771C26.0675 11.1306 25.6709 11.0076 25.2823 11.0444L18.4558 11.7841L18.4589 11.8084ZM5.39581 13.2875C5.00868 13.3365 4.66577 13.5407 4.42141 13.8439C4.1786 14.1592 4.07964 14.543 4.12894 14.9327L4.27067 16.0532C4.28146 16.1385 4.28168 16.2375 4.25925 16.3517C4.2265 16.5786 4.25577 16.81 4.34399 17.0216C4.39877 17.1631 4.41857 17.2225 4.43683 17.2697C5.18718 21.2584 5.86716 25.5653 6.54389 30.4295C6.55159 30.4904 6.55775 30.5392 6.56546 30.6001C6.59296 30.7203 6.60991 30.8543 6.61476 30.9898C6.62092 31.0385 6.62708 31.0873 6.6317 31.1238C6.67638 31.477 6.87049 33.0116 6.87049 33.0116C6.96755 33.779 7.64046 34.3373 8.40878 34.2896C10.1542 34.1926 11.898 34.0834 13.6298 33.9757C13.6298 33.9757 14.9214 33.8866 14.9456 33.8835C15.6957 33.7887 16.2629 33.1229 16.2263 32.348C15.8968 25.8559 15.1195 19.3215 14.4077 13.6944C14.306 12.8906 13.5832 12.3262 12.7953 12.4134L11.767 12.5435C9.64524 12.7748 7.52349 13.006 5.40483 13.2616L5.39581 13.2875ZM56.0292 91.067C45.1653 92.4412 31.5911 88.0328 27.4485 75.1056C24.9347 67.2811 26.0557 58.7494 30.5215 51.6879C34.7523 45.0026 41.4494 40.6164 48.9017 39.6737C49.2162 39.634 49.5429 39.5926 49.8605 39.5772C49.8726 39.5757 49.8968 39.5726 49.921 39.5696C50.1508 39.5405 50.3624 39.4642 50.5542 39.3286C50.6902 39.2372 50.8307 39.1823 51.0122 39.1593C51.0606 39.1532 51.1211 39.1455 51.1695 39.1394C58.4843 38.9566 68.4987 40.4866 74.7077 48.8584C77.4799 52.6037 81.9716 60.1285 80.8942 68.5186C79.4793 79.4882 69.8359 88.6648 57.4627 90.8362C56.9939 90.9203 56.5116 90.9936 56.0397 91.0533L56.0292 91.067ZM49.1726 42.399C41.3937 43.3829 34.3709 48.8869 30.8433 56.7579C27.5263 64.1567 28.0501 72.2824 32.2272 78.4858C37.2178 85.8732 45.8123 89.5875 55.2365 88.3954C56.2406 88.2684 57.2612 88.0774 58.2636 87.8393C67.1532 85.7249 76.7117 79.0834 78.0107 69.0442C78.8371 62.6534 77.0878 56.4028 73.0709 51.4661C68.602 45.9678 61.8097 42.5082 54.4313 41.9937C54.3314 41.9816 54.2467 41.9923 54.1499 42.0045C53.9927 42.0244 53.8385 42.0687 53.6995 42.1358C53.5483 42.2044 53.3941 42.2486 53.2369 42.2685C53.1401 42.2808 53.0433 42.293 52.9434 42.2809C51.6923 42.204 50.4203 42.2536 49.1742 42.4112L49.1726 42.399ZM55.0129 80.603C45.8064 81.7675 39.7239 76.4362 37.9794 71.0017C36.4939 66.3511 37.1554 61.2805 39.8081 57.0841C42.3266 53.0903 46.311 50.4827 50.751 49.9211C50.751 49.9211 51.0413 49.8843 51.0534 49.8828C51.1986 49.8645 51.3407 49.8217 51.4691 49.7684C51.6202 49.6998 51.7744 49.6555 51.9438 49.6341C52.0043 49.6264 52.0769 49.6172 52.1374 49.6096C58.2391 49.4565 63.1963 51.5271 66.1006 55.4414C67.7438 57.6466 70.3861 62.1137 69.7321 67.1462C68.8894 73.6999 63.1659 79.1757 55.843 80.4608C55.5648 80.496 55.2896 80.5556 54.9993 80.5923L55.0129 80.603ZM51.198 53.5521C47.242 54.0525 43.6528 56.8701 41.8408 60.9106C40.1251 64.741 40.3749 68.7559 42.5226 71.9367C45.0634 75.6989 49.4696 77.5918 54.2967 76.9812C54.829 76.9139 55.3582 76.8222 55.8707 76.6955C60.4531 75.6085 65.3721 72.2268 66.0336 67.1562C66.4632 63.8473 65.5924 60.7525 63.5248 58.205C61.3131 55.4901 57.9554 53.7245 54.3091 53.369C54.1971 53.3584 54.0867 53.36 53.9899 53.3722C53.9052 53.383 53.8327 53.3921 53.751 53.4272C53.6558 53.4516 53.5606 53.476 53.4517 53.4898C53.3428 53.5036 53.2218 53.5189 53.0962 53.4977C52.4517 53.4554 51.8165 53.4863 51.1874 53.5659L51.198 53.5521ZM59.4562 66.3671C59.2143 66.3977 58.021 66.4867 57.8229 65.2125C57.6971 64.4117 57.2632 63.2167 56.4599 62.5016C55.4489 61.6024 54.5872 61.204 53.5367 60.8667C53.2294 60.7694 53.0562 60.4696 52.9726 60.2945C52.7993 59.8957 52.774 59.404 52.9154 59.0643C53.1155 58.6059 53.4628 58.3392 53.9709 58.275C54.2492 58.2398 54.5609 58.2746 54.8681 58.3718C57.92 59.3718 60.1191 61.8903 60.6041 64.9473C60.6534 65.337 60.6042 65.6279 60.4368 65.8594C60.2362 66.1199 59.8797 66.3135 59.4683 66.3655L59.4562 66.3671ZM67.7945 23.6473C67.117 23.733 66.6504 23.4455 66.4205 22.794C66.3611 22.6159 66.267 22.4545 66.1517 22.3206C65.9803 22.1319 65.8875 21.8838 65.8384 21.593C65.689 20.4116 65.4564 19.2531 65.2526 18.128C65.052 17.0273 64.8346 15.8916 64.6823 14.7848C64.6052 14.1758 64.81 13.7539 65.3071 13.5054C65.5836 13.3591 65.813 13.1321 65.95 12.8549C66.1367 12.4848 66.4433 12.2851 66.9152 12.2254L75.1417 11.1849C76.2184 11.0487 76.5002 11.9164 76.5722 12.2909C76.5845 12.3883 76.621 12.4827 76.656 12.5649C76.7244 12.7171 76.7535 12.8495 76.7689 12.9713C77.1032 15.6143 77.454 18.1934 78.0529 20.7905C78.1583 21.235 77.7571 21.756 77.3342 22.0075C77.2314 22.07 77.1424 22.1431 77.0548 22.2285C76.8692 22.4128 76.6244 22.518 76.2856 22.5609L67.7808 23.6366L67.7945 23.6473ZM69.0463 14.7896C68.6471 14.8401 68.2921 15.0459 68.0508 15.3734C67.8095 15.7009 67.7137 16.109 67.7887 16.5079L68.2959 19.3518C68.4308 20.1267 69.149 20.6545 69.9233 20.5566L73.4921 20.1052C73.8914 20.0547 74.2464 19.8489 74.4877 19.5214C74.7289 19.1939 74.8248 18.7858 74.7498 18.3869C74.5828 17.4552 74.4415 16.5326 74.3108 15.5963C74.2091 14.7924 73.4757 14.2417 72.6772 14.3427L69.0479 14.8018L69.0463 14.7896ZM85.2895 20.7661C84.9628 20.8075 83.898 20.8431 83.7455 19.6374L82.7348 11.6475C82.5823 10.4417 83.6346 10.2096 83.9492 10.1698C84.2637 10.13 85.3406 10.0928 85.4931 11.2986L86.5038 19.2885C86.6563 20.4943 85.604 20.7264 85.2895 20.7661Z" fill="#3EE595"></path></svg>