<svg xmlns="http://www.w3.org/2000/svg" width="118" height="82" viewBox="0 0 118 82" fill="none"><path d="M64.0029 76.5211C48.2929 78.5889 31.5426 80.046 9.69639 81.2357C9.19038 81.2583 8.78166 81.1362 8.45025 80.828C8.06836 80.4678 7.81716 79.8852 7.81277 79.2994C7.80343 79.0074 7.73501 78.7086 7.6256 78.4298C7.54187 78.2356 7.49242 78.0809 7.47156 77.9224C4.8092 59.905 2.68066 40.0876 0.776208 15.5644C0.757241 15.4203 0.766865 15.2725 0.788887 15.1083C0.812805 14.9586 0.808134 14.8126 0.803462 14.6666C0.77136 14.2018 0.855935 13.0766 2.13489 12.8496C14.5441 10.6738 27.2181 8.74179 40.8983 6.94116C59.8247 4.45 79.8591 2.31141 103.97 0.207953C104.142 0.185374 104.305 0.207905 104.528 0.251729C104.648 0.279904 104.752 0.295554 104.869 0.294911C105.307 0.310512 106.378 0.492047 106.655 1.71621C110.126 16.3729 112.456 31.5315 114.721 46.2003C115.601 51.8895 116.491 57.7679 117.455 63.5486C117.474 63.6927 117.493 63.8367 117.482 63.9702C117.467 64.192 117.496 64.4081 117.553 64.6205C117.772 65.5151 117.319 65.7213 116.829 65.8592C100.769 70.465 83.4868 73.9565 64.0029 76.5211ZM41.5252 10.1569C29.203 11.7788 17.2381 13.5736 5.98772 15.4942C4.87841 15.6841 4.10972 16.6942 4.19858 17.8112C5.99184 40.3847 7.98687 58.8564 10.4545 75.9466C10.6024 77.0705 11.5958 77.8779 12.7222 77.8176C33.4344 76.6306 49.2765 75.2344 64.1003 73.2832C81.8402 70.9483 97.6033 67.8473 112.295 63.788C113.361 63.4865 114.036 62.4301 113.849 61.3406C113.067 56.5035 112.313 51.6625 111.572 46.8053C109.472 33.1703 107.297 19.076 104.211 5.35093C103.968 4.28339 102.986 3.56242 101.909 3.6603C79.3529 5.64701 59.5939 7.77867 41.5395 10.1551L41.5252 10.1569ZM56.0643 65.9267C50.1891 66.7 44.8973 67.2646 39.8866 67.6456C38.3171 67.7642 38.078 66.1685 38.0695 65.9937C38.0297 65.6911 37.9346 65.4105 37.7823 65.1373C37.6519 64.9199 37.5349 64.5835 37.8202 63.9889C43.052 53.0243 48.3112 42.3786 55.0487 32.7989C55.208 32.5727 55.637 32.2964 56.1802 32.2249C56.5661 32.1741 56.9101 32.2461 57.0615 32.4021C61.2526 36.512 65.2661 41.261 69.3381 46.8965C69.7142 47.4333 70.3229 47.749 70.9689 47.7959C71.1014 47.8078 71.2462 47.8034 71.3749 47.7865C71.8752 47.7206 72.3385 47.4837 72.6808 47.1015C75.4023 44.134 78.6349 40.6301 82.0342 37.1775C82.1744 37.0272 82.3327 36.9037 82.4928 36.7947C82.5729 36.7402 82.6368 36.6731 82.7169 36.6186C83.0401 36.3122 83.4357 36.1135 83.8217 36.0627C84.2076 36.0119 84.584 36.109 84.965 36.352C92.1632 40.9897 98.5019 46.9425 103.783 54.0313C104.192 54.5932 104.157 54.9936 104.091 55.2661C103.987 55.6903 104.015 56.1263 104.158 56.5473C104.364 57.1212 104.323 57.8009 104.049 58.2621C103.837 58.6418 103.474 58.8655 102.949 58.9639C94.087 60.4676 85.0422 61.6874 77.2534 62.7272C77.1819 62.7366 77.1247 62.7442 77.0532 62.7536C70.6452 63.7876 63.2832 64.9765 56.05 65.9285L56.0643 65.9267ZM56.5483 37.6736C55.9194 37.7564 55.3693 38.1073 55.0173 38.6374C50.2786 45.9456 46.4154 53.6077 42.9403 60.7936C42.5968 61.4985 42.6639 62.3399 43.1142 62.9989C43.5626 63.6435 44.3219 63.998 45.1119 63.9234C48.4988 63.5802 51.98 63.1806 55.7538 62.6839C60.2138 62.0969 65.0503 61.387 70.9475 60.4495C71.6747 60.3391 72.281 59.8635 72.5854 59.1931C72.8898 58.5227 72.8303 57.739 72.4305 57.1319C67.3337 49.1246 63.0102 43.3463 58.428 38.3643C57.97 37.8676 57.3259 37.6152 56.6646 37.6729C56.636 37.6767 56.5931 37.6823 56.5645 37.6861L56.5483 37.6736ZM84.0953 40.3511C83.6235 40.4132 83.1727 40.6338 82.8265 40.9872C79.9354 43.9917 77.0165 47.1172 73.905 50.5465C73.2308 51.2802 73.1587 52.3892 73.7032 53.2117C74.7761 54.8442 75.8242 56.5093 76.8599 58.1907C77.3035 58.9093 78.1418 59.312 78.9709 59.2029C86.3899 58.2264 92.0822 57.3892 97.4543 56.5501C98.2243 56.4341 98.8659 55.8952 99.1466 55.1547C99.4272 54.4141 99.2762 53.5984 98.7744 52.9901C94.8543 48.2875 90.4287 44.1644 85.6292 40.7356C85.1634 40.4011 84.6242 40.2815 84.0953 40.3511ZM29.7112 39.7254C25.8658 40.2315 21.7673 38.924 20.3755 36.7471C18.8752 34.4085 18.5606 31.5767 19.4838 28.9778C20.4212 26.3771 22.4455 24.4102 25.0417 23.5847C25.4468 23.4581 25.8842 23.3565 26.3131 23.3001C28.6574 22.9915 31.2088 23.8138 33.1479 25.5082C35.2831 27.3674 36.3792 29.9497 36.1774 32.6149C35.9728 35.1485 34.5838 37.6328 32.7125 38.7733C31.9594 39.2389 30.9262 39.5655 29.7255 39.7235L29.7112 39.7254ZM26.4913 26.3111C24.3613 26.5914 22.3801 28.3328 22.762 31.5661C22.9108 32.8072 23.4361 33.9255 24.2798 34.8112C25.4769 36.0609 27.1574 36.6753 28.787 36.4608C30.5167 36.2331 31.9268 35.124 32.6616 33.4148C33.3525 31.814 33.1535 30.0811 32.0967 28.681C30.8447 27.0134 28.5335 26.0276 26.4894 26.2967L26.4913 26.3111Z" fill="#3EE595"></path></svg>