<svg xmlns="http://www.w3.org/2000/svg" width="75" height="103" viewBox="0 0 75 103" fill="none"><path d="M35.9361 101.876C24.6034 100.98 13.0998 98.9108 1.97302 96.9107L1.76339 96.8941C1.3876 96.8117 1.11179 96.6317 0.924953 96.3269C0.702953 95.9666 0.651634 95.4484 0.775449 95.0495C0.845461 94.8309 0.876169 94.6092 0.867572 94.3844C-0.697132 57.809 1.38618 28.7858 7.38858 3.05196C7.42721 2.89681 7.43964 2.7396 7.43896 2.58134C7.42627 1.90799 7.80451 1.79288 8.16342 1.75533C19.1595 0.238387 30.652 -0.0528261 42.3385 0.870975C53.1209 1.72332 63.5213 3.57375 73.2523 6.38638C73.6523 6.4971 73.8757 6.67296 73.8232 7.16977C73.8129 7.30079 73.8035 7.4187 73.8194 7.55179C73.8163 7.59109 73.8442 7.73831 73.8542 7.77865C74.5357 36.348 75.3168 68.8274 66.5243 99.8382C66.5039 99.9288 66.4836 100.02 66.4632 100.11C66.4018 100.554 66.1735 100.773 65.6926 100.853C56.6961 102.423 46.9665 102.761 35.9351 101.889L35.9361 101.876ZM42.2048 3.06202C31.6058 2.22418 20.7536 2.42098 10.8225 3.6398C9.99675 3.74591 9.3292 4.35231 9.14707 5.15527C3.44885 30.0431 1.55087 57.222 2.99668 93.3003C3.02899 94.2257 3.70571 95.0043 4.6166 95.1554C15.7041 97.1524 25.7066 98.8659 35.8733 99.6696C46.04 100.473 54.9045 100.238 63.2452 98.9593C64.0185 98.8491 64.6437 98.2789 64.8478 97.5304C72.5813 69.244 72.5063 39.8393 71.7133 9.67919C71.6899 8.80725 71.1028 8.06213 70.2647 7.82449C61.45 5.42706 52.0068 3.81048 42.2069 3.03582L42.2048 3.06202ZM34.3086 93.1125C33.0247 93.011 33.011 91.8498 33.039 91.496C33.0732 91.0637 33.2363 90.6679 33.4928 90.4245C33.7504 90.168 34.0883 90.0629 34.5468 90.0991C35.8439 90.2017 35.8445 91.3618 35.8165 91.7156C35.7823 92.1479 35.6192 92.5437 35.3627 92.7871C35.1051 93.0436 34.7672 93.1487 34.3086 93.1125ZM36.8585 83.7034C28.8274 83.0686 20.7111 81.6755 12.8679 80.3305L12.7238 80.3191C12.3994 80.2539 11.9512 80.0866 11.683 79.6435C11.4961 79.3387 11.4476 78.9526 11.5269 78.6161C11.5686 78.4216 11.5962 78.2393 11.5725 78.0396C10.9761 66.9053 10.246 38.4508 16.1009 14.7487C16.1375 14.6198 16.1489 14.4756 16.1593 14.3446C16.1755 13.8054 16.5169 13.4896 17.1551 13.4214C24.9275 12.4934 33.0721 12.3594 41.3522 13.0139C48.9904 13.6177 56.3529 14.8721 63.2717 16.7373C63.8399 16.8877 64.1305 17.2139 64.1063 17.6866C64.0981 17.7914 64.1018 17.9103 64.1198 18.0172C64.8303 39.048 64.7734 63.1162 59.0403 82.1083C59.0209 82.1859 59.0016 82.2634 58.9823 82.341C58.8833 82.9264 58.394 83.1119 57.9937 83.1725C51.6022 84.1438 44.7063 84.3238 36.8847 83.7055L36.8585 83.7034ZM41.1931 15.3611C34.0921 14.7998 26.7842 14.8549 20.0758 15.498C19.239 15.5768 18.5453 16.1812 18.348 17.0093C13.1293 39.1665 13.7185 66.0675 14.2174 76.6008C14.2628 77.5272 14.9406 78.2927 15.8504 78.4569C22.9268 79.6623 29.8643 80.7907 36.8867 81.3458C43.909 81.9009 49.6244 81.8122 55.2161 81.1205C56.0015 81.0244 56.6518 80.4693 56.8712 79.6957C62.1826 60.8679 62.0351 36.7177 61.4572 20.1797C61.4218 19.2936 60.8216 18.5475 59.9552 18.334C54.0193 16.876 47.7045 15.8759 41.1668 15.3591L41.1931 15.3611Z" fill="#3EE595"></path></svg>