<svg xmlns="http://www.w3.org/2000/svg" width="2174" height="689" viewBox="0 0 2174 689" fill="none"><g clip-path="url(#clip0_301_1291)"><mask id="mask0_301_1291" style="mask-type:luminance" maskUnits="userSpaceOnUse" x="0" y="0" width="2500" height="689"><path d="M2500 0H0V689H2500V0Z" fill="white"></path></mask><g mask="url(#mask0_301_1291)"><path d="M691 128V543.251L744.331 543.455V345.803H873.181V293.49H744.331V180.313H912.059V128H691ZM1008.34 212.271C1027.68 212.271 1043.15 196.598 1043.15 177.464C1043.15 158.33 1027.48 142.656 1008.34 142.656C989.003 142.656 973.533 158.33 973.533 177.464C973.533 196.598 989.207 212.271 1008.34 212.271ZM981.268 264.585V543.251H1034.6V264.585H981.268Z" fill="white"></path><path fill-rule="evenodd" clip-rule="evenodd" d="M1232.66 256.443C1161.62 256.443 1112.16 316.492 1112.16 387.736C1112.16 458.979 1161.62 519.028 1232.66 519.028C1265.23 519.028 1291.89 506.408 1311.43 486.052V522.896C1311.43 569.103 1275.2 607.574 1227.77 607.574C1210.68 607.574 1193.78 601.061 1180.34 591.697L1153.48 638.108C1174.85 651.949 1200.3 659.888 1227.57 659.888C1303.29 659.888 1364.56 598.618 1364.56 522.896V264.585H1311.43V289.419C1291.89 269.063 1265.23 256.443 1232.66 256.443ZM1165.69 387.736C1165.69 343.564 1199.48 308.757 1238.56 308.757C1277.64 308.757 1311.43 343.564 1311.43 387.736C1311.43 431.907 1277.64 466.715 1238.56 466.715C1199.48 466.715 1165.69 431.907 1165.69 387.736Z" fill="white"></path><path d="M1557.33 308.757C1525.78 308.757 1500.13 335.625 1500.13 367.177V543.252H1446.79V264.585H1500.13V290.03C1515.8 269.877 1538.81 256.443 1568.93 256.443C1606.38 256.443 1635.09 274.967 1651.78 303.464C1670.3 275.984 1700.43 256.443 1736.86 256.443C1797.72 256.443 1835.59 305.5 1835.79 366.159V543.252H1782.46V366.973C1782.46 335.422 1756.81 308.553 1725.26 308.553C1693.71 308.553 1668.06 335.422 1668.06 366.973V543.252H1614.73V366.973C1614.52 335.422 1588.88 308.757 1557.33 308.757Z" fill="white"></path><path fill-rule="evenodd" clip-rule="evenodd" d="M2120.36 296.136C2096.54 271.506 2063.97 256.443 2026.32 256.443C1946.93 256.443 1890.35 323.82 1890.35 404.02C1890.35 484.22 1946.73 551.597 2026.32 551.597C2063.97 551.597 2096.54 536.33 2120.36 511.903V543.252H2173.69V264.585H2120.36V296.136ZM1943.88 404.02C1943.88 350.893 1984.59 308.757 2032.22 308.757C2079.65 308.757 2120.56 350.689 2120.56 404.02C2120.56 457.148 2079.85 499.284 2032.22 499.284C1984.59 499.08 1943.88 457.148 1943.88 404.02Z" fill="white"></path><path d="M229.284 344.63C229.284 281.388 280.554 229.858 344.056 229.858C407.298 229.858 458.828 281.128 458.828 344.63C458.828 407.872 407.558 459.402 344.056 459.402C280.814 459.402 229.284 407.872 229.284 344.63Z" fill="#1ABCFE"></path><path d="M0 573.914C0 510.672 51.27 459.142 114.772 459.142H229.544V573.914C229.544 637.156 178.274 688.686 114.772 688.686C51.27 688.686 0 637.416 0 573.914Z" fill="#0ACF83"></path><path d="M229.284 0.574219V229.858H344.056C407.298 229.858 458.828 178.588 458.828 115.086C458.828 51.8443 407.558 0.313965 344.056 0.313965H229.284V0.574219Z" fill="#FF7262"></path><path d="M0 115.346C0 178.588 51.27 230.118 114.772 230.118H229.544V0.574219H114.772C51.27 0.574219 0 51.8443 0 115.346Z" fill="#F24E1E"></path><path d="M0 344.63C0 407.872 51.27 459.402 114.772 459.402H229.544V229.858H114.772C51.27 229.858 0 281.388 0 344.63Z" fill="#A259FF"></path></g></g><defs><clipPath id="clip0_301_1291"><rect width="2174" height="689" fill="white"></rect></clipPath></defs></svg>