<svg xmlns="http://www.w3.org/2000/svg" width="882" height="452" viewBox="0 0 882 452" fill="none"><path d="M226.485 215.29L225.995 225.91L164.395 282.15L153.775 281.66L97.5352 220.05L98.0252 209.44L159.625 153.2L170.245 153.68L226.485 215.29Z" fill="#F2FF43"></path><path d="M167.066 160.46L162.176 160.24L104.806 212.61L104.586 217.5L156.956 274.87L161.846 275.09L219.216 222.72L219.436 217.83L167.066 160.46ZM159.736 267.65L112.026 215.39L164.286 167.68L211.996 219.94L159.736 267.65Z" fill="#2C2829"></path><path d="M172.894 214.7L172.574 221.62L178.874 221.9L178.584 228.2L185.504 228.52L185.784 222.22L192.084 222.51L192.404 215.59L186.104 215.31L186.394 209.01L179.474 208.69L179.194 214.99L172.894 214.7Z" fill="#2C2829"></path><path d="M141.836 206.98C136.446 206.73 131.886 210.9 131.636 216.29C131.386 221.68 135.556 226.24 140.946 226.49C146.336 226.74 150.896 222.57 151.146 217.18C151.396 211.79 147.226 207.23 141.836 206.98ZM141.266 219.58C139.696 219.51 138.486 218.18 138.556 216.61C138.626 215.04 139.956 213.83 141.526 213.9C143.096 213.97 144.306 215.3 144.236 216.87C144.166 218.44 142.836 219.65 141.266 219.58Z" fill="#2C2829"></path><path d="M149.145 196.61L162.315 211.03L176.735 197.86L163.565 183.44L149.145 196.61ZM162.755 201.26L158.915 197.06L163.115 193.22L166.955 197.42L162.755 201.26Z" fill="#4924FF"></path><path d="M769.384 259.75C763.494 272.12 748.884 275.76 733.834 268.6C724.164 264 719.344 257.8 717.384 251.63L714.174 258.37L666.264 235.57L673.994 219.32L696.364 213.01L685.374 208.62L683.744 212.04L660.254 200.86L668.434 183.68C673.794 172.42 683.464 168.44 693.674 173.3C694.014 173.46 694.354 173.64 694.704 173.82L701.094 177.22L697.494 183.33C703.484 180.74 711.064 180.65 719.704 184.76C730.904 190.09 735.684 198.44 736.174 206.5C742.374 201.76 751.634 199.95 763.704 205.7C778.224 212.61 784.294 224.98 778.824 236.48C776.804 240.72 773.874 243.59 770.624 245.34C771.964 249.59 771.874 254.55 769.404 259.76L769.384 259.75Z" fill="white"></path><path d="M680.465 202.82L669.465 197.59L674.665 186.66C678.075 179.49 683.595 175.77 691.445 179.94L688.725 184.56C684.755 182.67 682.755 184.85 680.565 189.46L685.675 191.89L680.475 202.82H680.465ZM693.285 231.11C695.645 231.63 698.905 232.83 702.885 234.72L715.015 240.49L710.895 249.15L675.485 232.3L678.895 225.13L707.145 217.16C711.585 215.88 714.675 214.13 716.365 210.58C718.455 206.18 717.525 201.38 712.625 199.05C707.875 196.79 703.975 198.76 701.775 203.37C701.035 204.93 700.705 206.34 700.545 207.23L690.235 203.11C690.355 202.12 690.805 200.08 691.725 198.16C694.595 192.13 702.385 184.17 716.715 191C728.775 196.74 731.575 206.77 727.655 215.01C724.415 221.82 718.375 224.26 711.525 226.22L700.545 229.35C697.505 230.25 694.945 230.34 693.255 230.58V231.11H693.285ZM736.305 239.48L735.935 240.26C733.845 244.66 733.605 250.46 740.625 253.81C745.735 256.24 750.555 254.88 752.585 250.62C754.715 246.15 752.715 242.67 747.245 240.07L742.705 237.91L746.455 230.03L750.925 232.16C756.105 234.63 759.425 233.51 761.145 229.89C763.035 225.92 761.145 222.4 756.385 220.14C750.215 217.2 746.715 219.8 744.885 223.63L744.375 224.69L734.755 220.03C734.955 219.43 735.185 218.76 735.525 218.05C738.055 212.73 745.315 204.61 760.715 211.94C770.865 216.77 776.645 224.92 772.555 233.5C769.005 240.95 762.265 241.05 759.185 240.19L758.945 240.69C762.115 242.81 767.005 248.62 763.125 256.78C758.835 265.79 747.865 267.62 736.805 262.35C719.845 254.28 722.475 241.43 724.945 236.25C725.245 235.61 725.485 235.11 725.755 234.72L736.285 239.47L736.305 239.48Z" fill="#4924FF"></path><path d="M242.162 91.37C240.522 127.35 209.922 155.28 173.952 153.64C137.972 152 110.042 121.4 111.682 85.42C113.322 49.45 143.922 21.51 179.902 23.15C215.872 24.79 243.812 55.39 242.172 91.36L242.162 91.37Z" fill="#05F76F"></path><path d="M179.583 30.07C147.423 28.6 120.063 53.58 118.593 85.74C117.123 117.9 142.103 145.26 174.263 146.73C206.423 148.2 233.783 123.22 235.253 91.06C236.723 58.9 211.743 31.54 179.583 30.07ZM174.583 139.82C168.863 139.56 163.283 134.14 159.283 124.96C158.113 122.28 157.113 119.36 156.283 116.27C162.263 117.61 168.733 118.49 175.543 118.8C182.353 119.11 188.873 118.83 194.953 118.03C193.843 121.03 192.583 123.85 191.173 126.41C186.353 135.19 180.303 140.08 174.583 139.82ZM175.853 111.88C168.383 111.54 161.193 110.46 154.653 108.73C153.533 102.05 153.103 94.8 153.443 87.33C153.783 79.86 154.863 72.67 156.593 66.13C163.273 65.01 170.523 64.58 177.993 64.92C185.463 65.26 192.653 66.34 199.193 68.07C200.313 74.75 200.743 82 200.403 89.47C200.063 96.94 198.983 104.13 197.253 110.67C190.573 111.79 183.323 112.22 175.853 111.88ZM147.303 106.42C144.303 105.31 141.483 104.05 138.923 102.64C130.143 97.82 125.253 91.77 125.513 86.05C125.773 80.33 131.193 74.75 140.383 70.75C143.063 69.58 145.983 68.58 149.073 67.75C147.733 73.73 146.853 80.2 146.543 87.01C146.233 93.82 146.513 100.34 147.313 106.42H147.303ZM179.273 36.98C184.993 37.24 190.573 42.66 194.573 51.84C195.743 54.52 196.743 57.44 197.573 60.53C191.593 59.19 185.123 58.31 178.313 58C171.503 57.69 164.983 57.97 158.903 58.77C160.013 55.77 161.273 52.95 162.683 50.39C167.503 41.61 173.553 36.72 179.273 36.98ZM206.553 70.37C209.553 71.48 212.373 72.74 214.933 74.15C223.713 78.97 228.603 85.02 228.343 90.74C228.083 96.46 222.663 102.04 213.473 106.04C210.793 107.21 207.873 108.21 204.783 109.04C206.123 103.06 207.003 96.59 207.313 89.78C207.623 82.97 207.343 76.45 206.543 70.37H206.553ZM226.183 73.48C220.983 69.05 213.783 65.3 205.203 62.59C203.283 53.8 200.203 46.29 196.263 40.71C210.623 46.55 221.673 58.66 226.183 73.49V73.48ZM162.013 39.14C157.583 44.34 153.833 51.54 151.123 60.12C142.333 62.04 134.823 65.12 129.243 69.06C135.083 54.7 147.193 43.65 162.023 39.14H162.013ZM127.673 103.31C132.873 107.74 140.073 111.49 148.653 114.2C150.573 122.99 153.653 130.5 157.593 136.08C143.233 130.24 132.183 118.13 127.673 103.3V103.31ZM191.843 137.65C196.273 132.45 200.023 125.25 202.733 116.67C211.523 114.75 219.033 111.67 224.613 107.73C218.773 122.09 206.663 133.14 191.833 137.65H191.843Z" fill="black"></path><path d="M367.746 81.8301L381.256 115.91L372.906 119.22L379.516 135.91L371.176 139.21L374.486 147.56L273.646 187.53L270.336 179.19L261.996 182.5L255.376 165.81L238.686 172.43L225.176 138.35L367.746 81.8301Z" fill="#4924FF"></path><path d="M359.975 99.8001L363.285 108.15L354.935 111.46L361.555 128.15L353.205 131.46L356.515 139.81L331.475 149.73L328.165 141.38L319.815 144.69L316.505 136.34L308.165 139.65L311.475 148L303.125 151.31L306.435 159.66L281.395 169.58L278.085 161.23L269.745 164.54L263.125 147.85L246.435 154.47L243.125 146.12L359.955 99.8101M363.835 90.8301L357.405 93.3801L240.575 139.69L234.145 142.24L236.695 148.67L240.005 157.02L242.555 163.45L248.985 160.9L259.245 156.83L263.315 167.09L265.865 173.52L272.295 170.97L274.205 170.21L274.965 172.12L277.515 178.55L283.945 176L308.985 166.08L315.415 163.53L312.865 157.1L312.105 155.19L314.015 154.43L320.445 151.88L322.355 151.12L324.265 150.36L325.025 152.27L327.575 158.7L334.005 156.15L359.045 146.23L365.475 143.68L362.925 137.25L362.165 135.34L364.075 134.58L370.505 132.03L367.955 125.6L363.885 115.34L365.795 114.58L372.225 112.03L369.675 105.6L366.365 97.2501L363.815 90.8201L363.835 90.8301Z" fill="#FF66ED"></path><path d="M288.174 137.92L271.484 144.53L278.104 161.22L286.444 157.92L283.134 149.57L291.484 146.26L288.174 137.92Z" fill="white"></path><path d="M338.245 118.07L321.555 124.69L328.175 141.38L336.515 138.07L333.205 129.72L341.555 126.41L338.245 118.07Z" fill="white"></path><path d="M367.023 246.65L359.893 254.38L367.613 261.52L368.663 287.83L361.453 295.64L344.963 296.3L345.623 312.79L338.413 320.6L312.093 321.65L304.373 314.51L297.233 322.24L270.913 323.29L263.103 316.08L262.443 299.59L245.953 300.25L238.153 293.04L237.103 266.72L244.233 258.99L236.503 251.86L235.453 225.54L242.663 217.73L259.153 217.07L258.493 200.58L265.703 192.77L292.023 191.72L299.753 198.86L306.893 191.13L333.213 190.08L341.013 197.29L341.673 213.78L358.163 213.12L365.973 220.33L367.023 246.65Z" fill="white"></path><path d="M311.813 242.52L291.223 243.34L287.913 246.94L288.733 267.53L292.323 270.85L312.913 270.03L316.233 266.43L315.413 245.84L311.813 242.52ZM309.173 263.25L295.493 263.8L294.943 250.13L308.623 249.58L309.173 263.25ZM311.813 242.52L291.223 243.34L287.913 246.94L288.733 267.53L292.323 270.85L312.913 270.03L316.233 266.43L315.413 245.84L311.813 242.52ZM309.173 263.25L295.493 263.8L294.943 250.13L308.623 249.58L309.173 263.25ZM356.683 247.66L359.993 244.06L359.173 223.47L355.583 220.16L335.033 220.98L334.213 200.43L330.613 197.11L310.023 197.93L306.703 201.53L307.523 222.08L293.843 222.63L293.023 202.08L289.423 198.76L268.833 199.58L265.513 203.18L266.333 223.73L245.793 224.55L242.473 228.14L243.293 248.73L246.893 252.05L267.433 251.23L267.983 264.9L247.443 265.72L244.123 269.32L244.943 289.91L248.543 293.23L269.083 292.41L269.903 312.95L273.503 316.27L294.093 315.45L297.413 311.85L296.593 291.31L310.273 290.76L311.093 311.3L314.693 314.62L335.283 313.8L338.603 310.2L337.783 289.66L358.333 288.84L361.643 285.24L360.823 264.65L357.233 261.33L336.683 262.15L336.133 248.48L356.683 247.66ZM333.503 269.21L354.053 268.39L354.603 282.07L334.053 282.89L330.733 286.49L331.553 307.03L317.883 307.58L317.063 287.04L313.463 283.72L292.873 284.54L289.563 288.14L290.383 308.68L276.703 309.23L275.883 288.69L272.283 285.37L251.733 286.19L251.183 272.51L271.733 271.69L275.053 268.09L274.233 247.5L270.633 244.18L250.083 245L249.533 231.32L270.083 230.5L273.403 226.9L272.583 206.36L286.263 205.81L287.083 226.35L290.673 229.67L311.263 228.85L314.583 225.25L313.763 204.71L327.433 204.16L328.253 224.7L331.853 228.02L352.403 227.2L352.953 240.88L332.403 241.7L329.083 245.3L329.903 265.89L333.503 269.21ZM291.223 243.35L287.913 246.95L288.733 267.54L292.323 270.86L312.913 270.04L316.233 266.44L315.413 245.85L311.813 242.53L291.223 243.35ZM309.183 263.26L295.503 263.81L294.953 250.14L308.633 249.59L309.183 263.26Z" fill="black"></path><path d="M332.393 241.7L352.943 240.88L352.393 227.2L331.843 228.02L328.243 224.7L327.423 204.16L313.753 204.71L314.573 225.25L311.253 228.85L290.663 229.67L287.073 226.35L286.253 205.81L272.573 206.36L273.393 226.9L270.073 230.5L249.523 231.32L250.073 245L270.623 244.18L274.223 247.5L275.043 268.09L271.723 271.69L251.173 272.51L251.723 286.19L272.273 285.37L275.873 288.69L276.693 309.23L290.373 308.68L289.553 288.14L292.863 284.54L313.453 283.72L317.053 287.04L317.873 307.58L331.543 307.03L330.723 286.49L334.043 282.89L354.593 282.07L354.043 268.39L333.493 269.21L329.893 265.89L329.073 245.3L332.393 241.7ZM316.223 266.43L312.903 270.03L292.313 270.85L288.723 267.53L287.903 246.94L291.213 243.34L311.803 242.52L315.403 245.84L316.223 266.43Z" fill="#F2FF43"></path><path d="M772.733 309.22L781.383 395.09L774.663 403.32L659.653 414.9L651.423 408.18L642.773 322.31L649.493 314.08L764.503 302.5L772.733 309.22Z" fill="#FF66ED"></path><path d="M771.125 396.72L661.815 407.73L658.025 404.63L649.945 324.47L653.045 320.68L762.355 309.67L766.145 312.77L774.225 392.93L771.125 396.72ZM664.565 400.5L766.985 390.18L759.605 316.91L657.185 327.23L664.565 400.5Z" fill="#2C2829"></path><path d="M673.897 335.082L667.012 335.775L670.228 367.714L677.113 367.02L673.897 335.082Z" fill="#2C2829"></path><path d="M684.194 334.046L677.309 334.739L680.525 366.678L687.41 365.984L684.194 334.046Z" fill="#2C2829"></path><path d="M689.97 333.462L686.527 333.809L689.743 365.747L693.186 365.4L689.97 333.462Z" fill="#2C2829"></path><path d="M705.079 331.946L701.637 332.292L704.853 364.231L708.295 363.884L705.079 331.946Z" fill="#2C2829"></path><path d="M710.763 331.379L707.32 331.726L710.536 363.665L713.979 363.318L710.763 331.379Z" fill="#2C2829"></path><path d="M728.013 329.64L724.57 329.987L727.786 361.925L731.229 361.579L728.013 329.64Z" fill="#2C2829"></path><path d="M699.62 332.488L692.734 333.181L695.95 365.12L702.836 364.426L699.62 332.488Z" fill="#2C2829"></path><path d="M722.346 330.203L715.461 330.896L718.677 362.835L725.562 362.142L722.346 330.203Z" fill="#2C2829"></path><path d="M675.323 383.02L671.833 383.37L671.483 379.9C671.253 377.63 672.053 375.88 674.613 375.74L674.633 377.28C673.373 377.41 673.203 378.24 673.353 379.71L674.973 379.55L675.323 383.02ZM682.703 388.08C683.363 387.85 684.343 387.66 685.603 387.54L689.453 387.15L689.733 389.9L678.493 391.03L678.263 388.76L684.033 382.58C684.933 381.6 685.433 380.71 685.323 379.58C685.183 378.18 684.233 377.14 682.683 377.3C681.133 377.46 680.513 378.52 680.653 379.98C680.703 380.48 680.833 380.87 680.923 381.11L677.773 381.63C677.653 381.37 677.463 380.8 677.403 380.19C677.213 378.28 677.943 375.15 682.493 374.7C686.323 374.31 688.503 376.37 688.773 378.98C688.993 381.14 687.873 382.64 686.473 384.15L684.233 386.56C683.623 387.24 683.003 387.64 682.623 387.95L682.703 388.08ZM694.543 383.73L694.563 383.98C694.703 385.38 695.513 386.84 697.743 386.62C699.363 386.46 700.353 385.4 700.213 384.05C700.073 382.63 699.063 382.07 697.323 382.25L695.883 382.4L695.633 379.9L697.053 379.76C698.693 379.59 699.343 378.82 699.233 377.68C699.103 376.42 698.113 375.84 696.603 375.99C694.643 376.19 694.173 377.35 694.293 378.57L694.323 378.91L691.263 379.2C691.223 379.02 691.183 378.82 691.153 378.6C690.983 376.91 691.563 373.83 696.443 373.34C699.663 373.02 702.303 374.16 702.573 376.88C702.813 379.24 701.163 380.27 700.283 380.52L700.303 380.68C701.403 380.73 703.473 381.43 703.733 384.02C704.023 386.88 701.593 388.97 698.083 389.32C692.703 389.86 691.433 386.31 691.263 384.66C691.243 384.46 691.223 384.3 691.233 384.16L694.533 383.76L694.543 383.73Z" fill="white"></path><path d="M634.914 303.28C634.504 312.18 632.344 320.73 628.494 328.68C628.404 328.86 628.314 329.04 628.234 329.22L628.184 329.33C619.534 346.68 603.854 359.21 585.134 363.76C584.854 363.84 584.564 363.9 584.244 363.97C578.524 365.29 572.624 365.82 566.714 365.55C530.744 363.91 502.804 333.31 504.444 297.33C504.854 288.43 507.014 279.88 510.864 271.93C510.984 271.68 511.104 271.43 511.234 271.18C519.864 253.91 535.524 241.41 554.234 236.85C554.514 236.77 554.804 236.7 555.104 236.64C560.824 235.32 566.734 234.79 572.654 235.06C608.634 236.7 636.564 267.3 634.924 303.28H634.914Z" fill="#05F76F"></path><path d="M623.522 302.76C623.192 310.11 621.402 317.16 618.222 323.73C618.152 323.88 618.082 324.03 618.002 324.17L617.962 324.26C610.822 338.58 597.882 348.92 582.422 352.68C582.192 352.74 581.952 352.8 581.692 352.85C576.972 353.94 572.102 354.37 567.222 354.15C537.532 352.8 514.472 327.54 515.822 297.85C516.152 290.5 517.942 283.45 521.122 276.88C521.222 276.67 521.322 276.47 521.432 276.26C528.552 262.01 541.482 251.69 556.922 247.93C557.152 247.86 557.392 247.81 557.642 247.76C562.362 246.67 567.242 246.24 572.132 246.46C601.832 247.81 624.882 273.07 623.532 302.76H623.522Z" fill="black"></path><path d="M586.313 301.07C586.213 303.34 585.663 305.52 584.673 307.55C584.653 307.6 584.633 307.64 584.603 307.69V307.72C582.383 312.15 578.383 315.34 573.613 316.5C573.543 316.52 573.463 316.54 573.383 316.55C571.923 316.89 570.423 317.02 568.913 316.95C559.743 316.53 552.613 308.73 553.033 299.56C553.133 297.29 553.683 295.11 554.673 293.08C554.703 293.02 554.733 292.95 554.763 292.89C556.963 288.49 560.953 285.3 565.723 284.14C565.793 284.12 565.873 284.1 565.943 284.09C567.403 283.75 568.913 283.62 570.423 283.69C579.593 284.11 586.723 291.91 586.303 301.08L586.313 301.07Z" fill="#05F76F"></path><path d="M572.333 241.98C566.913 241.73 561.623 242.24 556.573 243.41C556.373 243.45 556.173 243.5 555.983 243.55C539.153 247.61 525.023 259.03 517.393 274.33C517.303 274.51 517.203 274.69 517.123 274.87C513.753 281.79 511.713 289.49 511.343 297.65C509.873 329.81 534.853 357.17 567.013 358.64C572.433 358.89 577.713 358.38 582.763 357.21C582.963 357.17 583.163 357.12 583.363 357.07C600.193 353.01 614.323 341.59 621.953 326.29C622.043 326.11 622.133 325.93 622.213 325.75C625.583 318.83 627.623 311.13 627.993 302.97C629.463 270.81 604.483 243.45 572.323 241.98H572.333ZM615.753 323.25C609.033 336.71 596.593 346.75 581.793 350.33C581.593 350.39 581.393 350.43 581.193 350.47C576.753 351.5 572.113 351.94 567.343 351.72C538.993 350.43 516.973 326.31 518.273 297.96C518.603 290.78 520.393 284 523.353 277.91C523.433 277.72 523.533 277.54 523.613 277.36C530.333 263.9 542.773 253.86 557.573 250.28C557.773 250.22 557.973 250.18 558.163 250.14C562.603 249.11 567.253 248.67 572.023 248.89C600.373 250.18 622.393 274.3 621.093 302.65C620.763 309.83 618.973 316.61 616.023 322.7C615.933 322.89 615.843 323.07 615.753 323.25Z" fill="#2C2829"></path><path d="M564.294 278.84C558.054 280.41 552.824 284.63 549.944 290.29L523.594 277.36C530.314 263.9 542.754 253.86 557.554 250.28L564.284 278.84H564.294Z" fill="white"></path><path d="M615.745 323.25C609.025 336.71 596.585 346.75 581.785 350.33L575.055 321.77C581.295 320.2 586.525 315.98 589.405 310.32L615.755 323.25H615.745Z" fill="white"></path><path d="M570.684 278.21C568.694 278.12 566.754 278.29 564.904 278.71C564.704 278.75 564.504 278.8 564.304 278.85C558.064 280.42 552.834 284.64 549.954 290.3C549.864 290.48 549.764 290.66 549.674 290.84C548.454 293.42 547.714 296.28 547.574 299.3C547.014 311.49 556.484 321.85 568.664 322.41C570.654 322.5 572.594 322.33 574.444 321.91C574.644 321.87 574.844 321.82 575.044 321.77C581.284 320.2 586.514 315.98 589.394 310.32C589.484 310.14 589.584 309.96 589.674 309.78C590.894 307.2 591.634 304.34 591.774 301.32C592.334 289.13 582.864 278.77 570.684 278.21ZM583.184 307.28C581.214 311.1 577.674 313.96 573.454 315.04C573.254 315.09 573.054 315.14 572.864 315.18C571.614 315.45 570.314 315.56 568.984 315.5C560.604 315.12 554.104 307.99 554.484 299.62C554.574 297.57 555.074 295.64 555.894 293.89C555.974 293.7 556.064 293.53 556.164 293.35C558.124 289.53 561.664 286.67 565.884 285.58C566.084 285.53 566.284 285.48 566.484 285.44C567.734 285.17 569.034 285.06 570.364 285.12C578.744 285.5 585.244 292.63 584.864 301.01C584.774 303.06 584.274 304.99 583.454 306.74C583.374 306.93 583.284 307.1 583.184 307.28Z" fill="#2C2829"></path><path d="M569.675 303.77C571.586 303.77 573.135 302.221 573.135 300.31C573.135 298.399 571.586 296.85 569.675 296.85C567.764 296.85 566.215 298.399 566.215 300.31C566.215 302.221 567.764 303.77 569.675 303.77Z" fill="black"></path><path d="M498.156 331.94L489.066 345.01L482.126 343.33L466.586 394.55L457.916 399.5L453.506 410.95L444.846 415.48L380.326 399.93L374.686 391.96L375.966 379.76L370.516 371.4L380.006 318.73L373.056 317.05L370.926 301.27L386.606 292.59L394.766 275.13L403.156 271.07L483.226 290.37L488.846 297.8L488.146 317.06L498.156 331.94Z" fill="#F0EED9"></path><path d="M481.156 319.06L481.846 300.01L479.206 296.52L403.946 278.38L400.006 280.29L391.936 297.56L378.426 305.04L379.286 311.43L387.986 313.53L377.816 369.92L380.406 373.9L383.466 374.64L381.846 390.1L384.476 393.82L443.946 408.15L447.986 406.03L453.586 391.53L456.646 392.27L460.766 389.91L477.406 335.08L486.096 337.17L489.786 331.87L481.166 319.06H481.156ZM442.626 400.71L389.046 387.8L390.256 376.27L446.796 389.9L442.626 400.72V400.71ZM455.086 384.77L385.206 367.93L394.716 315.15L470.656 333.45L455.076 384.77H455.086Z" fill="black"></path><path d="M496.745 98.08L496.615 98.19L496.745 98.29C509.325 108 516.835 123.29 516.835 139.17V139.43C520.295 142.4 522.365 146.77 522.365 151.49V154.72C522.365 163.49 515.235 170.63 506.465 170.63H452.825C444.055 170.64 436.915 163.5 436.915 154.73V151.5C436.915 146.78 438.985 142.41 442.435 139.44V139.18C442.435 123.29 449.935 108 462.515 98.29L462.645 98.19L462.515 98.09C449.935 88.38 442.425 73.09 442.425 57.2V56.94C438.965 53.97 436.895 49.61 436.895 44.88V41.65C436.895 32.88 444.025 25.74 452.795 25.74H506.435C515.205 25.73 522.345 32.87 522.345 41.64V44.87C522.345 49.59 520.275 53.96 516.825 56.93V57.19C516.825 73.08 509.325 88.37 496.745 98.08Z" fill="white"></path><path d="M509.906 57.1901V53.1601C513.146 51.8001 515.426 48.5901 515.426 44.8601V41.6301C515.426 36.6701 511.396 32.6401 506.436 32.6401H452.796C447.836 32.6401 443.816 36.6801 443.816 41.6401V44.8701C443.816 48.6001 446.096 51.8101 449.346 53.1601V57.1901C449.346 70.9501 455.856 84.1901 466.746 92.6001L473.976 98.1801L466.746 103.77C455.856 112.18 449.356 125.42 449.356 139.19V143.22C446.116 144.58 443.836 147.78 443.836 151.52V154.75C443.836 159.71 447.866 163.74 452.826 163.74H506.466C511.426 163.74 515.446 159.7 515.446 154.74V151.51C515.446 147.77 513.166 144.57 509.916 143.22V139.19C509.916 125.43 503.406 112.19 492.516 103.78L485.286 98.2001L492.516 92.6201C503.406 84.2101 509.906 70.9601 509.906 57.2001V57.1901ZM450.736 44.8801V41.6501C450.736 40.5101 451.666 39.5801 452.806 39.5801H506.446C507.586 39.5801 508.516 40.5001 508.516 41.6401V44.8701C508.516 46.0101 507.586 46.9401 506.446 46.9401H452.806C451.666 46.9401 450.736 46.0201 450.736 44.8801ZM461.366 76.0701C458.086 70.3801 456.276 63.8601 456.276 57.2001V53.8701H502.996V57.2001C502.996 63.8601 501.186 70.3801 497.906 76.0701H461.366ZM508.536 151.51V154.74C508.536 155.88 507.606 156.81 506.466 156.81H452.826C451.686 156.81 450.756 155.89 450.756 154.75V151.52C450.756 150.38 451.686 149.45 452.826 149.45H506.466C507.606 149.45 508.536 150.37 508.536 151.51ZM503.006 142.52H456.286V142.49L479.636 125.16L503.006 142.48V142.52ZM488.296 109.25C495.996 115.2 501.096 124.01 502.556 133.53L481.706 118.07H477.586L456.736 133.54C458.196 124.01 463.286 115.2 470.986 109.25L479.636 102.57L488.296 109.25ZM488.296 87.1401L479.646 93.8201L470.986 87.1401C469.366 85.8801 467.856 84.4901 466.466 83.0001H492.816C491.426 84.4901 489.926 85.8801 488.296 87.1401Z" fill="#FF5A39"></path><path d="M503.003 142.47V142.51L456.273 142.52V142.48L479.633 125.15L503.003 142.47Z" fill="#F5B5CF"></path><path d="M492.803 82.98C491.413 84.48 489.913 85.87 488.283 87.12L479.633 93.8L470.973 87.12C469.353 85.86 467.843 84.47 466.453 82.98H492.803Z" fill="black"></path><path d="M679.683 127.58C679.833 139.27 665.553 142.7 659.463 144.17C652.803 145.77 644.073 147.14 634.003 148.15C630.453 172.79 621.923 186.35 609.723 186.51L585.673 186.83C573.463 186.99 564.573 173.66 560.383 149.12C550.293 148.37 541.543 147.23 534.833 145.81C528.693 144.5 514.323 141.44 514.173 129.75C514.023 118.06 528.303 114.63 534.403 113.16C540.693 111.65 548.843 110.35 558.233 109.35C558.883 97.06 560.733 85.82 563.553 77.22C569.183 60.01 577.753 56.3 583.943 56.22L607.993 55.9C614.183 55.82 622.843 59.31 628.933 76.36C629.753 78.68 630.523 81.19 631.213 83.87C634.783 76.64 642.193 71.62 650.793 71.51C663.013 71.35 673.073 81.16 673.233 93.37C673.333 101.35 669.193 108.42 662.893 112.4C669.763 114.16 679.553 117.93 679.673 127.57L679.683 127.58Z" fill="#FF5A39"></path><path d="M657.592 118.29C650.212 116.72 640.242 115.53 628.582 114.81C627.332 87.9401 620.232 62.6601 608.102 62.8201L584.052 63.1401C571.902 63.3001 565.482 88.7601 564.942 115.65C553.312 116.67 543.362 118.12 536.032 119.89C525.512 122.42 521.042 125.34 521.102 129.66C521.162 133.97 525.702 136.78 536.282 139.04C543.892 140.66 554.262 141.88 566.392 142.59C569.152 163.31 575.692 180.04 585.582 179.91L609.632 179.59C619.522 179.46 625.612 162.56 627.832 141.78C639.942 140.75 650.282 139.26 657.842 137.44C668.352 134.91 672.822 131.98 672.762 127.67C672.702 123.35 668.162 120.55 657.582 118.29H657.592ZM528.872 129.56C532.402 127.54 543.762 124.49 564.932 122.6C565.012 126.96 565.242 131.34 565.632 135.6C544.082 134.28 532.492 131.5 528.882 129.56H528.872ZM584.142 70.0601C588.222 70.0101 596.062 85.4601 597.562 114.11C597.292 114.11 597.022 114.11 596.752 114.11C588.182 114.22 579.842 114.56 571.872 115.11C572.532 85.9901 580.042 70.1101 584.152 70.0501L584.142 70.0601ZM571.842 122.05C579.822 121.49 588.222 121.15 596.832 121.04C597.152 121.04 597.462 121.04 597.792 121.04V121.36C597.862 126.74 597.702 131.72 597.372 136.3H597.032C588.612 136.42 580.412 136.3 572.582 135.97C572.182 131.68 571.912 127.04 571.842 122.05ZM585.492 172.99C582.142 173.03 576.232 162.59 573.412 142.92C580.902 143.22 588.712 143.32 596.702 143.22C594.352 162.56 588.812 172.94 585.492 172.98V172.99ZM609.542 172.67L595.422 172.86C599.532 166.18 602.282 155.36 603.672 143.09C609.532 142.93 615.272 142.67 620.822 142.3C618.512 162.03 612.892 172.63 609.542 172.67ZM621.472 135.32C615.932 135.7 610.192 135.98 604.312 136.15C604.652 131.27 604.782 126.26 604.722 121.26C604.452 100.82 600.792 80.2401 594.072 69.9301L608.242 69.7401C612.662 69.8201 621.412 87.8701 621.852 121.04C621.922 126.16 621.772 130.92 621.472 135.32ZM628.432 134.78C628.702 130.5 628.822 126.13 628.782 121.76C649.992 123.09 661.432 125.84 665.012 127.77C661.452 129.81 649.932 132.89 628.432 134.78ZM650.902 78.4301C642.502 78.5401 635.762 85.4701 635.872 93.8601C635.982 102.26 642.912 109.01 651.302 108.9C659.702 108.79 666.452 101.86 666.342 93.4601C666.232 85.0601 659.302 78.3201 650.902 78.4301ZM651.212 101.98C646.632 102.04 642.852 98.3601 642.792 93.7701C642.732 89.1901 646.412 85.4101 650.992 85.3501C655.582 85.2901 659.362 88.9701 659.422 93.5501C659.482 98.1401 655.802 101.92 651.212 101.98Z" fill="white"></path><path d="M153.205 332.17C152.935 333 152.505 333.68 151.915 334.24C151.345 334.79 150.685 335.12 149.925 335.21C149.145 335.31 148.345 335.15 147.535 334.72C147.175 334.54 146.085 333.26 145.965 331.76L145.915 331.09C146.435 330.85 146.835 330.76 147.145 330.82L147.185 331.48C147.235 332.19 147.465 333.22 147.945 333.44C148.545 333.72 149.045 333.89 149.415 333.87C150.035 333.87 150.595 333.46 151.105 332.75C151.515 332.23 151.665 331.94 151.835 331.37C151.985 330.88 152.045 330.3 151.955 329.65C151.905 329.24 151.605 328.5 151.425 328.34C150.905 327.84 150.295 327.78 149.045 327.76C147.945 327.75 146.995 327.66 146.255 326.93C145.905 326.6 145.725 326.18 145.585 325.73C145.475 325.27 145.425 324.75 145.355 324.25C145.205 323.06 145.105 321.56 145.725 320.65C146.325 319.74 147.195 319.42 148.225 319.37C149.465 319.31 150.345 319.52 150.755 319.92C151.185 320.32 151.475 320.85 151.595 321.48L151.765 322.78L150.555 322.9L150.405 321.75C150.305 321.29 150.065 321.02 149.765 320.87C149.275 320.61 148.655 320.65 148.325 320.7C147.615 320.79 147.205 321.07 146.835 321.61C146.455 322.15 146.455 323.19 146.545 323.95C146.595 324.38 146.745 324.91 146.955 325.35C147.275 326.08 147.995 326.41 149.025 326.43C150.805 326.43 151.945 326.76 152.525 327.31C152.955 327.73 153.275 328.44 153.415 329.5C153.535 330.47 153.465 331.38 153.195 332.2L153.205 332.17Z" fill="white"></path><path d="M165.966 325.32C165.946 327.67 165.386 329.55 164.306 330.94C163.366 332.18 162.166 332.88 160.736 333.06C159.636 333.2 158.616 333.01 157.656 332.47C155.596 331.33 154.686 328.46 154.406 326.25C153.976 322.85 155.166 320.39 158.006 318.89C158.506 318.62 159.046 318.47 159.606 318.4C161.076 318.21 162.416 318.63 163.646 319.7C164.916 320.78 165.676 322.28 165.916 324.14C165.966 324.51 165.976 324.93 165.976 325.32H165.966ZM162.866 320.86C162.076 320 161.156 319.64 160.156 319.77C159.786 319.82 159.396 319.92 159.006 320.12C156.726 321.34 155.536 323.42 155.876 326.1C156.146 328.18 156.766 330.13 158.566 331.2C159.286 331.64 160.066 331.73 160.836 331.63C161.836 331.5 162.636 330.96 163.276 330.01C163.986 328.92 164.346 327.43 164.386 325.54C164.386 325.1 164.376 324.69 164.326 324.3C164.146 322.87 163.656 321.7 162.866 320.86Z" fill="white"></path><path d="M175.905 327.55C175.925 328.04 175.805 328.56 175.655 329.04C175.365 330.02 174.535 330.92 172.565 331.17C171.445 331.31 170.305 330.97 169.565 330.29C167.875 328.75 167.315 326.02 167.075 324.1C166.735 321.46 167.635 317.54 170.965 317.12C173.145 316.84 174.775 318.22 175.145 320.27L175.345 321.23C174.885 321.48 174.455 321.51 173.955 321.56C173.955 321.16 173.835 320.59 173.795 320.28C173.635 319 172.485 318.31 171.145 318.48C168.835 318.77 168.245 321.82 168.475 323.66C168.555 324.31 168.675 325.2 168.885 326.12C169.095 327.02 169.425 327.96 169.975 328.72C170.575 329.57 171.495 329.94 172.475 329.82C173.385 329.7 174.025 329.41 174.355 328.88C174.745 328.21 174.825 327.19 174.705 326.32L176.035 326.53C176.055 326.96 175.875 327.06 175.905 327.55Z" fill="white"></path><path d="M178.187 329.38C178.007 328.99 177.947 328.56 178.007 328.1L178.637 328.02L179.797 327.93C179.537 326.34 179.317 325.04 179.127 324.04C178.927 322.91 178.487 320.34 178.147 318.87C177.847 318.93 177.287 319.08 176.437 319.28C176.147 318.77 176.057 318.35 176.147 318.01L176.777 317.87L178.937 317.35C179.087 317.31 179.627 317.24 180.527 317.07L181.157 316.93C181.357 317.43 181.427 317.86 181.397 318.2L180.757 318.34L179.427 318.57C179.837 320.3 180.557 324.17 181.277 327.73L182.917 327.52C183.067 327.99 183.127 328.42 183.077 328.8L182.447 328.88L178.197 329.37L178.187 329.38Z" fill="white"></path><path d="M191.666 327.92L190.076 323.87C188.916 324.09 187.596 324.32 186.146 324.5C186.076 325.74 186.046 327.12 186.046 328.63C185.506 328.72 185.076 328.72 184.746 328.63V327.99C184.756 327.42 184.766 326.3 184.826 324.67C184.376 324.73 183.856 324.77 183.256 324.83C183.096 324.34 183.066 323.91 183.126 323.54C183.756 323.48 184.336 323.42 184.896 323.35C185.066 320.83 185.346 317.87 185.776 314.43L187.256 313.69C189.646 319.19 191.516 323.79 192.876 327.46C192.606 327.7 192.206 327.85 191.666 327.92ZM186.896 316.05C186.606 318.79 186.376 321.16 186.236 323.19C187.426 323.02 188.556 322.82 189.586 322.63C188.696 320.42 187.816 318.22 186.896 316.05Z" fill="white"></path><path d="M201.396 328.64C200.086 328.73 198.776 328.86 197.466 328.97C196.086 329.09 194.986 329.23 194.206 329.18L193.886 329.16V328.48C193.856 325.53 193.776 323.44 193.696 322.21L193.176 315.96C193.606 315.79 194.036 315.76 194.506 315.83L194.556 316.49L195.026 322.12C195.116 323.24 195.166 325.13 195.196 327.77L201.296 327.31C201.426 327.75 201.466 328.2 201.386 328.64H201.396Z" fill="white"></path><path d="M214.694 326.94C213.384 327.03 212.074 327.16 210.764 327.27C209.384 327.39 208.284 327.53 207.504 327.48H207.184L207.174 326.79C207.154 323.84 207.084 321.75 206.994 320.52L206.484 314.27C206.914 314.1 207.344 314.07 207.814 314.14L207.864 314.8L208.334 320.43C208.424 321.55 208.474 323.44 208.504 326.08L214.604 325.62C214.734 326.06 214.774 326.51 214.704 326.95L214.694 326.94Z" fill="white"></path><path d="M214.745 324.7C214.565 324.31 214.505 323.88 214.565 323.42L215.195 323.34L216.355 323.25C216.095 321.66 215.875 320.36 215.685 319.37C215.485 318.24 215.045 315.67 214.705 314.2C214.415 314.26 213.845 314.41 212.995 314.61C212.705 314.1 212.615 313.68 212.705 313.34L213.335 313.2L215.495 312.68C215.645 312.64 216.185 312.57 217.085 312.4L217.715 312.26C217.915 312.76 217.985 313.19 217.955 313.53L217.315 313.67L215.985 313.9C216.395 315.62 217.115 319.5 217.835 323.06L219.475 322.85C219.635 323.32 219.685 323.75 219.635 324.13L219.005 324.21L214.755 324.69L214.745 324.7Z" fill="white"></path><path d="M227.454 312.44L226.814 312.5C224.684 312.7 223.044 312.87 221.854 313.04C221.944 314.33 222.054 315.79 222.214 317.46C223.574 317.42 224.684 317.37 225.514 317.28L226.144 317.22C226.304 317.56 226.334 317.99 226.274 318.51L225.624 318.57C225.064 318.62 224.334 318.7 223.434 318.74C223.134 318.76 222.754 318.75 222.304 318.75L222.874 324.73C222.414 324.86 221.984 324.9 221.584 324.84C221.314 321.98 220.954 317.7 220.504 311.99C221.184 311.83 221.974 311.67 222.874 311.56C223.114 311.53 224.614 311.39 227.344 311.16C227.484 311.67 227.544 312.1 227.454 312.45V312.44Z" fill="white"></path><path d="M231.004 323.65L230.264 318.75C230.094 318.77 229.274 318.99 229.104 319.03L228.914 317.71C229.104 317.69 229.874 317.53 230.054 317.49L229.274 312.11C229.644 312.08 230.054 312.03 230.464 311.98C230.784 311.94 232.334 311.67 235.134 311.12C235.294 311.46 235.364 311.89 235.354 312.4L234.734 312.54C233.824 312.71 232.524 312.97 230.764 313.27L231.324 317.19C232.644 316.85 234.124 316.49 235.524 316.05C235.794 316.36 235.934 316.75 235.924 317.26L235.304 317.45C234.124 317.83 232.844 318.16 231.524 318.48L232.004 321.63C233.464 320.9 234.944 320.37 236.624 319.87C236.854 320.2 236.964 320.62 236.994 321.11C234.914 321.74 233.014 322.53 231.004 323.65Z" fill="white"></path><path d="M7.1841 220C6.3441 222.41 5.7441 224.23 5.4041 225.5C5.1941 225.55 4.8841 225.59 4.4341 225.63C3.9141 225.66 3.4241 225.6 2.9741 225.46C1.6541 225.04 0.684102 223.99 0.124102 222.29C-0.0958982 221.61 -0.0258982 220.65 0.354102 219.45C0.954102 217.55 1.7141 215.41 3.1241 213.87C4.6341 212.21 6.2041 211.97 7.3441 212.34C8.7941 212.8 9.6941 213.87 9.4041 215.27L9.2641 215.89C8.7741 215.87 8.3541 215.78 7.9941 215.61L8.1541 214.97C8.3141 214.27 7.7241 213.85 6.9141 213.6C6.1141 213.35 4.9041 213.37 3.6641 215.03C2.5441 216.51 2.2441 217.67 1.7641 219.17C1.2541 220.8 0.934102 221.6 1.9741 223.09C2.4641 223.79 2.9441 224.18 3.3741 224.26C3.6741 224.31 3.9941 224.34 4.3341 224.33C4.5841 223.42 5.1041 221.9 5.8841 219.75C5.0641 219.49 5.0441 219.48 4.6841 219.39L4.2641 219.28L4.5541 218.11C4.5541 218.11 5.8441 218.4 6.3241 218.55C7.0241 218.77 7.7341 218.96 8.9341 219.18C8.9641 219.7 8.7341 220.06 8.6441 220.41L7.8541 220.16L7.1541 220H7.1841Z" fill="white"></path><path d="M15.0448 228.53L15.2948 224.18C14.1448 223.89 12.8548 223.55 11.4648 223.1C10.8848 224.19 10.2748 225.44 9.64484 226.81C9.12484 226.66 8.72484 226.48 8.46484 226.26L8.72484 225.68C8.98484 225.17 9.46484 224.16 10.1948 222.7C9.76484 222.56 9.27484 222.39 8.70484 222.19C8.76484 221.68 8.91484 221.27 9.13484 220.97C9.73484 221.18 10.2848 221.37 10.8248 221.54C12.0348 219.33 13.5348 216.75 15.3748 213.81L17.0248 213.76C16.8748 219.75 16.6448 224.71 16.3348 228.61C15.9848 228.72 15.5648 228.68 15.0448 228.52V228.53ZM15.7048 215.76C14.2848 218.12 13.0848 220.18 12.1148 221.96C13.2648 222.3 14.3748 222.6 15.3848 222.86C15.5048 220.48 15.6248 218.12 15.7048 215.76Z" fill="white"></path><path d="M26.9722 232.31L27.1622 231.7C28.0222 229.93 28.8322 225.05 29.0922 223.5C29.1722 223.01 29.2422 222.09 29.4922 220.75L24.1022 226.03L22.2322 219.95L18.8722 229.13C18.0622 228.97 17.5322 228.76 17.2422 228.56L17.4622 227.94L22.2422 216.14L24.7322 223.12L29.8322 218.75L30.9922 219.61L30.8822 220.26C30.7522 221.06 30.5922 222.16 30.3822 223.56C29.9922 226.09 29.1122 230.48 28.7322 232.18L28.5922 232.8C27.9722 232.76 27.3122 232.55 26.9622 232.28L26.9722 232.31Z" fill="white"></path><path d="M30.6055 234.25L31.9955 229.5C31.8355 229.45 30.9955 229.3 30.8255 229.27L31.2055 227.99C31.3855 228.05 32.1555 228.23 32.3355 228.27L33.8855 223.06C34.2355 223.19 34.6255 223.32 35.0255 223.44C35.3255 223.54 36.8555 223.94 39.6255 224.62C39.6255 224.99 39.5155 225.41 39.2855 225.87L38.6655 225.73C37.7755 225.51 36.4755 225.19 34.7555 224.73L33.6155 228.52C34.9555 228.77 36.4555 229.06 37.9055 229.25C38.0155 229.64 37.9855 230.06 37.7555 230.52L37.1155 230.44C35.8855 230.29 34.5855 230.05 33.2555 229.79L32.3655 232.85C33.9955 232.8 35.5655 232.94 37.2955 233.19C37.3655 233.59 37.2955 234.01 37.1055 234.47C34.9555 234.16 32.8955 234.08 30.6055 234.26V234.25Z" fill="white"></path><path d="M43.0842 238.2L44.4742 233.45C44.3142 233.4 43.4742 233.25 43.3042 233.22L43.6842 231.95C43.8642 232.01 44.6342 232.19 44.8142 232.23L46.3642 227.02C46.7142 227.15 47.1142 227.27 47.5042 227.4C47.8042 227.5 49.3342 227.9 52.1042 228.58C52.1042 228.95 51.9942 229.37 51.7642 229.83L51.1442 229.69C50.2542 229.47 48.9542 229.15 47.2342 228.69L46.0942 232.48C47.4342 232.73 48.9342 233.02 50.3842 233.21C50.4942 233.6 50.4642 234.02 50.2342 234.48L49.5942 234.39C48.3642 234.24 47.0642 234 45.7242 233.74L44.8342 236.8C46.4642 236.75 48.0342 236.89 49.7642 237.14C49.8342 237.54 49.7642 237.96 49.5742 238.42C47.4242 238.11 45.3642 238.03 43.0742 238.21L43.0842 238.2Z" fill="white"></path><path d="M61.3122 232.82C60.7622 233.55 60.1622 234.52 59.3122 235.65C59.0122 236.05 57.1022 238.28 53.6522 242.41L53.4922 234.79C53.4922 234.16 53.4922 231.96 53.5822 228.17C53.9622 228.03 54.3822 228.05 54.8722 228.19V228.84L54.7722 234.77C54.7722 235.2 54.8222 236.6 54.8722 238.93L58.2922 234.84C58.8322 234.07 59.4722 233.11 60.3122 232.02C60.5522 231.7 61.0622 231.1 61.7922 230.21C62.2422 230.39 62.5922 230.66 62.8022 231C62.5422 231.33 62.0022 231.91 61.3222 232.83L61.3122 232.82Z" fill="white"></path><path d="M60.2834 243.65L61.6734 238.9C61.5134 238.85 60.6734 238.7 60.5034 238.67L60.8834 237.39C61.0634 237.45 61.8334 237.63 62.0134 237.67L63.5634 232.46C63.9134 232.59 64.3134 232.71 64.7034 232.84C65.0034 232.94 66.5334 233.34 69.3034 234.02C69.3034 234.39 69.1934 234.81 68.9634 235.27L68.3434 235.13C67.4534 234.91 66.1534 234.59 64.4334 234.13L63.2934 237.92C64.6334 238.17 66.1334 238.46 67.5834 238.65C67.6934 239.04 67.6634 239.46 67.4334 239.92L66.7934 239.84C65.5634 239.69 64.2634 239.45 62.9234 239.19L62.0334 242.25C63.6634 242.2 65.2334 242.34 66.9634 242.59C67.0334 242.99 66.9634 243.41 66.7734 243.87C64.6234 243.56 62.5634 243.48 60.2734 243.66L60.2834 243.65Z" fill="white"></path><path d="M72.2659 240.95C72.1059 240.33 71.9659 239.28 71.7559 237.78C70.9259 241.78 70.2959 245.01 69.8659 247.47C69.4059 247.48 68.9759 247.41 68.5859 247.24L68.6859 246.6C69.1559 243.86 70.0759 239.43 71.3759 233.33L72.4259 233.01C73.0059 237.27 73.3759 239.82 73.5559 240.69C73.6959 241.44 74.0059 242.68 74.4859 244.41C75.4859 240.77 76.6159 237.14 77.8759 233.52C78.2659 233.52 78.6759 233.67 79.0959 233.95C78.5859 235.42 78.1059 236.88 77.6459 238.35C76.4759 242.05 75.4459 245.72 74.5759 249.42C73.9259 247.19 73.1259 244.38 72.2759 240.96L72.2659 240.95Z" fill="white"></path><path d="M89.7447 240.19L85.6647 238.86C85.3047 239.75 84.7847 241.06 84.0847 242.98C83.7447 243.93 83.3347 245.83 82.7447 248.65L82.6147 249.3C82.4647 249.35 81.9347 249.22 81.0347 248.94L81.1447 248.29L83.0747 242.64C83.3847 241.73 83.7647 240.32 84.3847 238.43C83.5047 238.23 82.0747 237.91 80.1547 237.37L79.3047 237.12C79.3047 236.97 79.3647 236.75 79.4347 236.51C79.5047 236.28 79.5647 236.02 79.6347 235.82L80.4847 236.07C81.5647 236.39 83.1047 236.61 84.9847 237.2L86.7547 237.76C86.9547 237.82 87.5847 238.04 88.6847 238.37L89.9047 238.76L90.1747 238.83L90.2647 238.86L91.1547 239.1L90.6447 240.41L89.7547 240.19H89.7447Z" fill="white"></path><path d="M94.9335 253.15C94.3435 253.79 93.6735 254.22 92.8935 254.49C92.1435 254.74 91.4135 254.77 90.6735 254.53C89.9235 254.29 89.2735 253.81 88.7135 253.08C88.4635 252.76 88.0035 251.15 88.5335 249.74L88.7735 249.11C89.3435 249.11 89.7435 249.2 90.0035 249.38L89.7635 249.99C89.5135 250.66 89.2835 251.69 89.6335 252.09C90.0635 252.6 90.4435 252.95 90.7835 253.1C91.3535 253.36 92.0235 253.22 92.7935 252.79C93.3835 252.48 93.6435 252.29 94.0335 251.85C94.3735 251.47 94.6635 250.97 94.8635 250.34C94.9835 249.95 95.0235 249.15 94.9335 248.93C94.6735 248.26 94.1435 247.95 93.0135 247.4C92.0235 246.93 91.1935 246.45 90.8335 245.47C90.6635 245.02 90.6635 244.57 90.7335 244.1C90.8235 243.64 90.9935 243.14 91.1535 242.66C91.5135 241.52 92.0535 240.11 93.0035 239.55C93.9335 238.98 94.8535 239.05 95.8135 239.44C96.9635 239.9 97.6735 240.46 97.8735 241C98.0935 241.54 98.1435 242.15 97.9835 242.77L97.5835 244.02L96.4335 243.62L96.7835 242.51C96.8935 242.05 96.7835 241.7 96.5735 241.44C96.2435 241 95.6635 240.78 95.3435 240.67C94.6635 240.46 94.1635 240.53 93.6135 240.87C93.0335 241.2 92.6035 242.14 92.3635 242.87C92.2335 243.28 92.1435 243.82 92.1435 244.32C92.1235 245.12 92.6435 245.72 93.5635 246.17C95.1735 246.92 96.0735 247.69 96.3635 248.43C96.5835 248.99 96.5635 249.77 96.2435 250.79C95.9535 251.72 95.4935 252.52 94.9135 253.14L94.9335 253.15Z" fill="white"></path><path d="M78.9144 45.92C78.6244 46.15 78.2244 46.32 77.7144 46.42L77.4644 45.84L75.6044 41.43L72.8244 42.65L74.5444 46.4C74.1844 46.66 73.7944 46.83 73.3744 46.95L71.6344 43.17L70.4444 43.68L69.9344 42.51L71.1044 42L67.7344 34.53C68.0944 34.27 68.4844 34.08 68.9044 33.98L72.2844 41.49L75.1044 40.25L71.3344 31.28C71.6444 31.05 72.0344 30.87 72.5244 30.77L76.2944 39.74L78.0044 38.98L78.5044 40.13L76.7844 40.92L78.9044 45.93L78.9144 45.92Z" fill="white"></path><path d="M81.465 44.17L79.395 39.67C79.235 39.74 78.515 40.17 78.365 40.26L77.825 39.04C77.995 38.97 78.695 38.6 78.865 38.51L76.625 33.55C76.975 33.42 77.355 33.25 77.735 33.09C78.025 32.96 79.445 32.27 81.985 30.97C82.225 31.25 82.415 31.64 82.545 32.14L81.985 32.44C81.165 32.86 79.975 33.47 78.375 34.24L79.995 37.85C81.165 37.16 82.495 36.4 83.715 35.59C84.055 35.81 84.305 36.15 84.435 36.65L83.895 37.01C82.865 37.7 81.725 38.38 80.545 39.05L81.875 41.95C83.075 40.84 84.345 39.92 85.825 38.98C86.135 39.23 86.365 39.61 86.515 40.07C84.695 41.24 83.085 42.53 81.465 44.17Z" fill="white"></path><path d="M94.4044 37.7698L91.7544 34.3198C90.7044 34.8598 89.5044 35.4398 88.1544 36.0198C88.4344 37.2298 88.7844 38.5698 89.2044 40.0198C88.7144 40.2498 88.2944 40.3698 87.9444 40.3798L87.7644 39.7698C87.6244 39.2198 87.3244 38.1398 86.9244 36.5598C86.5144 36.7398 86.0244 36.9298 85.4644 37.1498C85.1744 36.7198 85.0244 36.3198 84.9844 35.9498C85.5744 35.7198 86.1144 35.4998 86.6344 35.2798C86.1044 32.8098 85.5544 29.8798 85.0144 26.4598L86.2244 25.3398C90.0344 29.9598 93.1144 33.8698 95.4344 37.0098C95.2444 37.3198 94.8944 37.5698 94.3944 37.7798L94.4044 37.7698ZM86.5344 27.6898C87.0144 30.3998 87.4544 32.7498 87.8744 34.7298C88.9644 34.2398 89.9944 33.7298 90.9344 33.2598C89.4744 31.3798 88.0144 29.5198 86.5244 27.6898H86.5344Z" fill="white"></path><path d="M99.4056 24.8398C99.4756 25.7498 99.6556 26.8798 99.7556 28.2898C99.7856 28.7898 99.8056 31.7198 99.9056 37.1098L94.7856 31.4598C94.3756 30.9798 92.9456 29.3198 90.5156 26.3998C90.7156 26.0498 91.0456 25.7798 91.5056 25.5698L91.9256 26.0598L95.7456 30.5998C96.0356 30.9298 96.9856 31.9498 98.5456 33.6798L98.4556 28.3498C98.3556 27.4098 98.2056 26.2698 98.1256 24.8998C98.0956 24.4998 98.0856 23.7098 98.0556 22.5598C98.5156 22.3998 98.9556 22.3698 99.3356 22.4998C99.3556 22.9198 99.3356 23.7098 99.4156 24.8598L99.4056 24.8398Z" fill="white"></path><path d="M108.725 25.3702C108.755 28.5102 108.725 32.1902 108.705 33.4702L108.685 34.1302L107.395 34.0702L107.425 33.4302C107.495 31.7502 107.475 28.0602 107.425 25.3602V25.3402L100.035 22.0602C100.095 21.2102 100.295 20.6602 100.555 20.3802L101.145 20.6102C102.915 21.7702 105.985 23.4402 107.355 23.8702C107.325 23.2302 107.405 21.2302 107.585 17.8702C108.165 17.7802 108.595 17.8002 108.875 17.9302L108.835 18.5802C108.705 20.2302 108.725 22.4902 108.725 25.3702Z" fill="white"></path><path d="M123.074 19.1198C124.014 21.4898 124.754 23.2498 125.324 24.4398C125.194 24.6198 124.994 24.8498 124.674 25.1698C124.304 25.5398 123.894 25.8098 123.464 25.9998C122.194 26.5498 120.774 26.3898 119.234 25.4798C118.624 25.1098 118.044 24.3398 117.544 23.1898C116.754 21.3698 115.924 19.2498 115.984 17.1598C116.034 14.9098 117.064 13.7098 118.174 13.2298C119.564 12.6298 120.954 12.8498 121.654 14.0998L121.954 14.6598C121.574 14.9698 121.194 15.1698 120.814 15.2798L120.524 14.6898C120.194 14.0598 119.464 14.1298 118.684 14.4598C117.914 14.7898 117.014 15.6098 117.164 17.6698C117.284 19.5198 117.814 20.5998 118.444 22.0398C119.124 23.6098 119.414 24.4198 121.174 24.8698C122.004 25.0798 122.624 25.0598 122.994 24.8398C123.254 24.6898 123.514 24.4898 123.764 24.2598C123.354 23.4098 122.754 21.9198 121.934 19.7798C121.144 20.1198 121.124 20.1298 120.784 20.2898L120.394 20.4798L119.854 19.4098C119.854 19.4098 121.014 18.7898 121.474 18.5898C122.144 18.2998 122.804 17.9798 123.864 17.3498C124.234 17.7198 124.294 18.1498 124.444 18.4698L123.684 18.7998L123.054 19.1298L123.074 19.1198Z" fill="white"></path><path d="M131.795 15.4201C131.825 18.5601 131.795 22.2401 131.775 23.5201L131.755 24.1801L130.465 24.1201L130.495 23.4801C130.565 21.8001 130.545 18.1101 130.495 15.4101V15.3901L123.105 12.1101C123.165 11.2601 123.355 10.7101 123.625 10.4301L124.215 10.6601C125.985 11.8201 129.055 13.4901 130.425 13.9201C130.395 13.2801 130.475 11.2801 130.655 7.9201C131.235 7.8401 131.665 7.8501 131.945 7.9801L131.895 8.6301C131.775 10.2801 131.785 12.5401 131.785 15.4201H131.795Z" fill="white"></path><path d="M143.265 16.67L140.615 13.22C139.565 13.76 138.365 14.34 137.015 14.92C137.295 16.13 137.645 17.47 138.065 18.92C137.575 19.15 137.155 19.27 136.815 19.28L136.635 18.67C136.495 18.12 136.195 17.04 135.795 15.46C135.385 15.64 134.895 15.83 134.335 16.05C134.045 15.62 133.895 15.22 133.855 14.85C134.445 14.61 134.985 14.4 135.505 14.18C134.975 11.71 134.425 8.77999 133.885 5.35999L135.095 4.23999C138.905 8.85999 141.985 12.77 144.305 15.91C144.115 16.22 143.765 16.47 143.275 16.68L143.265 16.67ZM135.395 6.58999C135.875 9.29999 136.315 11.65 136.735 13.63C137.825 13.14 138.855 12.63 139.795 12.16C138.335 10.28 136.875 8.41999 135.385 6.58999H135.395Z" fill="white"></path><path d="M145.555 9.76C145.025 9.39 144.235 8.7 143.095 7.7C145.085 11.27 146.725 14.12 148.015 16.26C147.675 16.57 147.305 16.79 146.895 16.93L146.555 16.38C145.115 14 142.905 10.05 139.895 4.59L140.475 3.67C143.705 6.5 145.655 8.19 146.355 8.73C146.955 9.21 148.005 9.94 149.495 10.93C147.865 7.53 146.335 4.04 144.925 0.48C145.225 0.23 145.625 0.07 146.125 0C146.705 1.44 147.305 2.86 147.915 4.28C149.455 7.84 151.085 11.29 152.845 14.65C150.895 13.39 148.445 11.79 145.565 9.76H145.555Z" fill="white"></path><path d="M286.013 44.5101L286.103 43.8801C286.653 41.9901 286.663 37.0501 286.653 35.4701C286.653 34.9801 286.573 34.0601 286.593 32.7001L282.143 38.7901L279.293 33.1001L277.493 42.7101C276.663 42.6901 276.113 42.5701 275.793 42.4101L275.903 41.7601L278.673 29.3301L282.283 35.8101L286.593 30.6601L287.883 31.3201V31.9801C287.883 32.7901 287.913 33.9001 287.943 35.3201C287.973 37.8801 287.833 42.3501 287.733 44.1001L287.703 44.7401C287.083 44.8001 286.403 44.7101 286.013 44.5001V44.5101Z" fill="white"></path><path d="M301.673 40.8402C301.033 43.1002 299.993 44.7702 298.583 45.8202C297.353 46.7602 296.013 47.1202 294.583 46.9202C293.483 46.7602 292.543 46.3102 291.773 45.5302C290.093 43.8902 289.973 40.8802 290.283 38.6702C290.763 35.2702 292.573 33.2202 295.703 32.5302C296.253 32.4002 296.823 32.4002 297.373 32.4802C298.843 32.6902 300.023 33.4402 300.923 34.8002C301.863 36.1802 302.203 37.8202 301.933 39.6802C301.883 40.0502 301.783 40.4502 301.673 40.8402ZM299.863 35.7102C299.323 34.6702 298.543 34.0802 297.543 33.9402C297.173 33.8902 296.773 33.8902 296.343 33.9802C293.823 34.5502 292.123 36.2402 291.743 38.9102C291.443 40.9902 291.533 43.0302 292.983 44.5402C293.563 45.1502 294.293 45.4502 295.053 45.5502C296.053 45.6902 296.973 45.3902 297.833 44.6402C298.813 43.7802 299.543 42.4402 300.093 40.6202C300.213 40.2002 300.303 39.8002 300.363 39.4102C300.563 37.9802 300.403 36.7302 299.863 35.7002V35.7102Z" fill="white"></path><path d="M309.075 47.1203C308.595 47.8503 308.005 48.3903 307.285 48.7803C306.585 49.1503 305.865 49.3003 305.105 49.1903C304.325 49.0803 303.605 48.7103 302.935 48.0903C302.635 47.8203 301.925 46.3003 302.205 44.8203L302.335 44.1603C302.895 44.0703 303.315 44.0903 303.595 44.2303L303.465 44.8703C303.325 45.5703 303.275 46.6203 303.675 46.9703C304.185 47.4003 304.615 47.6903 304.985 47.7803C305.585 47.9403 306.225 47.6903 306.915 47.1403C307.445 46.7403 307.665 46.5103 307.985 46.0003C308.255 45.5603 308.465 45.0303 308.555 44.3803C308.615 43.9703 308.515 43.1803 308.395 42.9703C308.025 42.3503 307.455 42.1403 306.255 41.7803C305.205 41.4803 304.305 41.1403 303.785 40.2403C303.535 39.8303 303.475 39.3803 303.465 38.9103C303.475 38.4403 303.565 37.9203 303.635 37.4203C303.805 36.2303 304.105 34.7603 304.945 34.0503C305.765 33.3303 306.685 33.2603 307.695 33.4703C308.905 33.7403 309.695 34.1703 309.985 34.6703C310.295 35.1703 310.435 35.7603 310.385 36.3903L310.205 37.6903L309.005 37.4803L309.165 36.3303C309.195 35.8603 309.035 35.5303 308.785 35.3103C308.385 34.9303 307.775 34.8103 307.445 34.7603C306.735 34.6603 306.265 34.8203 305.765 35.2403C305.245 35.6603 304.975 36.6603 304.865 37.4203C304.805 37.8503 304.805 38.4003 304.885 38.8803C305.005 39.6703 305.615 40.1803 306.595 40.4703C308.305 40.9403 309.315 41.5603 309.735 42.2403C310.045 42.7603 310.155 43.5303 310.005 44.5903C309.865 45.5603 309.555 46.4203 309.075 47.1303V47.1203Z" fill="white"></path><path d="M321.542 38.0101L317.292 37.3701C317.082 38.3101 316.792 39.6901 316.412 41.7001C316.232 42.7001 316.152 44.6401 316.022 47.5201L316.002 48.1801C315.862 48.2501 315.312 48.2101 314.382 48.0801V47.4201L315.352 41.5301C315.502 40.5901 315.652 39.1301 315.952 37.1601C315.052 37.1101 313.582 37.0301 311.612 36.8101L310.742 36.7001C310.722 36.5501 310.742 36.3201 310.772 36.0801C310.802 35.8401 310.822 35.5801 310.852 35.3701L311.732 35.4801C312.852 35.6201 314.412 35.5801 316.362 35.8501L318.202 36.1101C318.402 36.1401 319.072 36.2501 320.202 36.4001L321.462 36.5801L321.742 36.6001H321.832L322.752 36.7001L322.462 38.0801L321.542 38.0101Z" fill="white"></path><path d="M333.555 51.2699L333.095 46.9399C331.915 46.8499 330.585 46.7199 329.145 46.5099C328.745 47.6899 328.355 49.0099 327.955 50.4699C327.415 50.4099 326.995 50.2999 326.695 50.1199L326.855 49.4999C327.025 48.9599 327.335 47.8799 327.815 46.3199C327.365 46.2599 326.855 46.1599 326.265 46.0599C326.245 45.5499 326.325 45.1199 326.485 44.7799C327.115 44.8899 327.685 44.9899 328.245 45.0699C329.075 42.6899 330.135 39.8999 331.465 36.6999L333.085 36.3799C333.925 42.3199 334.515 47.2499 334.855 51.1399C334.525 51.2999 334.105 51.3399 333.565 51.2599L333.555 51.2699ZM332.105 38.5599C331.095 41.1199 330.255 43.3499 329.575 45.2699C330.765 45.4199 331.905 45.5299 332.955 45.6199C332.685 43.2499 332.415 40.8999 332.105 38.5699V38.5599Z" fill="white"></path><path d="M344.874 46.8001C344.044 49.6801 343.444 51.6701 343.094 52.7801L342.074 53.1801L340.994 49.4101C340.914 49.1701 340.714 48.5601 340.414 47.5101L337.624 52.7601L336.754 52.5001L336.594 49.7901C336.454 47.4801 336.424 45.6701 336.524 44.4001C336.574 43.6701 336.604 42.8001 336.574 41.7901C336.524 40.3801 336.494 39.5301 336.504 39.1901V38.5301C337.114 38.2601 337.734 38.1501 338.384 38.1901L338.364 38.8501C338.234 40.0401 338.064 41.4601 337.914 43.0701C337.914 43.8801 337.874 45.2101 337.774 46.9901C337.764 47.3701 337.774 48.2001 337.844 49.5601L340.754 44.1601L342.214 49.0501C342.264 49.2301 342.394 49.6601 342.564 50.3301C342.884 49.4101 343.344 47.7701 343.984 45.3801C344.544 43.2801 345.044 41.6501 345.474 40.4801C346.004 40.4801 346.404 40.6101 346.664 40.9001C346.174 42.3301 345.574 44.3101 344.854 46.8201L344.874 46.8001Z" fill="white"></path><path d="M346.284 53.84L346.874 48.92C346.704 48.9 345.854 48.89 345.684 48.88L345.854 47.56C346.044 47.59 346.824 47.64 347.014 47.65L347.684 42.25C348.054 42.32 348.464 42.38 348.874 42.44C349.184 42.48 350.754 42.63 353.604 42.85C353.664 43.22 353.624 43.65 353.484 44.14L352.844 44.11C351.924 44.04 350.594 43.94 348.824 43.76L348.324 47.69C349.684 47.71 351.214 47.76 352.674 47.7C352.844 48.07 352.884 48.49 352.734 48.98L352.084 49C350.844 49.05 349.524 49.03 348.164 49L347.794 52.17C349.394 51.85 350.964 51.73 352.714 51.69C352.854 52.07 352.844 52.5 352.734 52.98C350.564 53.03 348.524 53.29 346.284 53.84Z" fill="white"></path><path d="M355.114 53.9202C354.374 53.8102 354.034 53.2202 354.124 52.5902C354.214 51.9802 354.774 51.4902 355.514 51.5902C356.104 51.6702 356.584 52.2102 356.494 52.8302C356.404 53.4402 355.864 54.0302 355.104 53.9202H355.114Z" fill="white"></path><path d="M294.934 62.9102C294.034 63.9202 293.014 64.5902 291.904 64.9002C291.234 65.0902 290.434 65.1302 289.504 64.9902C289.224 64.9502 288.964 64.8902 288.714 64.8402L288.264 71.4402C287.344 71.5202 286.754 71.5102 286.504 71.4002L286.554 70.7602C286.644 70.5302 286.744 69.9702 286.864 69.1402C286.934 68.6202 287.444 64.1102 288.364 55.6202C288.844 55.5602 289.684 55.5102 290.904 55.4702C291.374 55.4702 291.824 55.5302 292.254 55.5902C294.504 55.9102 295.874 56.7502 296.384 58.1302C296.564 58.6302 296.594 59.1802 296.514 59.7602C296.354 60.8602 295.834 61.9202 294.934 62.9102ZM294.064 57.6902C293.484 57.2502 292.674 56.9402 291.674 56.7802C291.264 56.7202 290.564 56.7402 289.544 56.8202L288.834 63.5402C289.104 63.6202 289.364 63.6702 289.664 63.7102C290.884 63.9002 291.894 63.7402 292.684 63.2502C293.454 62.7902 294.094 61.9902 294.614 60.8402C294.774 60.5002 294.864 60.1502 294.914 59.8202C295.034 58.9502 294.754 58.2402 294.064 57.6902Z" fill="white"></path><path d="M296.123 71.0602L296.713 66.1402C296.543 66.1202 295.693 66.1102 295.523 66.1002L295.693 64.7802C295.883 64.8102 296.663 64.8602 296.853 64.8702L297.523 59.4702C297.893 59.5402 298.303 59.6002 298.713 59.6602C299.033 59.7002 300.603 59.8502 303.443 60.0702C303.503 60.4402 303.463 60.8702 303.313 61.3602L302.673 61.3302C301.753 61.2602 300.423 61.1602 298.653 60.9802L298.153 64.9102C299.513 64.9302 301.043 64.9802 302.503 64.9202C302.683 65.2902 302.713 65.7102 302.573 66.2002L301.923 66.2202C300.683 66.2702 299.363 66.2502 298.003 66.2202L297.633 69.3902C299.233 69.0702 300.803 68.9502 302.553 68.9102C302.693 69.2902 302.683 69.7202 302.573 70.2002C300.403 70.2502 298.363 70.5102 296.123 71.0602Z" fill="white"></path><path d="M316.025 67.2401C315.385 69.5001 314.345 71.1701 312.935 72.2201C311.705 73.1601 310.365 73.5201 308.935 73.3201C307.845 73.1601 306.905 72.7101 306.125 71.9301C304.445 70.2901 304.325 67.2801 304.635 65.0701C305.115 61.6701 306.925 59.6201 310.055 58.9301C310.605 58.8001 311.175 58.8001 311.725 58.8801C313.195 59.0901 314.375 59.8401 315.275 61.2001C316.215 62.5801 316.555 64.2201 316.285 66.0801C316.235 66.4501 316.135 66.8501 316.025 67.2401ZM314.215 62.1101C313.685 61.0701 312.895 60.4801 311.895 60.3401C311.525 60.2901 311.125 60.2901 310.695 60.3801C308.175 60.9501 306.475 62.6401 306.095 65.3101C305.795 67.3901 305.885 69.4301 307.345 70.9401C307.925 71.5501 308.655 71.8501 309.415 71.9501C310.415 72.0901 311.335 71.7901 312.195 71.0401C313.175 70.1701 313.905 68.8401 314.455 67.0201C314.575 66.6001 314.665 66.2001 314.725 65.8101C314.925 64.3801 314.765 63.1301 314.225 62.1001L314.215 62.1101Z" fill="white"></path><path d="M324.762 67.15C323.862 68.16 322.842 68.83 321.732 69.14C321.062 69.33 320.262 69.37 319.332 69.23C319.052 69.19 318.792 69.13 318.542 69.08L318.092 75.68C317.172 75.76 316.582 75.75 316.332 75.64L316.382 75C316.472 74.77 316.572 74.21 316.692 73.38C316.762 72.86 317.272 68.35 318.192 59.86C318.672 59.8 319.512 59.75 320.732 59.71C321.202 59.71 321.652 59.77 322.082 59.83C324.332 60.15 325.702 60.99 326.212 62.37C326.392 62.87 326.422 63.42 326.342 64C326.182 65.09 325.662 66.16 324.762 67.15ZM323.892 61.93C323.312 61.49 322.502 61.18 321.502 61.02C321.092 60.96 320.392 60.98 319.372 61.06L318.662 67.78C318.932 67.86 319.192 67.91 319.492 67.95C320.712 68.14 321.722 67.98 322.512 67.49C323.282 67.03 323.922 66.23 324.442 65.08C324.602 64.74 324.692 64.4 324.742 64.06C324.862 63.19 324.582 62.48 323.892 61.93Z" fill="white"></path><path d="M332.285 77.4102C330.995 77.1502 329.705 76.9302 328.405 76.6902C327.035 76.4402 325.945 76.2802 325.205 76.0302L324.895 75.9302L325.065 75.2702C325.825 72.4202 326.305 70.3902 326.555 69.1702L327.715 63.0102C328.175 62.9602 328.595 63.0402 329.025 63.2302L328.895 63.8702L327.855 69.4202C327.645 70.5302 327.195 72.3602 326.525 74.9102L332.535 76.0902C332.545 76.5502 332.465 76.9902 332.275 77.4002L332.285 77.4102Z" fill="white"></path><path d="M333.284 76.34L333.874 71.42C333.704 71.4 332.854 71.39 332.684 71.38L332.854 70.06C333.044 70.09 333.824 70.14 334.014 70.15L334.684 64.75C335.054 64.82 335.464 64.88 335.874 64.94C336.194 64.98 337.764 65.13 340.604 65.35C340.664 65.72 340.624 66.15 340.474 66.64L339.834 66.61C338.914 66.54 337.584 66.44 335.814 66.26L335.314 70.19C336.674 70.21 338.204 70.26 339.674 70.2C339.844 70.57 339.884 70.99 339.734 71.48L339.084 71.5C337.844 71.55 336.524 71.53 335.164 71.5L334.794 74.67C336.394 74.35 337.964 74.23 339.714 74.19C339.854 74.57 339.844 75 339.734 75.48C337.564 75.53 335.524 75.79 333.284 76.34Z" fill="white"></path><path d="M528.263 9.42002C526.563 12.06 524.523 15.13 523.813 16.18L523.433 16.72L522.383 15.97L522.763 15.45C523.743 14.08 525.753 10.98 527.193 8.70002H527.213L522.823 1.89002C523.343 1.22002 523.803 0.86002 524.183 0.77002L524.553 1.29002C525.393 3.23002 527.053 6.31002 527.963 7.42002C528.283 6.87002 529.443 5.24002 531.443 2.52002C531.973 2.76002 532.323 3.02002 532.493 3.27002L532.103 3.79002C531.093 5.10002 529.873 7.00002 528.283 9.41002L528.263 9.42002Z" fill="white"></path><path d="M542.952 11.8501C542.242 14.0901 541.152 15.7301 539.702 16.7301C538.442 17.6301 537.092 17.9501 535.672 17.7001C534.582 17.5101 533.663 17.0301 532.903 16.2301C531.273 14.5401 531.242 11.5301 531.632 9.3301C532.222 5.9501 534.092 3.9501 537.242 3.3601C537.792 3.2501 538.362 3.2701 538.912 3.3601C540.372 3.6101 541.532 4.4101 542.392 5.7901C543.292 7.2001 543.572 8.8501 543.252 10.7001C543.192 11.0701 543.082 11.4701 542.952 11.8501ZM541.302 6.6701C540.802 5.6101 540.033 5.0001 539.033 4.8301C538.663 4.7701 538.262 4.7501 537.832 4.8301C535.292 5.3201 533.542 6.9601 533.082 9.6201C532.722 11.6901 532.753 13.7301 534.153 15.2901C534.713 15.9201 535.432 16.2401 536.192 16.3701C537.192 16.5401 538.112 16.2701 539.002 15.5501C540.002 14.7201 540.782 13.4101 541.382 11.6101C541.512 11.1901 541.622 10.7901 541.692 10.4101C541.942 8.9901 541.812 7.7301 541.312 6.6901L541.302 6.6701Z" fill="white"></path><path d="M549.554 16.5601C549.314 16.8401 548.904 17.1301 548.304 17.3701C547.704 17.6301 547.204 17.7701 546.804 17.7601C546.304 17.7601 545.784 17.5201 545.204 17.1001C544.594 16.6501 544.244 16.1701 544.104 15.6301C543.944 15.0101 544.574 9.98006 544.964 6.55006C545.444 6.52006 545.934 6.57006 546.454 6.72006L546.394 7.38006C546.314 8.15006 545.664 11.9201 545.584 12.6801C545.414 14.2301 545.344 15.1301 545.414 15.3901C545.484 15.6501 545.684 15.9001 546.044 16.1301C546.354 16.3401 546.614 16.4601 546.824 16.4601C547.064 16.4801 547.384 16.4201 547.784 16.3201C548.184 16.2201 548.434 16.1101 548.544 15.9801C549.074 15.3701 549.384 14.7601 549.494 14.1101C549.594 13.5601 550.174 9.36006 550.434 7.52006L550.524 6.87006C550.964 6.85006 551.394 6.91006 551.804 7.06006L551.714 7.69006C551.484 9.36006 550.784 13.4701 550.684 14.0201C550.514 15.0201 550.114 15.8601 549.514 16.5801L549.554 16.5601Z" fill="white"></path><path d="M555.664 18.4199C555.424 17.9199 554.984 16.7199 554.354 14.7999C553.714 17.3699 553.235 19.2699 552.895 20.4799L551.645 20.1299C551.965 19.0399 552.645 16.3799 553.685 12.1499L554.255 9.9499L554.835 7.5999C554.215 7.6799 553.675 7.7799 553.055 7.8999C553.055 7.5799 553.205 6.3799 553.205 6.3799C553.935 6.2599 554.405 6.3599 555.145 6.2999C555.215 5.9899 555.285 5.6999 555.345 5.3999L556.615 5.6599L556.484 6.2799C557.114 6.2899 557.635 6.3299 558.115 6.4499C560.025 6.9399 560.734 8.3199 560.294 10.3299C560.014 11.5199 559.445 12.4699 558.595 13.1799C557.765 13.8899 556.734 14.2499 555.544 14.2899C556.374 17.8199 558.165 20.1199 560.465 22.3399L559.685 23.4399C558.745 22.8599 556.335 19.8499 555.685 18.4199H555.664ZM557.965 7.8399C557.595 7.6599 557.004 7.5599 556.174 7.5499C556.064 8.0799 555.835 8.9699 555.575 9.9999L554.935 12.4799L554.815 12.9399C555.125 12.9899 555.335 13.0099 555.445 13.0099C556.285 13.0099 557.094 12.7299 557.724 12.1699C558.264 11.6699 558.635 11.0899 558.815 10.3799C559.095 9.1899 558.785 8.2599 557.965 7.8499V7.8399Z" fill="white"></path><path d="M572.764 24.9399C571.484 24.6399 570.194 24.3799 568.914 24.0999C567.554 23.8099 566.464 23.6199 565.734 23.3399L565.434 23.2299L565.624 22.5799C566.474 19.7599 567.014 17.7399 567.304 16.5299L568.654 10.4099C569.114 10.3799 569.534 10.4699 569.964 10.6799L569.814 11.3199L568.604 16.8399C568.354 17.9399 567.854 19.7499 567.104 22.2899L573.074 23.6499C573.074 24.1099 572.974 24.5499 572.774 24.9499L572.764 24.9399Z" fill="white"></path><path d="M573.473 22.8201C573.413 22.3901 573.493 21.9701 573.673 21.5401L574.303 21.6501L575.433 21.9001C575.653 20.3001 575.823 19.0001 575.943 17.9901C576.083 16.8501 576.423 14.2701 576.533 12.7601C576.233 12.7301 575.653 12.7001 574.783 12.6501C574.653 12.0801 574.693 11.6401 574.873 11.3501L575.513 11.4001L577.733 11.5401C577.883 11.5401 578.423 11.6401 579.333 11.7401L579.973 11.7901C580.013 12.3301 579.953 12.7601 579.823 13.0801L579.163 13.0201L577.823 12.8401C577.703 14.6101 577.253 18.5301 576.893 22.1401L578.513 22.4201C578.513 22.9201 578.453 23.3401 578.293 23.7001L577.663 23.5901L573.463 22.8001L573.473 22.8201Z" fill="white"></path><path d="M589.234 14.8501L588.614 14.7201C586.524 14.2801 584.904 13.9601 583.714 13.7701C583.414 15.0301 583.094 16.4601 582.754 18.1001C584.064 18.4601 585.134 18.7401 585.964 18.9101L586.594 19.0401C586.644 19.4101 586.554 19.8301 586.334 20.3101L585.694 20.1801C585.144 20.0601 584.424 19.9201 583.554 19.6901C583.264 19.6201 582.904 19.5001 582.464 19.3701L581.244 25.2501C580.774 25.2501 580.344 25.1501 579.984 24.9701C580.564 22.1601 581.494 17.9601 582.754 12.3701C583.454 12.4101 584.254 12.5001 585.144 12.6501C585.384 12.6901 586.854 13.0001 589.534 13.5901C589.514 14.1201 589.444 14.5401 589.254 14.8601L589.234 14.8501Z" fill="white"></path><path d="M589.321 26.6001L590.061 21.7001C589.891 21.6701 589.041 21.6401 588.871 21.6301L589.081 20.3201C589.261 20.3501 590.051 20.4301 590.241 20.4401L591.081 15.0701C591.451 15.1501 591.851 15.2201 592.261 15.2901C592.571 15.3401 594.141 15.5401 596.981 15.8501C597.031 16.2201 596.981 16.6501 596.811 17.1301L596.171 17.0801C595.251 16.9801 593.931 16.8401 592.161 16.6101L591.541 20.5201C592.901 20.5801 594.421 20.6801 595.891 20.6701C596.051 21.0401 596.081 21.4601 595.911 21.9501H595.261C594.021 21.9601 592.701 21.9101 591.341 21.8201L590.871 24.9701C592.481 24.7001 594.051 24.6301 595.801 24.6501C595.921 25.0301 595.901 25.4701 595.781 25.9401C593.611 25.9201 591.561 26.1201 589.311 26.6001H589.321Z" fill="white"></path><path d="M732.292 146.71H727.992C727.922 147.67 727.842 149.07 727.772 151.12C727.742 152.13 727.942 154.06 728.252 156.93L728.332 157.59C728.202 157.68 727.662 157.73 726.722 157.74L726.622 157.08L726.702 151.12C726.712 150.16 726.642 148.7 726.642 146.71C725.742 146.79 724.282 146.94 722.292 147.01L721.412 147.04C721.372 146.89 721.352 146.67 721.352 146.42C721.352 146.18 721.332 145.91 721.332 145.71L722.212 145.68C723.332 145.65 724.872 145.38 726.842 145.36L728.702 145.34C728.912 145.34 729.582 145.35 730.732 145.32H732.012L732.292 145.29H732.382L733.302 145.24L733.222 146.65L732.302 146.71H732.292Z" fill="white"></path><path d="M739.893 159.43C739.533 159.53 739.103 159.53 738.603 159.43V158.79V154.01L735.563 154.05L735.693 158.17C735.263 158.27 734.833 158.27 734.403 158.22L734.273 154.06H732.983L732.973 152.8H734.243L734.043 144.6C734.473 144.5 734.903 144.48 735.333 144.55L735.533 152.78L738.613 152.74V143.01C739.003 142.91 739.433 142.91 739.923 143V152.73L741.783 152.7V153.96L739.903 154.01V159.45L739.893 159.43Z" fill="white"></path><path d="M742.93 158.81L742.78 153.86C742.61 153.86 741.77 153.98 741.6 154L741.57 152.67C741.76 152.67 742.54 152.61 742.73 152.59L742.59 147.15C742.97 147.17 743.38 147.16 743.79 147.15C744.11 147.15 745.68 147.06 748.53 146.85C748.65 147.21 748.67 147.64 748.6 148.14L747.96 148.2C747.04 148.26 745.71 148.37 743.93 148.46L744.02 152.42C745.37 152.24 746.89 152.06 748.33 151.78C748.56 152.12 748.66 152.53 748.58 153.03L747.94 153.15C746.72 153.39 745.41 153.57 744.06 153.73L744.16 156.92C745.69 156.36 747.23 156.01 748.95 155.72C749.14 156.07 749.2 156.51 749.17 156.99C747.04 157.36 745.05 157.93 742.92 158.81H742.93Z" fill="white"></path><path d="M756.012 158.69L755.862 153.74C755.692 153.74 754.852 153.86 754.682 153.88L754.652 152.55C754.842 152.55 755.622 152.49 755.812 152.47L755.672 147.03C756.052 147.05 756.462 147.04 756.872 147.03C757.192 147.03 758.762 146.94 761.612 146.73C761.732 147.09 761.752 147.52 761.682 148.02L761.042 148.08C760.122 148.14 758.792 148.25 757.012 148.34L757.102 152.3C758.452 152.12 759.972 151.94 761.412 151.66C761.642 152 761.742 152.41 761.662 152.91L761.022 153.03C759.802 153.27 758.492 153.45 757.142 153.61L757.242 156.8C758.772 156.24 760.312 155.89 762.032 155.6C762.222 155.95 762.282 156.39 762.252 156.87C760.122 157.24 758.132 157.81 756.002 158.69H756.012Z" fill="white"></path><path d="M771.683 147.93C771.393 148.8 771.113 149.9 770.663 151.24C770.493 151.71 769.373 154.42 767.373 159.43L764.853 152.23C764.663 151.63 763.983 149.54 762.883 145.91C763.203 145.66 763.613 145.55 764.113 145.52L764.303 146.14L766.053 151.81C766.183 152.22 766.663 153.53 767.433 155.74L769.413 150.79C769.683 149.89 769.993 148.78 770.453 147.48C770.583 147.1 770.873 146.37 771.293 145.3C771.783 145.33 772.193 145.48 772.493 145.74C772.343 146.14 772.013 146.85 771.653 147.94L771.683 147.93Z" fill="white"></path><path d="M774.051 158.54L773.901 153.59C773.731 153.59 772.891 153.71 772.721 153.73L772.691 152.4C772.881 152.4 773.661 152.34 773.851 152.31L773.711 146.87C774.091 146.89 774.501 146.88 774.911 146.87C775.231 146.87 776.801 146.78 779.651 146.57C779.771 146.93 779.791 147.36 779.721 147.86L779.081 147.92C778.161 147.98 776.831 148.09 775.051 148.18L775.141 152.14C776.491 151.96 778.011 151.78 779.451 151.5C779.681 151.84 779.781 152.25 779.701 152.75L779.061 152.87C777.841 153.11 776.531 153.29 775.181 153.45L775.281 156.64C776.811 156.08 778.351 155.73 780.071 155.44C780.261 155.79 780.321 156.23 780.291 156.71C778.161 157.08 776.171 157.65 774.041 158.53L774.051 158.54Z" fill="white"></path><path d="M784.612 152.26C784.272 151.72 783.812 150.77 783.142 149.4C783.592 153.47 783.992 156.73 784.352 159.2C783.922 159.35 783.492 159.41 783.062 159.38L782.962 158.74C782.562 155.99 782.052 151.49 781.402 145.29L782.302 144.66C784.172 148.53 785.312 150.84 785.752 151.61C786.112 152.28 786.802 153.36 787.782 154.86C787.602 151.09 787.552 147.29 787.632 143.46C788.002 143.34 788.432 143.36 788.922 143.49C788.892 145.05 788.892 146.58 788.902 148.12C788.932 152 789.102 155.81 789.412 159.59C788.102 157.67 786.472 155.25 784.602 152.26H784.612Z" fill="white"></path><path d="M800.993 146.12H796.703C796.633 147.08 796.553 148.48 796.483 150.53C796.453 151.54 796.653 153.47 796.963 156.34L797.043 157C796.913 157.09 796.373 157.14 795.433 157.15L795.333 156.49L795.413 150.53C795.423 149.57 795.353 148.11 795.353 146.12C794.453 146.2 792.993 146.35 791.003 146.42L790.123 146.45C790.083 146.3 790.063 146.08 790.063 145.83C790.063 145.59 790.043 145.32 790.043 145.12L790.923 145.09C792.043 145.06 793.583 144.79 795.553 144.77L797.413 144.75C797.623 144.75 798.293 144.76 799.433 144.73H800.713L800.993 144.7H801.083L802.003 144.65L801.923 146.06L801.003 146.12H800.993Z" fill="white"></path><path d="M815.335 353.46C814.565 355.68 813.445 357.29 811.975 358.26C810.695 359.13 809.335 359.42 807.925 359.14C806.845 358.93 805.925 358.42 805.185 357.6C803.595 355.87 803.635 352.86 804.075 350.67C804.745 347.3 806.655 345.35 809.825 344.83C810.385 344.73 810.945 344.77 811.495 344.87C812.945 345.16 814.085 345.98 814.915 347.38C815.775 348.81 816.025 350.47 815.665 352.31C815.595 352.68 815.475 353.08 815.345 353.45L815.335 353.46ZM813.805 348.24C813.325 347.17 812.575 346.54 811.585 346.35C811.215 346.28 810.815 346.26 810.385 346.32C807.835 346.75 806.045 348.35 805.515 351C805.105 353.06 805.085 355.1 806.455 356.69C806.995 357.33 807.715 357.67 808.465 357.82C809.455 358.02 810.385 357.76 811.295 357.06C812.315 356.25 813.125 354.96 813.765 353.17C813.905 352.76 814.025 352.36 814.095 351.97C814.375 350.55 814.285 349.29 813.805 348.24Z" fill="white"></path><path d="M821.824 358.32C821.574 358.6 821.164 358.88 820.564 359.1C819.964 359.34 819.454 359.47 819.064 359.45C818.564 359.45 818.044 359.19 817.484 358.75C816.884 358.29 816.544 357.8 816.424 357.26C816.284 356.64 817.024 351.62 817.494 348.2C817.974 348.18 818.464 348.24 818.984 348.4L818.914 349.05C818.824 349.82 818.074 353.57 817.984 354.33C817.774 355.87 817.694 356.78 817.754 357.04C817.814 357.3 818.014 357.55 818.364 357.79C818.664 358 818.924 358.13 819.134 358.13C819.374 358.16 819.694 358.11 820.094 358.01C820.494 357.92 820.744 357.81 820.864 357.68C821.404 357.08 821.734 356.47 821.864 355.83C821.974 355.28 822.654 351.09 822.954 349.26L823.064 348.61C823.504 348.61 823.934 348.67 824.344 348.82L824.234 349.45C823.964 351.12 823.174 355.2 823.064 355.76C822.864 356.75 822.454 357.59 821.834 358.29L821.824 358.32Z" fill="white"></path><path d="M827.886 360.32C827.666 359.82 827.256 358.61 826.656 356.67C825.956 359.23 825.436 361.11 825.056 362.32L823.816 361.94C824.166 360.86 824.896 358.22 826.036 354.01L826.666 351.82L827.306 349.48C826.686 349.55 826.146 349.63 825.516 349.74C825.516 349.42 825.696 348.23 825.696 348.23C826.426 348.13 826.896 348.23 827.636 348.19C827.716 347.88 827.796 347.59 827.846 347.3L829.106 347.59L828.966 348.21C829.586 348.24 830.116 348.29 830.586 348.42C832.486 348.95 833.166 350.35 832.676 352.35C832.366 353.53 831.776 354.47 830.916 355.16C830.076 355.85 829.036 356.18 827.846 356.2C828.596 359.75 830.336 362.08 832.576 364.36L831.766 365.44C830.836 364.83 828.496 361.77 827.886 360.33V360.32ZM830.426 349.79C830.066 349.6 829.476 349.49 828.636 349.46C828.516 349.99 828.256 350.88 827.986 351.89L827.286 354.35L827.156 354.8C827.466 354.86 827.676 354.88 827.786 354.89C828.626 354.9 829.446 354.64 830.086 354.1C830.636 353.62 831.026 353.04 831.216 352.34C831.526 351.16 831.236 350.22 830.426 349.79Z" fill="white"></path><path d="M846.964 358.39C846.004 359.35 844.954 359.96 843.834 360.22C843.154 360.37 842.354 360.37 841.434 360.18C841.154 360.13 840.904 360.06 840.654 359.99L839.844 366.56C838.924 366.59 838.334 366.55 838.094 366.42L838.184 365.79C838.284 365.56 838.414 365.01 838.584 364.19C838.684 363.67 839.434 359.2 840.824 350.77C841.314 350.73 842.154 350.73 843.364 350.76C843.834 350.78 844.284 350.87 844.704 350.95C846.924 351.39 848.254 352.3 848.684 353.71C848.834 354.22 848.834 354.77 848.724 355.34C848.514 356.42 847.924 357.46 846.974 358.4L846.964 358.39ZM846.384 353.13C845.824 352.66 845.034 352.31 844.044 352.09C843.644 352.01 842.934 351.98 841.924 352.01L840.854 358.68C841.124 358.77 841.374 358.84 841.674 358.9C842.884 359.16 843.894 359.05 844.714 358.6C845.504 358.18 846.194 357.42 846.774 356.29C846.954 355.96 847.064 355.62 847.124 355.29C847.294 354.43 847.054 353.71 846.384 353.12V353.13Z" fill="white"></path><path d="M847.717 366.58L848.567 361.7C848.397 361.67 847.557 361.61 847.387 361.6L847.627 360.29C847.807 360.33 848.597 360.42 848.787 360.44L849.747 355.09C850.107 355.18 850.517 355.26 850.917 355.34C851.227 355.4 852.787 355.63 855.617 356C855.657 356.37 855.597 356.8 855.417 357.28L854.777 357.21C853.867 357.09 852.537 356.92 850.777 356.65L850.067 360.54C851.427 360.64 852.947 360.77 854.417 360.79C854.577 361.17 854.587 361.59 854.417 362.07H853.767C852.527 362.04 851.207 361.95 849.857 361.84L849.307 364.98C850.917 364.74 852.497 364.71 854.247 364.77C854.367 365.16 854.337 365.59 854.197 366.06C852.027 365.99 849.977 366.14 847.707 366.57L847.717 366.58Z" fill="white"></path><path d="M855.786 368.18L856.856 362.01C856.686 361.98 855.836 361.92 855.676 361.89L855.916 360.6C856.096 360.64 856.886 360.73 857.066 360.75L858.026 355.4C858.386 355.49 858.776 355.57 859.186 355.65C859.496 355.71 861.086 355.93 863.896 356.31C863.956 356.69 863.896 357.11 863.716 357.59L863.066 357.52C862.176 357.4 860.826 357.23 859.066 356.96L858.366 360.86C859.726 360.94 861.226 361.08 862.716 361.09C862.866 361.48 862.856 361.9 862.716 362.39H862.066C860.826 362.36 859.496 362.25 858.156 362.15L857.386 366.59C858.996 366.36 860.576 366.32 862.326 366.38C862.436 366.77 862.406 367.2 862.276 367.67C860.106 367.6 858.056 367.75 855.786 368.18Z" fill="white"></path><path d="M872.315 363.41C871.355 364.37 870.305 364.98 869.185 365.24C868.505 365.39 867.705 365.39 866.785 365.2C866.505 365.15 866.255 365.08 865.995 365.01L865.195 371.58C864.275 371.61 863.685 371.57 863.445 371.44L863.535 370.81C863.635 370.58 863.765 370.03 863.925 369.21C864.025 368.7 864.785 364.22 866.165 355.79C866.655 355.75 867.495 355.75 868.715 355.78C869.185 355.8 869.635 355.89 870.055 355.97C872.285 356.41 873.615 357.32 874.035 358.73C874.185 359.24 874.185 359.79 874.075 360.36C873.865 361.45 873.275 362.48 872.325 363.42L872.315 363.41ZM871.735 358.15C871.175 357.68 870.385 357.33 869.395 357.11C868.995 357.03 868.285 357 867.265 357.03L866.195 363.7C866.465 363.79 866.715 363.86 867.015 363.92C868.225 364.18 869.245 364.07 870.055 363.62C870.845 363.2 871.535 362.44 872.115 361.31C872.295 360.98 872.405 360.64 872.465 360.31C872.635 359.45 872.395 358.73 871.725 358.14L871.735 358.15Z" fill="white"></path><path d="M879.935 371.54C879.415 372.24 878.795 372.75 878.055 373.1C877.335 373.44 876.615 373.54 875.855 373.39C875.085 373.24 874.375 372.83 873.745 372.17C873.455 371.88 872.825 370.33 873.195 368.87L873.365 368.22C873.935 368.16 874.345 368.2 874.615 368.35L874.445 368.99C874.275 369.68 874.155 370.73 874.545 371.09C875.025 371.55 875.445 371.86 875.805 371.97C876.395 372.16 877.055 371.95 877.765 371.44C878.315 371.07 878.555 370.85 878.895 370.36C879.185 369.94 879.425 369.41 879.555 368.77C879.635 368.37 879.585 367.57 879.475 367.36C879.145 366.72 878.585 366.48 877.405 366.05C876.365 365.69 875.485 365.31 875.025 364.37C874.805 363.94 874.755 363.49 874.775 363.02C874.815 362.55 874.935 362.04 875.025 361.54C875.255 360.36 875.645 358.91 876.525 358.24C877.385 357.57 878.305 357.54 879.305 357.82C880.505 358.15 881.265 358.63 881.525 359.14C881.805 359.65 881.915 360.25 881.835 360.88L881.575 362.17L880.385 361.9L880.615 360.76C880.675 360.29 880.525 359.96 880.285 359.72C879.905 359.32 879.305 359.16 878.975 359.1C878.275 358.96 877.795 359.1 877.275 359.49C876.735 359.88 876.405 360.87 876.265 361.62C876.185 362.04 876.145 362.59 876.205 363.08C876.275 363.88 876.855 364.41 877.825 364.76C879.505 365.32 880.485 366 880.865 366.7C881.145 367.23 881.215 368.01 881.005 369.06C880.815 370.02 880.455 370.86 879.935 371.54Z" fill="white"></path><path d="M545.783 408.4V407.76C546.043 405.81 545.313 400.92 545.073 399.36C544.993 398.87 544.783 397.98 544.603 396.63L541.113 403.32L537.453 398.12L537.103 407.89C536.283 407.99 535.713 407.96 535.383 407.85V407.19L536.283 394.48L540.813 400.35L544.313 394.62L545.683 395.08L545.783 395.74C545.903 396.55 546.103 397.63 546.333 399.04C546.753 401.57 547.273 406.01 547.443 407.75L547.503 408.39C546.903 408.55 546.213 408.55 545.793 408.4H545.783Z" fill="white"></path><path d="M555.062 405.99C554.882 406.31 554.522 406.67 553.982 407.01C553.442 407.37 552.972 407.6 552.582 407.66C552.092 407.76 551.532 407.61 550.892 407.3C550.212 406.97 549.782 406.56 549.552 406.05C549.282 405.47 549.002 400.41 548.762 396.96C549.232 396.84 549.712 396.8 550.262 396.85L550.322 397.51C550.382 398.28 550.412 402.1 550.482 402.87C550.592 404.43 550.692 405.32 550.802 405.57C550.912 405.82 551.162 406.02 551.562 406.18C551.902 406.33 552.182 406.4 552.392 406.36C552.632 406.34 552.932 406.22 553.312 406.05C553.682 405.88 553.912 405.73 554.002 405.58C554.412 404.88 554.612 404.22 554.602 403.57C554.602 403.01 554.412 398.77 554.342 396.91L554.322 396.25C554.752 396.15 555.182 396.13 555.612 396.2L555.632 396.84C555.702 398.53 555.752 402.69 555.762 403.25C555.762 404.26 555.532 405.17 555.072 405.98L555.062 405.99Z" fill="white"></path><path d="M564.254 407.59C563.884 408.38 563.384 409 562.734 409.5C562.104 409.97 561.404 410.22 560.644 410.23C559.854 410.23 559.084 409.98 558.334 409.46C557.994 409.24 557.064 407.84 557.124 406.34L557.154 405.66C557.694 405.49 558.114 405.45 558.414 405.54L558.384 406.2C558.354 406.91 558.454 407.96 558.904 408.24C559.474 408.59 559.944 408.81 560.314 408.85C560.934 408.92 561.534 408.58 562.124 407.93C562.584 407.46 562.774 407.19 563.014 406.65C563.214 406.18 563.344 405.61 563.334 404.96C563.334 404.55 563.114 403.78 562.964 403.59C562.504 403.03 561.904 402.91 560.664 402.73C559.574 402.59 558.634 402.39 557.994 401.57C557.694 401.2 557.554 400.77 557.474 400.3C557.414 399.83 557.424 399.31 557.424 398.8C557.424 397.6 557.494 396.1 558.224 395.27C558.924 394.44 559.824 394.23 560.854 394.29C562.094 394.37 562.944 394.69 563.304 395.13C563.684 395.58 563.914 396.14 563.954 396.78V398.09L562.744 398.06V396.9C562.694 396.43 562.484 396.13 562.204 395.95C561.754 395.63 561.134 395.6 560.794 395.61C560.084 395.61 559.634 395.84 559.204 396.34C558.754 396.83 558.634 397.86 558.644 398.63C558.644 399.06 558.724 399.6 558.884 400.07C559.114 400.84 559.794 401.24 560.804 401.38C562.564 401.59 563.664 402.05 564.174 402.66C564.554 403.13 564.784 403.87 564.794 404.94C564.794 405.92 564.624 406.82 564.254 407.59Z" fill="white"></path><path d="M566.564 407.96C566.434 407.55 566.424 407.12 566.534 406.67H567.174L568.334 406.71C568.264 405.1 568.194 403.79 568.134 402.77C568.064 401.63 567.934 399.02 567.774 397.52C567.474 397.54 566.894 397.62 566.034 397.72C565.804 397.18 565.764 396.75 565.894 396.43L566.534 396.37L568.744 396.11C568.894 396.09 569.434 396.09 570.354 396.02L570.994 395.96C571.134 396.48 571.154 396.92 571.084 397.25L570.424 397.31L569.074 397.38C569.274 399.14 569.534 403.08 569.824 406.69H571.474C571.574 407.16 571.574 407.59 571.484 407.97H570.844L566.564 407.95V407.96Z" fill="white"></path><path d="M580.852 405.74C580.822 406.23 580.632 406.74 580.432 407.19C580.032 408.13 579.092 408.93 577.112 408.94C575.992 408.94 574.892 408.47 574.232 407.71C572.732 405.98 572.502 403.21 572.492 401.27C572.472 398.61 573.822 394.83 577.182 394.8C579.372 394.78 580.832 396.34 580.962 398.42L581.042 399.39C580.552 399.58 580.122 399.57 579.622 399.55C579.672 399.16 579.622 398.58 579.612 398.26C579.602 396.97 578.542 396.15 577.192 396.16C574.862 396.18 573.912 399.13 573.932 400.99C573.932 401.65 573.942 402.55 574.052 403.48C574.152 404.4 574.372 405.37 574.822 406.19C575.322 407.11 576.182 407.58 577.182 407.58C578.102 407.58 578.772 407.36 579.162 406.87C579.622 406.25 579.822 405.25 579.812 404.37L581.112 404.73C581.082 405.16 580.892 405.24 580.862 405.73L580.852 405.74Z" fill="white"></path><path d="M395.315 429.69L394.725 429.45C392.745 428.64 391.205 428.03 390.075 427.63C389.555 428.82 388.975 430.16 388.345 431.71C389.565 432.3 390.575 432.77 391.355 433.08L391.945 433.32C391.925 433.69 391.765 434.09 391.465 434.52L390.855 434.27C390.335 434.06 389.655 433.79 388.835 433.4C388.555 433.28 388.225 433.1 387.825 432.89L385.565 438.45C385.105 438.36 384.705 438.19 384.375 437.95C385.455 435.29 387.125 431.33 389.365 426.06C390.045 426.23 390.815 426.46 391.665 426.77C391.895 426.85 393.285 427.43 395.815 428.48C395.705 429 395.555 429.4 395.315 429.67V429.69Z" fill="white"></path><path d="M404.855 438.53C403.745 440.6 402.385 442.02 400.775 442.74C399.375 443.4 397.985 443.47 396.635 442.97C395.595 442.59 394.775 441.94 394.175 441.02C392.875 439.06 393.395 436.09 394.175 434C395.365 430.78 397.565 429.16 400.765 429.14C401.325 429.13 401.885 429.25 402.415 429.45C403.805 429.96 404.795 430.95 405.395 432.47C406.025 434.02 406.005 435.69 405.355 437.45C405.225 437.8 405.045 438.18 404.855 438.53ZM404.165 433.14C403.865 432.01 403.215 431.27 402.265 430.92C401.915 430.79 401.525 430.71 401.085 430.7C398.495 430.72 396.475 432.02 395.545 434.55C394.815 436.52 394.475 438.53 395.575 440.32C396.005 441.04 396.665 441.48 397.385 441.75C398.335 442.1 399.295 442 400.295 441.45C401.435 440.81 402.435 439.66 403.345 438C403.545 437.62 403.725 437.24 403.865 436.87C404.365 435.52 404.475 434.26 404.165 433.14Z" fill="white"></path><path d="M415.113 442.14C414.143 444 412.973 445.27 411.633 445.97C410.453 446.57 409.293 446.67 408.193 446.26C407.333 445.94 406.673 445.38 406.193 444.58C405.153 442.9 405.653 440.24 406.343 438.38C407.413 435.5 409.273 434.02 411.923 433.93C412.413 433.91 412.853 433.99 413.293 434.16C414.423 434.58 415.273 435.35 415.723 436.68C416.223 438.04 416.123 439.61 415.543 441.17C415.423 441.5 415.273 441.83 415.103 442.15L415.113 442.14ZM414.673 437.38C414.443 436.39 413.933 435.75 413.143 435.46C412.843 435.35 412.523 435.29 412.153 435.32C410.013 435.39 408.313 436.58 407.473 438.83C406.823 440.59 406.483 442.38 407.363 443.95C407.693 444.57 408.233 444.95 408.833 445.17C409.603 445.46 410.413 445.33 411.263 444.83C412.223 444.24 413.083 443.2 413.873 441.72C414.063 441.37 414.223 441.05 414.343 440.71C414.793 439.5 414.903 438.38 414.673 437.39V437.38Z" fill="white"></path><path d="M421.477 447.27C420.147 448.48 418.067 448.83 415.227 448.32L418.707 438.15C418.657 438.13 418.267 437.99 417.547 437.76C417.577 437.29 417.727 436.83 417.987 436.4C418.827 436.67 419.417 436.87 419.717 436.98C421.707 437.71 423.037 438.71 423.717 439.94C424.217 440.85 424.327 442.23 423.717 443.92C423.147 445.45 422.297 446.51 421.477 447.27ZM422.647 440.69C422.137 439.84 421.217 439.14 419.897 438.55L417.017 447.04C418.737 447.58 420.087 446.63 420.807 446.02C421.517 445.4 422.247 444.33 422.657 443.23C423.077 442.11 422.947 441.2 422.637 440.69H422.647Z" fill="white"></path><path d="M423.075 451.7C422.445 451.47 422.255 450.84 422.465 450.27C422.675 449.69 423.295 449.34 423.945 449.58C424.455 449.77 424.745 450.38 424.545 450.94C424.345 451.48 423.735 451.94 423.085 451.7H423.075ZM428.075 442.99C427.725 443.6 427.105 444.79 426.635 445.7C426.175 446.61 425.145 448.61 425.145 448.61L424.015 448.11C424.015 448.11 426.075 443.67 426.215 443.19C426.375 442.71 428.345 438.24 428.345 438.24L429.925 439.16C429.925 439.16 428.415 442.38 428.085 443L428.075 442.99Z" fill="white"></path></svg>