<svg xmlns="http://www.w3.org/2000/svg" width="485" height="148" viewBox="0 0 485 148" fill="none"><g clip-path="url(#clip0_2047_23)"><path d="M49.4805 125.87H76.5005V130.04H55.4905V134.48H70.8905V138.56H55.4905V147.01H49.4805V125.87Z" fill="white"></path><path d="M102.5 125.87H129.55V130.04H108.5V134.33H124.2V138.38H108.5V142.91H129.55V147.02H102.5V125.88V125.87Z" fill="white"></path><path d="M154.16 139.45H160.53C161.56 142.14 164.97 143.62 170.77 143.62C176.87 143.62 179.53 142.41 179.53 140.75C179.53 135.53 154.5 142.86 154.5 132.66C154.5 128.25 159.84 125.29 168.69 125.29C177.99 125.29 184.24 128.4 185.51 133.47H179.56C178.59 130.9 174.61 129.24 168.9 129.24C163.19 129.24 160.69 130.57 160.69 132.08C160.69 137.3 185.72 130.21 185.72 140.2C185.72 144.61 180.47 147.57 170.99 147.57C161.51 147.57 155.71 144.61 154.17 139.45H154.16Z" fill="white"></path><path d="M222.392 130H209.172V125.86H241.632V130H228.412V147H222.402V130H222.392Z" fill="white"></path><path d="M267.551 125.87H273.501V147.01H267.551V125.87Z" fill="white"></path><path d="M319.999 147H313.539L298.559 125.86H305.509L311.249 134.07L316.959 142.31L322.669 134.07L328.379 125.86H334.989L320.009 147H319.999Z" fill="white"></path><path d="M362.47 125.87H368.93L383.91 147.01H376.94L373.83 142.42H357.19L354.08 147.01H347.5L362.48 125.87H362.47ZM359.78 138.58H371.22L365.51 130.07L359.77 138.58H359.78Z" fill="white"></path><path d="M408.941 125.87H414.951V142.87H435.541V147.01H408.941V125.87Z" fill="white"></path><path d="M343.678 8.43012V103.81C343.678 104.96 344.608 105.88 345.748 105.88C358.458 106.68 370.738 106.73 382.508 105.88C383.658 105.88 384.578 104.95 384.578 103.81V50.7801C384.578 50.7801 384.158 46.2301 389.598 46.0501C394.698 45.8801 395.498 50.5001 395.498 50.5001V103.82C395.498 104.97 396.428 105.89 397.568 105.89C408.738 107.18 420.618 107.13 433.388 105.89C434.538 105.89 435.458 104.96 435.458 103.82V23.2101C435.458 23.2101 437.428 1.79012 418.588 0.110116C401.768 -1.39988 393.748 12.7601 386.968 31.8701C386.498 33.1801 384.568 32.8601 384.568 31.4701V8.43012C384.568 7.33012 383.678 6.43012 382.568 6.43012C370.448 5.29012 358.138 5.32012 345.648 6.43012C344.548 6.43012 343.648 7.32012 343.648 8.43012H343.678Z" fill="white"></path><path d="M174.998 105.38C166.328 106.8 154.508 106.84 135.528 105.38C134.318 105.38 133.338 104.4 133.338 103.19C133.648 74.2002 132.898 42.2702 133.338 8.13021C133.338 6.92021 134.318 5.94021 135.528 5.94021C147.748 4.80021 160.908 4.80021 174.998 5.94021C176.208 5.94021 177.188 6.92021 177.188 8.13021C177.318 42.9202 177.008 75.3902 177.188 103.19C177.188 104.4 176.418 104.85 174.998 105.38Z" fill="white"></path><path d="M330.517 105.78C321.847 107.2 310.027 107.24 291.047 105.78C289.837 105.78 288.857 104.8 288.857 103.59C289.167 74.6002 288.417 42.6702 288.857 8.53023C288.857 7.32023 289.837 6.34023 291.047 6.34023C303.367 6.20023 316.537 6.19023 330.517 6.34023C331.727 6.34023 332.707 7.32023 332.707 8.53023C332.837 43.3202 332.527 75.7902 332.707 103.59C332.707 104.8 331.937 105.25 330.517 105.78Z" fill="white"></path><path d="M247.62 46.6402C245.84 46.5602 246.01 44.6302 247.79 44.6302C262.27 44.6102 278.51 34.6902 273.46 21.8302C266.64 4.50023 228.64 6.43022 228.64 6.43022L190.45 6.23022C189.17 6.23022 188.12 7.27022 188.12 8.55022C188.63 45.1202 187.68 79.2902 188.12 103.51C188.12 104.79 189.15 105.82 190.43 105.82C199.42 105.82 231.79 105.81 236.99 105.83C257.65 105.88 281.13 98.7702 281.18 77.7102C281.23 56.0602 257.9 47.1202 247.64 46.6402H247.62ZM238.66 60.4702C237.68 67.5002 226.22 69.6702 221.03 70.2902C219.69 70.4502 218.51 69.4102 218.51 68.0602V52.4702C218.51 51.2902 219.42 50.3102 220.6 50.2202C226.04 49.8402 240.13 49.8602 238.66 60.4702ZM220.22 44.8302C219.28 44.8302 218.51 44.0502 218.51 43.1002V13.5302C218.51 12.5302 219.36 11.7302 220.36 11.8002C225.93 12.2202 242.3 14.5102 244.41 27.3202C247.13 43.7902 226.4 44.8702 220.21 44.8302H220.22Z" fill="white"></path><path d="M448.567 12.8901C442.987 29.5301 457.637 41.4001 471.737 34.0601C476.817 31.4101 471.177 40.2501 465.827 47.1201C465.017 48.1601 465.387 50.6601 466.677 50.9301L472.857 51.9601C473.987 52.1901 474.657 51.6301 475.327 50.3301C483.837 33.8201 488.507 11.9201 478.417 4.22012C470.407 -1.89988 453.767 -2.61988 448.567 12.8901Z" fill="white"></path><path d="M0.598545 8.68012C-0.651455 7.51012 0.188545 5.43012 1.89855 5.42012L39.4585 5.24012C47.8885 5.24012 55.0285 10.3601 58.1985 18.1801C66.2885 38.2601 76.9285 65.1901 80.8485 73.0601C84.3185 79.8101 90.6685 72.4001 89.0285 68.6101C82.2585 52.9601 74.2785 28.0701 66.6385 8.18012C66.1985 7.04012 66.7785 5.47012 67.9885 5.46012C86.1885 3.49012 104.349 3.24012 122.419 5.27012C124.459 5.27012 125.879 7.28012 125.199 9.20012L97.8085 86.1401C97.8085 86.1401 91.7785 106.99 64.1385 105.13C46.2485 103.93 41.7785 89.0301 36.1785 72.2801C23.8785 35.4501 8.68855 16.2601 0.598545 8.68012Z" fill="white"></path></g><defs><clipPath id="clip0_2047_23"><rect width="484.14" height="147.58" fill="white"></rect></clipPath></defs></svg>