<svg xmlns="http://www.w3.org/2000/svg" width="556" height="120" viewBox="0 0 556 120" fill="none"><path d="M183.625 75.332H158.947V12.7263H183.625C192.559 12.7263 199.903 15.3491 205.656 20.5948C208.73 23.3887 211.05 26.7698 212.613 30.7326C214.181 34.6953 214.962 39.1313 214.962 44.0292C214.962 48.927 214.181 53.4542 212.613 57.417C211.045 61.3797 208.73 64.7609 205.656 67.5491C202.868 70.1149 199.607 72.0535 195.878 73.3649C192.149 74.6763 188.066 75.332 183.625 75.332ZM170.921 64.7267H183.665C185.888 64.7267 188.14 64.4701 190.421 63.957C192.702 63.4438 194.766 62.4346 196.625 60.9179C198.478 59.4069 200 57.3144 201.198 54.6345C202.395 51.9547 202.994 48.4481 202.994 44.1147C202.994 39.7813 202.395 36.2633 201.198 33.5493C200 30.8409 198.461 28.7484 196.579 27.2659C194.698 25.7834 192.616 24.7856 190.336 24.2725C188.055 23.7593 185.831 23.5027 183.665 23.5027H170.921V64.7267Z" fill="white"></path><path d="M289.542 12.7263V75.332H277.568V50.4437H246.693V75.332H234.719V12.7263H246.693V39.8384H277.568V12.7263H289.542Z" fill="white"></path><path d="M305.363 75.332L337.35 12.8118H338.548L370.535 75.332H357.535L352.66 65.4964H323.153L318.363 75.332H305.363ZM328.969 55.0621H346.844L337.949 36.1606L328.969 55.0621Z" fill="white"></path><path d="M419.372 23.3317H401.497V75.332H389.523V23.3317H371.562V12.7263H419.372V23.3317Z" fill="white"></path><path d="M490.53 12.8118L460.766 75.332H460.082L430.404 12.8118H443.575L460.424 49.0752L477.273 12.8118H490.53Z" fill="white"></path><path d="M490.018 75.332L522.005 12.8118H523.202L555.189 75.332H542.189L537.314 65.4964H507.807L503.018 75.332H490.018ZM513.623 55.0621H531.498L522.603 36.1606L513.623 55.0621Z" fill="white"></path><path d="M232.876 103.431C232.876 105.808 231.12 107.165 227.625 107.165H221.199V93.196H227.226C230.339 93.196 232.135 94.5132 232.135 96.7882C232.135 98.3847 231.274 99.4452 229.997 99.9641C231.793 100.363 232.871 101.543 232.871 103.436L232.876 103.431ZM222.676 94.4105V99.4794H227.129C229.364 99.4794 230.664 98.6242 230.664 96.9421C230.664 95.2601 229.364 94.4048 227.129 94.4048H222.676V94.4105ZM231.4 103.311C231.4 101.492 230.066 100.7 227.608 100.7H222.676V105.951H227.608C230.066 105.951 231.4 105.153 231.4 103.317V103.311Z" fill="white"></path><path d="M252.993 103.431H245.21L243.534 107.165H241.994L248.38 93.196H249.834L256.22 107.165H254.664L252.987 103.431H252.993ZM252.451 102.233L249.099 94.7298L245.746 102.233H252.451Z" fill="white"></path><path d="M268.542 94.4674H263.633V93.1902H274.928V94.4674H270.019V107.16H268.542V94.4674Z" fill="white"></path><path d="M296.935 93.1902V107.16H295.475V100.711H286.735V107.16H285.258V93.1902H286.735V99.4165H295.475V93.1902H296.935Z" fill="white"></path><path d="M331.444 103.431H323.661L321.985 107.165H320.445L326.831 93.196H328.285L334.671 107.165H333.115L331.438 103.431H331.444ZM330.902 102.233L327.55 94.7298L324.197 102.233H330.902Z" fill="white"></path><path d="M356.646 93.1902V107.16H355.426L346.445 95.8244V107.16H344.969V93.1902H346.189L355.192 104.525V93.1902H356.652H356.646Z" fill="white"></path><path d="M369.178 93.1902H374.868C379.338 93.1902 382.355 96.0639 382.355 100.175C382.355 104.286 379.338 107.16 374.868 107.16H369.178V93.1902ZM374.788 105.882C378.5 105.882 380.895 103.528 380.895 100.175C380.895 96.8222 378.5 94.4674 374.788 94.4674H370.655V105.882H374.788Z" fill="white"></path><path d="M418.527 103.431C418.527 105.808 416.771 107.165 413.276 107.165H406.85V93.196H412.876C415.99 93.196 417.786 94.5132 417.786 96.7882C417.786 98.3847 416.925 99.4452 415.647 99.9641C417.444 100.363 418.521 101.543 418.521 103.436L418.527 103.431ZM408.326 94.4105V99.4794H412.779C415.015 99.4794 416.315 98.6242 416.315 96.9421C416.315 95.2601 415.015 94.4048 412.779 94.4048H408.326V94.4105ZM417.05 103.311C417.05 101.492 415.716 100.7 413.258 100.7H408.326V105.951H413.258C415.716 105.951 417.05 105.153 417.05 103.317V103.311Z" fill="white"></path><path d="M428.648 100.175C428.648 96.1039 431.762 93.0706 435.992 93.0706C440.223 93.0706 443.319 96.0868 443.319 100.175C443.319 104.263 440.183 107.279 435.992 107.279C431.801 107.279 428.648 104.246 428.648 100.175ZM441.842 100.175C441.842 96.8394 439.345 94.3877 435.992 94.3877C432.64 94.3877 430.102 96.8451 430.102 100.175C430.102 103.505 432.617 105.962 435.992 105.962C439.368 105.962 441.842 103.511 441.842 100.175Z" fill="white"></path><path d="M454.607 93.1902H460.298C464.768 93.1902 467.784 96.0639 467.784 100.175C467.784 104.286 464.768 107.16 460.298 107.16H454.607V93.1902ZM460.218 105.882C463.93 105.882 466.325 103.528 466.325 100.175C466.325 96.8222 463.93 94.4674 460.218 94.4674H456.084V105.882H460.218Z" fill="white"></path><path d="M483.264 102.33V107.16H481.805V102.33L476.217 93.1902H477.796L482.586 101.036L487.375 93.1902H488.852L483.264 102.33Z" fill="white"></path><path d="M119.424 51.607C119.424 51.607 119.424 51.6012 119.424 51.5956C117.634 38.7551 111.761 26.9011 102.433 17.5729C91.0976 6.24347 76.0277 0 60 0C43.9723 0 28.9081 6.24347 17.5729 17.5729C6.24347 28.9081 0 43.9723 0 60C0 76.0277 6.24347 91.0976 17.5729 102.427C28.9081 113.762 43.9723 120 60 120C76.0277 120 91.0976 113.757 102.427 102.427C113.762 91.0919 120 76.0277 120 60C120 57.1662 119.8 54.3666 119.418 51.607H119.424ZM112.017 83.098C106.042 87.2261 98.9319 87.9901 91.4112 88.7941C84.1471 89.5752 76.6949 90.3735 70.1663 94.3761C70.1834 94.3533 70.1948 94.3305 70.2119 94.3077C72.772 90.5274 75.8168 87.0607 79.0497 83.7651C81.1879 82.0659 86.2625 80.9484 91.5993 79.7738C99.6902 77.9949 109.435 75.8453 115.946 70.4913C115.125 74.8931 113.791 79.1124 112.017 83.098ZM45.4946 115.039C43.1569 104.166 43.0086 95.0831 44.4626 87.4028C53.0381 93.8915 59.4412 101.709 59.9487 116.915C54.9539 116.915 50.1131 116.254 45.5003 115.039H45.4946ZM6.91058 80.5037C10.44 78.565 21.5813 75.5089 29.8945 77.5273C31.7932 78.8387 33.709 80.0931 35.6077 81.3304C37.7174 82.7103 39.7757 84.0559 41.7486 85.4357C41.4692 86.7072 41.2354 88.0072 41.0472 89.3243C31.3656 89.5011 22.7901 91.5651 15.526 95.4595C11.9396 90.9722 9.02024 85.9375 6.91628 80.4979L6.91058 80.5037ZM3.25002 64.2763C9.2084 64.0369 15.1212 65.9185 20.0532 69.6531C21.5927 71.1413 23.1892 72.5154 24.8256 73.8097C17.5102 73.6102 9.70446 75.6913 5.87285 77.5957C4.49302 73.3536 3.59213 68.8891 3.25002 64.2763ZM3.09037 60.0057C3.09037 57.7763 3.22151 55.5754 3.47239 53.4087C6.77373 53.8078 9.79568 56.0772 12.2931 60.0513C12.3102 60.0798 12.333 60.1083 12.3558 60.1368C12.9545 61.1175 13.5874 62.0697 14.2602 62.9991C10.6852 61.6706 6.89347 61.0434 3.10178 61.1917C3.09608 60.7982 3.08467 60.3991 3.08467 60.0057H3.09037ZM108.089 29.5866C104.189 33.652 96.8963 36.9875 88.5375 40.8135C78.2115 45.5402 66.7338 50.7916 57.4855 59.0877C56.368 57.9987 55.2162 57.0351 54.0473 56.1741C54.7258 46.1218 64.8864 43.7727 75.6286 41.2867C78.2571 40.6766 80.9712 40.0494 83.5256 39.3082C89.4099 37.5919 94.2165 35.2257 97.8086 32.2836C100.699 29.9116 102.809 27.1634 104.12 24.0844C105.552 25.8348 106.874 27.6708 108.089 29.5866ZM116.915 60C116.915 61.8189 116.824 63.6206 116.659 65.3996C111.208 72.2931 99.981 74.7677 90.9322 76.7633C88.7199 77.2479 86.6502 77.7041 84.78 78.1944C85.6638 77.362 86.5533 76.5352 87.4313 75.7141L87.9046 75.2694C89.5638 73.7242 91.28 72.122 93.0077 70.4514C95.756 67.9768 99.6218 66.3461 103.693 64.6299C108.579 62.5715 113.591 60.4618 116.813 56.6816C116.875 57.782 116.91 58.8881 116.91 60.0057L116.915 60ZM74.4769 51.0938C79.101 48.5679 83.8563 46.3556 88.4349 44.2573C91.8445 52.314 91.6279 63.9456 89.866 69.1913C88.4919 70.5027 87.1291 71.7742 85.8063 73.0058L85.3331 73.4505C83.6396 75.0299 81.9234 76.6207 80.2357 78.2514C81.6953 69.7501 80.1444 58.8026 74.4826 51.0938H74.4769ZM106.424 47.8666C106.259 43.5218 105.01 39.502 103.841 36.6454C105.888 35.4196 107.696 34.1481 109.206 32.791C109.646 37.7459 108.728 42.7293 106.418 47.8666H106.424ZM101.133 38.1792C102.809 42.4157 104.565 49.1324 102.239 55.2333C99.7529 58.8596 96.8507 62.1781 93.8459 65.2685C94.6726 58.814 94.1652 49.8052 91.2458 42.9744C94.8038 41.3437 98.1564 39.7814 101.133 38.1792ZM116.3 51.6583C114.196 56.8526 108.511 59.2531 102.495 61.7847C101.794 62.0812 101.093 62.3776 100.392 62.6798C101.999 60.7925 103.533 58.8197 104.947 56.7386C106.281 55.2618 107.918 53.9789 109.503 52.7416C111.658 51.0539 113.865 49.3319 115.427 47.0626C115.781 48.5736 116.071 50.1074 116.3 51.6583ZM109.332 48.9328C111.031 45.1069 112.017 41.3437 112.314 37.5976C113.01 39.217 113.631 40.8705 114.178 42.5639C113.443 45.2209 111.601 47.0797 109.332 48.9328ZM82.6532 36.3489C80.1787 37.0674 77.5102 37.6889 74.9216 38.2876C69.2483 39.599 63.3812 40.956 58.9167 43.5446C54.4464 46.1389 51.8863 49.6683 51.1394 54.2925C50.3412 53.8307 49.5372 53.4087 48.7275 53.021C50.1644 49.024 52.046 45.6828 54.2583 42.8832C54.321 42.8205 54.378 42.7464 54.4293 42.6722C63.2386 31.7134 77.1453 29.0678 88.834 26.8498C93.3669 25.9888 97.4608 25.2133 100.745 24.0217C97.8998 29.5353 91.8331 33.6748 82.6532 36.3546V36.3489ZM66.0724 30.0485C63.3641 31.3086 60.7355 32.8252 58.2838 34.684C62.1097 18.5536 71.1698 12.504 80.9484 9.07156C78.3484 15.7141 72.1049 24.6375 66.0724 30.0485ZM57.6338 26.5305C56.6359 28.9651 55.8149 31.6051 55.1649 34.4674C54.7886 30.8296 53.7109 27.1976 52.6561 23.6396C50.7004 17.0655 48.8473 10.8163 51.2934 4.95486C54.4693 8.92901 58.3237 16.5979 57.6395 26.5305H57.6338ZM49.6912 24.5177C51.4245 30.3564 53.0609 35.87 51.7324 41.1157C51.185 41.8113 50.6605 42.5354 50.153 43.2937C49.178 34.1538 45.5288 21.8379 37.706 16.1019C34.8038 13.9751 31.5765 12.9146 28.0642 12.9203C34.0625 8.83778 40.8819 5.87285 48.2144 4.32196C45.6771 11.0045 47.7126 17.858 49.6912 24.5177ZM23.537 16.6778C28.2182 15.372 32.3634 16.0106 35.8814 18.5879C43.8981 24.4664 47.3819 39.3595 47.3477 48.2828C46.8231 49.4004 46.3385 50.5749 45.8881 51.8065C45.8481 51.7894 45.8025 51.7723 45.7626 51.7609C44.2231 39.5248 37.3354 34.0397 31.7761 29.6151C27.0265 25.8348 23.2291 22.8129 23.5427 16.6778H23.537ZM55.2333 61.2145C54.7715 61.6706 54.321 62.1439 53.8763 62.6171C53.8421 62.6513 53.8078 62.6855 53.7793 62.7255C53.346 63.1873 52.9241 63.6549 52.5078 64.1338C49.1837 67.9597 46.5495 72.1106 44.6052 76.6036C42.5468 71.415 42.3244 67.0759 42.1078 62.8566C41.9424 59.6123 41.7828 56.5105 40.7336 53.403C45.8367 54.7315 50.7859 56.9267 55.239 61.2145H55.2333ZM37.0731 52.5877C38.6525 55.8662 38.8235 59.196 39.0174 63.0162C39.274 68.0224 39.5648 73.6843 43.0429 80.6918C42.8718 81.205 42.7122 81.7238 42.5639 82.2484C40.8477 81.0681 39.0858 79.9164 37.2954 78.7475C35.6305 77.6585 33.9542 76.5637 32.3007 75.4348C28.7028 69.0659 27.7107 63.9627 26.7585 59.025C26.2055 56.1741 25.6809 53.4486 24.6717 50.7061C26.3879 50.9969 28.1384 51.2363 29.9059 51.4815C32.2836 51.8065 34.6897 52.1429 37.0731 52.5934V52.5877ZM21.0339 49.9762C22.4594 53.0609 23.0524 56.1114 23.7252 59.6066C24.4151 63.1873 25.1734 67.1044 27.0037 71.5803C22.5278 68.0737 18.3712 63.9913 15.0527 58.6202C14.6821 56.9324 14.8532 54.9026 15.0299 52.7644C15.1611 51.1964 15.2979 49.5942 15.2181 48.049C17.0484 48.8872 19.0041 49.4973 21.0339 49.9762ZM11.797 46.0933C12.333 47.8894 12.1505 50.1359 11.951 52.5021C11.951 52.5363 11.951 52.5649 11.9453 52.5991C10.822 49.9534 9.87551 47.0398 9.13998 43.8012C9.97244 44.6679 10.8619 45.4262 11.797 46.0876V46.0933ZM8.29611 51.7723C6.75093 50.9284 5.25706 50.5122 3.91143 50.3412C4.35617 47.7468 4.97767 45.2152 5.75881 42.7578C6.39171 45.9451 7.23558 48.9499 8.29041 51.7723H8.29611ZM61.3855 105.711C60.0456 100.973 57.9017 96.788 54.914 93.0818C52.0973 89.5866 48.7846 86.7414 45.1981 84.1072C47.1025 76.8545 50.5179 70.936 54.857 65.9869C61.6307 74.3229 64.5671 86.5875 63.1474 100.774C62.4461 102.416 61.8531 104.069 61.3855 105.711ZM56.9837 63.7062C61.3342 59.3158 66.4259 55.7294 71.7685 52.6162C78.1431 61.0206 79.0611 74.6137 75.851 82.6247C72.8804 85.7265 70.0808 89.005 67.6575 92.5744C67.2869 93.1217 66.9334 93.6691 66.5856 94.2165C66.6369 81.9234 63.3184 71.3067 56.9837 63.7062ZM101.019 20.5835C97.8599 21.9804 93.3498 22.8414 88.2638 23.805C83.5199 24.7059 78.2229 25.7151 72.9659 27.3914C78.0804 21.4844 82.5848 14.1747 84.4037 8.59261C90.6528 11.5689 96.2748 15.6514 101.019 20.5892V20.5835ZM79.1808 6.41452C74.7905 8.00532 70.1321 10.2803 65.9869 14.1576C63.957 16.0563 62.1781 18.2115 60.65 20.6462C59.8461 12.2931 56.2995 6.43163 53.9846 3.40967C55.9631 3.19871 57.9702 3.09037 60.0057 3.09037C66.7338 3.09037 73.1882 4.26494 79.1808 6.42022V6.41452ZM20.5151 19.0554C21.1594 25.105 25.4015 28.4805 29.8546 32.027C34.9919 36.1152 40.7678 40.7165 42.4841 50.689C38.3731 49.5258 34.2393 48.9556 30.3279 48.414C20.726 47.0911 12.4128 45.9451 8.05664 36.7538C11.0558 30.077 15.3093 24.0787 20.5151 19.0554ZM17.5615 97.877C24.1642 94.4674 31.9244 92.6314 40.6823 92.4204C40.095 99.0288 40.5797 106.219 42.1306 114.036C32.5687 110.866 24.13 105.227 17.5615 97.877ZM64.1224 116.761C69.7102 108.072 79.4773 108.226 87.437 108.351C88.3037 108.363 89.1419 108.38 89.9458 108.38C82.3396 113.101 73.5475 116.083 64.1281 116.761H64.1224ZM94.8266 104.981C92.8994 105.346 90.2651 105.306 87.4827 105.261C79.8365 105.141 69.7729 104.987 63.1702 112.839C63.4724 109.286 64.4303 105.609 65.9983 101.948C72.9716 93.8744 82.0888 92.8937 91.7362 91.8616C97.7459 91.2173 103.915 90.5559 109.52 88.0243C105.785 94.5985 100.774 100.363 94.8266 104.976V104.981Z" fill="#F58234"></path></svg>