<svg xmlns="http://www.w3.org/2000/svg" width="431" height="185" viewBox="0 0 431 185" fill="none"><path d="M226.219 144.177H80.3125V32.8494H191.64V72.8044H190.747V33.7422H81.2053V143.284H226.219V144.177Z" fill="#754C24"></path><path d="M135.984 144.177C101.182 144.177 72.8711 115.866 72.8711 81.0633C72.8711 46.2607 101.182 17.9685 135.984 17.9685C170.787 17.9685 199.098 46.2793 199.098 81.0819C199.098 115.884 170.787 144.195 135.984 144.195V144.177ZM135.984 18.8614C101.684 18.8614 73.7639 46.7629 73.7639 81.0819C73.7639 115.401 101.666 143.302 135.984 143.302C170.303 143.302 198.205 115.401 198.205 81.0819C198.205 46.7629 170.285 18.8614 135.984 18.8614Z" fill="#754C24"></path><path d="M179.994 101.45H63.4766V102.343H179.994V101.45Z" fill="#754C24"></path><path d="M136.412 0H135.52V150.427H136.412V0Z" fill="#754C24"></path><path d="M135.673 90.3098L80.457 143.427L81.076 144.07L136.292 90.9532L135.673 90.3098Z" fill="#754C24"></path><path d="M136.277 90.2949L135.658 90.9385L190.884 144.046L191.503 143.403L136.277 90.2949Z" fill="#754C24"></path><path d="M277.444 32.8494H191.191V33.7422H277.444V32.8494Z" fill="#754C24"></path><path d="M295.133 32.8494H283.117V33.7422H295.133V32.8494Z" fill="#754C24"></path><path d="M236.355 143.284H230.57V144.177H236.355V143.284Z" fill="#754C24"></path><path d="M303.801 32.8494H299.43V33.7422H303.801V32.8494Z" fill="#754C24"></path><path d="M57.9158 101.45H52.1309V102.343H57.9158V101.45Z" fill="#754C24"></path><path d="M191.637 77.585H190.744V83.3885H191.637V77.585Z" fill="#754C24"></path><path d="M147.386 144.176H124.116V102.157L85.668 32.8491H113.123L136.226 81.2305L158.249 32.8491H184.607L147.386 102.473V144.195V144.176Z" fill="white"></path><path d="M197.423 144.176H172.926L212.62 32.8306H239.443L278.673 144.176H253.394L246.27 121.223H205.18L197.423 144.176ZM211.374 101.989H239.759L225.957 57.9606H225.641L211.374 101.989Z" fill="white"></path><path d="M310.165 108.835C310.165 110.304 310.444 112.015 311.021 113.987C311.579 115.959 312.695 117.819 314.35 119.586C316.006 121.353 318.387 122.86 321.475 124.069C324.581 125.296 328.655 125.91 333.733 125.91C336.523 125.91 339.294 125.706 342.029 125.315C344.763 124.924 347.256 124.236 349.469 123.25C351.701 122.264 353.506 120.888 354.901 119.121C356.296 117.354 356.984 115.047 356.984 112.201C356.984 110.137 356.5 108.425 355.515 107.049C354.529 105.672 353.134 104.519 351.329 103.589C349.525 102.659 347.386 101.859 344.893 101.171C342.419 100.483 339.722 99.7944 336.82 99.1062L324.879 96.4462C320.321 95.4604 315.932 94.3815 311.69 93.2096C307.449 92.0378 303.711 90.3265 300.455 88.1315C297.2 85.918 294.578 83.0349 292.55 79.4449C290.541 75.8549 289.537 71.1674 289.537 65.3825C289.537 63.4107 289.778 61.253 290.225 58.8907C290.69 56.5284 291.49 54.1474 292.624 51.7479C293.759 49.3297 295.34 46.986 297.349 44.6795C299.358 42.373 301.981 40.364 305.18 38.6341C308.379 36.9228 312.211 35.5092 316.657 34.4303C321.103 33.3514 326.311 32.812 332.319 32.812C340.801 32.812 347.814 33.9839 353.413 36.3462C358.993 38.7085 363.439 41.6103 366.75 45.0329C370.061 48.4741 372.386 52.1757 373.725 56.1563C375.064 60.137 375.734 63.7456 375.734 66.9821H353.413C353.208 65.8103 352.873 64.3036 352.408 62.4993C351.943 60.6764 350.939 58.9465 349.395 57.2724C347.851 55.5983 345.6 54.1474 342.643 52.9198C339.685 51.6921 335.686 51.0782 330.626 51.0782C328.45 51.0782 326.218 51.3015 323.874 51.7479C321.549 52.1943 319.466 52.9011 317.587 53.887C315.708 54.8729 314.202 56.1749 313.011 57.7932C311.821 59.4115 311.225 61.4018 311.225 63.7642C311.225 65.8289 311.616 67.5216 312.397 68.8423C313.179 70.1815 314.146 71.2232 315.336 72.0044C316.527 72.7857 317.81 73.3809 319.205 73.7715C320.6 74.1622 321.865 74.497 323 74.7946L350.139 81.1189C353.971 82.0118 357.635 83.0907 361.151 84.3555C364.666 85.639 367.773 87.3503 370.451 89.508C373.148 91.6657 375.287 94.3629 376.887 97.6181C378.487 100.873 379.287 104.835 379.287 109.541C379.287 114.843 378.431 119.381 376.738 123.157C375.027 126.933 372.814 130.096 370.061 132.662C367.308 135.229 364.294 137.257 360.983 138.782C357.672 140.308 354.398 141.461 351.143 142.242C347.888 143.023 344.856 143.544 342.066 143.786C339.276 144.028 337.044 144.158 335.388 144.158C325.251 144.158 317.066 142.93 310.816 140.475C304.566 138.02 299.73 135.006 296.307 131.416C292.885 127.826 290.615 123.976 289.481 119.865C288.346 115.736 287.77 112.053 287.77 108.816H310.091L310.165 108.835Z" fill="white"></path><path d="M0.458984 172.115H2.70971L5.57427 178.161L8.43884 172.115H10.671L6.59733 179.984V184.448H4.56982V179.984L0.477585 172.115H0.458984Z" fill="#C49A6D"></path><path d="M26.7967 181.937H21.6256L20.7328 184.448H18.6309L23.0579 172.097H25.4016L29.8287 184.448H27.7082L26.8153 181.937H26.7967ZM24.2298 174.552L22.2023 180.281H26.2387L24.2298 174.552Z" fill="#C49A6D"></path><path d="M42.9084 184.578C40.4344 184.578 38.5371 183.239 38.5371 181.044H40.6948C40.7878 182.048 41.4947 182.867 42.8898 182.867C44.2848 182.867 45.1033 182.104 45.1033 181.062C45.1033 178.086 38.5557 180.021 38.5557 175.482C38.5557 173.324 40.2856 171.967 42.7968 171.967C45.1591 171.967 46.8332 173.213 47.0006 175.315H44.7685C44.6941 174.478 43.9686 173.715 42.6851 173.678C41.5133 173.641 40.6018 174.217 40.6018 175.408C40.6018 178.198 47.1308 176.449 47.1308 180.969C47.1308 182.811 45.6241 184.597 42.8712 184.597L42.9084 184.578Z" fill="#C49A6D"></path><path d="M64.4853 179.054H58.6818V184.448H56.6543V172.115H58.6818V177.398H64.4853V172.115H66.5129V184.448H64.4853V179.054Z" fill="#C49A6D"></path><path d="M95.4354 181.937H90.2643L89.3715 184.448H87.2695L91.6966 172.097H94.0403L98.4674 184.448H96.3468L95.454 181.937H95.4354ZM92.8685 174.552L90.8409 180.281H94.8774L92.8685 174.552Z" fill="#C49A6D"></path><path d="M111.729 172.115C114.65 172.115 116.101 173.808 116.101 175.798C116.101 177.249 115.319 178.812 113.236 179.333L116.287 184.448H113.869L111.023 179.519H109.479V184.448H107.451V172.115H111.711H111.729ZM111.729 173.771H109.497V177.9H111.729C113.311 177.9 114.017 177.026 114.017 175.798C114.017 174.571 113.311 173.752 111.729 173.752V173.771Z" fill="#C49A6D"></path><path d="M131.409 171.966C133.976 171.966 136.208 173.268 137.138 175.668H134.702C134.051 174.347 132.879 173.734 131.409 173.734C128.954 173.734 127.187 175.482 127.187 178.254C127.187 181.025 128.954 182.792 131.409 182.792C132.879 182.792 134.051 182.178 134.702 180.858H137.138C136.19 183.276 133.976 184.541 131.409 184.541C127.931 184.541 125.104 181.955 125.104 178.235C125.104 174.515 127.931 171.929 131.409 171.929V171.966Z" fill="#C49A6D"></path><path d="M154.438 179.054H148.635V184.448H146.607V172.115H148.635V177.398H154.438V172.115H156.466V184.448H154.438V179.054Z" fill="#C49A6D"></path><path d="M166.23 172.115H168.258V184.448H166.23V172.115Z" fill="#C49A6D"></path><path d="M177.373 172.115H185.985V173.771H182.712V184.448H180.684V173.771H177.392V172.115H177.373Z" fill="#C49A6D"></path><path d="M201.947 173.752H197.148V177.38H201.407V179.035H197.148V182.811H201.947V184.467H195.139V172.115H201.947V173.771V173.752Z" fill="#C49A6D"></path><path d="M217.159 171.966C219.726 171.966 221.958 173.268 222.888 175.668H220.452C219.801 174.347 218.629 173.734 217.159 173.734C214.704 173.734 212.937 175.482 212.937 178.254C212.937 181.025 214.704 182.792 217.159 182.792C218.629 182.792 219.801 182.178 220.452 180.858H222.888C221.94 183.276 219.726 184.541 217.159 184.541C213.681 184.541 210.854 181.955 210.854 178.235C210.854 174.515 213.681 171.929 217.159 171.929V171.966Z" fill="#C49A6D"></path><path d="M231.707 172.115H240.319V173.771H237.046V184.448H235.018V173.771H231.726V172.115H231.707Z" fill="#C49A6D"></path><path d="M249.451 172.115H251.479V179.984C251.479 181.9 252.558 182.811 254.269 182.811C255.98 182.811 257.078 181.9 257.078 179.984V172.115H259.105V179.947C259.105 183.09 256.836 184.578 254.269 184.578C251.702 184.578 249.47 183.09 249.47 179.947V172.115H249.451Z" fill="#C49A6D"></path><path d="M273.075 172.115C275.995 172.115 277.446 173.808 277.446 175.798C277.446 177.249 276.665 178.812 274.582 179.333L277.632 184.448H275.214L272.368 179.519H270.824V184.448H268.797V172.115H273.057H273.075ZM273.075 173.771H270.843V177.9H273.075C274.656 177.9 275.363 177.026 275.363 175.798C275.363 174.571 274.656 173.752 273.075 173.752V173.771Z" fill="#C49A6D"></path><path d="M294.58 181.937H289.409L288.516 184.448H286.414L290.841 172.097H293.185L297.612 184.448H295.491L294.599 181.937H294.58ZM292.013 174.552L289.985 180.281H294.022L292.013 174.552Z" fill="#C49A6D"></path><path d="M308.641 172.115V182.811H312.807V184.448H306.613V172.115H308.641Z" fill="#C49A6D"></path><path d="M337.379 184.578C334.905 184.578 333.008 183.239 333.008 181.044H335.166C335.259 182.048 335.965 182.867 337.36 182.867C338.756 182.867 339.574 182.104 339.574 181.062C339.574 178.086 333.026 180.021 333.026 175.482C333.026 173.324 334.756 171.967 337.267 171.967C339.63 171.967 341.304 173.213 341.471 175.315H339.239C339.165 174.478 338.439 173.715 337.156 173.678C335.984 173.641 335.073 174.217 335.073 175.408C335.073 178.198 341.601 176.449 341.601 180.969C341.601 182.811 340.095 184.597 337.342 184.597L337.379 184.578Z" fill="#C49A6D"></path><path d="M350.492 172.115H359.104V173.771H355.831V184.448H353.803V173.771H350.511V172.115H350.492Z" fill="#C49A6D"></path><path d="M368.24 172.115H370.268V179.984C370.268 181.9 371.347 182.811 373.058 182.811C374.769 182.811 375.867 181.9 375.867 179.984V172.115H377.894V179.947C377.894 183.09 375.625 184.578 373.058 184.578C370.491 184.578 368.259 183.09 368.259 179.947V172.115H368.24Z" fill="#C49A6D"></path><path d="M398.166 178.328C398.166 182.123 395.58 184.448 391.618 184.448H387.582V172.115H391.618C395.58 172.115 398.166 174.515 398.166 178.328ZM391.618 182.792C394.52 182.792 396.083 181.118 396.083 178.328C396.083 175.538 394.52 173.771 391.618 173.771H389.61V182.792H391.618Z" fill="#C49A6D"></path><path d="M407.285 172.115H409.313V184.448H407.285V172.115Z" fill="#C49A6D"></path><path d="M424.693 184.578C421.214 184.578 418.387 181.974 418.387 178.254C418.387 174.533 421.214 171.948 424.693 171.948C428.171 171.948 430.998 174.552 430.998 178.254C430.998 181.955 428.208 184.578 424.693 184.578ZM424.693 182.829C427.148 182.829 428.915 181.062 428.915 178.272C428.915 175.482 427.148 173.752 424.693 173.752C422.237 173.752 420.47 175.501 420.47 178.272C420.47 181.044 422.237 182.829 424.693 182.829Z" fill="#C49A6D"></path></svg>