<svg xmlns="http://www.w3.org/2000/svg" width="130" height="130" viewBox="0 0 130 130" fill="none"><path d="M98.8 0H31.2C13.9687 0 0 13.9687 0 31.2V98.8C0 116.031 13.9687 130 31.2 130H98.8C116.031 130 130 116.031 130 98.8V31.2C130 13.9687 116.031 0 98.8 0Z" fill="url(#paint0_linear_804_984)"></path><path d="M30.03 34.4598L30.2401 34.1498C30.9801 33.3798 31.72 32.6198 32.45 31.8398C32.7 31.5798 33.04 31.4198 33.4 31.3998C37.04 31.0498 40.71 31.2498 44.29 31.9798C44.48 32.0098 44.68 32.0098 44.87 31.9798C45.37 31.9098 45.77 31.5098 45.83 30.9998C45.9 30.4598 45.56 29.9498 45.04 29.8098C44.55 29.6798 44.05 29.5898 43.54 29.4998C41.17 29.0898 38.76 28.9098 36.36 28.9498H36.1L35.97 28.8898C35.97 28.6498 36.23 28.5698 36.4 28.4498C38.87 26.5098 41.54 24.8198 44.36 23.4298C46.86 22.1798 49.47 21.1698 52.16 20.3998C55.13 19.5498 58.18 18.9998 61.25 18.7498C63.14 18.5498 65.05 18.4798 66.95 18.5498C68.68 18.6398 70.41 18.8398 72.15 19.0998C73.89 19.3598 75.16 19.6598 76.67 20.0198C79.14 20.6198 81.55 21.4498 83.87 22.4998C93.77 26.9198 101.81 34.6498 106.61 44.3698C107.87 46.8898 108.9 49.5198 109.66 52.2298C110.3 54.4998 110.77 56.8198 111.06 59.1698C111.42 61.7498 111.53 64.3598 111.41 66.9698C111.31 68.7099 111.11 70.4498 110.85 72.1698C110.63 73.6498 110.3 75.1198 109.95 76.5698C109.3 79.2598 108.38 81.8698 107.22 84.3798C101.62 96.5698 91.02 105.74 78.15 109.52C75.18 110.39 72.14 110.97 69.06 111.25C66.11 111.54 63.1401 111.54 60.1801 111.25C50.5701 110.25 41.51 106.28 34.2701 99.8898L33.83 99.4799L39.44 92.8298L41.34 94.4498C41.21 94.6298 41.12 94.7998 41 94.9598L38.2701 98.1698C38.17 98.3098 38.0301 98.4298 37.9301 98.5998C37.6101 99.0898 37.7 99.7399 38.15 100.12C38.59 100.5 39.2401 100.5 39.6801 100.12C39.7701 100.03 39.86 99.9398 39.94 99.8298C40.93 98.6398 41.91 97.4499 42.89 96.2299C43 96.1199 43.1 95.9998 43.19 95.8798L43.62 96.1398C48.36 99.4098 53.8 101.55 59.51 102.37C62.21 102.75 64.95 102.85 67.67 102.67C69.89 102.53 72.09 102.17 74.2401 101.61C84.7801 98.8998 93.65 91.8099 98.6 82.1199C99.86 79.6698 100.84 77.0898 101.52 74.4198C106.64 54.1498 94.3501 33.5698 74.08 28.4498C70.32 27.4998 66.43 27.1298 62.55 27.3698C60.08 27.5198 57.63 27.9198 55.23 28.5598C50.95 29.7098 46.9 31.5998 43.28 34.1498C43.03 34.3298 42.72 34.3998 42.42 34.3298C38.51 33.6598 34.52 33.7098 30.62 34.4598L30.04 34.5498L29.9901 34.4598H30.03ZM57.8 45.7298V61.4898C57.8 61.8498 57.68 62.1998 57.47 62.4898C54.56 66.8198 51.64 71.1898 48.72 75.5998C47.42 77.5398 46.12 79.4999 44.82 81.4099C43.58 83.2799 44.0901 85.8099 45.9601 87.0499C46.3801 87.3298 46.84 87.5198 47.33 87.6298C47.76 87.7198 48.19 87.7598 48.63 87.7498H81.19C83.43 87.5598 85.09 85.5898 84.9 83.3498C84.86 82.9198 84.76 82.4998 84.59 82.1098C84.42 81.7698 84.23 81.4398 84.0201 81.1199C79.89 74.9299 75.75 68.7098 71.6 62.4698C71.41 62.2198 71.3 61.9098 71.29 61.5898V45.1198H73.89C74 44.1898 74 43.2598 73.89 42.3298C73.16 42.2098 55.61 42.2498 55.23 42.3298C55.12 43.2498 55.12 44.1798 55.23 45.0998H57.76L57.78 45.7398L57.8 45.7298ZM57.22 73.0198C59.09 73.3898 61.03 73.2598 62.83 72.6398C63.64 72.3798 64.4301 72.0699 65.2101 71.7299C66.5501 71.0899 67.99 70.6898 69.47 70.5398C70.39 70.5098 71.31 70.6098 72.2 70.8498H72.3C73.5067 71.1765 74.4567 71.8565 75.15 72.8898L81.65 82.6698C81.74 82.7898 81.81 82.9098 81.89 83.0298C82.23 83.5998 82.05 84.3298 81.48 84.6698C81.32 84.7698 81.13 84.8298 80.94 84.8398H48.15C47.49 84.7898 46.99 84.2098 47.04 83.5398C47.05 83.3998 47.08 83.2699 47.14 83.1498C47.21 83.0199 47.29 82.8898 47.38 82.7698L54.16 72.5998C54.25 72.4698 54.34 72.3398 54.42 72.2498C55.41 72.4998 56.32 72.7598 57.23 72.9598V73.0198H57.22ZM68.44 45.8498V62.3098C68.44 62.6698 68.5401 63.0198 68.7401 63.3098C69.6201 64.6098 70.49 65.9098 71.34 67.2098C71.43 67.3498 71.52 67.5098 71.66 67.7198H71.42C68.82 67.4098 66.19 67.8898 63.87 69.0998C62.93 69.5298 61.95 69.8498 60.95 70.0598C59.38 70.3898 57.74 70.2698 56.23 69.7198L56.4901 69.2498C57.8101 67.2598 59.13 65.2698 60.45 63.2998C60.66 63.0098 60.77 62.6598 60.76 62.2998C60.76 56.8098 60.76 51.3198 60.76 45.8398V45.1498H68.56L68.42 45.8598L68.44 45.8498ZM19.57 60.8698C21.35 55.9698 25.1301 52.0498 29.9601 50.0998C30.3001 49.9798 30.5701 49.7198 30.7101 49.3898C31.9801 46.6098 33.58 43.9798 35.48 41.5898C35.56 41.4898 35.63 41.3898 35.69 41.2798C35.6 41.2798 35.55 41.1998 35.51 41.2098L34.2101 41.2998C30.3901 41.6898 26.7 42.9298 23.42 44.9298C23.14 45.0998 22.92 45.3498 22.78 45.6398C22.02 47.3298 21.36 49.0598 20.79 50.8298C20.77 50.9398 20.77 51.0598 20.79 51.1698C21.79 51.8598 21.85 52.4698 21.09 53.3798C20.74 53.7898 20.41 54.2298 20.06 54.6798C19.73 55.0498 19.5 55.4998 19.4 55.9798C19.31 56.5598 19.19 57.1498 19.11 57.7498C18.91 59.3598 18.72 60.9698 18.54 62.5798V64.5298C18.78 63.2898 19.11 62.0598 19.55 60.8698H19.57ZM23.29 48.1498C24.59 47.2098 25.9901 46.4098 27.4601 45.7698C28.2101 45.4398 29.01 45.1698 29.7701 44.8898C29.93 44.8298 30.09 44.7798 30.25 44.7498C30.89 44.6798 31.46 45.1298 31.53 45.7698C31.59 46.2698 31.31 46.7598 30.85 46.9598L30.34 47.1398C28.36 47.7798 26.5 48.7198 24.8 49.9198C24.66 50.0298 24.5 50.1298 24.35 50.2198C23.79 50.5198 23.1 50.3098 22.8 49.7598C22.71 49.5898 22.66 49.3998 22.66 49.2098C22.66 48.7698 22.9 48.3698 23.28 48.1498H23.29ZM19.01 71.1698L19.26 71.0798C19.85 70.8098 20.54 71.0798 20.81 71.6599C20.89 71.8399 20.93 72.0299 20.91 72.2198C20.97 73.3398 20.78 74.4599 20.36 75.5098C20.04 76.1998 20.01 76.9898 20.28 77.7098C20.53 78.3898 20.7101 79.0098 20.9301 79.7598H21.09L21.39 79.3598C22.78 77.3098 23.52 74.8898 23.5 72.4198C23.5 70.8298 23.41 69.2898 23.41 67.7198C23.4 66.7799 23.46 65.8399 23.61 64.9099C24.07 61.9398 25.55 59.2198 27.78 57.2098C28.01 57.0098 28.17 56.7398 28.23 56.4398C28.43 55.6898 28.63 54.9298 28.83 54.1898C28.93 53.8398 29.05 53.4898 29.16 53.1298C28.93 53.1698 28.71 53.2498 28.51 53.3798C23.7 56.2898 20.77 61.4999 20.79 67.1199C20.81 67.3399 20.81 67.5498 20.79 67.7698C20.68 68.3898 20.09 68.8098 19.47 68.6998C19.37 68.6798 19.26 68.6498 19.17 68.5998L18.7401 68.3898C18.7201 69.3198 18.81 70.2499 19 71.1599H19.01V71.1698ZM24.53 83.3699C26.52 80.9398 27.8201 78.0098 28.2701 74.8998C28.3301 74.5098 28.3301 74.1098 28.2701 73.7198C28.0701 72.5499 27.82 71.3798 27.63 70.2098C27.21 67.4198 27.13 64.5898 27.39 61.7798V61.5198C27.31 61.5198 27.2401 61.5598 27.2101 61.6198L26.9601 62.0498C26.1001 63.6498 25.66 65.4298 25.66 67.2498C25.66 68.8698 25.75 70.4999 25.78 72.1199C25.89 75.6698 24.7 79.1398 22.44 81.8798C22.32 81.9898 22.22 82.1199 22.13 82.2598C22.09 82.3899 22.09 82.5198 22.13 82.6498C22.46 83.4398 22.79 84.2098 23.19 85.0998L24.53 83.3798V83.3699ZM40.12 36.3798H39.91C36.43 36.0398 32.9101 36.2998 29.5201 37.1298C29.01 37.3198 28.4401 37.2898 27.9601 37.0298C26.9001 38.3798 25.96 39.8198 25.14 41.3198C25.31 41.2898 25.48 41.2398 25.65 41.1798C26.79 40.7698 27.91 40.3098 29.07 39.9598C31.76 39.1698 34.56 38.7898 37.36 38.8598C37.68 38.8898 38 38.7598 38.22 38.5198C38.78 37.9498 39.3801 37.4298 39.9601 36.8798C40.1001 36.7698 40.24 36.6598 40.39 36.5698C40.22 36.4298 40.21 36.3898 40.17 36.3898H40.13L40.12 36.3798ZM29.12 93.6898C30.08 92.5899 31.06 91.4898 31.98 90.3598C32.73 89.4198 33.41 88.4098 34.14 87.4498C34.35 87.2298 34.35 86.8799 34.14 86.6599C33.71 86.0599 33.32 85.4398 32.84 84.8098C32.75 84.6698 32.65 84.5298 32.54 84.3998C30.92 87.0199 29.0401 89.4698 26.9301 91.7198L28.7101 94.0998L29.12 93.6998V93.6898ZM25.9 89.3798C26.75 88.3898 27.65 87.4298 28.42 86.4198C29.44 85.1598 30.3101 83.7898 31.0201 82.3398C31.17 82.0898 31.17 81.7698 31.0201 81.5198C30.7801 81.1098 30.61 80.6498 30.41 80.2198C30.21 79.7898 30 79.2698 29.75 78.7098C29.65 78.9498 29.58 79.0898 29.53 79.2398C28.72 81.3898 27.55 83.3898 26.06 85.1398L24.59 86.8898L24.2401 87.3298L25.54 89.6599C25.67 89.5699 25.79 89.4799 25.9 89.3699V89.3798ZM35.59 89.4898C34.82 90.4598 34.08 91.4598 33.29 92.4298C32.5 93.3998 31.52 94.4799 30.69 95.5098L30.36 95.9398L31.2401 96.8898L32.14 97.8098C32.4 97.4898 32.67 97.2298 32.88 96.9498C34.36 95.1998 35.83 93.4298 37.28 91.6698C37.44 91.4698 37.54 91.2598 37.69 91.0298L35.94 89.0598L35.58 89.4998L35.59 89.4898ZM63.12 81.0198C63.08 81.4998 63.11 81.9798 63.19 82.4498H65.97C66.08 81.5098 66.08 80.5698 65.97 79.6298H63.12C63.12 80.1198 63.11 80.5698 63.12 81.0198ZM68.47 74.3198V77.0499C69.4 77.1898 70.36 77.1898 71.29 77.0499V74.3198H68.47ZM57.85 76.9198C57.74 77.8598 57.7601 78.8198 57.9301 79.7498H59.23C59.7 79.8098 60.18 79.8098 60.65 79.7498V76.9498C59.72 76.8998 58.79 76.8998 57.86 76.9498V76.9099L57.85 76.9198ZM63.15 66.4099C64.08 66.5599 65.04 66.5599 65.97 66.4099C66.07 65.4999 66.04 64.5698 65.89 63.6698H63.15V66.4099Z" fill="white"></path><defs><linearGradient id="paint0_linear_804_984" x1="9.14" y1="120.86" x2="120.87" y2="9.14" gradientUnits="userSpaceOnUse"><stop stop-color="#EF8258"></stop><stop offset="1" stop-color="#E63A36"></stop></linearGradient></defs></svg>