<svg xmlns="http://www.w3.org/2000/svg" width="130" height="130" viewBox="0 0 130 130" fill="none"><path d="M98.8 0H31.2C13.9687 0 0 13.9687 0 31.2V98.8C0 116.031 13.9687 130 31.2 130H98.8C116.031 130 130 116.031 130 98.8V31.2C130 13.9687 116.031 0 98.8 0Z" fill="url(#paint0_linear_804_983)"></path><path d="M35.8998 28.8498C55.8698 12.7598 85.0998 15.9098 101.18 35.8798C117.27 55.8498 114.12 85.0798 94.1498 101.16C76.3598 115.49 50.7898 114.75 33.8598 99.4198L39.5498 92.7598L41.4298 94.3898C41.3498 94.5398 41.2598 94.6798 41.1698 94.8098L38.3598 98.1698C38.3598 98.3098 38.0998 98.4498 38.0098 98.5898C37.7298 99.0798 37.8298 99.6898 38.2398 100.08C38.6698 100.45 39.2998 100.45 39.7298 100.08C39.8598 99.9798 39.9798 99.8598 40.0798 99.7298C41.0998 98.4998 42.0998 97.2498 43.1198 95.9898L43.3098 95.7798L43.6798 95.9698C46.3198 97.7998 49.1998 99.2898 52.2198 100.38C54.2298 101.12 56.3098 101.68 58.4198 102.05C61.1498 102.55 63.9198 102.74 66.6898 102.61C68.7398 102.52 70.7798 102.26 72.7998 101.84C76.3798 101.1 79.8198 99.8198 83.0098 98.0498C90.1998 94.1198 95.8998 87.9498 99.2598 80.4798C100.39 77.9998 101.24 75.3998 101.79 72.7298C104.69 59.0898 99.8098 44.9698 89.0998 36.0298C85.7498 33.2098 81.9198 31.0098 77.7898 29.5298C72.0498 27.5098 65.8998 26.8998 59.8698 27.7698C57.4998 28.0798 55.1598 28.6198 52.8998 29.3998C49.5998 30.5098 46.4698 32.0698 43.6098 34.0398C43.2598 34.3198 42.7998 34.4198 42.3598 34.3298C38.4098 33.6598 34.3798 33.7198 30.4498 34.4898H29.9098C29.9698 34.3898 30.0498 34.2998 30.1398 34.2298L32.4598 31.7198C32.6598 31.5298 32.9198 31.4198 33.1898 31.4198C36.8198 31.0498 40.4898 31.2198 44.0798 31.9298H44.6098C45.2298 32.0098 45.8098 31.5998 45.9298 30.9798C46.0298 30.3798 45.6598 29.8098 45.0698 29.6598C44.4398 29.4998 43.8198 29.3998 43.2198 29.2898C40.9598 28.9198 38.6598 28.7598 36.3698 28.7798L35.8998 28.8598V28.8498ZM65.1698 90.9698H67.1198C68.0698 90.9898 69.0198 90.8498 69.9298 90.5498C73.3598 89.5098 75.8398 86.5198 76.2198 82.9598C76.3198 82.0098 76.4898 81.0598 76.7098 80.1298C77.0098 78.6998 78.0798 77.5498 79.4898 77.1398C80.3698 76.8698 81.2698 76.6598 82.1798 76.5098C83.1698 76.3898 84.1398 76.1698 85.0898 75.8598C87.8498 74.8398 89.8498 72.4398 90.3598 69.5498C90.5198 68.5698 90.5698 67.5798 90.6598 66.5998C90.8998 64.7698 90.8998 62.9098 90.6598 61.0798C90.2698 58.0598 88.3698 55.4298 85.6198 54.1198C84.6798 53.6698 83.6598 53.3998 82.6298 53.3098C81.8498 53.2698 81.0698 53.1698 80.3098 53.0098C78.8698 52.7698 77.6398 51.8398 77.0098 50.5298C76.7798 49.9998 76.5998 49.4498 76.4798 48.8798C76.3198 47.9998 76.2498 47.0898 76.1098 46.2098C75.7398 43.3598 73.8598 40.9298 71.1898 39.8698C69.8298 39.2998 68.3898 38.9798 66.9198 38.9198H61.7798C60.6898 38.9398 59.6198 39.1698 58.6198 39.5898C55.7098 40.7798 53.6498 43.4398 53.2298 46.5498C53.2598 47.2498 53.1898 47.9598 53.0198 48.6398C52.8098 50.8898 51.1398 52.7198 48.9198 53.1198C48.3698 53.2298 47.8098 53.2898 47.2498 53.3098C45.6498 53.3598 44.0898 53.8698 42.7698 54.7698C40.6398 56.0998 39.2298 58.3298 38.9398 60.8298C38.6998 62.8398 38.5998 64.8598 38.6598 66.8898C38.6598 67.6698 38.7298 68.4498 38.8698 69.2098C39.4598 73.1598 42.6898 76.1898 46.6698 76.5198H47.6898C49.5298 76.6398 51.1998 77.6298 52.1798 79.1898C52.8198 80.2498 53.1598 81.4598 53.1598 82.6898C53.1598 83.8098 53.4298 84.9098 53.9298 85.9198C54.9098 88.2598 56.9598 89.9898 59.4298 90.5598C60.7098 90.8798 62.0298 91.0298 63.3498 91.0298L65.1598 90.9798L65.1698 90.9698ZM68.1198 42.8498C70.1298 42.9798 71.8198 44.3798 72.3198 46.3298C72.4898 46.8398 72.5898 47.3798 72.6198 47.9198C72.7198 49.1498 72.9598 50.3498 73.3598 51.5198C74.0198 53.5698 75.4998 55.2498 77.4498 56.1598C78.6698 56.7198 79.9698 57.0798 81.2998 57.2198C82.2098 57.3098 83.1098 57.5198 83.9698 57.8498C85.4498 58.3898 86.5098 59.7098 86.7198 61.2698C86.8498 61.8998 86.9198 62.5498 86.9298 63.1998V67.8398C86.9798 70.6198 84.8498 72.9398 82.0798 73.1298C81.1998 73.2098 80.3198 73.3298 79.4598 73.4998C76.5998 74.0798 74.2398 76.0998 73.2198 78.8398C72.9098 79.6598 72.7398 80.5198 72.7098 81.3898C72.7498 82.5498 72.4698 83.6898 71.9198 84.7098C70.9498 86.3498 69.1798 87.3598 67.2798 87.3498H62.0398C59.1898 87.2698 56.8798 85.0398 56.6998 82.1998C56.6398 81.0998 56.4498 80.0098 56.1398 78.9498C55.2998 76.1898 53.0798 74.0798 50.2898 73.3798C49.4698 73.1698 48.6398 73.0098 47.8098 72.8898C47.0298 72.7798 46.2598 72.6098 45.4998 72.3998C43.8098 71.7898 42.6198 70.2498 42.4598 68.4498C42.3798 67.8398 42.3298 67.2298 42.3198 66.6198V62.3498C42.2998 60.8998 42.8898 59.5098 43.9498 58.5198C44.7998 57.7198 45.8998 57.2398 47.0598 57.1498C48.1398 57.0498 49.2098 56.8498 50.2598 56.5698C53.9398 55.5698 56.5198 52.2598 56.5998 48.4398C56.6298 47.5998 56.7798 46.7698 57.0398 45.9798C57.6398 44.2398 59.2098 43.0198 61.0398 42.8698C62.1998 42.7298 63.3598 42.6798 64.4998 42.6098C65.7098 42.6098 66.9198 42.6898 68.1198 42.8698V42.8498ZM34.3698 41.2498C30.5098 41.6298 26.7798 42.8798 23.4598 44.8998C23.1298 45.0898 22.8798 45.3798 22.7398 45.7398C22.1798 47.1298 21.5998 48.5498 21.0498 49.9698C20.9198 50.2998 20.8098 50.6398 20.7198 50.9898L20.8398 51.1098C21.4598 51.3498 21.7798 52.0398 21.5398 52.6698C21.4698 52.8698 21.3398 53.0398 21.1798 53.1798C20.7098 53.7398 20.2698 54.2698 19.8598 54.8498C19.6798 55.0798 19.5598 55.3498 19.5098 55.6398C19.3198 56.6098 19.1598 57.5898 19.0198 58.5698C19.0198 59.4098 18.8098 60.2198 18.7398 61.0498C18.6498 62.2498 18.5298 63.4798 18.5298 64.9198C18.6498 64.7798 18.6698 64.7598 18.6698 64.7298C18.7198 64.5598 18.7598 64.3798 18.7898 64.1998C19.7898 57.7998 24.1098 52.4098 30.1398 50.0398C30.4798 49.8998 30.7598 49.6398 30.9098 49.2998C32.1398 46.5398 33.7198 43.9398 35.5898 41.5598L35.8698 41.1398L34.3598 41.2598L34.3698 41.2498ZM22.7698 49.6798C22.5498 49.2598 22.6198 48.7498 22.9298 48.3998C23.0698 48.2598 23.2298 48.1398 23.3998 48.0298C25.3298 46.6398 27.4798 45.5698 29.7398 44.8598H30.1598C30.7098 44.7398 31.2698 45.0498 31.4598 45.5798C31.6698 46.1198 31.4498 46.7398 30.9298 47.0198L30.5398 47.1798C28.4298 47.8398 26.4498 48.8398 24.6498 50.1198C24.4298 50.2398 24.2098 50.3498 23.9798 50.4498C23.4898 50.4498 23.0498 50.1398 22.8598 49.6798H22.7698ZM19.1698 71.1498C20.2598 70.7098 20.9998 71.1498 20.9998 72.3798C20.9998 73.6498 20.7398 74.9098 20.2398 76.0798C20.0998 76.4498 20.0998 76.8498 20.2398 77.2198C20.4498 77.9198 20.6298 78.6098 20.8398 79.2898C20.8398 79.4798 20.9998 79.6398 21.0998 79.8898L21.5398 79.2898C22.9298 77.2398 23.6598 74.8098 23.6298 72.3298V67.1298C23.5498 63.3598 25.0798 59.7398 27.8298 57.1698C28.0998 56.8998 28.2798 56.5598 28.3598 56.1898C28.4798 55.6798 28.6198 55.1898 28.7498 54.6798C28.8798 54.1698 29.0498 53.6198 29.2398 53.0098L28.8898 53.3098C24.6398 55.7698 21.7598 60.0498 21.0598 64.9098C20.9498 65.7598 20.8798 66.6198 20.8498 67.4898C20.8598 67.9498 20.6098 68.3698 20.1998 68.5798C19.7898 68.7998 19.2898 68.7498 18.9498 68.4398L18.7198 68.2798C18.6898 69.2598 18.8098 70.2398 19.0698 71.1898L19.1598 71.1598L19.1698 71.1498ZM27.4398 61.3998C27.3398 61.5198 27.2498 61.6498 27.1798 61.7898C26.2898 63.3898 25.8298 65.1998 25.8298 67.0398V71.6798C25.8798 72.7998 25.7898 73.9198 25.5698 75.0198C25.1098 77.6098 23.9498 80.0198 22.2098 81.9798C21.9498 82.2398 21.8898 82.6398 22.0698 82.9598C22.3498 83.5198 22.5798 84.0998 22.8598 84.6798L23.0498 84.9598H23.2098C23.6298 84.4698 24.0498 84.0098 24.4398 83.5198C26.4298 81.1498 27.7398 78.2898 28.2298 75.2298C28.3298 74.7198 28.3298 74.1998 28.2298 73.6998C27.8298 71.8598 27.5498 69.9998 27.3898 68.1298C27.1898 66.0998 27.1898 64.0498 27.3898 62.0198C27.3998 61.8298 27.3998 61.6298 27.3898 61.4398L27.4498 61.3998H27.4398ZM40.2098 36.3298C36.7398 35.9898 33.2298 36.2298 29.8298 37.0498C29.5398 37.1498 29.2298 37.2098 28.9198 37.2398C28.5998 37.2198 28.2898 37.1598 27.9898 37.0498C26.8898 38.3798 25.9298 39.8198 25.1398 41.3498L25.5098 41.1998C29.3098 39.5398 33.4298 38.7498 37.5798 38.8898C37.8498 38.8998 38.1098 38.7998 38.2998 38.6098L40.1298 36.8498L40.4798 36.4998L40.1998 36.3398L40.2098 36.3298ZM27.0498 91.7198C27.5998 92.5298 28.1998 93.2998 28.8398 94.0398L29.2298 93.5998C30.0398 92.6698 30.8598 91.7698 31.5498 90.8098C32.2398 89.8498 33.1398 88.7898 33.8698 87.7498C34.5998 86.7098 34.3998 86.9398 33.8698 86.1498C33.3398 85.3598 33.0798 84.9398 32.6198 84.2698C31.0198 86.9398 29.1598 89.4398 27.0498 91.7198ZM25.7698 89.6498C25.8198 89.5698 25.8698 89.4898 25.9298 89.4198L28.4798 86.4298C29.5398 85.1198 30.4498 83.7098 31.1998 82.1998C31.3398 81.9598 31.3398 81.6698 31.1998 81.4298C30.8998 80.8698 30.6698 80.2698 30.3898 79.6698L29.9198 78.5598C29.6598 79.1398 29.4798 79.6498 29.2698 80.1498C28.3298 82.2298 27.0598 84.1398 25.5098 85.8098C25.0698 86.2998 24.6498 86.8098 24.2098 87.3198L25.5598 89.6398L25.7798 89.6598L25.7698 89.6498ZM30.4098 95.9398L32.2198 97.8198C34.2198 95.5898 36.0998 93.2698 37.8598 90.8598L36.0698 88.8598C34.2998 91.3298 32.3898 93.6998 30.3398 95.9398H30.4098Z" fill="white"></path><defs><linearGradient id="paint0_linear_804_983" x1="9.14" y1="120.86" x2="120.86" y2="9.14001" gradientUnits="userSpaceOnUse"><stop stop-color="#3AC2D2"></stop><stop offset="0.28" stop-color="#47C2BD"></stop><stop offset="0.74" stop-color="#5AC2A0"></stop><stop offset="1" stop-color="#61C296"></stop></linearGradient></defs></svg>