<svg xmlns="http://www.w3.org/2000/svg" width="592" height="123" viewBox="0 0 592 123" fill="none"><path d="M128.994 2V120.448" stroke="white" stroke-width="3.27" stroke-linecap="round" stroke-linejoin="round"></path><path d="M198.508 65.1078C217.203 65.1078 232.347 50.9799 232.347 33.5581C232.347 16.1363 217.203 2 198.508 2" stroke="white" stroke-width="3.27" stroke-linecap="round" stroke-linejoin="round"></path><path d="M128.994 2H199.185" stroke="white" stroke-width="3.27" stroke-linecap="round" stroke-linejoin="round"></path><path d="M129.355 65.1079H199.547" stroke="white" stroke-width="3.27" stroke-linecap="round" stroke-linejoin="round"></path><path d="M173.93 65.1079L204.083 120.448" stroke="white" stroke-width="3.27" stroke-linecap="round" stroke-linejoin="round"></path><path d="M272.214 74.998C287.904 74.998 300.623 63.1396 300.623 48.5115C300.623 33.8833 287.904 22.0249 272.214 22.0249C256.524 22.0249 243.805 33.8833 243.805 48.5115C243.805 63.1396 256.524 74.998 272.214 74.998Z" stroke="white" stroke-width="3.27" stroke-linecap="round" stroke-linejoin="round"></path><path d="M363.496 120.448C392.645 120.448 416.275 98.4173 416.275 71.2408C416.275 44.0643 392.645 22.0334 363.496 22.0334C334.347 22.0334 310.717 44.0643 310.717 71.2408C310.717 98.4173 334.347 120.448 363.496 120.448Z" stroke="white" stroke-width="3.27" stroke-linecap="round" stroke-linejoin="round"></path><path d="M458.191 2V120.448" stroke="white" stroke-width="3.27" stroke-linecap="round" stroke-linejoin="round"></path><path d="M405.088 22.0249H490.477" stroke="white" stroke-width="3.27" stroke-linecap="round" stroke-linejoin="round"></path><path d="M511.956 42.05C500.091 42.05 490.486 33.0863 490.486 22.0334C490.486 10.9805 500.101 2 511.956 2C523.811 2 533.425 10.9636 533.425 22.0334" stroke="white" stroke-width="3.27" stroke-linecap="round" stroke-linejoin="round"></path><path d="M547.484 120.448C570.707 120.448 589.538 102.892 589.538 81.2576C589.538 59.6235 570.707 42.05 547.484 42.05" stroke="white" stroke-width="3.27" stroke-linecap="round" stroke-linejoin="round"></path><path d="M511.955 42.05H547.484" stroke="white" stroke-width="3.27" stroke-linecap="round" stroke-linejoin="round"></path><path d="M547.484 120.448H479.543" stroke="white" stroke-width="3.27" stroke-linecap="round" stroke-linejoin="round"></path><path d="M90.3388 42.9684V79.4969C90.3388 102.117 70.6676 120.457 46.4151 120.457H46.4061C33.5841 120.457 22.0452 115.335 14.0213 107.163C6.85581 99.8673 2.48242 90.1623 2.48242 79.4885V42.9684C2.48242 25.7319 13.8948 10.9806 30.0511 4.94869C35.1021 3.04476 40.6231 2.00854 46.3971 2.00854H46.4061C70.6586 2.00854 90.3298 20.3486 90.3298 42.9684H90.3388Z" stroke="white" stroke-width="3.27" stroke-linecap="round" stroke-linejoin="round"></path><path d="M2.47266 61.2241H90.3381" stroke="white" stroke-width="3.27" stroke-linecap="round" stroke-linejoin="round"></path><path d="M46.4062 120.448V47.8799" stroke="white" stroke-width="3.27" stroke-linecap="round" stroke-linejoin="round"></path><path d="M15.1504 107.163C31.3428 96.5312 42.8907 80.1625 46.4147 61.2327" stroke="white" stroke-width="3.27" stroke-linecap="round" stroke-linejoin="round"></path><path d="M77.6706 107.163C61.4782 96.5312 49.9303 80.1625 46.4062 61.2327" stroke="white" stroke-width="3.27" stroke-linecap="round" stroke-linejoin="round"></path><path d="M63.0947 31.9071C55.1793 31.8818 48.1041 37.105 46.568 44.6196C46.3421 45.7064 46.2517 46.7931 46.2698 47.8546C54.1943 47.8883 61.2604 42.6567 62.7965 35.1421C63.0224 34.0553 63.1128 32.9686 63.0947 31.9071V31.9071Z" stroke="white" stroke-width="3.27" stroke-linecap="round" stroke-linejoin="round"></path><path d="M19.7493 23.0697C32.0653 23.0276 43.0711 31.1572 45.4565 42.8589C45.7999 44.5522 45.9535 46.2371 45.9174 47.8967C33.5924 47.9472 22.5956 39.8092 20.2101 28.1076C19.8668 26.4143 19.7132 24.7294 19.7493 23.0697V23.0697Z" stroke="white" stroke-width="3.27" stroke-linecap="round" stroke-linejoin="round"></path><path d="M55.3514 25.26C59.1192 25.26 62.1736 22.4123 62.1736 18.8995C62.1736 15.3867 59.1192 12.5391 55.3514 12.5391C51.5837 12.5391 48.5293 15.3867 48.5293 18.8995C48.5293 22.4123 51.5837 25.26 55.3514 25.26Z" stroke="white" stroke-width="3.27" stroke-linecap="round" stroke-linejoin="round"></path></svg>