<svg xmlns="http://www.w3.org/2000/svg" width="97" height="191" viewBox="0 0 97 191" fill="none"><path d="M14.7 186C14.1 186.3 13.2 186.5 12.3 186.5C10.9 186.5 9.80004 186.1 9.10004 185.3C8.30004 184.5 8 183.3 8 181.8C8 180.3 8.40001 179.1 9.20001 178.3C10 177.5 11.1 177 12.5 177C13 177 13.4 177 13.9 177.1C14.4 177.2 14.7 177.3 15 177.4L14.6 178.6C14.3 178.5 13.9 178.4 13.5 178.3C13.1 178.2 12.8 178.2 12.5 178.2C10.5 178.2 9.60004 179.4 9.60004 181.8C9.60004 182.9 9.80005 183.8 10.3 184.4C10.8 185 11.5 185.3 12.4 185.3C13.2 185.3 14 185.1 14.9 184.8V186H14.7ZM22.9 186.3L22.6 185H22.5C22 185.6 21.5 186 21.1 186.2C20.6 186.4 20 186.5 19.3 186.5C18.3 186.5 17.6 186.3 17.1 185.8C16.6 185.3 16.3 184.7 16.3 183.8C16.3 182 17.9 181 21 180.9L22.6 180.8V180.2C22.6 179.5 22.4 179 22.1 178.6C21.8 178.3 21.3 178.1 20.5 178.1C19.7 178.1 18.8 178.3 17.8 178.8L17.4 177.7C17.9 177.5 18.4 177.3 19 177.1C19.6 177 20.1 176.9 20.7 176.9C21.9 176.9 22.7 177.1 23.3 177.6C23.9 178.1 24.1 178.9 24.1 179.9V186.1H22.9V186.3ZM19.6 185.4C20.5 185.4 21.2 185.2 21.7 184.7C22.2 184.2 22.5 183.6 22.5 182.7V181.9L21 182C19.8 182 19 182.2 18.5 182.5C18 182.8 17.7 183.3 17.7 183.9C17.7 184.4 17.9 184.8 18.2 185C18.6 185.2 19.1 185.4 19.6 185.4ZM31.4 177C31.8 177 32.2 177 32.6 177.1L32.4 178.4C32 178.3 31.6 178.3 31.3 178.3C30.5 178.3 29.9 178.6 29.3 179.2C28.7 179.8 28.5 180.5 28.5 181.4V186.3H27V177.2H28.2L28.4 178.9H28.5C28.9 178.3 29.3 177.8 29.8 177.5C30.3 177.2 30.8 177 31.4 177ZM38.5 186.5C37.1 186.5 35.9 186.1 35.1 185.3C34.3 184.5 33.9 183.3 33.9 181.9C33.9 180.4 34.3 179.3 35 178.4C35.8 177.5 36.8 177.1 38.1 177.1C39.3 177.1 40.3 177.5 41 178.2C41.7 179 42.1 179.9 42.1 181.2V182.1H35.4C35.4 183.2 35.7 184 36.3 184.5C36.8 185.1 37.6 185.3 38.6 185.3C39.6 185.3 40.7 185.1 41.7 184.7V185.9C41.2 186.1 40.7 186.3 40.2 186.4C39.7 186.5 39.1 186.5 38.5 186.5ZM38.1 178.2C37.3 178.2 36.7 178.4 36.2 178.9C35.7 179.4 35.5 180 35.4 180.9H40.4C40.4 180 40.2001 179.4 39.8 178.9C39.4 178.4 38.8 178.2 38.1 178.2ZM55.4 183.8C55.4 184.7 55.1 185.3 54.4 185.8C53.7 186.3 52.8 186.5 51.6 186.5C50.3 186.5 49.3 186.3 48.6 185.9V184.6C49.1 184.8 49.6 185 50.1 185.1C50.6 185.2 51.1 185.3 51.6 185.3C52.4 185.3 52.9 185.2 53.4 185C53.8 184.8 54 184.4 54 183.9C54 183.5 53.8 183.2 53.5 183C53.2 182.7 52.5 182.4 51.6 182.1C50.7 181.8 50.1 181.5 49.7 181.3C49.3 181.1 49 180.8 48.9 180.5C48.7 180.2 48.6 179.8 48.6 179.4C48.6 178.7 48.9 178.1 49.6 177.6C50.2 177.2 51.1 177 52.2 177C53.2 177 54.3 177.2 55.2 177.6L54.7 178.7C53.7 178.3 52.9 178.1 52.1 178.1C51.4 178.1 50.9 178.2 50.5 178.4C50.1 178.6 50 178.9 50 179.3C50 179.5 50.1 179.8 50.2 179.9C50.3 180.1 50.5 180.2 50.8 180.4C51.1 180.6 51.7 180.8 52.5 181.1C53.6 181.5 54.4 181.9 54.8 182.3C55.2001 182.7 55.4 183.2 55.4 183.8ZM64.4 186.3V180.4C64.4 179.7 64.2 179.1 63.9 178.7C63.5 178.3 63 178.1 62.2 178.1C61.2 178.1 60.4 178.4 60 178.9C59.5 179.4 59.3 180.3 59.3 181.5V186.3H57.8V173.3H59.3V177.2C59.3 177.7 59.3 178.1 59.2 178.4H59.3C59.6 178 60 177.6 60.5 177.4C61 177.1 61.6 177 62.3 177C63.5 177 64.4 177.3 65 177.8C65.6 178.3 65.9 179.2 65.9 180.3V186.3H64.4ZM77.2 181.8C77.2 183.3 76.8 184.5 76 185.3C75.2 186.1 74.1 186.6 72.7 186.6C71.8 186.6 71.1 186.4 70.4 186C69.7 185.6 69.2 185.1 68.9 184.3C68.5 183.6 68.4 182.7 68.4 181.8C68.4 180.3 68.8 179.1 69.6 178.3C70.4 177.5 71.5 177.1 72.9 177.1C74.3 177.1 75.3 177.5 76.1 178.4C76.8 179.2 77.2 180.3 77.2 181.8ZM69.8 181.8C69.8 183 70 183.9 70.5 184.5C71 185.1 71.7 185.4 72.7 185.4C73.7 185.4 74.4 185.1 74.9 184.5C75.4 183.9 75.6 183 75.6 181.8C75.6 180.6 75.4 179.8 74.9 179.2C74.4 178.6 73.7 178.3 72.7 178.3C71.7 178.3 71 178.6 70.5 179.2C70.1 179.7 69.8 180.6 69.8 181.8ZM84.2 186.5C83.6 186.5 83 186.4 82.5 186.2C82 186 81.5 185.6 81.2 185.2H81.1C81.2 185.7 81.2 186.2 81.2 186.7V190.5H79.7V177.3H80.9L81.1 178.6H81.2C81.6 178.1 82 177.7 82.5 177.5C83 177.3 83.6 177.2 84.2 177.2C85.5 177.2 86.5 177.6 87.2 178.4C87.9 179.2 88.2 180.4 88.2 181.9C88.2 183.4 87.8 184.6 87.1 185.4C86.5 186.1 85.5 186.5 84.2 186.5ZM84 178.2C83 178.2 82.3 178.5 81.9 179C81.5 179.5 81.2 180.3 81.2 181.5V181.8C81.2 183.1 81.4 184 81.9 184.6C82.4 185.2 83.1 185.4 84.1 185.4C84.9 185.4 85.6 185.1 86.1 184.4C86.6 183.8 86.8 182.9 86.8 181.8C86.8 180.7 86.6 179.8 86.1 179.2C85.6 178.5 84.9 178.2 84 178.2Z" fill="white"></path><path d="M48.4 0H47.7C21.4 0 0 21.4 0 47.7V140.8H96.1V47.7C96.1 21.4 74.7 0 48.4 0ZM23.1 134.8H6.10004V47.7C6.10004 24.7 24.8 6 47.8 6H48.5C63.1 6 76 13.5 83.4 24.9H48.6L48.3 24.4L23.1 56.3V134.8ZM64.7 134.8H29.1V58.5L48 34.5L64.7 58.4V134.8ZM90.1 134.8H70.7V60.5L90.1 60.6V134.8ZM90.1 54.5L69.2 54.4L52.7 30.9H86.5C88.8 36 90 41.7 90 47.7V54.5H90.1Z" fill="#C39973"></path></svg>