<svg xmlns="http://www.w3.org/2000/svg" width="675" height="345" viewBox="0 0 675 345" fill="none"><g clip-path="url(#clip0_1190_1510)"><path d="M56.0645 282.463V342.632H45.7698V282.741C45.7698 266.167 36.1707 263.66 30.4668 263.66C19.4765 263.66 12.7988 273.131 10.2947 282.184V342.632H0V260.456H10.4338V270.763C15.5812 262.685 23.7892 258.088 33.5274 258.088C46.6045 258.228 56.0645 268.395 56.0645 282.463Z" fill="#607E6F"></path><path d="M138.143 338.454C137.03 338.454 133.691 334.972 133.691 319.511V280.791C133.691 267.002 123.397 258.228 107.259 258.228C95.9903 258.228 87.5041 262.127 83.7479 268.952C81.9394 272.295 80.4091 278.423 82.2176 281.627C82.9132 282.88 84.1653 283.437 85.5564 283.437C89.3126 283.437 89.73 280.234 90.0082 277.309C90.1473 275.498 90.4256 273.409 91.3994 271.32C93.6253 265.749 99.4682 262.685 107.259 262.685C119.084 262.685 124.788 268.813 124.788 281.348V296.53C119.501 292.63 112.267 290.541 104.198 290.541C86.1129 290.541 75.2617 300.569 75.2617 317.422C75.2617 332.465 86.6694 345.139 100.303 345.139C112.267 345.139 121.31 338.871 125.762 332.047C127.431 339.568 131.326 342.911 138.143 342.911H139.534V338.454H138.143ZM124.788 322.297C123.118 331.629 114.076 339.568 104.755 339.568C93.6253 339.568 86.252 330.793 86.252 317.283C86.252 303.355 94.3209 294.719 107.398 294.719C116.441 294.719 122.284 299.733 124.649 302.24V322.297H124.788Z" fill="#607E6F"></path><path d="M164.159 265.052V319.511C164.159 337.061 168.332 340.682 174.732 340.682C179.74 340.682 181.549 338.454 183.079 330.654C183.496 328.425 184.053 325.222 188.226 325.222C189.757 325.222 190.87 326.058 191.426 327.451C192.817 330.793 190.452 336.922 187.67 339.707C183.914 343.329 180.157 345 174.871 345C165.272 345 153.725 340.543 153.725 319.511V264.774L145.656 264.495V260.456H153.725V244.857L164.02 240.678V260.456H193.652V266.027L164.159 265.052Z" fill="#607E6F"></path><path d="M264.462 260.456V342.632H254.167V333.579C248.881 340.821 241.09 344.861 231.908 344.861C218.831 344.861 209.371 334.693 209.371 320.626V260.456H219.666V320.347C219.666 336.922 229.265 339.429 234.969 339.429C246.794 339.429 252.359 328.565 254.167 323.69V260.456H264.462Z" fill="#607E6F"></path><path d="M335.551 272.574C335.551 276.056 333.604 278.284 330.404 278.284C327.065 278.284 326.648 275.22 326.509 272.991C325.257 265.749 322.335 262.963 316.075 262.963C306.337 262.963 300.494 273.827 299.381 281.209V342.911H289.086V260.735H299.381V268.534C303.693 261.988 310.371 258.506 318.579 258.506C328.178 258.228 335.551 264.356 335.551 272.574Z" fill="#607E6F"></path><path d="M412.623 308.787V310.179C412.483 326.754 398.572 340.821 382.295 340.821C367.409 340.821 351.55 330.654 351.55 301.823C351.55 299.594 351.689 297.505 351.828 295.276H415.961L416.1 294.023C417.353 284.97 414.709 276.056 409.005 269.509C402.745 262.406 393.285 258.506 382.156 258.506C355.028 258.506 340.281 280.791 340.281 301.683C340.281 326.336 358.227 345 382.156 345C401.91 345 416.935 329.957 417.213 310.04V308.647H412.623V308.787ZM382.434 262.824C389.251 262.824 395.094 265.192 399.406 269.649C404.275 274.663 407.058 282.323 407.058 290.68H352.524C355.723 272.991 366.575 262.824 382.434 262.824Z" fill="#607E6F"></path><path d="M491.502 260.456L461.313 342.632H454.357L423.891 260.456H434.881L460.757 329.818C475.642 284.412 480.651 269.231 482.32 264.077C482.737 262.545 483.016 261.988 483.155 261.71V260.456H491.502Z" fill="#607E6F"></path><path d="M514.041 240.678C514.041 244.578 510.98 247.642 507.085 247.642C503.189 247.642 500.129 244.578 500.129 240.678C500.129 236.778 503.189 233.714 507.085 233.714C510.98 233.714 514.041 236.778 514.041 240.678Z" fill="#607E6F"></path><path d="M545.762 223.964H535.328V342.771H545.762V223.964Z" fill="#607E6F"></path><path d="M512.373 260.456H502.078V342.632H512.373V260.456Z" fill="#607E6F"></path><path d="M670.271 308.787V310.179C670.132 326.754 656.22 340.821 639.943 340.821C625.058 340.821 609.198 330.654 609.198 301.823C609.198 299.594 609.337 297.505 609.476 295.276H673.61L673.749 294.023C675.001 284.97 672.358 276.056 666.654 269.509C660.394 262.406 650.934 258.506 639.804 258.506C612.676 258.506 597.93 280.791 597.93 301.683C597.93 326.336 615.876 345 639.804 345C659.559 345 674.723 329.957 674.862 310.04V308.647H670.271V308.787ZM639.943 262.824C646.76 262.824 652.603 265.192 656.916 269.649C661.785 274.663 664.567 282.323 664.706 290.68H610.172C613.372 272.991 624.223 262.824 639.943 262.824Z" fill="#607E6F"></path><path d="M580.4 223.964H570.105V342.771H580.4V223.964Z" fill="#607E6F"></path><path d="M408.451 209.897H266.551V70.6155C266.551 31.756 298.131 0.13916 336.944 0.13916H337.918C376.732 0.13916 408.312 31.756 408.312 70.6155V209.897H408.451ZM272.115 204.326H402.886V70.6155C402.886 34.681 373.811 5.57113 338.057 5.57113H337.084C301.33 5.57113 272.255 34.6809 272.255 70.4763V204.326H272.115Z" fill="#C39973"></path><path d="M339.589 67.1334L335.555 63.3728C336.807 62.1193 366.3 31.0595 391.619 26.8811L392.454 32.3131C368.943 36.213 339.867 66.8549 339.589 67.1334Z" fill="#C39973"></path><path d="M340.283 122.846L334.719 122.428C334.719 121.871 339.171 62.8158 400.8 44.7092L402.33 50.0019C344.457 67.1335 340.283 122.289 340.283 122.846Z" fill="#C39973"></path><path d="M336.111 68.1085C335.833 67.83 306.618 37.1881 283.246 33.2882L284.081 27.8562C309.4 32.0346 338.893 62.9551 340.145 64.3479L336.111 68.1085Z" fill="#C39973"></path><path d="M334.717 123.821C334.578 121.593 330.404 68.1085 272.531 51.1162L274.062 45.8235C335.691 63.9301 340.143 122.985 340.143 123.542L334.717 123.821Z" fill="#C39973"></path><path d="M405.668 186.637H269.332V192.208H405.668V186.637Z" fill="#C39973"></path><path d="M405.671 158.363C394.124 158.363 388.142 157.388 382.577 156.552C376.873 155.577 371.448 154.741 360.318 154.741C349.189 154.741 343.763 155.577 338.059 156.552C332.355 157.527 326.512 158.363 314.966 158.363C303.419 158.363 297.437 157.388 291.872 156.552C286.168 155.577 280.743 154.741 269.613 154.741V149.17C281.16 149.17 287.142 150.145 292.707 150.981C298.411 151.956 303.836 152.791 314.966 152.791C326.095 152.791 331.521 151.956 337.225 150.981C342.928 150.006 348.771 149.17 360.318 149.17C371.865 149.17 377.847 150.145 383.412 150.981C389.116 151.956 394.541 152.791 405.671 152.791V158.363Z" fill="#C39973"></path><path d="M337.5 176.609C320.249 176.609 311.624 175.634 303.138 174.798C294.791 173.962 286.304 172.987 269.332 172.987V167.416C286.583 167.416 295.208 168.391 303.694 169.227C312.041 170.062 320.527 171.037 337.5 171.037C354.472 171.037 362.958 170.062 371.305 169.227C379.792 168.252 388.556 167.416 405.668 167.416V172.987C388.834 172.987 380.209 173.962 371.862 174.798C363.376 175.634 354.75 176.609 337.5 176.609Z" fill="#C39973"></path><path d="M340.283 63.3728H334.719V154.741H340.283V63.3728Z" fill="#C39973"></path><path d="M338.198 40.2523C331.381 40.2523 325.816 34.681 325.816 27.8562C325.816 21.0315 331.381 15.4602 338.198 15.4602C345.015 15.4602 350.579 21.0315 350.579 27.8562C350.579 34.681 345.015 40.2523 338.198 40.2523ZM338.198 21.1707C334.442 21.1707 331.381 24.2349 331.381 27.9955C331.381 31.7561 334.442 34.8203 338.198 34.8203C341.954 34.8203 345.015 31.7561 345.015 27.9955C345.015 24.2349 341.815 21.1707 338.198 21.1707Z" fill="#C39973"></path><path d="M290.897 55.8518H285.332V153.767H290.897V55.8518Z" fill="#C39973"></path><path d="M390.506 54.3196H384.941V152.234H390.506V54.3196Z" fill="#C39973"></path></g><defs><clipPath id="clip0_1190_1510"><rect width="675" height="345" fill="white"></rect></clipPath></defs></svg>