<svg xmlns="http://www.w3.org/2000/svg" width="394" height="101" viewBox="0 0 394 101" fill="none"><g clip-path="url(#clip0_804_989)"><path d="M99.4273 50.916C99.1502 75.958 83.8012 101 49.7776 101C15.754 101 0 76.5126 0 51.0653C0 25.618 16.3296 0 49.7776 0C83.2256 0 99.7045 25.5966 99.4273 50.916ZM17.9711 51.3426C18.3975 67.2551 26.9673 84.2769 49.7776 84.2769C72.5879 84.2769 81.1578 67.1271 81.4349 51.2146C81.712 34.8967 72.5879 16.6378 49.7776 16.6378C26.9673 16.6378 17.5661 35.046 17.9711 51.3639V51.3426ZM157.007 98.803V62.2638C157.007 53.2623 152.296 45.114 143.044 45.114C133.792 45.114 128.526 53.2836 128.526 62.2638V98.7816H111.664V30.4387H127.29L128.526 38.7362C132.129 31.8251 139.996 29.3295 146.498 29.3295C154.662 29.3295 162.827 32.657 166.686 42.0638C172.761 32.3797 180.649 29.6068 189.496 29.6068C208.853 29.6068 218.403 41.5092 218.403 61.9865V98.803H201.541V61.9865C201.541 53.0063 197.81 45.3913 188.686 45.3913C179.562 45.3913 173.891 53.2836 173.891 62.2638V98.7816H157.029L157.007 98.803ZM322.734 98.803H301.032L272.828 66.4232H255.262V98.803H237.014V1.81309C252.363 1.81309 267.712 1.94108 283.061 1.94108C305.871 2.09039 317.916 17.2991 317.916 34.0435C317.916 47.3324 311.84 60.7493 293.443 64.4822L322.755 97.5445V98.7816L322.734 98.803ZM255.262 18.9628V49.9561H283.061C294.679 49.9561 299.668 42.2131 299.668 34.4701C299.668 26.7271 294.551 18.9842 283.061 18.9842H255.262V18.9628ZM372.447 30.588H392.636V31.1426L370.23 64.2049L394.021 98.3764V98.803H373.833L359.038 75.9793L344.244 98.803H324.055V98.3764L347.846 64.2049L325.441 31.1426V30.588H345.629L359.038 53.6889L372.447 30.588Z" fill="#EDEEF3"></path></g><defs><clipPath id="clip0_804_989"><rect width="394" height="101" fill="white"></rect></clipPath></defs></svg>