<svg xmlns="http://www.w3.org/2000/svg" width="180" height="131" viewBox="0 0 180 131" fill="none"><path d="M179.57 86.0119L161.082 48.2724C161.082 48.2724 161.074 48.2611 161.07 48.2536V48.2461C161.07 48.2423 161.063 48.2385 161.059 48.2348C161.033 48.1897 160.999 48.1521 160.957 48.122C160.957 48.122 160.953 48.1182 160.95 48.1145C160.912 48.0844 160.867 48.0656 160.821 48.0506C160.81 48.0468 160.795 48.0431 160.784 48.0393C160.776 48.0393 160.765 48.0318 160.757 48.0318L138.556 44.6559L155.008 34.7427L157.44 33.2766L167.781 27.0474C169.7 25.8896 170.744 23.5814 170.721 20.5476C170.699 17.5966 169.666 14.2846 167.811 11.2283C165.96 8.17203 163.502 5.71722 160.889 4.32628C158.469 3.03684 156.173 2.78873 154.341 3.59698C154.28 3.60074 154.22 3.61953 154.164 3.64961L143.608 9.68703C143.608 9.68703 143.608 9.68703 143.604 9.68703L141.474 10.9689L96.4864 38.0734L79.3366 0.450454C79.2838 0.337675 79.1896 0.25121 79.0727 0.213617C78.9558 0.176024 78.8277 0.187304 78.7183 0.251212L0.71318 44.6146C0.5096 44.7311 0.434214 44.983 0.539774 45.1898L19.3181 82.4669C19.3181 82.4669 19.3257 82.4744 19.3257 82.4781C19.3257 82.4781 19.3257 82.4819 19.3257 82.4857C19.3295 82.4932 19.337 82.5007 19.3446 82.5082C19.3596 82.527 19.3709 82.5496 19.3898 82.5646C19.4011 82.5759 19.4086 82.5834 19.4199 82.5947C19.4388 82.6097 19.4539 82.6248 19.4727 82.636C19.484 82.6436 19.4953 82.6511 19.5104 82.6548C19.533 82.6661 19.5519 82.6736 19.5745 82.6812C19.5858 82.6849 19.6009 82.6887 19.6122 82.6924C19.6235 82.6924 19.6311 82.6999 19.6424 82.6999L84.4148 92.6245L102.515 130.45C102.567 130.559 102.665 130.642 102.782 130.68C102.824 130.695 102.869 130.699 102.91 130.699C102.986 130.699 103.061 130.68 103.129 130.638L179.4 86.5645C179.6 86.448 179.675 86.1998 179.573 85.9931L179.57 86.0119ZM159.381 48.7085L84.6146 91.7861L21.0071 82.0421L95.5062 39.5997L88.9199 52.6144C88.8332 52.6557 88.7541 52.7234 88.7126 52.8174C88.6711 52.9038 88.6711 52.994 88.6862 53.0767L84.8823 60.5953C84.8144 60.7307 84.822 60.8885 84.8974 61.0201C84.9765 61.1479 85.116 61.2306 85.2668 61.2306L110.187 61.6667H110.194C110.243 61.6667 110.296 61.6554 110.341 61.6367C110.356 61.6329 110.367 61.6254 110.383 61.6179C110.394 61.6103 110.409 61.6103 110.42 61.6028L137.376 45.3627L159.378 48.7085H159.381ZM157.157 32.4232C156.32 32.1225 152.795 30.7391 149.606 27.7391C144.818 23.2318 143.004 17.3823 144.215 10.3449L151.751 6.03676C151.121 7.20966 150.797 8.68706 150.808 10.3975C150.831 13.3486 151.864 16.6605 153.719 19.7168C155.57 22.7731 158.028 25.2279 160.641 26.6189C162.1 27.397 163.513 27.7955 164.81 27.8143L157.157 32.4232ZM156.211 32.9909L154.759 33.8668C153.376 33.1337 145.557 28.7128 142.665 21.2318C142.835 21.0965 142.891 20.8596 142.774 20.6679C142.692 20.5326 142.548 20.4649 142.397 20.4649C141.613 17.8973 141.383 14.9538 142.077 11.6306L143.234 10.9351C141.123 25.6452 152.878 31.615 156.211 32.9984V32.9909ZM110.175 60.7269L102.492 56.9075L147.457 29.8143C150.024 32.2352 152.637 33.754 153.87 34.4006L110.175 60.7269ZM89.3875 53.6369C92.2828 55.3286 92.7088 59.1894 92.7691 60.4825L85.9869 60.3623L89.3912 53.6369H89.3875ZM93.6513 60.4976C93.6023 59.0954 93.1763 54.7835 89.787 52.8512L96.1508 40.2726L96.4487 48.325C96.4487 48.325 96.4524 48.34 96.4524 48.3476C96.4524 48.3701 96.4599 48.3889 96.4675 48.4115C96.475 48.4453 96.4864 48.4754 96.5014 48.5054C96.5052 48.513 96.5052 48.5243 96.5127 48.5318C96.524 48.5506 96.5391 48.5656 96.5542 48.5806C96.558 48.5882 96.5617 48.5957 96.5693 48.6032L99.868 52.1332L101.161 57.0466C101.161 57.0466 101.18 57.0804 101.188 57.0954C101.195 57.118 101.199 57.1405 101.21 57.1593C101.218 57.1706 101.229 57.1819 101.237 57.1932C101.244 57.2044 101.252 57.212 101.259 57.2195C101.297 57.2608 101.338 57.2947 101.384 57.321C101.384 57.321 101.384 57.321 101.387 57.3247L108.264 60.7457L93.6513 60.4901V60.4976ZM146.812 29.1827L101.862 56.2646L100.69 51.8136C100.671 51.7422 100.637 51.6783 100.588 51.6257L97.5834 48.4077L141.904 21.7055C143.027 24.7317 144.874 27.2204 146.816 29.1789L146.812 29.1827ZM156.637 4.00298C157.813 4.00298 159.117 4.36763 160.478 5.09694C162.951 6.41645 165.289 8.75472 167.061 11.6794C168.833 14.6042 169.82 17.7545 169.843 20.5514C169.866 23.2656 168.972 25.3031 167.328 26.2956C165.685 27.2843 163.46 27.1264 161.059 25.8445C158.586 24.5249 156.248 22.1867 154.477 19.2619C152.705 16.3372 151.717 13.1869 151.694 10.39C151.672 7.67581 152.565 5.63827 154.209 4.64582C154.921 4.21726 155.74 4.00298 156.637 4.00298ZM141.044 12.2546C140.418 15.4387 140.735 18.3146 141.606 20.8634L97.3045 47.5543L96.9802 38.8027L141.048 12.2546H141.044ZM78.7296 1.2587L95.6984 38.4832L19.8874 81.6699L1.50487 45.1785L78.7296 1.2587ZM103.099 129.661L85.2781 92.4177L160.505 49.0769L178.608 86.0307L103.103 129.661H103.099Z" fill="#F16C3F"></path></svg>