<svg xmlns="http://www.w3.org/2000/svg" width="636" height="120" viewBox="0 0 636 120" fill="none"><path d="M19.5889 47.0107V41.5863C19.5889 38.1953 21.4721 37.2162 24.638 38.4205C28.2542 39.7782 32.8495 40.8324 36.9945 40.8324C40.5356 40.8324 42.4188 40.0034 42.4188 37.5164C42.4188 35.4832 41.1395 33.9002 36.5442 32.9211C31.8738 31.942 19.3672 29.2298 19.3672 15.9693C19.3638 6.62857 25.3919 0 39.6316 0C43.548 0 47.8431 0.528785 51.2307 1.20426C53.7928 1.73305 54.997 3.6162 54.997 6.2533V11.5275C54.997 14.8435 53.0388 16.0478 49.8729 15.1437C45.9565 14.0145 41.7365 13.4107 38.8742 13.4107C35.3331 13.4107 33.9002 14.3147 33.9002 16.0478C33.9002 18.91 37.5915 19.5889 39.7032 20.0426C48.29 21.8507 56.2764 25.4669 56.2764 36.9944C56.2764 46.939 50.4017 54.2465 36.3122 54.2465C32.5459 54.2465 27.4968 53.7211 22.9766 52.2132C20.5646 51.3092 19.5855 49.5761 19.5855 47.0141" fill="#B2B2B2"></path><path d="M64.6413 0.753906H71.2699C74.2072 0.753906 75.7902 2.33685 75.7902 5.27416V48.9688C75.7902 51.9061 74.2072 53.4891 71.2699 53.4891H64.6413C61.704 53.4891 60.1211 51.9061 60.1211 48.9688V5.27416C60.1211 2.33685 61.704 0.753906 64.6413 0.753906Z" fill="#B2B2B2"></path><path d="M104.566 8.28666H110.141C113.532 8.28666 114.436 9.79114 113.382 12.5818C112.778 14.0146 112.327 15.5941 112.102 17.3272L113.685 17.6274C115.718 10.9203 120.089 7.53271 126.342 7.53271C135.608 7.53271 140.428 14.4649 140.428 26.8931C140.428 39.3212 135.304 46.7071 125.738 46.7071C119.635 46.7071 115.493 43.7698 114.361 39.2496L112.778 39.5498C113.003 41.2078 113.457 42.5621 114.06 43.8449C115.039 45.8781 115.718 47.386 115.718 49.5694C115.718 52.0564 114.135 53.4858 111.198 53.4858H104.57C101.632 53.4858 100.049 51.9029 100.049 48.9655V12.8069C100.049 9.8696 101.632 8.28666 104.57 8.28666M120.239 33.6751C123.101 33.6751 124.759 31.2632 124.759 27.1216C124.759 22.98 123.101 20.5681 120.239 20.5681C117.376 20.5681 115.718 22.98 115.718 27.1216C115.718 31.2632 117.376 33.6751 120.239 33.6751Z" fill="#B2B2B2"></path><path d="M45.2776 66.5073H51.9061C54.8435 66.5073 56.4264 68.0903 56.4264 71.0276V114.722C56.4264 117.66 54.8435 119.243 51.9061 119.243H45.2776C42.3403 119.243 40.7573 117.66 40.7573 114.722V71.0276C40.7573 68.0903 42.3403 66.5073 45.2776 66.5073Z" fill="#B2B2B2"></path><path d="M85.206 74.0435H90.7805C94.1715 74.0435 95.0755 75.5514 94.018 78.3386C93.4141 79.7714 92.9638 81.351 92.7387 83.084L94.3216 83.3842C96.3549 76.6806 100.725 73.2896 106.978 73.2896C116.244 73.2896 121.068 80.2217 121.068 92.6499C121.068 105.078 115.944 112.464 106.378 112.464C100.275 112.464 96.1297 109.527 95.0005 105.006L93.4176 105.307C93.6427 106.965 94.0965 108.319 94.6969 109.602C95.676 111.635 96.3549 113.143 96.3549 115.326C96.3549 117.813 94.7719 119.243 91.8346 119.243H85.206C82.2687 119.243 80.6858 117.66 80.6858 114.722V78.5603C80.6858 75.623 82.2687 74.0401 85.206 74.0401M100.875 99.4286C103.737 99.4286 105.395 97.0166 105.395 92.875C105.395 88.7335 103.737 86.3215 100.875 86.3215C98.0129 86.3215 96.3549 88.7335 96.3549 92.875C96.3549 97.0166 98.0129 99.4286 100.875 99.4286Z" fill="#B2B2B2"></path><path d="M125.206 112.089V106.589C125.206 103.198 127.014 102.144 130.252 103.048C135.526 104.631 142.683 105.835 146.524 105.835L146.599 104.102C134.547 102.82 124.602 98.7531 124.602 87.6043C124.602 79.2426 130.176 73.2896 143.137 73.2896C147.353 73.2896 151.573 74.1936 154.739 75.4729C157.076 76.377 157.98 78.1851 157.98 80.6721V85.7211C157.98 89.1122 156.022 90.2414 152.781 89.1872C147.432 87.3791 142.008 86.5501 139.521 86.3249L139.295 88.058C154.06 90.4699 159.939 95.5156 159.939 105.535C159.939 113.747 154.664 120 141.632 120C138.166 120 132.967 119.396 128.372 117.438C126.113 116.384 125.209 114.576 125.209 112.089" fill="#B2B2B2"></path><path d="M0.228571 112.764V107.34C0.228571 103.949 2.11173 102.97 5.27761 104.174C8.89382 105.532 13.4891 106.586 17.6307 106.586C21.1719 106.586 23.055 105.757 23.055 103.27C23.055 101.237 21.7757 99.6539 17.177 98.6748C12.5066 97.6957 0 94.9835 0 81.723C0 72.3822 6.02814 65.7502 20.2644 65.7502C24.1808 65.7502 28.4759 66.279 31.8669 66.9545C34.429 67.4833 35.6333 69.3664 35.6333 72.0035V77.2778C35.6333 80.5937 33.675 81.798 30.5092 80.894C26.5927 79.7647 22.3727 79.1609 19.5104 79.1609C15.9693 79.1609 14.5365 80.065 14.5365 81.798C14.5365 84.6603 18.2277 85.3392 20.336 85.7895C28.9262 87.5976 36.9092 91.2138 36.9092 102.741C36.9092 112.686 31.0345 119.993 16.945 119.993C13.1787 119.993 8.12964 119.468 3.60938 117.96C1.19744 117.056 0.218337 115.323 0.218337 112.761" fill="#B2B2B2"></path><path d="M39.8159 112.266L34.2585 91.6127L78.2944 79.7611C79.4168 79.4575 81.1464 77.953 81.4875 76.6873C81.7161 75.8447 80.7575 74.6438 79.9148 73.7875L65.0065 58.654C59.5242 53.0899 57.334 45.2297 59.1489 37.6289C60.9639 30.028 66.4666 24.0067 73.873 21.5163L113.474 8.20117L120.29 28.4724L80.6892 41.7875C80.5289 41.8421 80.0991 41.9854 79.9524 42.5926C79.8091 43.1999 80.1263 43.5206 80.2458 43.6434L95.1541 58.7769C101.909 65.634 104.386 73.982 102.131 82.2856C99.8176 90.8076 92.4726 98.0911 83.8551 100.411L39.8193 112.263L39.8159 112.266Z" fill="#EF5E84"></path><path d="M60.1177 71.5564C60.1177 67.7901 62.9799 65.7534 68.5543 65.7534C74.1288 65.7534 76.916 67.7867 76.916 71.5564C76.916 75.3261 74.0537 77.5095 68.5543 77.5095C63.055 77.5095 60.1177 75.4762 60.1177 71.5564ZM65.2418 79.3142H71.8703C74.8077 79.3142 76.3906 80.8971 76.3906 83.8344V114.722C76.3906 117.66 74.8077 119.243 71.8703 119.243H65.2418C62.3045 119.243 60.7215 117.66 60.7215 114.722V83.8344C60.7215 80.8971 62.3045 79.3142 65.2418 79.3142Z" fill="#B2B2B2"></path><path d="M79.478 5.80298C79.478 2.03667 82.3403 0 87.9147 0C93.4891 0 96.2763 2.03326 96.2763 5.80298C96.2763 9.57271 93.4141 11.7561 87.9147 11.7561C82.4153 11.7561 79.478 9.72281 79.478 5.80298ZM84.6021 13.5608H91.2307C94.168 13.5608 95.7509 15.1437 95.7509 18.081V48.9689C95.7509 51.9062 94.168 53.4891 91.2307 53.4891H84.6021C81.6648 53.4891 80.0819 51.9062 80.0819 48.9689V18.081C80.0819 15.1437 81.6648 13.5608 84.6021 13.5608Z" fill="#B2B2B2"></path><path d="M275.937 39.9221C274.495 30.4876 277.802 29.1427 284.772 28.1194C292.192 27.0318 295.098 26.8915 296.104 33.3469C296.159 33.724 296.194 34.1129 296.221 34.4842C296.297 35.639 295.504 36.6652 294.37 36.8932C293.709 37.0277 292.973 37.133 292.192 37.1914C291.517 32.5838 291.417 32.309 286.529 33.0282C280.685 33.8848 280.652 34.0632 281.573 40.3577C282.108 44.0122 282.36 44.5473 287.137 43.8485C296.691 42.4481 297.858 42.565 299.258 52.1194C300.726 62.1241 297.074 63.0626 290.16 64.0741C283.471 65.0565 279.667 64.1765 278.597 56.8703C278.577 56.7271 278.556 56.578 278.536 56.4259C278.381 55.1834 279.22 54.0227 280.454 53.7947C281.445 53.6134 282.474 53.5023 283.491 53.4526C283.491 53.4526 283.491 55.0021 283.655 56.1277C284.14 59.4431 285.105 59.3613 292.131 58.3292C295.221 57.8761 295.534 57.2563 294.955 53.3211C294.13 47.6989 293.864 47.4533 287.625 48.3655C279.644 49.535 277.305 49.2455 275.937 39.9162" fill="#B2B2B2"></path><path d="M334.21 68.3397C336.049 58.9753 339.616 58.8262 346.519 60.2266C353.869 61.7147 356.652 62.5684 355.409 68.9829C355.331 69.3746 355.225 69.7722 355.117 70.1465C354.804 71.2253 353.743 71.9036 352.629 71.7428C351.945 71.6434 351.199 71.4913 350.422 71.2779C351.346 66.7112 351.349 66.4218 346.504 65.4424C340.712 64.27 340.625 64.4249 339.362 70.661C338.628 74.2805 338.683 74.871 343.414 75.83C352.881 77.7479 353.936 78.2508 352.018 87.7174C350.01 97.6285 346.256 97.2718 339.408 95.8861C332.784 94.5441 329.5 92.4303 330.968 85.1914C331 85.0306 331.038 84.864 331.076 84.6944C331.348 83.5045 332.491 82.721 333.696 82.9169C334.713 83.0806 335.739 83.332 336.733 83.6361C336.733 83.6361 336.207 85.095 335.979 86.2089C335.312 89.495 336.248 89.7406 343.209 91.1498C346.27 91.7696 346.773 91.293 347.562 87.3958C348.691 81.8293 348.524 81.5047 342.344 80.2534C334.438 78.6513 332.336 77.5871 334.207 68.3455" fill="#B2B2B2"></path><path d="M337.877 44.5149C338.727 43.6642 338.727 41.7872 338.727 37.8111C338.727 34.9722 338.499 33.8349 337.988 33.1537C337.306 32.2445 335.886 31.8469 332.193 31.8469C329.351 31.8469 327.933 31.8469 327.363 32.4141C326.738 33.0397 326.623 36.3346 326.623 41.1615C326.623 43.2636 326.623 44.2284 327.191 44.7985C327.758 45.3657 329.065 45.4797 331.053 45.4797C334.178 45.4797 336.903 45.4797 337.871 44.5149M330.714 27.5872C339.803 27.5872 344.633 30.1424 344.689 38.6648C344.689 47.7543 340.429 48.8916 330.942 48.8916C329.351 48.8916 328.954 49.0056 328.556 49.4032C327.93 50.0289 327.93 51.4468 327.93 55.7095C327.93 58.2794 327.98 60.32 328.024 61.6649C328.062 62.7583 327.202 63.6734 326.109 63.6968C324.679 63.729 322.887 63.6588 322.08 63.4922C322.08 63.4922 322.308 57.8116 322.308 49.2892V48.8916C322.308 36.1095 322.25 33.0426 321.797 32.1334C321.229 31.1101 320.206 30.771 311.058 30.7125C310.874 30.6394 310.81 29.5928 310.88 28.7215C310.929 28.1134 311.435 27.6427 312.046 27.6369C314.341 27.6222 320.794 27.5872 330.433 27.5872H330.717H330.714Z" fill="#B2B2B2"></path><path d="M313.686 32.7415C318.63 32.4346 320.864 35.9926 320.227 37.9047C320.001 38.58 319.589 36.9486 313.648 37.2966C311.953 37.396 311.473 35.7997 311.555 34.7413C311.631 33.7648 312.584 32.8117 313.686 32.7415Z" fill="#B2B2B2"></path><path d="M308.213 91.7433C308.213 93.2723 308.275 94.9856 308.275 96.6988C307.591 96.7895 305.918 96.9152 304.345 96.8976C303.43 96.8859 302.699 96.1375 302.72 95.2224C302.755 93.7635 302.796 78.2098 302.796 74.8418C302.796 68.4186 302.427 67.7988 302.427 67.7988C303.483 67.6936 304.921 67.6877 306.129 67.7286C307.222 67.7637 308.079 68.6847 308.023 69.7781C307.947 71.313 308.21 87.1123 308.21 91.7433" fill="#B2B2B2"></path><path d="M363.052 0.0115801C339.335 4.73031 259.938 8.04277 259.938 8.04277C259.938 8.04277 260.479 11.6856 261.029 20.2314C261.503 27.5726 261.994 36.8726 262.041 40.3167C262.061 41.8749 263.38 43.0912 264.938 43.0035C266.21 42.9304 267.446 42.79 267.864 42.6322C267.864 42.6322 266.566 28.1485 266.034 19.9068C265.797 16.2435 265.838 14.0333 266.318 12.9018C266.689 12.0189 267.329 11.4488 269.958 11.3786C305.95 10.4314 340.002 6.63359 355.111 4.74785C356.626 4.55781 357.935 5.79158 357.842 7.31187C357.626 10.8261 357.368 15.0536 357.193 17.9451C356.804 24.3566 356.401 24.953 356.401 24.953C357.234 25.0875 358.315 25.1723 359.333 25.2191C360.83 25.2892 362.087 24.1052 362.119 22.6053C362.151 20.9944 362.251 18.445 362.49 14.463C362.563 13.2731 363.099 6.50202 363.347 3.21587C363.487 2.13705 363.727 -0.128754 363.049 0.00573285" fill="#B2B2B2"></path><path d="M318.186 72.0526C317.636 72.6023 317.452 74.5611 317.452 77.0696C317.452 79.2711 317.575 80.4961 318.186 81.0457C318.735 81.5954 319.899 81.7795 321.732 81.7795C323.261 81.7795 324.486 81.5954 325.097 80.9843C325.77 80.3119 326.015 78.7214 326.015 76.5813C326.015 73.7688 325.77 72.8479 325.22 72.2982C324.67 71.7486 323.691 71.3802 321.732 71.3802C319.592 71.3802 318.674 71.5644 318.186 72.0526ZM316.133 95.1259C314.712 95.1785 312.938 95.1434 312.376 94.9914C312.376 94.9914 312.745 90.5884 312.745 82.3906V82.0836C312.745 71.0732 312.376 68.3192 312.376 68.3192C312.376 68.3192 314.394 67.8923 319.411 67.8923H319.595C326.936 67.8923 331.216 69.7898 331.216 75.9674C331.216 83.3086 327.056 85.1446 320.206 85.1446C318.493 85.1446 318.004 85.3288 317.882 85.9399C317.759 86.5509 317.759 87.8987 317.759 89.1822C317.759 91.062 317.8 92.366 317.849 93.2518C317.905 94.2459 317.13 95.0908 316.133 95.1259Z" fill="#B2B2B2"></path><path d="M361.573 101.403C360.362 101.195 358.889 100.994 357.801 100.956C357.801 100.956 358.082 101.619 357.208 107.984C357.07 108.99 356.941 109.908 356.819 110.744C356.576 112.428 355.114 113.668 353.413 113.63C342.011 113.375 319.475 113.249 303.278 115.533C300.673 115.901 299.957 115.273 299.486 114.439C298.881 113.366 298.586 111.177 298.399 107.513C298.068 101.032 297.823 74.4062 297.732 70.0792C297.709 68.9683 296.785 68.0912 295.674 68.1263C294.335 68.1672 292.721 68.3075 291.891 68.4946C291.891 68.4946 292.829 96.7719 293.388 107.768C293.823 116.319 293.704 120 293.704 120C293.704 120 336.722 115.547 360.827 117.512C361.07 117.533 361.163 117.267 361.175 116.872C361.377 115.334 361.534 113.802 361.725 112.428C362.365 107.759 362.809 105.09 363.093 103.596C363.289 102.569 362.605 101.578 361.575 101.403" fill="#B2B2B2"></path><path d="M289.303 86.9602C290.379 92.9185 287.809 95.5586 282.149 96.5789C274.893 97.8887 272.785 96.8888 271.51 91.4509C271.259 90.3779 271.934 89.3108 273.01 89.0827C274.083 88.8576 275.323 88.6647 276.051 88.6033C276.401 92.9536 276.805 93.8132 280.775 93.0969C284.69 92.3894 284.766 91.445 284.146 88.0127C283.538 84.6417 282.953 84.4985 278.737 85.2586C273.32 86.2351 270.709 85.8989 269.624 79.8792C268.648 74.4617 272.06 71.6696 277.597 70.6727C283.325 69.6406 286.64 70.7925 287.193 75.637C287.318 76.7392 286.581 77.7537 285.5 77.9905C284.357 78.2419 283.038 78.4203 282.468 78.3735C282.468 78.3735 282.529 77.6777 282.366 76.7772C281.953 74.488 281.085 74.1489 278.074 74.6927C274.46 75.3446 274.106 75.7803 274.679 78.9728C275.352 82.7063 276.086 82.6361 280 81.9286C284.155 81.1802 288.225 81.0048 289.3 86.9631" fill="#B2B2B2"></path><path d="M307.854 52.3824C307.854 58.6214 308.023 63.7845 308.023 63.7845C307.775 63.9249 306 63.9366 304.468 63.8664C303.293 63.8138 302.375 62.8344 302.398 61.6591C302.431 59.9955 302.466 57.4198 302.466 54.3675C302.466 44.4418 302.012 20.8424 302.012 20.8424C302.621 20.7137 304.191 20.6406 305.606 20.6406C306.968 20.6406 308.064 21.7516 308.044 23.114C307.98 27.3679 307.854 43.7402 307.854 52.3824Z" fill="#B2B2B2"></path><path d="M317.519 63.5185C317.046 63.6764 315.683 63.7495 314.47 63.7612C313.306 63.7758 312.359 62.8315 312.365 61.6649C312.383 59.1857 312.409 54.9085 312.409 51.6165C312.409 46.6814 312.233 39.4249 312.233 39.4249C312.824 39.1969 314.134 39.0975 315.37 39.0741C316.674 39.0507 317.739 40.1061 317.727 41.4072L317.516 63.5156L317.519 63.5185Z" fill="#B2B2B2"></path><path d="M307.243 103.701C302.299 104.008 300.065 100.45 300.703 98.5377C300.928 97.8623 301.34 99.4937 307.281 99.1458C308.976 99.0464 309.456 100.643 309.374 101.701C309.298 102.678 308.345 103.631 307.243 103.701Z" fill="#B2B2B2"></path><path d="M352.41 51.3415C348.457 55.955 342.908 54.6131 342.279 52.6835C342.007 51.8532 345.323 53.7126 348.434 47.4151C349.357 45.5469 351.723 45.8568 352.647 46.7778C354.009 48.1343 353.29 50.3154 352.41 51.3415Z" fill="#B2B2B2"></path><path d="M269.733 56.5282C270.759 55.923 272.601 55.6131 273.34 57.3731C275.928 63.5273 277.773 63.1356 277.202 63.6969C275.594 65.2815 270.905 64.7962 268.771 59.6652C268.294 58.5221 268.785 57.0895 269.73 56.5311" fill="#B2B2B2"></path><path d="M356.225 48.4062C355.871 48.5495 355.573 48.8038 355.339 49.1108C354.86 49.7394 354.219 50.9761 355.196 52.2712C356.207 53.6132 357.438 52.7215 358.044 52.125C358.301 51.8678 358.491 51.5549 358.605 51.207C358.818 50.5463 358.973 49.5289 358.362 48.9792C357.587 48.2776 357 48.0992 356.222 48.4091" fill="#B2B2B2"></path><path d="M267.502 64.9423C267.367 65.2697 267.344 65.6293 267.394 65.9831C267.502 66.7081 267.902 67.9302 269.39 68.1203C270.931 68.3161 271.139 66.9274 271.133 66.141C271.133 65.8047 271.045 65.4744 270.89 65.1762C270.592 64.6061 270.019 63.8488 269.259 63.8956C268.294 63.9541 267.794 64.2289 267.502 64.9423Z" fill="#B2B2B2"></path><path d="M530.56 19.7902C530.074 20.818 529.981 22.6287 529.981 24.0497C529.981 28.0677 530.854 29.4887 533.561 31.2235L541.79 36.3452C545.274 38.5526 547.015 41.0014 547.015 45.8851C547.015 48.0924 546.439 51.5621 545.181 53.3763C543.439 56.0561 539.859 57.3943 534.727 57.3943C529.595 57.3943 525.915 56.0561 524.076 53.3763C522.911 51.638 522.431 48.5684 522.431 42.1809H529.984C529.984 46.9888 530.181 49.5927 530.754 51.093C531.243 52.1933 532.599 52.9831 534.727 52.9831C536.855 52.9831 538.307 52.3519 538.89 51.0137C539.373 49.91 539.473 48.0959 539.473 46.2058C539.473 42.8121 538.69 41.6325 536.175 40.0563L527.946 34.9312C524.366 32.7238 522.428 29.8094 522.428 24.0531C522.428 21.6078 523.104 19.0073 524.073 17.5863C526.004 14.7478 529.395 13.5682 534.723 13.5682C539.752 13.5682 543.822 14.9064 545.467 17.5863C546.733 19.6384 547.015 25.55 547.015 29.5715H539.473C539.473 26.3398 539.369 21.3698 538.793 19.7936C538.307 18.5313 536.762 17.9795 534.727 17.9795C532.692 17.9795 531.14 18.5313 530.564 19.7936L530.56 19.7902ZM552.841 108.091H560.394V0H552.841V108.091ZM567.182 108.091H574.735V14.1925H567.182V108.091ZM570.955 1.57618C569.506 1.57618 568.244 1.81416 567.661 2.36599C567.178 2.8385 566.985 3.62832 566.985 5.59768C566.985 7.56704 567.182 8.35685 567.661 8.82936C568.244 9.3812 569.599 9.61918 570.955 9.61918C572.407 9.61918 573.666 9.3812 574.242 8.82936C574.731 8.35685 574.921 7.56704 574.921 5.59768C574.921 3.62832 574.731 2.8385 574.242 2.36599C573.666 1.81416 572.314 1.57618 570.955 1.57618ZM589.065 71.3316H581.512V14.3822H589.065V16.6482C590.538 15.1099 592.766 14.1925 596.129 14.1925C600.875 14.1925 603.292 15.9273 604.558 18.3727C606.103 21.3664 606.103 27.3607 606.103 36.1107C606.103 43.4432 606.007 50.6964 604.744 53.5349C603.585 56.3769 600.968 58.0289 596.615 58.0289C592.738 58.0289 590.61 56.9287 589.355 54.7179H589.065V71.3281V71.3316ZM589.741 22.2355C589.255 24.6808 589.065 28.9369 589.065 36.1107C589.065 43.2846 589.158 48.0166 590.034 50.7757C590.517 52.2726 592.059 53.1417 593.904 53.1417C595.936 53.1417 597.295 52.2726 597.774 50.6964C598.547 48.0959 598.547 42.2602 598.547 36.1107C598.547 29.9612 598.453 24.0462 597.774 21.525C597.295 19.9488 596.036 19.0832 593.997 19.0832C591.959 19.0832 590.221 20.0282 589.741 22.2355ZM604.555 80.3265C606.1 82.4649 606.1 86.7416 606.1 92.9877C606.1 98.2232 606.003 103.4 604.741 105.425C603.582 107.453 600.964 108.632 596.612 108.632C592.735 108.632 590.607 107.846 589.352 106.27H589.062V120H581.509V77.3431H589.062V79.0952C590.535 77.9985 592.763 77.3431 596.125 77.3431C600.871 77.3431 603.289 78.5813 604.555 80.3265ZM598.547 92.9877C598.547 88.4868 598.453 84.379 597.774 82.5752C597.295 81.4509 596.036 80.8301 593.997 80.8301C591.959 80.8301 590.221 81.5026 589.741 83.0788C589.255 84.824 589.065 87.8625 589.065 92.9842C589.065 98.1059 589.158 101.482 590.034 103.455C590.517 104.521 592.059 105.145 593.904 105.145C595.936 105.145 597.295 104.524 597.774 103.4C598.547 101.545 598.547 97.3782 598.547 92.9877ZM534.723 68.6724C536.758 68.6724 538.303 69.2243 538.79 70.4866C539.369 72.0628 539.469 77.0327 539.469 80.2644H547.012C547.012 76.2429 546.729 70.3279 545.463 68.2793C543.818 65.5994 539.748 64.2612 534.72 64.2612C529.391 64.2612 526.001 65.4442 524.069 68.2793C523.1 69.7002 522.424 72.3008 522.424 74.7461C522.424 80.5024 524.363 83.4168 527.943 85.6241L536.172 90.7493C538.686 92.3255 539.469 93.505 539.469 96.8988C539.469 98.7888 539.366 100.603 538.886 101.707C538.303 103.045 536.758 103.676 534.723 103.676C532.688 103.676 531.24 102.886 530.75 101.786C530.174 100.286 529.981 97.6852 529.981 92.8739H522.428C522.428 99.2613 522.911 102.334 524.073 104.069C525.911 106.749 529.781 108.087 534.723 108.087C539.666 108.087 543.435 106.749 545.177 104.069C546.439 102.255 547.012 98.7854 547.012 96.578C547.012 91.6909 545.27 89.2455 541.787 87.0382L533.558 81.9165C530.85 80.1782 529.978 78.7607 529.978 74.7426C529.978 73.3216 530.071 71.5109 530.557 70.4831C531.136 69.2208 532.688 68.669 534.72 68.669L534.723 68.6724ZM630.546 93.1325L622.224 89.4525C619.482 88.2039 618.602 87.1865 618.602 84.2997C618.602 83.2788 619.006 82.2855 619.502 81.5474C620.082 80.6404 621.655 80.2437 623.71 80.2437C625.766 80.2437 627.332 80.6404 627.825 81.5474C628.404 82.6787 628.204 85.9414 628.204 88.266H635.833C635.833 85.3758 635.544 81.1301 634.271 79.6574C632.605 77.7329 628.49 76.7706 623.407 76.7706C618.016 76.7706 614.588 77.6191 612.636 79.6574C611.656 80.6783 610.97 82.5476 610.97 84.3032C610.97 88.4385 612.932 90.532 616.554 92.1185L624.876 95.802C627.418 96.9333 628.208 97.7817 628.208 100.22C628.208 101.579 628.101 101.865 627.618 102.655C627.028 103.617 625.462 104.069 623.41 104.069C621.358 104.069 619.885 103.504 619.392 102.71C618.813 101.634 618.609 100.782 618.609 97.3265H610.973C610.973 101.914 611.459 104.121 612.639 105.369C614.498 107.294 618.409 108.256 623.41 108.256C628.411 108.256 632.219 107.294 633.981 105.369C635.254 104.066 635.84 101.572 635.84 99.9856C635.84 96.4746 634.078 94.7191 630.553 93.1325H630.546ZM612.446 67.5584C612.446 65.5891 612.256 64.7992 611.77 64.3267C611.194 63.7749 609.838 63.5369 608.483 63.5369C607.031 63.5369 605.772 63.7749 605.186 64.3267C604.703 64.7992 604.51 65.5891 604.51 67.5584C604.51 69.5278 604.706 70.3176 605.186 70.7901C605.769 71.3419 607.124 71.5799 608.483 71.5799C609.935 71.5799 611.194 71.3419 611.77 70.7901C612.256 70.3176 612.446 69.5278 612.446 67.5584Z" fill="#B2B2B2"></path><path d="M506.404 72.7285C506.397 72.6906 506.393 72.6526 506.387 72.6181C506.369 72.525 506.352 72.4388 506.335 72.3491C506.314 72.2456 506.297 72.1387 506.276 72.0353C506.269 72.0077 506.262 71.9766 506.255 71.9456C505.404 67.8999 503.71 66.0513 501.434 64.7579C501.427 64.7545 501.423 64.7545 501.417 64.751C501.41 64.751 501.403 64.7441 501.399 64.7407L501.396 64.7372L499.92 63.9371L492.925 60.1363C492.373 59.819 491.887 59.4776 491.47 59.0637C491.439 59.0223 491.411 58.9844 491.377 58.9499C491.352 58.9292 491.328 58.9119 491.304 58.8912C489.904 57.3702 489.287 54.8283 489.269 48.8754C489.259 44.9953 489.459 42.2086 489.88 40.3461C490.011 39.746 490.19 39.1631 490.411 38.6009L500.492 44.4607C500.492 44.4607 500.496 44.4607 500.499 44.4642C500.513 44.4711 500.53 44.4745 500.544 44.4814C500.682 44.5539 500.834 44.5953 500.985 44.5953C501.154 44.5953 501.323 44.5504 501.475 44.4607L506.28 41.6843C506.587 41.5084 506.773 41.1842 506.769 40.8324C506.69 31.3443 506.18 30.182 505.331 28.254L505.169 27.885C504.665 26.7089 503.938 25.8363 503 25.2879C502.993 25.281 502.986 25.2741 502.975 25.2707L483.996 14.2409C481.313 12.6819 477.684 14.1236 475.111 15.6067C472.483 17.1208 470.424 18.8177 468.793 20.8491C467.168 22.8874 465.975 25.2603 465.089 28.1333C464.147 31.1891 463.495 36.3315 463.505 40.6324C463.533 50.1791 465.13 54.9973 469.027 57.2599L479.481 63.337C480.685 64.7096 481.123 66.8928 481.133 71.5558C481.147 76.1533 480.968 79.0056 480.53 81.0922C480.499 81.2233 480.464 81.3544 480.433 81.4854L469.91 75.367C469.607 75.1911 469.234 75.1911 468.931 75.367L464.113 78.1503H464.109C464.081 78.1675 464.057 78.1917 464.033 78.2124C463.988 78.2434 463.944 78.271 463.909 78.3089C463.881 78.3331 463.861 78.3676 463.84 78.3986C463.809 78.4331 463.778 78.4676 463.754 78.509C463.733 78.5435 463.726 78.5814 463.709 78.6159C463.692 78.6573 463.668 78.6987 463.657 78.7435C463.647 78.7814 463.647 78.8228 463.64 78.8608C463.637 78.9056 463.623 78.9504 463.623 78.9953H463.619V79.0022C463.695 89.318 464.195 91.4323 465.327 93.8017C465.892 94.9502 466.654 95.8125 467.596 96.3574L486.548 107.373C486.548 107.373 486.558 107.377 486.562 107.38C486.576 107.387 486.586 107.394 486.6 107.401C486.61 107.408 486.62 107.415 486.634 107.422C486.707 107.463 486.779 107.501 486.841 107.532C486.893 107.556 486.945 107.577 487 107.601C487.052 107.625 487.107 107.653 487.162 107.677C487.283 107.725 487.403 107.77 487.524 107.811C487.538 107.815 487.555 107.818 487.569 107.825C487.593 107.832 487.614 107.842 487.634 107.849C487.669 107.86 487.703 107.867 487.735 107.873C487.759 107.88 487.779 107.887 487.803 107.894C487.855 107.911 487.907 107.925 487.962 107.936H487.966C488.176 107.984 488.393 108.022 488.614 108.046C488.624 108.046 488.631 108.049 488.642 108.049C488.866 108.074 489.093 108.091 489.328 108.091C489.387 108.091 489.445 108.084 489.5 108.08C489.607 108.077 489.718 108.074 489.825 108.067C489.907 108.06 489.99 108.056 490.076 108.046C490.232 108.029 490.39 108.008 490.549 107.984C490.628 107.97 490.711 107.956 490.794 107.939C490.825 107.932 490.856 107.929 490.887 107.922C491.018 107.898 491.149 107.867 491.29 107.832C491.387 107.808 491.484 107.78 491.58 107.753C491.632 107.739 491.68 107.729 491.735 107.711C491.839 107.684 491.939 107.653 492.046 107.618C492.132 107.591 492.218 107.556 492.308 107.529C492.408 107.491 492.511 107.46 492.611 107.422C492.649 107.408 492.684 107.391 492.722 107.377C492.825 107.335 492.932 107.294 493.036 107.249C493.194 107.187 493.349 107.118 493.505 107.049C493.581 107.015 493.66 106.98 493.736 106.946C493.787 106.922 493.839 106.901 493.887 106.877C494.022 106.811 494.153 106.742 494.281 106.677C494.353 106.639 494.426 106.604 494.498 106.566C494.532 106.549 494.567 106.535 494.601 106.515C494.829 106.394 495.05 106.27 495.281 106.142C500.265 103.262 503.479 99.1959 505.104 93.7189C505.949 91.0184 506.504 86.8348 506.738 83.1168C506.828 81.7165 506.873 80.3783 506.869 79.216C506.862 76.6017 506.697 74.4806 506.393 72.7285H506.404ZM498.571 32.617C498.616 32.6515 498.654 32.6929 498.692 32.7377C498.713 32.7549 498.73 32.7756 498.744 32.7963C498.768 32.8239 498.788 32.8515 498.806 32.8791C498.806 32.8791 498.813 32.8791 498.813 32.886C498.833 32.9136 498.847 32.9377 498.868 32.9653C498.875 32.9722 498.878 32.9791 498.882 32.986C498.902 33.0205 498.923 33.0515 498.944 33.086C498.954 33.1102 498.968 33.1343 498.982 33.155C498.988 33.1723 498.999 33.1895 499.006 33.2068C499.02 33.2343 499.033 33.2619 499.047 33.293C499.051 33.3033 499.054 33.3137 499.061 33.324C499.075 33.3551 499.089 33.3861 499.106 33.4344C499.168 33.5896 499.22 33.7517 499.261 33.9241C499.351 34.3139 499.433 34.6622 499.502 35.0071C499.502 35.0106 499.506 35.014 499.506 35.0209C499.516 35.0692 499.527 35.1209 499.537 35.1727C499.54 35.1899 499.544 35.2072 499.547 35.2244C499.554 35.2658 499.561 35.3037 499.568 35.3451C499.575 35.3727 499.578 35.4003 499.585 35.4244C499.589 35.4589 499.596 35.4934 499.602 35.5245C499.609 35.5762 499.62 35.6245 499.627 35.6762C499.63 35.69 499.633 35.7038 499.633 35.7176C499.644 35.7762 499.654 35.8349 499.664 35.8935C499.668 35.9176 499.671 35.9418 499.675 35.9659C499.678 36.0039 499.685 36.0453 499.692 36.0832C499.696 36.1177 499.699 36.1487 499.706 36.1832C499.709 36.2143 499.713 36.2453 499.716 36.2763C499.723 36.3177 499.727 36.3557 499.733 36.397C499.737 36.4212 499.74 36.4453 499.74 36.4729C499.747 36.5178 499.754 36.5661 499.758 36.6143C499.761 36.6316 499.761 36.6488 499.765 36.6695C499.771 36.7247 499.778 36.7799 499.782 36.8351C499.782 36.8454 499.785 36.8558 499.785 36.8661C499.896 37.9801 499.954 39.4528 499.985 41.8947L491.287 36.8385C492.225 35.3072 493.525 34.0173 495.081 33.1205C496.409 32.3549 497.526 32.0962 498.226 32.3928C498.344 32.4411 498.454 32.5101 498.557 32.5997C498.561 32.6032 498.568 32.6066 498.571 32.6135V32.617ZM470.007 55.5664C466.803 53.704 465.489 49.3755 465.465 40.6255C465.454 36.5005 466.068 31.5961 466.958 28.7093C468.569 23.4772 471.3 20.0627 476.091 17.3001C477.384 16.5517 479.502 15.517 481.313 15.517C481.926 15.517 482.506 15.6377 483.006 15.9274L498.344 24.843C498.226 24.8706 498.106 24.9051 497.985 24.9361C497.968 24.9396 497.95 24.9465 497.933 24.9499C497.771 24.9948 497.602 25.0465 497.433 25.1017C497.43 25.1017 497.426 25.1051 497.423 25.1051C497.388 25.1155 497.357 25.1258 497.323 25.1362C497.24 25.1638 497.161 25.1948 497.081 25.2224C496.992 25.2569 496.902 25.2879 496.812 25.3224C496.736 25.35 496.66 25.381 496.585 25.4121C496.478 25.4535 496.371 25.4949 496.264 25.5397C496.226 25.5569 496.188 25.5707 496.15 25.588C496.095 25.6121 496.043 25.6363 495.988 25.6604C495.943 25.6811 495.895 25.7018 495.846 25.7225C495.757 25.7639 495.667 25.8087 495.577 25.8501C495.305 25.9777 495.043 26.1122 494.788 26.2467C494.774 26.2536 494.76 26.2605 494.746 26.2674C494.522 26.3881 494.301 26.5089 494.091 26.6296C494.005 26.6813 493.925 26.7296 493.839 26.7813C493.653 26.8917 493.463 27.0055 493.28 27.1159C493.132 27.2124 492.984 27.3056 492.836 27.4021C492.78 27.4366 492.722 27.4746 492.667 27.5091C492.615 27.547 492.563 27.5815 492.508 27.616C492.325 27.7401 492.146 27.8643 491.97 27.9885C491.822 28.0919 491.677 28.1954 491.535 28.2989C491.401 28.3989 491.27 28.4989 491.142 28.5989C491.046 28.6748 490.949 28.7472 490.856 28.8231C490.649 28.9887 490.449 29.1577 490.252 29.3267C490.163 29.4025 490.076 29.475 489.99 29.5508C489.866 29.6647 489.742 29.775 489.621 29.8888C489.552 29.9544 489.487 30.0199 489.418 30.0854C489.207 30.2889 489.004 30.4959 488.804 30.7062C488.748 30.7614 488.693 30.8201 488.642 30.8787C488.255 31.296 487.89 31.7306 487.541 32.1824C487.521 32.2134 487.497 32.241 487.476 32.2721C487.117 32.7446 486.783 33.2343 486.465 33.7448C486.465 33.7482 486.462 33.7517 486.462 33.7551C486.269 34.069 486.082 34.3898 485.907 34.7174C485.886 34.7588 485.862 34.7967 485.841 34.8381C485.831 34.8519 485.824 34.8692 485.817 34.8864C485.672 35.1554 485.534 35.4313 485.403 35.7142C485.372 35.7797 485.337 35.8452 485.306 35.9107C485.196 36.1556 485.086 36.4074 484.979 36.6592C484.937 36.7626 484.893 36.8627 484.848 36.9696C484.755 37.2007 484.665 37.4421 484.575 37.6835C484.53 37.8042 484.486 37.918 484.444 38.0422C484.317 38.4009 484.192 38.7699 484.079 39.1459C483.61 40.6669 483.213 42.7018 482.937 44.8919C482.934 44.9057 482.934 44.916 482.93 44.9298C482.916 45.0367 482.906 45.1436 482.892 45.2506C482.637 47.3648 482.492 49.5997 482.496 51.6484C482.496 51.9691 482.499 52.2865 482.502 52.6038C482.516 53.1487 482.527 53.6764 482.547 54.1834C482.564 54.649 482.585 55.0974 482.613 55.5354C482.613 55.5561 482.613 55.5768 482.616 55.6009C482.616 55.6216 482.616 55.6389 482.62 55.6595C482.623 55.7354 482.63 55.8113 482.637 55.9044C482.651 56.0941 482.665 56.2804 482.682 56.4666C482.685 56.5252 482.689 56.5839 482.696 56.6425C482.713 56.877 482.737 57.1047 482.758 57.3288C482.758 57.353 482.765 57.3771 482.765 57.4013C482.782 57.5668 482.799 57.7358 482.816 57.8979C482.865 58.2946 482.913 58.6774 482.971 59.0533L483.023 59.3913C483.051 59.55 483.075 59.7052 483.103 59.8363C483.165 60.1949 483.234 60.5433 483.309 60.8675C483.351 61.0537 483.396 61.2434 483.437 61.4055C483.475 61.5607 483.516 61.7159 483.561 61.8642C483.572 61.9091 483.585 61.9539 483.596 61.9953C483.63 62.1091 483.665 62.2195 483.699 62.3333C483.699 62.3402 483.699 62.3471 483.706 62.354C483.706 62.3678 483.713 62.3816 483.716 62.3954C483.727 62.4368 483.741 62.4747 483.754 62.5161C483.785 62.6092 483.816 62.7058 483.851 62.8024C483.872 62.8644 483.892 62.9265 483.916 62.9852C483.944 63.0645 483.972 63.1404 483.999 63.2128C484.072 63.4128 484.151 63.6129 484.234 63.806L470.017 55.5457L470.007 55.5664ZM468.582 94.6639C467.982 94.3156 467.479 93.7362 467.092 92.9498C466.158 90.9873 465.709 89.149 465.599 80.7094L482.609 90.5942V90.6976C482.613 90.877 482.613 91.0529 482.616 91.2288C482.616 91.3185 482.616 91.4081 482.62 91.4978C482.62 91.6702 482.623 91.8461 482.627 92.0151V92.1393C482.633 92.5014 482.64 92.8498 482.647 93.1878C482.647 93.2499 482.647 93.3154 482.651 93.3775C482.654 93.5292 482.658 93.6775 482.661 93.8224C482.661 93.9052 482.665 93.9879 482.665 94.0673C482.665 94.2087 482.671 94.3466 482.678 94.4846C482.678 94.5639 482.682 94.6398 482.685 94.7157C482.689 94.8536 482.692 94.9916 482.696 95.1227C482.699 95.164 482.699 95.2054 482.699 95.2503C482.709 95.5055 482.72 95.7538 482.727 95.9952C482.73 96.078 482.733 96.1608 482.737 96.2436C482.744 96.3505 482.747 96.454 482.754 96.5574C482.758 96.6402 482.761 96.7195 482.765 96.7989C482.768 96.9023 482.775 97.0023 482.778 97.1024C482.785 97.1817 482.789 97.261 482.792 97.3369C482.799 97.43 482.802 97.5231 482.809 97.6128C482.82 97.7646 482.827 97.9163 482.837 98.0612C482.844 98.1336 482.847 98.206 482.854 98.2819C482.861 98.3647 482.865 98.4475 482.871 98.5302C482.878 98.6061 482.885 98.6786 482.889 98.751C482.896 98.8269 482.902 98.9027 482.909 98.9786C482.916 99.0476 482.923 99.12 482.927 99.189C482.934 99.2649 482.944 99.3407 482.951 99.4166C482.958 99.4787 482.961 99.5408 482.968 99.5994C482.982 99.7236 482.996 99.8443 483.009 99.965C483.009 100.017 483.02 100.065 483.027 100.113C483.034 100.189 483.044 100.265 483.054 100.338C483.061 100.393 483.068 100.444 483.075 100.496C483.082 100.565 483.092 100.631 483.103 100.696C483.109 100.748 483.116 100.796 483.123 100.845C483.134 100.92 483.147 100.993 483.158 101.065C483.165 101.1 483.168 101.134 483.175 101.169C483.192 101.272 483.209 101.372 483.227 101.469C483.234 101.503 483.24 101.538 483.247 101.572C483.258 101.638 483.272 101.707 483.285 101.769C483.292 101.807 483.299 101.845 483.306 101.879C483.32 101.941 483.334 102.003 483.347 102.062C483.354 102.096 483.361 102.128 483.368 102.159C483.385 102.234 483.403 102.31 483.42 102.383C483.423 102.397 483.427 102.41 483.43 102.424C483.451 102.51 483.475 102.593 483.496 102.676L483.516 102.748C483.534 102.807 483.551 102.866 483.568 102.924C483.575 102.948 483.582 102.976 483.592 103C483.61 103.059 483.627 103.114 483.644 103.169C483.651 103.193 483.658 103.214 483.665 103.235C483.689 103.314 483.716 103.39 483.741 103.466L468.586 94.6571L468.582 94.6639ZM499.509 92.1186C498.92 94.9364 497.419 97.361 495.336 98.951C495.308 98.9717 495.281 98.9958 495.25 99.02C495.198 99.0579 495.146 99.089 495.098 99.1269C494.995 99.1993 494.891 99.2752 494.784 99.3476C494.743 99.3718 494.705 99.3959 494.663 99.4201C494.543 99.496 494.422 99.5718 494.301 99.6443C494.174 99.7167 494.053 99.7788 493.932 99.8409C493.77 99.9236 493.605 99.9995 493.443 100.068C493.191 100.169 492.953 100.244 492.725 100.293C492.68 100.303 492.635 100.31 492.594 100.32C492.532 100.331 492.47 100.341 492.411 100.348C492.356 100.355 492.304 100.358 492.249 100.362C492.201 100.365 492.153 100.365 492.104 100.369C492.056 100.369 492.008 100.369 491.959 100.365C491.87 100.362 491.784 100.351 491.704 100.334H491.694C491.604 100.317 491.518 100.289 491.435 100.258C491.421 100.251 491.408 100.244 491.39 100.237C491.346 100.22 491.301 100.196 491.256 100.172L491.235 100.162C491.235 100.162 491.215 100.151 491.204 100.144C490.766 99.8753 490.435 99.3718 490.214 98.6303C489.662 96.3746 489.435 95.4158 489.383 87.2383C489.383 87.1935 489.373 87.1521 489.366 87.1107C489.359 87.0693 489.359 87.0245 489.349 86.9865C489.338 86.9452 489.318 86.9107 489.304 86.8727C489.287 86.8313 489.273 86.7899 489.252 86.752C489.231 86.7175 489.204 86.6899 489.18 86.6589C489.152 86.6244 489.131 86.583 489.097 86.552C489.066 86.5209 489.028 86.4968 488.99 86.4692C488.959 86.4451 488.931 86.4175 488.897 86.3968H488.893L482.199 82.5063C482.292 82.1752 482.378 81.8372 482.451 81.4958C482.92 79.2677 483.113 76.2982 483.099 71.549C483.092 68.9208 482.965 66.8032 482.506 65.089L487.9 68.2207C488.024 68.2966 488.155 68.3724 488.286 68.4414L496.767 73.0527C496.826 73.0872 496.878 73.1182 496.933 73.1493C496.964 73.1665 496.992 73.1838 497.026 73.2045C497.178 73.2907 497.326 73.3838 497.454 73.4735C497.467 73.4838 497.495 73.5045 497.533 73.5287C497.574 73.5563 497.616 73.5873 497.657 73.6183C497.674 73.6356 497.692 73.6459 497.709 73.6597C497.764 73.6977 497.816 73.739 497.885 73.7942C498.071 73.946 498.233 74.0977 498.388 74.2702C498.454 74.3426 498.519 74.4116 498.582 74.4944C498.606 74.5185 498.626 74.5461 498.654 74.584C498.709 74.653 498.764 74.7289 498.823 74.8186C498.823 74.8186 498.826 74.8255 498.83 74.8289C498.847 74.8565 498.864 74.8807 498.882 74.9048C498.899 74.9358 498.92 74.9703 498.947 75.0152C498.988 75.0841 499.026 75.1531 499.054 75.2049C499.061 75.2187 499.068 75.229 499.071 75.2393C499.113 75.3187 499.154 75.4015 499.189 75.4739C499.192 75.4808 499.195 75.4877 499.199 75.4946C499.247 75.598 499.292 75.705 499.333 75.8153C499.34 75.8326 499.347 75.8498 499.354 75.8671C499.358 75.874 499.361 75.8843 499.364 75.8912C499.392 75.9671 499.42 76.043 499.447 76.1223C499.454 76.1395 499.458 76.1602 499.464 76.1809C499.475 76.2051 499.478 76.2258 499.489 76.2499C499.506 76.3085 499.527 76.3672 499.544 76.4327C499.544 76.4396 499.547 76.443 499.547 76.4499C499.571 76.5258 499.592 76.6051 499.613 76.6879C499.616 76.7052 499.62 76.7224 499.627 76.7397C499.64 76.7983 499.654 76.8569 499.671 76.9397C499.689 77.0156 499.706 77.0949 499.723 77.1777C499.733 77.2122 499.74 77.2501 499.747 77.288C499.758 77.3398 499.768 77.3915 499.778 77.4467C499.789 77.5122 499.799 77.5777 499.813 77.6433C499.82 77.695 499.83 77.7433 499.837 77.795C499.844 77.8399 499.851 77.8847 499.858 77.9295C499.868 78.0089 499.878 78.0882 499.892 78.1744V78.1848C500.044 79.3402 500.116 80.7715 500.12 82.5788C500.134 87.1659 499.951 90.0182 499.513 92.1152L499.509 92.1186Z" fill="#B2B2B2"></path></svg>