<svg xmlns="http://www.w3.org/2000/svg" width="149" height="149" viewBox="0 0 149 149" fill="none"><path d="M25.9535 106.83C25.4756 106.58 24.9407 106.44 24.3642 106.402H24.3566C24.3566 106.402 24.3566 106.402 24.3528 106.402C22.8471 106.307 21.0493 106.921 19.1946 108.199C14.465 111.465 10.6152 118.156 10.6152 123.113C10.6152 124.383 10.8694 125.464 11.3511 126.303C11.3511 126.306 11.3511 126.31 11.3549 126.314C11.3587 126.322 11.3624 126.325 11.37 126.333C11.7341 126.959 12.231 127.448 12.8455 127.767C13.4106 128.062 14.0554 128.21 14.7533 128.21C16.1945 128.21 17.8785 127.592 19.608 126.401C24.3376 123.132 28.1874 116.441 28.1874 111.484C28.1874 109.239 27.3947 107.585 25.9573 106.83H25.9535ZM19.6043 108.799C21.1973 107.699 22.7181 107.126 23.9963 107.115C24.0418 117.822 13.7785 124.467 11.8214 125.631C11.5066 124.952 11.3397 124.099 11.3397 123.113C11.3397 118.368 15.0453 111.947 19.6043 108.799ZM19.1908 125.798C16.8469 127.418 14.6584 127.899 13.1792 127.122C12.7923 126.917 12.4586 126.629 12.1931 126.261C14.2488 125.032 24.7322 118.216 24.7246 107.175H24.7321C25.0469 107.232 25.3428 107.331 25.6159 107.475C26.7992 108.097 27.4554 109.523 27.4554 111.484C27.4554 116.233 23.746 122.654 19.1908 125.798Z" fill="#F16C3F"></path><path d="M148.527 59.219L114.896 0.965098C114.851 0.881656 114.771 0.817178 114.676 0.794421C114.581 0.767871 114.483 0.783043 114.399 0.83235L78.9667 21.2908L42.3319 42.4434C42.2181 42.5079 42.1498 42.6254 42.1498 42.7582V94.6364L30.7106 101.08C30.3958 100.841 30.0621 100.633 29.7094 100.451C29.7018 100.451 29.698 100.443 29.6904 100.443L23.2388 96.749C23.216 96.7338 23.1895 96.7224 23.1592 96.7148C14.8643 94.2722 6.41005 106.379 6.0687 106.876C-4.09226 119.696 3.25824 130.786 3.33409 130.896C3.36444 130.941 3.40618 130.979 3.45549 131.006L7.75269 133.471C7.80958 133.505 7.87035 133.52 7.93483 133.52C7.97655 133.52 8.01441 133.513 8.05613 133.498C8.37852 133.744 8.71986 133.96 9.08018 134.146C10.1839 134.715 11.4355 134.996 12.7858 134.996C15.1487 134.996 17.8151 134.135 20.5042 132.458C27.1796 128.29 32.5275 120.067 33.817 112.629L42.1536 107.862V109.337C42.1536 109.466 42.2219 109.588 42.3357 109.652L109.597 148.487C109.654 148.521 109.719 148.536 109.78 148.536C109.844 148.536 109.909 148.521 109.962 148.487L148.398 126.295C148.512 126.231 148.58 126.109 148.58 125.98V59.4011C148.58 59.3404 148.565 59.2759 148.531 59.219H148.527ZM114.449 1.64401L147.715 59.2683L109.928 81.0846L79.6304 21.746L114.449 1.64401ZM42.1498 95.4746L42.878 95.0612L62.7714 83.8534L66.2949 85.9508L42.878 99.5708L42.1498 99.9956L33.4642 105.048C32.9901 103.648 32.2657 102.476 31.3099 101.581L42.1498 95.4746ZM84.1401 75.5054L79.877 77.9252V67.5253L84.1401 65.1813V75.5054ZM84.8683 71.356L88.1832 69.4293L91.7674 71.2422L84.8721 75.2399V71.3522L84.8683 71.356ZM79.5129 66.8919L75.7769 64.8058L80.2373 62.3367L83.7836 64.5479L79.5129 66.8919ZM79.1488 67.5215V77.91L75.6367 75.8202L75.4015 65.4316L79.1488 67.5215ZM75.2839 76.4574L78.9819 78.6572L72.371 82.4918V78.3424L75.2839 76.4612V76.4574ZM71.6428 82.909L67.3797 85.3288V74.9251L71.6428 72.5849V82.909ZM67.0193 74.2917L63.7461 72.4673L63.2758 72.2056L67.74 69.7365L71.2862 71.9515L67.0193 74.2917ZM65.7146 74.4017L66.6514 74.9251V85.3136L63.1354 83.2238L62.9041 72.8352L65.7146 74.4017ZM6.65281 107.312C6.73625 107.191 15.1412 95.1598 22.9127 97.4051L26.8268 99.6467C24.2704 99.4153 21.2969 100.272 18.2892 102.146C10.2901 107.137 4.1951 117.958 4.70334 126.265C4.84368 128.544 5.47321 130.471 6.52382 131.931L3.89163 130.422C3.30753 129.496 -2.77614 119.206 6.65281 107.312ZM20.1135 131.84C16.1121 134.34 12.2131 134.943 9.4102 133.498C7.05865 132.288 5.64393 129.701 5.43153 126.219C4.93467 118.148 10.878 107.627 18.676 102.757C21.2476 101.152 23.7774 100.329 26 100.329C27.2137 100.329 28.3364 100.576 29.3225 101.073H29.3301C29.3301 101.073 29.3301 101.08 29.3377 101.08C29.3529 101.084 29.3642 101.092 29.3794 101.099C29.7511 101.293 30.1 101.517 30.4224 101.774C30.4413 101.793 30.4566 101.809 30.4793 101.82C32.1709 103.204 33.1798 105.48 33.358 108.382C33.4339 109.637 33.3543 110.949 33.1419 112.292C33.1305 112.322 33.1267 112.356 33.1267 112.391C31.913 119.658 26.6675 127.748 20.1135 131.84ZM33.9573 111.704C34.0597 110.896 34.1128 110.103 34.1128 109.326C34.1128 108.992 34.1015 108.662 34.0825 108.336C34.0256 107.422 33.8928 106.561 33.6804 105.768L42.1498 100.857L42.878 100.432L72.1283 83.4741L72.1852 83.44H72.189L92.2909 71.7846V78.3424L77.825 86.6183L73.1182 89.3112L68.7374 91.8145C68.7374 91.8145 68.7261 91.8221 68.7223 91.8221L42.878 106.606L42.1498 107.024L33.9573 111.708V111.704ZM72.8679 99.5594L69.2988 97.6668V92.3303L72.9323 90.2519L72.8679 99.5594ZM73.6643 89.8347L75.208 88.9509L77.662 87.5476L78.0375 97.1662L73.5961 99.5519L73.6643 89.8347ZM42.878 107.445L68.5706 92.7475V97.8868C68.5706 98.0233 68.6464 98.1447 68.764 98.2092L73.0385 100.474L73.0575 100.485C73.0575 100.485 73.0878 100.496 73.0992 100.5C73.1144 100.508 73.1296 100.511 73.1448 100.515C73.1448 100.515 73.1486 100.515 73.1523 100.515C73.1789 100.519 73.2016 100.523 73.2244 100.523C73.2547 100.523 73.2851 100.519 73.3116 100.511H73.3154C73.3154 100.511 73.323 100.508 73.3268 100.504H73.342C73.342 100.504 73.3609 100.489 73.3723 100.485C73.3874 100.477 73.3989 100.474 73.414 100.466L78.5761 97.6972C78.6975 97.6327 78.7733 97.5037 78.7695 97.3634L78.3675 87.1342L92.8295 78.862C92.9432 78.7975 93.0115 78.6762 93.0115 78.5472V71.3105C93.0115 71.3105 93.0115 71.3067 93.0115 71.3029V71.1398C93.0115 71.0109 92.9432 70.8895 92.8295 70.825C92.7346 70.7682 92.6171 70.7606 92.5147 70.8061L88.3236 68.6859C88.2136 68.629 88.0846 68.6328 87.9746 68.6973L84.8569 70.5102V64.5745C84.8569 64.529 84.8532 64.4872 84.8343 64.4455C84.8191 64.3962 84.7924 64.3507 84.7583 64.3128C84.7356 64.2938 84.7128 64.271 84.6863 64.2559H84.6787L80.4307 61.6009C80.317 61.5326 80.1766 61.5288 80.0629 61.5895L74.8363 64.4797C74.8363 64.4797 74.8287 64.4834 74.8249 64.4872C74.8212 64.4872 74.8174 64.491 74.8174 64.491C74.7908 64.51 74.7681 64.5252 74.7491 64.5479C74.7263 64.5707 74.7111 64.5934 74.6998 64.6162C74.6808 64.6427 74.6695 64.6731 74.6619 64.7034C74.6543 64.7262 74.6505 64.7489 74.6505 64.7755C74.6505 64.7831 74.6505 64.7907 74.6505 64.7982V64.8058L74.9008 75.8316L72.3634 77.4701V71.9781C72.3634 71.9325 72.3596 71.8908 72.3406 71.8491C72.3255 71.7998 72.2989 71.7543 72.2648 71.7163C72.242 71.6974 72.2193 71.6746 72.1927 71.6595L72.17 71.6443L67.9372 69.0045C67.8234 68.9324 67.6831 68.9286 67.5655 68.9931L62.3428 71.8832C62.3428 71.8832 62.3352 71.887 62.3314 71.8908C62.2973 71.9098 62.2669 71.9363 62.2442 71.9629C62.2063 72.0046 62.1797 72.0539 62.1646 72.107C62.157 72.1374 62.1532 72.1677 62.1532 72.2018V72.2094L62.4035 83.2162L42.8704 94.2229V42.9668L78.9932 22.1101L80.8935 25.8308L109.404 81.6839V147.542L42.8704 109.125V107.445H42.878ZM147.848 125.772L110.14 147.542V81.8053L119.569 76.3626L147.848 60.0345V125.772Z" fill="#F16C3F"></path></svg>