<svg xmlns="http://www.w3.org/2000/svg" width="137" height="179" viewBox="0 0 137 179" fill="none"><path d="M59.1345 55.5297C59.3583 55.6966 59.5858 55.8521 59.8134 56.0038C60.2837 56.3149 60.7577 56.5955 61.2394 56.8458C62.2597 57.3806 63.261 57.7561 64.2357 57.9723C64.6378 58.0595 65.0361 58.124 65.4267 58.1544C65.6695 58.1771 65.9085 58.1885 66.1436 58.1885C67.509 58.1885 68.7531 57.8358 69.8416 57.1455C70.9643 56.4324 71.8858 55.378 72.5647 54.0316C72.7506 53.6675 72.9176 53.2806 73.0655 52.8748C73.2286 52.4424 73.3652 51.9872 73.4828 51.5093C73.7596 50.3791 73.9113 49.154 73.9341 47.8493C73.9455 47.5648 73.9416 47.2728 73.9378 46.9807C73.934 46.829 73.9302 46.6773 73.9226 46.5218C73.9074 46.1425 73.881 45.7594 73.8469 45.3839C73.0314 36.3532 67.0653 26.4843 60.2647 22.9153C59.9234 22.737 59.5821 22.5739 59.2521 22.4336C57.9094 21.8647 56.5971 21.5764 55.3644 21.5764C53.999 21.5764 52.755 21.9291 51.6664 22.6194C49.057 24.2731 47.5625 27.8156 47.5625 32.3366C47.5625 32.6325 47.5663 32.9397 47.5777 33.2431C47.9304 41.5987 52.9294 51.0125 59.1345 55.5297ZM59.9764 23.9431C59.9802 23.9052 60.0067 23.8711 60.0408 23.8559C60.056 23.8483 60.0751 23.8445 60.0903 23.8445C60.113 23.8445 60.1319 23.8521 60.1508 23.8597C66.8869 27.5842 72.6709 37.768 73.0388 46.5559C73.0502 46.8707 73.0579 47.1817 73.0579 47.489C73.0579 47.7962 73.0502 48.0806 73.0312 48.3689C73.0123 48.843 72.9707 49.3057 72.9138 49.7533C72.9062 49.795 72.8834 49.8291 72.8455 49.8443C72.8303 49.8519 72.8114 49.8557 72.7962 49.8557C72.7697 49.8557 72.7469 49.8519 72.7279 49.8367C72.3979 49.6167 72.0679 49.3778 71.7341 49.1199C71.5255 48.9606 71.317 48.7899 71.1047 48.6192C65.4154 43.882 59.6881 34.3999 59.6843 26.5943C59.6843 25.8244 59.7792 24.9558 59.9764 23.9431ZM48.8294 35.8488C48.8105 35.8488 48.7952 35.8488 48.78 35.8374C48.7496 35.826 48.7232 35.7957 48.7118 35.7578V35.7426C48.5829 34.8778 48.4995 34.0282 48.4653 33.2052C48.2719 28.559 49.6107 24.971 52.1406 23.3666C53.0812 22.7712 54.1659 22.4677 55.3644 22.4677C56.563 22.4677 57.7956 22.7598 59.0965 23.3363C59.1458 23.3552 59.1762 23.4159 59.1649 23.469C58.9183 24.6676 58.8008 25.6916 58.8008 26.5943C58.8008 27.6866 58.9068 28.8397 59.1154 30.0496C59.1154 30.0913 59.0889 30.133 59.051 30.152L48.8863 35.8336C48.8863 35.8336 48.8484 35.8488 48.8294 35.8488ZM48.9659 36.7705L59.1649 31.0736C59.1838 31.0661 59.2028 31.0585 59.2217 31.0585C59.2369 31.0585 59.2521 31.0585 59.2673 31.066C59.2976 31.0812 59.3241 31.1078 59.3393 31.1533C60.8071 37.6618 65.2826 44.8719 70.2777 49.0971C70.4826 49.2716 70.6912 49.4423 70.8998 49.6016C71.4801 50.0605 72.0641 50.4777 72.652 50.8456C72.6937 50.8722 72.7165 50.9253 72.7051 50.9746C72.4889 51.9569 72.1817 52.8406 71.7873 53.6144C71.537 54.1188 71.2449 54.5739 70.9187 54.9836C70.4674 55.5525 69.9478 56.0304 69.3675 56.3983C68.6583 56.8496 67.8655 57.1341 67.0007 57.2441C66.72 57.282 66.4356 57.301 66.1397 57.301C65.9159 57.301 65.6885 57.2896 65.4571 57.2706C64.2472 57.1569 62.969 56.7548 61.6491 56.0645C61.3229 55.8938 61.0005 55.708 60.6781 55.5032C60.4429 55.3591 60.2078 55.2074 59.9764 55.0443C54.8333 51.4563 50.3238 44.1778 48.9091 36.8994C48.8977 36.8463 48.9204 36.797 48.9659 36.7705Z" fill="#F16C3F"></path><path d="M136.072 78.1842C136.072 78.1842 136.065 78.1653 136.061 78.1539C136.042 78.116 136.019 78.0818 135.989 78.0515C135.966 78.0249 135.94 78.006 135.909 77.9908L94.8748 54.297C95.4058 52.082 95.6827 49.6281 95.6827 47.0224C95.6827 46.5104 95.6714 45.9756 95.6486 45.3839C94.9469 28.5665 83.8529 9.37867 70.9156 2.60849C67.8776 1.0193 64.9267 0.211426 62.1466 0.211426C59.9506 0.211426 57.929 0.723456 56.1312 1.72855C56.1123 1.73235 56.097 1.73993 56.0781 1.75131L44.8285 8.40392L44.1344 8.81354C44.1154 8.82492 44.0966 8.84388 44.0814 8.86285C44.0739 8.87423 44.0624 8.88181 44.0511 8.8894C39.2532 12.1436 36.7119 19.02 37.076 27.7511C37.1746 30.0533 37.4743 32.4845 37.975 34.984C38.4794 37.4835 39.1735 39.9943 40.0382 42.4559L40.9257 44.834C41.3315 45.8504 41.7678 46.8631 42.2191 47.8379L48.2308 61.8258L1.01016 89.0848C0.983606 89.1 0.956982 89.1227 0.934225 89.1455C0.903883 89.1758 0.881148 89.2137 0.862184 89.2517C0.858391 89.2593 0.850791 89.2706 0.846998 89.282C0.831827 89.3237 0.824219 89.3654 0.824219 89.411V144.889C0.824219 144.889 0.828108 144.908 0.828108 144.919C0.831901 144.953 0.835619 144.983 0.846998 145.014C0.854584 145.033 0.865895 145.048 0.873481 145.067C0.888652 145.09 0.900075 145.112 0.919039 145.131C0.934211 145.15 0.953138 145.165 0.975894 145.181C0.987273 145.192 0.994985 145.203 1.01016 145.211L58.6647 178.497C58.6647 178.497 58.6799 178.504 58.6875 178.508C58.6989 178.516 58.714 178.519 58.7292 178.523C58.7633 178.538 58.8013 178.546 58.8355 178.546C58.8431 178.546 58.8469 178.55 58.8507 178.55C58.8582 178.55 58.862 178.546 58.8658 178.546C58.9038 178.546 58.9417 178.538 58.9758 178.523C58.991 178.519 59.0023 178.516 59.0175 178.508C59.0251 178.508 59.0327 178.508 59.0403 178.497L73.2671 170.289L77.1623 172.538C77.1623 172.538 77.1813 172.546 77.1927 172.55C77.2041 172.553 77.2117 172.557 77.2231 172.561C77.2648 172.576 77.3102 172.588 77.352 172.588C77.3975 172.588 77.4393 172.576 77.481 172.561C77.4924 172.557 77.4998 172.553 77.5112 172.55C77.5491 172.531 77.5872 172.508 77.6175 172.478C77.6175 172.478 77.6212 172.478 77.6212 172.474C77.644 172.451 77.6629 172.428 77.6781 172.402C77.6819 172.394 77.6819 172.386 77.6857 172.379C77.6971 172.356 77.7009 172.333 77.7085 172.307C77.716 172.284 77.7236 172.258 77.7236 172.235C77.7236 172.227 77.7275 172.22 77.7275 172.212V167.71L121.311 142.548L125.21 144.801C125.21 144.801 125.221 144.805 125.225 144.805C125.244 144.816 125.259 144.82 125.278 144.828C125.308 144.839 125.339 144.843 125.369 144.847C125.377 144.847 125.384 144.851 125.396 144.851C125.403 144.851 125.411 144.847 125.418 144.847C125.452 144.847 125.487 144.839 125.517 144.828C125.532 144.82 125.547 144.816 125.559 144.809C125.597 144.794 125.631 144.771 125.657 144.744C125.661 144.741 125.665 144.737 125.665 144.733C125.688 144.714 125.707 144.688 125.722 144.661C125.726 144.653 125.726 144.646 125.729 144.642C125.741 144.619 125.744 144.596 125.752 144.574C125.76 144.547 125.767 144.521 125.767 144.494C125.767 144.487 125.767 144.483 125.767 144.475V139.969L131.256 136.806C131.256 136.806 131.282 136.787 131.297 136.776L135.905 134.117C135.905 134.117 135.925 134.102 135.932 134.094C135.959 134.075 135.981 134.056 136.004 134.033C136.016 134.018 136.027 133.999 136.035 133.984C136.05 133.961 136.061 133.935 136.072 133.908C136.08 133.886 136.08 133.867 136.084 133.84C136.088 133.825 136.095 133.81 136.095 133.791V78.317C136.095 78.2715 136.084 78.2259 136.069 78.1842H136.072ZM134.969 78.317L131.055 80.5775L93.2933 58.7764L93.4714 58.4312C93.4866 58.4085 93.4942 58.3819 93.4942 58.3554C93.4942 58.3402 93.4981 58.325 93.5057 58.3098C93.9684 57.3085 94.3628 56.2162 94.6776 55.0518L134.969 78.317ZM93.8887 54.5967C93.5322 55.9431 93.0733 57.191 92.5119 58.325C92.4475 58.454 92.383 58.5829 92.3147 58.7119L92.1706 58.9888C91.8672 59.5349 91.5296 60.0621 91.192 60.5324L77.1092 83.5776C76.764 84.2338 76.0701 84.8899 75.7287 85.144L66.7093 90.6285C66.6903 90.6398 66.6676 90.6474 66.6448 90.6474C66.6145 90.6474 66.5842 90.6323 66.5615 90.6095C66.5236 90.5716 66.516 90.5109 66.5463 90.4654L80.7049 67.6629C81.1108 67.094 81.4899 66.4872 81.8654 65.8007L82.2865 64.9435C83.4319 62.4592 84.1336 59.516 84.3726 56.1935C84.3726 56.1517 84.3952 56.1176 84.4331 56.0948L85.8138 55.3249L86.5762 54.8963L90.5587 52.6737L91.3209 52.2489L94.4311 50.5118C94.4311 50.5118 94.469 50.4966 94.488 50.4966C94.5107 50.4966 94.5335 50.5042 94.5524 50.5156C94.5904 50.5421 94.6094 50.5839 94.6056 50.6294C94.488 51.7483 94.3098 52.8216 94.0746 53.8381C94.0177 54.096 93.9569 54.3501 93.8887 54.5967ZM49.471 6.68956L56.1425 2.74124C56.1767 2.72986 56.2259 2.69952 56.3662 2.61607C58.073 1.61098 60.0188 1.10274 62.1466 1.10274C64.7864 1.10274 67.5969 1.87268 70.506 3.3936C76.6466 6.60612 82.5519 12.7543 87.1336 20.6964C91.723 28.6462 94.431 37.4228 94.761 45.418C94.8178 46.7645 94.8027 48.0654 94.7193 49.2943C94.7193 49.3398 94.6965 49.3778 94.6585 49.4005L90.4563 51.7483L89.6938 52.1731L85.7113 54.3957L84.9491 54.8242L84.6152 55.0101C84.6152 55.0101 84.5811 55.0253 84.5583 55.0253C84.5393 55.0253 84.5167 55.0177 84.4977 55.0063C84.4598 54.9835 84.4369 54.9418 84.4407 54.9001C84.4445 54.7787 84.4483 54.6611 84.4483 54.536C84.4559 54.2553 84.4598 53.9671 84.4598 53.675C84.4598 53.1364 84.4483 52.5789 84.4255 52.0138C84.3838 51.0163 84.3081 50.0112 84.1905 48.9985C84.1602 48.6875 84.1222 48.3764 84.0805 48.0654C81.9982 32.2949 71.6325 15.4851 59.6964 9.24213C56.647 7.64915 53.6963 6.84127 50.9237 6.84127C50.4572 6.84127 49.9943 6.86403 49.5316 6.90955C49.4823 6.90955 49.4367 6.8792 49.4216 6.8299C49.4026 6.7768 49.4255 6.71611 49.471 6.68956ZM43.0269 47.4776C42.568 46.4838 42.1356 45.4749 41.7411 44.4736L41.6919 44.3636C39.4731 38.7465 38.1835 32.989 37.9635 27.7132C37.6032 19.0921 40.1066 12.4319 44.8324 9.43556C44.9045 9.38626 44.9802 9.34074 45.0598 9.29902C45.4505 9.05628 45.8641 8.84388 46.2851 8.65804C47.6998 8.03981 49.2623 7.7288 50.9198 7.7288C53.552 7.7288 56.3663 8.50253 59.2868 10.0272C70.8208 16.0616 80.8603 32.1963 83.1056 47.5041C83.1511 47.8189 83.1929 48.1337 83.2308 48.4447C83.3863 49.6546 83.4888 50.8607 83.5381 52.0517C83.5532 52.4234 83.5646 52.7951 83.5684 53.1592C83.5722 53.4512 83.576 53.7395 83.5684 54.024C83.5305 58.4502 82.6847 62.3302 81.0955 65.3417L81.0538 65.429C80.7201 66.051 80.371 66.6161 79.969 67.1661L65.4653 90.5261L65.4046 90.6816C65.3097 91.0874 65.0935 91.6146 64.6004 91.846C64.4487 91.9142 64.2819 91.9522 64.1075 91.9522C64.0733 91.9522 64.0354 91.9484 63.9974 91.9446C63.7282 91.9256 63.44 91.8346 63.1328 91.6753C61.8546 91.0077 60.6712 89.2972 60.1781 87.397L51.155 66.3961L50.8554 65.6983L49.2966 62.0723L49.0006 61.3782L43.0269 47.4776ZM48.5265 62.5199L50.0853 66.142L5.86878 91.6715L1.95077 89.411L48.5265 62.5199ZM58.4751 177.522L1.57519 144.669V112.255L9.1799 116.643V124.931C9.1799 124.931 9.18361 124.946 9.18361 124.957C9.1874 124.969 9.18741 124.98 9.1912 124.991C9.19879 125.007 9.20269 125.014 9.21028 125.026C9.21407 125.037 9.22158 125.045 9.22917 125.052C9.23675 125.063 9.24816 125.071 9.25954 125.082C9.26712 125.086 9.27084 125.09 9.27843 125.094L19.3711 130.741C19.3711 130.741 19.3711 130.745 19.3787 130.745C19.4014 130.757 19.4318 130.768 19.4622 130.768C19.4925 130.768 19.5192 130.757 19.5457 130.745C19.5533 130.741 19.557 130.738 19.5646 130.73C19.5836 130.719 19.6025 130.7 19.6139 130.681L19.6253 130.669C19.6253 130.669 19.6253 130.669 19.629 130.662C19.6328 130.65 19.6367 130.639 19.6405 130.624C19.6443 130.612 19.6479 130.601 19.6479 130.59V122.689L23.6798 125.014V133.544C23.6798 133.544 23.6835 133.559 23.6835 133.571C23.6835 133.582 23.6874 133.594 23.6911 133.605C23.6949 133.616 23.6987 133.628 23.7063 133.639C23.7139 133.65 23.7176 133.658 23.7252 133.666C23.7366 133.677 23.7442 133.685 23.7556 133.692C23.7632 133.7 23.7671 133.704 23.7747 133.707L33.8673 139.355C33.8673 139.355 33.8711 139.355 33.8749 139.359C33.9015 139.37 33.9281 139.381 33.9584 139.381C33.9888 139.381 34.0191 139.37 34.0457 139.359C34.0494 139.355 34.057 139.347 34.0645 139.343C34.0835 139.332 34.0986 139.313 34.1138 139.294C34.1138 139.29 34.1214 139.287 34.1214 139.283C34.1214 139.283 34.1228 139.28 34.1253 139.275C34.1253 139.275 34.1328 139.249 34.1366 139.237C34.1404 139.226 34.1442 139.214 34.1442 139.203C34.1442 139.203 34.1481 139.196 34.1481 139.192V131.06L58.4751 145.105V177.522ZM9.5553 124.821V116.863L19.2725 122.473V130.26L9.5553 124.821ZM24.0552 133.434V125.23L33.7725 130.84V138.869L24.0552 133.434ZM58.4751 144.236L1.57519 111.383V90.0633L5.67525 92.4301C5.67525 92.4301 5.68664 92.4301 5.69044 92.4376L58.4751 122.913V144.236ZM63.2806 175.182L59.2299 177.522V145.105L63.2806 142.765V175.182ZM72.8878 169.637L64.0315 174.749V142.332L72.8878 137.219V169.637ZM72.8878 136.351L59.2299 144.236V122.913L72.8878 115.028V136.351ZM58.8507 122.261L6.62346 92.1077L50.385 66.8399L59.3475 87.7004C59.8672 89.7637 61.2249 91.6753 62.7231 92.4604C63.201 92.7107 63.6637 92.8359 64.0999 92.8359C64.3236 92.8359 64.5399 92.8018 64.7523 92.7335C64.7675 92.7297 64.7826 92.7259 64.8168 92.7107C64.8699 92.6918 64.9228 92.6728 64.9721 92.65C65.1428 92.5704 65.3021 92.468 65.4614 92.3352L75.6831 86.2781C75.7931 86.2326 75.9032 86.1681 76.0208 86.0847C76.4986 85.7547 77.0714 85.0568 77.4355 84.3627L91.9278 61.0293C92.2692 60.5514 92.6295 59.9863 92.9405 59.4363L130.303 81.0099L58.8507 122.261ZM77.7275 135.68V128.731L83.1399 141.524L80.6555 142.958L77.7275 135.68ZM80.0941 143.572V145.624L77.7275 144.259V137.697L80.0941 143.572ZM77.7275 127.764V123.463L80.151 122.063L87.3498 139.093L83.466 141.335L77.7275 127.764ZM80.4773 121.874L84.3611 119.632L91.5637 136.662L87.6798 138.903L80.4773 121.874ZM84.6911 119.443L88.4043 117.296L95.6067 134.329L91.8937 136.472L84.6911 119.443ZM88.7304 117.106L92.7849 114.766L99.9876 131.796L95.9331 134.14L88.7304 117.106ZM93.1149 114.576L96.9002 112.392L104.103 129.421L100.318 131.606L93.1149 114.576ZM97.2263 112.202L101.209 109.904L108.411 126.933L104.429 129.232L97.2263 112.202ZM101.539 109.714L105.423 107.469L112.625 124.502L108.741 126.744L101.539 109.714ZM105.753 107.279L109.636 105.037L116.835 122.071L112.955 124.312L105.753 107.279ZM109.963 104.848L113.847 102.606L121.049 119.636L117.165 121.881L109.963 104.848ZM114.177 102.417L118.06 100.175L125.263 117.205L121.379 119.446L114.177 102.417ZM118.386 99.9853L121.121 98.4037L125.047 108.151C125.047 108.151 125.05 108.166 125.054 108.174L128.047 115.597L125.589 117.015L118.386 99.9853ZM125.02 106.069L121.682 97.7893V87.287L125.02 89.2137V106.069ZM76.9766 171.56L73.6427 169.637V115.028L76.9766 116.954V171.56ZM77.7199 116.689C77.7161 116.662 77.7123 116.64 77.7048 116.613C77.6972 116.59 77.6858 116.571 77.6744 116.549C77.6592 116.53 77.6479 116.511 77.6327 116.492C77.6175 116.473 77.5948 116.458 77.5759 116.439C77.5645 116.431 77.553 116.416 77.5416 116.408L74.018 114.375L120.931 87.2908V97.6452L113.797 101.764C113.767 101.76 113.733 101.764 113.702 101.776C113.653 101.795 113.619 101.832 113.6 101.878L77.7275 122.591V116.734C77.7275 116.734 77.7199 116.704 77.7199 116.689ZM101.903 152.884L77.7275 166.841V145.127L80.2801 146.603C80.3408 146.637 80.4053 146.652 80.4697 146.652C80.5342 146.652 80.5987 146.637 80.6594 146.603L101.903 134.333V152.884ZM120.931 141.9L102.278 152.668V134.117L120.931 123.349V141.9ZM125.02 143.823L121.682 141.896V122.913L125.02 120.986V143.823ZM80.8451 145.624V143.72L128.138 116.412V118.316L80.8451 145.624ZM125.771 139.101V120.554L128.703 118.858C128.703 118.858 128.726 118.839 128.737 118.828C128.76 118.813 128.779 118.798 128.794 118.779C128.813 118.76 128.824 118.737 128.839 118.714C128.847 118.699 128.859 118.68 128.866 118.661C128.878 118.631 128.881 118.601 128.885 118.57C128.885 118.559 128.893 118.547 128.893 118.536V115.775C128.893 115.775 128.893 115.752 128.893 115.741C128.889 115.714 128.885 115.691 128.877 115.669C128.874 115.65 128.874 115.635 128.87 115.619L125.775 107.939V106.683L130.653 103.865L130.698 136.264L125.775 139.101H125.771ZM135.344 133.575L131.445 135.824L131.404 103.433L135.344 101.157V133.575ZM135.344 100.289L125.771 105.815V88.9976C125.771 88.9976 125.771 88.9748 125.764 88.9634C125.764 88.9293 125.756 88.8989 125.745 88.8686C125.741 88.8534 125.733 88.8382 125.722 88.8231C125.711 88.7965 125.691 88.77 125.672 88.7472C125.661 88.7358 125.646 88.7245 125.631 88.7131C125.616 88.6979 125.604 88.6827 125.585 88.6714L122.062 86.6384L135.344 78.9655V100.289Z" fill="#F16C3F"></path></svg>