<svg xmlns="http://www.w3.org/2000/svg" width="157" height="160" viewBox="0 0 157 160" fill="none"><path d="M22.5984 159.17C20.7631 159.17 19.2413 158.816 18.0713 158.118C18.0063 158.08 17.9413 158.042 17.8725 158.008C17.8075 157.973 17.7578 157.943 17.7119 157.916C17.5704 157.828 17.4098 157.71 17.2645 157.585C17.1154 157.455 16.9816 157.341 16.8516 157.215C16.8172 157.161 16.7637 157.104 16.7254 157.066C16.6222 156.963 16.5228 156.826 16.4272 156.689C16.2857 156.475 16.1672 156.3 16.0678 156.121C16.0334 156.048 15.9722 155.987 15.9416 155.957C14.6377 153.685 15.2304 150.78 17.6775 147.579C19.2681 145.471 21.394 143.641 23.9901 142.147C26.9457 140.447 29.6643 138.907 32.3025 137.439C32.5281 137.313 32.6237 137.047 32.5319 136.806C32.3522 136.341 32.249 135.758 32.249 135.209C32.2681 134.26 32.6505 133.494 33.2699 133.158L72.2929 113.604C72.9199 113.257 75.0955 112.136 76.9385 112.136C77.5464 112.136 78.0588 112.262 78.4602 112.502C78.5826 112.59 78.7126 112.685 78.8158 112.788C78.9114 112.884 79.0414 112.937 79.1791 112.937C79.267 112.937 79.3511 112.914 79.4238 112.876L134.085 83.3535L134.119 83.3306C134.2 83.2772 134.311 83.2277 134.425 83.1858C134.502 83.1591 134.574 83.1171 134.628 83.06C134.984 82.7055 135.416 82.4043 135.909 82.168C136.647 81.8097 137.511 81.6077 138.409 81.5886C138.486 81.5886 138.559 81.5696 138.624 81.5353C139.817 80.9482 143.392 79.5836 150.798 79.5836C151.723 79.5836 152.69 79.6065 153.677 79.6484H153.719C153.807 79.6484 153.891 79.6255 153.967 79.5836L155.849 78.5468L156.246 79.2634L154.373 80.2926C154.266 80.3498 154.182 80.4451 154.14 80.5594C149.46 88.6976 145.827 91.4154 144.481 92.2083C144.443 92.2312 144.405 92.2579 144.374 92.2922C144.355 92.3112 144.305 92.3684 144.279 92.4065C143.755 93.2642 142.998 94.0113 142.206 94.4573C141.801 94.6898 141.396 94.8308 140.964 94.8918C140.887 94.9032 140.814 94.9299 140.749 94.9719L140.547 95.1053L74.2773 132.293C74.1855 132.343 74.1167 132.419 74.0708 132.51C73.8185 133.014 73.417 133.425 72.874 133.738C72.7058 133.841 52.7661 145.81 32.0234 156.67C29.3928 158.038 26.7048 158.85 24.0322 159.09C23.5275 159.132 23.0419 159.155 22.5869 159.155L22.5984 159.17ZM32.9984 138.03C32.9104 138.03 32.8225 138.053 32.746 138.095C29.7369 139.768 26.7048 141.506 24.3992 142.833C21.9445 144.251 19.9027 146.016 18.3236 148.082C17.5054 149.157 16.9089 150.178 16.5572 151.12C16.4998 151.276 16.5189 151.455 16.6145 151.592C16.7101 151.73 16.8707 151.813 17.0389 151.813C17.4022 151.813 17.7884 151.939 18.2243 152.195C19.5319 152.976 20.5642 154.844 20.526 156.357C20.526 156.75 20.4457 157.108 20.2813 157.459C20.2125 157.604 20.2163 157.767 20.2851 157.909C20.3578 158.05 20.4878 158.149 20.6445 158.183C21.2066 158.294 21.8413 158.351 22.5333 158.351C22.9807 158.351 23.4663 158.328 23.9787 158.278C26.5442 158.072 29.1251 157.287 31.6563 155.945C46.4916 148.166 60.7955 139.921 68.0029 135.697C68.0488 135.67 68.0946 135.632 68.129 135.59C68.9358 135.08 69.4061 133.997 69.429 132.556C69.4749 129.979 68.0373 126.732 65.9305 124.654C65.8349 124.559 65.7049 124.506 65.5673 124.506C65.4793 124.506 65.3952 124.529 65.3187 124.571L39.3225 138.834C38.7069 139.17 37.8887 139.356 37.0169 139.356C35.8584 139.356 34.6884 139.048 33.8052 138.506C33.6331 138.411 33.5107 138.308 33.331 138.152C33.2392 138.068 33.1169 138.026 32.9908 138.026L32.9984 138.03ZM17.016 152.633C16.951 152.633 16.7981 152.633 16.6451 152.736C16.389 152.885 16.236 153.235 16.2054 153.75C16.2054 154.23 16.3163 154.737 16.5381 155.263C16.9166 156.128 17.4978 156.841 18.1287 157.219C18.4116 157.386 18.6716 157.474 18.8972 157.474C19.0233 157.474 19.138 157.447 19.2375 157.394C19.5357 157.253 19.7001 156.876 19.7001 156.327C19.7269 155.095 18.8551 153.521 17.7998 152.888C17.471 152.709 17.2378 152.633 17.016 152.633ZM76.9423 112.948C75.6614 112.948 73.8949 113.657 72.6714 114.317L33.6484 133.871C33.2202 134.115 33.071 134.744 33.071 135.255C33.071 135.51 33.0863 135.846 33.2049 136.208C33.3693 136.905 33.7593 137.508 34.241 137.809L34.2793 137.832C34.3022 137.843 34.3251 137.855 34.3443 137.87C34.4322 137.923 34.5163 137.969 34.6158 138.011C35.2925 138.35 36.1834 138.545 37.059 138.545C37.7931 138.545 38.4354 138.404 38.921 138.141L64.2176 124.258L66.049 123.244L67.219 122.615L68.6949 121.799L68.8555 121.719L70.5455 120.785L77.6879 116.863C78.2079 116.573 78.6132 115.861 78.6973 115.094C78.7241 114.976 78.7241 114.847 78.7241 114.744C78.7738 114.061 78.5099 113.478 78.0167 113.192C77.8064 113.074 77.5808 113.006 77.2826 112.971C77.1717 112.941 77.0494 112.941 76.9461 112.941L76.9423 112.948ZM70.0943 122.051C70.0217 122.051 69.9146 122.066 69.8344 122.108L69.2685 122.402L67.6282 123.309L67.0011 123.644C66.8596 123.72 66.7602 123.858 66.7373 124.014C66.7105 124.174 66.7602 124.33 66.8711 124.449C68.9702 126.675 70.3008 129.865 70.2588 132.583C70.2588 132.873 70.2396 133.143 70.1976 133.414C70.167 133.608 70.2549 133.806 70.4193 133.917C70.5034 133.974 70.6029 134.005 70.7061 134.005C70.7979 134.005 70.8896 133.978 70.9699 133.932L71.7882 133.448C72.247 133.178 72.4152 133.078 72.4917 133.029C72.6408 132.953 72.8052 132.827 72.9696 132.663C73.5585 132.103 73.8873 131.169 73.9102 129.964V129.884C73.9102 127.334 72.4879 124.17 70.4538 122.192C70.3582 122.097 70.2282 122.047 70.0943 122.047V122.051ZM135.354 83.83C135.014 83.83 134.727 83.9062 134.471 84.0663L133.297 84.7029L133.179 84.7638L79.7717 113.596C79.5767 113.703 79.4696 113.92 79.5117 114.141C79.5499 114.343 79.5499 114.561 79.5499 114.793C79.5308 115.986 78.9382 117.111 78.0741 117.587L71.5205 121.193C71.379 121.269 71.2835 121.407 71.2605 121.563C71.2376 121.719 71.2873 121.879 71.3943 121.994C73.4667 124.193 74.7782 127.334 74.7361 129.995C74.7361 130.063 74.7361 130.094 74.7361 130.109C74.6711 130.296 74.7361 130.513 74.9005 130.65C74.9923 130.723 75.107 130.765 75.2255 130.765C75.3173 130.765 75.4052 130.742 75.4855 130.696L138.868 95.1129L140.199 94.3696C140.382 94.2667 140.635 94.0799 140.795 93.7826C141.124 93.3366 141.319 92.6695 141.346 91.8614C141.346 91.4002 141.315 91 141.247 90.6264C141.151 90.0127 140.967 89.3761 140.692 88.7357C139.962 86.9137 138.635 85.2594 137.228 84.417C136.505 83.9672 135.863 83.8452 135.45 83.8261H135.354V83.83ZM138.608 82.412C138.306 82.412 138 82.4348 137.691 82.4844L137.618 82.4996C137.542 82.5149 137.496 82.5263 137.454 82.5263C137.213 82.5263 137.006 82.6902 136.953 82.9227C136.899 83.1553 137.01 83.3954 137.224 83.5021C137.293 83.5631 137.373 83.6089 137.465 83.6317C137.492 83.6432 137.576 83.6927 137.633 83.727L137.679 83.7537C137.706 83.7728 137.74 83.7918 137.782 83.8147C139.136 84.6647 140.39 86.1552 141.208 87.901C141.514 88.5528 141.736 89.1741 141.874 89.7421C142.061 90.4244 142.153 91.1181 142.153 91.8081V91.8995C142.153 92.0291 142.137 92.1511 142.118 92.296L142.111 92.3531C142.084 92.559 142.183 92.7572 142.363 92.8639C142.443 92.9097 142.531 92.9325 142.623 92.9325C142.734 92.9325 142.845 92.8982 142.933 92.8296C143.082 92.7153 143.181 92.5857 143.262 92.4789C143.862 91.728 144.271 90.8437 144.374 90.047C144.405 89.9136 144.405 89.7726 144.405 89.6696C144.405 89.0674 144.321 88.4537 144.16 87.9048C143.919 87.0319 143.541 86.1895 143.074 85.4652C143.074 85.4652 143.07 85.4462 143.059 85.4271C143.013 85.3356 142.952 85.2479 142.898 85.1717L142.868 85.126C142.849 85.0993 142.826 85.0726 142.803 85.0459C142.78 85.0154 142.757 84.9849 142.734 84.9544C142.573 84.7067 142.382 84.4665 142.168 84.2531C142.092 84.1578 141.984 84.0244 141.828 83.8909C141.499 83.5212 141.109 83.1972 140.669 82.9418C140.558 82.8846 140.501 82.8579 140.447 82.816C140.417 82.7931 140.382 82.7741 140.352 82.7588C139.859 82.5378 139.254 82.4196 138.604 82.4196L138.608 82.412ZM150.989 80.4146C146.217 80.4146 143.158 80.9711 141.434 81.44C141.231 81.4933 141.082 81.6648 141.055 81.8745C141.032 82.0841 141.136 82.2862 141.319 82.3853C141.552 82.5111 141.801 82.7283 141.965 82.877C142.222 83.1095 142.485 83.3535 142.722 83.6089C142.761 83.6546 142.784 83.6889 142.814 83.7194C143.021 83.9481 143.216 84.2035 143.403 84.4513C143.598 84.6952 143.732 84.8896 143.839 85.084C143.839 85.1069 143.858 85.1527 143.885 85.1946C144.757 86.6202 145.234 88.1716 145.234 89.5705C145.234 89.7726 145.357 89.9593 145.54 90.0394C145.605 90.0699 145.674 90.0813 145.747 90.0813C145.877 90.0813 145.999 90.0356 146.095 89.9479C147.586 88.5871 149.964 85.9646 152.813 81.1998C152.908 81.0435 152.908 80.8453 152.82 80.689C152.732 80.5289 152.564 80.4298 152.381 80.426C151.899 80.4146 151.436 80.4108 150.985 80.4108L150.989 80.4146ZM23.4969 120.107C18.3581 120.107 14.6187 118.655 12.3819 117.435L12.0416 117.248C11.9651 117.206 11.881 117.183 11.793 117.183C11.6669 117.183 11.5445 117.229 11.4489 117.313L11.1621 117.568C10.5963 118.071 10.0457 118.475 9.57159 118.738C8.76865 119.207 8.06129 119.447 7.46099 119.447C7.23923 119.447 7.03658 119.417 6.83775 119.352C6.76128 119.284 6.66566 119.242 6.56625 119.23L6.38273 119.207C6.08832 119.169 5.75568 119.043 5.39627 118.838L1.77539 116.752C0.773627 116.158 0.150391 115.087 0.150391 113.962V97.358C0.150391 96.9197 0.223021 96.5385 0.372139 96.1954L0.41802 96.0925C0.448608 96.0277 0.460073 95.9553 0.460073 95.8867V95.8181C0.765956 94.644 2.15774 93.6911 2.96068 93.2337C4.27598 92.4866 5.72893 92.0406 6.84158 92.0406C7.38835 92.0406 7.84715 92.1473 8.20274 92.3531L11.8351 94.4458C12.8522 95.0367 13.4601 96.0773 13.4601 97.2361V102.287C13.4601 102.5 13.5939 102.695 13.7966 102.767L14.1522 102.9C16.2322 103.674 18.5301 104.067 20.9848 104.067C26.0778 104.067 31.4537 102.409 36.971 99.142L37.2387 98.9819C37.2731 98.9628 37.3075 98.9361 37.3343 98.9056C39.0969 97.865 40.9131 96.5995 42.714 95.1624L42.9205 94.9985C42.9205 94.9985 42.9549 94.968 42.974 94.949C46.5949 92.1206 50.2731 88.5452 53.8902 84.3369C54.2114 83.9596 54.5287 83.6012 54.8384 83.2467L54.9149 83.1629C55.2552 82.7779 55.5878 82.4005 55.9014 82.0193L56.5093 81.2913C56.6278 81.1503 56.6623 80.9559 56.5973 80.7843C56.5323 80.6128 56.3831 80.487 56.1996 80.4565L55.2666 80.2964C46.4075 78.7869 38.2405 75.9891 31.6487 72.2001C20.8587 65.9869 15.2648 59.3239 14.5498 51.8337C14.546 51.7727 14.5384 51.746 14.5345 51.7231L14.5231 51.685C14.5078 51.624 13.0777 45.4032 14.4542 32.9538C14.4542 32.9348 14.4619 32.8852 14.4619 32.8661V32.7747C14.611 24.1295 20.5031 16.0256 31.056 9.9534C41.6587 3.86595 55.7905 0.515381 70.8476 0.515381C85.9046 0.515381 100.029 3.86595 110.616 9.9534C115.461 12.7475 119.322 15.9494 122.091 19.4715C124.844 22.9669 126.492 26.691 126.996 30.5448L127.199 31.9246C127.203 31.9589 127.214 31.9932 127.226 32.0276C127.314 32.6946 127.562 35.2066 127.742 38.1379C127.742 38.1569 127.749 38.2179 127.753 38.237C127.788 38.4314 127.799 38.6296 127.814 38.8392C127.822 38.9879 127.83 39.1023 127.841 39.2204L127.849 39.2776C127.883 39.5063 127.895 39.7541 127.91 40.0171V40.0781C127.922 40.2191 127.925 40.3525 127.937 40.4859C127.979 40.829 127.99 41.1301 128.006 41.4503C128.013 41.6104 128.021 41.7705 128.029 41.9268C128.025 41.9344 128.021 41.9687 128.025 42.003L128.032 42.1479C128.208 45.4184 128.151 48.0066 127.86 49.6343L127.826 49.8096C127.822 49.8363 127.818 49.8592 127.814 49.8859V49.9278C127.776 50.7359 127.707 51.342 127.585 51.9023L127.574 51.9633C127.398 53.2517 127.077 54.4829 126.599 55.737C126.404 56.3164 126.151 56.9301 125.819 57.62C125.161 59.0799 124.339 60.4712 123.299 61.8702C123.119 62.1065 122.939 62.3428 122.756 62.5792C122.561 62.8307 122.389 63.0556 122.213 63.2843C122.159 63.3415 122.11 63.4101 122.064 63.4826C121.517 64.1191 120.856 64.8205 119.934 65.7391C119.498 66.147 119.024 66.5663 118.565 66.9742L118.355 67.1609C117.231 68.1215 116.061 69.0287 114.883 69.8597C114.275 70.2828 113.591 70.7174 112.926 71.1405C112.356 71.5483 111.801 71.8685 111.216 72.204C102.973 76.9496 92.5423 80.0486 81.0488 81.1655L80.8538 81.1846C80.7352 81.196 80.6244 81.2494 80.5403 81.3332L80.5288 81.3447C76.2388 83.0371 67.349 87.8933 55.9052 101.414C42.7943 116.859 31.0484 120.103 23.5007 120.103L23.4969 120.107ZM10.7645 102.416C10.6575 102.416 10.5504 102.451 10.4625 102.512C10.3286 102.607 10.2483 102.763 10.2483 102.927V114.831C10.2483 114.995 10.3286 115.148 10.4586 115.247L10.6804 115.411C11.5445 116.047 12.4469 116.589 13.3607 117.016C16.3354 118.498 19.8377 119.284 23.4854 119.284C30.861 119.284 42.3584 116.089 55.2437 100.884C61.7705 93.1879 68.1711 87.3711 74.2735 83.5936C75.1873 83.0066 76.0285 82.5378 76.8429 82.088L76.9461 82.0308C78.1161 81.4209 79.2976 80.8911 80.5593 80.4108C80.5746 80.4031 80.6206 80.3879 80.632 80.3803C80.7697 80.3117 80.8996 80.2697 81.0755 80.2087C82.2035 79.8047 83.0867 79.595 83.6717 79.454L84.0923 79.3549C84.3255 79.2977 84.49 79.0957 84.49 78.8556V65.9793C84.49 65.7315 84.3141 65.5219 84.0732 65.4761L83.6297 65.3923C83.1785 65.3046 82.6814 65.2627 82.1461 65.2627C81.0144 65.2627 79.7602 65.4609 78.4258 65.8497L78.3417 65.8726V72.6766C78.3417 72.9129 78.1506 73.1035 77.9135 73.1035C77.6764 73.1035 77.4853 72.9129 77.4853 72.6766V66.1279L76.8429 66.3833C75.4626 66.9361 74.2505 67.5345 73.0308 68.2664L72.8205 68.3922L72.8587 68.4836C72.8817 68.537 72.8932 68.5942 72.8932 68.6514V75.4783C72.8932 75.7146 72.702 75.9052 72.465 75.9052C72.2279 75.9052 72.0367 75.7146 72.0367 75.4783V68.8419L71.5014 69.185C71.0579 69.4671 70.5838 69.7835 70.1096 70.0998L69.5935 70.4734C69.2111 70.7517 68.8135 71.0452 68.4082 71.3577L68.3585 71.3959V71.4568L68.3661 78.3028C68.3661 78.5392 68.1749 78.7298 67.9379 78.7298C67.7008 78.7298 67.5096 78.5392 67.5096 78.3028V72.0324L66.6761 72.7186C65.4258 73.7477 64.0608 74.9485 62.6193 76.2902L62.5849 76.3245V83.1972C62.5849 83.4335 62.3937 83.6241 62.1567 83.6241C61.9196 83.6241 61.7284 83.4335 61.7284 83.1972V77.1441L61.1014 77.773C60.8605 78.0131 60.589 78.2838 60.352 78.5544C59.6217 79.2558 58.9143 80.0067 58.1267 80.8415L58.0961 80.8758V87.6913C58.0961 87.9276 57.9049 88.1182 57.6678 88.1182C57.4308 88.1182 57.2396 87.9276 57.2396 87.6913V81.8554L56.3602 82.7741C55.8823 83.2734 55.4234 83.8071 54.9799 84.3255L54.4828 84.8973C53.8634 85.6406 53.2478 86.3153 52.6514 86.9709L52.6208 87.0052L52.594 87.0776V93.7559C52.594 93.9922 52.4028 94.1828 52.1658 94.1828C51.9287 94.1828 51.7375 93.9922 51.7375 93.7559V87.9276L51.1602 88.549C50.0513 89.7459 48.9234 90.8704 47.8107 91.8919L47.7725 91.9262V98.7341C47.7725 98.9704 47.5813 99.161 47.3443 99.161C47.1072 99.161 46.916 98.9704 46.916 98.7341V92.7343L46.3043 93.2642C45.0731 94.3277 43.9987 95.2196 43.0161 95.9858L42.9702 96.0201V102.912C42.9702 103.148 42.779 103.339 42.5419 103.339C42.3049 103.339 42.1137 103.148 42.1137 102.912V96.6757L41.3987 97.198C40.1178 98.1357 38.7643 99.02 37.3687 99.8281L37.2922 99.8738L37.3152 99.9577C37.3266 99.9996 37.3343 100.038 37.3343 100.072V106.899C37.3343 107.135 37.1431 107.326 36.9061 107.326C36.669 107.326 36.4778 107.135 36.4778 106.899V100.35L35.8852 100.678C34.5813 101.399 33.2087 102.043 31.6946 102.649L31.5187 102.717L31.5798 102.832C31.6143 102.897 31.6334 102.965 31.6334 103.034V109.861C31.6334 110.097 31.4422 110.288 31.2051 110.288C30.9681 110.288 30.7769 110.097 30.7769 109.861V103.019L30.2722 103.194C28.6701 103.747 27.1407 104.162 25.7222 104.429L25.6304 104.448V111.344C25.6304 111.58 25.4393 111.77 25.2022 111.77C24.9652 111.77 24.7739 111.58 24.7739 111.344V104.612L24.2998 104.673C23.1948 104.814 22.0937 104.883 20.9351 104.883C20.3616 104.883 19.7842 104.856 19.1457 104.822L18.8475 104.806V111.344C18.8475 111.58 18.6563 111.77 18.4192 111.77C18.1822 111.77 17.991 111.58 17.991 111.344V104.673L17.7654 104.642C16.6528 104.49 15.6931 104.276 14.8213 103.998C13.8004 103.709 12.8598 103.335 12.0263 102.889L11.9842 102.866C11.9613 102.855 11.9384 102.843 11.9154 102.836C11.8657 102.805 11.7548 102.74 11.6133 102.695L10.8907 102.454C10.8372 102.435 10.7836 102.428 10.7263 102.428L10.7645 102.416ZM1.25157 96.2984C1.07951 96.6376 0.999205 96.9883 0.999205 97.3657V113.97C0.999205 114.797 1.44275 115.586 2.16157 116.024L3.68334 116.909L5.85125 118.132C6.21831 118.346 6.61982 118.453 7.03658 118.453C7.66747 118.453 8.11482 118.201 8.27923 118.09C8.27923 118.09 8.33656 118.052 8.3442 118.049C8.86803 117.747 9.44156 117.065 9.44156 116.089V99.485C9.44156 98.5778 8.97512 97.7964 8.18747 97.3962L4.60099 95.2997C4.22246 95.0824 3.81716 94.9719 3.4004 94.9719C2.84216 94.9719 2.40244 95.1739 2.19215 95.2959L2.14244 95.3264C1.9895 95.4255 1.73712 95.5932 1.50006 95.8791L1.3739 96.0277C1.3089 96.104 1.26687 96.1992 1.2554 96.2984H1.25157ZM6.86067 92.8563C6.57008 92.8563 6.24126 92.8944 5.90479 92.963L4.51301 93.2565C4.30654 93.3023 4.14216 93.47 4.11157 93.6796C4.07716 93.8893 4.17658 94.099 4.36011 94.2057L8.65011 96.6948C9.63658 97.2551 10.2483 98.3262 10.2483 99.485V100.457C10.2483 100.59 10.3019 100.724 10.3974 100.819L10.558 100.979C10.6919 101.113 10.8487 101.216 10.9595 101.292L11.816 101.864C11.9001 101.921 11.9995 101.951 12.1028 101.951C12.1869 101.951 12.271 101.932 12.3437 101.89C12.5119 101.799 12.6189 101.627 12.6189 101.437V100.419L12.6228 97.2399C12.6228 96.4127 12.1792 95.6237 11.4604 95.1853L7.78216 93.0545C7.50686 92.9135 7.23538 92.8563 6.86067 92.8563ZM16.2704 41.9992C16.2322 41.9992 16.1901 42.003 16.1557 42.0107L15.1195 42.2508C14.8863 42.3042 14.7219 42.51 14.7181 42.7502C14.6951 46.8974 15.0316 50.1794 15.3566 51.4716C15.349 51.4716 15.3528 51.5173 15.3566 51.5592L15.3833 51.7269C16.0486 58.8703 21.6616 65.5219 32.0616 71.495C39.0549 75.5317 47.7955 78.421 57.339 79.8504L57.622 79.8924C57.6487 79.8924 57.6717 79.8962 57.6985 79.8962C57.8399 79.8962 57.9776 79.839 58.0732 79.7361L58.2682 79.5264C62.6308 74.8951 66.7985 71.2624 70.6526 68.7314L75.1835 66.4558C75.3976 66.349 75.5123 66.1013 75.4511 65.8649C75.3899 65.64 75.1873 65.4799 74.9541 65.4799C74.9541 65.4799 73.2437 65.5587 69.8229 65.7163C55.1902 65.5562 41.4178 62.198 31.0599 56.263C24.2845 52.3597 19.3331 47.5302 16.7331 42.2889C16.6451 42.1136 16.4692 42.003 16.2704 42.003V41.9992ZM125.624 41.6028C125.425 41.6028 125.241 41.7172 125.157 41.8963C122.618 47.29 117.594 52.2568 110.62 56.2592C103.81 60.1587 95.3756 63.0023 86.2297 64.4812L85.7708 64.5575C85.5185 64.5994 85.3388 64.8129 85.3388 65.0644V79.1224C85.3388 79.271 85.4038 79.4159 85.5185 79.5112C85.6141 79.5912 85.7326 79.637 85.8549 79.637C85.8817 79.637 85.9085 79.637 85.9353 79.6293L86.5662 79.5341C95.7847 78.1084 103.963 75.3716 110.872 71.3997C113.641 69.814 116.099 68.072 118.175 66.2271C118.879 65.5905 119.514 64.9577 120.129 64.344L120.209 64.264C120.244 64.2297 120.271 64.1915 120.294 64.1496L120.313 64.1153C121.047 63.3301 121.838 62.4496 122.546 61.4775C123.964 59.5602 125.008 57.6886 125.742 55.7484C126.472 53.7015 126.862 51.7727 126.931 49.8439L127.011 49.4322C127.275 47.7284 127.333 45.3307 127.184 42.3004C127.172 42.064 127 41.8658 126.767 41.8201L125.727 41.6142C125.692 41.6066 125.662 41.6028 125.627 41.6028H125.624ZM70.84 1.31967C55.9396 1.31967 41.9569 4.64356 31.4651 10.6815C22.8469 15.652 17.4213 21.9148 15.7772 28.799C15.4484 30.2131 15.2801 31.6692 15.2801 33.1254V33.1863C15.3107 41.5761 21.0613 49.5123 31.4651 55.5349C41.5554 61.3441 54.9111 64.6718 69.0735 64.9005C69.6241 64.931 70.2435 64.931 70.84 64.931H72.0902C86.4782 64.7328 100.017 61.3975 110.215 55.5388C119.992 49.8973 125.715 42.4528 126.335 34.5777C126.365 34.2079 126.4 33.7924 126.4 33.3731V33.1254C126.4 32.5803 126.369 32.0466 126.335 31.5015C126.297 31.0517 126.228 30.6362 126.167 30.2703C125.012 22.8068 119.494 16.0332 110.215 10.6815C99.6694 4.64356 85.6867 1.31586 70.84 1.31586V1.31967ZM70.84 56.2096C70.1708 56.2096 69.4826 56.2096 68.844 56.1525C58.9717 55.8971 49.7072 53.5452 42.7484 49.5314C38.9057 47.3281 35.9501 44.7818 33.9619 41.9573C31.9737 39.1785 30.9681 36.2053 30.9681 33.1254C30.9681 31.8179 31.1631 30.4914 31.5493 29.1878C31.9928 27.6249 32.7116 26.1231 33.6828 24.7241C35.6787 21.7128 38.726 19.0102 42.7484 16.6889C50.2196 12.3815 60.199 10.0106 70.8438 10.0106C81.4885 10.0106 91.4755 12.3815 98.962 16.6927C102.552 18.7968 105.378 21.1868 107.366 23.7979C108.452 25.2311 109.282 26.7406 109.836 28.2806C110.287 29.4927 110.563 30.7811 110.651 32.1076C110.651 32.1229 110.654 32.1724 110.658 32.1876C110.712 32.5002 110.712 32.7899 110.712 33.1292C110.712 33.8496 110.67 34.3947 110.574 34.894C109.859 40.4555 105.737 45.6509 98.9659 49.5314C91.6782 53.7243 81.997 56.0877 71.7041 56.1829C71.6888 56.1829 71.639 56.1829 71.6237 56.1829C71.3714 56.2096 71.0885 56.2096 70.8361 56.2096H70.84ZM70.84 10.7882C60.4361 10.7882 50.602 13.1401 43.1537 17.4093C41.7619 18.2098 40.4237 19.1094 39.1849 20.0814C36.9443 21.8539 35.1969 23.775 33.9925 25.7914C32.5472 28.1052 31.8131 30.5714 31.8131 33.1254C31.8131 39.0222 35.8431 44.5913 43.1537 48.8109C49.9711 52.7752 59.0787 55.1042 68.7943 55.371C69.4596 55.4358 70.1632 55.4358 70.84 55.4358C71.1955 55.4358 71.532 55.4358 71.9143 55.4015C81.9588 55.2681 91.4144 52.9277 98.53 48.8109C104.64 45.3117 108.456 40.8976 109.565 36.0414C109.79 35.1456 109.905 34.166 109.905 33.1254V32.7213C109.806 29.9997 108.869 27.3657 107.118 24.8842C105.741 22.8602 103.806 20.9619 101.363 19.239C100.568 18.6519 99.6388 18.0535 98.5338 17.4131C91.1161 13.1439 81.282 10.7882 70.8438 10.7882H70.84ZM70.9011 49.9468C70.3199 49.9468 69.7693 49.9468 69.2302 49.8897H69.1729C65.0052 49.7601 61.0555 49.1349 57.4308 48.0295C56.7846 47.8465 56.169 47.6293 55.5687 47.4234C54.3796 47.0079 53.2402 46.5353 52.0817 45.9749L51.9708 45.9216C51.9363 45.9025 51.8981 45.8911 51.8599 45.8835C51.3973 45.6433 50.904 45.3689 50.4261 45.1059L50.2578 45.0067C49.8869 44.7857 49.539 44.5798 49.2331 44.3473C49.2217 44.3397 49.1834 44.3092 49.1681 44.3016C48.7743 44.0614 48.4149 43.7908 48.0669 43.5316C47.914 43.421 47.7802 43.3143 47.6464 43.2038C47.4208 43.0208 47.2411 42.8798 47.0575 42.7425C45.8569 41.7705 44.8055 40.6613 44.0255 39.5368C42.5955 37.5013 41.869 35.3438 41.869 33.1292C41.869 29.0315 44.2396 25.254 48.717 22.1969C49.2599 21.8043 49.8296 21.446 50.4108 21.1296C54.1234 19.0141 58.7614 17.516 63.8275 16.7956C66.1561 16.4602 68.5382 16.2924 70.9164 16.2924C72.8932 16.2924 74.8585 16.4106 76.7664 16.6431C76.7856 16.6431 76.8429 16.6507 76.862 16.6507C82.2953 17.2987 87.2697 18.8463 91.2423 21.122C91.5941 21.3164 91.877 21.4879 92.1294 21.6633C97.1 24.8004 99.8338 28.8714 99.8338 33.133C99.8338 33.7581 99.7765 34.3718 99.6656 34.9588C99.528 35.6411 99.3826 36.1595 99.1914 36.6322L99.0576 36.9638C99.0309 37.0286 99.0194 37.0973 99.0194 37.1659L98.9773 37.2688L98.9085 37.406C98.8167 37.5966 98.7326 37.7643 98.6485 37.8977C98.6409 37.9092 98.6141 37.9511 98.6103 37.9663C98.5644 38.0578 98.53 38.1226 98.5032 38.1874C98.5032 38.1874 98.4917 38.2027 98.4879 38.2141L98.4459 38.2942C98.3962 38.3971 98.3312 38.4962 98.2738 38.5915L98.1744 38.7516C97.8074 39.3615 97.3944 39.937 96.9585 40.4555L96.8323 40.6079C96.7941 40.6498 96.7674 40.6994 96.7482 40.7528C95.9835 41.6409 95.0391 42.5176 93.9685 43.3295C93.9112 43.3448 93.8615 43.3715 93.8156 43.4058L93.4256 43.7031C92.7373 44.2634 91.9688 44.7285 91.3073 45.1097C90.3361 45.6776 89.2311 46.2265 88.0191 46.7335C86.6273 47.3014 85.4726 47.7131 84.3829 48.0333C80.5746 49.1769 76.3152 49.8325 72.0635 49.924C71.639 49.9545 71.2949 49.9545 70.8973 49.9545L70.9011 49.9468ZM71.0426 25.3264C63.4987 25.3264 56.4023 27.0265 51.057 30.1178C47.7955 31.9704 45.3713 34.307 44.0522 36.8762L43.9222 37.1316C43.8458 37.284 43.8458 37.4632 43.9261 37.6118L44.0637 37.8634C44.9469 39.4873 46.2661 41.012 47.9867 42.3918C48.2811 42.6206 48.5793 42.8531 48.889 43.0589C49.1222 43.2419 49.451 43.4973 49.8258 43.7222C50.1699 43.9394 50.5752 44.1758 50.9308 44.3816C53.569 45.8987 56.7043 47.1109 60.2411 47.9838C63.2387 48.6508 66.3932 49.0396 69.6202 49.1349C70.0179 49.1426 70.4117 49.1464 70.8055 49.1464C71.7767 49.1464 72.7823 49.1235 73.5852 49.1006C73.6464 49.1006 73.6732 49.1006 73.6961 49.093L73.7343 49.0854C73.7879 49.0777 73.8414 49.0739 73.895 49.0663C74.0249 49.0549 74.1205 49.0473 74.2199 49.032C77.6152 48.8071 80.8729 48.2315 83.9088 47.3243C84.1573 47.2786 84.4097 47.1909 84.6276 47.0765L84.8111 47.0117C84.8952 46.9813 84.9679 46.9546 85.052 46.9279C85.2394 46.8745 85.465 46.8021 85.6906 46.7259C85.8817 46.6611 86.0538 46.6039 86.2297 46.5543L86.2794 46.5429H86.287C86.3788 46.5429 86.4935 46.501 86.5814 46.4285L86.6732 46.3561C86.7879 46.318 86.9294 46.2608 87.0747 46.2037C87.2391 46.135 87.3958 46.074 87.5488 46.0169C87.7859 45.9216 87.9694 45.8415 88.1567 45.7615C88.3326 45.6852 88.4817 45.6204 88.6385 45.5556C88.7455 45.5213 88.8488 45.4642 88.9444 45.3917C89.6517 45.0372 90.2597 44.717 90.8409 44.3854L91.4985 44.0119C91.8885 43.787 92.29 43.5239 92.6914 43.2343C92.8061 43.1466 93.0279 42.9827 93.0279 42.9827C93.3376 42.754 93.6473 42.5215 93.9532 42.2432C94.3509 41.9382 94.737 41.5837 95.1118 41.2445C95.4826 40.8747 95.8612 40.5012 96.2091 40.0857C96.4347 39.8608 96.6641 39.5635 96.8744 39.2319C97.3409 38.5724 97.6582 38.0502 97.9029 37.5318L98.0176 37.2917C98.0865 37.1468 98.0826 36.9829 98.0138 36.8419L97.8953 36.6055C97.8571 36.5331 97.8111 36.4492 97.7653 36.3654C97.7347 36.3082 97.7003 36.251 97.6773 36.2015L97.6468 36.1443C96.2665 33.8648 93.98 31.7798 91.032 30.114C85.6944 27.0265 78.6017 25.3264 71.054 25.3264H71.0426ZM71.4326 17.2644C69.1882 17.2644 66.8749 17.3483 64.359 17.516H64.3055C59.1514 18.225 54.4943 19.7154 50.839 21.831C45.5816 24.869 42.6834 28.879 42.6834 33.1215C42.6834 33.3846 42.6834 33.6552 42.7216 33.9716L42.8899 35.3057C42.9166 35.5154 43.0658 35.6831 43.2684 35.7403C43.3105 35.7517 43.3564 35.7593 43.4022 35.7593C43.5628 35.7593 43.7158 35.6831 43.8152 35.5535L44.6258 34.4785C46.0749 32.5612 48.0937 30.8535 50.6211 29.4012C56.0352 26.2794 63.2846 24.5602 71.0273 24.5602C78.77 24.5602 86.05 26.2794 91.4641 29.4012C93.7697 30.7277 95.6738 32.2829 97.1153 34.0211L98.0826 35.1875C98.1821 35.3057 98.3235 35.3743 98.4803 35.3743C98.5414 35.3743 98.5988 35.3629 98.6562 35.3438C98.8588 35.2714 98.9965 35.077 98.9965 34.8597V33.1292C98.9965 28.8866 96.102 24.8766 90.8409 21.8386C86.9829 19.5935 82.0544 18.0687 76.5867 17.436C74.6443 17.2911 72.8129 17.2721 71.4326 17.2721V17.2644Z" fill="#F16C3F"></path></svg>