<svg xmlns="http://www.w3.org/2000/svg" width="122" height="187" viewBox="0 0 122 187" fill="none"><path d="M60.8984 134.8C60.8984 135.1 60.9984 135.3 60.9984 135.6C60.9984 135.3 60.9984 135 60.9984 134.8H60.8984Z" fill="#607E6F"></path><path d="M60.8984 134.8C60.8984 135.1 60.9984 135.3 60.9984 135.6C60.9984 135.3 60.9984 135 60.9984 134.8H60.8984Z" fill="#607E6F"></path><path d="M60.8984 134.8C60.8984 135.1 60.9984 135.3 60.9984 135.6C60.9984 135.3 60.9984 135 60.9984 134.8H60.8984Z" fill="#607E6F"></path><path d="M60.8984 134.8C60.8984 135.1 60.9984 135.3 60.9984 135.6C60.9984 135.3 60.9984 135 60.9984 134.8H60.8984Z" fill="#607E6F"></path><path d="M5.7 178.3H3.2V186.4H1.7V178.3H0V177.7L1.7 177.2V176.7C1.7 174.5 2.69999 173.3 4.79999 173.3C5.29999 173.3 5.89999 173.4 6.59999 173.6L6.2 174.7C5.6 174.5 5.19999 174.4 4.79999 174.4C4.19999 174.4 3.79999 174.6 3.59999 174.9C3.29999 175.2 3.2 175.8 3.2 176.6V177.2H5.7V178.3Z" fill="white"></path><path d="M13.4008 186.3L13.1008 185H13.0008C12.5008 185.6 12.0008 186 11.6008 186.2C11.2008 186.4 10.5008 186.5 9.80078 186.5C8.80078 186.5 8.10078 186.3 7.60078 185.8C7.10078 185.3 6.80078 184.7 6.80078 183.8C6.80078 182 8.40079 181 11.5008 180.9H13.1008V180.3C13.1008 179.6 12.9008 179.1 12.6008 178.7C12.3008 178.4 11.8008 178.2 11.0008 178.2C10.2008 178.2 9.30078 178.4 8.30078 178.9L7.90079 177.8C8.40079 177.6 8.90079 177.4 9.50079 177.2C10.1008 177.1 10.6008 177 11.2008 177C12.4008 177 13.2008 177.2 13.8008 177.7C14.4008 178.2 14.6008 179 14.6008 180V186.2H13.4008V186.3ZM10.1008 185.4C11.0008 185.4 11.7008 185.2 12.2008 184.7C12.7008 184.2 13.0008 183.6 13.0008 182.7V181.9L11.5008 182C10.3008 182 9.50079 182.2 9.00079 182.5C8.50079 182.8 8.20079 183.3 8.20079 183.9C8.20079 184.4 8.40079 184.8 8.70079 185C9.00079 185.2 9.50078 185.4 10.1008 185.4Z" fill="white"></path><path d="M21.7984 177C22.1984 177 22.5984 177 22.9984 177.1L22.7984 178.4C22.3984 178.3 21.9984 178.3 21.6984 178.3C20.8984 178.3 20.2984 178.6 19.6984 179.2C19.0984 179.8 18.8984 180.5 18.8984 181.4V186.3H17.3984V177.2H18.5984L18.7984 178.9H18.8984C19.2984 178.3 19.6984 177.8 20.1984 177.5C20.6984 177.2 21.1984 177 21.7984 177Z" fill="white"></path><path d="M37.1008 186.3V180.4C37.1008 179.7 36.9008 179.1 36.6008 178.8C36.3008 178.4 35.8008 178.3 35.1008 178.3C34.2008 178.3 33.5008 178.5 33.1008 179C32.7008 179.5 32.4008 180.3 32.4008 181.3V186.4H30.9008V180.5C30.9008 179.8 30.7008 179.2 30.4008 178.9C30.1008 178.5 29.6008 178.4 28.9008 178.4C28.0008 178.4 27.3008 178.7 26.9008 179.2C26.5008 179.7 26.3008 180.6 26.3008 181.8V186.6H24.8008V177.5H26.0008L26.2008 178.8H26.3008C26.6008 178.4 27.0008 178 27.5008 177.8C28.0008 177.6 28.6008 177.4 29.2008 177.4C30.7008 177.4 31.7008 177.9 32.2008 179H32.3008C32.6008 178.5 33.0008 178.1 33.6008 177.9C34.2008 177.7 34.8008 177.5 35.5008 177.5C36.6008 177.5 37.4008 177.8 38.0008 178.3C38.5008 178.8 38.8008 179.7 38.8008 180.8V186.8H37.1008V186.3Z" fill="white"></path><path d="M45.7016 186.5C44.3016 186.5 43.1016 186.1 42.3016 185.3C41.5016 184.5 41.1016 183.3 41.1016 181.9C41.1016 180.4 41.5016 179.3 42.2016 178.4C43.0016 177.5 44.0016 177.1 45.3016 177.1C46.5016 177.1 47.5016 177.5 48.2016 178.2C48.9016 179 49.3016 179.9 49.3016 181.2V182.1H42.7016C42.7016 183.2 43.0016 184 43.6016 184.5C44.1016 185.1 44.9016 185.3 45.9016 185.3C46.9016 185.3 48.0016 185.1 49.0016 184.7V185.9C48.5016 186.1 48.0016 186.3 47.5016 186.4C46.9016 186.5 46.3016 186.5 45.7016 186.5ZM45.3016 178.2C44.5016 178.2 43.9016 178.4 43.4016 178.9C42.9016 179.4 42.7016 180 42.6016 180.9H47.6016C47.6016 180 47.4016 179.4 47.0016 178.9C46.6016 178.4 46.0016 178.2 45.3016 178.2Z" fill="white"></path><path d="M56.0992 177C56.4992 177 56.8992 177 57.2992 177.1L57.0992 178.4C56.6992 178.3 56.2992 178.3 55.9992 178.3C55.1992 178.3 54.5992 178.6 53.9992 179.2C53.3992 179.8 53.1992 180.5 53.1992 181.4V186.3H51.6992V177.2H52.8992L53.0992 178.9H53.1992C53.5992 178.3 53.9992 177.8 54.4992 177.5C54.8992 177.2 55.4992 177 56.0992 177Z" fill="white"></path><path d="M75.9992 186.3V180.4C75.9992 179.7 75.7992 179.1 75.4992 178.8C75.1992 178.4 74.6992 178.3 73.9992 178.3C73.0992 178.3 72.3992 178.5 71.9992 179C71.5992 179.5 71.2992 180.3 71.2992 181.3V186.4H69.7992V180.5C69.7992 179.8 69.5992 179.2 69.2992 178.9C68.9992 178.5 68.4992 178.4 67.7992 178.4C66.8992 178.4 66.1992 178.7 65.7992 179.2C65.3992 179.7 65.1992 180.6 65.1992 181.8V186.6H63.6992V177.5H64.8992L65.0992 178.8H65.1992C65.4992 178.4 65.8992 178 66.3992 177.8C66.8992 177.6 67.4992 177.4 68.0992 177.4C69.5992 177.4 70.5992 177.9 71.0992 179H71.1992C71.4992 178.5 71.8992 178.1 72.4992 177.9C73.0992 177.7 73.6992 177.5 74.3992 177.5C75.4992 177.5 76.2992 177.8 76.8992 178.3C77.3992 178.8 77.6992 179.7 77.6992 180.8V186.8H75.9992V186.3Z" fill="white"></path><path d="M86.4008 186.3L86.1008 185H86.0008C85.5008 185.6 85.0008 186 84.6008 186.2C84.1008 186.4 83.5008 186.5 82.8008 186.5C81.8008 186.5 81.1008 186.3 80.6008 185.8C80.1008 185.3 79.8008 184.7 79.8008 183.8C79.8008 182 81.4008 181 84.5008 180.9H86.1008V180.3C86.1008 179.6 85.9008 179.1 85.6008 178.7C85.3008 178.4 84.8008 178.2 84.0008 178.2C83.2008 178.2 82.3008 178.4 81.3008 178.9L80.9008 177.8C81.4008 177.6 81.9008 177.4 82.5008 177.2C83.1008 177.1 83.6008 177 84.2008 177C85.4008 177 86.2008 177.2 86.8008 177.7C87.4008 178.2 87.6008 179 87.6008 180V186.2H86.4008V186.3ZM83.1008 185.4C84.0008 185.4 84.7008 185.2 85.2008 184.7C85.7008 184.2 86.0008 183.6 86.0008 182.7V181.9L84.5008 182C83.3008 182 82.5008 182.2 82.0008 182.5C81.5008 182.8 81.2008 183.3 81.2008 183.9C81.2008 184.4 81.4008 184.8 81.7008 185C82.1008 185.2 82.6008 185.4 83.1008 185.4Z" fill="white"></path><path d="M94.9 177C95.3 177 95.7 177 96.1 177.1L95.9 178.4C95.5 178.3 95.1 178.3 94.8 178.3C94 178.3 93.4 178.6 92.8 179.2C92.2 179.8 92 180.5 92 181.4V186.3H90.5V177.2H91.7L91.9 178.9H92C92.4 178.3 92.8 177.8 93.3 177.5C93.8 177.2 94.3 177 94.9 177Z" fill="white"></path><path d="M99.2984 181.7C99.5984 181.4 99.8984 180.9 100.498 180.4L103.598 177.3H105.298L101.398 181.2L105.598 186.4H103.798L100.398 182L99.2984 182.9V186.3H97.8984V173.3H99.2984V180.2C99.2984 180.6 99.2984 181 99.2984 181.7Z" fill="white"></path><path d="M111.401 186.5C110.001 186.5 108.801 186.1 108.001 185.3C107.201 184.5 106.801 183.3 106.801 181.9C106.801 180.4 107.201 179.3 107.901 178.4C108.701 177.5 109.701 177.1 111.001 177.1C112.201 177.1 113.201 177.5 113.901 178.2C114.601 179 115.001 179.9 115.001 181.2V182.1H108.401C108.401 183.2 108.701 184 109.301 184.5C109.801 185.1 110.601 185.3 111.601 185.3C112.601 185.3 113.701 185.1 114.701 184.7V185.9C114.201 186.1 113.701 186.3 113.201 186.4C112.701 186.5 112.101 186.5 111.401 186.5ZM111.001 178.2C110.201 178.2 109.601 178.4 109.101 178.9C108.601 179.4 108.401 180 108.301 180.9H113.301C113.301 180 113.101 179.4 112.701 178.9C112.401 178.4 111.801 178.2 111.001 178.2Z" fill="white"></path><path d="M120.599 185.4C120.899 185.4 121.099 185.4 121.299 185.3C121.499 185.2 121.699 185.2 121.899 185.2V186.3C121.699 186.4 121.499 186.4 121.199 186.5C120.899 186.5 120.599 186.6 120.399 186.6C118.499 186.6 117.599 185.7 117.599 183.8V178.4H116.199V177.7L117.599 177.1L118.199 175.1H118.999V177.2H121.799V178.3H118.999V183.7C118.999 184.3 119.099 184.7 119.399 185C119.699 185.2 120.099 185.4 120.599 185.4Z" fill="white"></path><path d="M60.8984 134.8C60.8984 135.1 60.9984 135.3 60.9984 135.6C60.9984 135.3 60.9984 135 60.9984 134.8H60.8984ZM60.8984 134.8C60.8984 135.1 60.9984 135.3 60.9984 135.6C60.9984 135.3 60.9984 135 60.9984 134.8H60.8984Z" fill="#607E6F"></path><path d="M105.698 30.1C105.298 29.1 104.898 28.2 104.398 27.2C103.898 26.2 103.398 25.3 102.898 24.3C94.6984 9.8 79.0984 0 61.2984 0H60.5984C34.2985 0 12.8984 21.4 12.8984 47.7V140.8H108.998V47.7C108.998 41.5 107.798 35.6 105.698 30.1ZM18.8984 47.7C18.8984 24.7 37.5984 6 60.5984 6H61.2984C76.0984 6 89.0984 13.7 96.4984 25.4C76.0984 29.4 58.5984 41.6 47.5984 58.5C38.9984 53.4 29.2984 50 18.8984 48.7V47.7ZM44.4984 63.6C45.3984 64.1 46.1984 64.6 46.9984 65.2C47.8984 65.7 48.6984 66.3 49.4984 66.9C54.2984 70.3 58.6984 74.3 62.5984 78.9C55.7985 84.6 50.0984 91.3 45.5984 99C44.2984 97.4 42.8984 95.9 41.3984 94.5C40.4984 93.6 39.5984 92.7 38.5984 91.9C37.6984 91.1 36.7984 90.3 35.8984 89.6C30.7984 85.4 24.9984 81.8 18.8984 79.1V54.7C28.1984 56 36.7984 59 44.4984 63.6ZM37.4984 118.6C36.1984 123.8 35.3984 129.2 35.1984 134.8H18.8984V85.5C24.8984 88.5 30.3984 92.3 35.1984 96.7C36.1984 97.6 37.1984 98.6 38.0984 99.6C39.1984 100.7 40.1984 101.8 41.1984 103C41.6984 103.5 42.0984 104.1 42.4984 104.6C42.0984 105.4 41.7984 106.1 41.3984 106.9C40.5984 108.8 39.7984 110.7 39.1984 112.7C38.5984 114.6 37.9984 116.6 37.4984 118.6ZM102.998 134.8H68.8984C69.3984 125.8 72.6984 117.5 77.9984 110.8C78.7984 109.8 79.5984 108.8 80.4984 107.9C81.2984 107.1 82.0984 106.2 82.9984 105.5C88.5984 100.5 95.3984 97 102.998 95.5V134.8ZM102.998 89.5C94.7984 90.9 87.3984 94.4 81.1984 99.3C80.3984 100 79.4984 100.7 78.6984 101.4C77.8984 102.2 77.0984 102.9 76.2984 103.8C68.4984 112 63.4984 122.8 62.8984 134.9C62.8984 135.2 62.8984 135.4 62.8984 135.7C62.8984 135.4 62.7984 135.1 62.7984 134.9H41.2984C41.3984 133.4 41.4984 131.9 41.5984 130.5C41.7984 128.5 42.0984 126.5 42.4984 124.5C42.8984 122.5 43.2984 120.6 43.7984 118.7C44.5984 115.8 45.5984 113 46.6984 110.3C47.1984 109.2 47.5984 108.1 48.1984 107C48.6984 106 49.1984 105 49.6984 104C53.8984 96.2 59.5984 89.3 66.3984 83.6C67.1984 83 67.9984 82.3 68.7984 81.7C69.5984 81.1 70.3984 80.5 71.1984 79.9C80.3984 73.4 91.2984 69.1 103.098 67.7V89.5H102.998ZM102.998 61.6C89.7984 63 77.6984 67.8 67.3984 75.1C63.0984 70 58.1984 65.5 52.6984 61.6C63.1984 45.6 79.9984 34.2 99.4984 30.9C101.798 36 102.998 41.7 102.998 47.7V61.6Z" fill="#C39973"></path></svg>