<svg xmlns="http://www.w3.org/2000/svg" width="235" height="140" viewBox="0 0 235 140" fill="none"><g clip-path="url(#clip0_1056_356)"><path d="M5.56215 2.59814V29.1891C5.56215 32.9265 6.48082 35.7045 8.30817 37.5132C10.1355 39.3219 12.6818 40.2313 15.9371 40.2313C19.1924 40.2313 21.6688 39.3219 23.4962 37.5132C25.3236 35.7045 26.2422 32.9265 26.2422 29.1891V2.59814H31.7243V29.1292C31.7243 32.6267 31.0253 35.5746 29.6173 37.9629C28.2094 40.3612 26.3121 42.1399 23.9256 43.2991C21.539 44.4682 18.8529 45.0478 15.8772 45.0478C12.9015 45.0478 10.2254 44.4682 7.82887 43.2991C5.44232 42.1299 3.54507 40.3512 2.16706 37.9629C0.769081 35.5746 0.0800781 32.6267 0.0800781 29.1292V2.59814H5.56215Z" fill="white"></path><path d="M50.4967 12.541C52.2841 11.4918 54.461 10.9722 57.0373 10.9722V16.6381H55.5894C49.4383 16.6381 46.3727 19.9757 46.3727 26.651V44.6281H40.8906V11.5817H46.3727V16.9479C47.3413 15.0592 48.7093 13.5903 50.4967 12.541Z" fill="white"></path><path d="M73.7843 12.9108C75.9512 11.6617 78.4276 11.0421 81.1936 11.0421C84.1693 11.0421 86.8354 11.7416 89.212 13.1506C91.5885 14.5596 93.4458 16.5382 94.8139 19.0864C96.1819 21.6445 96.8609 24.6024 96.8609 27.98C96.8609 31.3576 96.1819 34.2955 94.8139 36.9036C93.4458 39.5218 91.5686 41.5503 89.182 42.9993C86.7955 44.4482 84.1293 45.1677 81.1936 45.1677C78.2578 45.1677 75.8413 44.5482 73.6944 43.2991C71.5475 42.05 69.9299 40.4611 68.8414 38.5325V44.6281H63.3594V0H68.8414V17.7273C69.9698 15.7587 71.6174 14.1499 73.7843 12.9008V12.9108ZM89.7512 21.4747C88.7426 19.626 87.3946 18.217 85.6871 17.2477C83.9795 16.2784 82.1023 15.7987 80.0552 15.7987C78.0082 15.7987 76.1908 16.2884 74.4833 17.2777C72.7757 18.267 71.4077 19.6859 70.3792 21.5646C69.3607 23.4333 68.8414 25.5917 68.8414 28.05C68.8414 30.5082 69.3507 32.7266 70.3792 34.5953C71.4077 36.464 72.7658 37.8929 74.4833 38.8822C76.1908 39.8715 78.0481 40.3612 80.0552 40.3612C82.0623 40.3612 83.9795 39.8715 85.6871 38.8822C87.3946 37.8929 88.7526 36.464 89.7512 34.5953C90.7597 32.7266 91.259 30.5282 91.259 27.99C91.259 25.4518 90.7597 23.3233 89.7512 21.4747Z" fill="white"></path><path d="M104.1 19.0862C105.468 16.5381 107.345 14.5495 109.732 13.1505C112.118 11.7415 114.785 11.042 117.72 11.042C120.656 11.042 123.122 11.6615 125.249 12.9107C127.376 14.1598 128.964 15.7286 130.012 17.6173V11.5816H135.554V44.628H130.012V38.4724C128.924 40.401 127.306 41.9999 125.16 43.269C123.013 44.5381 120.506 45.1676 117.65 45.1676C114.795 45.1676 112.068 44.4481 109.692 42.9992C107.315 41.5502 105.448 39.5217 104.09 36.9035C102.722 34.2854 102.043 31.3175 102.043 27.9799C102.043 24.6423 102.722 21.6344 104.09 19.0862H104.1ZM128.505 21.5245C127.496 19.6758 126.138 18.2568 124.441 17.2775C122.733 16.2882 120.856 15.7986 118.809 15.7986C116.762 15.7986 114.894 16.2783 113.207 17.2476C111.519 18.2169 110.171 19.6259 109.173 21.4745C108.164 23.3232 107.665 25.4917 107.665 27.9899C107.665 30.4881 108.164 32.7265 109.173 34.5952C110.181 36.4638 111.519 37.8928 113.207 38.8821C114.894 39.8714 116.762 40.361 118.809 40.361C120.856 40.361 122.733 39.8714 124.441 38.8821C126.148 37.8928 127.506 36.4638 128.505 34.5952C129.513 32.7265 130.012 30.5481 130.012 28.0498C130.012 25.5516 129.513 23.3832 128.505 21.5345V21.5245Z" fill="white"></path><path d="M170.692 14.6296C173.189 17.0578 174.427 20.5653 174.427 25.1521V44.6281H169.005V25.9315C169.005 22.6339 168.186 20.1157 166.538 18.3669C164.891 16.6182 162.644 15.7388 159.788 15.7388C156.932 15.7388 154.596 16.6481 152.888 18.4568C151.18 20.2655 150.332 22.9037 150.332 26.3612V44.6381H144.85V11.5817H150.332V16.2884C151.42 14.5996 152.888 13.2905 154.755 12.3712C156.623 11.4418 158.68 10.9822 160.936 10.9822C164.961 10.9822 168.206 12.2013 170.702 14.6296H170.692Z" fill="white"></path><path d="M5.68129 57.2192V99.2592H0.199219V57.2192H5.68129Z" fill="white"></path><path d="M40.8817 69.2504C43.3781 71.6787 44.6163 75.1862 44.6163 79.7729V99.249H39.1941V80.5524C39.1941 77.2547 38.3753 74.7365 36.7277 72.9878C35.0801 71.239 32.8333 70.3596 29.9774 70.3596C27.1216 70.3596 24.785 71.269 23.0774 73.0777C21.3699 74.8864 20.5211 77.5245 20.5211 80.9821V99.259H15.0391V66.2126H20.5211V70.9192C21.6096 69.2305 23.0774 67.9214 24.9447 67.002C26.812 66.0727 28.8691 65.613 31.1258 65.613C35.15 65.613 38.3953 66.8322 40.8917 69.2604L40.8817 69.2504Z" fill="white"></path><path d="M60.2832 70.7195V90.1956C60.2832 91.8044 60.6227 92.9436 61.3117 93.6031C62.0007 94.2627 63.179 94.6024 64.8666 94.6024H68.9008V99.2491H63.9579C60.9023 99.2491 58.6156 98.5496 57.0879 97.1406C55.5601 95.7316 54.8012 93.4233 54.8012 90.2056V70.7295H50.5273V66.2027H54.8012V57.8787H60.2832V66.2027H68.9008V70.7295H60.2832V70.7195Z" fill="white"></path><path d="M105.488 84.7794H79.086C79.2858 88.0371 80.4041 90.5753 82.4312 92.414C84.4583 94.2427 86.9247 95.162 89.8105 95.162C92.1871 95.162 94.1543 94.6124 95.7519 93.5032C97.3396 92.394 98.448 90.9151 99.0971 89.0664H105.009C104.12 92.2441 102.352 94.8223 99.7062 96.8208C97.0501 98.8094 93.7548 99.8087 89.8205 99.8087C86.6851 99.8087 83.8891 99.1092 81.4127 97.7002C78.9463 96.2912 76.9991 94.2927 75.6011 91.6945C74.1931 89.0964 73.4941 86.0985 73.4941 82.6809C73.4941 79.2634 74.1732 76.2655 75.5412 73.6974C76.9092 71.1192 78.8264 69.1406 81.2929 67.7516C83.7593 66.3626 86.6052 65.6731 89.8205 65.6731C93.0359 65.6731 95.732 66.3526 98.1385 67.7216C100.545 69.0906 102.402 70.9693 103.71 73.3576C105.019 75.7459 105.668 78.454 105.668 81.4718C105.668 82.5211 105.608 83.6203 105.488 84.7894V84.7794ZM98.6178 74.9165C97.6891 73.4076 96.4409 72.2584 94.8532 71.4789C93.2655 70.6995 91.5081 70.2998 89.5809 70.2998C86.8049 70.2998 84.4483 71.1892 82.5011 72.9579C80.5539 74.7266 79.4355 77.1849 79.1559 80.3126H100.006C100.006 78.2241 99.5465 76.4254 98.6178 74.9165Z" fill="white"></path><path d="M122.512 67.1621C124.3 66.1129 126.477 65.5933 129.053 65.5933V71.2592H127.605C121.454 71.2592 118.388 74.5968 118.388 81.2721V99.2492H112.906V66.2028H118.388V71.569C119.357 69.6803 120.725 68.2114 122.512 67.1621Z" fill="white"></path><path d="M135.553 59.7472C134.834 59.0277 134.465 58.1384 134.465 57.0891C134.465 56.0399 134.824 55.1605 135.553 54.431C136.272 53.7115 137.161 53.3418 138.209 53.3418C139.258 53.3418 140.067 53.7015 140.776 54.431C141.485 55.1605 141.834 56.0399 141.834 57.0891C141.834 58.1384 141.485 59.0177 140.776 59.7472C140.077 60.4667 139.218 60.8364 138.209 60.8364C137.201 60.8364 136.282 60.4767 135.553 59.7472ZM140.856 66.2026V99.249H135.374V66.2026H140.856Z" fill="white"></path><path d="M156.205 97.6802C153.688 96.2712 151.721 94.2726 150.293 91.6745C148.865 89.0763 148.156 86.0785 148.156 82.6609C148.156 79.2434 148.885 76.2955 150.353 73.7073C151.821 71.1092 153.818 69.1206 156.354 67.7316C158.891 66.3426 161.717 65.6531 164.852 65.6531C167.988 65.6531 170.813 66.3426 173.35 67.7316C175.886 69.1206 177.883 71.0992 179.351 73.6774C180.819 76.2555 181.548 79.2434 181.548 82.6609C181.548 86.0785 180.799 89.0863 179.291 91.6745C177.783 94.2726 175.746 96.2712 173.17 97.6802C170.594 99.0892 167.748 99.7887 164.612 99.7887C161.477 99.7887 158.721 99.0892 156.205 97.6802ZM170.154 93.5831C171.882 92.6538 173.28 91.2748 174.338 89.4161C175.407 87.5674 175.936 85.319 175.936 82.6609C175.936 80.0028 175.417 77.7544 174.368 75.9058C173.32 74.0571 171.962 72.6781 170.274 71.7787C168.587 70.8694 166.759 70.4197 164.792 70.4197C162.825 70.4197 160.948 70.8694 159.28 71.7787C157.613 72.6881 156.275 74.0571 155.276 75.9058C154.267 77.7544 153.768 80.0028 153.768 82.6609C153.768 85.319 154.257 87.6274 155.246 89.4761C156.235 91.3247 157.543 92.7038 159.19 93.6031C160.838 94.5025 162.645 94.9621 164.612 94.9621C166.58 94.9621 168.427 94.5025 170.154 93.5731V93.5831Z" fill="white"></path><path d="M198.383 67.1621C200.171 66.1129 202.348 65.5933 204.924 65.5933V71.2592H203.476C197.325 71.2592 194.259 74.5968 194.259 81.2721V99.2492H188.777V66.2028H194.259V71.569C195.228 69.6803 196.596 68.2114 198.383 67.1621Z" fill="white"></path><path d="M216.138 98.4996C214.13 97.6302 212.543 96.4311 211.374 94.8822C210.206 93.3333 209.567 91.5546 209.447 89.546H215.109C215.269 91.1948 216.048 92.5439 217.436 93.5831C218.824 94.6324 220.641 95.152 222.888 95.152C224.975 95.152 226.622 94.6923 227.831 93.763C229.039 92.8337 229.638 91.6745 229.638 90.2655C229.638 88.8565 228.999 87.7473 227.711 87.0378C226.423 86.3283 224.436 85.6388 221.749 84.9593C219.293 84.3197 217.296 83.6602 215.758 83.0007C214.21 82.3412 212.882 81.3519 211.774 80.0428C210.666 78.7337 210.116 77.015 210.116 74.8865C210.116 73.1977 210.616 71.6488 211.624 70.2398C212.633 68.8308 214.051 67.7216 215.908 66.8922C217.755 66.0628 219.862 65.6531 222.239 65.6531C225.893 65.6531 228.849 66.5824 231.096 68.4311C233.343 70.2798 234.551 72.818 234.711 76.0357H229.229C229.109 74.3069 228.42 72.9179 227.152 71.8686C225.883 70.8194 224.186 70.2998 222.059 70.2998C220.092 70.2998 218.524 70.7195 217.356 71.5689C216.188 72.4182 215.608 73.5175 215.608 74.8865C215.608 75.9757 215.958 76.8651 216.667 77.5746C217.366 78.2741 218.255 78.8437 219.323 79.2634C220.391 79.6831 221.859 80.1627 223.757 80.6823C226.123 81.3219 228.06 81.9614 229.538 82.581C231.026 83.2005 232.304 84.1399 233.363 85.389C234.421 86.6381 234.98 88.2669 235.02 90.2755C235.02 92.0842 234.521 93.713 233.512 95.162C232.504 96.611 231.096 97.7501 229.259 98.5696C227.431 99.399 225.334 99.8087 222.958 99.8087C220.421 99.8087 218.155 99.379 216.148 98.5096L216.138 98.4996Z" fill="white"></path><path d="M4.99278 121.363C5.73171 120.974 6.57049 120.784 7.51912 120.784C8.61753 120.784 9.61609 121.054 10.5148 121.603C11.4035 122.143 12.1125 122.922 12.6317 123.922C13.151 124.921 13.4106 126.08 13.4106 127.399C13.4106 128.718 13.151 129.887 12.6317 130.907C12.1125 131.926 11.4035 132.715 10.5148 133.275C9.62607 133.834 8.62752 134.114 7.51912 134.114C6.56051 134.114 5.71174 133.924 4.99278 133.545C4.27382 133.165 3.69465 132.675 3.25529 132.066V133.904H0V116.667H3.25529V122.892C3.67468 122.273 4.25385 121.763 4.99278 121.373V121.363ZM9.6061 125.381C9.28656 124.811 8.86717 124.381 8.34792 124.091C7.82867 123.792 7.2595 123.652 6.66036 123.652C6.06123 123.652 5.51203 123.802 4.99278 124.101C4.47353 124.401 4.05413 124.841 3.7346 125.42C3.41506 126 3.25529 126.67 3.25529 127.449C3.25529 128.228 3.41506 128.898 3.7346 129.478C4.05413 130.057 4.47353 130.487 4.99278 130.797C5.51203 131.096 6.07122 131.246 6.66036 131.246C7.24951 131.246 7.82867 131.096 8.34792 130.777C8.86717 130.467 9.28656 130.027 9.6061 129.448C9.92564 128.868 10.0854 128.189 10.0854 127.399C10.0854 126.61 9.92564 125.95 9.6061 125.381Z" fill="#EF6D3F"></path><path d="M28.1288 120.994L20.1404 140.01H16.6754L19.4713 133.575L14.2988 120.994H17.9535L21.2787 130.007L24.6538 120.994H28.1188H28.1288Z" fill="#EF6D3F"></path><path d="M38.6247 117.636V127.699C38.6247 128.798 38.9142 129.647 39.4834 130.227C40.0526 130.807 40.8614 131.096 41.8999 131.096C42.9384 131.096 43.7672 130.807 44.3464 130.227C44.9255 129.647 45.2051 128.798 45.2051 127.699V117.636H48.4904V127.679C48.4904 129.058 48.1908 130.227 47.5917 131.186C46.9925 132.146 46.1937 132.855 45.1951 133.345C44.1966 133.824 43.0782 134.064 41.85 134.064C40.6218 134.064 39.5433 133.824 38.5548 133.345C37.5662 132.865 36.7873 132.146 36.2181 131.186C35.649 130.227 35.3594 129.058 35.3594 127.679V117.636H38.6147H38.6247Z" fill="#EF6D3F"></path><path d="M56.5374 121.383C57.2165 120.994 57.9854 120.804 58.8541 120.804V124.231H57.9953C56.9668 124.231 56.1979 124.471 55.6787 124.951C55.1594 125.43 54.8998 126.27 54.8998 127.469V133.904H51.6445V120.994H54.8998V123.002C55.3192 122.323 55.8684 121.783 56.5474 121.393L56.5374 121.383Z" fill="#EF6D3F"></path><path d="M66.0436 121.363C66.7825 120.974 67.6213 120.784 68.5699 120.784C69.6683 120.784 70.6669 121.054 71.5656 121.603C72.4543 122.143 73.1633 122.922 73.6825 123.922C74.2018 124.921 74.4614 126.08 74.4614 127.399C74.4614 128.718 74.2018 129.887 73.6825 130.907C73.1633 131.926 72.4543 132.715 71.5656 133.275C70.6769 133.834 69.6783 134.114 68.5699 134.114C67.6113 134.114 66.7625 133.924 66.0436 133.545C65.3246 133.165 64.7454 132.675 64.3061 132.066V133.904H61.0508V116.667H64.3061V122.892C64.7255 122.273 65.3046 121.763 66.0436 121.373V121.363ZM70.6569 125.381C70.3373 124.811 69.918 124.381 69.3987 124.091C68.8795 123.792 68.3103 123.652 67.7111 123.652C67.112 123.652 66.5628 123.802 66.0436 124.101C65.5243 124.401 65.1049 124.841 64.7854 125.42C64.4658 126 64.3061 126.67 64.3061 127.449C64.3061 128.228 64.4658 128.898 64.7854 129.478C65.1049 130.057 65.5243 130.487 66.0436 130.797C66.5628 131.096 67.122 131.246 67.7111 131.246C68.3003 131.246 68.8795 131.096 69.3987 130.777C69.918 130.467 70.3373 130.027 70.6569 129.448C70.9764 128.868 71.1362 128.189 71.1362 127.399C71.1362 126.61 70.9764 125.95 70.6569 125.381Z" fill="#EF6D3F"></path><path d="M76.7786 123.921C77.2979 122.912 78.0069 122.133 78.8956 121.593C79.7843 121.053 80.7829 120.774 81.8913 120.774C82.8599 120.774 83.6986 120.964 84.4176 121.353C85.1366 121.743 85.7157 122.233 86.1551 122.822V120.984H89.4403V133.894H86.1551V132.006C85.7357 132.615 85.1565 133.115 84.4176 133.505C83.6787 133.894 82.8299 134.094 81.8713 134.094C80.7829 134.094 79.7943 133.814 78.9056 133.255C78.0169 132.695 77.3079 131.906 76.7886 130.886C76.2694 129.867 76.0098 128.698 76.0098 127.379C76.0098 126.06 76.2694 124.921 76.7886 123.911L76.7786 123.921ZM85.6858 125.4C85.3762 124.831 84.9568 124.401 84.4276 124.091C83.8984 123.792 83.3292 123.642 82.73 123.642C82.1309 123.642 81.5617 123.792 81.0525 124.081C80.5432 124.381 80.1238 124.811 79.8043 125.37C79.4847 125.94 79.325 126.61 79.325 127.389C79.325 128.168 79.4847 128.848 79.8043 129.428C80.1238 130.007 80.5432 130.457 81.0625 130.767C81.5817 131.076 82.1409 131.236 82.73 131.236C83.3192 131.236 83.8984 131.086 84.4276 130.787C84.9568 130.487 85.3762 130.047 85.6858 129.477C85.9953 128.908 86.1551 128.228 86.1551 127.439C86.1551 126.649 85.9953 125.97 85.6858 125.4Z" fill="#EF6D3F"></path><path d="M103.501 122.263C104.45 123.232 104.919 124.591 104.919 126.33V133.904H101.664V126.779C101.664 125.75 101.404 124.971 100.895 124.411C100.386 123.852 99.6865 123.582 98.7978 123.582C97.9091 123.582 97.1901 123.862 96.6709 124.411C96.1516 124.961 95.892 125.75 95.892 126.779V133.904H92.6367V120.994H95.892V122.602C96.3314 122.043 96.8806 121.603 97.5596 121.283C98.2386 120.964 98.9775 120.804 99.7864 120.804C101.324 120.804 102.562 121.293 103.511 122.263H103.501Z" fill="#EF6D3F"></path><path d="M116.81 131.316H122.162V133.904H113.545V117.636H116.8V131.316H116.81Z" fill="#EF6D3F"></path><path d="M124.181 123.921C124.7 122.912 125.409 122.133 126.298 121.593C127.187 121.053 128.185 120.774 129.294 120.774C130.262 120.774 131.101 120.964 131.82 121.353C132.539 121.743 133.118 122.233 133.557 122.822V120.984H136.843V133.894H133.557V132.006C133.138 132.615 132.559 133.115 131.82 133.505C131.081 133.894 130.232 134.094 129.274 134.094C128.185 134.094 127.197 133.814 126.308 133.255C125.419 132.695 124.71 131.906 124.191 130.886C123.672 129.867 123.412 128.698 123.412 127.379C123.412 126.06 123.672 124.921 124.191 123.911L124.181 123.921ZM133.088 125.4C132.779 124.831 132.359 124.401 131.83 124.091C131.301 123.792 130.732 123.642 130.132 123.642C129.533 123.642 128.964 123.792 128.455 124.081C127.946 124.381 127.526 124.811 127.207 125.37C126.887 125.94 126.727 126.61 126.727 127.389C126.727 128.168 126.887 128.848 127.207 129.428C127.526 130.007 127.946 130.457 128.465 130.767C128.984 131.076 129.543 131.236 130.132 131.236C130.722 131.236 131.301 131.086 131.83 130.787C132.359 130.487 132.779 130.047 133.088 129.477C133.398 128.908 133.557 128.228 133.557 127.439C133.557 126.649 133.398 125.97 133.088 125.4Z" fill="#EF6D3F"></path><path d="M139.968 123.922C140.487 122.912 141.196 122.133 142.095 121.593C142.994 121.054 143.992 120.774 145.101 120.774C145.939 120.774 146.738 120.954 147.497 121.323C148.256 121.693 148.865 122.173 149.315 122.782V116.657H152.62V133.894H149.315V131.986C148.915 132.625 148.346 133.135 147.617 133.525C146.888 133.914 146.039 134.104 145.081 134.104C143.992 134.104 143.004 133.824 142.105 133.265C141.206 132.705 140.497 131.916 139.978 130.897C139.459 129.877 139.199 128.708 139.199 127.389C139.199 126.07 139.459 124.931 139.978 123.922H139.968ZM148.875 125.4C148.566 124.831 148.146 124.401 147.617 124.091C147.088 123.792 146.519 123.642 145.92 123.642C145.32 123.642 144.751 123.792 144.242 124.081C143.733 124.381 143.313 124.811 142.994 125.371C142.674 125.94 142.514 126.61 142.514 127.389C142.514 128.169 142.674 128.848 142.994 129.428C143.313 130.007 143.733 130.457 144.252 130.767C144.771 131.076 145.33 131.236 145.92 131.236C146.509 131.236 147.088 131.086 147.617 130.787C148.146 130.487 148.566 130.047 148.875 129.478C149.185 128.908 149.345 128.228 149.345 127.439C149.345 126.65 149.185 125.97 148.875 125.4Z" fill="#EF6D3F"></path><path d="M155.755 123.922C156.274 122.912 156.983 122.133 157.882 121.593C158.781 121.054 159.779 120.774 160.888 120.774C161.727 120.774 162.525 120.954 163.284 121.323C164.043 121.693 164.652 122.173 165.102 122.782V116.657H168.407V133.894H165.102V131.986C164.702 132.625 164.133 133.135 163.404 133.525C162.675 133.914 161.826 134.104 160.868 134.104C159.779 134.104 158.791 133.824 157.892 133.265C156.993 132.705 156.284 131.916 155.765 130.897C155.246 129.877 154.986 128.708 154.986 127.389C154.986 126.07 155.246 124.931 155.765 123.922H155.755ZM164.662 125.4C164.353 124.831 163.933 124.401 163.404 124.091C162.875 123.792 162.306 123.642 161.707 123.642C161.107 123.642 160.538 123.792 160.029 124.081C159.52 124.381 159.1 124.811 158.781 125.371C158.461 125.94 158.302 126.61 158.302 127.389C158.302 128.169 158.461 128.848 158.781 129.428C159.1 130.007 159.52 130.457 160.039 130.767C160.558 131.076 161.117 131.236 161.707 131.236C162.296 131.236 162.875 131.086 163.404 130.787C163.933 130.487 164.353 130.047 164.662 129.478C164.972 128.908 165.132 128.228 165.132 127.439C165.132 126.65 164.972 125.97 164.662 125.4Z" fill="#EF6D3F"></path><path d="M183.495 128.418H174.069C174.149 129.348 174.468 130.077 175.047 130.607C175.617 131.136 176.326 131.396 177.164 131.396C178.373 131.396 179.241 130.876 179.751 129.837H183.266C182.896 131.076 182.177 132.106 181.129 132.905C180.08 133.704 178.782 134.104 177.244 134.104C175.996 134.104 174.888 133.824 173.899 133.275C172.911 132.725 172.142 131.946 171.592 130.936C171.043 129.927 170.764 128.758 170.764 127.439C170.764 126.12 171.033 124.931 171.582 123.921C172.122 122.912 172.881 122.133 173.859 121.593C174.838 121.053 175.966 120.774 177.234 120.774C178.502 120.774 179.561 121.033 180.53 121.563C181.498 122.093 182.257 122.842 182.786 123.812C183.326 124.781 183.595 125.9 183.595 127.159C183.595 127.629 183.565 128.048 183.505 128.418H183.495ZM180.21 126.23C180.19 125.39 179.89 124.721 179.301 124.211C178.712 123.702 177.993 123.452 177.134 123.452C176.326 123.452 175.647 123.692 175.097 124.181C174.548 124.671 174.209 125.35 174.089 126.22H180.21V126.23Z" fill="#EF6D3F"></path><path d="M190.864 121.383C191.543 120.994 192.312 120.804 193.18 120.804V124.231H192.322C191.293 124.231 190.524 124.471 190.005 124.951C189.486 125.43 189.226 126.27 189.226 127.469V133.904H185.971V120.994H189.226V123.002C189.645 122.323 190.195 121.783 190.874 121.393L190.864 121.383Z" fill="#EF6D3F"></path></g><defs><clipPath id="clip0_1056_356"><rect width="235" height="140" fill="white"></rect></clipPath></defs></svg>