<svg xmlns="http://www.w3.org/2000/svg" width="374" height="248" viewBox="0 0 374 248" fill="none"><path d="M31.8719 113.797V82.5071H82.1372C81.873 79.7058 81.7673 76.9044 81.7673 74.0503C81.7673 68.0248 82.3487 62.105 83.5115 56.3966L31.9247 56.2909V32.7703H91.8626C97.1481 22.5692 104.389 13.531 113.11 5.86694H0.792969V140.754H111.155C102.804 133.037 95.9325 123.946 90.9641 113.797H31.8719Z" fill="white"></path><path d="M332.299 62.9506L313.906 58.8807C300.533 55.9737 294.772 52.1681 294.719 44.5041C294.666 35.783 304.445 30.9731 318.346 31.026C331.348 31.0788 343.082 35.3601 354.023 41.9142L368.928 18.7636C355.027 10.3067 335.629 4.06979 315.544 4.12265C292.975 4.1755 274.37 13.9009 266.759 28.5418C274.264 41.967 278.493 57.4536 278.493 74.1559V74.2088C285.047 78.8072 293.927 82.3485 305.343 84.9384L322.046 88.6911C338.008 92.2324 343.135 95.2452 342.606 103.491C342.078 112.106 333.092 117.286 318.768 117.339C303.44 117.339 287.002 112.899 273.577 104.971L273.207 105.499C270.142 114.326 265.755 122.466 260.311 129.813C275.744 138.745 297.151 144.348 317.447 144.295C350.904 144.242 373.262 127.064 373.209 103.491C373.209 81.7671 361.264 69.3461 332.299 62.9506Z" fill="white"></path><path d="M255.978 81.6614V81.7142C254.816 92.3381 249.636 98.0465 242.395 100.636C225.428 106.715 196.886 95.6151 180.448 89.7482C180.448 89.7482 180.448 89.7482 180.395 89.7482C180.025 89.5896 179.603 90.1182 179.233 90.2239C179.127 90.2768 179.021 90.2768 178.968 90.2239C178.863 90.1711 178.81 90.3825 178.757 90.4353C178.704 90.4882 178.704 90.4882 178.651 90.4882C170.987 86.2598 162.002 80.5514 162.002 80.5514C156.928 77.4858 152.594 74.7373 149.369 72.0945C140.49 75.8473 132.667 77.0101 127.804 76.8515C124.95 76.7987 121.99 76.2173 119.665 75.6359C117.392 75.0544 115.701 74.473 115.436 74.3145C114.485 73.8388 113.851 73.3631 113.586 73.0988C113.534 73.0988 113.481 73.0459 113.481 73.0459C111.895 71.7246 107.244 69.5046 106.239 68.5004C106.187 68.4475 105.975 68.1833 105.552 67.919C105.288 67.7076 105.077 67.6018 104.865 67.4961C104.865 67.4433 104.865 67.4433 104.918 67.3904C106.134 56.2908 111.684 50.5296 119.453 48.1511C136.526 42.8656 164.327 53.648 180.448 59.4093C180.448 59.4093 180.448 59.4093 180.501 59.4093C180.924 59.5678 181.981 58.6164 182.404 58.7222C190.068 62.9506 198.948 68.6061 198.948 68.6061C204.022 71.6717 208.356 74.4202 211.58 77.0629C220.46 73.3102 228.282 72.1474 233.145 72.306C235.999 72.4117 238.959 72.9931 241.232 73.5745C243.505 74.1559 245.196 74.7373 245.46 74.8959C246.517 75.3716 247.152 75.953 247.363 76.1115L247.416 76.1644C249.002 77.5386 253.706 79.7057 254.71 80.71C254.763 80.7628 254.869 80.9214 255.133 81.0799C255.239 81.1328 255.291 81.1857 255.397 81.2914C255.556 81.3971 255.82 81.5556 255.978 81.6614Z" fill="#7F2433"></path><path d="M182.19 58.6167C182.243 58.6167 182.243 58.6694 182.295 58.6694C182.243 58.6694 182.19 58.6694 182.19 58.6167C182.137 58.6167 182.137 58.6167 182.19 58.6167C182.137 58.6167 182.137 58.6167 182.19 58.6167Z" fill="#9E2B39"></path><path d="M256.506 75.6358C256.506 76.9043 256.453 78.1728 256.401 79.3885V79.4413C256.242 80.4456 256.083 81.2384 256.031 81.6613H255.978C255.713 81.4498 255.396 81.2384 255.079 80.9741C253.124 79.5999 250.534 78.0143 247.362 76.6929C246.358 76.27 245.354 75.9 244.244 75.5829C232.351 71.9359 221.569 75.3715 215.385 77.4328C198.471 83.0884 188.217 86.8411 180.448 89.6953H180.395C180.025 89.8538 179.602 90.0124 179.232 90.171C179.073 90.2238 178.915 90.3295 178.756 90.3824C178.703 90.3824 178.703 90.3824 178.598 90.4352C163.587 96.5136 147.572 103.649 127.064 104.23C125.108 104.283 122.571 104.283 119.928 103.808C117.338 103.332 114.59 102.381 112.106 100.478C109.674 98.6807 107.877 96.3022 106.609 93.7123C105.129 87.951 104.336 81.8727 104.336 75.5829C104.336 72.8873 104.495 70.2974 104.759 67.6546C104.759 67.6018 104.759 67.6018 104.759 67.5489C104.759 67.4432 104.812 67.3375 104.812 67.2318H104.864C106.873 68.7646 109.78 70.7202 113.533 72.253C114.537 72.6759 115.541 73.0459 116.651 73.363C128.544 77.01 139.273 73.5744 145.51 71.5131C162.424 65.8575 172.678 62.1048 180.448 59.2506H180.5C181.082 58.9863 181.663 58.7749 182.297 58.5106H182.35C197.361 52.4323 213.376 45.2968 233.884 44.7154C235.576 44.6626 237.796 44.6626 240.068 44.9797C242.923 45.4025 246.041 46.3539 248.842 48.4153C250.534 49.6838 251.908 51.2166 253.018 52.8551C255.238 60.1492 256.506 67.7603 256.506 75.6358Z" fill="#FE3540"></path><path d="M205.182 12.791C205.604 12.791 206.027 12.7382 206.397 12.6853C205.974 12.6853 205.604 12.7382 205.182 12.791Z" fill="#7F2433"></path><path d="M234.888 35.466C232.086 37.3159 228.228 38.003 225.057 37.5273C208.936 36.4702 195.141 26.6391 180.024 21.4593H179.971C179.918 21.4065 179.813 21.4065 179.76 21.3536C185.574 18.6051 191.969 16.4909 198.523 15.3281C197.995 15.4338 197.466 15.5395 196.938 15.6452C197.731 15.4867 198.523 15.3281 199.316 15.1695C199.369 15.1695 199.475 15.1695 199.528 15.1167C200.849 14.9053 202.17 14.7467 203.439 14.641C203.597 14.641 203.756 14.5881 203.862 14.5881C203.967 14.5881 204.126 14.5881 204.232 14.5881C204.549 14.5353 204.866 14.5353 205.183 14.4824C205.183 14.4824 205.183 14.4824 205.236 14.4824C205.659 14.4824 206.029 14.4296 206.452 14.3767C206.98 14.3767 207.086 14.3767 207.192 14.3767C207.509 14.3767 207.879 14.3767 208.196 14.3239C208.83 14.3239 209.412 14.271 210.046 14.271C210.997 14.271 211.843 14.271 212.689 14.271C217.974 14.3239 220.775 14.9053 220.775 14.9053C223.101 15.381 227.594 16.6495 232.774 20.9308C232.879 20.9836 232.932 21.0893 233.038 21.195C233.144 21.2479 233.249 21.3536 233.355 21.4593C233.355 21.4593 233.355 21.4593 233.408 21.4593C233.619 21.565 233.831 21.7236 234.042 21.935C234.201 22.0407 234.359 22.1993 234.518 22.305C234.676 22.4636 234.888 22.6221 235.046 22.7807C235.205 22.8864 235.364 23.045 235.575 23.2035C235.575 23.2035 235.575 23.2035 235.628 23.2035C235.681 23.2564 235.786 23.3092 235.839 23.415C237.213 24.7363 238.271 26.2691 238.535 28.1719C238.799 31.5018 237.213 33.9332 234.888 35.466Z" fill="#7F2433"></path><path d="M232.983 20.085C232.666 19.715 232.296 19.3979 231.979 19.0279C231.979 19.0279 231.979 19.0279 231.926 18.975C218.554 7.08261 200.583 0 180.392 0C161.629 0 144.768 6.13121 131.713 16.5966C131.554 16.7551 131.343 16.9137 131.131 17.0723C128.489 19.345 126.004 21.8292 123.679 24.5249C122.622 26.7976 122.252 29.599 123.362 31.8717C124.049 33.3517 125.212 34.4088 126.533 35.2016C127.801 35.9416 129.334 36.4173 130.761 36.7344C131.29 36.8401 131.766 36.893 132.241 36.9458C136.047 37.3687 139.958 36.7344 143.658 35.8359C154.282 33.246 164.219 28.3833 174.208 23.9434C176.111 23.1506 178.014 22.3049 179.917 21.5121C185.202 19.345 190.594 17.3365 196.143 16.068C199.05 15.3809 201.957 14.8523 204.917 14.5881C205.393 14.5352 205.869 14.5352 206.344 14.4823C206.609 14.4823 206.82 14.4295 207.084 14.4295C207.402 14.4295 207.719 14.3766 208.089 14.3766C208.723 14.3766 209.304 14.3238 209.939 14.3238C210.89 14.3238 211.789 14.3766 212.687 14.4295C215.7 14.5881 218.713 15.1166 221.62 15.9094C224.21 16.5966 226.747 17.6008 229.125 18.8693C230.341 19.5036 231.451 20.1907 232.561 20.9836C232.666 21.0364 232.719 21.1421 232.825 21.2478C232.931 21.3535 233.036 21.4064 233.142 21.5121C233.142 21.5121 233.195 21.5121 233.195 21.565C233.406 21.7235 233.618 21.8821 233.829 21.9878C233.988 22.0935 234.146 22.2521 234.305 22.3578C234.463 22.5164 234.675 22.6749 234.833 22.8335C234.992 22.9921 235.151 23.0978 235.362 23.2563C235.468 23.362 235.521 23.4149 235.626 23.4677C234.675 21.8821 233.671 20.825 232.983 20.085ZM198.522 15.328C198.786 15.2752 199.05 15.2223 199.262 15.1695C199.315 15.1695 199.42 15.1695 199.473 15.1166C200.055 15.0109 200.636 14.958 201.27 14.8523C200.372 15.0109 199.42 15.2223 198.522 15.328Z" fill="#FE3540"></path><path d="M156.663 136.526C156.663 136.526 156.61 136.526 156.663 136.526C156.24 136.526 155.87 136.578 155.447 136.631C155.87 136.578 156.24 136.526 156.663 136.526Z" fill="#7F2433"></path><path d="M163.746 133.989C164.063 133.936 164.327 133.883 164.645 133.83C164.116 133.936 163.587 134.042 163.059 134.147C162.953 134.147 162.848 134.2 162.742 134.2C162.583 134.253 162.425 134.253 162.266 134.253C162.16 134.253 162.055 134.253 161.949 134.306C161.262 134.411 160.575 134.517 159.888 134.57C159.359 134.623 158.831 134.676 158.302 134.729C158.196 134.729 158.143 134.729 158.038 134.729C157.562 134.781 157.139 134.834 156.663 134.834C156.663 134.834 156.663 134.834 156.611 134.834C156.241 134.834 155.818 134.887 155.448 134.887C154.919 134.94 154.814 134.94 154.761 134.94C152.594 135.046 150.691 135.046 149.052 134.993H148.947C144.137 134.887 141.6 134.411 141.6 134.411C139.327 133.989 134.993 132.773 130.024 128.756C129.919 128.703 129.813 128.597 129.654 128.492C129.549 128.439 129.496 128.386 129.39 128.28C129.39 128.28 129.39 128.28 129.337 128.28C129.232 128.227 129.126 128.122 129.02 128.069C128.809 127.91 128.65 127.805 128.492 127.699C128.386 127.646 128.333 127.593 128.28 127.54C128.069 127.382 127.91 127.223 127.752 127.117C127.593 127.012 127.434 126.853 127.276 126.747C127.276 126.747 127.276 126.747 127.223 126.747C127.17 126.695 127.117 126.642 127.064 126.589C127.012 126.536 126.959 126.536 126.959 126.483C125.637 125.268 124.633 123.788 124.369 122.096C124.052 118.978 125.532 116.758 127.804 115.278C130.5 113.534 134.306 112.899 137.371 113.322C152.964 114.326 166.336 123.576 180.924 128.439H180.977C181.03 128.492 181.135 128.492 181.188 128.545C175.85 130.923 169.877 132.879 163.746 133.989Z" fill="#7F2433"></path><path d="M235.839 118.607C235.152 117.233 234.042 116.229 232.773 115.436C231.505 114.749 230.078 114.22 228.65 114.009C227.91 113.85 227.118 113.797 226.378 113.745C222.942 113.533 219.507 114.062 216.124 114.855C205.87 117.286 196.25 121.831 186.525 126.06C184.728 126.853 182.878 127.593 181.028 128.333C176.535 130.13 171.937 131.768 167.285 132.984C163.797 133.882 160.256 134.57 156.662 134.887C156.239 134.94 155.869 134.94 155.446 134.992C155.182 134.992 154.97 135.045 154.759 135.045C152.75 135.151 150.795 135.151 148.786 134.992C146.038 134.834 143.289 134.358 140.646 133.671C138.109 132.984 135.678 132.085 133.405 130.87C132.242 130.288 131.132 129.601 130.023 128.914C129.917 128.808 129.811 128.755 129.653 128.65C129.547 128.544 129.494 128.491 129.388 128.438C129.283 128.333 129.177 128.28 129.071 128.227C128.86 128.068 128.701 127.963 128.543 127.857C128.49 127.804 128.384 127.751 128.331 127.698C128.225 127.645 128.173 127.593 128.067 127.487C127.961 127.434 127.908 127.328 127.803 127.276C127.644 127.117 127.485 127.011 127.327 126.853C127.274 126.8 127.221 126.747 127.168 126.694C127.115 126.641 127.063 126.641 127.01 126.588C128.067 128.068 129.018 129.125 129.705 129.813C130.551 130.711 131.714 131.768 132.137 132.191C132.454 132.455 132.665 132.667 132.771 132.772C132.982 132.931 133.194 133.142 133.352 133.301C146.143 142.921 162.37 148.629 180.341 148.629C199.58 148.629 216.811 142.128 229.972 131.24C231.928 129.495 233.725 127.645 235.469 125.743C236.526 123.364 236.843 120.774 235.839 118.607ZM162.74 134.2C162.581 134.2 162.423 134.252 162.264 134.305C162.159 134.305 162.053 134.305 161.947 134.358C162.053 134.358 162.159 134.305 162.264 134.305C162.793 134.2 163.268 134.147 163.744 134.041C163.533 134.094 163.321 134.147 163.057 134.2C162.951 134.147 162.846 134.2 162.74 134.2Z" fill="#FE3540"></path><path d="M1.26562 211.21C1.26562 190.755 17.5979 174.687 38.9514 174.687C51.0553 174.687 61.5207 179.814 68.339 188.006L56.4994 197.256C52.4295 192.129 46.0341 189.063 38.8986 189.063C26.5833 189.063 16.5408 198.207 16.5408 211.157C16.5408 224.106 26.5305 233.25 38.8986 233.25C46.1398 233.25 52.5881 229.656 55.918 225.269V211.157H71.3517V230.185C64.3748 240.333 52.4295 247.574 38.9514 247.574C17.5979 247.627 1.26562 231.665 1.26562 211.21Z" fill="white"></path><path d="M86.8906 176.008H102.324L102.219 232.193H137.737V246.2H86.8906V176.008Z" fill="white"></path><path d="M143.234 211.104C143.234 190.649 159.567 174.687 180.92 174.687C202.274 174.687 218.606 190.596 218.606 211.104C218.606 231.559 202.274 247.627 180.92 247.627C159.62 247.627 143.234 231.559 143.234 211.104ZM203.225 211.104C203.225 198.155 193.235 189.011 180.867 189.011C168.552 189.011 158.51 198.155 158.51 211.104C158.51 224.054 168.499 233.198 180.867 233.198C193.235 233.198 203.225 224.054 203.225 211.104Z" fill="white"></path><path d="M233.615 176.008H266.121C281.396 176.008 290.276 182.509 290.276 194.19C290.276 202.277 286.048 206.664 282.136 208.408C286.788 210.047 293.923 214.434 293.923 226.643C293.923 239.646 285.572 246.2 269.821 246.2H233.668V176.008H233.615ZM265.804 202.33C271.565 202.33 275.107 200.216 275.107 196.093C275.107 191.865 271.777 190.015 265.698 190.015H248.52V202.33H265.804ZM269.24 232.193C275.371 232.193 278.807 229.603 278.807 224.106C278.912 218.768 275.318 215.914 269.24 215.914H248.468V232.193H269.24Z" fill="white"></path><path d="M308.408 176.008H363.801V190.015H323.736V202.277L351.855 202.33V215.861H323.736V232.14H363.853V246.147H308.408V176.008Z" fill="white"></path></svg>