<svg xmlns="http://www.w3.org/2000/svg" width="112" height="190" viewBox="0 0 112 190" fill="none"><path d="M0 176.5H1.59998L3.69998 181.7C4.19998 182.9 4.49998 183.7 4.59998 184.3H4.69998C4.79998 184 4.89998 183.5 5.19998 182.8C5.39998 182.1 6.19998 180 7.59998 176.5H9.19998L5.09998 186.9C4.69998 187.9 4.19998 188.7 3.69998 189.1C3.19998 189.5 2.49998 189.7 1.69998 189.7C1.29998 189.7 0.799994 189.7 0.399994 189.6V188.5C0.699994 188.6 1.1 188.6 1.5 188.6C2.5 188.6 3.19998 188.1 3.59998 187L4.09998 185.7L0 176.5ZM19 181.1C19 182.6 18.6 183.8 17.8 184.6C17 185.4 15.9 185.9 14.5 185.9C13.6 185.9 12.9 185.7 12.2 185.3C11.5 184.9 11 184.4 10.7 183.6C10.3 182.9 10.2 182 10.2 181.1C10.2 179.6 10.6 178.4 11.4 177.6C12.2 176.8 13.3 176.4 14.7 176.4C16.1 176.4 17.1 176.8 17.9 177.7C18.6 178.5 19 179.7 19 181.1ZM11.6 181.1C11.6 182.3 11.8 183.2 12.3 183.8C12.8 184.4 13.5 184.7 14.5 184.7C15.5 184.7 16.2 184.4 16.7 183.8C17.2 183.2 17.4 182.3 17.4 181.1C17.4 179.9 17.2 179.1 16.7 178.5C16.2 177.9 15.5 177.6 14.5 177.6C13.5 177.6 12.8 177.9 12.3 178.5C11.9 179 11.6 179.9 11.6 181.1ZM29.5 176.5V177.4L27.7 177.6C27.9 177.8 28 178 28.1 178.4C28.2 178.7 28.3 179.1 28.3 179.5C28.3 180.4 28 181.1 27.3 181.6C26.7 182.1 25.8 182.4 24.6 182.4C24.3 182.4 24 182.4 23.8 182.3C23.2 182.6 22.9 183 22.9 183.5C22.9 183.8 23 183.9 23.2 184.1C23.4 184.2 23.8 184.3 24.3 184.3H26C27 184.3 27.8 184.5 28.4 184.9C29 185.3 29.2 185.9 29.2 186.7C29.2 187.7 28.8 188.5 27.9 189C27 189.5 25.8 189.8 24.1 189.8C22.8 189.8 21.9 189.6 21.2 189.1C20.5 188.7 20.2 188 20.2 187.2C20.2 186.6 20.4 186.2 20.8 185.8C21.2 185.4 21.7 185.1 22.4 185C22.2 184.9 21.9 184.7 21.8 184.5C21.6 184.3 21.5 184 21.5 183.7C21.5 183.4 21.6 183.1 21.8 182.8C22 182.5 22.3 182.3 22.7 182.1C22.2 181.9 21.8 181.6 21.5 181.1C21.2 180.6 21 180.1 21 179.5C21 178.5 21.3 177.7 22 177.2C22.7 176.7 23.5 176.4 24.7 176.4C25.2 176.4 25.7 176.5 26.1 176.6H29.5V176.5ZM21.8 187.2C21.8 187.7 22 188.1 22.5 188.3C22.9 188.6 23.6 188.7 24.4 188.7C25.6 188.7 26.5 188.5 27.1 188.2C27.7 187.9 28 187.4 28 186.8C28 186.3 27.8 186 27.5 185.8C27.2 185.6 26.6 185.5 25.7 185.5H23.9C23.2 185.5 22.7 185.7 22.4 186C21.9 186.2 21.8 186.7 21.8 187.2ZM22.5 179.5C22.5 180.1 22.7 180.6 23.1 181C23.5 181.3 24 181.5 24.7 181.5C26.1 181.5 26.8 180.8 26.8 179.5C26.8 178.1 26.1 177.4 24.6 177.4C23.9 177.4 23.4 177.6 23 177.9C22.7 178.3 22.5 178.8 22.5 179.5ZM37.4 185.7L37.1 184.4H37C36.5 185 36 185.4 35.6 185.6C35.1 185.8 34.5 185.9 33.8 185.9C32.8 185.9 32.1 185.7 31.6 185.2C31.1 184.7 30.8 184.1 30.8 183.2C30.8 181.4 32.4 180.4 35.5 180.3L37.1 180.2V179.6C37.1 178.9 36.9 178.4 36.6 178C36.3 177.7 35.8 177.5 35 177.5C34.2 177.5 33.3 177.7 32.3 178.2L31.9 177.1C32.4 176.9 32.9 176.7 33.5 176.5C34.1 176.4 34.6 176.3 35.2 176.3C36.4 176.3 37.2 176.5 37.8 177C38.4 177.5 38.6 178.3 38.6 179.3V185.5H37.4V185.7ZM34.1 184.7C35 184.7 35.7 184.5 36.2 184C36.7 183.5 37 182.9 37 182V181.2L35.5 181.3C34.3 181.3 33.5 181.5 33 181.8C32.5 182.1 32.2 182.6 32.2 183.2C32.2 183.7 32.4 184.1 32.7 184.3C33 184.6 33.5 184.7 34.1 184.7ZM54 176.5V177.4L52.2 177.6C52.4 177.8 52.5 178 52.6 178.4C52.7 178.7 52.8 179.1 52.8 179.5C52.8 180.4 52.5 181.1 51.8 181.6C51.2 182.1 50.3 182.4 49.1 182.4C48.8 182.4 48.5 182.4 48.3 182.3C47.7 182.6 47.4 183 47.4 183.5C47.4 183.8 47.5 183.9 47.7 184.1C47.9 184.2 48.3 184.3 48.8 184.3H50.5C51.5 184.3 52.3 184.5 52.9 184.9C53.5 185.3 53.7 185.9 53.7 186.7C53.7 187.7 53.3 188.5 52.4 189C51.5 189.5 50.3 189.8 48.6 189.8C47.3 189.8 46.4 189.6 45.7 189.1C45 188.7 44.7 188 44.7 187.2C44.7 186.6 44.9 186.2 45.3 185.8C45.7 185.4 46.2 185.1 46.9 185C46.7 184.9 46.4 184.7 46.3 184.5C46.1 184.3 46 184 46 183.7C46 183.4 46.1 183.1 46.3 182.8C46.5 182.5 46.8 182.3 47.2 182.1C46.7 181.9 46.3 181.6 46 181.1C45.7 180.6 45.5 180.1 45.5 179.5C45.5 178.5 45.8 177.7 46.5 177.2C47.1 176.7 48 176.4 49.2 176.4C49.7 176.4 50.2 176.5 50.6 176.6H54V176.5ZM46.4 187.2C46.4 187.7 46.6 188.1 47.1 188.3C47.5 188.6 48.2 188.7 49 188.7C50.2 188.7 51.1 188.5 51.7 188.2C52.3 187.9 52.6 187.4 52.6 186.8C52.6 186.3 52.4 186 52.1 185.8C51.8 185.6 51.2 185.5 50.3 185.5H48.5C47.8 185.5 47.3 185.7 47 186C46.7 186.3 46.4 186.7 46.4 187.2ZM47.1 179.5C47.1 180.1 47.3 180.6 47.7 181C48.1 181.3 48.6 181.5 49.3 181.5C50.7 181.5 51.4 180.8 51.4 179.5C51.4 178.1 50.7 177.4 49.2 177.4C48.5 177.4 48 177.6 47.6 177.9C47.2 178.2 47.1 178.8 47.1 179.5ZM62 185.7L61.7 184.4H61.6C61.1 185 60.6 185.4 60.2 185.6C59.7 185.8 59.1 185.9 58.4 185.9C57.4 185.9 56.7 185.7 56.2 185.2C55.7 184.7 55.4 184.1 55.4 183.2C55.4 181.4 57 180.4 60.1 180.3L61.7 180.2V179.6C61.7 178.9 61.5 178.4 61.2 178C60.9 177.7 60.4 177.5 59.6 177.5C58.8 177.5 57.9 177.7 56.9 178.2L56.5 177.1C57 176.9 57.5 176.7 58.1 176.5C58.7 176.4 59.2 176.3 59.8 176.3C61 176.3 61.8 176.5 62.4 177C63 177.5 63.2 178.3 63.2 179.3V185.5H62V185.7ZM58.7 184.7C59.6 184.7 60.3 184.5 60.8 184C61.3 183.5 61.6 182.9 61.6 182V181.2L60.1 181.3C58.9 181.3 58.1 181.5 57.6 181.8C57.1 182.1 56.8 182.6 56.8 183.2C56.8 183.7 57 184.1 57.3 184.3C57.6 184.6 58.1 184.7 58.7 184.7ZM70.5 176.4C70.9 176.4 71.3 176.4 71.7 176.5L71.5 177.8C71.1 177.7 70.7 177.7 70.4 177.7C69.6 177.7 69 178 68.4 178.6C67.8 179.2 67.6 179.9 67.6 180.8V185.7H66.1V176.6H67.3L67.5 178.3H67.6C68 177.7 68.4 177.2 68.9 176.9C69.3 176.5 69.9 176.4 70.5 176.4ZM80 184.5C79.2 185.4 78.2 185.9 76.9 185.9C75.6 185.9 74.7 185.5 74 184.7C73.3 183.9 72.9 182.7 72.9 181.2C72.9 179.7 73.3 178.5 74 177.7C74.7 176.9 75.7 176.4 76.9 176.4C78.2 176.4 79.2 176.9 79.9 177.8H80L79.9 177.1V176.5V172.8H81.4V185.8H80.2L80 184.5ZM77.1 184.7C78.1 184.7 78.8 184.4 79.3 183.9C79.7 183.4 80 182.6 80 181.4V181.1C80 179.8 79.8 178.9 79.3 178.3C78.8 177.7 78.1 177.5 77.1 177.5C76.2 177.5 75.6 177.8 75.1 178.4C74.6 179 74.4 179.9 74.4 181.1C74.4 182.3 74.6 183.1 75.1 183.7C75.5 184.4 76.2 184.7 77.1 184.7ZM88.5 185.8C87.1 185.8 85.9 185.4 85.1 184.6C84.3 183.8 83.9 182.6 83.9 181.2C83.9 179.7 84.3 178.6 85 177.7C85.8 176.8 86.8 176.4 88.1 176.4C89.3 176.4 90.3 176.8 91 177.5C91.7 178.3 92.1 179.2 92.1 180.5V181.4H85.5C85.5 182.5 85.8 183.3 86.4 183.8C86.9 184.4 87.7 184.6 88.7 184.6C89.7 184.6 90.8 184.4 91.8 184V185.2C91.3 185.4 90.8 185.6 90.3 185.7C89.8 185.8 89.2 185.8 88.5 185.8ZM88.1 177.5C87.3 177.5 86.7 177.7 86.2 178.2C85.7 178.7 85.5 179.3 85.4 180.2H90.4C90.4 179.3 90.2 178.7 89.8 178.2C89.5 177.8 88.9 177.5 88.1 177.5ZM101.2 185.7V179.8C101.2 179.1 101 178.5 100.7 178.1C100.3 177.7 99.8 177.5 99 177.5C98 177.5 97.3 177.8 96.8 178.3C96.3 178.8 96.1 179.7 96.1 180.9V185.7H94.6V176.6H95.8L96 177.9H96.1C96.4 177.4 96.8 177.1 97.4 176.9C97.9 176.7 98.5 176.5 99.2 176.5C100.4 176.5 101.2 176.8 101.8 177.3C102.4 177.8 102.7 178.7 102.7 179.8V185.8H101.2V185.7ZM111.9 183.2C111.9 184.1 111.6 184.7 110.9 185.2C110.2 185.7 109.3 185.9 108.1 185.9C106.8 185.9 105.8 185.7 105.1 185.3V184C105.6 184.2 106.1 184.4 106.6 184.5C107.1 184.6 107.6 184.7 108.1 184.7C108.9 184.7 109.4 184.6 109.9 184.4C110.3 184.2 110.5 183.8 110.5 183.3C110.5 182.9 110.3 182.6 110 182.4C109.7 182.1 109 181.8 108.1 181.5C107.2 181.2 106.6 180.9 106.2 180.7C105.8 180.5 105.5 180.2 105.4 179.9C105.2 179.6 105.1 179.2 105.1 178.8C105.1 178.1 105.4 177.5 106.1 177C106.7 176.6 107.6 176.4 108.7 176.4C109.7 176.4 110.8 176.6 111.7 177L111.2 178.1C110.2 177.7 109.4 177.5 108.6 177.5C107.9 177.5 107.4 177.6 107 177.8C106.6 178 106.5 178.3 106.5 178.7C106.5 178.9 106.6 179.2 106.7 179.3C106.8 179.5 107 179.6 107.3 179.8C107.6 180 108.2 180.2 109 180.5C110.1 180.9 110.9 181.3 111.3 181.7C111.7 182.1 111.9 182.6 111.9 183.2Z" fill="white"></path><path d="M56.2984 0.699951H55.5984C29.2984 0.699951 7.89844 22.1 7.89844 48.4V141.5H103.898V48.4C103.998 22.1 82.5984 0.699951 56.2984 0.699951ZM58.9984 6.79995C71.6984 7.59995 82.8984 14.0999 89.9984 23.7999L76.1984 83C70.6984 81.4 64.8984 80.4 58.9984 80.1V6.79995ZM52.9984 6.79995V80.1C47.0984 80.2999 41.2984 81.3 35.8984 82.9L23.0984 22.2999C30.1984 13.4999 40.8984 7.59995 52.9984 6.79995ZM13.8984 48.4C13.8984 41.6 15.4984 35.2 18.3984 29.6L30.0984 85C24.2984 87.3 18.8984 90.3 13.8984 93.9V48.4ZM97.9984 135.5H13.9984V101.4C25.3984 91.8 39.9984 86 55.9984 86C71.9984 86 86.6984 91.8 97.9984 101.4V135.5ZM81.8984 84.9L94.3984 31.4C96.6984 36.6 97.9984 42.4 97.9984 48.4V93.8C93.0984 90.2 87.5984 87.2 81.8984 84.9Z" fill="#C39973"></path></svg>