<svg xmlns="http://www.w3.org/2000/svg" width="168" height="107" viewBox="0 0 168 107" fill="none"><path d="M168 32.5948C168 32.5948 168 32.5834 168 32.5796C168 32.5379 167.985 32.4962 167.969 32.4545C167.966 32.4431 167.962 32.4355 167.954 32.4241C167.935 32.3862 167.912 32.3483 167.882 32.3179C167.882 32.3179 167.878 32.3103 167.875 32.3065C167.848 32.28 167.821 32.261 167.787 32.2421L135.306 13.7483C135.306 13.7483 135.271 13.7293 135.253 13.7217L101 0.215506C100.874 0.166199 100.73 0.181371 100.62 0.257227L97.2447 2.51016C97.1385 2.58223 97.0702 2.69601 97.0626 2.82117C97.0512 2.94634 97.1005 3.0715 97.1953 3.15873L118.966 23.0369L2.07147 89.9726C2.04492 89.9877 2.02209 90.0067 1.99934 90.0295C1.99554 90.0333 1.98794 90.0371 1.98035 90.0446C1.94622 90.0788 1.91968 90.1205 1.90072 90.166C1.90072 90.1698 1.89313 90.1736 1.89313 90.1774C0.140844 94.5088 0.167464 98.112 1.96526 100.888C5.36742 106.134 13.8026 106.494 14.1591 106.505C14.1629 106.505 14.1705 106.505 14.1743 106.505C14.2198 106.505 14.2653 106.494 14.3108 106.479C14.3222 106.475 14.3336 106.471 14.345 106.464C14.3564 106.46 14.3678 106.456 14.3792 106.449L129.305 40.317L154.82 55.4655H154.823C154.823 55.4655 154.861 55.4845 154.88 55.4921C154.896 55.4996 154.907 55.5072 154.926 55.511C154.964 55.5224 154.998 55.5262 155.036 55.5262C155.07 55.5262 155.104 55.5224 155.138 55.511C155.15 55.511 155.157 55.5034 155.169 55.4996C155.184 55.4958 155.203 55.4883 155.218 55.4807L167.761 49.3704C167.905 49.3022 167.992 49.158 167.992 48.9987V32.5986C167.992 32.5986 167.992 32.5948 167.992 32.591L168 32.5948ZM100.905 1.06889L134.926 14.4879L166.828 32.6517L154.368 41.7696L126.639 27.0118C123.791 24.4099 120.445 22.9876 119.892 22.7638L98.1473 2.90841L100.905 1.06889ZM128.998 39.547L70.0502 73.4662C70.585 71.6912 70.4711 69.9617 69.6936 68.308C67.3382 63.2787 59.6389 60.381 56.9536 59.5049L119.698 23.5793C120.863 24.0761 127.333 27.0269 129.37 32.1435C130.303 34.4836 130.178 36.9755 128.994 39.5508L128.998 39.547ZM2.66688 100.433C1.07389 97.9754 1.02843 94.7515 2.52659 90.8525C8.39029 92.8324 12.1413 95.6163 13.6698 99.136C14.986 102.163 14.2047 104.848 13.9088 105.66C12.4221 105.55 5.49632 104.802 2.66688 100.433ZM14.4398 98.8212C12.862 95.1725 9.11093 92.2862 3.28895 90.2343L55.9788 60.0624C57.3063 60.4606 66.4887 63.3887 68.9502 68.6569C69.7581 70.3865 69.7505 72.2222 68.9312 74.111L14.9291 105.186C15.278 103.866 15.589 101.484 14.4398 98.825V98.8212ZM129.848 39.6684C131.035 36.9565 131.137 34.3243 130.144 31.8287C129.715 30.7477 129.108 29.7654 128.403 28.874L154.004 42.5016L154.596 54.3618L129.848 39.6684ZM155.43 54.468L154.831 42.4523L167.18 33.4178V48.7446L155.434 54.468H155.43Z" fill="#F16C3F"></path><path d="M117.588 77.0692C118.24 77.0692 118.828 76.8909 119.306 76.5192C120.159 75.8555 120.527 74.6949 120.338 73.2498C120.159 71.8882 119.496 70.4128 118.479 69.1005C117.102 67.3292 115.312 66.1497 113.689 65.9448C112.832 65.8387 112.073 66.0169 111.497 66.4683C110.423 67.3027 110.135 68.9639 110.715 70.8565L78.2943 89.9724C78.2412 90.0027 78.1994 90.0444 78.1653 90.0937L74.949 94.7589C74.8503 94.903 74.8503 95.0889 74.949 95.233C75.0286 95.3468 75.1537 95.4075 75.2865 95.4075C75.3206 95.4075 75.3586 95.4037 75.3927 95.3923L80.862 93.9434C80.8961 93.9359 80.9265 93.9207 80.9568 93.9055L113.825 75.4421C115.092 76.5041 116.435 77.0692 117.588 77.0692ZM112.001 67.1244C112.403 66.8134 112.949 66.692 113.583 66.7679C114.971 66.9424 116.598 68.0309 117.823 69.6125C118.756 70.811 119.355 72.1423 119.515 73.3598C119.666 74.4977 119.408 75.389 118.798 75.8669C117.857 76.5951 116.185 76.2348 114.599 75.0097L115.047 74.7594C115.176 74.6873 115.259 74.547 115.259 74.399C115.259 74.2132 115.229 69.8211 112.593 69.8211C112.521 69.8211 112.445 69.8401 112.384 69.878L111.451 70.428C111.045 68.9601 111.239 67.7199 112.001 67.1282V67.1244ZM80.5964 93.1583L76.2613 94.3076L78.791 90.6399L112.699 70.6479C114.125 70.7693 114.379 73.3522 114.421 74.1601L80.5964 93.1621V93.1583Z" fill="#F16C3F"></path><path d="M138.257 69.4112C136.068 66.5969 133 65.4401 131.274 66.779C130.201 67.6134 129.912 69.2747 130.493 71.1673L98.0716 90.2831C98.0185 90.3134 97.9767 90.3552 97.9426 90.4045L94.7263 95.0658C94.6277 95.21 94.6277 95.3958 94.7263 95.5399C94.806 95.6499 94.9312 95.7144 95.0639 95.7144C95.0981 95.7144 95.136 95.7106 95.1701 95.6992L100.639 94.2504C100.673 94.2428 100.704 94.2276 100.734 94.2125L133.607 75.7452C134.873 76.8072 136.216 77.3723 137.369 77.3723C138.021 77.3723 138.609 77.1941 139.087 76.8224C139.941 76.1586 140.308 74.998 140.119 73.5568C139.941 72.1951 139.277 70.7197 138.257 69.4074V69.4112ZM100.378 93.4691L96.0424 94.6183L98.5723 90.9506L132.48 70.9587C133.906 71.08 134.16 73.663 134.202 74.4708L133.478 74.8767C133.478 74.8767 133.478 74.8767 133.474 74.8767L100.378 93.4691ZM138.579 76.1738C137.638 76.902 135.966 76.5417 134.38 75.3166L134.828 75.0663C134.957 74.9942 135.04 74.8539 135.04 74.706C135.04 74.5201 135.01 70.1243 132.374 70.1243C132.302 70.1243 132.226 70.1432 132.165 70.1811L131.232 70.7311C130.826 69.2633 131.02 68.023 131.782 67.4313C133.098 66.4111 135.765 67.5527 137.604 69.9194C138.537 71.118 139.136 72.4492 139.296 73.6667C139.447 74.8046 139.19 75.6959 138.579 76.1738Z" fill="#F16C3F"></path></svg>