<svg xmlns="http://www.w3.org/2000/svg" width="55" height="164" viewBox="0 0 55 164" fill="none"><path d="M54.4272 38.4266L37.5719 28.6943C39.6087 20.5207 40.8262 11.3042 38.0916 5.80838C36.9196 3.44545 35.08 1.92832 32.6261 1.29113C29.9294 0.58946 27.411 1.04839 25.1429 2.65655C15.8087 9.26364 13.4761 33.0522 13.2827 35.1951L0.883993 49.2703C0.883993 49.2703 0.880192 49.2779 0.8764 49.2817C0.846057 49.3196 0.823326 49.3613 0.808155 49.4068C0.808155 49.4068 0.808155 49.4106 0.808155 49.4144C0.800569 49.4486 0.792969 49.4827 0.792969 49.5168V159.945C0.792969 160.078 0.865032 160.203 0.98261 160.271L5.78049 163.044C5.83738 163.078 5.90565 163.093 5.97013 163.093C6.03461 163.093 6.09909 163.078 6.15977 163.044L53.9721 135.436C54.0897 135.367 54.1579 135.246 54.1617 135.113L54.6244 38.7566C54.6244 38.6201 54.5524 38.4949 54.4348 38.4304L54.4272 38.4266ZM25.5791 3.26719C27.6575 1.79558 29.9635 1.37457 32.4364 2.01935C34.6704 2.59965 36.3469 3.98783 37.4165 6.14215C40.007 11.3497 38.8312 20.2742 36.8589 28.2808L30.0583 24.3553L25.5335 21.742C25.378 21.6548 25.1808 21.6851 25.0632 21.8179L14.1399 34.2166C14.705 29.1532 17.4435 9.02469 25.5753 3.26719H25.5791ZM5.8829 51.8077L1.75256 49.422L25.4235 22.5499L29.2885 24.7801L19.2488 36.3709L5.8829 51.8077ZM1.54394 50.1692L5.59085 52.5056V162.065L1.54394 159.729V50.173V50.1692ZM53.4032 134.889L6.34191 162.061V52.4297L10.4912 47.6356L29.9522 25.1631L36.6693 29.0432C35.8614 32.2216 34.9397 35.2255 34.0939 37.7667C32.8499 37.3608 31.2948 37.5922 29.6942 38.4532C26.0607 40.4065 23.1062 45.0565 23.1062 48.8227C23.1062 50.6092 23.7623 51.9822 24.9532 52.6952C25.5221 53.0366 26.1935 53.2034 26.9218 53.2034C27.8889 53.2034 28.9585 52.9076 30.0508 52.3197C33.6844 50.3664 36.6389 45.7164 36.6389 41.9502C36.6389 40.1713 35.9865 38.8021 34.8069 38.0891C35.6527 35.5744 36.5706 32.6046 37.3823 29.449L53.8621 38.9652L53.4032 134.886V134.889ZM31.5642 45.7354C31.6097 45.7544 31.6589 45.7657 31.7082 45.7657C31.8562 45.7657 31.9965 45.6785 32.0572 45.5344C32.1975 45.1968 33.2633 42.6063 34.5567 38.8363C35.4138 39.4355 35.8879 40.5316 35.8879 41.9577C35.8879 45.4737 33.1116 49.8278 29.698 51.6636C28.0216 52.5625 26.4362 52.7066 25.3439 52.0542C24.3881 51.4853 23.8647 50.3361 23.8647 48.8265C23.8647 45.3106 26.641 40.9564 30.0545 39.1207C31.0331 38.5935 31.9851 38.328 32.8233 38.328C33.1912 38.328 33.5364 38.3849 33.8549 38.4911C32.5009 42.4811 31.3973 45.1627 31.3631 45.2499C31.2835 45.4433 31.3745 45.6633 31.568 45.743L31.5642 45.7354Z" fill="#F16C3F"></path><path d="M12.9787 75.4144C12.8611 75.4827 12.7891 75.6041 12.7891 75.7406V117.151C12.7891 117.283 12.8611 117.409 12.9787 117.477C13.0356 117.511 13.1039 117.526 13.1683 117.526C13.2328 117.526 13.2973 117.511 13.358 117.477L49.2152 96.7718C49.3328 96.7035 49.4049 96.5821 49.4049 96.4456V55.0356C49.4049 54.9028 49.3328 54.7777 49.2152 54.7094C49.0976 54.6411 48.9535 54.6411 48.8397 54.7094L12.9825 75.4144H12.9787ZM48.6501 96.2294L13.5438 116.498V75.9568L48.6501 55.688V96.2294Z" fill="#F16C3F"></path><path d="M49.2152 102.867C49.1014 102.799 48.9573 102.799 48.8397 102.863L12.9825 122.87C12.8649 122.935 12.7891 123.064 12.7891 123.2V133.498C12.7891 133.63 12.8611 133.756 12.9787 133.824C13.0356 133.858 13.1039 133.873 13.1683 133.873C13.2328 133.873 13.2973 133.858 13.358 133.824L49.2152 113.199C49.3328 113.13 49.4049 113.009 49.4049 112.872V103.193C49.4049 103.06 49.3328 102.935 49.219 102.867H49.2152ZM48.6501 112.652L13.5438 132.845V123.42L48.6501 103.834V112.652Z" fill="#F16C3F"></path><path d="M49.2152 119.028C49.1014 118.96 48.9573 118.96 48.8397 119.024L12.9825 139.032C12.8649 139.096 12.7891 139.225 12.7891 139.362V149.659C12.7891 149.792 12.8611 149.917 12.9787 149.985C13.0356 150.019 13.1039 150.035 13.1683 150.035C13.2328 150.035 13.2973 150.019 13.358 149.985L49.2152 129.36C49.3328 129.292 49.4049 129.17 49.4049 129.034V119.354C49.4049 119.222 49.3328 119.097 49.219 119.028H49.2152ZM48.6501 128.814L13.5438 149.007V139.582L48.6501 119.995V128.814Z" fill="#F16C3F"></path></svg>