<svg xmlns="http://www.w3.org/2000/svg" width="130" height="130" viewBox="0 0 130 130" fill="none"><path d="M98.8 0H31.2C13.9687 0 0 13.9687 0 31.2V98.8C0 116.031 13.9687 130 31.2 130H98.8C116.031 130 130 116.031 130 98.8V31.2C130 13.9687 116.031 0 98.8 0Z" fill="url(#paint0_linear_804_982)"></path><path d="M39.5398 92.5002C40.1698 93.0302 40.7898 93.5102 41.3098 94.0402C41.3998 94.1302 41.3598 94.5102 41.2498 94.6602C40.3598 95.8002 39.4398 96.9102 38.5298 98.0302C38.4298 98.1502 38.3198 98.2602 38.2298 98.3802C37.8298 98.8402 37.8698 99.5302 38.3198 99.9402C38.7598 100.34 39.4398 100.31 39.8398 99.8702C39.8598 99.8402 39.8898 99.8202 39.9098 99.7902C40.9498 98.5402 41.9798 97.2902 42.9798 96.0402C43.2498 95.7002 43.4398 95.6202 43.8098 95.8802C47.1998 98.2302 50.9698 100 54.9498 101.1C57.3098 101.73 59.7198 102.15 62.1498 102.35C67.3698 102.77 72.6098 102.07 77.5398 100.32C90.3098 95.8402 99.6398 84.7702 101.9 71.4302C102.54 68.0002 102.67 64.4902 102.28 61.0202C100.62 45.7402 89.8398 33.0102 75.0498 28.8502C72.1898 28.0102 69.2198 27.5702 66.2298 27.5402C63.8998 27.5002 61.5698 27.6402 59.2598 27.9402C53.7898 28.7402 48.5798 30.8002 44.0298 33.9402C43.4998 34.3502 42.8198 34.5102 42.1598 34.3802C38.2698 33.7602 34.2998 33.8402 30.4398 34.6102C30.2798 34.6402 30.1098 34.6502 29.8098 34.7002C30.0198 34.4402 30.1198 34.2902 30.2398 34.1502C30.8198 33.5302 31.4398 32.9402 31.9798 32.2802C32.4998 31.6602 33.2698 31.3002 34.0798 31.3002C37.4998 31.0302 40.9498 31.2402 44.3198 31.9202C44.6398 31.9902 44.9698 31.9702 45.2698 31.8802C45.7398 31.7202 46.0098 31.2402 45.8998 30.7602C45.8498 30.2602 45.4498 29.8702 44.9498 29.8202C42.2498 29.2502 39.4998 28.9802 36.7398 29.0102H35.9898C35.9198 28.9902 35.8598 28.9602 35.7998 28.9302C35.9298 28.7702 36.0798 28.6302 36.2298 28.4902C41.2198 24.5202 46.9798 21.6302 53.1398 20.0102C56.8298 19.0002 60.6498 18.5002 64.4798 18.5202C66.9898 18.4702 69.4898 18.6202 71.9798 18.9402C74.7598 19.3802 77.4798 20.0502 80.1398 20.9602C90.5698 24.5702 99.3798 31.7502 105.01 41.2302C107.3 45.0102 109 49.1102 110.06 53.4002C110.63 55.6702 111.03 57.9902 111.25 60.3202C111.49 63.0802 111.53 65.8602 111.36 68.6302C111.14 71.1002 110.74 73.5502 110.17 75.9602C109.26 80.0202 107.74 83.9302 105.67 87.5402C102.87 92.5702 99.1698 97.0402 94.7398 100.72C90.0498 104.66 84.6098 107.61 78.7598 109.4C76.8198 110.02 74.7998 110.35 72.8098 110.79C69.0298 111.46 65.1798 111.63 61.3598 111.31C59.2298 111.15 57.1198 110.83 55.0398 110.35C51.5098 109.63 48.0898 108.45 44.8698 106.85C41.0298 104.99 37.4498 102.62 34.2498 99.8002C33.8598 99.4502 33.8498 99.2302 34.1898 98.8302C35.9198 96.7902 37.6198 94.7202 39.3398 92.6602C39.3998 92.6002 39.4698 92.5402 39.5398 92.4802V92.5002ZM68.5198 61.0102C70.7398 62.6802 73.5098 63.4602 76.2798 63.1802C79.4998 62.9302 82.4598 61.3002 84.3998 58.7102C84.9198 58.0502 85.4898 57.4102 86.0698 56.8002C87.2698 55.5802 88.0198 54.0002 88.1998 52.3002C88.2398 51.8002 88.4198 51.3302 88.7298 50.9402C89.7698 49.6302 90.3498 48.0202 90.3798 46.3502C90.3798 45.2902 89.8298 44.8502 88.7798 45.1002L86.9098 45.5702C85.0198 46.1702 83.0598 46.4902 81.0798 46.5402C79.0798 46.4802 77.0698 46.5402 75.0698 46.5402C74.7998 46.5402 74.5298 46.5602 74.2698 46.6102C72.3798 46.9502 70.9098 48.4602 70.6198 50.3602C70.4798 51.3602 69.7298 52.1602 68.7498 52.3802C68.5398 52.4202 68.1198 52.3202 68.1198 52.2402C68.0498 51.7302 68.0498 51.2102 68.1198 50.6902C68.1198 50.4802 68.4398 50.2902 68.6398 50.1302C70.5398 48.6602 71.3598 46.2002 70.7198 43.8802C69.8498 40.7502 66.6098 38.9102 63.4698 39.7802C61.7698 40.2502 60.3698 41.4602 59.6598 43.0702C58.5698 45.4302 59.1998 48.2202 61.1898 49.8802C61.8098 50.2802 62.1298 51.0202 61.9898 51.7502C61.9898 51.7902 61.9898 51.8302 61.9898 51.8602C61.9898 52.4302 61.8598 52.5302 61.2998 52.4202C60.3198 52.1802 59.5898 51.3802 59.4298 50.3802C59.0998 48.1102 57.0998 46.4502 54.8098 46.5302H48.2798C47.4398 46.5102 46.5998 46.4102 45.7798 46.2202C44.2798 45.9002 42.7998 45.4802 41.3098 45.1102C40.2598 44.8502 39.6898 45.2802 39.7098 46.3602C39.7598 48.0702 40.3598 49.7102 41.4098 51.0602C41.6298 51.3402 41.7698 51.6802 41.8198 52.0302C41.9898 53.7902 42.7398 55.4402 43.9398 56.7302C44.5698 57.4202 45.1898 58.1202 45.8098 58.8602C48.9398 62.8902 54.3698 64.3302 59.0898 62.4002C60.0998 61.9202 61.0798 61.4002 62.0298 60.8202V63.5502C62.0298 63.6702 61.7898 63.8702 61.6398 63.8902C61.1598 63.9602 60.6898 63.9502 60.2098 64.0102C56.6898 64.5702 54.2898 67.8902 54.8598 71.4102C54.9598 72.0602 55.1598 72.6902 55.4598 73.2702C55.8198 73.9702 56.3598 74.2102 56.9498 73.9302C57.5398 73.6502 57.7098 73.0602 57.3698 72.3202C56.3298 70.1402 57.2598 67.5302 59.4398 66.4902C60.0998 66.1802 60.8198 66.0302 61.5498 66.0702C61.9298 66.0702 62.0498 66.2002 62.0498 66.5802V74.2102C62.0498 74.6002 61.9098 74.7202 61.5398 74.7202C60.8098 74.7202 60.0798 74.7202 59.3498 74.7902C56.7198 75.0202 54.7798 77.3402 55.0198 79.9602C55.2098 82.0802 56.7698 83.8202 58.8598 84.2202C59.8498 84.3402 60.8498 84.3802 61.8498 84.3402C62.3298 84.3402 62.4798 84.5002 62.6198 84.9602C63.0398 86.4702 63.5298 87.9702 64.0098 89.4702C64.1098 90.0702 64.6798 90.4802 65.2798 90.3802C65.7498 90.3002 66.1098 89.9402 66.1898 89.4702C66.6298 88.1002 67.0898 86.7302 67.4898 85.3502C67.7798 84.3502 67.7498 84.3402 68.8098 84.3802C69.8198 84.4302 70.6298 85.2402 70.6798 86.2502C70.6998 87.2802 69.9098 88.1402 68.8798 88.2202C68.7098 88.2302 68.5398 88.2602 68.3698 88.3102C67.8898 88.4502 67.5698 88.8902 67.5998 89.3902C67.6498 89.9302 68.0898 90.3502 68.6398 90.3802C70.8998 90.4202 72.7698 88.6202 72.8098 86.3602C72.8098 86.1802 72.8098 86.0002 72.7898 85.8302C72.5898 83.9802 71.1498 82.5102 69.2998 82.2702C68.8798 82.1902 68.2598 82.2702 68.0898 82.0202C67.9198 81.7702 68.0898 81.1802 68.0898 80.7402C68.0898 79.6002 68.0898 78.4702 68.0898 77.3302C68.0898 76.9902 68.1998 76.8402 68.5598 76.8602C68.8898 76.8902 69.2198 76.8902 69.5398 76.8602C73.0898 76.3702 75.5598 73.0902 75.0698 69.5402C74.6298 66.3702 71.9298 63.9902 68.7298 63.9502C68.4698 63.9502 68.0998 64.0802 68.0998 63.5902V60.7302L68.5098 60.9802L68.5198 61.0102ZM50.9898 59.1402C51.5798 59.2202 52.1198 58.8102 52.1998 58.2302C52.2798 57.6402 51.8698 57.1002 51.2898 57.0202C51.2198 57.0102 51.1498 57.0102 51.0698 57.0202C50.3998 56.9802 49.7198 57.0202 49.0398 57.0202C46.9198 56.8702 45.0798 55.5102 44.3198 53.5202C44.5398 53.5902 44.7098 53.6302 44.8698 53.6902C46.4698 54.1902 48.1598 54.3602 49.8298 54.1802C50.3798 54.1302 50.7898 53.6702 50.7798 53.1202C50.7798 52.5302 50.2898 52.0602 49.6998 52.0502C48.9298 52.0202 48.1598 52.0502 47.3898 52.0502C44.9098 51.9302 42.7698 50.2902 42.0098 47.9302C42.0098 47.8302 42.0098 47.7302 42.0098 47.6402C42.1598 47.6502 42.2998 47.6802 42.4498 47.7102C45.1898 48.5502 48.0698 48.9102 50.9398 48.7602C52.1898 48.7002 53.4398 48.7602 54.6398 48.7602C55.9598 48.6202 57.1398 49.5702 57.2798 50.8902C57.6198 53.0102 59.3998 54.6002 61.5498 54.6802C61.8898 54.7102 61.9698 54.8602 61.9598 55.1502C61.9198 55.6102 61.9198 56.0802 61.9598 56.5402C62.0698 57.3902 61.7098 58.2202 61.0098 58.7202C57.8698 61.6302 53.1498 62.0102 49.5898 59.6302C49.4298 59.5202 49.2798 59.4102 48.9598 59.2002C49.7498 59.1402 50.3698 59.1502 50.9798 59.1402H50.9898ZM81.7998 56.8402C80.9198 56.9502 80.0398 57.0102 79.1598 57.0102C78.7998 57.0302 78.4498 57.1402 78.1498 57.3302C77.8098 57.5802 77.6798 58.0302 77.8598 58.4202C77.9798 58.8402 78.3598 59.1402 78.7998 59.1402H80.9898C80.7298 59.3302 80.5698 59.4602 80.4098 59.5602C76.8198 61.9702 72.0398 61.5702 68.9098 58.5902C68.2698 58.1202 67.9298 57.3402 68.0298 56.5502C68.0698 56.0702 68.0698 55.5902 68.0298 55.1102C68.0298 54.7802 68.1198 54.6402 68.4798 54.6202C70.5598 54.5202 72.2898 53.0002 72.6698 50.9602C72.7898 49.5902 73.9998 48.5702 75.3698 48.6802C75.4198 48.6802 75.4598 48.6802 75.4998 48.7002C76.7098 48.7002 77.9298 48.6502 79.1398 48.7002C81.9898 48.8402 84.8398 48.4802 87.5698 47.6302C87.6998 47.6002 87.8398 47.5702 87.9698 47.5602C87.9498 47.7202 87.9298 47.8702 87.8898 48.0202C87.0798 50.3702 84.8998 51.9602 82.4098 52.0002H80.3798C79.7898 51.9202 79.2398 52.3402 79.1598 52.9402C79.0798 53.5402 79.4998 54.0802 80.0998 54.1602C80.1898 54.1702 80.2898 54.1702 80.3798 54.1602C82.1398 54.3202 83.9098 54.1102 85.5798 53.5402C84.9798 55.2202 83.5498 56.4702 81.7998 56.8402ZM61.2198 45.5202C61.2198 43.4502 62.8998 41.7702 64.9698 41.7702C67.0398 41.7702 68.7198 43.4502 68.7198 45.5202C68.7198 47.5902 67.0398 49.2702 64.9698 49.2702C62.8998 49.2702 61.2198 47.6002 61.2198 45.5302V45.5102V45.5202ZM65.8898 74.0002C65.8898 74.5702 65.7598 74.7902 65.1498 74.7602C63.8998 74.7102 64.0998 74.8202 64.0998 73.7002V52.1902C64.0998 51.6835 64.3498 51.4335 64.8498 51.4402C65.5298 51.4402 65.8698 51.7935 65.8698 52.5002V63.1202C65.8898 66.7502 65.8498 70.3702 65.8898 73.9902V74.0002ZM68.0298 66.6802C68.0298 66.2502 68.1598 66.1202 68.5898 66.1202C70.9798 66.1202 72.9098 68.0602 72.9098 70.4402C72.9098 72.8202 70.9798 74.7602 68.5898 74.7602C68.1398 74.7602 68.0398 74.5802 68.0498 74.1702V70.4202C68.0498 69.1702 68.0598 67.9102 68.0398 66.6602L68.0298 66.6802ZM62.0498 81.6502C62.0898 82.0702 62.0098 82.2702 61.4998 82.2702C60.9598 82.2302 60.4298 82.2302 59.8898 82.2702C58.4198 82.3502 57.1598 81.2202 57.0798 79.7402C56.9998 78.2602 58.1298 77.0102 59.6098 76.9302C59.6098 76.9302 59.6298 76.9302 59.6398 76.9302C60.2598 76.8802 60.8898 76.8802 61.5098 76.9302C61.6998 76.9902 61.8498 77.1402 61.8998 77.3302C61.9398 77.9502 61.8998 78.5802 61.8998 79.2002H61.8598C61.9498 80.0202 61.9898 80.8402 62.0598 81.6402L62.0498 81.6502ZM64.2598 82.3402C64.1298 80.7202 64.1598 79.0802 64.0998 77.4402C64.0998 77.0502 64.2098 76.8902 64.6198 76.9002C66.1198 76.9402 65.8698 76.6902 65.8698 78.1502C65.9898 80.6102 65.7598 83.0702 65.1798 85.4602C65.1398 85.6202 65.0898 85.7902 65.0398 85.9502H64.8698C64.6498 84.7302 64.3498 83.5302 64.2498 82.3202L64.2598 82.3402ZM35.2898 41.2202C31.0398 41.5002 26.9298 42.8302 23.3198 45.0902C23.1198 45.2002 22.9498 45.3702 22.8398 45.5702C22.1398 47.3102 21.4598 49.0702 20.7698 50.8302C20.6598 51.1002 20.7298 51.2702 21.0098 51.4502C21.5398 51.7102 21.7698 52.3502 21.5098 52.8802C21.4598 52.9802 21.3898 53.0802 21.3098 53.1602C21.0098 53.5502 20.6798 53.9202 20.3598 54.3202C19.8498 54.8502 19.5098 55.5202 19.3798 56.2402C19.2898 57.1202 19.1298 57.9902 18.9598 58.8602C18.5998 60.9702 18.4798 63.1102 18.5798 65.2402C18.5898 65.3602 18.6098 65.4802 18.6298 65.6002C18.6798 65.5402 18.7198 65.5102 18.7398 65.4802C18.7798 65.2702 18.8198 65.0602 18.8498 64.8602C19.6498 58.3002 23.9598 52.6902 30.0898 50.2302C30.4898 50.0502 30.8098 49.7402 31.0098 49.3602C32.1798 47.3102 33.3598 45.2702 34.5798 43.2402C34.9698 42.6202 35.4898 41.9902 36.0498 41.2502C35.6798 41.2102 35.4798 41.1902 35.2898 41.2102V41.2202ZM30.8698 47.0102C28.6398 47.7202 26.5298 48.7702 24.6198 50.1302C24.1398 50.4902 23.4598 50.3902 23.1098 49.9102C23.1098 49.9002 23.0898 49.8902 23.0898 49.8802C22.7598 49.3702 22.8898 48.6902 23.3798 48.3402C25.4298 46.8302 27.7198 45.6802 30.1598 44.9502C30.6898 44.7302 31.2898 44.9802 31.5098 45.5102C31.5698 45.6602 31.5998 45.8102 31.5898 45.9702C31.6398 46.4502 31.3198 46.8802 30.8598 47.0002L30.8698 47.0102ZM21.2098 79.8902C21.2998 79.7902 21.3798 79.6802 21.4598 79.5802C22.9198 77.5502 23.6998 75.1102 23.7198 72.6102C23.7198 70.9702 23.6598 69.3402 23.6298 67.7002C23.4798 63.7102 25.1098 59.8602 28.0898 57.1902C28.3198 56.9402 28.4898 56.6402 28.5798 56.3202C28.8098 55.6302 28.9698 54.9102 29.1698 54.2202C29.2798 53.8502 29.3798 53.4702 29.5198 53.0002C29.3698 53.0402 29.2298 53.0902 29.0898 53.1602C24.6898 55.6302 21.6998 60.0202 21.0298 65.0302C20.8998 65.8602 20.9198 66.7202 20.8798 67.5602C20.9198 68.0402 20.6498 68.4802 20.2098 68.6702C19.7698 68.8602 19.2598 68.7302 18.9598 68.3702C18.8998 68.2702 18.8498 68.1602 18.8298 68.0502L18.5798 68.1902L18.9798 71.3902C19.0698 71.3902 19.1598 71.3802 19.2398 71.3602C20.3698 70.9202 21.1098 71.4202 20.9898 72.6102C20.9098 73.6202 20.7198 74.6302 20.4398 75.6002C20.1098 76.3602 20.0798 77.2102 20.3398 77.9902C20.5998 78.6102 20.7798 79.3302 21.0098 80.0402C21.0798 79.9902 21.1498 79.9402 21.2098 79.8802V79.8902ZM27.5998 61.1602C27.4898 61.3302 27.3598 61.4902 27.2598 61.6602C26.2798 63.3502 25.7698 65.2802 25.7798 67.2302C25.7798 69.0002 25.8798 70.7802 25.8798 72.5502C25.9198 75.8202 24.7898 79.0002 22.6998 81.5102C22.0398 82.0702 21.9298 83.0402 22.4398 83.7402C22.6998 84.2102 22.9298 84.7002 23.1398 85.2002C25.8098 82.6302 27.6298 79.3002 28.3498 75.6702C28.4998 75.0002 28.5598 74.3002 28.5298 73.6202C28.4798 72.8402 28.2098 72.0802 28.0898 71.3002C27.6098 68.5702 27.4498 65.7802 27.6298 63.0102C27.6798 62.4202 27.7198 61.8202 27.7598 61.2402L27.6098 61.1702L27.5998 61.1602ZM25.0998 41.5802C25.2898 41.5102 25.4898 41.4402 25.6698 41.3602C28.9798 39.8602 32.5598 39.0602 36.1898 39.0202C37.4898 39.1202 38.7598 38.5802 39.5898 37.5702C39.9498 37.1802 40.3298 36.8202 40.7298 36.4802C40.4198 36.4202 40.2498 36.3902 40.0998 36.3702C36.5098 36.0302 32.8898 36.3002 29.3898 37.1702C29.0598 37.2602 28.7098 37.2402 28.3898 37.1302C28.0498 36.9902 27.9098 37.0902 27.7598 37.3402C27.2998 38.0002 26.8098 38.6502 26.3498 39.3102C25.8898 39.9702 25.4598 40.7302 25.0098 41.4502L25.0798 41.5702L25.0998 41.5802ZM32.4998 84.6802C31.5098 86.0502 30.5498 87.4402 29.5098 88.7902C28.8198 89.6902 28.0298 90.5202 27.2998 91.3902C27.1798 91.5302 27.0598 91.8302 27.1298 91.9302C27.6498 92.7002 28.2198 93.4502 28.8198 94.2802C29.3198 93.7102 29.7498 93.2402 30.1398 92.7502C31.5498 90.9902 32.9398 89.2202 34.3098 87.4402C34.4398 87.2802 34.5398 86.9502 34.4598 86.8202C33.9398 85.9702 33.3698 85.1502 32.7898 84.2702C32.6498 84.4502 32.5598 84.5702 32.4698 84.6902H32.4898L32.4998 84.6802ZM26.0698 89.4402C26.9698 88.3902 27.9398 87.3802 28.7498 86.2602C29.6598 85.0102 30.4398 83.6502 31.2498 82.3402C31.4398 82.0402 31.4398 81.6602 31.2498 81.3702C30.8598 80.5602 30.5198 79.7202 30.1498 78.8702C30.0998 78.7502 30.0098 78.6402 29.8998 78.4502C29.7898 78.6802 29.7198 78.8202 29.6698 78.9602C28.8098 81.3802 27.4798 83.6002 25.7698 85.5102C25.3398 86.0002 24.8998 86.4902 24.5198 87.0002C24.3998 87.1402 24.2798 87.4202 24.3498 87.5402C24.7398 88.2802 25.1798 89.0002 25.6398 89.7702C25.7798 89.6702 25.9098 89.5602 26.0398 89.4402H26.0598H26.0698ZM34.8598 90.5302C33.4698 92.2002 32.0698 93.8602 30.6498 95.5302C30.3898 95.8402 30.3498 96.0602 30.6498 96.3602C31.0498 96.7502 31.4298 97.1502 31.8098 97.5702C32.0798 97.8802 32.2798 97.8602 32.5498 97.5702C33.5598 96.3802 34.6098 95.2202 35.5998 94.0202C36.3198 93.1602 36.9898 92.2802 37.6598 91.3802C37.7698 91.1902 37.7898 90.9602 37.7098 90.7602C37.2198 90.1402 36.6698 89.5902 36.0798 88.9402C35.6098 89.4802 35.2598 90.0402 34.8498 90.5402H34.8698L34.8598 90.5302ZM61.0398 88.2902C60.4498 88.3102 59.9898 88.8002 59.9998 89.3802C60.0198 89.9602 60.4998 90.4302 61.0798 90.4202C61.6598 90.4002 62.1298 89.9202 62.1298 89.3402C62.0798 88.7602 61.6098 88.3002 61.0198 88.2902H61.0398Z" fill="white"></path><defs><linearGradient id="paint0_linear_804_982" x1="9.14" y1="120.86" x2="120.86" y2="9.14" gradientUnits="userSpaceOnUse"><stop stop-color="#418BE5"></stop><stop offset="1" stop-color="#863FAF"></stop></linearGradient></defs></svg>