<svg xmlns="http://www.w3.org/2000/svg" width="93" height="148" viewBox="0 0 93 148" fill="none"><path d="M43.3206 147.651C42.6821 147.651 41.9985 147.462 41.2886 147.087C38.9861 145.871 36.9016 142.896 36.1053 139.684C36.0978 139.657 36.0903 139.634 36.079 139.608L9.00189 76.0572C8.28449 74.4962 7.59714 72.8899 6.95862 71.2721L5.55385 67.4873C4.19417 63.5812 3.10119 59.5879 2.30491 55.6136C1.51615 51.6469 1.04289 47.7825 0.892647 44.1265C0.317977 30.3017 4.28809 19.4321 11.7926 14.3023C11.8377 14.272 11.879 14.2341 11.909 14.1886L12.5889 13.7832L13.002 13.5407L30.7943 2.92496C30.8055 2.92496 30.8393 2.90981 30.8694 2.89465C33.6601 1.31479 36.8114 0.515381 40.2294 0.515381C44.5788 0.515381 49.1987 1.78837 53.9614 4.30403C74.334 15.0562 91.807 45.5472 92.9075 72.2761C92.945 73.2081 92.9601 74.0606 92.9601 74.8789C92.9601 81.7098 91.7807 87.8891 89.5458 92.7537C89.5195 92.8106 89.5045 92.8712 89.5008 92.9356L88.9223 94.0532C88.3852 95.0648 87.7129 96.1521 87.0782 97.0425L64.1514 134.273C63.5843 135.365 62.7166 136.429 61.9955 136.933C61.8227 137.054 61.6649 137.145 61.5185 137.213C61.4997 137.221 61.4809 137.232 61.4659 137.24L45.3188 146.893C45.2962 146.909 45.2737 146.924 45.2512 146.943C45.0483 147.117 44.8192 147.265 44.5751 147.382C44.5075 147.412 44.4399 147.443 44.3647 147.466C44.346 147.469 44.3309 147.477 44.3159 147.484C44.3047 147.488 44.2896 147.496 44.2746 147.5C43.9516 147.606 43.6361 147.655 43.3131 147.655L43.3206 147.651ZM22.4822 11.8965C19.8192 11.8965 17.3139 12.4041 15.034 13.4081C14.358 13.7074 13.6931 14.056 13.0584 14.4424C12.9382 14.5144 12.8142 14.5864 12.694 14.666C5.13318 19.5041 1.12553 30.2297 1.69644 44.0924C2.04575 52.541 4.09278 61.755 7.61216 70.7455L7.68729 70.9273C8.32205 72.5413 9.00563 74.1477 9.73054 75.7276L36.849 139.396C37.6302 142.453 39.5646 145.264 41.6567 146.367C42.175 146.64 42.6745 146.795 43.1403 146.833C43.2041 146.837 43.2718 146.84 43.3356 146.84C43.6586 146.84 43.9666 146.776 44.2446 146.643C45.131 146.227 45.5141 145.295 45.6794 144.582L45.762 144.382L68.6774 107.166C69.3009 106.294 69.8681 105.377 70.3977 104.373L70.469 104.233C73.3687 98.6867 74.7171 91.3027 74.3678 82.8843C73.2748 56.4168 55.9971 26.2289 35.8536 15.598C31.1962 13.1429 26.6965 11.8965 22.486 11.8965H22.4822ZM91.3788 80.1148C91.2961 80.1148 91.2135 80.1375 91.1421 80.1792L75.3331 89.0863C75.1904 89.1659 75.0965 89.3136 75.0852 89.4803C74.7171 94.7466 73.6128 99.4066 71.8137 103.332L71.1526 104.696C70.5742 105.764 69.9808 106.722 69.346 107.62L46.9414 144.007C46.8212 144.2 46.8512 144.45 47.009 144.613C47.1029 144.707 47.2268 144.757 47.3545 144.757C47.4447 144.757 47.5311 144.73 47.6062 144.685L61.8715 135.937C62.4612 135.501 63.5993 134.41 64.1665 133.323L86.4246 96.584C86.9542 95.8415 87.4913 94.9814 87.9796 94.1101L88.2125 93.6592C90.1092 90.0259 91.3375 85.65 91.8671 80.6566C91.8858 80.4709 91.8032 80.2967 91.6492 80.1944C91.5703 80.1413 91.4764 80.111 91.3788 80.111V80.1148ZM22.4897 11.0857C26.8242 11.0857 31.4441 12.3625 36.2217 14.8819C56.5943 25.6341 74.0673 56.1251 75.1678 82.854C75.2317 84.4528 75.2392 85.991 75.1866 87.4307C75.1791 87.6087 75.2692 87.7792 75.4195 87.8702C75.4984 87.9194 75.5885 87.9421 75.6786 87.9421C75.7613 87.9421 75.8439 87.9194 75.9153 87.8815L91.7957 78.9328C91.9497 78.8456 92.0474 78.6827 92.0474 78.5046C92.1788 76.5535 92.2013 74.4659 92.1112 72.3102C91.5854 59.5084 87.2885 45.4563 80.0131 32.7416C72.7377 20.0193 63.3589 10.1764 53.597 5.02387C48.9546 2.5764 44.4624 1.33373 40.2407 1.33373C36.8189 1.33373 33.6902 2.15965 30.9445 3.79256L30.6703 3.95926C30.659 3.95926 30.6253 3.97441 30.5952 3.99336L20.0483 10.2863C19.853 10.4037 19.7629 10.6462 19.8342 10.866C19.9018 11.0668 20.0859 11.2031 20.2962 11.2031C20.315 11.2031 20.33 11.2031 20.3488 11.2031C21.0474 11.1312 21.7723 11.0933 22.4972 11.0933L22.4897 11.0857ZM46.5583 92.3824C44.1469 92.3824 41.5815 91.674 38.9373 90.2797C27.7256 84.3695 18.1064 67.5933 17.5017 52.8858C17.483 52.4047 17.4717 51.9235 17.4717 51.4499C17.4717 44.3462 19.7854 38.7883 23.8231 36.2082C25.4983 35.136 27.4101 34.5905 29.5135 34.5905C31.4253 34.5905 33.4573 35.0413 35.5456 35.9354C36.0565 36.1552 36.5898 36.409 37.1269 36.6931C47.8015 42.342 57.1652 57.9778 58.446 72.2913C58.4986 72.8937 58.5399 73.496 58.5625 74.0871C58.6827 76.9399 58.4498 79.5882 57.8714 81.9637C56.8948 85.9948 54.9492 89.0371 52.2449 90.7685C50.5734 91.8407 48.6616 92.3824 46.5583 92.3824ZM35.6132 49.1123C35.5306 49.1123 35.448 49.1351 35.3766 49.1729L19.2483 58.2581C19.0642 58.3604 18.9666 58.5726 19.0079 58.7809C21.5019 71.723 30.0393 84.6688 39.3129 89.5637C41.8332 90.8935 44.2671 91.5679 46.5508 91.5679C48.5076 91.5679 50.2767 91.0678 51.8167 90.0827C54.4684 88.3816 56.3389 85.3242 57.2253 81.24C57.2704 81.0354 57.1803 80.8271 57.0075 80.7172C47.7489 74.8562 38.757 61.433 36.0903 49.495C36.0865 49.476 36.0827 49.4609 36.0752 49.4419C36.0264 49.3018 35.9212 49.1919 35.786 49.1426C35.7297 49.1199 35.6696 49.1085 35.6095 49.1085L35.6132 49.1123ZM36.9879 37.6062C36.9166 37.6062 36.8452 37.6214 36.7814 37.6517C36.6386 37.7199 36.5372 37.8487 36.5072 38.004C36.1954 39.6407 36.0414 41.0425 36.0414 42.2928C36.0452 56.0266 46.9864 72.9884 56.8009 79.6185C56.8798 79.6715 56.9737 79.7018 57.0714 79.7018C57.1427 79.7018 57.2103 79.6867 57.2742 79.6564C57.4282 79.5844 57.5333 79.4404 57.5559 79.2699C57.7662 77.6598 57.8338 75.9246 57.7587 74.1212C57.1728 60.0085 47.9592 43.6529 37.2208 37.6668C37.1494 37.6252 37.0668 37.6062 36.9842 37.6062H36.9879ZM18.6924 56.9321C18.6924 56.951 18.6999 56.9738 18.7037 56.9927C18.7412 57.1367 18.8464 57.2579 18.9854 57.3185C19.0455 57.3451 19.1093 57.3564 19.1769 57.3564C19.2596 57.3564 19.3422 57.3337 19.4136 57.2958L35.493 48.2372C35.647 48.15 35.7447 47.9871 35.7447 47.809C35.7447 47.7901 35.741 47.7333 35.7372 47.7219C35.4142 45.8465 35.2489 44.0204 35.2489 42.2966C35.2489 40.8758 35.4367 39.2656 35.8198 37.3713C35.8649 37.1478 35.7485 36.9167 35.5381 36.822C33.4423 35.8862 31.4178 35.4126 29.5172 35.4126C27.6167 35.4126 25.795 35.9127 24.2551 36.8977C20.161 39.5157 17.9938 45.3313 18.3093 52.8555C18.3619 54.1815 18.4933 55.553 18.6962 56.9359L18.6924 56.9321Z" fill="#F16C3F"></path></svg>