<svg xmlns="http://www.w3.org/2000/svg" width="145" height="191" viewBox="0 0 145 191" fill="none"><path d="M4.3 186.5C2.9 186.5 1.8 186.1 1.1 185.3C0.4 184.5 0 183.3 0 181.8C0 180.3 0.4 179.1 1.2 178.3C2 177.5 3.1 177 4.5 177C5 177 5.4 177 5.9 177.1C6.4 177.2 6.7 177.3 7 177.4L6.6 178.6C6.3 178.5 5.9 178.4 5.5 178.3C5.1 178.2 4.8 178.2 4.5 178.2C2.5 178.2 1.6 179.4 1.6 181.8C1.6 182.9 1.8 183.8 2.3 184.4C2.8 185 3.5 185.3 4.4 185.3C5.2 185.3 6 185.1 6.9 184.8V186C6.1 186.3 5.3 186.5 4.3 186.5Z" fill="white"></path><path d="M17.4016 181.8C17.4016 183.3 17.0016 184.5 16.2016 185.3C15.4016 186.1 14.3016 186.6 12.9016 186.6C12.0016 186.6 11.3016 186.4 10.6016 186C9.90156 185.6 9.40156 185.1 9.10156 184.3C8.70156 183.6 8.60156 182.7 8.60156 181.8C8.60156 180.3 9.00156 179.1 9.80156 178.3C10.6016 177.5 11.7016 177.1 13.1016 177.1C14.4016 177.1 15.5016 177.5 16.3016 178.4C17.0016 179.2 17.4016 180.3 17.4016 181.8ZM10.0016 181.8C10.0016 183 10.2016 183.9 10.7016 184.5C11.2016 185.1 11.9016 185.4 12.9016 185.4C13.9016 185.4 14.6016 185.1 15.1016 184.5C15.6016 183.9 15.8016 183 15.8016 181.8C15.8016 180.6 15.6016 179.8 15.1016 179.2C14.6016 178.6 13.9016 178.3 12.9016 178.3C11.9016 178.3 11.2016 178.6 10.7016 179.2C10.2016 179.7 10.0016 180.6 10.0016 181.8Z" fill="white"></path><path d="M28.1984 181.8C28.1984 183.3 27.7984 184.5 26.9984 185.3C26.1984 186.1 25.0984 186.6 23.6984 186.6C22.7984 186.6 22.0984 186.4 21.3984 186C20.6984 185.6 20.1984 185.1 19.8984 184.3C19.4984 183.6 19.3984 182.7 19.3984 181.8C19.3984 180.3 19.7984 179.1 20.5984 178.3C21.3984 177.5 22.4984 177.1 23.8984 177.1C25.1984 177.1 26.2984 177.5 27.0984 178.4C27.7984 179.2 28.1984 180.3 28.1984 181.8ZM20.8984 181.8C20.8984 183 21.0984 183.9 21.5984 184.5C22.0984 185.1 22.7984 185.4 23.7984 185.4C24.7984 185.4 25.4984 185.1 25.9984 184.5C26.4984 183.9 26.6984 183 26.6984 181.8C26.6984 180.6 26.4984 179.8 25.9984 179.2C25.4984 178.6 24.7984 178.3 23.7984 178.3C22.7984 178.3 22.0984 178.6 21.5984 179.2C21.0984 179.7 20.8984 180.6 20.8984 181.8Z" fill="white"></path><path d="M32.2008 181.7C32.5008 181.4 32.8008 180.9 33.4008 180.4L36.5008 177.3H38.2008L34.3008 181.2L38.5008 186.4H36.7008L33.3008 182.1L32.2008 183V186.4H30.8008V173.4H32.2008V180.3C32.2008 180.6 32.2008 181 32.2008 181.7Z" fill="white"></path><path d="M40.1016 174.7C40.1016 174.4 40.2016 174.2 40.3016 174C40.5016 173.9 40.7016 173.8 40.9016 173.8C41.1016 173.8 41.3016 173.9 41.5016 174C41.7016 174.2 41.8016 174.4 41.8016 174.7C41.8016 175 41.7016 175.2 41.5016 175.4C41.3016 175.6 41.1016 175.6 40.9016 175.6C40.7016 175.6 40.4016 175.5 40.3016 175.4C40.2016 175.3 40.1016 175 40.1016 174.7ZM41.7016 186.3H40.2016V177.2H41.7016V186.3Z" fill="white"></path><path d="M51.4008 186.3V180.4C51.4008 179.7 51.2008 179.1 50.9008 178.7C50.5008 178.3 50.0008 178.1 49.2008 178.1C48.2008 178.1 47.5008 178.4 47.0008 178.9C46.5008 179.4 46.3008 180.3 46.3008 181.5V186.3H44.8008V177.2H46.0008L46.2008 178.5H46.3008C46.6008 178 47.0008 177.7 47.6008 177.5C48.2008 177.3 48.7008 177.1 49.4008 177.1C50.6008 177.1 51.4008 177.4 52.0008 177.9C52.6008 178.4 52.9008 179.3 52.9008 180.4V186.4H51.4008V186.3Z" fill="white"></path><path d="M63.8 177.2V178.1L62 178.3C62.2 178.5 62.3 178.7 62.4 179.1C62.5 179.4 62.6 179.8 62.6 180.2C62.6 181.1 62.3 181.8 61.6 182.3C61 182.8 60.1 183.1 58.9 183.1C58.6 183.1 58.3 183.1 58.1 183C57.5 183.3 57.2 183.7 57.2 184.2C57.2 184.4 57.3 184.6 57.5 184.8C57.7 184.9 58.1 185 58.6 185H60.3C61.3 185 62.1 185.2 62.7 185.6C63.3 186 63.5 186.6 63.5 187.4C63.5 188.4 63.1 189.2 62.2 189.7C61.3 190.2 60.1 190.5 58.4 190.5C57.1 190.5 56.2 190.3 55.5 189.8C54.8 189.4 54.5 188.7 54.5 187.9C54.5 187.3 54.7 186.9 55.1 186.5C55.5 186.1 56 185.8 56.7 185.7C56.5 185.6 56.2 185.4 56.1 185.2C55.9 185 55.8 184.7 55.8 184.4C55.8 184.1 55.9 183.8 56.1 183.5C56.3 183.3 56.6 183 57 182.8C56.5 182.6 56.1 182.3 55.8 181.8C55.5 181.3 55.3 180.8 55.3 180.2C55.3 179.2 55.6 178.4 56.3 177.9C57 177.4 57.8 177.1 59 177.1C59.5 177.1 60 177.2 60.4 177.3H63.8V177.2ZM56.1 187.9C56.1 188.4 56.3 188.8 56.8 189C57.3 189.2 57.9 189.4 58.7 189.4C59.9 189.4 60.8 189.2 61.4 188.9C62 188.6 62.3 188.1 62.3 187.5C62.3 187 62.1 186.7 61.8 186.5C61.5 186.3 60.9 186.2 60 186.2H58.2C57.5 186.2 57 186.3 56.7 186.7C56.3 186.9 56.1 187.3 56.1 187.9ZM56.9 180.1C56.9 180.7 57.1 181.2 57.5 181.6C57.9 181.9 58.4 182.1 59.1 182.1C60.5 182.1 61.2 181.4 61.2 180.1C61.2 178.7 60.5 178 59 178C58.3 178 57.8 178.2 57.4 178.5C57.1 178.9 56.9 179.4 56.9 180.1Z" fill="white"></path><path d="M76.4008 186.3L76.1008 185H76.0008C75.5008 185.6 75.0008 186 74.6008 186.2C74.2008 186.4 73.5008 186.5 72.8008 186.5C71.8008 186.5 71.1008 186.3 70.6008 185.8C70.1008 185.3 69.8008 184.7 69.8008 183.8C69.8008 182 71.4008 181 74.5008 180.9H76.1008V180.3C76.1008 179.6 75.9008 179.1 75.6008 178.7C75.3008 178.4 74.8008 178.2 74.0008 178.2C73.2008 178.2 72.3008 178.4 71.3008 178.9L70.9008 177.8C71.4008 177.6 71.9008 177.4 72.5008 177.2C73.1008 177.1 73.6008 177 74.2008 177C75.4008 177 76.2008 177.2 76.8008 177.7C77.4008 178.2 77.6008 179 77.6008 180V186.2H76.4008V186.3ZM73.1008 185.4C74.0008 185.4 74.7008 185.2 75.2008 184.7C75.7008 184.2 76.0008 183.6 76.0008 182.7V181.9L74.5008 182C73.3008 182 72.5008 182.2 72.0008 182.5C71.5008 182.8 71.2008 183.3 71.2008 183.9C71.2008 184.4 71.4008 184.8 71.7008 185C72.1008 185.2 72.5008 185.4 73.1008 185.4Z" fill="white"></path><path d="M84.3 186.5C82.9 186.5 81.8 186.1 81.1 185.3C80.4 184.5 80 183.3 80 181.8C80 180.3 80.4 179.1 81.2 178.3C82 177.5 83.1 177 84.5 177C85 177 85.4 177 85.9 177.1C86.4 177.2 86.7 177.3 87 177.4L86.6 178.6C86.3 178.5 85.9 178.4 85.5 178.3C85.1 178.2 84.8 178.2 84.5 178.2C82.5 178.2 81.6 179.4 81.6 181.8C81.6 182.9 81.8 183.8 82.3 184.4C82.8 185 83.5 185.3 84.4 185.3C85.2 185.3 86 185.1 86.9 184.8V186C86.1 186.3 85.3 186.5 84.3 186.5Z" fill="white"></path><path d="M94.9984 186.3L94.6984 185H94.5984C94.0984 185.6 93.5984 186 93.1984 186.2C92.7984 186.4 92.0984 186.5 91.3984 186.5C90.3984 186.5 89.6984 186.3 89.1984 185.8C88.6984 185.3 88.3984 184.7 88.3984 183.8C88.3984 182 89.9984 181 93.0984 180.9H94.6984V180.3C94.6984 179.6 94.4984 179.1 94.1984 178.7C93.8984 178.4 93.3984 178.2 92.5984 178.2C91.7984 178.2 90.8984 178.4 89.8984 178.9L89.4984 177.8C89.9984 177.6 90.4984 177.4 91.0984 177.2C91.6984 177.1 92.1984 177 92.7984 177C93.9984 177 94.7984 177.2 95.3984 177.7C95.9984 178.2 96.1984 179 96.1984 180V186.2H94.9984V186.3ZM91.6984 185.4C92.5984 185.4 93.2984 185.2 93.7984 184.7C94.2984 184.2 94.5984 183.6 94.5984 182.7V181.9L93.0984 182C91.8984 182 91.0984 182.2 90.5984 182.5C90.0984 182.8 89.7984 183.3 89.7984 183.9C89.7984 184.4 89.9984 184.8 90.2984 185C90.6984 185.2 91.0984 185.4 91.6984 185.4Z" fill="white"></path><path d="M105.702 185.1C104.902 186 103.902 186.5 102.602 186.5C101.302 186.5 100.402 186.1 99.7016 185.3C99.0016 184.5 98.6016 183.3 98.6016 181.8C98.6016 180.3 99.0016 179.1 99.7016 178.3C100.402 177.5 101.402 177 102.602 177C103.902 177 104.902 177.5 105.602 178.4H105.702L105.602 177.7V177.1V173.4H107.102V186.4H105.902L105.702 185.1ZM102.702 185.3C103.702 185.3 104.402 185 104.902 184.5C105.302 184 105.602 183.2 105.602 182V181.7C105.602 180.4 105.402 179.5 104.902 178.9C104.402 178.3 103.702 178.1 102.702 178.1C101.802 178.1 101.202 178.4 100.702 179C100.202 179.6 100.002 180.5 100.002 181.7C100.002 182.9 100.202 183.7 100.702 184.3C101.202 184.9 101.902 185.3 102.702 185.3Z" fill="white"></path><path d="M114.202 186.5C112.802 186.5 111.602 186.1 110.802 185.3C110.002 184.5 109.602 183.3 109.602 181.9C109.602 180.4 110.002 179.3 110.702 178.4C111.402 177.5 112.502 177.1 113.802 177.1C115.002 177.1 116.002 177.5 116.702 178.2C117.402 179 117.802 179.9 117.802 181.2V182.1H111.202C111.202 183.2 111.502 184 112.102 184.5C112.602 185.1 113.402 185.3 114.402 185.3C115.402 185.3 116.502 185.1 117.502 184.7V185.9C117.002 186.1 116.502 186.3 116.002 186.4C115.402 186.5 114.902 186.5 114.202 186.5ZM113.802 178.2C113.002 178.2 112.402 178.4 111.902 178.9C111.402 179.4 111.202 180 111.102 180.9H116.102C116.102 180 115.902 179.4 115.502 178.9C115.102 178.4 114.602 178.2 113.802 178.2Z" fill="white"></path><path d="M132.601 186.3V180.4C132.601 179.7 132.401 179.1 132.101 178.8C131.801 178.4 131.301 178.3 130.601 178.3C129.701 178.3 129.001 178.5 128.601 179C128.201 179.5 127.901 180.3 127.901 181.3V186.4H126.401V180.5C126.401 179.8 126.201 179.2 125.901 178.9C125.601 178.5 125.101 178.4 124.401 178.4C123.501 178.4 122.801 178.7 122.401 179.2C122.001 179.7 121.801 180.6 121.801 181.8V186.6H120.301V177.5H121.501L121.701 178.8H121.801C122.101 178.4 122.501 178 123.001 177.8C123.501 177.6 124.101 177.4 124.701 177.4C126.201 177.4 127.201 177.9 127.701 179H127.801C128.101 178.5 128.501 178.1 129.101 177.9C129.601 177.6 130.301 177.5 131.001 177.5C132.101 177.5 132.901 177.8 133.501 178.3C134.001 178.8 134.301 179.7 134.301 180.8V186.8H132.601V186.3Z" fill="white"></path><path d="M135.5 177.2H137.1L139.2 182.4C139.7 183.6 140 184.4 140.1 185H140.2C140.3 184.7 140.4 184.2 140.7 183.5C140.9 182.8 141.7 180.7 143.1 177.2H144.7L140.6 187.6C140.2 188.6 139.7 189.4 139.2 189.8C138.7 190.2 138 190.4 137.2 190.4C136.8 190.4 136.3 190.4 135.9 190.3V189.2C136.2 189.3 136.6 189.3 137 189.3C138 189.3 138.7 188.8 139.1 187.7L139.6 186.4L135.5 177.2Z" fill="white"></path><path d="M72.5992 0H71.8992C45.5992 0 24.1992 21.4 24.1992 47.7V140.8H120.199V47.7C120.299 21.4 98.8992 0 72.5992 0ZM30.1992 47.7C30.1992 29.6 41.8992 14.1 58.0992 8.4C57.7992 17.1 55.7992 21.7 53.7992 26.6C51.3992 32.2 48.8992 38.1 48.8992 49.7C48.8992 61.3 51.3992 67.2 53.7992 72.9C55.9992 78.3 58.1992 83.4 58.1992 93.7C58.1992 104.1 56.0992 109.2 53.7992 114.6C51.5992 119.8 49.3992 125.1 48.9992 134.8H30.1992V47.7ZM77.6992 134.8H54.9992C55.3992 126.4 57.2992 121.8 59.2992 116.9C61.6992 111.2 64.0992 105.3 64.0992 93.7C64.0992 82.1 61.5992 76.2 59.2992 70.5C57.0992 65.2 54.8992 60.1 54.8992 49.7C54.8992 39.3 56.9992 34.2 59.2992 28.8C61.5992 23.3 63.9992 17.6 64.0992 6.6C66.5992 6.2 69.1992 6 71.8992 6H72.5992C77.5992 6 82.3992 6.9 86.7992 8.5C86.3992 16.7 84.4992 21.2 82.4992 26C80.0992 31.7 77.6992 37.6 77.6992 49.2C77.6992 60.8 80.1992 66.7 82.4992 72.4C84.6992 77.8 86.8992 82.9 86.8992 93.3C86.8992 103.7 84.7992 108.8 82.4992 114.2C80.2992 119.3 77.9992 124.8 77.6992 134.8ZM114.299 134.8H83.6992C83.9992 126 85.9992 121.3 87.9992 116.4C90.3992 110.7 92.8992 104.8 92.8992 93.2C92.8992 81.6 90.3992 75.7 87.9992 70C85.7992 64.6 83.5992 59.5 83.5992 49.1C83.5992 38.7 85.6992 33.6 87.9992 28.2C89.8992 23.6 91.8992 18.8 92.5992 11C105.499 18.1 114.199 31.8 114.199 47.5V134.8H114.299Z" fill="#C39973"></path></svg>