<svg xmlns="http://www.w3.org/2000/svg" width="555" height="28" viewBox="0 0 555 28" fill="none"><path d="M8.4502 0.579956C5.8702 0.579956 2.7802 0.579956 0.200195 0.579956V21.58C2.7802 21.58 5.8702 21.58 8.4502 21.58C15.8002 21.58 19.0402 16.21 18.9502 10.9C18.8602 5.70996 15.6502 0.579956 8.4502 0.579956ZM4.1302 4.32996H8.4502C13.0102 4.32996 14.9302 7.59996 15.0202 10.87C15.1102 14.29 13.2202 17.77 8.4502 17.77H4.1302V4.32996Z" fill="#999999"></path><path d="M28.5469 6.48996C23.8369 6.48996 20.8969 9.96996 20.8969 14.2C20.8969 18.46 23.7769 21.91 28.5769 21.91C33.3769 21.91 36.2869 18.46 36.2869 14.2C36.2869 9.96996 33.2569 6.48996 28.5469 6.48996ZM28.5769 9.81996C31.0369 9.81996 32.5969 11.98 32.5969 14.2C32.5969 16.45 31.2469 18.55 28.5769 18.55C25.9069 18.55 24.5569 16.45 24.5569 14.2C24.5569 11.98 25.9369 9.81996 28.5769 9.81996Z" fill="#999999"></path><path d="M49.0435 17.29C48.1435 18.19 46.9735 18.52 45.8035 18.52C43.5235 18.52 41.6035 17.02 41.6035 14.2C41.6035 11.62 43.4035 9.81996 45.8635 9.81996C46.8835 9.81996 47.9635 10.21 48.8335 10.99L51.1435 8.55996C49.5235 6.96996 47.9035 6.36996 45.8035 6.36996C41.5135 6.36996 37.9435 8.94996 37.9435 14.2C37.9435 19.45 41.5135 22.03 45.8035 22.03C47.9935 22.03 49.7935 21.37 51.5035 19.69L49.0435 17.29Z" fill="#999999"></path><circle cx="63.5034" cy="20" r="2" fill="#999999"></circle><path d="M91.9136 16.63C90.5336 18.01 88.4636 18.76 86.6336 18.76C81.4436 18.76 79.4336 15.13 79.4036 11.65C79.3736 8.13996 81.5636 4.35996 86.6336 4.35996C88.4636 4.35996 90.3236 4.98996 91.7036 6.33996L94.3436 3.78996C92.1836 1.65996 89.4836 0.579956 86.6336 0.579956C79.0436 0.579956 75.4736 6.15996 75.5036 11.65C75.5336 17.11 78.8336 22.48 86.6336 22.48C89.6636 22.48 92.4536 21.49 94.6136 19.36L91.9136 16.63Z" fill="#999999"></path><path d="M103.243 6.90996C98.5328 6.90996 95.5928 10.39 95.5928 14.62C95.5928 18.88 98.4728 22.33 103.273 22.33C108.073 22.33 110.983 18.88 110.983 14.62C110.983 10.39 107.953 6.90996 103.243 6.90996ZM103.273 10.24C105.733 10.24 107.293 12.4 107.293 14.62C107.293 16.87 105.943 18.97 103.273 18.97C100.603 18.97 99.2528 16.87 99.2528 14.62C99.2528 12.4 100.633 10.24 103.273 10.24Z" fill="#999999"></path><path d="M128.059 22V14.23C128.059 9.57996 125.269 6.96996 121.789 6.96996C119.929 6.96996 118.429 7.71996 116.929 9.18996L116.689 7.17996H113.419V22H117.049V14.44C117.049 12.19 118.579 10.3 120.829 10.3C123.169 10.3 124.399 12.01 124.399 14.26V22H128.059Z" fill="#999999"></path><path d="M145.755 22V14.23C145.755 9.57996 142.965 6.96996 139.485 6.96996C137.625 6.96996 136.125 7.71996 134.625 9.18996L134.385 7.17996H131.115V22H134.745V14.44C134.745 12.19 136.275 10.3 138.525 10.3C140.865 10.3 142.095 12.01 142.095 14.26V22H145.755Z" fill="#999999"></path><path d="M163.57 15.91C164.14 9.81996 161.05 6.75996 156.1 6.75996C151.3 6.75996 148.24 9.99996 148.24 14.5C148.24 19.24 151.27 22.39 156.37 22.39C158.62 22.39 161.17 21.61 162.73 19.99L160.39 17.68C159.55 18.55 157.78 19.06 156.43 19.06C153.85 19.06 152.26 17.74 152.02 15.91H163.57ZM152.08 12.88C152.62 10.96 154.24 9.99996 156.22 9.99996C158.32 9.99996 159.82 10.96 160.06 12.88H152.08Z" fill="#999999"></path><path d="M176.62 17.71C175.72 18.61 174.55 18.94 173.38 18.94C171.1 18.94 169.18 17.44 169.18 14.62C169.18 12.04 170.98 10.24 173.44 10.24C174.46 10.24 175.54 10.63 176.41 11.41L178.72 8.97996C177.1 7.38996 175.48 6.78996 173.38 6.78996C169.09 6.78996 165.52 9.36996 165.52 14.62C165.52 19.87 169.09 22.45 173.38 22.45C175.57 22.45 177.37 21.79 179.08 20.11L176.62 17.71Z" fill="#999999"></path><path d="M182.187 3.42996V7.23996H179.427V10.39H182.187V16.78C182.187 20.47 184.287 22.3 187.497 22.18C188.607 22.15 189.477 21.97 190.527 21.55L189.507 18.43C188.967 18.7 188.307 18.88 187.737 18.88C186.597 18.88 185.817 18.19 185.817 16.78V10.39H189.927V7.23996H185.847V3.03996L182.187 3.42996Z" fill="#999999"></path><circle cx="202.527" cy="20" r="2" fill="#999999"></circle><path d="M214.527 0.579956V21.58H229.287V17.92H218.487V0.579956H214.527Z" fill="#999999"></path><path d="M244.002 8.82996C243.162 7.35996 241.272 6.42996 239.292 6.42996C234.972 6.39996 231.582 9.06996 231.582 14.17C231.582 19.36 234.822 22.06 239.202 22.03C240.852 22 243.162 21.16 244.002 19.42L244.182 21.58H247.632V6.78996H244.122L244.002 8.82996ZM239.622 9.69996C245.382 9.69996 245.382 18.67 239.622 18.67C237.192 18.67 235.242 16.99 235.242 14.17C235.242 11.35 237.192 9.69996 239.622 9.69996Z" fill="#999999"></path><path d="M258.629 9.84996C260.969 9.84996 262.829 11.5 262.829 14.17C262.829 16.75 260.969 18.52 258.629 18.52C256.319 18.52 254.339 16.84 254.339 14.17C254.339 11.59 256.319 9.84996 258.629 9.84996ZM250.439 0.609956V21.58H253.859L254.099 19.54C255.239 21.31 257.069 21.91 258.869 21.91C263.219 21.91 266.489 19.03 266.489 14.17C266.489 9.06996 263.279 6.42996 258.959 6.42996C257.399 6.42996 254.969 7.26996 254.099 8.79996V0.609956H250.439Z" fill="#999999"></path><circle cx="278.489" cy="20" r="2" fill="#999999"></circle><path d="M294.449 4.35996H300.389C305.429 4.35996 305.459 11.8 300.389 11.8H294.449V4.35996ZM300.389 0.579956C297.089 0.579956 293.789 0.609956 290.489 0.609956V21.61H294.449V15.43H300.389C310.679 15.43 310.649 0.579956 300.389 0.579956Z" fill="#999999"></path><path d="M310.492 0.609956V21.61H314.152V14.05C314.152 11.83 315.652 9.99996 317.812 9.99996C319.762 9.99996 321.172 11.14 321.172 13.84V21.61H324.832V13.81C324.832 9.45996 322.972 6.60996 318.772 6.60996C317.092 6.60996 315.472 7.11996 314.152 8.82996V0.609956H310.492Z" fill="#999999"></path><path d="M339.534 8.85996C338.694 7.38996 336.804 6.45996 334.824 6.45996C330.504 6.42996 327.114 9.09996 327.114 14.2C327.114 19.39 330.354 22.09 334.734 22.06C336.384 22.03 338.694 21.19 339.534 19.45L339.714 21.61H343.164V6.81996H339.654L339.534 8.85996ZM335.154 9.72996C340.914 9.72996 340.914 18.7 335.154 18.7C332.724 18.7 330.774 17.02 330.774 14.2C330.774 11.38 332.724 9.72996 335.154 9.72996Z" fill="#999999"></path><path d="M346.264 6.81996V21.61H349.924V13.81C349.924 11.08 351.694 10.06 353.614 10.06C354.814 10.06 355.504 10.39 356.254 11.02L357.904 7.83996C357.094 7.02996 355.624 6.42996 354.094 6.42996C352.594 6.42996 351.064 6.69996 349.924 8.52996L349.654 6.81996H346.264Z" fill="#999999"></path><path d="M372.771 21.61V13.69C372.771 11.74 374.002 10.03 375.982 10.03C377.962 10.03 378.772 11.68 378.772 13.63V21.61H382.432V13.63C382.432 9.18995 380.362 6.60996 376.162 6.60996C374.242 6.60996 372.532 7.20996 371.212 9.30996C370.372 7.26996 368.602 6.54996 366.832 6.54996C365.422 6.54996 363.712 7.08996 362.932 8.58996L362.662 6.78996H359.271V21.61H362.932V13.69C362.932 11.74 364.102 9.96996 366.082 9.96996C368.092 9.96996 369.112 11.74 369.112 13.69V21.61H372.771Z" fill="#999999"></path><path d="M397.776 8.85996C396.936 7.38996 395.046 6.45996 393.066 6.45996C388.746 6.42996 385.356 9.09996 385.356 14.2C385.356 19.39 388.596 22.09 392.976 22.06C394.626 22.03 396.936 21.19 397.776 19.45L397.956 21.61H401.406V6.81996H397.896L397.776 8.85996ZM393.396 9.72996C399.156 9.72996 399.156 18.7 393.396 18.7C390.966 18.7 389.016 17.02 389.016 14.2C389.016 11.38 390.966 9.72996 393.396 9.72996Z" fill="#999999"></path><circle cx="413.406" cy="20" r="2" fill="#999999"></circle><path d="M443.616 21.7075V0.707456H439.686V9.55746H429.366V0.707456H425.406V21.7075H429.366V13.2175H439.686V21.7075H443.616Z" fill="#999999"></path><path d="M454.039 6.58746C449.329 6.58746 446.389 10.0675 446.389 14.2975C446.389 18.5575 449.269 22.0075 454.069 22.0075C458.869 22.0075 461.779 18.5575 461.779 14.2975C461.779 10.0675 458.749 6.58746 454.039 6.58746ZM454.069 9.91746C456.529 9.91746 458.089 12.0775 458.089 14.2975C458.089 16.5475 456.739 18.6475 454.069 18.6475C451.399 18.6475 450.049 16.5475 450.049 14.2975C450.049 12.0775 451.429 9.91746 454.069 9.91746Z" fill="#999999"></path><path d="M476.005 8.41746C474.295 6.91746 472.555 6.46746 470.245 6.46746C467.545 6.46746 464.005 7.66746 464.005 11.0875C464.005 14.4475 467.335 15.4675 470.125 15.6775C472.225 15.7975 473.065 16.2175 473.065 17.2375C473.065 18.3175 471.775 19.0375 470.395 19.0075C468.745 18.9775 466.345 18.1075 465.295 16.9375L463.495 19.5475C465.655 21.7975 467.995 22.1875 470.335 22.1875C474.565 22.1875 476.695 19.9375 476.695 17.3275C476.695 13.3975 473.155 12.7675 470.365 12.5875C468.475 12.4675 467.605 11.9275 467.605 10.9675C467.605 10.0375 468.565 9.49746 470.305 9.49746C471.715 9.49746 472.915 9.82746 473.965 10.8175L476.005 8.41746Z" fill="#999999"></path><path d="M487.232 18.4975C484.742 18.4975 483.032 16.6075 483.032 14.2975C483.032 11.9875 484.592 10.0975 487.232 10.0975C489.872 10.0975 491.432 11.9875 491.432 14.2975C491.432 16.6075 489.722 18.4975 487.232 18.4975ZM482.702 27.8575V19.9375C483.752 21.5575 486.062 22.0375 487.622 22.0375C492.362 22.0375 495.092 18.6175 495.092 14.2975C495.092 9.94746 492.062 6.55746 487.502 6.55746C485.822 6.55746 483.842 7.27746 482.702 8.92746L482.462 6.88746H479.042V27.8575H482.702Z" fill="#999999"></path><path d="M501.452 6.82746V21.6775H497.792V6.82746H501.452ZM497.462 2.71746C497.462 5.56746 501.782 5.56746 501.782 2.71746C501.782 -0.132544 497.462 -0.132544 497.462 2.71746Z" fill="#999999"></path><path d="M506.264 3.10746V6.91746H503.504V10.0675H506.264V16.4575C506.264 20.1475 508.364 21.9775 511.574 21.8575C512.684 21.8275 513.554 21.6475 514.604 21.2275L513.584 18.1075C513.044 18.3775 512.384 18.5575 511.814 18.5575C510.674 18.5575 509.894 17.8675 509.894 16.4575V10.0675H514.004V6.91746H509.924V2.71746L506.264 3.10746Z" fill="#999999"></path><path d="M528.357 8.92746C527.517 7.45746 525.627 6.52746 523.647 6.52746C519.327 6.49746 515.937 9.16746 515.937 14.2675C515.937 19.4575 519.177 22.1575 523.557 22.1275C525.207 22.0975 527.517 21.2575 528.357 19.5175L528.537 21.6775H531.987V6.88746H528.477L528.357 8.92746ZM523.977 9.79746C529.737 9.79746 529.737 18.7675 523.977 18.7675C521.547 18.7675 519.597 17.0875 519.597 14.2675C519.597 11.4475 521.547 9.79746 523.977 9.79746Z" fill="#999999"></path><path d="M535.087 0.707456V21.6775H538.717V0.707456H535.087Z" fill="#999999"></path><path d="M553.613 8.41746C551.903 6.91746 550.163 6.46746 547.853 6.46746C545.153 6.46746 541.613 7.66746 541.613 11.0875C541.613 14.4475 544.943 15.4675 547.733 15.6775C549.833 15.7975 550.673 16.2175 550.673 17.2375C550.673 18.3175 549.383 19.0375 548.003 19.0075C546.353 18.9775 543.953 18.1075 542.903 16.9375L541.103 19.5475C543.263 21.7975 545.603 22.1875 547.943 22.1875C552.173 22.1875 554.303 19.9375 554.303 17.3275C554.303 13.3975 550.763 12.7675 547.973 12.5875C546.083 12.4675 545.213 11.9275 545.213 10.9675C545.213 10.0375 546.173 9.49746 547.913 9.49746C549.323 9.49746 550.523 9.82746 551.573 10.8175L553.613 8.41746Z" fill="#999999"></path></svg>