<svg xmlns="http://www.w3.org/2000/svg" width="411" height="120" viewBox="0 0 411 120" fill="none"><path d="M23.8527 111.688H15.426V109.562H18.3366V101.844C18.3366 100.056 17.9714 98.7915 17.2356 98.0611C16.5052 97.3307 15.5622 96.9601 14.4231 96.9601C12.9841 96.9601 11.8067 97.4507 10.9019 98.4318C9.99166 99.4129 9.51745 100.514 9.46839 101.729V109.562H12.3409V111.688H3.94141V109.562H6.81391V88.1573H3.94141V86.0315H9.45749V98.0775C10.673 95.8645 12.6134 94.758 15.2734 94.758C16.8868 94.758 18.244 95.254 19.3396 96.2515C20.4352 97.2435 20.9802 98.8515 20.9802 101.059V109.562H23.8527V111.688Z" fill="white"></path><path d="M40.4115 106.913C40.188 108.33 39.4794 109.54 38.2857 110.548C37.092 111.557 35.4786 112.058 33.44 112.058C31.1017 112.058 29.2158 111.328 27.7713 109.856C26.3324 108.39 25.6074 106.313 25.6074 103.632C25.6074 100.95 26.2888 98.9221 27.6569 97.2542C29.025 95.5918 30.8728 94.7578 33.2111 94.7578C35.5495 94.7578 37.2392 95.4773 38.4329 96.9217C39.6266 98.3662 40.237 100.067 40.2588 102.029C40.2588 102.678 40.1825 103.332 40.0354 104.008H28.3655C28.5126 107.883 30.2677 109.823 33.6254 109.823C34.9444 109.823 35.9746 109.513 36.7213 108.891C37.4681 108.27 37.9641 107.452 38.2148 106.433L40.4169 106.918L40.4115 106.913ZM37.5008 102.067C37.6262 100.824 37.3318 99.658 36.6232 98.5624C35.9146 97.4668 34.7537 96.9217 33.1348 96.9217C31.516 96.9217 30.464 97.4341 29.7445 98.4479C29.025 99.4672 28.578 100.672 28.4036 102.067H37.5008Z" fill="white"></path><path d="M52.3059 94.7962C53.4996 94.7962 54.4425 95.0797 55.1402 95.652L55.7725 99.8272L53.6467 100.089L53.0144 97.2545C52.5893 97.1073 52.1696 97.031 51.7444 97.031C50.7742 97.031 49.9675 97.4344 49.3189 98.2411C48.6703 99.0478 48.3487 100.1 48.3487 101.392V109.557H52.1914V111.682H42.8326V109.557H45.7432V97.2163H42.7617V95.0906H48.2069V98.0721C48.5285 97.1509 49.0573 96.3769 49.7931 95.7392C50.5235 95.1069 51.3629 94.7908 52.3113 94.7908L52.3059 94.7962Z" fill="white"></path><path d="M67.0718 111.688H58.6451V109.562H61.5557V97.2215H58.5742V95.0958H64.1666V109.562H67.0773V111.688H67.0718ZM61.2941 90.8061V87.4158H64.1285V90.8061H61.2941Z" fill="white"></path><path d="M81.4621 107.213C81.0151 110.445 79.26 112.058 76.2076 112.058C74.5397 112.058 73.2697 111.584 72.3867 110.641C71.5037 109.698 71.0622 108.417 71.0622 106.799V97.1781H68.375V95.0905H71.0622V89.7598H73.6731V95.0905H80.1594V97.1781H73.6731V106.461C73.6731 107.453 73.8911 108.259 74.3271 108.864C74.7632 109.475 75.4772 109.78 76.4693 109.78C77.1179 109.78 77.7175 109.584 78.2789 109.186C78.8403 108.788 79.2436 107.916 79.4889 106.575L81.4675 107.207L81.4621 107.213Z" fill="white"></path><path d="M84.6668 96.3603C85.5389 95.788 86.4546 95.3792 87.4249 95.1285C88.3951 94.8777 89.4253 94.7578 90.5208 94.7578C94.4726 94.7578 96.4512 96.611 96.4512 100.312V108.216C96.4512 109.409 96.9254 110.003 97.8684 110.003C98.2881 110.003 98.6642 109.927 98.9857 109.78L99.0239 111.497C98.3535 111.867 97.634 112.058 96.86 112.058C94.8977 112.058 93.8894 110.941 93.8403 108.701V108.624C93.317 109.518 92.5758 110.314 91.6219 111.012C90.6626 111.709 89.5179 112.058 88.1716 112.058C87.076 112.058 85.9641 111.72 84.8358 111.05C83.7075 110.379 83.1406 109.158 83.1406 107.398C83.1406 105.31 83.9691 103.937 85.6207 103.277C87.2722 102.618 89.0328 102.291 90.8969 102.291C91.393 102.291 91.8999 102.302 92.4068 102.329C92.9137 102.356 93.3933 102.389 93.8403 102.443V100.95C93.8403 99.7561 93.5841 98.7859 93.0772 98.0391C92.5648 97.2924 91.5674 96.9217 90.0739 96.9217C88.8529 96.9217 87.7846 97.1452 86.8689 97.5922L86.2366 100.465L84.0727 100.203L84.6668 96.3603ZM93.8403 105.457V104.187C93.3661 104.166 92.8701 104.128 92.3468 104.073C91.8236 104.024 91.2894 103.997 90.7443 103.997C89.5016 103.997 88.3787 104.187 87.3704 104.574C86.362 104.961 85.8605 105.801 85.8605 107.093C85.8605 108.161 86.1985 108.897 86.8689 109.295C87.5393 109.693 88.237 109.889 88.9565 109.889C90.1011 109.889 91.1749 109.491 92.1833 108.695C93.1917 107.899 93.7422 106.82 93.8403 105.452V105.457Z" fill="white"></path><path d="M119.458 97.2216H116.776V111.464C116.776 114.075 116.062 116.152 114.634 117.689C113.206 119.231 111.195 120 108.611 120C106.873 120 105.314 119.602 103.935 118.806C102.556 118.01 101.64 116.779 101.193 115.116L103.281 114.07C103.706 115.361 104.436 116.299 105.483 116.882C106.529 117.465 107.608 117.76 108.726 117.76C110.317 117.76 111.615 117.204 112.623 116.103C113.631 114.996 114.133 113.41 114.133 111.35V108.292C113.637 109.262 112.912 110.107 111.969 110.826C111.026 111.546 109.767 111.906 108.203 111.906C106.24 111.906 104.562 111.208 103.172 109.818C101.782 108.428 101.084 106.428 101.084 103.817C101.084 101.604 101.678 99.5436 102.872 97.6249C104.066 95.7118 105.941 94.7524 108.502 94.7524C111.064 94.7524 113.016 95.7336 114.133 97.6958V95.0849H119.464V97.2107L119.458 97.2216ZM114.127 104.531V101.658C114.127 100.269 113.648 99.1402 112.694 98.2845C111.74 97.4287 110.574 96.9981 109.205 96.9981C107.341 96.9981 105.995 97.6686 105.161 99.0094C104.327 100.35 103.913 101.893 103.913 103.632C103.913 105.67 104.376 107.185 105.314 108.183C106.246 109.175 107.396 109.676 108.764 109.676C110.356 109.676 111.636 109.131 112.607 108.036C113.577 106.94 114.084 105.774 114.133 104.531H114.127Z" fill="white"></path><path d="M136.306 106.913C136.083 108.33 135.374 109.54 134.18 110.548C132.987 111.557 131.373 112.058 129.335 112.058C126.996 112.058 125.11 111.328 123.666 109.856C122.227 108.39 121.502 106.313 121.502 103.632C121.502 100.95 122.183 98.9221 123.551 97.2542C124.92 95.5918 126.767 94.7578 129.106 94.7578C131.444 94.7578 133.134 95.4773 134.327 96.9217C135.521 98.3662 136.132 100.067 136.153 102.029C136.153 102.678 136.077 103.332 135.93 104.008H124.26C124.407 107.883 126.162 109.823 129.52 109.823C130.839 109.823 131.869 109.513 132.616 108.891C133.363 108.27 133.859 107.452 134.109 106.433L136.311 106.918L136.306 106.913ZM133.395 102.067C133.521 100.824 133.226 99.658 132.518 98.5624C131.809 97.4668 130.648 96.9217 129.029 96.9217C127.41 96.9217 126.359 97.4341 125.639 98.4479C124.92 99.4672 124.473 100.672 124.298 102.067H133.395Z" fill="white"></path><path d="M163.825 97.2215H161.814L155.736 111.688H153.725L147.386 97.2215H145.445V95.0957H153.087V97.2215H150.215L154.837 108.145H155.06L159.197 97.2215H156.548V95.0957H163.82V97.2215H163.825Z" fill="white"></path><path d="M173.855 111.688H165.428V109.562H168.339V97.2215H165.357V95.0958H170.95V109.562H173.86V111.688H173.855ZM168.077 90.8061V87.4158H170.912V90.8061H168.077Z" fill="white"></path><path d="M183.77 111.688H175.343V109.562H178.254V88.1573H175.311V86.0315H180.865V109.557H183.775V111.682L183.77 111.688Z" fill="white"></path><path d="M193.69 111.688H185.263V109.562H188.174V88.1573H185.23V86.0315H190.785V109.557H193.695V111.682L193.69 111.688Z" fill="white"></path><path d="M197.458 96.3603C198.33 95.788 199.246 95.3792 200.216 95.1285C201.186 94.8777 202.216 94.7578 203.312 94.7578C207.264 94.7578 209.242 96.611 209.242 100.312V108.216C209.242 109.409 209.716 110.003 210.659 110.003C211.079 110.003 211.455 109.927 211.777 109.78L211.815 111.497C211.144 111.867 210.425 112.058 209.651 112.058C207.689 112.058 206.68 110.941 206.631 108.701V108.624C206.108 109.518 205.367 110.314 204.413 111.012C203.454 111.709 202.309 112.058 200.963 112.058C199.867 112.058 198.755 111.72 197.627 111.05C196.499 110.379 195.932 109.158 195.932 107.398C195.932 105.31 196.76 103.937 198.412 103.277C200.063 102.618 201.824 102.291 203.688 102.291C204.184 102.291 204.691 102.302 205.198 102.329C205.705 102.356 206.184 102.389 206.631 102.443V100.95C206.631 99.7561 206.375 98.7859 205.868 98.0391C205.356 97.2924 204.358 96.9217 202.865 96.9217C201.644 96.9217 200.576 97.1452 199.66 97.5922L199.028 100.465L196.864 100.203L197.458 96.3603ZM206.631 105.457V104.187C206.157 104.166 205.661 104.128 205.138 104.073C204.615 104.024 204.08 103.997 203.535 103.997C202.293 103.997 201.17 104.187 200.161 104.574C199.153 104.961 198.652 105.801 198.652 107.093C198.652 108.161 198.989 108.897 199.66 109.295C200.33 109.693 201.028 109.889 201.748 109.889C202.892 109.889 203.966 109.491 204.974 108.695C205.983 107.899 206.533 106.82 206.631 105.452V105.457Z" fill="white"></path><path d="M232.243 97.2216H229.562V111.464C229.562 114.075 228.848 116.152 227.42 117.689C225.991 119.231 223.98 120 221.397 120C219.658 120 218.099 119.602 216.72 118.806C215.341 118.01 214.425 116.779 213.978 115.116L216.066 114.07C216.491 115.361 217.221 116.299 218.268 116.882C219.314 117.465 220.394 117.76 221.511 117.76C223.103 117.76 224.4 117.204 225.408 116.103C226.417 114.996 226.918 113.41 226.918 111.35V108.292C226.422 109.262 225.697 110.107 224.754 110.826C223.811 111.546 222.552 111.906 220.988 111.906C219.025 111.906 217.347 111.208 215.957 109.818C214.567 108.428 213.869 106.428 213.869 103.817C213.869 101.604 214.463 99.5436 215.657 97.6249C216.851 95.7118 218.726 94.7524 221.288 94.7524C223.849 94.7524 225.801 95.7336 226.918 97.6958V95.0849H232.249V97.2107L232.243 97.2216ZM226.913 104.531V101.658C226.913 100.269 226.433 99.1402 225.479 98.2845C224.52 97.4287 223.359 96.9981 221.991 96.9981C220.127 96.9981 218.78 97.6686 217.946 99.0094C217.112 100.35 216.698 101.893 216.698 103.632C216.698 105.67 217.161 107.185 218.099 108.183C219.031 109.175 220.181 109.676 221.549 109.676C223.141 109.676 224.422 109.131 225.392 108.036C226.362 106.94 226.869 105.774 226.918 104.531H226.913Z" fill="white"></path><path d="M249.095 106.913C248.872 108.33 248.163 109.54 246.969 110.548C245.776 111.557 244.162 112.058 242.124 112.058C239.785 112.058 237.899 111.328 236.455 109.856C235.016 108.39 234.291 106.313 234.291 103.632C234.291 100.95 234.972 98.9221 236.34 97.2542C237.709 95.5918 239.556 94.7578 241.895 94.7578C244.233 94.7578 245.923 95.4773 247.116 96.9217C248.31 98.3662 248.921 100.067 248.942 102.029C248.942 102.678 248.866 103.332 248.719 104.008H237.049C237.196 107.883 238.951 109.823 242.309 109.823C243.628 109.823 244.658 109.513 245.405 108.891C246.152 108.27 246.648 107.452 246.898 106.433L249.101 106.918L249.095 106.913ZM246.184 102.067C246.31 100.824 246.015 99.658 245.307 98.5624C244.598 97.4668 243.437 96.9217 241.818 96.9217C240.2 96.9217 239.148 97.4341 238.428 98.4479C237.709 99.4672 237.262 100.672 237.087 102.067H246.184Z" fill="white"></path><path d="M3.09061 69.6194C3.7774 69.6194 4.49689 69.603 5.24363 69.5758C6.00127 69.5431 6.58995 69.4668 7.03145 69.3414C7.4675 69.2215 7.8436 68.9817 8.15429 68.6383C8.46498 68.2949 8.74841 67.668 9.00459 66.7578C9.24988 65.853 9.47335 64.5666 9.66413 62.9096C9.84945 61.2526 9.99117 59.0396 10.0838 56.287C10.1765 53.529 10.2583 50.1223 10.3182 46.0452C10.3782 41.9736 10.4109 37.057 10.4109 31.3011C10.4109 26.6027 10.3509 22.6891 10.2255 19.5604C10.0947 16.4317 9.90396 13.908 9.65868 12.0003C9.40795 10.0871 9.07545 8.72989 8.6721 7.91228C8.25785 7.10013 7.74549 6.69133 7.11866 6.69133C6.80252 6.69133 6.38282 6.70769 5.84865 6.73494C5.31449 6.76764 4.76942 6.784 4.20255 6.784C3.63568 6.784 3.12332 6.80035 2.64911 6.8276C2.18035 6.8603 1.88601 6.87121 1.76065 6.87121C1.62983 6.87121 1.53717 6.74584 1.47721 6.49511C1.40635 6.24438 1.3791 5.99365 1.3791 5.74292C1.3791 5.49219 1.4118 5.1815 1.47721 4.79995C1.53717 4.42385 1.76065 4.23853 2.13674 4.23853H10.4926C13.1907 4.23853 15.4091 4.17857 17.1643 4.05321C18.9139 3.92784 20.5764 3.70981 22.1407 3.39367C23.0837 3.20835 23.487 3.51904 23.3617 4.33664C23.3017 4.71274 23.2309 5.33957 23.1709 6.21167C23.1109 7.08923 23.0346 8.02675 22.942 9.02967C22.8439 10.0326 22.7676 10.9919 22.7076 11.8967C22.6476 12.807 22.6149 13.4774 22.6149 13.9135C23.3617 13.0359 24.6044 11.973 26.3214 10.7194C28.0438 9.46573 30.0606 8.27748 32.3771 7.14919C34.6936 6.0209 37.2336 5.05068 39.9917 4.23853C42.7443 3.42638 45.535 3.01758 48.3476 3.01758C52.1085 3.01758 55.5861 3.50269 58.7747 4.46746C61.9688 5.44313 64.7051 6.87666 66.9998 8.78984C69.2836 10.703 71.066 13.1068 72.3523 16.0229C73.6387 18.9336 74.2764 22.362 74.2764 26.3083C74.2764 28.8756 74.0257 31.5192 73.5297 34.2445C73.0228 36.9698 72.396 39.6788 71.6492 42.3715C70.9025 45.0641 70.0794 47.675 69.2019 50.215C68.3298 52.755 67.5122 55.0988 66.7654 57.2573C66.0187 59.4157 65.3918 61.3453 64.8849 63.035C64.378 64.7247 64.1382 66.0383 64.1382 66.9813C64.1382 67.668 64.4652 68.2131 65.1248 68.6274C65.7843 69.0362 66.9235 69.2378 68.5478 69.2378C69.4253 69.2378 70.1612 69.2051 70.7553 69.1397C71.3494 69.0798 71.8618 68.889 72.3087 68.5783C72.5595 68.4529 72.8047 68.5783 73.0555 68.9544C73.1863 69.1397 73.2463 69.3632 73.2463 69.6139C73.2463 69.9301 73.0718 70.3661 72.7284 70.9276C72.3851 71.489 71.9926 71.7724 71.5565 71.7724H68.2698C66.5746 71.7724 64.7432 71.7888 62.7755 71.816C60.8024 71.8487 58.8619 71.8651 56.9487 71.8651H52.5773C51.6452 71.8651 51.171 71.5489 51.171 70.9221C51.171 70.546 51.2037 70.3116 51.2637 70.219C51.3236 70.1208 51.4381 70.0609 51.5907 70.0282C51.7488 69.9955 51.9341 69.9355 52.1576 69.8429C52.3811 69.7502 52.6754 69.5158 53.0515 69.1397C53.7383 68.0768 54.4578 66.3054 55.2045 63.8308C55.9622 61.3562 56.6326 58.4619 57.2322 55.1424C57.8209 51.8229 58.3278 48.2255 58.7311 44.3392C59.1345 40.4583 59.3416 36.5774 59.3416 32.6911C59.3416 28.8047 58.8728 25.0492 57.9353 21.9805C56.9924 18.9117 55.7114 16.3445 54.0817 14.2787C52.4519 12.2129 50.5715 10.6594 48.4457 9.62925C46.3145 8.59907 44.0579 8.08126 41.6814 8.08126C39.6156 8.08126 37.5007 8.4737 35.3423 9.25315C33.1783 10.038 31.1888 11.1009 29.3738 12.4472C27.5641 13.799 25.978 15.3579 24.6317 17.1457C23.2799 18.9281 22.4242 20.7977 22.0481 22.7327C21.8573 23.6102 21.7047 25.1419 21.5739 27.3385C21.4539 29.5297 21.3613 32.0642 21.3013 34.9422C21.2305 37.8256 21.1869 40.8616 21.1542 44.0557C21.1214 47.2498 21.1105 50.2913 21.1105 53.1692C21.1105 54.9843 21.1432 56.7231 21.2032 58.3801C21.2632 60.0371 21.3613 61.5469 21.4866 62.8878C21.612 64.2287 21.7374 65.3788 21.8627 66.3163C21.9936 67.2592 22.1135 67.8479 22.2388 68.0986C22.4896 68.6601 22.773 69.0525 23.0891 69.2705C23.4053 69.4886 24.2828 69.5976 25.7164 69.5976C26.3432 69.5976 26.8229 69.5649 27.1771 69.4995C27.5151 69.4395 27.9402 69.4068 28.4363 69.4068C28.8778 69.4068 29.1557 69.5812 29.2866 69.9246C29.4065 70.268 29.4773 70.5678 29.4773 70.8131C29.4773 70.9384 29.3629 71.1292 29.1503 71.38C28.9268 71.6307 28.6597 71.7561 28.349 71.7561C27.9729 71.7561 27.3298 71.7397 26.425 71.7124C25.5147 71.6797 24.5009 71.6688 23.3726 71.6688C22.2443 71.6688 21.1323 71.647 20.0422 71.6198C18.9412 71.5871 18.08 71.5762 17.4586 71.5762C15.8288 71.5762 14.1555 71.5925 12.4276 71.6198C10.7052 71.6525 9.09726 71.6797 7.58742 71.7179C6.08848 71.7506 4.75852 71.7942 3.59752 71.8596C2.44198 71.9196 1.67344 71.9795 1.29734 72.0449C0.921242 72.0449 0.730469 71.7942 0.730469 71.2927C0.730469 70.9766 0.844933 70.6223 1.05751 70.2135C1.28099 69.8047 1.54807 69.603 1.85876 69.603H3.07971L3.09061 69.6194Z" fill="white"></path><path d="M107.634 42.3768C107.258 40.4364 106.816 38.6976 106.32 37.166C105.813 35.6343 105.197 34.348 104.44 33.3124C103.693 32.2822 102.783 31.4973 101.72 30.9631C100.657 30.4344 99.3324 30.1619 97.7735 30.1619C96.3999 30.1619 95.1299 30.4126 93.9689 30.9141C92.8079 31.4155 91.8159 32.0096 90.9656 32.6964C90.1153 33.3832 89.4612 34.07 88.9925 34.7622C88.5183 35.4545 88.2512 35.9832 88.1912 36.3593C88.1313 36.8607 87.8478 37.1115 87.3518 37.1115C86.4743 37.1115 85.6621 36.7953 84.9045 36.1685C84.1577 35.5417 83.7816 34.7949 83.7816 33.9119C83.7816 33.4105 83.8416 33.0344 83.9669 32.7836C85.4114 31.9715 87.161 31.0939 89.2323 30.1564C91.2981 29.2134 93.4348 28.3413 95.6586 27.5292C97.8825 26.717 100.09 26.0411 102.287 25.507C104.472 24.9783 106.446 24.7112 108.206 24.7112C110.833 24.7112 112.856 25.0873 114.262 25.834C115.674 26.5862 116.726 27.6545 117.412 29.0281C118.099 30.4071 118.519 32.0205 118.682 33.8683C118.835 35.7161 118.982 37.7056 119.102 39.8314C119.293 43.0255 119.538 46.1105 119.849 49.0866C120.165 52.0627 120.634 54.6954 121.26 56.9737C121.887 59.263 122.683 61.1108 123.653 62.5171C124.624 63.9288 125.834 64.6319 127.267 64.6319C127.954 64.6319 128.712 64.512 129.524 64.2558C130.341 64.0051 131.121 63.7108 131.873 63.3674C132.631 63.024 133.301 62.6806 133.901 62.3317C134.489 61.9884 134.887 61.754 135.072 61.6286C135.639 61.6286 135.983 61.912 136.103 62.4735C136.103 62.7896 136.043 63.0676 135.917 63.3183C135.787 63.4437 135.323 63.7598 134.506 64.2613C133.693 64.7628 132.696 65.3569 131.502 66.0437C130.309 66.7304 128.995 67.4717 127.556 68.2512C126.117 69.0361 124.689 69.7665 123.283 70.4587C121.876 71.1509 120.579 71.7124 119.385 72.1484C118.192 72.5899 117.254 72.8079 116.562 72.8079C115.75 72.8079 115.047 72.4809 114.453 71.8214C113.858 71.1618 113.335 70.2897 112.899 69.1941C112.463 68.0986 112.087 66.834 111.776 65.3896C111.466 63.9452 111.182 62.4462 110.926 60.8819C109.803 61.8248 108.359 62.9368 106.609 64.2177C104.848 65.504 102.946 66.7086 100.875 67.8315C98.8091 68.9598 96.6943 69.9136 94.5358 70.6985C92.3719 71.4834 90.2952 71.8704 88.2893 71.8704C86.5996 71.8704 85.1225 71.6033 83.8688 71.0692C82.6152 70.535 81.5686 69.8373 80.7292 68.9543C79.8789 68.0768 79.2521 67.0629 78.8488 65.9019C78.4345 64.7464 78.2383 63.5418 78.2383 62.2881C78.2383 60.2877 78.8488 58.6416 80.0752 57.3553C81.2907 56.0689 83.1875 54.739 85.7548 53.3599C86.9376 52.7386 88.6055 51.9046 90.7312 50.869C92.8624 49.8388 95.0373 48.7868 97.2611 47.7239C99.485 46.6556 101.551 45.6418 103.459 44.6716C105.372 43.7013 106.762 42.9328 107.639 42.3714L107.634 42.3768ZM110.354 56.9356C110.168 55.8727 109.978 54.7172 109.798 53.4635C109.607 52.2098 109.422 51.0216 109.231 49.8933C109.04 48.765 108.871 47.7948 108.713 46.9826C108.56 46.1705 108.446 45.6363 108.386 45.3856C107.383 45.7617 106.26 46.1977 105.007 46.6992C103.753 47.2061 102.499 47.7512 101.246 48.3453C99.9919 48.9394 98.8091 49.539 97.6808 50.1277C96.5471 50.7218 95.6096 51.2723 94.8574 51.7738C93.413 52.7168 92.3174 53.6543 91.5706 54.5972C90.813 55.5402 90.4369 56.663 90.4369 57.9767C90.4369 59.7972 90.9711 61.3942 92.0339 62.7678C93.0968 64.1414 94.7647 64.8336 97.0104 64.8336C98.2041 64.8336 99.4414 64.6101 100.728 64.1741C102.014 63.738 103.197 63.2366 104.298 62.6697C105.394 62.1083 106.347 61.5414 107.165 60.98C107.977 60.4131 108.539 59.9771 108.855 59.6664C109.351 59.1649 109.749 58.7398 110.027 58.3964C110.31 58.053 110.419 57.5679 110.354 56.941V56.9356Z" fill="white"></path><path d="M145.866 55.2459C145.866 56.5596 145.899 57.8296 145.959 59.0505C146.018 60.2715 146.242 61.3234 146.618 62.1956C146.994 63.0731 147.561 63.7762 148.308 64.3104C149.065 64.8446 150.128 65.1117 151.502 65.1117C152.189 65.1117 152.979 65.0354 153.851 64.8773C154.729 64.7192 155.557 64.5175 156.342 64.2668C157.122 64.0161 157.808 63.7653 158.408 63.5146C159.002 63.2639 159.362 63.0786 159.493 62.9532C159.678 62.7679 159.809 62.7679 159.869 62.9532C159.929 63.1385 159.945 63.3783 159.912 63.6563C159.88 63.9398 159.803 64.2232 159.678 64.5066C159.558 64.7846 159.394 64.9917 159.209 65.1117C158.582 65.4278 157.481 65.9892 155.922 66.8068C154.353 67.619 152.505 68.4638 150.379 69.3414C148.368 70.2189 146.411 70.9548 144.509 71.5489C142.595 72.143 141.015 72.4374 139.761 72.4374C138.322 72.4374 137.194 71.9959 136.382 71.1238C135.564 70.2462 135.161 69.1506 135.161 67.837C135.161 67.4009 135.177 67.0248 135.204 66.7087C135.232 66.3926 135.281 65.9892 135.351 65.4878C135.411 64.8609 135.52 63.7163 135.679 62.0593C135.831 60.4023 135.995 58.5327 136.147 56.4669C136.3 54.4011 136.447 52.3189 136.567 50.2204C136.698 48.1219 136.758 46.3232 136.758 44.8188V41.532C136.758 39.9023 136.665 38.4633 136.474 37.2096C136.284 35.9614 135.967 34.9912 135.531 34.299C135.215 33.8629 134.828 33.4977 134.359 33.2198C133.885 32.9363 133.302 32.7946 132.615 32.7946C132.239 32.7946 131.869 32.8764 131.492 33.029C131.116 33.1816 130.833 33.2634 130.642 33.2634C130.522 33.2634 130.315 33.078 130.032 32.7019C129.748 32.3258 129.765 32.0424 130.075 31.8516C130.517 31.5409 131.427 31.0395 132.806 30.3472C134.18 29.6605 135.689 28.9083 137.314 28.0907C139.063 27.2131 140.753 26.4446 142.383 25.7905C144.013 25.1309 145.174 24.8039 145.86 24.8039C146.547 24.8039 147.016 25.011 147.267 25.4144C147.517 25.8232 147.643 26.2756 147.643 26.7771V27.1532C147.643 27.78 147.55 28.7829 147.359 30.1565C147.174 31.5355 146.967 33.2252 146.754 35.2311C146.531 37.2369 146.324 39.5534 146.144 42.1861C145.953 44.8133 145.86 47.6695 145.86 50.7328V55.2405L145.866 55.2459ZM142.105 6.39697C142.421 6.46238 142.939 6.80577 143.658 7.4326C144.378 8.05943 145.119 8.77892 145.866 9.59107C146.613 10.4032 147.272 11.1881 147.839 11.9403C148.406 12.6925 148.678 13.194 148.678 13.4447C148.678 13.7608 148.302 14.2296 147.556 14.8564C146.809 15.4833 145.942 16.1264 144.972 16.7805C144.002 17.44 143.059 18.0178 142.148 18.5193C141.249 19.0207 140.606 19.266 140.23 19.266C140.039 19.266 139.581 18.9717 138.862 18.3776C138.142 17.7834 137.412 17.1076 136.66 16.3554C135.902 15.6086 135.232 14.8673 134.632 14.1478C134.038 13.4283 133.744 12.9432 133.744 12.6925C133.744 12.3764 134.147 11.8913 134.959 11.2372C135.777 10.5776 136.671 9.89086 137.641 9.17137C138.611 8.45188 139.543 7.82505 140.453 7.29633C141.364 6.76762 141.914 6.46783 142.099 6.40242L142.105 6.39697Z" fill="white"></path><path d="M180.717 61.1654C180.967 60.7893 181.453 60.0208 182.177 58.8652C182.897 57.7097 183.704 56.2816 184.614 54.5919C185.524 52.8967 186.462 51.0653 187.437 49.0976C188.408 47.1245 189.296 45.1404 190.114 43.1291C190.926 41.1287 191.596 39.2319 192.13 37.4495C192.665 35.6671 192.932 34.1137 192.932 32.8001C192.932 31.7972 192.801 31.0014 192.55 30.4018C192.305 29.8077 191.94 29.3553 191.471 29.0391C191.002 28.723 190.452 28.5104 189.825 28.3796C189.198 28.2488 188.538 28.1943 187.852 28.1943C187.476 28.1943 187.105 28.227 186.729 28.2869C186.347 28.3523 185.971 28.445 185.595 28.5704C185.219 28.6957 184.925 28.6521 184.701 28.4286C184.489 28.2106 184.374 28.0362 184.374 27.9108C184.374 27.6601 184.805 27.3494 185.644 26.9679C186.494 26.5918 187.644 26.2484 189.122 25.9377C190.588 25.6215 192.278 25.3599 194.191 25.1364C196.104 24.9184 198.088 24.8094 200.159 24.8094C203.103 24.8094 204.569 25.7796 204.569 27.7201C204.569 28.5976 203.986 30.102 202.836 32.2278C201.675 34.359 200.208 36.8445 198.415 39.6952C196.633 42.5459 194.66 45.5656 192.496 48.7597C190.343 51.9538 188.222 55.0388 186.156 58.0149C184.085 60.991 182.199 63.7272 180.471 66.2345C178.749 68.7418 177.452 70.6823 176.574 72.0613C176.389 72.312 175.702 72.4374 174.508 72.4374C174.001 72.4374 173.674 72.3556 173.522 72.203C173.369 72.0449 173.222 71.7779 173.102 71.4018C172.535 69.6467 171.892 67.7062 171.178 65.575C170.459 63.4438 169.69 61.2853 168.878 59.0941C168.06 56.903 167.232 54.7282 166.387 52.5642C165.547 50.4058 164.713 48.389 163.901 46.5085C161.705 41.2486 159.841 37.5749 158.303 35.4764C156.777 33.3779 155.344 32.3259 154.03 32.3259C153.654 32.3259 153.294 32.3913 152.951 32.5112C152.608 32.6366 152.281 32.7619 151.964 32.8873C151.844 32.8873 151.665 32.7456 151.447 32.4621C151.234 32.1787 151.185 31.977 151.31 31.8517C151.37 31.7917 151.97 31.3829 153.093 30.6307C154.226 29.8785 155.54 29.05 157.044 28.1398C158.543 27.2295 160.064 26.401 161.59 25.6488C163.127 24.9021 164.365 24.5205 165.308 24.5205C166.747 24.5205 168.06 25.8559 169.254 28.5159C170.437 31.1758 171.854 34.855 173.484 39.5535L180.717 61.1545V61.1654Z" fill="white"></path><path d="M249.193 60.604C248.507 61.3508 247.444 62.3864 245.999 63.7055C244.56 65.0191 242.827 66.3327 240.788 67.6517C238.755 68.9654 236.482 70.0936 233.986 71.0366C231.479 71.9741 228.819 72.4429 225.995 72.4429C223.428 72.4429 220.926 72.0504 218.479 71.271C216.042 70.4861 213.846 69.2979 211.905 67.7008C209.965 66.1038 208.411 64.0706 207.256 61.596C206.095 59.1214 205.512 56.1617 205.512 52.7169C205.512 49.8989 205.702 47.4733 206.079 45.4402C206.455 43.4017 206.956 41.6193 207.583 40.0877C208.204 38.5506 208.913 37.237 209.692 36.1414C210.477 35.0458 211.273 34.0592 212.091 33.1817C213.083 32.0588 214.309 30.9905 215.754 29.9876C217.193 28.9846 218.741 28.0744 220.403 27.2622C222.06 26.4501 223.815 25.8069 225.663 25.3381C227.511 24.8694 229.38 24.635 231.25 24.635C234.635 24.635 237.284 25.1964 239.191 26.3247C241.094 27.453 242.053 29.0174 242.053 31.0232C242.053 32.2769 241.677 33.4324 240.93 34.4953C241.557 34.31 242.353 33.9993 243.323 33.5578C244.293 33.1163 245.28 32.6639 246.283 32.1951C247.286 31.7263 248.18 31.3066 248.965 30.9305C249.744 30.5544 250.256 30.271 250.507 30.0802C250.638 29.9603 250.774 29.9058 250.938 29.944C251.09 29.9767 251.167 30.0802 251.167 30.271C251.167 31.0832 251.014 31.759 250.698 32.2878C250.382 32.8165 250.011 33.2416 249.564 33.5578C248.561 34.1846 247.128 34.964 245.247 35.907C243.367 36.85 241.29 37.8311 239.001 38.8667C236.717 39.9024 234.351 40.9325 231.909 41.9682C229.473 43.0038 227.167 43.9904 225.009 44.9279C222.845 45.8708 220.97 46.6993 219.373 47.4188C217.776 48.1383 216.697 48.6507 216.13 48.9668C216.13 51.098 216.549 53.0875 217.4 54.9353C218.239 56.7831 219.416 58.3965 220.926 59.7701C222.425 61.1491 224.229 62.2338 226.322 63.0132C228.426 63.7981 230.727 64.1851 233.223 64.1851C235.48 64.1851 237.513 63.9507 239.333 63.482C241.154 63.0132 242.68 62.4791 243.934 61.8849C245.187 61.2908 246.174 60.7566 246.893 60.2933C247.613 59.8246 248.011 59.5847 248.071 59.5847C248.316 59.5847 248.567 59.6938 248.817 59.9118C249.068 60.1353 249.193 60.3642 249.193 60.6204V60.604ZM216.13 46.2306C217.193 45.8545 218.403 45.4075 219.743 44.8679C221.09 44.3392 222.403 43.756 223.69 43.1292C224.976 42.5078 226.143 41.9082 227.216 41.3468C228.279 40.7799 229.097 40.2785 229.653 39.8424C230.787 39.0302 231.348 37.6512 231.348 35.7108C231.348 34.9586 231.201 34.1791 230.917 33.3615C230.634 32.5494 230.214 31.8081 229.647 31.154C229.091 30.4945 228.394 29.9658 227.582 29.557C226.764 29.1536 225.859 28.9465 224.862 28.9465C223.984 28.9465 223.041 29.2463 222.038 29.8404C221.035 30.4345 220.098 31.4102 219.215 32.7511C218.343 34.0974 217.601 35.8798 217.013 38.1036C216.419 40.3221 216.119 43.0365 216.119 46.2251L216.13 46.2306Z" fill="white"></path><path d="M284.978 64.0761C284.422 64.6375 283.512 65.3897 282.258 66.3326C281.004 67.2756 279.538 68.1968 277.838 69.1016C276.148 70.0064 274.322 70.7913 272.349 71.4508C270.376 72.1104 268.381 72.4374 266.38 72.4374C264.38 72.4374 262.254 71.9687 260.183 71.0311C258.117 70.0882 256.253 68.7255 254.596 66.9431C252.939 65.1608 251.609 63.0186 250.606 60.5113C249.603 58.0095 249.102 55.1915 249.102 52.0573C249.102 47.9857 249.81 44.2956 251.216 40.9707C252.623 37.6512 254.689 34.8386 257.414 32.5167C260.134 30.2001 263.453 28.4177 267.367 27.1641C271.28 25.9104 275.777 25.2836 280.852 25.2836H283.381C284.198 25.2836 284.951 25.3163 285.637 25.3817V22.3293C285.637 20.8577 285.621 19.3424 285.594 17.7726C285.561 16.2082 285.534 14.7693 285.501 13.4502C285.468 12.1366 285.458 11.3244 285.458 11.0083C285.207 8.50643 284.787 6.75131 284.188 5.74839C283.593 4.74546 282.383 4.244 280.574 4.244C280.323 4.244 280.181 3.96057 280.154 3.39915C280.116 2.83228 280.323 2.39622 280.759 2.08553C281.266 1.7694 281.827 1.54047 282.454 1.37695C283.076 1.22433 284.013 1.14257 285.267 1.14257C287.643 1.14257 289.638 1.12622 291.235 1.09896C292.827 1.06626 294.141 1.00085 295.182 0.913639C296.212 0.815527 297.04 0.690161 297.667 0.537543C298.294 0.384924 298.828 0.210502 299.264 0.0197283C299.58 -0.0402291 299.847 0.0360803 300.065 0.254107C300.278 0.472134 300.441 0.75557 300.534 1.09896C300.627 1.44235 300.643 1.7694 300.578 2.08553C300.512 2.40167 300.327 2.587 300.011 2.64695C299.324 2.77232 298.812 2.91404 298.468 3.07211C298.125 3.23018 297.798 3.52451 297.482 3.96057C297.166 4.40207 296.888 5.55762 296.631 7.4381C296.381 9.31313 296.125 11.6297 295.885 14.3877C295.634 17.1458 295.411 20.1981 295.225 23.5448C295.034 26.897 294.882 30.2655 294.751 33.645C294.631 37.0298 294.522 40.3166 294.424 43.5107C294.331 46.7048 294.288 49.4901 294.288 51.872C294.288 56.4451 294.784 59.8082 295.787 61.9721C296.79 64.1306 298.327 65.2153 300.398 65.2153C301.145 65.2153 301.973 65.0899 302.883 64.8392C303.794 64.5884 304.633 64.2887 305.423 63.9453C306.203 63.6019 306.928 63.2585 307.587 62.9151C308.247 62.5717 308.727 62.2719 309.037 62.0212C309.353 61.7704 309.631 61.9285 309.887 62.4899C310.133 63.0568 310.1 63.4329 309.789 63.6182C309.043 64.0597 307.865 64.6974 306.274 65.5423C304.677 66.3872 302.905 67.2811 300.959 68.2186C298.583 69.4123 296.174 70.4752 293.726 71.4127C291.29 72.3557 289.317 72.819 287.807 72.819C286.684 72.819 285.91 72.6336 285.507 72.2575C285.103 71.8814 284.896 71.2873 284.896 70.4752V69.2052C284.896 68.611 284.912 67.9842 284.94 67.3301C284.972 66.6706 284.983 66.0438 284.983 65.4496V64.087L284.978 64.0761ZM283.762 60.882C284.258 60.1952 284.635 59.3939 284.885 58.4891C285.136 57.5789 285.321 56.347 285.452 54.7772C285.572 53.4636 285.637 51.8502 285.637 49.937V44.9115C285.637 43.4725 285.621 41.9354 285.594 40.3111C285.561 38.6814 285.518 37.5531 285.458 36.9263C285.327 35.8634 284.891 34.8605 284.144 33.9229C283.386 32.98 282.416 32.1733 281.233 31.481C280.04 30.7942 278.65 30.2492 277.053 29.8349C275.456 29.4316 273.782 29.2245 272.033 29.2245C270.283 29.2245 268.746 29.5079 267.241 30.0693C265.737 30.6362 264.434 31.5464 263.344 32.7946C262.249 34.0483 261.387 35.6617 260.761 37.6348C260.134 39.608 259.818 42.0335 259.818 44.9115C259.818 47.7895 260.221 50.5366 261.039 52.9458C261.851 55.355 262.979 57.4371 264.418 59.1923C265.862 60.9474 267.585 62.3101 269.585 63.2803C271.586 64.2505 273.782 64.7356 276.159 64.7356C277.102 64.7356 277.979 64.5939 278.786 64.3104C279.604 64.0325 280.339 63.6891 280.993 63.2803C281.653 62.8769 282.231 62.4518 282.727 62.0103C283.234 61.5742 283.577 61.1981 283.768 60.882H283.762Z" fill="white"></path><path d="M304.616 99.489C305.183 98.8622 306.022 97.832 307.156 96.3876C308.279 94.9486 309.516 93.3188 310.862 91.5038C312.209 89.6887 313.593 87.7482 314.999 85.677C316.406 83.6112 317.736 81.6544 318.989 79.8066C320.243 77.9588 321.322 76.2691 322.232 74.732C323.143 73.2004 323.721 72.0558 323.966 71.3036C322.963 68.6763 321.9 65.8856 320.777 62.9422C319.643 59.9989 318.477 57.0882 317.251 54.2048C316.03 51.3268 314.803 48.5688 313.588 45.9416C312.367 43.3143 311.157 41.0087 309.963 39.0356C308.78 37.0624 307.63 35.4872 306.54 34.2935C305.444 33.1052 304.463 32.5111 303.58 32.5111C303.33 32.5111 303.046 32.5929 302.73 32.7455L301.891 33.1652C301.7 33.2905 301.487 33.1325 301.231 32.6964C300.98 32.2549 300.98 31.9715 301.231 31.8461C301.482 31.6608 302.218 31.1866 303.433 30.4398C304.654 29.6877 306.017 28.8864 307.521 28.0415C309.026 27.1967 310.481 26.4281 311.887 25.7414C313.299 25.0546 314.318 24.7112 314.945 24.7112C315.572 24.7112 316.308 25.2726 317.152 26.4009C317.992 27.5292 318.875 29.0445 319.78 30.9577C320.679 32.8708 321.638 35.0457 322.641 37.4876C323.644 39.9295 324.642 42.4858 325.655 45.1458C326.658 47.8057 327.645 50.4874 328.615 53.1746C329.585 55.8672 330.501 58.3746 331.384 60.6911C332.202 59.4429 333.248 57.6551 334.535 55.3385C335.821 53.022 337.047 50.5474 338.241 47.9202C339.435 45.2929 340.449 42.693 341.299 40.1202C342.138 37.553 342.558 35.3945 342.558 33.6394C342.558 31.8843 342.122 30.5216 341.244 29.7422C340.372 28.9627 339.402 28.5703 338.334 28.5703C337.522 28.5703 336.884 28.5866 336.415 28.6139C335.941 28.6466 335.429 28.7229 334.862 28.8482C334.731 28.8482 334.546 28.7719 334.295 28.6139C334.044 28.4612 333.919 28.2214 333.919 27.9107C333.919 27.6 334.606 27.2512 335.985 26.8806C337.364 26.5099 338.961 26.1611 340.776 25.8449C342.585 25.5342 344.379 25.2672 346.128 25.0491C347.889 24.8256 349.104 24.7221 349.797 24.7221C351.236 24.7221 352.298 25.0001 352.985 25.5669C353.672 26.1284 354.026 26.7879 354.026 27.5401C353.645 29.0445 352.849 31.0013 351.628 33.4105C350.407 35.8197 348.952 38.4523 347.262 41.2976C345.572 44.1483 343.768 47.0917 341.855 50.1277C339.942 53.1637 338.116 56.0308 336.361 58.7234C334.611 61.416 333.03 63.8307 331.619 65.9564C330.212 68.0877 329.188 69.652 328.566 70.6549C327.313 72.5954 326.119 74.6121 324.996 76.7106C323.862 78.8091 322.832 80.9077 321.895 83.0062C320.952 85.1047 320.129 87.1051 319.404 89.0183C318.684 90.926 318.172 92.6648 317.861 94.2291C317.67 95.1721 317.845 95.7771 318.373 96.0605C318.908 96.344 319.594 96.4039 320.445 96.2458C321.284 96.0878 322.211 95.7935 323.214 95.3574C324.217 94.9159 325.061 94.4144 325.754 93.853C326.07 93.6023 326.266 93.5532 326.364 93.7113C326.457 93.8639 326.5 94.1037 326.5 94.4144C326.5 94.7251 326.44 95.0576 326.315 95.401C326.184 95.7444 326.032 95.9788 325.841 96.1041C325.781 96.1041 325.061 96.3876 323.688 96.9544C322.303 97.5159 320.646 98.1263 318.706 98.7859C316.765 99.4454 314.716 100.056 312.552 100.617C310.399 101.179 308.502 101.462 306.872 101.462C305.243 101.462 304.523 100.961 304.523 99.9578C304.523 99.8324 304.54 99.7343 304.567 99.6743C304.594 99.6144 304.61 99.549 304.61 99.489H304.616Z" fill="white"></path><path d="M382.3 42.3768C381.924 40.4364 381.482 38.6976 380.986 37.166C380.479 35.6343 379.863 34.348 379.106 33.3124C378.359 32.2822 377.449 31.4973 376.386 30.9631C375.323 30.4344 373.998 30.1619 372.44 30.1619C371.066 30.1619 369.796 30.4126 368.635 30.9141C367.474 31.4155 366.482 32.0096 365.632 32.6964C364.781 33.3832 364.127 34.07 363.659 34.7622C363.184 35.4545 362.917 35.9832 362.857 36.3593C362.797 36.8607 362.514 37.1115 362.018 37.1115C361.14 37.1115 360.328 36.7953 359.57 36.1685C358.824 35.5417 358.448 34.7949 358.448 33.9119C358.448 33.4105 358.508 33.0344 358.633 32.7836C360.077 31.9715 361.827 31.0939 363.898 30.1564C365.964 29.2134 368.101 28.3413 370.325 27.5292C372.549 26.717 374.756 26.0411 376.953 25.507C379.138 24.9783 381.112 24.7112 382.872 24.7112C385.499 24.7112 387.522 25.0873 388.928 25.834C390.34 26.5862 391.392 27.6545 392.078 29.0281C392.765 30.4071 393.185 32.0205 393.348 33.8683C393.501 35.7161 393.648 37.7056 393.768 39.8314C393.959 43.0255 394.204 46.1105 394.515 49.0866C394.831 52.0627 395.3 54.6954 395.927 56.9737C396.553 59.263 397.349 61.1108 398.319 62.5171C399.29 63.9288 400.5 64.6319 401.933 64.6319C402.62 64.6319 403.378 64.512 404.19 64.2558C405.007 64.0051 405.787 63.7108 406.539 63.3674C407.297 63.024 407.967 62.6806 408.567 62.3317C409.155 61.9884 409.553 61.754 409.739 61.6286C410.305 61.6286 410.649 61.912 410.769 62.4735C410.769 62.7896 410.709 63.0676 410.583 63.3183C410.453 63.4437 409.989 63.7598 409.172 64.2613C408.359 64.7628 407.362 65.3569 406.168 66.0437C404.975 66.7304 403.661 67.4717 402.222 68.2512C400.783 69.0361 399.355 69.7665 397.949 70.4587C396.542 71.1509 395.245 71.7124 394.051 72.1484C392.858 72.5899 391.92 72.8079 391.228 72.8079C390.416 72.8079 389.713 72.4809 389.119 71.8214C388.524 71.1618 388.001 70.2897 387.565 69.1941C387.129 68.0986 386.753 66.834 386.442 65.3896C386.126 63.9506 385.848 62.4462 385.592 60.8819C384.469 61.8248 383.025 62.9368 381.275 64.2177C379.515 65.504 377.612 66.7086 375.541 67.8315C373.475 68.9598 371.36 69.9136 369.202 70.6985C367.038 71.4834 364.961 71.8704 362.955 71.8704C361.266 71.8704 359.789 71.6033 358.535 71.0692C357.281 70.535 356.235 69.8373 355.395 68.9543C354.545 68.0768 353.918 67.0629 353.515 65.9019C353.101 64.7464 352.904 63.5418 352.904 62.2881C352.904 60.2877 353.515 58.6416 354.741 57.3553C355.957 56.0689 357.854 54.739 360.421 53.3599C361.604 52.7386 363.272 51.9046 365.397 50.869C367.528 49.8388 369.703 48.7868 371.927 47.7239C374.151 46.6556 376.217 45.6418 378.125 44.6716C380.038 43.7013 381.428 42.9328 382.305 42.3714L382.3 42.3768ZM385.02 56.9356C384.834 55.8727 384.644 54.7172 384.464 53.4635C384.273 52.2098 384.088 51.0216 383.897 49.8933C383.706 48.765 383.537 47.7948 383.379 46.9826C383.226 46.1705 383.112 45.6363 383.052 45.3856C382.049 45.7617 380.926 46.1977 379.673 46.6992C378.419 47.2061 377.165 47.7512 375.912 48.3453C374.658 48.9394 373.475 49.539 372.347 50.1277C371.213 50.7218 370.276 51.2723 369.523 51.7738C368.079 52.7168 366.983 53.6543 366.237 54.5972C365.479 55.5402 365.103 56.663 365.103 57.9767C365.103 59.7972 365.637 61.3942 366.7 62.7678C367.763 64.1414 369.431 64.8336 371.676 64.8336C372.87 64.8336 374.107 64.6101 375.394 64.1741C376.68 63.738 377.863 63.2366 378.964 62.6697C380.06 62.1083 381.013 61.5414 381.831 60.98C382.643 60.4131 383.205 59.9771 383.521 59.6664C384.017 59.1649 384.415 58.7398 384.693 58.3964C384.976 58.053 385.085 57.5679 385.02 56.941V56.9356Z" fill="white"></path></svg>