<svg xmlns="http://www.w3.org/2000/svg" width="170" height="90" viewBox="0 0 170 90" fill="none"><path d="M1.9873 72.7326L11.9873 2.06079H22.3588L16.6208 39.6026L32.5305 2.06079H42.219L38.0448 39.6026L52.3907 2.06079H62.7622L34.9571 72.7326H24.6855L28.8577 33.7222L12.2589 72.7326H1.9873Z" fill="#666666"></path><path d="M53.4411 55.5795L63.0097 19.8024C64.9251 12.6473 68.9954 0 84.1581 0C97.7571 0 97.4655 9.51202 94.7134 19.8024L85.1448 55.5795C82.5744 65.1855 77.6293 74.8856 64.1302 74.8856C49.8442 74.8856 51.1643 64.1031 53.4431 55.5795M75.7839 15.5866L64.6694 57.1461C63.5909 61.1638 62.7541 64.3032 66.9622 64.3032C71.1703 64.3032 71.9572 61.3619 73.0817 57.1461L84.2001 15.5866C84.8791 13.0375 84.8791 10.4884 81.3541 10.4884C77.3437 10.4884 76.2552 13.8218 75.7859 15.5866" fill="#666666"></path><path d="M86.5249 72.7326L105.426 2.06079H116.677L109.806 27.7396L126.559 2.06079H137.222L120.667 27.7396L119.593 72.7326H108.93L109.629 41.9536L103.777 50.2852L97.7771 72.7326H86.5249Z" fill="#666666"></path><path d="M124.977 72.7326L143.879 2.06079H170L167.168 12.6493H152.59L147.793 30.5828H158.654L155.852 41.0713H144.991L139.353 62.1442H154.813L151.981 72.7326H124.977Z" fill="#666666"></path><path d="M10.7729 79.7998L8.08868 89.836H6.69862L3.575 82.4769H3.48113L1.51388 89.836H0L2.68225 79.7998H4.08428L7.2119 87.1689H7.30178L9.27701 79.7998H10.7729Z" fill="#666666"></path><path d="M29.0593 79.7998H30.5732L28.8117 86.4006C28.6239 87.1049 28.2924 87.7252 27.8171 88.2654C27.3417 88.8056 26.7685 89.2318 26.0895 89.5399C25.4064 89.8481 24.6695 90.0001 23.8666 90.0001C23.0637 90.0001 22.4106 89.8461 21.8954 89.5399C21.3801 89.2318 21.0286 88.8056 20.8448 88.2654C20.6611 87.7252 20.6611 87.1049 20.8508 86.4006L22.6183 79.7998H24.1282L22.3967 86.2765C22.2728 86.7327 22.2688 87.1349 22.3727 87.4871C22.4805 87.8432 22.6902 88.1173 23.0058 88.3194C23.3174 88.5175 23.7288 88.6215 24.2341 88.6215C24.7394 88.6215 25.2087 88.5175 25.6361 88.3194C26.0615 88.1153 26.419 87.8432 26.7106 87.4871C27.0022 87.1349 27.2059 86.7327 27.3298 86.2765L29.0633 79.7998H29.0593Z" fill="#666666"></path><path d="M41.5779 81.1022L41.9234 79.7976H49.6805L49.329 81.1022H46.2054L43.8687 89.8358H42.3648L44.6955 81.1022H41.5779Z" fill="#666666"></path><path d="M58.3423 89.8358L61.0305 79.7976H64.5995C65.3764 79.7976 65.9856 79.9317 66.427 80.1998C66.8684 80.4679 67.154 80.84 67.2838 81.3102C67.4116 81.7804 67.3936 82.3267 67.2298 82.9469C67.0621 83.5612 66.7885 84.0974 66.409 84.5636C66.0335 85.0298 65.5482 85.392 64.969 85.6501C64.3838 85.9082 63.7068 86.0362 62.9299 86.0362H60.2217L60.5732 84.7317H63.1416C63.6269 84.7317 64.0483 84.6617 64.3938 84.5236C64.7353 84.3855 65.0169 84.1755 65.2346 83.9093C65.4483 83.6412 65.6061 83.3231 65.706 82.9469C65.8098 82.5648 65.8238 82.2386 65.7559 81.9605C65.682 81.6824 65.5142 81.4703 65.2466 81.3202C64.975 81.1722 64.5935 81.0962 64.0942 81.0962H62.1989L59.8622 89.8338H58.3483L58.3423 89.8358ZM64.4997 85.3079L65.7619 89.8358H64.0443L62.826 85.3079H64.4997Z" fill="#666666"></path><path d="M81.0685 79.7998L78.3842 89.836H76.8704L79.5566 79.7998H81.0685Z" fill="#666666"></path><path d="M92.0691 81.1022L92.4146 79.7976H100.172L99.8202 81.1022H96.6966L94.3599 89.8358H92.856L95.1867 81.1022H92.0691Z" fill="#666666"></path><path d="M113.034 79.7998L110.35 89.836H108.836L111.524 79.7998H113.034Z" fill="#666666"></path><path d="M132.235 84.8178C131.953 85.8883 131.508 86.8107 130.913 87.581C130.313 88.3493 129.62 88.9396 128.828 89.3558C128.035 89.7679 127.21 89.976 126.347 89.976C125.484 89.976 124.757 89.7679 124.188 89.3558C123.619 88.9396 123.243 88.3493 123.06 87.575C122.872 86.8067 122.922 85.8843 123.207 84.8178C123.495 83.7474 123.934 82.825 124.534 82.0547C125.133 81.2864 125.826 80.6961 126.613 80.2799C127.406 79.8678 128.236 79.6597 129.103 79.6597C129.97 79.6597 130.683 79.8678 131.252 80.2799C131.821 80.6961 132.203 81.2864 132.387 82.0547C132.574 82.823 132.52 83.7454 132.233 84.8178M130.739 84.8178C130.957 83.9995 131.01 83.3112 130.897 82.755C130.783 82.1947 130.539 81.7686 130.164 81.4804C129.782 81.1883 129.307 81.0442 128.734 81.0442C128.16 81.0442 127.605 81.1883 127.07 81.4804C126.541 81.7686 126.069 82.1947 125.66 82.755C125.245 83.3112 124.933 83.9995 124.713 84.8178C124.492 85.6362 124.442 86.3265 124.55 86.8867C124.663 87.447 124.911 87.8691 125.282 88.1553C125.66 88.4474 126.139 88.5914 126.712 88.5914C127.286 88.5914 127.841 88.4474 128.376 88.1553C128.905 87.8671 129.381 87.447 129.792 86.8867C130.204 86.3265 130.519 85.6362 130.739 84.8178Z" fill="#666666"></path><path d="M153.187 79.7998L150.503 89.836H149.113L145.99 82.4769H145.896L143.93 89.836H142.415L145.099 79.7998H146.499L149.628 87.1689H149.716L151.692 79.7998H153.187Z" fill="#666666"></path></svg>