<svg xmlns="http://www.w3.org/2000/svg" width="186" height="186" viewBox="0 0 186 186" fill="none"><path d="M151.045 68.4786C147.873 60.976 143.329 54.2405 137.546 48.4538C131.762 42.6703 125.024 38.1268 117.521 34.9548C109.752 31.67 101.504 30.0042 92.9997 30.0042C84.495 30.0042 76.2471 31.67 68.4784 34.9548C60.9757 38.1268 54.2403 42.6703 48.4536 48.4538C42.6701 54.2374 38.1265 60.976 34.9545 68.4786C31.6698 76.2474 30.0039 84.4953 30.0039 92.9999C30.0039 101.505 31.6698 109.752 34.9545 117.521C38.1265 125.024 42.6701 131.759 48.4536 137.546C54.2371 143.329 60.9757 147.873 68.4784 151.045C76.2471 154.33 84.495 155.996 92.9997 155.996C101.504 155.996 109.752 154.33 117.521 151.045C125.024 147.873 131.759 143.329 137.546 137.546C143.329 131.762 147.873 125.024 151.045 117.521C154.33 109.752 155.995 101.505 155.995 92.9999C155.995 84.4953 154.33 76.2474 151.045 68.4786ZM92.9997 152.946C59.9455 152.946 33.0538 126.054 33.0538 92.9999C33.0538 59.9458 59.9455 33.054 92.9997 33.054C126.054 33.054 152.946 59.9458 152.946 92.9999C152.946 126.054 126.054 152.946 92.9997 152.946Z" fill="white"></path><path d="M178.691 56.7989C174.007 45.7234 167.303 35.7784 158.761 27.2393C150.222 18.7002 140.273 11.9929 129.201 7.30848C117.734 2.45808 105.553 0 93 0C80.4466 0 68.2658 2.45808 56.7989 7.30848C45.7234 11.9929 35.7784 18.6971 27.2393 27.2393C18.7002 35.7784 11.9929 45.7266 7.30848 56.7989C2.45808 68.2658 0 80.4466 0 93C0 105.553 2.45808 117.734 7.30848 129.201C11.9929 140.277 18.6971 150.222 27.2393 158.761C35.7784 167.3 45.7266 174.007 56.7989 178.691C68.2658 183.542 80.4434 186 93 186C105.557 186 117.734 183.542 129.201 178.691C140.277 174.007 150.222 167.303 158.761 158.761C167.3 150.222 174.007 140.273 178.691 129.201C183.542 117.734 186 105.557 186 93C186 80.4434 183.542 68.2658 178.691 56.7989ZM93 182.95C43.4031 182.95 3.0499 142.6 3.0499 93C3.0499 43.4 43.4031 3.0499 93 3.0499C142.597 3.0499 182.95 43.4 182.95 93C182.95 142.6 142.6 182.95 93 182.95Z" fill="white"></path><path d="M81.9471 92.5773C81.9471 92.5773 87.8872 93.6827 92.8253 90.9897L94.0903 94.4373C94.1999 94.7379 94.1811 95.073 94.0339 95.3548C93.3075 96.742 91.2439 101.477 92.4808 108.603C92.4808 108.603 92.1364 113.025 88.3694 117.03C88.3694 117.03 86.7474 100.139 80.4941 95.0291L81.9439 92.5773H81.9471Z" fill="white"></path><path d="M106.747 84.5299C105.723 83.6782 104.899 82.6135 104.307 81.7054C103.725 80.813 103.274 79.8423 102.923 78.834C102.213 76.7955 101.467 75.7027 100.86 75.1171C100.356 74.6318 99.6387 74.4314 98.9498 74.5629L98.7338 74.6036C98.1827 74.7101 97.6723 74.9637 97.2558 75.3395C96.6577 75.8812 96.3696 76.6859 96.4448 77.4907L96.4542 77.6034C96.473 77.7913 96.4949 77.9792 96.5199 78.167C96.664 79.2787 97.0084 84.6927 90.4796 86.1174C86.697 86.941 84.7556 86.1738 83.7661 85.2469C83.1805 84.6958 83.0021 83.8316 83.3246 83.0957C83.6815 82.2753 83.8475 81.3516 83.7567 80.3809C83.5125 77.76 81.3832 75.6495 78.7591 75.4334C75.6654 75.1766 73.057 77.4875 72.819 80.4654L72.7908 80.456C72.5497 87.0881 78.0483 91.3686 84.8527 90.9898C91.4034 90.6234 95.4553 87.9493 97.4593 86.6028C99.4634 85.2563 100.362 86.7406 100.362 86.7406C102.366 89.1235 104.091 88.9857 105.541 88.6413C106.991 88.2968 108.995 86.3961 106.75 84.5299H106.747Z" fill="white"></path><path d="M91.4549 84.06C92.5102 83.3711 93.149 82.2094 93.3024 80.9569C93.7063 77.6596 95.4849 74.1306 95.4849 74.1306C101.782 60.9572 111.614 68.0903 111.614 68.0903C115.528 71.0682 116.045 74.0836 115.641 76.285C115.359 77.8162 114.551 79.1939 113.427 80.268C109.895 83.6467 110.521 87.3009 110.521 87.3009C113.606 89.7433 118.553 86.2738 118.553 86.2738C123.05 93.0845 130.377 92.6367 130.377 92.6367C130.762 89.3582 128.705 87.1099 128.705 87.1099C123.886 82.5476 124.08 79.0123 124.08 79.0123C123.372 72.2644 121.638 69.5652 121.638 69.5652C118.81 63.719 109.366 57.0336 98.2467 61.9185C87.1306 66.8033 85.3301 84.345 85.3301 84.345C88.3737 85.2718 90.2775 84.8272 91.4518 84.06H91.4549Z" fill="white"></path><path d="M106.021 135.235L113.667 129.646C124.721 122.193 123.819 111.91 123.819 111.91L123.177 99.1216C119.385 98.2856 119.194 101.179 119.194 101.179L118.872 107.091C118.346 117.39 111.475 121.241 110.254 121.846C110.11 121.918 109.969 121.993 109.832 122.074C103.622 125.641 97.7947 119.876 97.7947 119.876C97.2155 123.217 93.2324 127.009 93.2324 127.009L106.021 135.235Z" fill="white"></path><path d="M75.1152 59.1568C70.3399 59.6609 67.1366 65.1657 65.3486 69.4431C64.4186 71.6663 63.7485 73.9929 63.3164 76.3665C61.256 87.6235 55.582 94.4999 55.582 94.4999C59.8876 99.2564 60.852 110.949 60.852 110.949C60.9742 111.65 61.1088 112.323 61.2528 112.968C62.7559 119.754 66.8767 125.669 72.6978 129.464L81.5469 135.235L88.5704 129.533C90.9784 127.579 93.0451 125.224 94.5825 122.528C98.6219 115.451 97.8704 108.826 97.8704 108.826C98.0646 106.064 94.9802 105.935 94.9802 105.935C93.8248 113.967 89.3908 118.401 89.3908 118.401C79.045 129.774 71.3983 117.374 71.3983 117.374C62.6588 104.072 69.7262 94.7566 69.7262 94.7566C65.8465 90.9364 68.0948 82.103 68.649 80.1647C68.7398 79.8453 68.8212 79.5259 68.8964 79.2065C72.4786 64.1731 79.6869 66.8066 79.6869 66.8066C82.0667 67.6865 83.8578 68.0215 85.198 68.0528C87.2772 68.1029 89.0119 66.4684 89.1654 64.3954C89.7948 55.8219 92.8603 54.5944 92.8603 54.5944C99.029 54.7886 99.9277 52.0236 99.9277 52.0236C98.7722 48.169 93.5022 48.2316 93.5022 48.2316C94.8518 41.421 91.5107 37.8857 91.5107 37.8857C82.3234 45.1473 84.506 60.2277 84.506 60.2277C79.4301 58.2549 75.1246 59.1536 75.1246 59.1536L75.1152 59.1568Z" fill="white"></path><path d="M76.7962 144.977C76.7116 144.977 76.6396 144.949 76.5864 144.895C76.5332 144.842 76.505 144.776 76.505 144.701V140.878L76.5864 140.972L75.8067 141.435C75.766 141.463 75.7221 141.476 75.672 141.476C75.5969 141.476 75.5311 141.445 75.4779 141.385C75.4247 141.326 75.3965 141.26 75.3965 141.194C75.3965 141.1 75.4435 141.022 75.5374 140.959L76.6365 140.305C76.6897 140.274 76.7586 140.261 76.8369 140.264C76.912 140.264 76.9747 140.292 77.0185 140.346C77.0623 140.399 77.0843 140.465 77.0843 140.54V144.701C77.0843 144.776 77.0561 144.842 77.0028 144.895C76.9496 144.949 76.8807 144.977 76.7931 144.977H76.7962Z" fill="white"></path><path d="M80.2786 142.6L80.266 142.506C80.4226 142.572 80.5635 142.666 80.6888 142.782C80.814 142.898 80.9142 143.032 80.9894 143.183C81.0645 143.333 81.1021 143.496 81.1021 143.671C81.1021 143.912 81.0363 144.138 80.9048 144.341C80.7733 144.545 80.5917 144.707 80.3662 144.83C80.1408 144.952 79.8872 145.011 79.6085 145.011C79.3298 145.011 79.0793 144.952 78.8538 144.83C78.6284 144.707 78.4499 144.545 78.3184 144.341C78.1868 144.138 78.1211 143.912 78.1211 143.671C78.1211 143.471 78.1618 143.292 78.2432 143.139C78.3246 142.985 78.428 142.857 78.5595 142.747C78.691 142.641 78.8225 142.553 78.9572 142.49L78.9227 142.597C78.8069 142.547 78.6941 142.475 78.5908 142.381C78.4875 142.287 78.3998 142.171 78.3309 142.03C78.2651 141.892 78.2307 141.736 78.2307 141.567C78.2307 141.319 78.2933 141.1 78.4154 140.903C78.5376 140.709 78.7066 140.552 78.9164 140.436C79.1262 140.32 79.358 140.261 79.6116 140.261C79.8652 140.261 80.0969 140.32 80.3036 140.436C80.5103 140.552 80.6762 140.709 80.7984 140.903C80.9205 141.097 80.9831 141.319 80.9831 141.567C80.9831 141.745 80.9487 141.905 80.8767 142.043C80.8046 142.18 80.717 142.293 80.6105 142.387C80.504 142.481 80.3976 142.55 80.2848 142.6H80.2786ZM79.6053 144.507C79.8778 144.507 80.1032 144.426 80.2817 144.266C80.4602 144.103 80.5479 143.906 80.5479 143.668C80.5479 143.502 80.504 143.355 80.4195 143.226C80.3349 143.098 80.2222 142.998 80.0782 142.923C79.9341 142.847 79.7776 142.813 79.6022 142.813C79.4268 142.813 79.2734 142.851 79.1294 142.923C78.9853 142.998 78.8726 143.098 78.7849 143.226C78.6973 143.355 78.6565 143.502 78.6565 143.668C78.6565 143.906 78.7442 144.106 78.9227 144.266C79.1012 144.429 79.3266 144.507 79.5991 144.507H79.6053ZM78.7755 141.579C78.7755 141.736 78.8131 141.877 78.8851 141.996C78.9603 142.118 79.0605 142.212 79.1889 142.281C79.3173 142.35 79.455 142.384 79.6022 142.384C79.7494 142.384 79.8934 142.35 80.0155 142.281C80.1377 142.212 80.2379 142.115 80.313 141.996C80.3882 141.874 80.4226 141.736 80.4226 141.579C80.4226 141.341 80.3443 141.147 80.1909 140.997C80.0375 140.847 79.8402 140.771 79.6022 140.771C79.3642 140.771 79.1607 140.847 79.0073 140.997C78.8538 141.147 78.7755 141.341 78.7755 141.579Z" fill="white"></path><path d="M83.3823 140.183C83.6391 140.183 83.8646 140.233 84.0587 140.33C84.2528 140.43 84.4157 140.558 84.5472 140.724C84.6787 140.887 84.7758 141.072 84.8447 141.278C84.9135 141.485 84.9449 141.698 84.9449 141.917C84.9449 142.115 84.9198 142.331 84.8697 142.565C84.8196 142.8 84.7445 143.038 84.6443 143.279C84.5441 143.521 84.4125 143.755 84.2497 143.981C84.0869 144.206 83.8959 144.407 83.6704 144.582C83.445 144.761 83.1882 144.898 82.897 144.995C82.8563 145.008 82.8187 145.014 82.7843 145.014C82.7122 145.014 82.6496 144.992 82.5932 144.948C82.5369 144.905 82.5087 144.836 82.5087 144.745C82.5087 144.682 82.5275 144.626 82.5682 144.579C82.6089 144.532 82.6653 144.497 82.7373 144.476C82.9753 144.385 83.207 144.247 83.4293 144.062C83.6548 143.874 83.8489 143.658 84.0117 143.408C84.1746 143.157 84.2842 142.891 84.3374 142.609L84.4908 142.55C84.4188 142.672 84.3249 142.785 84.209 142.894C84.0931 143.001 83.9585 143.088 83.8051 143.154C83.6516 143.22 83.4794 143.251 83.2853 143.251C83.0911 143.251 82.9095 143.211 82.7404 143.126C82.5713 143.041 82.421 142.929 82.2895 142.785C82.158 142.641 82.0578 142.478 81.9826 142.293C81.9075 142.108 81.873 141.914 81.873 141.707C81.873 141.432 81.9388 141.181 82.0703 140.95C82.2018 140.718 82.3835 140.533 82.6089 140.389C82.8344 140.248 83.0911 140.176 83.3792 140.176L83.3823 140.183ZM83.3886 140.693C83.2039 140.693 83.041 140.737 82.8939 140.821C82.7467 140.906 82.6308 141.028 82.5463 141.181C82.4617 141.338 82.4179 141.513 82.4179 141.711C82.4179 141.889 82.4555 142.058 82.5337 142.218C82.6089 142.378 82.7216 142.503 82.8625 142.6C83.0066 142.694 83.1757 142.741 83.3667 142.741C83.5733 142.741 83.7518 142.694 83.9053 142.6C84.0587 142.506 84.1777 142.378 84.2622 142.218C84.3468 142.058 84.3906 141.886 84.3906 141.695C84.3906 141.504 84.3499 141.351 84.2654 141.197C84.1808 141.044 84.0681 140.922 83.9178 140.831C83.7706 140.74 83.5921 140.693 83.3855 140.693H83.3886Z" fill="white"></path><path d="M86.7816 145.011C86.6031 145.011 86.4184 144.983 86.2336 144.923C86.0458 144.864 85.8861 144.779 85.7452 144.667C85.7076 144.635 85.6794 144.595 85.6575 144.544C85.6356 144.494 85.623 144.447 85.623 144.404C85.623 144.35 85.6481 144.297 85.6951 144.247C85.742 144.194 85.8047 144.169 85.8798 144.169C85.9393 144.169 86.0051 144.197 86.0802 144.256C86.1804 144.332 86.29 144.394 86.409 144.438C86.5311 144.482 86.6501 144.507 86.7722 144.507C87.004 144.507 87.2169 144.457 87.4016 144.36C87.5864 144.26 87.7335 144.125 87.84 143.953C87.9465 143.78 87.9997 143.589 87.9997 143.376C87.9997 143.164 87.9527 142.985 87.8619 142.832C87.7711 142.678 87.6427 142.559 87.4768 142.472C87.314 142.384 87.1261 142.34 86.9131 142.34C86.7566 142.34 86.6157 142.365 86.4904 142.415C86.3652 142.465 86.2556 142.515 86.1679 142.562C86.0771 142.612 86.0051 142.637 85.9456 142.637C85.861 142.637 85.7921 142.619 85.7452 142.578C85.6951 142.537 85.6637 142.49 85.6481 142.434C85.6324 142.378 85.6293 142.321 85.6387 142.268L85.9017 140.489C85.9111 140.43 85.9424 140.38 85.9925 140.336C86.0426 140.292 86.1053 140.267 86.1773 140.267H88.1782C88.2502 140.267 88.3097 140.292 88.3598 140.342C88.4099 140.392 88.435 140.455 88.435 140.53C88.435 140.602 88.4099 140.662 88.3598 140.709C88.3097 140.756 88.2502 140.781 88.1782 140.781H86.3119L86.3808 140.721L86.1303 142.284L86.0239 142.136C86.074 142.093 86.1491 142.046 86.2493 142.002C86.3495 141.958 86.4654 141.917 86.6 141.886C86.7315 141.855 86.8693 141.839 87.0071 141.839C87.2983 141.839 87.5613 141.905 87.793 142.036C88.0248 142.168 88.2064 142.349 88.341 142.578C88.4757 142.807 88.5446 143.07 88.5446 143.367C88.5446 143.605 88.5007 143.824 88.413 144.028C88.3254 144.228 88.2032 144.404 88.0435 144.551C87.8838 144.698 87.6991 144.811 87.483 144.895C87.2701 144.98 87.0384 145.02 86.7848 145.02L86.7816 145.011Z" fill="white"></path><path d="M91.5037 143.389C91.4285 143.389 91.3628 143.364 91.3127 143.311C91.2626 143.261 91.2344 143.192 91.2344 143.114C91.2344 143.038 91.2594 142.976 91.3127 142.926C91.3628 142.876 91.4285 142.851 91.5037 142.851H92.8627C92.9378 142.851 93.0036 142.876 93.0537 142.929C93.1069 142.979 93.132 143.048 93.132 143.126C93.132 143.201 93.1069 143.264 93.0537 143.314C93.0036 143.364 92.9378 143.389 92.8627 143.389H91.5037Z" fill="white"></path><path d="M98.5747 144.472C98.6467 144.472 98.7062 144.497 98.7563 144.548C98.8064 144.598 98.8315 144.657 98.8315 144.729C98.8315 144.801 98.8064 144.861 98.7563 144.908C98.7062 144.955 98.6467 144.98 98.5747 144.98H96.1292C96.054 144.98 95.9883 144.955 95.9382 144.908C95.8849 144.861 95.8599 144.795 95.8599 144.717C95.8599 144.645 95.8849 144.579 95.935 144.523L97.4631 142.86C97.6792 142.625 97.8451 142.409 97.961 142.202C98.0768 141.999 98.1363 141.798 98.1363 141.607C98.1363 141.429 98.0988 141.272 98.0205 141.134C97.9453 141 97.8357 140.893 97.6948 140.818C97.5539 140.743 97.388 140.702 97.2001 140.702C97.0247 140.702 96.8556 140.749 96.6928 140.846C96.53 140.943 96.3985 141.091 96.3045 141.288C96.2732 141.332 96.2388 141.366 96.2012 141.388C96.1636 141.41 96.1229 141.423 96.0822 141.423C96.0133 141.423 95.9507 141.397 95.8943 141.347C95.8348 141.297 95.8066 141.241 95.8066 141.178C95.8066 141.128 95.8223 141.081 95.8505 141.037C95.8787 140.994 95.9162 140.947 95.9632 140.896C96.101 140.671 96.2889 140.499 96.5237 140.377C96.7554 140.255 96.9965 140.195 97.2377 140.195C97.5477 140.195 97.8107 140.255 98.0267 140.374C98.2428 140.493 98.4088 140.655 98.5246 140.862C98.6405 141.069 98.7 141.307 98.7 141.576C98.7 141.748 98.6687 141.92 98.606 142.099C98.5434 142.277 98.4495 142.459 98.3273 142.644C98.2052 142.832 98.0455 143.029 97.8514 143.239L96.674 144.538L96.6083 144.469H98.581L98.5747 144.472Z" fill="white"></path><path d="M101.126 145.046C100.754 145.046 100.441 144.939 100.19 144.729C99.9397 144.519 99.7487 144.228 99.6234 143.865C99.4982 143.499 99.4355 143.085 99.4355 142.622C99.4355 142.158 99.4982 141.739 99.6234 141.376C99.7487 141.012 99.9366 140.724 100.19 140.514C100.441 140.305 100.754 140.198 101.126 140.198C101.499 140.198 101.809 140.305 102.06 140.514C102.31 140.724 102.495 141.012 102.623 141.376C102.752 141.739 102.811 142.155 102.811 142.622C102.811 143.088 102.748 143.499 102.623 143.865C102.498 144.231 102.31 144.519 102.06 144.729C101.809 144.939 101.499 145.046 101.126 145.046ZM101.126 144.501C101.361 144.501 101.559 144.426 101.721 144.272C101.884 144.119 102.009 143.903 102.097 143.621C102.185 143.339 102.229 143.007 102.229 142.622C102.229 142.237 102.185 141.895 102.097 141.617C102.009 141.335 101.884 141.122 101.721 140.972C101.559 140.821 101.358 140.746 101.126 140.746C100.895 140.746 100.688 140.821 100.525 140.972C100.362 141.122 100.237 141.338 100.149 141.617C100.062 141.899 100.018 142.234 100.018 142.622C100.018 143.01 100.062 143.342 100.149 143.621C100.237 143.903 100.362 144.119 100.525 144.272C100.688 144.426 100.888 144.501 101.126 144.501Z" fill="white"></path><path d="M106.366 144.472C106.438 144.472 106.497 144.497 106.547 144.548C106.597 144.598 106.623 144.657 106.623 144.729C106.623 144.801 106.597 144.861 106.547 144.908C106.497 144.955 106.438 144.98 106.366 144.98H103.92C103.845 144.98 103.779 144.955 103.729 144.908C103.676 144.861 103.651 144.795 103.651 144.717C103.651 144.645 103.676 144.579 103.726 144.523L105.254 142.86C105.47 142.625 105.636 142.409 105.752 142.202C105.868 141.999 105.927 141.798 105.927 141.607C105.927 141.429 105.89 141.272 105.811 141.134C105.736 141 105.627 140.893 105.486 140.818C105.345 140.743 105.179 140.702 104.991 140.702C104.816 140.702 104.647 140.749 104.484 140.846C104.321 140.943 104.189 141.091 104.096 141.288C104.064 141.332 104.03 141.366 103.992 141.388C103.955 141.41 103.914 141.423 103.873 141.423C103.804 141.423 103.742 141.397 103.685 141.347C103.626 141.297 103.598 141.241 103.598 141.178C103.598 141.128 103.613 141.081 103.641 141.037C103.67 140.994 103.707 140.947 103.754 140.896C103.892 140.671 104.08 140.499 104.315 140.377C104.546 140.255 104.788 140.195 105.029 140.195C105.339 140.195 105.602 140.255 105.818 140.374C106.034 140.493 106.2 140.655 106.316 140.862C106.431 141.069 106.491 141.307 106.491 141.576C106.491 141.748 106.46 141.92 106.397 142.099C106.334 142.277 106.24 142.459 106.118 142.644C105.996 142.832 105.837 143.029 105.642 143.239L104.465 144.538L104.399 144.469H106.372L106.366 144.472Z" fill="white"></path><path d="M108.917 145.046C108.545 145.046 108.232 144.939 107.981 144.729C107.731 144.519 107.54 144.228 107.414 143.865C107.289 143.499 107.227 143.085 107.227 142.622C107.227 142.158 107.289 141.739 107.414 141.376C107.54 141.012 107.728 140.724 107.981 140.514C108.232 140.305 108.545 140.198 108.917 140.198C109.29 140.198 109.6 140.305 109.851 140.514C110.101 140.724 110.286 141.012 110.414 141.376C110.543 141.739 110.602 142.155 110.602 142.622C110.602 143.088 110.539 143.499 110.414 143.865C110.289 144.231 110.101 144.519 109.851 144.729C109.6 144.939 109.29 145.046 108.917 145.046ZM108.917 144.501C109.152 144.501 109.35 144.426 109.512 144.272C109.675 144.119 109.801 143.903 109.888 143.621C109.976 143.339 110.02 143.007 110.02 142.622C110.02 142.237 109.976 141.895 109.888 141.617C109.801 141.335 109.675 141.122 109.512 140.972C109.35 140.821 109.149 140.746 108.917 140.746C108.686 140.746 108.479 140.821 108.316 140.972C108.153 141.122 108.028 141.338 107.941 141.617C107.853 141.899 107.809 142.234 107.809 142.622C107.809 143.01 107.853 143.342 107.941 143.621C108.028 143.903 108.153 144.119 108.316 144.272C108.479 144.426 108.679 144.501 108.917 144.501Z" fill="white"></path><path d="M62.9367 167.394C62.8709 167.5 62.8114 167.585 62.7551 167.65C62.6987 167.716 62.6455 167.766 62.5985 167.798C62.5515 167.829 62.5077 167.845 62.4701 167.848C62.4326 167.848 62.395 167.841 62.3637 167.82L58.3274 165.33C58.2961 165.311 58.2742 165.286 58.2616 165.249C58.246 165.214 58.2429 165.167 58.2491 165.111C58.2554 165.055 58.2742 164.986 58.3086 164.907C58.3431 164.829 58.3932 164.735 58.4558 164.629C58.5247 164.519 58.5842 164.431 58.6405 164.363C58.6938 164.294 58.747 164.244 58.794 164.212C58.8441 164.181 58.8879 164.162 58.9255 164.156C58.9631 164.153 59.0006 164.159 59.0351 164.181L60.3972 165.02L63.3312 160.264L61.7562 160.189C61.6435 160.176 61.5589 160.157 61.4963 160.135C61.4368 160.11 61.3992 160.073 61.3867 160.023C61.3742 159.972 61.3867 159.9 61.4243 159.816C61.4618 159.731 61.5245 159.615 61.6121 159.471C61.6685 159.381 61.7155 159.309 61.7562 159.252C61.7969 159.196 61.8376 159.152 61.8752 159.121C61.9128 159.089 61.9566 159.067 62.0004 159.058C62.0443 159.049 62.0975 159.042 62.1601 159.039L64.3583 158.992C64.3865 158.989 64.4178 158.992 64.4522 158.999C64.4867 159.008 64.5274 159.021 64.5775 159.046C64.6276 159.067 64.6871 159.102 64.7623 159.143C64.8374 159.186 64.9313 159.243 65.0503 159.315C65.1944 159.403 65.3071 159.478 65.3916 159.537C65.4762 159.597 65.5388 159.647 65.5764 159.691C65.614 159.731 65.6328 159.769 65.6328 159.8C65.6328 159.832 65.6234 159.866 65.6046 159.9L61.8783 165.941L63.0713 166.677C63.1058 166.698 63.1308 166.727 63.1465 166.764C63.1621 166.802 63.1653 166.852 63.159 166.908C63.1528 166.968 63.1308 167.037 63.0933 167.115C63.0557 167.193 63.0056 167.287 62.9398 167.397L62.9367 167.394ZM71.5321 171.311C71.482 171.43 71.4351 171.527 71.3881 171.605C71.3411 171.684 71.2973 171.746 71.2535 171.79C71.2096 171.834 71.1689 171.862 71.1251 171.868C71.0812 171.875 71.0405 171.871 70.9998 171.856L66.4563 169.917C66.3655 169.88 66.2935 169.839 66.234 169.795C66.1745 169.752 66.1369 169.698 66.115 169.633C66.0931 169.57 66.0931 169.489 66.115 169.391C66.1338 169.294 66.1745 169.175 66.2371 169.031C66.2935 168.897 66.3498 168.784 66.4031 168.693C66.4563 168.602 66.5158 168.527 66.5784 168.465C66.6442 168.402 66.7162 168.349 66.7976 168.299C66.879 168.248 66.9792 168.198 67.0951 168.148L69.0897 167.265C69.4843 167.096 69.8131 166.93 70.0823 166.767C70.3485 166.605 70.5708 166.448 70.7462 166.291C70.9215 166.138 71.0625 165.988 71.1658 165.841C71.2691 165.693 71.3537 165.546 71.4163 165.399C71.4727 165.264 71.5071 165.13 71.5165 164.989C71.5259 164.851 71.5071 164.72 71.4601 164.594C71.4163 164.469 71.3411 164.353 71.2347 164.25C71.1313 164.146 70.9936 164.056 70.8213 163.984C70.5802 163.88 70.3548 163.821 70.145 163.802C69.932 163.783 69.741 163.783 69.5688 163.799C69.3966 163.815 69.2494 163.833 69.1304 163.855C69.0083 163.877 68.9238 163.877 68.8705 163.855C68.833 163.84 68.8079 163.815 68.7922 163.777C68.7766 163.743 68.7735 163.692 68.7797 163.627C68.7891 163.564 68.8079 163.48 68.8392 163.379C68.8705 163.279 68.9144 163.16 68.9739 163.022C69.0146 162.928 69.049 162.85 69.0835 162.791C69.1179 162.731 69.1492 162.678 69.1805 162.637C69.2118 162.596 69.2463 162.562 69.2807 162.537C69.3152 162.512 69.3684 162.484 69.4404 162.459C69.5124 162.431 69.6314 162.409 69.8005 162.393C69.9696 162.374 70.1669 162.374 70.3986 162.387C70.6272 162.399 70.8746 162.434 71.1345 162.487C71.3944 162.54 71.6574 162.622 71.9173 162.734C72.3275 162.91 72.6657 163.116 72.9287 163.351C73.1917 163.586 73.3859 163.84 73.5111 164.112C73.6364 164.384 73.6928 164.669 73.6834 164.967C73.674 165.264 73.6082 165.559 73.483 165.853C73.3734 166.11 73.2418 166.351 73.0853 166.58C72.9318 166.808 72.7158 167.03 72.4371 167.253C72.1584 167.475 71.8077 167.697 71.3756 167.926C70.9466 168.155 70.4017 168.399 69.741 168.662L68.4134 169.216L71.529 170.544C71.5697 170.563 71.601 170.591 71.6261 170.628C71.6511 170.666 71.6637 170.719 71.6668 170.779C71.6668 170.841 71.6605 170.916 71.6355 171.004C71.6136 171.092 71.576 171.195 71.529 171.308L71.5321 171.311ZM80.9574 171.903C80.8384 172.354 80.6568 172.733 80.4063 173.046C80.1589 173.359 79.8583 173.597 79.5107 173.766C79.1632 173.932 78.7717 174.029 78.3365 174.051C77.9012 174.076 77.4409 174.023 76.9524 173.894C76.6957 173.825 76.4546 173.747 76.2322 173.653C76.0099 173.559 75.8127 173.465 75.6404 173.368C75.4682 173.271 75.3304 173.183 75.2271 173.102C75.1238 173.021 75.0549 172.961 75.0267 172.92C74.9985 172.88 74.9797 172.836 74.9735 172.792C74.9672 172.748 74.9641 172.698 74.9672 172.642C74.9703 172.585 74.9797 172.516 74.9985 172.432C75.0142 172.351 75.0392 172.253 75.0674 172.141C75.0987 172.022 75.13 171.922 75.1613 171.84C75.1927 171.759 75.224 171.696 75.2553 171.649C75.2866 171.602 75.321 171.574 75.3523 171.558C75.3837 171.543 75.415 171.54 75.4494 171.549C75.4933 171.561 75.5496 171.602 75.6248 171.674C75.6999 171.746 75.8001 171.831 75.9285 171.928C76.0569 172.025 76.2166 172.125 76.4107 172.228C76.6017 172.332 76.8429 172.419 77.1309 172.495C77.3783 172.56 77.6132 172.595 77.8292 172.595C78.0453 172.595 78.2394 172.56 78.4116 172.482C78.5839 172.404 78.7279 172.291 78.85 172.141C78.9721 171.99 79.063 171.793 79.1287 171.555C79.1819 171.349 79.1976 171.157 79.1757 170.982C79.1538 170.807 79.088 170.644 78.9815 170.494C78.8719 170.346 78.7185 170.215 78.515 170.102C78.3114 169.99 78.0515 169.892 77.7415 169.811C77.4942 169.745 77.2625 169.698 77.0527 169.673C76.8429 169.645 76.6487 169.607 76.4671 169.561C76.3418 169.529 76.2636 169.473 76.226 169.398C76.1884 169.323 76.1915 169.2 76.2354 169.034L77.181 165.424C77.2249 165.252 77.2906 165.139 77.3783 165.08C77.4629 165.023 77.5787 165.014 77.7259 165.051L81.6619 166.082C81.6995 166.091 81.734 166.113 81.7621 166.147C81.7903 166.182 81.8091 166.232 81.8154 166.291C81.8216 166.351 81.8216 166.432 81.8091 166.526C81.7966 166.62 81.7715 166.733 81.7402 166.861C81.6713 167.118 81.6024 167.3 81.5273 167.403C81.4521 167.506 81.3707 167.547 81.2862 167.525L78.3302 166.752L77.8637 168.53C78.0171 168.552 78.1705 168.58 78.3177 168.615C78.468 168.649 78.6214 168.687 78.7843 168.731C79.2352 168.85 79.6203 169.006 79.9397 169.2C80.2622 169.398 80.5128 169.629 80.6975 169.892C80.8822 170.159 80.9981 170.459 81.0419 170.791C81.0858 171.126 81.0576 171.493 80.9543 171.89L80.9574 171.903ZM93.2697 172.689L93.2165 175.71C93.2165 175.754 93.2008 175.795 93.1726 175.829C93.1445 175.864 93.0944 175.892 93.0286 175.914C92.9629 175.936 92.872 175.952 92.7593 175.961C92.6466 175.973 92.5057 175.977 92.3366 175.973C92.1644 175.97 92.0235 175.961 91.9107 175.945C91.8011 175.93 91.7103 175.911 91.6414 175.889C91.5726 175.867 91.5256 175.836 91.5005 175.801C91.4755 175.767 91.463 175.726 91.463 175.682L91.5193 172.661L89.2554 167.939C89.174 167.773 89.1239 167.644 89.0988 167.553C89.0769 167.463 89.0894 167.394 89.1426 167.35C89.1927 167.303 89.2898 167.278 89.4276 167.268C89.5654 167.259 89.7564 167.259 89.9975 167.262C90.201 167.265 90.3639 167.275 90.486 167.284C90.6081 167.297 90.702 167.312 90.7741 167.34C90.8461 167.369 90.8962 167.4 90.9275 167.441C90.9588 167.481 90.9901 167.531 91.0214 167.594L91.9389 169.723C92.0297 169.93 92.1174 170.146 92.2019 170.372C92.2896 170.6 92.3773 170.838 92.465 171.085H92.4775C92.5652 170.847 92.656 170.619 92.7499 170.393C92.8439 170.168 92.9315 169.955 93.0192 169.755L93.9993 167.675C94.0244 167.607 94.0526 167.55 94.087 167.506C94.1214 167.466 94.1715 167.431 94.2373 167.406C94.3031 167.381 94.3939 167.365 94.5097 167.359C94.6256 167.353 94.779 167.35 94.9669 167.353C95.2205 167.356 95.4147 167.365 95.5524 167.381C95.6902 167.394 95.7873 167.425 95.8374 167.472C95.8875 167.519 95.8969 167.588 95.8687 167.682C95.8405 167.776 95.7842 167.898 95.7028 168.057L93.2666 172.695L93.2697 172.689ZM104.336 174.364C104.351 174.492 104.361 174.599 104.361 174.686C104.361 174.774 104.355 174.846 104.339 174.899C104.323 174.956 104.301 174.996 104.273 175.025C104.242 175.053 104.207 175.068 104.17 175.075L99.8925 175.642C99.7484 175.66 99.62 175.635 99.5104 175.56C99.4008 175.488 99.3319 175.357 99.3069 175.162L98.3237 167.738C98.2986 167.544 98.3299 167.4 98.4176 167.3C98.5053 167.2 98.6211 167.143 98.7652 167.124L103.017 166.561C103.058 166.554 103.093 166.561 103.127 166.58C103.162 166.598 103.193 166.633 103.221 166.683C103.249 166.733 103.277 166.802 103.299 166.886C103.321 166.971 103.34 167.077 103.359 167.209C103.374 167.331 103.384 167.437 103.384 167.525C103.384 167.613 103.378 167.685 103.362 167.738C103.346 167.794 103.324 167.835 103.299 167.863C103.274 167.892 103.24 167.907 103.199 167.913L100.159 168.317L100.434 170.397L103.008 170.055C103.049 170.049 103.086 170.055 103.121 170.077C103.158 170.096 103.19 170.13 103.218 170.177C103.246 170.224 103.271 170.29 103.293 170.375C103.315 170.459 103.334 170.563 103.353 170.685C103.368 170.813 103.378 170.92 103.378 171.004C103.378 171.089 103.371 171.157 103.356 171.211C103.34 171.264 103.318 171.305 103.287 171.33C103.255 171.355 103.221 171.374 103.183 171.377L100.61 171.718L100.929 174.12L103.998 173.713C104.038 173.706 104.076 173.713 104.11 173.735C104.148 173.753 104.179 173.791 104.207 173.838C104.236 173.888 104.261 173.954 104.286 174.038C104.308 174.123 104.326 174.229 104.345 174.355L104.336 174.364ZM114.885 171.63C114.982 171.768 115.048 171.881 115.089 171.965C115.129 172.05 115.129 172.122 115.098 172.181C115.064 172.241 114.989 172.291 114.876 172.338C114.76 172.385 114.597 172.438 114.39 172.498C114.174 172.56 114.005 172.607 113.88 172.639C113.758 172.667 113.661 172.682 113.592 172.682C113.523 172.682 113.47 172.67 113.435 172.642C113.401 172.617 113.366 172.576 113.332 172.526L112.289 171.035L109.196 171.95L109.149 173.716C109.149 173.782 109.142 173.838 109.127 173.885C109.111 173.935 109.077 173.979 109.02 174.02C108.967 174.06 108.882 174.104 108.773 174.145C108.663 174.185 108.516 174.236 108.334 174.289C108.14 174.345 107.984 174.386 107.871 174.405C107.755 174.423 107.671 174.417 107.614 174.38C107.558 174.342 107.52 174.279 107.508 174.185C107.495 174.092 107.492 173.963 107.498 173.8L107.877 165.74C107.88 165.662 107.893 165.593 107.915 165.54C107.937 165.487 107.981 165.437 108.046 165.39C108.112 165.346 108.212 165.299 108.341 165.255C108.469 165.211 108.644 165.155 108.861 165.092C109.111 165.017 109.311 164.964 109.462 164.926C109.612 164.889 109.731 164.87 109.822 164.87C109.913 164.87 109.982 164.885 110.032 164.923C110.082 164.961 110.132 165.014 110.182 165.086L114.888 171.637L114.885 171.63ZM109.318 166.708H109.311L109.183 170.556L111.519 169.864L109.318 166.708ZM124.251 167.791C124.273 167.835 124.282 167.876 124.282 167.913C124.282 167.951 124.254 167.995 124.204 168.042C124.154 168.089 124.072 168.148 123.963 168.211C123.85 168.274 123.697 168.355 123.496 168.452C123.33 168.533 123.193 168.593 123.089 168.634C122.986 168.674 122.901 168.696 122.832 168.703C122.764 168.709 122.71 168.703 122.67 168.677C122.629 168.652 122.588 168.624 122.551 168.584L121.016 167.196C120.838 167.043 120.672 166.908 120.518 166.796C120.365 166.683 120.215 166.601 120.068 166.545C119.92 166.492 119.77 166.47 119.62 166.479C119.466 166.489 119.307 166.536 119.141 166.617L118.652 166.855L120.086 169.799C120.105 169.839 120.111 169.88 120.099 169.924C120.089 169.968 120.058 170.015 120.008 170.065C119.958 170.115 119.886 170.168 119.792 170.227C119.698 170.287 119.573 170.356 119.419 170.431C119.269 170.506 119.138 170.559 119.031 170.597C118.925 170.635 118.837 170.66 118.765 170.666C118.696 170.675 118.643 170.669 118.602 170.65C118.561 170.631 118.533 170.6 118.514 170.559L115.095 163.548C115.01 163.373 114.992 163.226 115.045 163.104C115.098 162.982 115.189 162.891 115.32 162.825L117.318 161.851C117.522 161.751 117.691 161.676 117.825 161.62C117.96 161.563 118.085 161.516 118.198 161.475C118.53 161.369 118.846 161.306 119.147 161.294C119.447 161.281 119.726 161.319 119.986 161.407C120.243 161.494 120.475 161.635 120.681 161.826C120.888 162.017 121.066 162.268 121.217 162.575C121.342 162.834 121.426 163.085 121.464 163.329C121.502 163.573 121.499 163.811 121.452 164.04C121.405 164.269 121.32 164.491 121.192 164.707C121.066 164.923 120.9 165.123 120.7 165.318C120.841 165.318 120.985 165.333 121.123 165.361C121.264 165.393 121.405 165.443 121.552 165.512C121.696 165.581 121.843 165.668 121.993 165.775C122.144 165.881 122.3 166.006 122.466 166.154L123.86 167.359C123.994 167.481 124.088 167.572 124.141 167.632C124.195 167.691 124.232 167.741 124.251 167.782V167.791ZM119.673 163.539C119.548 163.285 119.385 163.097 119.184 162.978C118.984 162.86 118.734 162.828 118.436 162.885C118.348 162.903 118.248 162.932 118.142 162.969C118.035 163.007 117.891 163.069 117.713 163.157L117.008 163.501L118.076 165.69L118.874 165.302C119.097 165.192 119.278 165.07 119.419 164.936C119.56 164.801 119.664 164.657 119.726 164.507C119.789 164.356 119.817 164.197 119.808 164.034C119.798 163.871 119.751 163.705 119.67 163.539H119.673ZM130.257 161.031C130.514 161.403 130.667 161.776 130.723 162.152C130.777 162.528 130.752 162.891 130.645 163.242C130.539 163.592 130.357 163.924 130.106 164.237C129.856 164.55 129.549 164.832 129.186 165.08C128.942 165.249 128.701 165.383 128.463 165.487C128.225 165.59 128.009 165.671 127.808 165.725C127.608 165.778 127.435 165.812 127.285 165.825C127.135 165.837 127.019 165.834 126.941 165.822C126.862 165.809 126.781 165.762 126.7 165.687C126.618 165.612 126.521 165.49 126.405 165.321C126.327 165.208 126.267 165.111 126.221 165.03C126.174 164.948 126.145 164.879 126.127 164.82C126.111 164.76 126.108 164.713 126.123 164.673C126.136 164.635 126.161 164.601 126.199 164.575C126.249 164.541 126.343 164.522 126.477 164.516C126.612 164.51 126.778 164.497 126.972 164.469C127.169 164.441 127.389 164.388 127.633 164.309C127.877 164.231 128.131 164.1 128.397 163.915C128.572 163.796 128.713 163.664 128.823 163.53C128.932 163.392 129.011 163.251 129.054 163.11C129.098 162.966 129.108 162.822 129.079 162.672C129.051 162.524 128.992 162.38 128.898 162.243C128.788 162.083 128.65 161.973 128.481 161.92C128.315 161.867 128.131 161.842 127.927 161.848C127.727 161.854 127.507 161.883 127.276 161.926C127.044 161.97 126.803 162.014 126.552 162.058C126.302 162.102 126.051 162.13 125.795 162.139C125.541 162.152 125.287 162.127 125.04 162.07C124.793 162.011 124.552 161.908 124.32 161.757C124.088 161.607 123.869 161.382 123.665 161.087C123.431 160.749 123.29 160.408 123.24 160.063C123.189 159.719 123.211 159.39 123.308 159.074C123.405 158.757 123.568 158.457 123.803 158.175C124.038 157.893 124.314 157.64 124.639 157.414C124.808 157.298 124.984 157.195 125.168 157.107C125.353 157.016 125.535 156.944 125.71 156.888C125.885 156.832 126.048 156.791 126.199 156.769C126.349 156.747 126.455 156.741 126.518 156.75C126.581 156.76 126.624 156.775 126.656 156.791C126.687 156.807 126.722 156.835 126.759 156.869C126.797 156.904 126.841 156.954 126.887 157.013C126.934 157.076 126.991 157.154 127.057 157.248C127.129 157.355 127.188 157.445 127.232 157.521C127.276 157.599 127.31 157.665 127.329 157.721C127.348 157.777 127.354 157.824 127.345 157.862C127.335 157.9 127.31 157.934 127.273 157.962C127.232 157.99 127.151 158.009 127.028 158.019C126.906 158.028 126.759 158.047 126.59 158.075C126.421 158.103 126.236 158.15 126.033 158.216C125.832 158.282 125.629 158.385 125.428 158.523C125.272 158.632 125.146 158.745 125.059 158.861C124.968 158.98 124.909 159.099 124.874 159.221C124.843 159.343 124.84 159.465 124.868 159.584C124.896 159.706 124.946 159.819 125.018 159.925C125.125 160.082 125.262 160.189 125.428 160.245C125.594 160.301 125.779 160.323 125.983 160.314C126.189 160.304 126.408 160.276 126.646 160.229C126.881 160.182 127.125 160.138 127.376 160.095C127.626 160.051 127.88 160.023 128.14 160.01C128.4 159.994 128.654 160.016 128.901 160.076C129.151 160.132 129.389 160.235 129.621 160.386C129.853 160.536 130.066 160.752 130.263 161.037L130.257 161.031Z" fill="white"></path><path d="M12.8848 90.2632C13.0226 90.2632 13.1416 90.2694 13.2386 90.2819C13.3357 90.2945 13.4171 90.3133 13.4766 90.3352C13.5361 90.3602 13.5799 90.3884 13.6081 90.426C13.6363 90.4604 13.652 90.5011 13.652 90.545L13.6457 92.8715L21.1327 92.8903C21.1796 92.8903 21.2235 92.906 21.2611 92.9373C21.2986 92.9686 21.3299 93.0187 21.355 93.0907C21.38 93.1628 21.3988 93.2598 21.4114 93.3819C21.427 93.5041 21.4333 93.6575 21.4333 93.8391C21.4333 94.0207 21.4239 94.1742 21.4114 94.2932C21.3957 94.4153 21.3769 94.5123 21.3519 94.5844C21.3268 94.6564 21.2955 94.7065 21.2579 94.7378C21.2203 94.7691 21.1765 94.7848 21.1295 94.7848L13.6426 94.766L13.6363 97.0926C13.6363 97.1395 13.6207 97.1802 13.5925 97.2147C13.5643 97.2491 13.5205 97.2773 13.461 97.2992C13.4015 97.3243 13.3232 97.3399 13.223 97.3524C13.1259 97.365 13.0069 97.3712 12.8691 97.3681C12.7251 97.3681 12.603 97.3618 12.5028 97.3493C12.4026 97.3368 12.3212 97.318 12.2617 97.2961C12.2022 97.271 12.1583 97.2429 12.1333 97.2084C12.1082 97.174 12.0957 97.1332 12.0957 97.0863L12.1114 90.5387C12.1114 90.4949 12.1239 90.4573 12.1521 90.4197C12.1771 90.3853 12.221 90.354 12.2805 90.3289C12.3399 90.3039 12.4214 90.2882 12.5216 90.2757C12.6218 90.2632 12.7439 90.26 12.8879 90.26L12.8848 90.2632ZM22.1128 81.6865C22.1597 81.6927 22.2005 81.7115 22.2349 81.7491C22.2693 81.7836 22.2944 81.8399 22.31 81.9151C22.3257 81.9902 22.332 82.0873 22.332 82.2063C22.332 82.3253 22.3194 82.4787 22.2975 82.6572C22.2756 82.8419 22.2474 82.9954 22.2192 83.1144C22.1911 83.2334 22.1597 83.3273 22.1284 83.3931C22.0971 83.4588 22.0595 83.5058 22.0188 83.5308C21.9781 83.5559 21.9312 83.5684 21.8842 83.5621L18.1579 83.1019L17.7321 86.5494L21.4583 87.0097C21.5053 87.016 21.546 87.0348 21.5805 87.0692C21.6149 87.1037 21.6399 87.1569 21.6556 87.2289C21.6713 87.3009 21.6775 87.4011 21.6775 87.5201C21.6775 87.6423 21.665 87.7925 21.6431 87.9804C21.6212 88.162 21.5961 88.3123 21.5648 88.4313C21.5366 88.5503 21.5053 88.6443 21.4709 88.7132C21.4395 88.782 21.402 88.829 21.3581 88.8541C21.3174 88.8791 21.2705 88.8916 21.2235 88.8854L12.5184 87.8082C12.4715 87.8019 12.4308 87.7832 12.3963 87.7456C12.3619 87.7111 12.3368 87.6548 12.3212 87.5796C12.3055 87.5045 12.2992 87.4074 12.2992 87.2853C12.2992 87.1632 12.3118 87.0097 12.3337 86.8312C12.3556 86.6465 12.3838 86.4962 12.412 86.3772C12.4401 86.2613 12.4715 86.1674 12.5028 86.0985C12.5341 86.0296 12.5717 85.9827 12.6124 85.9607C12.6531 85.9357 12.6969 85.9294 12.747 85.9325L16.132 86.3521L16.5578 82.9046L13.1729 82.485C13.1259 82.4787 13.0852 82.4599 13.0508 82.4223C13.0163 82.3879 12.9913 82.3347 12.9756 82.2626C12.9599 82.1906 12.9537 82.0936 12.9537 81.9714C12.9537 81.8493 12.9662 81.6959 12.9881 81.508C13.01 81.3264 13.0351 81.1792 13.0633 81.0602C13.0915 80.9444 13.1228 80.8504 13.1541 80.7815C13.1854 80.7127 13.223 80.6657 13.2668 80.6406C13.3075 80.6156 13.3545 80.6031 13.4015 80.6093L22.1065 81.6865H22.1128ZM23.4592 73.9428C23.5939 73.9772 23.7066 74.0085 23.7943 74.043C23.882 74.0774 23.9509 74.1118 24.001 74.1494C24.0511 74.187 24.0855 74.2246 24.1012 74.2653C24.1168 74.306 24.1199 74.3467 24.1106 74.3905L22.9864 78.9184C22.9488 79.0718 22.8706 79.1908 22.7547 79.2722C22.6388 79.3537 22.4791 79.3693 22.2725 79.3192L14.4129 77.3684C14.2093 77.3183 14.0747 77.2275 14.0089 77.1022C13.9432 76.9739 13.9307 76.8361 13.9682 76.6827L15.0861 72.183C15.0955 72.1423 15.1174 72.1078 15.1487 72.0796C15.18 72.0514 15.227 72.0358 15.2896 72.0264C15.3523 72.017 15.4306 72.0201 15.5245 72.0295C15.6184 72.0389 15.7343 72.064 15.8752 72.0984C16.0067 72.1297 16.1132 72.1642 16.2009 72.1986C16.2885 72.2331 16.3574 72.2675 16.4075 72.3051C16.4576 72.3427 16.4921 72.3802 16.5077 72.4178C16.5265 72.4554 16.5296 72.4961 16.5202 72.5399L15.7218 75.7589L17.9231 76.3038L18.5994 73.5795C18.6088 73.5388 18.6308 73.5012 18.6652 73.4731C18.6996 73.4449 18.7466 73.4261 18.8061 73.4167C18.8656 73.4073 18.9408 73.4073 19.0347 73.4167C19.1286 73.4292 19.2414 73.448 19.3697 73.4825C19.5044 73.5169 19.614 73.5482 19.6985 73.5827C19.7831 73.6171 19.852 73.6515 19.8989 73.6891C19.9459 73.7267 19.9772 73.7643 19.9929 73.805C20.0085 73.8457 20.0085 73.8864 19.9991 73.9302L19.3228 76.6545L21.8654 77.2839L22.6701 74.0367C22.6795 73.996 22.7015 73.9584 22.7359 73.9302C22.7704 73.9021 22.8173 73.8833 22.8799 73.8739C22.9426 73.8645 23.0177 73.8645 23.1117 73.8739C23.2056 73.8833 23.3183 73.9083 23.453 73.9396L23.4592 73.9428ZM27.2481 62.241C27.3577 62.288 27.4517 62.3318 27.5237 62.3726C27.5957 62.4133 27.6583 62.4508 27.7084 62.4884C27.7585 62.526 27.7961 62.5636 27.8274 62.6011C27.8587 62.6387 27.8869 62.6951 27.9182 62.764C27.9495 62.8329 27.9715 62.955 27.9934 63.1272C28.0122 63.2994 28.0153 63.503 28.0028 63.7315C27.9902 63.9633 27.9527 64.2169 27.89 64.4956C27.8274 64.7743 27.7335 65.0623 27.6051 65.3598C27.3546 65.9454 27.0383 66.4339 26.6532 66.8253C26.2712 67.2198 25.8296 67.5016 25.3286 67.6801C24.8276 67.8586 24.2734 67.915 23.6596 67.8617C23.049 67.8085 22.3852 67.6269 21.6744 67.32C20.9479 67.0069 20.3467 66.6343 19.8676 66.199C19.3885 65.7638 19.0316 65.2909 18.7998 64.7774C18.565 64.267 18.4554 63.7253 18.4648 63.1522C18.4742 62.5823 18.6057 62.0031 18.8593 61.4175C18.9627 61.1795 19.0785 60.9603 19.2132 60.7568C19.3478 60.5533 19.4856 60.3716 19.6296 60.2119C19.7737 60.0522 19.9209 59.9145 20.068 59.8017C20.2152 59.689 20.3311 59.6139 20.4156 59.5794C20.5001 59.545 20.5659 59.5262 20.616 59.5199C20.6661 59.5137 20.7225 59.5199 20.7914 59.5325C20.8602 59.545 20.9354 59.5669 21.0231 59.5951C21.1108 59.6233 21.2141 59.664 21.3362 59.7172C21.4677 59.7736 21.5773 59.8268 21.6681 59.8738C21.7558 59.9207 21.8247 59.9708 21.8717 60.0147C21.9186 60.0616 21.9499 60.1055 21.9625 60.1493C21.975 60.19 21.975 60.2307 21.9562 60.2714C21.928 60.3372 21.8529 60.403 21.7339 60.4718C21.6118 60.5407 21.4709 60.6347 21.308 60.7537C21.1452 60.8727 20.9761 61.0292 20.8039 61.2171C20.6317 61.405 20.4782 61.6555 20.3467 61.9624C20.2027 62.3005 20.14 62.6325 20.1651 62.9581C20.1901 63.2838 20.2903 63.5938 20.4657 63.8912C20.6411 64.1887 20.8916 64.4643 21.2172 64.7179C21.5397 64.9715 21.9312 65.197 22.3883 65.3943C22.8893 65.6103 23.3465 65.745 23.7567 65.7982C24.1669 65.8514 24.5333 65.8358 24.8527 65.745C25.1721 65.6542 25.4476 65.5007 25.6825 65.2815C25.9142 65.0623 26.1052 64.7805 26.2492 64.4424C26.3808 64.1355 26.459 63.8537 26.4841 63.5969C26.5091 63.3401 26.5091 63.1147 26.4903 62.9174C26.4716 62.7201 26.4496 62.5542 26.4246 62.4195C26.3995 62.2849 26.3964 62.1909 26.4246 62.1346C26.4434 62.0907 26.4684 62.0594 26.4966 62.0406C26.5248 62.0218 26.5686 62.0156 26.6313 62.0187C26.6908 62.025 26.7722 62.0438 26.8692 62.0751C26.9663 62.1064 27.0947 62.1565 27.2544 62.2254L27.2481 62.241ZM29.3461 51.8232C30.0099 52.2146 30.5548 52.6467 30.9807 53.1195C31.4065 53.5924 31.7071 54.0996 31.8793 54.6413C32.0516 55.1831 32.0923 55.7498 32.0015 56.3416C31.9107 56.9335 31.6789 57.5472 31.3063 58.1766C30.9399 58.7997 30.5391 59.2945 30.1039 59.664C29.6686 60.0335 29.1927 60.2714 28.676 60.3842C28.1593 60.4969 27.5988 60.4781 26.9914 60.3309C26.3839 60.1838 25.7294 59.8988 25.0249 59.4855C24.3767 59.1035 23.8444 58.6776 23.4248 58.2079C23.0052 57.7382 22.7077 57.2341 22.5386 56.6955C22.3664 56.1569 22.3257 55.5901 22.4165 54.9952C22.5042 54.4002 22.7359 53.7865 23.1117 53.1508C23.4686 52.5434 23.8632 52.058 24.2984 51.6885C24.7337 51.319 25.2096 51.0779 25.7263 50.962C26.243 50.8462 26.8035 50.8618 27.4078 51.0028C28.0122 51.1437 28.6572 51.4192 29.3524 51.8263L29.3461 51.8232ZM28.4286 53.5798C28.009 53.3325 27.6051 53.1414 27.2231 53.0037C26.8411 52.8659 26.4778 52.8064 26.1396 52.8189C25.8015 52.8314 25.4852 52.9316 25.1971 53.1164C24.909 53.3011 24.646 53.5924 24.4143 53.9869C24.1794 54.3877 24.0573 54.7666 24.0511 55.1236C24.0448 55.4805 24.1168 55.8156 24.2702 56.1287C24.4237 56.4418 24.6491 56.7299 24.9466 56.9961C25.2441 57.2623 25.5791 57.5065 25.9549 57.7257C26.3933 57.9825 26.8035 58.1829 27.1918 58.3206C27.58 58.4615 27.9433 58.5242 28.2815 58.5116C28.6196 58.4991 28.9328 58.4021 29.2177 58.2142C29.5027 58.0263 29.7626 57.7319 30.0006 57.3343C30.2385 56.9366 30.3575 56.5577 30.3669 56.2007C30.3763 55.8438 30.3012 55.5087 30.1415 55.1956C29.9818 54.8793 29.7532 54.5881 29.4526 54.3188C29.152 54.0495 28.8107 53.8021 28.4255 53.5767L28.4286 53.5798ZM35.7183 46.6909C36.1066 46.9884 36.3916 47.3203 36.5732 47.6898C36.7548 48.0593 36.8487 48.4413 36.855 48.839C36.8613 49.2367 36.7861 49.6375 36.6327 50.0446C36.4792 50.4516 36.2569 50.8431 35.9688 51.2188C35.7747 51.4725 35.5712 51.6948 35.3614 51.8795C35.1516 52.0643 34.9543 52.2208 34.7664 52.343C34.5785 52.4651 34.4094 52.5559 34.2591 52.6185C34.1088 52.6811 33.9898 52.7187 33.9022 52.7312C33.8145 52.7438 33.7174 52.725 33.6078 52.6717C33.4982 52.6216 33.3573 52.5277 33.182 52.3962C33.063 52.3054 32.969 52.2271 32.8939 52.1582C32.8187 52.0893 32.7655 52.0267 32.7279 51.9735C32.6904 51.9171 32.6747 51.8701 32.6747 51.8232C32.6747 51.7793 32.6904 51.7386 32.7185 51.6979C32.7592 51.6447 32.8469 51.5946 32.9847 51.5445C33.1225 51.4944 33.2853 51.4255 33.4794 51.3315C33.6705 51.2376 33.8802 51.1092 34.1057 50.9464C34.3312 50.7836 34.5472 50.5644 34.7602 50.2857C34.9011 50.1041 35.0044 49.9225 35.0701 49.744C35.1359 49.5655 35.1703 49.3964 35.1672 49.2336C35.1672 49.0707 35.1234 48.9204 35.0482 48.7764C34.9699 48.6324 34.8604 48.5071 34.7163 48.3944C34.5504 48.266 34.3719 48.2034 34.1809 48.2002C33.9898 48.2002 33.7957 48.2378 33.589 48.313C33.3824 48.3881 33.1694 48.4883 32.944 48.6104C32.7185 48.7326 32.4868 48.8609 32.2426 48.9862C32.0015 49.1146 31.751 49.2273 31.4911 49.3244C31.2343 49.4214 30.9681 49.4809 30.6926 49.5029C30.4201 49.5248 30.1383 49.4966 29.8471 49.4214C29.5559 49.3432 29.2584 49.1866 28.9516 48.9517C28.5977 48.6824 28.3378 48.3787 28.1719 48.0405C28.0059 47.7055 27.9182 47.3579 27.912 47.0009C27.9057 46.644 27.9746 46.2807 28.1186 45.9112C28.2627 45.5417 28.4631 45.1879 28.723 44.8497C28.8576 44.6744 29.0048 44.5115 29.1645 44.355C29.3242 44.1984 29.487 44.0638 29.6467 43.9479C29.8095 43.832 29.963 43.735 30.1101 43.6598C30.2573 43.5847 30.3638 43.544 30.4327 43.5346C30.4984 43.5252 30.5517 43.5252 30.5892 43.5346C30.6268 43.5408 30.6707 43.5565 30.7208 43.5815C30.7709 43.6066 30.8335 43.641 30.9024 43.688C30.9713 43.735 31.0558 43.7976 31.156 43.8728C31.2656 43.9573 31.3564 44.0325 31.4284 44.0951C31.5005 44.1577 31.5537 44.2172 31.5944 44.2673C31.6351 44.3174 31.6539 44.3644 31.6601 44.4082C31.6664 44.452 31.6508 44.4928 31.6163 44.5335C31.585 44.5742 31.5067 44.6211 31.3846 44.6712C31.2625 44.7213 31.1184 44.7902 30.9525 44.8748C30.7865 44.9593 30.6143 45.0689 30.4264 45.2067C30.2417 45.3413 30.0694 45.5136 29.9097 45.7234C29.7845 45.8862 29.6937 46.0459 29.6436 46.1962C29.5935 46.3465 29.5684 46.4937 29.5747 46.6283C29.581 46.763 29.6185 46.8882 29.6874 47.0041C29.7563 47.1199 29.844 47.2201 29.9567 47.3047C30.1195 47.4299 30.2949 47.4925 30.4828 47.4957C30.6707 47.4988 30.8679 47.4612 31.0777 47.3798C31.2844 47.3015 31.5036 47.1982 31.729 47.0698C31.9576 46.9414 32.1925 46.8162 32.4336 46.6878C32.6747 46.5594 32.9283 46.4467 33.1882 46.3434C33.4481 46.2432 33.7174 46.1805 33.993 46.1555C34.2685 46.1304 34.5504 46.1555 34.8384 46.2338C35.1265 46.312 35.4177 46.4623 35.7152 46.6878L35.7183 46.6909ZM46.4619 39.2541C46.4963 39.2885 46.5151 39.3292 46.5245 39.3731C46.5339 39.42 46.5214 39.4733 46.4869 39.539C46.4556 39.6048 46.4024 39.6831 46.3304 39.7739C46.2583 39.8647 46.1581 39.9711 46.0329 40.0964C45.9108 40.2185 45.8012 40.3125 45.7104 40.3813C45.6195 40.4502 45.5413 40.5003 45.4755 40.5316C45.4097 40.563 45.3565 40.5723 45.3064 40.5661C45.2594 40.5598 45.2187 40.5379 45.1843 40.5035L39.8924 35.1051L39.883 35.1145L43.2491 42.3916C43.2804 42.448 43.293 42.5075 43.2898 42.567C43.2898 42.6265 43.2679 42.6891 43.2303 42.758C43.1928 42.8269 43.1364 42.9052 43.0613 42.9897C42.9861 43.0743 42.889 43.1745 42.77 43.2903C42.6511 43.4062 42.5509 43.497 42.46 43.569C42.3692 43.641 42.2878 43.6943 42.2158 43.7256C42.1438 43.76 42.0812 43.7757 42.0217 43.7788C41.9653 43.7788 41.9121 43.7694 41.8651 43.7412L34.7226 40.1684L34.7132 40.1778L40.0051 45.5762C40.0395 45.6106 40.0583 45.6513 40.0677 45.6952C40.0771 45.7421 40.0615 45.7985 40.027 45.8643C39.9926 45.9332 39.9393 46.0083 39.8705 46.0991C39.8016 46.1868 39.7014 46.2933 39.5761 46.4185C39.454 46.5406 39.3444 46.6346 39.2536 46.7035C39.1628 46.7723 39.0814 46.8256 39.0156 46.8569C38.9498 46.8882 38.8935 46.9007 38.8465 46.8913C38.7995 46.8819 38.762 46.86 38.7275 46.8256L32.9315 40.9168C32.7592 40.7414 32.6747 40.563 32.6778 40.3813C32.6778 40.1997 32.7561 40.0306 32.9127 39.8803L33.7957 39.0161C33.9523 38.8627 34.0994 38.7437 34.2372 38.656C34.375 38.5714 34.5159 38.5182 34.6537 38.4963C34.7946 38.4744 34.9386 38.4869 35.0889 38.5307C35.2392 38.5746 35.4052 38.6497 35.5868 38.7531L40.8975 41.2988L40.9194 41.28L38.5396 35.8816C38.4426 35.6938 38.3737 35.5247 38.3298 35.3744C38.286 35.2241 38.2672 35.0832 38.2766 34.9516C38.286 34.8201 38.3267 34.698 38.3956 34.5759C38.4645 34.4569 38.5647 34.3348 38.6899 34.2095L39.598 33.3202C39.692 33.2294 39.7828 33.1637 39.8705 33.123C39.9613 33.0822 40.0489 33.0635 40.1366 33.0666C40.2243 33.0697 40.312 33.0948 40.3996 33.1417C40.4873 33.1856 40.5719 33.2513 40.6564 33.3359L46.4525 39.2447L46.4619 39.2541ZM52.5178 29.4155C52.9625 30.0449 53.2787 30.6649 53.4729 31.2724C53.667 31.8798 53.7296 32.4654 53.6639 33.029C53.5981 33.5927 53.4009 34.125 53.0752 34.6291C52.7495 35.1333 52.283 35.5936 51.6849 36.0163C51.0931 36.4328 50.5232 36.7177 49.9752 36.8743C49.4272 37.0308 48.8949 37.0528 48.3782 36.94C47.8616 36.8273 47.3574 36.5831 46.8658 36.1948C46.3742 35.8096 45.8951 35.2804 45.4223 34.6135C44.9901 33.9997 44.6801 33.3922 44.4891 32.791C44.2981 32.1898 44.2386 31.6074 44.3044 31.0469C44.3702 30.4864 44.5674 29.9509 44.8931 29.4468C45.2187 28.9427 45.6853 28.4761 46.2865 28.0534C46.8627 27.6494 47.4232 27.3676 47.9712 27.211C48.5191 27.0545 49.0515 27.0294 49.5713 27.139C50.0911 27.2486 50.5952 27.4929 51.0868 27.8686C51.5784 28.2475 52.0544 28.7642 52.5178 29.4217V29.4155ZM50.9553 30.6367C50.6735 30.239 50.3885 29.8977 50.0942 29.6128C49.803 29.3309 49.4992 29.1243 49.183 28.999C48.8667 28.8738 48.5411 28.8331 48.1997 28.8832C47.8584 28.9333 47.5015 29.0898 47.1257 29.3529C46.7468 29.619 46.4807 29.9134 46.3272 30.2359C46.1738 30.5584 46.1018 30.8935 46.1143 31.241C46.1268 31.5886 46.2114 31.9456 46.3711 32.3119C46.5308 32.6752 46.7374 33.0353 46.9879 33.3922C47.2791 33.8087 47.5735 34.1563 47.8678 34.4444C48.1622 34.7325 48.469 34.9391 48.7822 35.0706C49.0953 35.2021 49.421 35.2397 49.7591 35.1865C50.0973 35.1333 50.4543 34.9736 50.8332 34.7074C51.2121 34.4412 51.4814 34.1469 51.6348 33.8275C51.7914 33.5081 51.8602 33.1699 51.8477 32.8192C51.8321 32.4654 51.7444 32.1053 51.5816 31.7389C51.4187 31.3726 51.2089 31.0062 50.9522 30.6398L50.9553 30.6367ZM59.4913 23.7353C59.7355 24.1956 59.8764 24.6434 59.9202 25.0755C59.9641 25.5076 59.9109 25.9178 59.7637 26.3061C59.6165 26.6944 59.3754 27.0576 59.0435 27.3958C58.7116 27.734 58.2732 28.044 57.7315 28.3289L57.0457 28.689L58.4266 31.3131C58.4485 31.3569 58.4548 31.4007 58.4454 31.4477C58.436 31.4947 58.4047 31.5479 58.3515 31.6011C58.2982 31.6544 58.2231 31.717 58.1229 31.7859C58.0227 31.8548 57.8912 31.9331 57.7252 32.0176C57.5655 32.1021 57.4277 32.1679 57.3119 32.2117C57.196 32.2556 57.1021 32.2838 57.0269 32.2963C56.9518 32.3088 56.8923 32.3057 56.8484 32.2838C56.8046 32.2618 56.7733 32.2305 56.7514 32.1898L52.8591 24.7968C52.7558 24.5964 52.7276 24.421 52.7777 24.2676C52.8278 24.1142 52.9406 23.992 53.1096 23.9044L55.0479 22.8836C55.2421 22.7802 55.4331 22.6926 55.6147 22.6143C55.7994 22.536 56.0249 22.4577 56.2973 22.3763C56.5697 22.2949 56.8641 22.2542 57.1866 22.2542C57.5091 22.2542 57.8097 22.3074 58.0947 22.4139C58.3796 22.5203 58.6364 22.6863 58.8713 22.9055C59.1061 23.1247 59.3128 23.4034 59.4881 23.7384L59.4913 23.7353ZM57.8066 24.7749C57.6563 24.4868 57.481 24.277 57.2806 24.1423C57.0801 24.0108 56.8829 23.9388 56.6887 23.9263C56.4946 23.9138 56.3098 23.9419 56.1345 24.0046C55.9591 24.0672 55.7838 24.1455 55.6116 24.2363L54.9008 24.612L56.3693 27.402L57.1177 27.0075C57.3839 26.8666 57.5874 26.7132 57.7315 26.5472C57.8724 26.3812 57.9663 26.2028 58.0133 26.0117C58.0602 25.8239 58.0665 25.6235 58.0289 25.4105C57.9945 25.2007 57.9193 24.9878 57.8097 24.7749H57.8066ZM70.2442 21.3649C70.5135 22.0882 70.6607 22.7677 70.6951 23.4034C70.7264 24.039 70.6387 24.6214 70.4321 25.1506C70.2254 25.6798 69.8997 26.1433 69.452 26.5472C69.0073 26.9511 68.4406 27.2768 67.7548 27.5336C67.0784 27.7841 66.4522 27.9156 65.8823 27.925C65.3124 27.9344 64.7894 27.8216 64.3197 27.5805C63.85 27.3426 63.4242 26.9731 63.0484 26.4752C62.6727 25.9773 62.3408 25.3448 62.0589 24.5776C61.799 23.8731 61.6519 23.2061 61.6237 22.5767C61.5955 21.9473 61.6832 21.368 61.893 20.8419C62.0996 20.3159 62.4284 19.8493 62.8731 19.4454C63.3177 19.0414 63.8845 18.7095 64.5765 18.4528C65.2372 18.2085 65.851 18.0801 66.4209 18.0676C66.9908 18.0551 67.5137 18.1678 67.9865 18.4058C68.4593 18.6438 68.8852 19.007 69.2641 19.4986C69.643 19.9902 69.9718 20.6102 70.2505 21.3649H70.2442ZM68.4218 22.1477C68.2527 21.6905 68.0617 21.2866 67.8519 20.939C67.6421 20.5914 67.401 20.3159 67.1285 20.1124C66.8561 19.9088 66.5492 19.7898 66.2079 19.7491C65.8666 19.7084 65.4815 19.771 65.0493 19.9307C64.6141 20.0904 64.2822 20.3096 64.0505 20.5789C63.8187 20.8513 63.6653 21.1582 63.587 21.4964C63.5087 21.8346 63.5025 22.2041 63.562 22.5955C63.6246 22.99 63.7311 23.3908 63.8814 23.7979C64.0567 24.2739 64.2509 24.6872 64.4638 25.041C64.6767 25.3949 64.9178 25.6736 65.1871 25.8802C65.4564 26.0869 65.7633 26.2059 66.1015 26.2403C66.4396 26.2748 66.8279 26.2121 67.2632 26.0493C67.6984 25.8865 68.0303 25.6736 68.2652 25.4043C68.4969 25.135 68.6504 24.8281 68.7286 24.4837C68.8038 24.1392 68.8101 23.7666 68.7474 23.3689C68.6848 22.9712 68.5752 22.5642 68.4218 22.1477ZM78.4983 23.4378C78.5328 23.5787 78.5547 23.6977 78.5672 23.7948C78.5798 23.8918 78.5797 23.9764 78.5735 24.0453C78.5672 24.1142 78.5484 24.1674 78.5202 24.2018C78.4921 24.2394 78.4545 24.2613 78.4075 24.2739L74.2711 25.2759C74.1176 25.3135 73.9767 25.2978 73.8515 25.232C73.7262 25.1663 73.6354 25.0316 73.5884 24.8281L71.6063 16.6303C71.5938 16.5834 71.6 16.5395 71.622 16.4926C71.6439 16.4487 71.6846 16.4049 71.7504 16.3642C71.813 16.3235 71.9038 16.2828 72.0196 16.2389C72.1355 16.1951 72.2795 16.1544 72.458 16.1105C72.6396 16.0667 72.7899 16.0385 72.9089 16.0229C73.0279 16.0103 73.125 16.0041 73.2001 16.0103C73.2753 16.0166 73.3317 16.0354 73.3724 16.0636C73.41 16.0949 73.4381 16.1325 73.4475 16.1794L75.2042 23.4441L78.0443 22.7583C78.0913 22.7458 78.1351 22.7489 78.1758 22.7677C78.2165 22.7834 78.2572 22.8209 78.2948 22.871C78.3324 22.9243 78.3668 22.9963 78.4013 23.0871C78.4357 23.181 78.4702 23.2969 78.5046 23.4347L78.4983 23.4378ZM81.996 23.4284C82.0023 23.4754 81.996 23.5192 81.971 23.5631C81.9459 23.6069 81.9021 23.6445 81.8332 23.6789C81.7674 23.7134 81.6735 23.7478 81.5576 23.7822C81.4418 23.8167 81.2915 23.848 81.1067 23.8762C80.9282 23.9044 80.7748 23.9232 80.6527 23.9294C80.5306 23.9357 80.4304 23.9294 80.3552 23.92C80.28 23.9075 80.2237 23.8856 80.1892 23.8511C80.1517 23.8198 80.1297 23.7791 80.1235 23.7321L78.7144 15.0741C78.7081 15.0271 78.7144 14.9833 78.7394 14.9394C78.7645 14.8956 78.8115 14.858 78.8804 14.8204C78.9492 14.786 79.0432 14.7515 79.159 14.7171C79.2749 14.6827 79.4221 14.6513 79.6006 14.6232C79.7853 14.5918 79.9387 14.5762 80.0577 14.5699C80.1798 14.5637 80.2769 14.5699 80.3521 14.5793C80.4272 14.5918 80.4836 14.6138 80.518 14.6451C80.5556 14.6795 80.5775 14.7171 80.5838 14.7641L81.9929 23.4221L81.996 23.4284ZM89.8807 14.3539C89.8932 14.4916 89.8963 14.6106 89.8901 14.7108C89.8869 14.811 89.8744 14.8893 89.8556 14.9519C89.8368 15.0146 89.8118 15.0615 89.7773 15.0929C89.7429 15.1242 89.7053 15.143 89.6615 15.1461L87.3443 15.3308L87.9361 22.7959C87.9392 22.8429 87.9267 22.8867 87.8985 22.9274C87.8704 22.9681 87.8234 23.0026 87.7514 23.0339C87.6825 23.062 87.5854 23.0902 87.4664 23.1153C87.3474 23.1403 87.194 23.1591 87.0124 23.1716C86.8308 23.1873 86.6805 23.1904 86.5552 23.1873C86.43 23.1842 86.3329 23.1716 86.2609 23.1529C86.1857 23.1341 86.1325 23.109 86.098 23.0714C86.0636 23.037 86.0448 22.9932 86.0417 22.9462L85.4499 15.4811L83.1327 15.6659C83.0857 15.669 83.0419 15.6596 83.0074 15.6314C82.973 15.6064 82.9385 15.5626 82.9104 15.5062C82.8822 15.4498 82.8571 15.3715 82.8383 15.2745C82.8195 15.1774 82.8039 15.0615 82.7914 14.9206C82.7788 14.7766 82.7757 14.6545 82.782 14.5543C82.7851 14.4541 82.7976 14.3727 82.8164 14.31C82.8352 14.2474 82.8603 14.2036 82.8916 14.1754C82.9229 14.1472 82.9605 14.1315 83.0106 14.1253L89.5362 13.6086C89.58 13.6055 89.6208 13.6149 89.6583 13.6399C89.6959 13.665 89.7304 13.7026 89.7585 13.762C89.7867 13.8215 89.8118 13.8998 89.8306 13.9969C89.8493 14.0971 89.865 14.2161 89.8775 14.3601L89.8807 14.3539ZM98.4479 22.3043C98.5012 22.4765 98.5356 22.6143 98.545 22.7145C98.5575 22.8147 98.5356 22.8898 98.4824 22.9399C98.4291 22.99 98.3352 23.0182 98.2006 23.0276C98.0659 23.037 97.8812 23.037 97.6463 23.0339C97.4021 23.0276 97.2111 23.0213 97.0764 23.0088C96.9418 22.9994 96.8353 22.9806 96.7664 22.9587C96.6944 22.9368 96.6443 22.9055 96.6192 22.8648C96.5911 22.8272 96.5691 22.774 96.5504 22.7113L95.9679 20.8326L92.4796 20.7543L91.8503 22.5579C91.8283 22.6237 91.8033 22.68 91.772 22.7239C91.7407 22.7677 91.6874 22.8021 91.6185 22.8272C91.5496 22.8522 91.4494 22.8679 91.3242 22.8742C91.1958 22.8804 91.0298 22.8836 90.8263 22.8773C90.6071 22.871 90.4349 22.8616 90.3096 22.8429C90.1844 22.8272 90.0998 22.7896 90.0529 22.7333C90.0059 22.6769 89.9903 22.5986 90.009 22.4984C90.0278 22.3982 90.0654 22.2636 90.1249 22.0976L93.1717 13.9217C93.203 13.8403 93.2374 13.7746 93.2781 13.7276C93.3157 13.6775 93.3783 13.6399 93.4629 13.618C93.5474 13.593 93.6633 13.5804 93.8105 13.5773C93.9576 13.5742 94.1549 13.5742 94.3991 13.5773C94.681 13.5836 94.9064 13.593 95.0724 13.6023C95.2383 13.6117 95.3699 13.6337 95.4638 13.6618C95.5577 13.69 95.6235 13.7307 95.6611 13.784C95.7018 13.8372 95.7331 13.9092 95.7613 14L98.4479 22.2949V22.3043ZM94.3365 15.3997H94.3303L92.9274 19.317L95.5609 19.3765L94.3365 15.3997ZM107.635 23.7134C107.62 23.823 107.585 23.9169 107.532 23.9952C107.482 24.0735 107.419 24.1361 107.347 24.1831C107.275 24.23 107.191 24.2582 107.1 24.2707C107.009 24.2833 106.918 24.2833 106.827 24.2707L106.032 24.1455C105.866 24.1204 105.725 24.0797 105.612 24.0265C105.497 23.9733 105.396 23.8981 105.309 23.7916C105.221 23.6883 105.143 23.5537 105.071 23.3908C104.999 23.228 104.923 23.0182 104.842 22.7614L103.239 18.1114C103.148 17.8359 103.054 17.5384 102.966 17.2221C102.876 16.9059 102.797 16.599 102.735 16.3015H102.722C102.688 16.6429 102.647 16.9842 102.603 17.3223C102.559 17.6605 102.509 18.0112 102.453 18.3713L101.695 23.1716C101.689 23.2186 101.667 23.2593 101.636 23.2938C101.604 23.3282 101.554 23.3533 101.485 23.3689C101.416 23.3846 101.329 23.3908 101.216 23.3877C101.106 23.3877 100.966 23.3689 100.793 23.3439C100.627 23.3188 100.493 23.2875 100.386 23.2562C100.28 23.2249 100.198 23.1904 100.139 23.156C100.079 23.1215 100.045 23.0808 100.026 23.0401C100.007 22.9994 100.004 22.9556 100.01 22.9055L101.316 14.6607C101.351 14.4384 101.441 14.2818 101.592 14.191C101.739 14.1002 101.908 14.0689 102.096 14.1002L103.095 14.2599C103.273 14.2881 103.424 14.3288 103.543 14.3789C103.662 14.429 103.762 14.4979 103.849 14.5825C103.937 14.667 104.012 14.7797 104.075 14.9206C104.141 15.0584 104.203 15.2275 104.263 15.4279L105.518 19.0634C105.59 19.2826 105.662 19.4986 105.731 19.7115C105.803 19.9245 105.869 20.1343 105.932 20.3472C105.994 20.557 106.057 20.7668 106.117 20.9703C106.176 21.1739 106.232 21.3774 106.289 21.5778H106.295C106.333 21.2459 106.376 20.8983 106.427 20.5382C106.477 20.1781 106.527 19.8337 106.58 19.508L107.259 15.2056C107.266 15.1586 107.288 15.1179 107.322 15.0835C107.357 15.049 107.41 15.024 107.479 15.0052C107.551 14.9864 107.638 14.9801 107.751 14.9864C107.864 14.9927 108.002 15.0083 108.174 15.0334C108.333 15.0584 108.468 15.0866 108.575 15.1148C108.681 15.143 108.762 15.1774 108.816 15.215C108.872 15.2526 108.907 15.2933 108.925 15.334C108.944 15.3747 108.947 15.4185 108.941 15.4686L107.635 23.7134ZM119.901 26.7257C119.86 26.8384 119.825 26.9324 119.791 27.0106C119.757 27.0858 119.722 27.1515 119.691 27.2016C119.656 27.2549 119.622 27.2956 119.584 27.3269C119.547 27.3582 119.497 27.3927 119.428 27.4271C119.359 27.4615 119.24 27.496 119.071 27.5273C118.902 27.5586 118.698 27.5743 118.466 27.5774C118.235 27.5774 117.978 27.5586 117.696 27.5179C117.414 27.4741 117.12 27.3989 116.813 27.2925C116.212 27.0827 115.701 26.8008 115.285 26.4439C114.865 26.09 114.552 25.6673 114.342 25.1819C114.133 24.6966 114.032 24.1455 114.048 23.5317C114.061 22.918 114.195 22.2448 114.452 21.512C114.712 20.7668 115.044 20.1405 115.445 19.6301C115.846 19.1229 116.293 18.7346 116.788 18.4653C117.283 18.196 117.815 18.0488 118.385 18.0206C118.955 17.9925 119.54 18.0833 120.142 18.2931C120.386 18.3776 120.614 18.4809 120.824 18.5999C121.037 18.7189 121.225 18.8473 121.394 18.9788C121.563 19.1103 121.71 19.2481 121.833 19.3859C121.955 19.5268 122.039 19.6364 122.077 19.7178C122.118 19.7992 122.139 19.865 122.149 19.9151C122.158 19.962 122.158 20.0215 122.149 20.0904C122.139 20.1593 122.124 20.2376 122.102 20.3253C122.08 20.413 122.046 20.5226 122.002 20.6478C121.955 20.7825 121.911 20.8983 121.867 20.9891C121.826 21.0799 121.782 21.1519 121.739 21.202C121.695 21.2521 121.654 21.2866 121.613 21.3022C121.573 21.3179 121.532 21.3179 121.491 21.3022C121.422 21.2772 121.35 21.2083 121.275 21.0925C121.2 20.9766 121.097 20.8419 120.965 20.6885C120.834 20.5351 120.668 20.3754 120.467 20.2188C120.267 20.0591 120.01 19.9245 119.694 19.8149C119.346 19.6928 119.011 19.6552 118.689 19.7021C118.366 19.7491 118.062 19.8712 117.778 20.0685C117.493 20.2658 117.236 20.5351 117.004 20.8733C116.772 21.2146 116.575 21.6185 116.412 22.0882C116.231 22.6017 116.127 23.0683 116.102 23.4816C116.077 23.895 116.118 24.2582 116.231 24.5713C116.34 24.8845 116.516 25.1475 116.75 25.3667C116.985 25.5828 117.277 25.7518 117.627 25.874C117.943 25.9836 118.228 26.0431 118.485 26.0493C118.742 26.0556 118.967 26.0431 119.165 26.0086C119.362 25.9773 119.525 25.9429 119.656 25.9084C119.788 25.874 119.882 25.8646 119.941 25.8865C119.985 25.9021 120.02 25.9241 120.041 25.9522C120.063 25.9804 120.073 26.0243 120.073 26.0838C120.073 26.1433 120.06 26.2247 120.035 26.3249C120.01 26.4251 119.969 26.5566 119.913 26.7194L119.901 26.7257ZM125.913 30.2171C125.85 30.3455 125.794 30.4551 125.74 30.5365C125.687 30.6179 125.637 30.6868 125.587 30.7338C125.537 30.7807 125.49 30.812 125.446 30.8214C125.402 30.8308 125.358 30.8277 125.315 30.8058L121.463 28.9928C121.319 28.9239 121.219 28.8268 121.162 28.6953C121.106 28.5638 121.122 28.4041 121.209 28.2131L124.801 20.582C124.82 20.5382 124.854 20.5069 124.898 20.485C124.942 20.4631 125.001 20.4568 125.077 20.4662C125.152 20.4756 125.249 20.5006 125.365 20.5382C125.481 20.5758 125.621 20.6353 125.787 20.7136C125.957 20.7918 126.091 20.8639 126.194 20.9296C126.298 20.9922 126.376 21.0517 126.429 21.105C126.486 21.1582 126.517 21.2083 126.53 21.2553C126.542 21.3022 126.536 21.3492 126.517 21.3931L123.332 28.1536L125.975 29.3967C126.019 29.4186 126.05 29.4468 126.072 29.4844C126.094 29.5251 126.104 29.5752 126.097 29.6409C126.094 29.7067 126.076 29.785 126.044 29.8789C126.013 29.9729 125.966 30.0856 125.906 30.214L125.913 30.2171ZM134.796 32.4059C134.499 32.8912 134.161 33.2827 133.782 33.577C133.403 33.8713 132.996 34.0686 132.554 34.1625C132.113 34.2565 131.646 34.2502 131.154 34.1375C130.663 34.0248 130.149 33.8087 129.62 33.4831C129.122 33.1793 128.715 32.8411 128.393 32.4748C128.07 32.1084 127.854 31.7139 127.735 31.2943C127.616 30.8747 127.6 30.43 127.688 29.9635C127.776 29.4969 127.973 29.0115 128.283 28.5043L131.236 23.6883C131.261 23.6476 131.295 23.6194 131.339 23.6006C131.383 23.5818 131.443 23.5818 131.521 23.6006C131.596 23.6194 131.69 23.6539 131.8 23.704C131.909 23.7541 132.044 23.8292 132.203 23.9263C132.36 24.0202 132.482 24.1048 132.579 24.1799C132.673 24.2551 132.745 24.3208 132.795 24.3803C132.845 24.4398 132.87 24.4931 132.877 24.54C132.883 24.587 132.877 24.634 132.849 24.6747L129.983 29.3497C129.789 29.6629 129.664 29.9603 129.598 30.239C129.536 30.5177 129.529 30.7745 129.579 31.0156C129.633 31.2567 129.736 31.4759 129.893 31.6732C130.049 31.8736 130.25 32.0489 130.5 32.2023C130.754 32.3558 131.004 32.456 131.252 32.503C131.499 32.5468 131.737 32.5374 131.969 32.4748C132.197 32.4121 132.42 32.2932 132.626 32.1209C132.836 31.9487 133.024 31.7233 133.196 31.4477L136.118 26.6787C136.143 26.638 136.177 26.6098 136.221 26.591C136.265 26.5722 136.324 26.5722 136.399 26.591C136.475 26.6098 136.565 26.6411 136.678 26.6944C136.791 26.7445 136.922 26.8196 137.079 26.9136C137.232 27.0075 137.358 27.092 137.448 27.1672C137.542 27.2392 137.611 27.305 137.661 27.3645C137.711 27.424 137.737 27.4741 137.743 27.5242C137.746 27.5711 137.737 27.615 137.711 27.6557L134.799 32.4059H134.796ZM141.81 38.7531C141.604 39.0098 141.381 39.2134 141.14 39.3668C140.902 39.5171 140.655 39.6236 140.401 39.6831C140.148 39.7426 139.888 39.7613 139.622 39.7363C139.355 39.7112 139.086 39.6549 138.82 39.5609C138.551 39.467 138.284 39.3417 138.018 39.1883C137.752 39.0317 137.477 38.8376 137.185 38.6028L135.263 37.0528C135.141 36.9526 135.066 36.8336 135.04 36.6927C135.015 36.5517 135.069 36.4014 135.2 36.2355L140.279 29.929C140.411 29.7662 140.548 29.6816 140.692 29.6754C140.837 29.6691 140.968 29.7161 141.09 29.8163L142.906 31.2786C143.351 31.6356 143.695 31.9769 143.943 32.2963C144.19 32.6188 144.359 32.9413 144.447 33.2607C144.535 33.5801 144.544 33.9027 144.469 34.222C144.394 34.5446 144.231 34.8608 143.98 35.174C143.839 35.3493 143.683 35.4965 143.514 35.6155C143.345 35.7345 143.166 35.8221 142.978 35.8785C142.79 35.9349 142.596 35.9631 142.393 35.9599C142.189 35.9568 141.983 35.9192 141.776 35.8503C141.951 36.0539 142.089 36.2699 142.186 36.5016C142.283 36.7334 142.34 36.9776 142.349 37.2281C142.358 37.4786 142.321 37.7322 142.236 37.9921C142.152 38.2489 142.011 38.5026 141.813 38.7468L141.81 38.7531ZM140.245 37.5757C140.379 37.4066 140.473 37.2344 140.523 37.059C140.573 36.8805 140.583 36.7052 140.545 36.5298C140.508 36.3545 140.426 36.1729 140.298 35.9912C140.17 35.8065 139.969 35.6092 139.703 35.3932L138.829 34.6917L137.173 36.749L138.234 37.6039C138.438 37.7698 138.629 37.8857 138.804 37.9546C138.98 38.0235 139.152 38.0579 139.321 38.0579C139.49 38.0579 139.656 38.0172 139.813 37.9389C139.969 37.8606 140.113 37.7416 140.245 37.5819V37.5757ZM142.365 34.1782C142.48 34.0342 142.565 33.8839 142.612 33.7336C142.659 33.5833 142.671 33.433 142.643 33.2827C142.615 33.1355 142.549 32.9852 142.446 32.8349C142.343 32.6846 142.177 32.5186 141.951 32.3339L141.206 31.7358L139.694 33.6146L140.514 34.2753C140.727 34.4475 140.918 34.5571 141.084 34.6103C141.25 34.6636 141.413 34.6792 141.566 34.6573C141.72 34.6385 141.867 34.5853 142.001 34.5007C142.136 34.4162 142.258 34.3097 142.361 34.1782H142.365ZM143.623 42.5701C143.492 42.7079 143.363 42.8269 143.241 42.9271C143.119 43.0273 142.997 43.1118 142.869 43.1807C142.74 43.2496 142.609 43.3091 142.468 43.3592C142.327 43.4093 142.174 43.4469 142.005 43.4782L140.357 43.807C140.301 43.8195 140.245 43.8227 140.191 43.8195C140.138 43.8164 140.085 43.8007 140.032 43.7757C139.979 43.7506 139.916 43.7131 139.85 43.6661C139.784 43.6191 139.706 43.5502 139.615 43.4657C139.515 43.3686 139.437 43.2872 139.384 43.2183C139.33 43.1494 139.296 43.0931 139.287 43.0492C139.274 43.0054 139.283 42.9678 139.308 42.9396C139.333 42.9114 139.371 42.8833 139.427 42.8645L141.431 42.0409L142.217 41.2237C142.33 41.1047 142.433 41.0233 142.531 40.9794C142.628 40.9324 142.725 40.9199 142.819 40.9387C142.913 40.9575 143.013 41.0045 143.113 41.0765C143.213 41.1516 143.329 41.2487 143.457 41.3708C143.58 41.4867 143.677 41.5932 143.752 41.6871C143.827 41.781 143.874 41.875 143.896 41.9689C143.918 42.0629 143.905 42.1568 143.861 42.2539C143.818 42.3509 143.739 42.4574 143.627 42.5764L143.623 42.5701ZM153.434 56.2195C153.396 56.2477 153.352 56.2634 153.305 56.2634C153.258 56.2634 153.205 56.2446 153.146 56.2039C153.086 56.1632 153.014 56.1005 152.936 56.016C152.858 55.9314 152.764 55.8187 152.66 55.6747C152.557 55.5369 152.479 55.4148 152.422 55.3146C152.366 55.2144 152.328 55.1298 152.307 55.0609C152.285 54.992 152.285 54.9357 152.297 54.8887C152.31 54.8417 152.338 54.8073 152.375 54.776L158.469 50.3013L158.46 50.2888L150.778 52.5872C150.716 52.6091 150.656 52.6154 150.6 52.6029C150.54 52.5935 150.481 52.5653 150.418 52.5183C150.356 52.4713 150.287 52.4056 150.212 52.3179C150.137 52.2302 150.052 52.1206 149.955 51.9891C149.858 51.8576 149.78 51.7417 149.723 51.6415C149.664 51.5413 149.623 51.4537 149.601 51.3785C149.579 51.3034 149.57 51.2376 149.576 51.1781C149.582 51.1217 149.601 51.0716 149.636 51.0278L154.185 44.4646L154.176 44.452L148.082 48.9267C148.045 48.9549 148.001 48.9705 147.954 48.9705C147.907 48.9705 147.854 48.9517 147.791 48.9079C147.729 48.8641 147.66 48.8014 147.581 48.72C147.503 48.6386 147.412 48.5259 147.306 48.3818C147.202 48.2441 147.124 48.1219 147.068 48.0217C147.011 47.9215 146.971 47.8339 146.952 47.765C146.93 47.6961 146.927 47.6366 146.943 47.5928C146.958 47.5489 146.986 47.5113 147.024 47.4832L153.697 42.5858C153.894 42.4417 154.082 42.3822 154.264 42.4104C154.445 42.4386 154.599 42.5388 154.727 42.711L155.457 43.7068C155.588 43.8853 155.685 44.0481 155.748 44.1953C155.814 44.3424 155.845 44.4896 155.845 44.6305C155.845 44.7714 155.814 44.9155 155.748 45.0564C155.682 45.1973 155.588 45.3539 155.46 45.5167L152.188 50.4109L152.203 50.4329L157.883 48.8453C158.081 48.7764 158.259 48.7294 158.416 48.7075C158.572 48.6856 158.713 48.6887 158.842 48.7169C158.97 48.7451 159.086 48.8014 159.195 48.8891C159.305 48.9768 159.411 49.0895 159.515 49.2336L160.266 50.2575C160.341 50.3608 160.395 50.461 160.423 50.555C160.451 50.6489 160.457 50.7397 160.442 50.8274C160.426 50.9151 160.388 50.9965 160.332 51.0779C160.276 51.1593 160.197 51.2345 160.103 51.3034L153.431 56.2007L153.434 56.2195ZM159.123 60.046L156.236 61.5709C156.192 61.5929 156.149 61.5991 156.102 61.5897C156.055 61.5803 156.001 61.549 155.948 61.4958C155.892 61.4426 155.832 61.3674 155.76 61.2641C155.688 61.1607 155.613 61.0323 155.529 60.8695C155.441 60.7036 155.375 60.5658 155.331 60.4531C155.288 60.3403 155.259 60.2464 155.247 60.1681C155.234 60.0898 155.237 60.0303 155.256 59.9865C155.278 59.9427 155.306 59.9113 155.35 59.8894L158.237 58.3645L161.525 53.7552C161.638 53.5924 161.735 53.4765 161.807 53.4076C161.879 53.3387 161.954 53.3168 162.023 53.3418C162.092 53.3669 162.167 53.442 162.248 53.5673C162.327 53.6926 162.43 53.871 162.552 54.1059C162.656 54.3 162.734 54.4566 162.787 54.5787C162.84 54.7008 162.872 54.801 162.884 54.8793C162.897 54.9607 162.893 55.0265 162.872 55.0766C162.85 55.1298 162.818 55.1862 162.775 55.2457L161.24 57.2247C161.093 57.4157 160.933 57.613 160.764 57.8134C160.595 58.0138 160.413 58.2204 160.222 58.4365L160.229 58.449C160.501 58.4083 160.764 58.3739 161.027 58.3457C161.287 58.3175 161.538 58.2893 161.772 58.2674L164.256 58.1108C164.334 58.0952 164.403 58.0952 164.459 58.1046C164.516 58.114 164.575 58.1453 164.635 58.1954C164.694 58.2455 164.757 58.3238 164.822 58.4302C164.888 58.5367 164.97 58.6807 165.067 58.8624C165.195 59.1035 165.289 59.2945 165.348 59.4323C165.408 59.57 165.43 59.6765 165.411 59.7485C165.392 59.8205 165.333 59.8675 165.229 59.8894C165.126 59.9113 164.979 59.9239 164.788 59.927L159.127 60.0429L159.123 60.046ZM162.386 69.346C161.932 69.5276 161.503 69.6028 161.093 69.5714C160.683 69.5401 160.307 69.4243 159.963 69.2301C159.618 69.0329 159.311 68.7636 159.039 68.4254C158.77 68.0841 158.544 67.6958 158.369 67.2543C158.25 66.9568 158.162 66.6718 158.109 66.3963C158.056 66.1207 158.024 65.8734 158.015 65.6479C158.006 65.4256 158.015 65.2314 158.034 65.0717C158.056 64.9089 158.084 64.7899 158.121 64.7085C158.156 64.6271 158.222 64.5519 158.322 64.4862C158.422 64.4173 158.572 64.3421 158.776 64.2607C158.914 64.2044 159.029 64.1637 159.127 64.1355C159.224 64.1073 159.305 64.0916 159.371 64.0885C159.437 64.0885 159.49 64.0948 159.527 64.1198C159.565 64.1449 159.593 64.1762 159.612 64.2232C159.637 64.2858 159.634 64.3891 159.609 64.53C159.581 64.6741 159.559 64.8494 159.54 65.0624C159.521 65.2753 159.527 65.5195 159.552 65.7951C159.577 66.0706 159.656 66.3712 159.787 66.6938C159.872 66.9067 159.975 67.0883 160.094 67.2355C160.213 67.3827 160.341 67.4985 160.482 67.5799C160.623 67.6613 160.774 67.7052 160.936 67.7114C161.099 67.7177 161.265 67.6895 161.434 67.6206C161.628 67.5424 161.776 67.4202 161.873 67.2605C161.97 67.0977 162.039 66.9098 162.079 66.6938C162.12 66.4777 162.145 66.2429 162.151 65.9892C162.158 65.7356 162.17 65.4694 162.186 65.1939C162.201 64.9183 162.23 64.6459 162.28 64.3766C162.327 64.1042 162.411 63.8443 162.533 63.6C162.652 63.3527 162.821 63.1241 163.038 62.9143C163.254 62.7045 163.539 62.526 163.899 62.3819C164.312 62.216 164.707 62.1471 165.079 62.1753C165.455 62.2035 165.796 62.3068 166.106 62.4821C166.416 62.6606 166.695 62.9049 166.936 63.2149C167.18 63.528 167.381 63.8818 167.54 64.2764C167.622 64.4799 167.688 64.6897 167.741 64.9089C167.791 65.125 167.825 65.3348 167.844 65.532C167.863 65.7325 167.866 65.9141 167.853 66.0769C167.841 66.2397 167.822 66.3556 167.797 66.4182C167.769 66.4808 167.744 66.5247 167.719 66.5529C167.694 66.581 167.659 66.6092 167.612 66.6437C167.565 66.675 167.506 66.7094 167.428 66.7439C167.352 66.7783 167.255 66.819 167.14 66.866C167.011 66.9192 166.902 66.9568 166.808 66.9881C166.717 67.0163 166.639 67.0351 166.576 67.0445C166.51 67.0507 166.46 67.0445 166.422 67.0288C166.385 67.01 166.357 66.9787 166.335 66.9286C166.316 66.8785 166.316 66.7908 166.335 66.6593C166.354 66.5278 166.369 66.3681 166.382 66.1834C166.394 65.9986 166.388 65.7919 166.366 65.5634C166.344 65.3348 166.285 65.0999 166.184 64.8557C166.109 64.6647 166.019 64.5081 165.915 64.3829C165.812 64.2607 165.699 64.1668 165.58 64.1042C165.458 64.0415 165.333 64.0102 165.198 64.0102C165.063 64.0102 164.932 64.0353 164.804 64.0885C164.613 64.1637 164.469 64.2827 164.371 64.4455C164.274 64.6052 164.206 64.7962 164.168 65.0154C164.13 65.2346 164.108 65.4725 164.099 65.7356C164.093 65.9955 164.083 66.2616 164.068 66.5372C164.052 66.8128 164.024 67.0852 163.977 67.3639C163.93 67.6394 163.849 67.9025 163.73 68.153C163.611 68.4003 163.445 68.632 163.232 68.8387C163.019 69.0485 162.74 69.2207 162.392 69.3616L162.386 69.346ZM165.68 78.4299C165.129 78.5771 164.616 78.6272 164.137 78.5802C163.658 78.5333 163.229 78.3955 162.843 78.1606C162.458 77.9258 162.126 77.6001 161.844 77.1774C161.563 76.7578 161.343 76.2474 161.184 75.6462C161.033 75.0826 160.968 74.5565 160.99 74.0711C161.012 73.5858 161.124 73.1474 161.328 72.7622C161.531 72.3771 161.826 72.042 162.211 71.7665C162.596 71.4878 163.072 71.2717 163.648 71.1183L169.106 69.6623C169.153 69.6497 169.197 69.6529 169.241 69.6716C169.285 69.6904 169.328 69.7311 169.369 69.7969C169.41 69.8627 169.454 69.9503 169.501 70.0631C169.544 70.1758 169.591 70.3198 169.638 70.5014C169.685 70.6768 169.717 70.824 169.735 70.943C169.751 71.0619 169.757 71.159 169.754 71.2342C169.748 71.3093 169.732 71.3688 169.704 71.4064C169.676 71.4471 169.638 71.4721 169.591 71.4847L164.293 72.8969C163.936 72.9908 163.639 73.1192 163.401 73.2758C163.163 73.4324 162.981 73.6171 162.853 73.8269C162.724 74.0367 162.649 74.2684 162.624 74.5189C162.599 74.7694 162.624 75.0387 162.699 75.3205C162.775 75.6086 162.887 75.8529 163.038 76.0564C163.185 76.2599 163.366 76.4165 163.576 76.5292C163.786 76.6419 164.027 76.7077 164.296 76.7265C164.566 76.7453 164.86 76.714 165.173 76.6294L170.575 75.189C170.622 75.1765 170.665 75.1796 170.709 75.1984C170.753 75.2172 170.797 75.2579 170.838 75.3205C170.878 75.3832 170.922 75.4708 170.969 75.5867C171.013 75.6994 171.06 75.8466 171.107 76.0219C171.154 76.1973 171.185 76.3445 171.201 76.4603C171.217 76.5762 171.223 76.6733 171.22 76.7484C171.213 76.8236 171.198 76.8799 171.17 76.9175C171.138 76.9551 171.101 76.9801 171.057 76.9927L165.674 78.4299H165.68ZM163.905 88.3781C163.852 88.3844 163.808 88.3812 163.77 88.3687C163.733 88.3531 163.695 88.3124 163.664 88.2466C163.629 88.1777 163.598 88.0775 163.57 87.9397C163.542 87.8019 163.51 87.6172 163.479 87.3792C163.451 87.1788 163.435 87.0191 163.429 86.9001C163.423 86.7811 163.429 86.6841 163.445 86.612C163.46 86.54 163.488 86.4868 163.523 86.4523C163.56 86.4179 163.604 86.3866 163.658 86.3615L165.602 85.2562C165.821 85.1247 166.015 84.9994 166.181 84.8804C166.347 84.7614 166.485 84.6362 166.592 84.5015C166.695 84.37 166.77 84.2229 166.811 84.0632C166.851 83.9035 166.858 83.7218 166.833 83.5246L166.754 82.9421L163.247 83.4181C163.2 83.4244 163.153 83.415 163.113 83.3899C163.072 83.3649 163.031 83.3179 163 83.249C162.965 83.1801 162.934 83.0893 162.906 82.9735C162.878 82.8576 162.847 82.7073 162.821 82.5226C162.796 82.3409 162.784 82.1906 162.781 82.0685C162.781 81.9464 162.784 81.8462 162.8 81.7742C162.815 81.699 162.837 81.6458 162.872 81.6113C162.906 81.5769 162.947 81.5581 162.994 81.5518L171.351 80.4152C171.561 80.387 171.718 80.4183 171.824 80.5122C171.93 80.6062 171.996 80.7314 172.015 80.888L172.341 83.2709C172.372 83.512 172.397 83.7124 172.406 83.869C172.419 84.0256 172.425 84.1696 172.428 84.3011C172.428 84.6769 172.381 85.0245 172.294 85.3376C172.206 85.6507 172.071 85.9263 171.896 86.1611C171.718 86.396 171.495 86.587 171.229 86.7342C170.963 86.8813 170.647 86.9815 170.28 87.0285C169.973 87.0692 169.685 87.0692 169.422 87.0285C169.159 86.9847 168.915 86.9001 168.696 86.7749C168.477 86.6496 168.276 86.4868 168.101 86.2833C167.922 86.0797 167.769 85.8417 167.641 85.5693C167.594 85.7165 167.531 85.8574 167.453 85.9889C167.374 86.1236 167.274 86.2519 167.155 86.3772C167.033 86.5024 166.895 86.6246 166.736 86.7436C166.576 86.8625 166.391 86.9815 166.188 87.1005L164.481 88.1213C164.312 88.2184 164.187 88.281 164.105 88.3186C164.027 88.3531 163.961 88.375 163.914 88.3812L163.905 88.3781ZM169.823 85.1184C170.127 85.0777 170.374 84.9744 170.562 84.8084C170.753 84.6424 170.869 84.3982 170.913 84.0725C170.922 83.9755 170.928 83.8628 170.925 83.7406C170.925 83.6185 170.907 83.4494 170.878 83.2365L170.766 82.3973L168.154 82.7511L168.282 83.7031C168.32 83.9692 168.383 84.1978 168.473 84.3857C168.564 84.5767 168.677 84.7301 168.812 84.846C168.946 84.9618 169.097 85.0433 169.269 85.0871C169.438 85.1309 169.623 85.1403 169.823 85.1121V85.1184ZM167.268 97.6061C166.698 97.6061 166.188 97.5278 165.737 97.3618C165.286 97.1959 164.904 96.9516 164.591 96.6291C164.278 96.3066 164.04 95.9058 163.874 95.4267C163.708 94.9476 163.623 94.3996 163.62 93.7765C163.62 93.1909 163.689 92.668 163.83 92.2046C163.974 91.738 164.193 91.3466 164.487 91.0241C164.782 90.7015 165.151 90.4542 165.593 90.2819C166.034 90.1097 166.551 90.022 167.146 90.0189L172.795 89.9907C172.842 89.9907 172.886 90.0033 172.923 90.0346C172.961 90.0628 172.992 90.1129 173.017 90.188C173.042 90.2632 173.061 90.3602 173.077 90.4792C173.092 90.5982 173.098 90.7516 173.102 90.9395C173.102 91.1211 173.095 91.2714 173.083 91.3904C173.07 91.5094 173.051 91.6065 173.026 91.6785C173.001 91.7505 172.973 91.8006 172.932 91.8319C172.895 91.8633 172.851 91.8789 172.804 91.8789L167.321 91.9071C166.952 91.9071 166.632 91.9572 166.363 92.048C166.094 92.1388 165.871 92.2703 165.693 92.4426C165.518 92.6148 165.386 92.8183 165.298 93.0563C165.211 93.2943 165.167 93.5573 165.17 93.8485C165.17 94.146 165.217 94.4121 165.311 94.6439C165.402 94.8787 165.536 95.076 165.712 95.2388C165.887 95.4016 166.103 95.5238 166.36 95.6114C166.617 95.6991 166.908 95.743 167.233 95.7398L172.826 95.7116C172.873 95.7116 172.917 95.7242 172.954 95.7555C172.992 95.7837 173.023 95.8338 173.048 95.9058C173.073 95.9778 173.092 96.0749 173.108 96.197C173.123 96.3191 173.13 96.4694 173.133 96.6542C173.136 96.8389 173.127 96.9861 173.114 97.1019C173.102 97.2178 173.083 97.3149 173.058 97.3869C173.033 97.4589 173.005 97.509 172.967 97.5372C172.929 97.5654 172.885 97.581 172.839 97.581L167.268 97.6092V97.6061Z" fill="white"></path><path d="M148.346 36.7867C148.346 36.7867 148.33 36.8024 148.32 36.8055C148.311 36.8086 148.299 36.8055 148.283 36.8024C148.267 36.7961 148.245 36.7836 148.22 36.7679C148.195 36.7491 148.161 36.7241 148.117 36.6896C148.079 36.6615 148.054 36.6364 148.032 36.6176C148.01 36.5988 147.998 36.5832 147.989 36.5675C147.979 36.5519 147.976 36.5393 147.976 36.5299C147.976 36.5174 147.979 36.5049 147.985 36.4924L148.133 36.0008C148.148 35.9444 148.161 35.8943 148.17 35.8473C148.18 35.8004 148.183 35.7596 148.176 35.7189C148.173 35.6814 148.161 35.6438 148.142 35.6125C148.123 35.578 148.095 35.5498 148.061 35.5185L147.954 35.434L147.45 36.0696C147.45 36.0696 147.434 36.0853 147.422 36.0853C147.409 36.0853 147.397 36.0853 147.381 36.079C147.365 36.0728 147.343 36.0634 147.322 36.0477C147.3 36.0321 147.268 36.0133 147.237 35.9851C147.206 35.9569 147.178 35.935 147.159 35.9162C147.14 35.8974 147.124 35.8786 147.115 35.863C147.106 35.8473 147.099 35.8348 147.102 35.8254C147.102 35.816 147.106 35.8035 147.112 35.7972L148.314 34.2817C148.346 34.2441 148.377 34.2253 148.408 34.2222C148.439 34.2222 148.471 34.2316 148.499 34.2535L148.931 34.5979C148.975 34.6324 149.009 34.6637 149.038 34.6856C149.066 34.7107 149.088 34.7326 149.11 34.7545C149.169 34.8171 149.216 34.8829 149.25 34.9486C149.285 35.0144 149.307 35.0801 149.316 35.149C149.326 35.2179 149.316 35.2837 149.297 35.3494C149.276 35.4152 149.241 35.4841 149.188 35.5498C149.144 35.6062 149.097 35.65 149.044 35.6845C148.994 35.7189 148.94 35.744 148.884 35.7565C148.828 35.7722 148.768 35.7753 148.709 35.769C148.646 35.7628 148.583 35.7471 148.521 35.7252C148.537 35.7565 148.549 35.791 148.555 35.8254C148.565 35.8598 148.568 35.8974 148.568 35.9381C148.568 35.9788 148.565 36.0195 148.555 36.0665C148.546 36.1135 148.537 36.1605 148.521 36.2137L148.399 36.6552C148.386 36.699 148.377 36.7272 148.367 36.746C148.358 36.7648 148.352 36.7773 148.346 36.7867ZM148.809 35.3087C148.853 35.2524 148.878 35.196 148.881 35.1396C148.887 35.0833 148.865 35.0238 148.821 34.9612C148.809 34.9424 148.79 34.9236 148.771 34.9048C148.753 34.886 148.721 34.861 148.684 34.8296L148.53 34.7075L148.155 35.1803L148.327 35.3181C148.374 35.3557 148.421 35.3839 148.468 35.3995C148.515 35.4152 148.555 35.4246 148.596 35.4215C148.637 35.4215 148.674 35.4089 148.709 35.3901C148.743 35.3714 148.774 35.3432 148.806 35.3056L148.809 35.3087Z" fill="white"></path><path d="M146.925 37.3065C145.932 36.5174 145.766 35.0708 146.555 34.0781C147.344 33.0855 148.791 32.9195 149.783 33.7086C150.776 34.4977 150.942 35.9444 150.153 36.937C149.364 37.9296 147.917 38.0956 146.925 37.3065ZM149.483 34.0875C148.7 33.4644 147.554 33.5959 146.931 34.3787C146.308 35.1616 146.439 36.3076 147.222 36.9308C148.005 37.5539 149.151 37.4224 149.774 36.6395C150.397 35.8567 150.266 34.7107 149.483 34.0875Z" fill="white"></path><path d="M162.518 128.121C164.771 128.121 166.598 126.294 166.598 124.041C166.598 121.787 164.771 119.961 162.518 119.961C160.264 119.961 158.438 121.787 158.438 124.041C158.438 126.294 160.264 128.121 162.518 128.121Z" fill="white"></path><path d="M22.2735 128.121C24.5268 128.121 26.3536 126.294 26.3536 124.041C26.3536 121.787 24.5268 119.961 22.2735 119.961C20.0201 119.961 18.1934 121.787 18.1934 124.041C18.1934 126.294 20.0201 128.121 22.2735 128.121Z" fill="white"></path></svg>