<svg xmlns="http://www.w3.org/2000/svg" width="233" height="247" viewBox="0 0 233 247" fill="none"><path d="M16.7147 40.7348C15.7157 42.8503 15.5244 46.5774 15.5244 49.5022C15.5244 57.7727 17.317 60.6976 22.8791 64.2684L39.7851 74.8106C46.9415 79.3541 50.5197 84.3944 50.5197 94.4468C50.5197 98.9903 49.3364 106.132 46.7502 109.866C43.172 115.382 35.8173 118.137 25.274 118.137C14.7308 118.137 7.17053 115.382 3.39396 109.866C0.999052 106.288 0.0141741 99.9699 0.0141741 86.8224H15.5314C15.5314 96.7185 15.9353 102.078 17.1115 105.167C18.1177 107.431 20.9023 109.057 25.274 109.057C29.6458 109.057 32.6288 107.758 33.8262 105.003C34.8182 102.732 35.0237 98.9974 35.0237 95.107C35.0237 88.1215 33.4153 85.6936 28.2499 82.4493L11.3439 71.9C3.98914 67.3565 0.00708162 61.3578 0.00708162 49.5093C0.00708162 44.476 1.39585 39.1233 3.38687 36.1985C7.35476 30.3559 14.3198 27.928 25.2669 27.928C35.5976 27.928 43.9585 30.6824 47.3383 36.1985C49.9387 40.4224 50.5197 52.5904 50.5197 60.8679H35.0237C35.0237 54.216 34.8111 43.9862 33.6278 40.7419C32.6288 38.1436 29.4545 37.0078 25.274 37.0078C21.0936 37.0078 17.9051 38.1436 16.7218 40.7419L16.7147 40.7348ZM62.4871 222.487H78.0044V0H62.4871V222.487ZM91.9487 222.487H107.466V29.2129H91.9487V222.487ZM99.7002 3.2443C96.7243 3.2443 94.131 3.73414 92.9336 4.87C91.9416 5.84258 91.5448 7.46828 91.5448 11.5219C91.5448 15.5755 91.9487 17.2012 92.9336 18.1738C94.131 19.3096 96.9156 19.7995 99.7002 19.7995C102.683 19.7995 105.269 19.3096 106.453 18.1738C107.459 17.2012 107.849 15.5755 107.849 11.5219C107.849 7.46828 107.459 5.84258 106.453 4.87C105.269 3.73414 102.492 3.2443 99.7002 3.2443ZM136.906 146.824H121.389V29.6034H136.906V34.2675C139.932 31.1013 144.509 29.2129 151.417 29.2129C161.167 29.2129 166.134 32.7838 168.734 37.8171C171.909 43.9791 171.909 56.3174 171.909 74.3279C171.909 89.4206 171.71 104.35 169.117 110.193C166.736 116.042 161.358 119.443 152.416 119.443C144.452 119.443 140.081 117.178 137.501 112.628H136.906V146.817V146.824ZM138.295 45.7681C137.296 50.8014 136.906 59.5617 136.906 74.3279C136.906 89.0941 137.098 98.8341 138.897 104.513C139.889 107.594 143.056 109.383 146.847 109.383C151.021 109.383 153.812 107.594 154.797 104.35C156.384 98.9974 156.384 86.9856 156.384 74.3279C156.384 61.6701 156.193 49.4951 154.797 44.3057C153.812 41.0614 151.226 39.2795 147.039 39.2795C142.851 39.2795 139.28 41.2246 138.295 45.7681ZM168.727 165.339C171.902 169.74 171.902 178.543 171.902 191.4C171.902 202.176 171.703 212.832 169.11 216.999C166.729 221.173 161.351 223.601 152.409 223.601C144.445 223.601 140.074 221.983 137.494 218.738H136.899V247H121.382V159.198H136.899V162.804C139.925 160.547 144.502 159.198 151.41 159.198C161.16 159.198 166.127 161.747 168.727 165.339ZM156.384 191.4C156.384 182.135 156.193 173.68 154.797 169.967C153.812 167.653 151.226 166.375 147.039 166.375C142.851 166.375 139.28 167.76 138.295 171.004C137.296 174.596 136.906 180.85 136.906 191.393C136.906 201.935 137.098 208.885 138.897 212.945C139.889 215.139 143.056 216.424 146.847 216.424C151.021 216.424 153.812 215.146 154.797 212.832C156.384 209.013 156.384 200.437 156.384 191.4ZM25.2669 141.351C29.4474 141.351 32.6217 142.487 33.6208 145.085C34.8111 148.329 35.0166 158.559 35.0166 165.211H50.5126C50.5126 156.933 49.9316 144.758 47.3312 140.541C43.9514 135.025 35.5905 132.271 25.2598 132.271C14.3127 132.271 7.34768 134.706 3.37979 140.541C1.38876 143.466 0 148.819 0 153.852C0 165.701 3.98206 171.7 11.3368 176.243L28.2429 186.792C33.4082 190.037 35.0166 192.465 35.0166 199.45C35.0166 203.34 34.804 207.075 33.8191 209.346C32.6217 212.101 29.4474 213.4 25.2669 213.4C21.0865 213.4 18.1106 211.774 17.1044 209.51C15.9211 206.421 15.5244 201.069 15.5244 191.165H0.00708162C0.00708162 204.313 0.999056 210.638 3.38687 214.209C7.16345 219.725 15.1134 222.48 25.2669 222.48C35.4205 222.48 43.1649 219.725 46.7431 214.209C49.3364 210.475 50.5126 203.333 50.5126 198.79C50.5126 188.73 46.9344 183.697 39.7781 179.154L22.872 168.611C17.3099 165.033 15.5173 162.116 15.5173 153.845C15.5173 150.92 15.7086 147.193 16.7076 145.078C17.898 142.48 21.0865 141.344 25.2598 141.344L25.2669 141.351ZM222.124 191.698L205.026 184.123C199.393 181.553 197.587 179.459 197.587 173.517C197.587 171.416 198.416 169.371 199.436 167.852C200.626 165.985 203.857 165.168 208.08 165.168C212.303 165.168 215.52 165.985 216.533 167.852C217.724 170.18 217.313 176.896 217.313 181.681H232.986C232.986 175.732 232.391 166.993 229.776 163.962C226.354 160 217.901 158.02 207.457 158.02C196.382 158.02 189.339 159.766 185.329 163.962C183.316 166.063 181.906 169.911 181.906 173.524C181.906 182.036 185.938 186.345 193.378 189.611L210.475 197.193C215.697 199.521 217.32 201.267 217.32 206.286C217.32 209.084 217.1 209.673 216.108 211.299C214.896 213.279 211.68 214.209 207.464 214.209C203.248 214.209 200.222 213.045 199.209 211.412C198.019 209.197 197.601 207.444 197.601 200.33H181.913C181.913 209.772 182.913 214.316 185.336 216.886C189.155 220.847 197.19 222.827 207.464 222.827C217.738 222.827 225.56 220.847 229.181 216.886C231.795 214.202 233 209.069 233 205.804C233 198.577 229.379 194.963 222.138 191.698H222.124ZM184.939 139.058C184.939 135.004 184.549 133.378 183.55 132.406C182.367 131.27 179.582 130.78 176.798 130.78C173.815 130.78 171.229 131.27 170.024 132.406C169.032 133.378 168.635 135.004 168.635 139.058C168.635 143.111 169.039 144.737 170.024 145.71C171.221 146.845 174.006 147.335 176.798 147.335C179.781 147.335 182.367 146.845 183.55 145.71C184.549 144.737 184.939 143.111 184.939 139.058Z" fill="white"></path></svg>