<svg xmlns="http://www.w3.org/2000/svg" width="378" height="286" viewBox="0 0 378 286" fill="none"><g clip-path="url(#clip0_1321_920)"><path d="M119.633 211.599C125.771 205.452 130.639 198.245 134.025 190.243C137.517 181.976 139.316 173.179 139.316 164.118C139.316 155.056 137.517 146.259 134.025 137.992C130.639 129.99 125.824 122.836 119.633 116.636C113.496 110.489 106.3 105.614 98.31 102.222C90.0558 98.7249 81.2725 96.9232 72.2246 96.9232C65.1344 96.9232 58.1501 98.036 51.4833 100.209L14.0219 29.1989C11.8525 25.0655 8.83658 21.462 5.13277 18.6534L4.39201 18.0705C3.01631 17.0107 1.21732 17.4876 0.370735 18.7594C0.0532658 19.1833 -0.105469 19.7133 -0.105469 20.3492C0.106177 25.9664 1.5877 31.4246 4.39201 36.2469L43.4407 103.441C36.5093 106.727 30.2658 111.178 24.8159 116.636C23.9693 117.484 23.1227 118.385 22.2761 119.286V106.038C22.2761 101.322 18.4665 97.4531 13.7044 97.4531C8.9424 97.4531 5.13277 101.269 5.13277 106.038V164.065V164.118V164.171V277.468C5.13277 282.185 8.9424 286.053 13.7044 286.053C18.4665 286.053 22.2761 282.238 22.2761 277.468V208.949C23.0698 209.85 23.9164 210.751 24.8159 211.599C30.9536 217.746 38.1496 222.621 46.1392 226.013C54.3934 229.51 63.1767 231.312 72.2246 231.312C81.2725 231.312 90.0558 229.51 98.31 226.013C102.702 224.158 106.776 221.879 110.638 219.177L148.682 284.675L113.231 217.269C115.453 215.52 117.623 213.612 119.633 211.599ZM30.1599 70.9039C29.1546 71.4339 22.3819 60.9414 15.0801 47.4813C7.72544 33.9682 2.64593 22.5749 3.65125 21.9919C4.65657 21.462 11.4292 31.9545 18.731 45.4146C26.0857 58.9806 31.1652 70.374 30.1599 70.9039ZM100.479 178.055C103.389 175.246 106.194 172.331 108.945 169.364C111.062 176.518 112.861 183.778 114.236 191.144C111.697 195.118 108.628 198.669 105.083 201.742C103.972 193.74 102.437 185.791 100.479 178.055ZM84.7117 192.098C85.9287 198.563 86.8811 205.134 87.516 211.758C84.2355 212.818 80.8492 213.559 77.3041 213.877C76.6692 209.055 75.9284 204.286 75.0289 199.569C78.3094 197.132 81.537 194.641 84.7117 192.098ZM70.3198 197.291H69.9494V197.503C63.9175 201.795 57.6739 205.77 51.2187 209.479C46.9858 207.518 43.0174 204.922 39.5253 201.901C68.6266 185.791 94.0771 163.535 113.972 136.773C116.459 140.589 118.469 144.775 119.845 149.174C105.876 167.615 89.1034 183.884 70.3198 197.291ZM52.1182 118.332C53.8643 117.537 55.6633 116.901 57.5152 116.318C49.7901 135.343 44.6577 155.268 42.1708 175.776C38.7845 177.949 35.2923 180.068 31.8002 182.082C33.7579 161.256 38.5729 140.96 46.0863 121.565C47.9382 120.346 50.0018 119.286 52.1182 118.332ZM103.707 125.327C106.458 127.553 108.998 130.096 111.22 132.905C91.3257 160.037 65.6107 182.559 36.1389 198.616C33.3346 195.701 30.9007 192.415 28.8901 188.918C57.9385 173.285 83.5477 151.558 103.707 125.327ZM75.3464 149.863C71.4838 153.466 67.5684 156.964 63.4942 160.302C66.5631 144.563 71.2722 129.143 77.5687 114.411C80.5317 114.729 83.4418 115.312 86.1932 116.106C81.6958 127.023 78.0978 138.363 75.3464 149.863ZM117.623 184.944C116.194 178.373 114.501 171.854 112.49 165.442C115.506 161.998 118.469 158.447 121.274 154.844C121.856 157.864 122.12 160.938 122.12 164.118C122.173 171.536 120.533 178.584 117.623 184.944ZM100.056 122.572C94.3416 129.99 88.2039 137.038 81.6428 143.715C84.0768 134.813 87.0398 126.069 90.532 117.59C93.8654 118.915 97.0401 120.611 100.056 122.572ZM72.7008 114.093C65.9281 130.308 61.0073 147.213 58.0443 164.594C54.4992 167.35 50.8483 169.947 47.1445 172.49C49.8959 152.671 55.1871 133.382 62.9651 114.994C65.981 114.411 69.0499 114.146 72.2246 114.146C72.3833 114.093 72.5421 114.093 72.7008 114.093ZM39.3136 126.546C32.6997 145.305 28.5726 164.806 26.9323 184.732C26.8794 184.785 26.8265 184.785 26.7736 184.785C23.9164 178.479 22.2761 171.484 22.2761 164.118V164.065C22.329 149.121 28.8901 135.714 39.3136 126.546ZM56.6686 211.599C61.5365 208.737 66.2985 205.664 70.9018 202.431C71.5897 206.3 72.2246 210.168 72.7537 214.089C72.595 214.089 72.4362 214.089 72.2246 214.089C66.7747 214.089 61.5365 213.242 56.6686 211.599ZM91.9077 210.062C91.1669 202.908 90.0558 195.754 88.6801 188.759C89.6854 187.911 90.6907 187.063 91.6431 186.162C93.3363 184.679 94.9766 183.195 96.6168 181.658C98.4158 189.342 99.8444 197.132 100.85 205.028C98.0983 206.988 95.0824 208.684 91.9077 210.062Z" fill="white"></path><path d="M369.482 182.559C364.773 182.559 360.91 186.374 360.91 191.144C360.91 203.809 350.645 214.089 337.999 214.089C325.353 214.089 315.089 203.809 315.089 191.144V8.58477C315.089 3.86845 311.279 0 306.517 0C301.755 0 297.945 3.81545 297.945 8.58477V191.144V191.197C297.945 213.294 315.935 231.259 337.999 231.259C360.063 231.259 378.053 213.241 378.053 191.144C378 186.427 374.191 182.559 369.482 182.559Z" fill="white"></path><path d="M274.878 96.9761C270.168 96.9761 266.306 100.792 266.306 105.561V119.339C265.512 118.438 264.666 117.537 263.766 116.689C257.628 110.542 250.432 105.667 242.443 102.275C234.189 98.7778 225.405 96.9761 216.357 96.9761C207.31 96.9761 198.526 98.7778 190.272 102.275C182.282 105.667 175.139 110.489 168.949 116.689C162.811 122.836 157.943 130.043 154.557 138.045C151.065 146.312 149.266 155.109 149.266 164.17C149.266 173.232 151.065 182.029 154.557 190.296C157.943 198.298 162.758 205.452 168.949 211.652C175.086 217.799 182.282 222.674 190.272 226.066C198.526 229.563 207.31 231.365 216.357 231.365C225.405 231.365 234.189 229.563 242.443 226.066C250.432 222.674 257.576 217.852 263.766 211.652C264.613 210.804 265.459 209.903 266.306 209.002V222.78C266.306 227.496 270.116 231.365 274.878 231.365C279.587 231.365 283.449 227.549 283.449 222.78V105.508C283.449 100.792 279.64 96.9761 274.878 96.9761ZM216.41 214.142C188.896 214.142 166.462 191.726 166.462 164.117C166.462 136.508 188.843 114.093 216.41 114.093C243.977 114.093 266.359 136.508 266.359 164.117C266.359 191.726 243.924 214.142 216.41 214.142Z" fill="white"></path><path d="M162.703 248.799H176.989V251.343H165.507V258.179H175.508V260.564H165.507V267.771H177.148V270.314H162.756V248.799H162.703Z" fill="white"></path><path d="M199.846 259.133L192.174 248.799H195.507L201.592 257.172L207.677 248.799H211.01L203.338 259.133L211.539 270.314H208.206L201.592 261.094L194.978 270.314H191.645L199.846 259.133Z" fill="white"></path><path d="M236.674 248.799C238.05 248.799 239.267 249.117 240.378 249.7C241.436 250.283 242.335 251.131 242.917 252.191C243.552 253.251 243.817 254.47 243.817 255.794C243.817 257.172 243.5 258.391 242.917 259.504C242.335 260.564 241.489 261.412 240.378 262.047C239.267 262.683 238.103 262.948 236.727 262.948H230.695V270.314H227.891V248.799H236.674ZM238.843 259.822C239.531 259.398 240.06 258.868 240.431 258.179C240.801 257.49 241.013 256.695 241.013 255.847C241.013 255.052 240.801 254.258 240.431 253.569C240.06 252.88 239.531 252.297 238.843 251.926C238.155 251.502 237.415 251.343 236.568 251.343H230.695V260.458H236.621C237.468 260.458 238.208 260.246 238.843 259.822Z" fill="white"></path><path d="M264.398 269.255C262.652 268.248 261.223 266.87 260.218 265.174C259.213 263.478 258.684 261.571 258.684 259.557C258.684 257.49 259.213 255.635 260.218 253.887C261.223 252.138 262.652 250.813 264.398 249.806C266.144 248.799 268.049 248.323 270.165 248.323C272.229 248.323 274.187 248.799 275.933 249.806C277.679 250.813 279.107 252.138 280.113 253.887C281.118 255.635 281.647 257.49 281.647 259.557C281.647 261.571 281.118 263.478 280.113 265.174C279.107 266.87 277.679 268.248 275.933 269.255C274.187 270.261 272.229 270.738 270.165 270.738C268.049 270.738 266.144 270.261 264.398 269.255ZM274.504 267.029C275.827 266.287 276.885 265.227 277.679 263.955C278.473 262.63 278.843 261.2 278.843 259.557C278.843 257.914 278.473 256.483 277.679 255.159C276.885 253.834 275.827 252.827 274.504 252.032C273.181 251.29 271.7 250.919 270.112 250.919C268.525 250.919 267.097 251.29 265.774 252.032C264.451 252.774 263.393 253.834 262.599 255.159C261.805 256.483 261.435 257.914 261.435 259.557C261.435 261.2 261.805 262.63 262.599 263.955C263.393 265.28 264.398 266.287 265.774 267.029C267.097 267.771 268.578 268.142 270.112 268.142C271.753 268.142 273.181 267.771 274.504 267.029Z" fill="white"></path><path d="M307.894 248.799C309.269 248.799 310.486 249.064 311.598 249.647C312.656 250.23 313.502 251.025 314.137 252.032C314.719 253.039 315.037 254.205 315.037 255.582C315.037 256.589 314.825 257.543 314.455 258.391C314.084 259.239 313.502 259.981 312.815 260.564C312.127 261.147 311.28 261.57 310.328 261.835L315.513 270.367H312.285L307.523 262.259C307.365 262.259 307.153 262.259 306.836 262.259H301.597V270.314H298.793V248.799H307.894ZM310.116 259.292C310.804 258.921 311.333 258.444 311.703 257.808C312.074 257.172 312.285 256.43 312.285 255.582C312.285 254.787 312.074 254.046 311.703 253.41C311.333 252.774 310.804 252.244 310.116 251.873C309.428 251.502 308.687 251.343 307.841 251.343H301.597V259.875H307.841C308.687 259.875 309.428 259.663 310.116 259.292Z" fill="white"></path><path d="M336.994 251.343H330.168V248.853H346.571V251.343H339.745V270.314H336.941V251.343H336.994Z" fill="white"></path><path d="M364.88 269.837C363.61 269.202 362.658 268.354 362.023 267.347C361.388 266.34 361.07 265.227 361.07 264.114H363.875C363.875 264.909 364.086 265.598 364.562 266.234C365.039 266.87 365.674 267.4 366.52 267.824C367.367 268.195 368.372 268.407 369.483 268.407C371.335 268.407 372.711 268.089 373.716 267.4C374.721 266.711 375.198 265.704 375.198 264.432C375.198 263.266 374.721 262.365 373.769 261.783C372.817 261.2 371.441 260.776 369.642 260.511C368.16 260.246 366.838 259.928 365.727 259.504C364.615 259.08 363.61 258.444 362.869 257.649C362.076 256.801 361.705 255.741 361.705 254.364C361.705 253.251 361.97 252.244 362.499 251.343C363.028 250.442 363.875 249.753 365.039 249.223C366.203 248.693 367.684 248.428 369.483 248.428C371.123 248.428 372.552 248.693 373.716 249.223C374.88 249.753 375.78 250.442 376.362 251.396C376.944 252.297 377.261 253.357 377.261 254.576H374.457C374.457 253.834 374.245 253.198 373.875 252.668C373.504 252.138 372.922 251.661 372.182 251.396C371.441 251.078 370.541 250.919 369.483 250.919C367.684 250.919 366.414 251.237 365.674 251.926C364.933 252.615 364.562 253.41 364.562 254.47C364.562 255.529 365.039 256.377 366.044 256.96C367.049 257.543 368.531 257.967 370.594 258.232C372.817 258.603 374.616 259.239 376.044 260.14C377.473 261.094 378.161 262.524 378.161 264.485C378.161 265.81 377.843 266.976 377.155 267.93C376.468 268.884 375.515 269.625 374.192 270.155C372.87 270.685 371.388 270.897 369.642 270.897C367.684 270.791 366.15 270.473 364.88 269.837Z" fill="white"></path></g><defs><clipPath id="clip0_1321_920"><rect width="378" height="286" fill="white"></rect></clipPath></defs></svg>