<svg xmlns="http://www.w3.org/2000/svg" width="130" height="130" viewBox="0 0 130 130" fill="none"><path d="M98.8 0H31.2C13.9687 0 0 13.9687 0 31.2V98.8C0 116.031 13.9687 130 31.2 130H98.8C116.031 130 130 116.031 130 98.8V31.2C130 13.9687 116.031 0 98.8 0Z" fill="url(#paint0_linear_804_997)"></path><g clip-path="url(#clip0_804_997)"><path d="M39.7925 92.2268C40.4078 92.7505 41.0036 93.2257 41.5478 93.7536C41.6425 93.845 41.5984 94.2203 41.4876 94.3622C40.6067 95.489 39.6936 96.5911 38.7901 97.6996C38.6933 97.8179 38.5858 97.9265 38.4933 98.048C38.0986 98.5684 38.1341 99.206 38.575 99.5942C39.0407 100.004 39.7065 99.9662 40.1507 99.4393C41.1843 98.2147 42.2028 96.9782 43.1956 95.7202C43.4645 95.3793 43.6451 95.3084 44.0205 95.5675C47.4063 97.9061 51.0847 99.6372 55.0513 100.733C57.3852 101.378 59.7633 101.766 62.1832 101.981C64.4613 102.183 66.7264 102.124 68.9796 101.892C71.8642 101.594 74.6897 100.958 77.4248 99.9705C81.386 98.5405 85.03 96.5363 88.3018 93.8794C93.5107 89.6496 97.331 84.4004 99.7327 78.1352C100.573 75.9439 101.146 73.6785 101.559 71.3635C102.169 67.9412 102.336 64.5005 101.931 61.0598C100.83 51.697 96.8513 43.7781 89.8463 37.4171C85.5333 33.5012 80.5546 30.7863 74.9553 29.2101C72.1019 28.4069 69.1851 27.9059 66.2208 27.9112C63.9203 27.9156 61.5938 27.965 59.3255 28.3059C53.8628 29.1262 48.8099 31.1025 44.2453 34.2453C43.6602 34.6485 43.1235 34.7969 42.3975 34.6797C38.518 34.055 34.6428 34.1539 30.7859 34.9098C30.6257 34.9409 30.4611 34.956 30.1471 35.0001C30.3514 34.7399 30.4547 34.5894 30.5773 34.456C31.1484 33.841 31.7614 33.2593 32.2917 32.612C32.8456 31.9357 33.535 31.7003 34.3782 31.6411C37.7877 31.4003 41.1639 31.5852 44.5131 32.2787C44.8164 32.3411 45.1756 32.3389 45.4617 32.2368C45.9522 32.0615 46.1254 31.6261 46.0597 31.1218C45.9888 30.5778 45.6349 30.3004 45.1143 30.1928C42.433 29.6391 39.7259 29.3563 36.9864 29.3897C36.7391 29.3929 36.4906 29.3864 36.2432 29.38C36.2078 29.38 36.1733 29.3531 36.0475 29.3015C36.2067 29.1402 36.3282 28.9875 36.4777 28.8693C41.4833 24.9179 47.06 22.1019 53.2293 20.4719C56.9131 19.4999 60.6441 18.9483 64.4677 19.0042C66.949 19.0408 69.4292 19.0171 71.8847 19.4225C74.6305 19.8762 77.3355 20.5052 79.9685 21.4202C83.9727 22.8115 87.7264 24.6964 91.2036 27.121C96.6975 30.9519 101.171 35.7377 104.604 41.4932C106.856 45.2683 108.578 49.2724 109.603 53.542C110.143 55.7924 110.596 58.0912 110.784 60.3921C111.008 63.1221 111.076 65.8897 110.895 68.6207C110.733 71.055 110.225 73.4795 109.717 75.8762C108.859 79.9319 107.267 83.7241 105.258 87.3433C102.466 92.372 98.84 96.7083 94.4292 100.393C89.7301 104.319 84.4513 107.198 78.6015 108.987C76.6784 109.575 74.6832 109.93 72.7161 110.367C68.9678 111.199 65.1571 111.025 61.3723 110.881C59.2782 110.8 57.1895 110.33 55.118 109.932C51.5999 109.256 48.2625 108.018 45.038 106.471C41.2123 104.636 37.7307 102.284 34.5364 99.4952C34.1427 99.1512 34.1373 98.9318 34.4761 98.5329C36.1916 96.5115 37.8738 94.4622 39.5699 92.4236C39.6172 92.3666 39.6828 92.3236 39.7904 92.2311L39.7925 92.2268ZM35.571 41.3685C31.3054 41.6621 27.3549 42.9416 23.7239 45.1952C23.5367 45.3102 23.3238 45.4758 23.2464 45.6683C22.5483 47.3961 21.8772 49.1369 21.1996 50.8723C21.0942 51.1432 21.163 51.3067 21.4384 51.4669C22.1138 51.8604 22.2246 52.5539 21.7438 53.1646C21.4384 53.5549 21.1006 53.9216 20.7952 54.3108C20.3467 54.8806 19.9057 55.4397 19.8207 56.215C19.7261 57.0827 19.5744 57.9482 19.4077 58.8084C19.0001 60.8996 18.984 63.0103 19.0291 65.1273C19.0324 65.2359 19.0614 65.3435 19.0851 65.4897C19.141 65.4263 19.1797 65.4026 19.1862 65.3714C19.226 65.1661 19.2625 64.9596 19.2948 64.7532C20.3521 57.8826 24.0896 53.0689 30.4353 50.2712C30.8741 50.0777 31.115 49.8035 31.342 49.4046C32.4993 47.3692 33.677 45.3457 34.8848 43.3405C35.2742 42.6953 35.7797 42.119 36.34 41.3675C35.9754 41.3675 35.7722 41.3545 35.57 41.3685H35.571ZM31.1979 47.094C28.9597 47.8026 26.8978 48.853 24.9855 50.211C24.4596 50.5841 23.7874 50.4411 23.4647 49.9605C23.1463 49.4874 23.2571 48.7982 23.7562 48.4348C25.8061 46.9381 28.0422 45.7994 30.4772 45.0769C31.2624 44.8425 31.8916 45.3178 31.8873 46.0876C31.8927 46.5854 31.6657 46.9478 31.1979 47.0951V47.094ZM21.633 79.6394C21.7202 79.5383 21.8062 79.4373 21.8826 79.3276C23.3238 77.2514 24.1122 74.9558 24.1218 72.4237C24.1283 70.8034 24.0595 69.183 24.0272 67.5638C23.9455 63.4393 25.4233 59.9793 28.4423 57.1655C28.6746 56.9493 28.8284 56.6096 28.9295 56.2988C29.1522 55.6129 29.3167 54.9086 29.5082 54.2119C29.6104 53.8398 29.7222 53.471 29.8556 53.0087C29.634 53.0872 29.5211 53.1076 29.4286 53.1625C24.9436 55.829 22.2482 59.7212 21.4513 64.8887C21.3244 65.7123 21.3459 66.5595 21.2996 67.396C21.2727 67.8831 21.1254 68.3057 20.6274 68.4917C20.1542 68.668 19.7229 68.5712 19.3787 68.1928C19.3056 68.1132 19.2862 67.9842 19.2421 67.8777C19.1614 67.925 19.0797 67.9713 18.999 68.0186C19.1313 69.0712 19.2636 70.1238 19.397 71.1872C19.5529 71.1689 19.611 71.1732 19.6605 71.155C20.7726 70.7206 21.5136 71.213 21.3943 72.3914C21.2932 73.3892 21.1501 74.4042 20.849 75.3558C20.5908 76.1676 20.4295 76.9041 20.7532 77.7223C21.0092 78.3685 21.1888 79.0448 21.4168 79.7534C21.5674 79.6749 21.6094 79.6652 21.632 79.6394H21.633ZM27.9615 61.1082C27.8508 61.2738 27.7303 61.4329 27.6314 61.605C26.6462 63.3113 26.1589 65.1585 26.1632 67.1219C26.1675 68.8766 26.2622 70.6313 26.2611 72.3861C26.2579 75.7095 25.2168 78.7018 23.1087 81.2587C22.4698 82.0339 22.33 82.6382 22.8462 83.4661C23.1173 83.9015 23.2969 84.394 23.5411 84.9101C26.2181 82.1898 28.0228 79.1319 28.7058 75.4719C28.8306 74.8031 28.9306 74.1064 28.8822 73.4344C28.8274 72.6624 28.5628 71.9087 28.4445 71.1388C28.0272 68.4196 27.7497 65.6918 27.9895 62.935C28.0401 62.349 28.0766 61.763 28.1196 61.176C28.068 61.1534 28.0164 61.1308 27.9648 61.1082H27.9615ZM25.4792 41.7287C25.6685 41.6556 25.861 41.5911 26.0471 41.5083C29.3641 40.0396 32.8456 39.2117 36.4627 39.1955C37.8824 39.1891 38.9461 38.831 39.8259 37.758C40.127 37.3903 40.5153 37.0924 40.9541 36.6753C40.6487 36.6215 40.4873 36.5817 40.3239 36.5667C36.7434 36.2333 33.2081 36.4968 29.7147 37.3591C29.4039 37.4354 29.0167 37.4333 28.7284 37.315C28.3875 37.1752 28.2519 37.2784 28.0799 37.5268C27.6238 38.1838 27.1334 38.8181 26.6902 39.4837C26.2278 40.1772 25.8051 40.8965 25.3641 41.604C25.4017 41.6449 25.4405 41.6868 25.4781 41.7276L25.4792 41.7287ZM32.8004 84.3907C31.8184 85.7487 30.8634 87.1271 29.8459 88.4572C29.1629 89.3496 28.3832 90.1678 27.6658 91.0355C27.5507 91.1742 27.4259 91.4678 27.4915 91.5656C28.0067 92.3333 28.5671 93.0709 29.1662 93.888C29.6577 93.3225 30.0857 92.8644 30.4751 92.3763C31.8636 90.6334 33.2457 88.883 34.6116 87.1228C34.7332 86.9669 34.8397 86.6433 34.7611 86.5132C34.2513 85.6702 33.6877 84.8606 33.107 83.9875C32.9768 84.1585 32.8865 84.2735 32.8015 84.3918L32.8004 84.3907ZM26.4353 89.1077C27.327 88.0658 28.2799 87.0669 29.0833 85.9616C29.9868 84.7187 30.7569 83.379 31.5818 82.079C31.7797 81.7672 31.7776 81.4716 31.6044 81.1167C31.2108 80.3146 30.8795 79.4835 30.517 78.6663C30.4633 78.5448 30.3815 78.4352 30.2718 78.2513C30.1664 78.4825 30.0933 78.6147 30.0438 78.7556C29.1866 81.1737 27.882 83.3252 26.1847 85.2434C25.7556 85.7283 25.3275 86.2154 24.9264 86.7239C24.8134 86.8669 24.694 87.1433 24.7575 87.2626C25.1447 87.997 25.5846 88.7034 26.0363 89.47C26.2202 89.3044 26.3407 89.2173 26.4353 89.1077ZM35.1354 90.1969C33.7587 91.8537 32.367 93.4967 30.9634 95.1299C30.701 95.4363 30.6579 95.6567 30.9602 95.9492C31.357 96.3331 31.7367 96.7363 32.1045 97.1491C32.3745 97.4513 32.5703 97.4351 32.8338 97.1244C33.8319 95.946 34.8676 94.7998 35.8571 93.6149C36.5648 92.7677 37.236 91.8871 37.8888 90.9957C37.9996 90.8452 38.0373 90.4861 37.9372 90.3624C37.45 89.7592 36.9047 89.2023 36.3196 88.5625C35.8937 89.1539 35.5463 89.7012 35.1354 90.1958V90.1969ZM84.9353 82.2769V56.2558C84.9353 55.157 84.0448 54.2667 82.9456 54.2667H77.7711V82.2769H76.345V47.3703C76.345 46.4908 75.6329 45.779 74.7531 45.779H55.2503C54.3705 45.779 53.6574 46.4908 53.6574 47.3703V82.278H52.2312V54.2678H47.0568C45.9576 54.2678 45.067 55.158 45.067 56.2569V82.278H42.4653V84.2198H87.5392V82.278H84.9375L84.9353 82.2769ZM58.0349 55.1978C58.0349 54.8538 58.3145 54.5731 58.6598 54.5731H62.8038V50.4314C62.8038 50.0863 63.0835 49.8057 63.4287 49.8057H66.5725C66.9178 49.8057 67.1974 50.0863 67.1974 50.4314V54.5731H71.3415C71.6868 54.5731 71.9664 54.8538 71.9664 55.1978V58.3417C71.9664 58.6869 71.6868 58.9664 71.3415 58.9664H67.1974V63.1092C67.1974 63.4543 66.9178 63.7339 66.5725 63.7339H63.4287C63.0835 63.7339 62.8038 63.4543 62.8038 63.1092V58.9664H58.6598C58.3145 58.9664 58.0349 58.6869 58.0349 58.3417V55.1978ZM61.2099 72.5602H68.7925V82.2769H61.2099V72.5602Z" fill="#EDEEF3"></path></g><defs><linearGradient id="paint0_linear_804_997" x1="9.14" y1="120.86" x2="120.86" y2="9.14" gradientUnits="userSpaceOnUse"><stop stop-color="#2AA8E0"></stop><stop offset="1" stop-color="#2E3695"></stop></linearGradient><clipPath id="clip0_804_997"><rect width="92" height="92" fill="white" transform="translate(19 19)"></rect></clipPath></defs></svg>