<svg xmlns="http://www.w3.org/2000/svg" width="696" height="117" viewBox="0 0 696 117" fill="none"><g clip-path="url(#clip0_1323_1339)"><path d="M25.6777 0C36.8272 0 45.6117 0.676301 52.3689 2.7052C59.1262 4.7341 64.8699 7.43931 69.2621 12.1734C73.6544 16.9075 75.6816 22.3179 75.6816 29.0809C75.6816 36.5202 72.9786 43.2832 67.235 48.3555C61.4913 53.7659 53.3825 57.8237 42.5709 59.5145C47.301 61.8815 55.0718 64.9249 65.8835 79.4653C65.8835 79.4653 74.668 91.3006 85.1418 117.338H71.965C70.6136 111.928 53.3825 61.5434 21.6233 61.5434H16.5553V86.2283V117.338H0V86.2283V29.4191V0H25.6777ZM30.0699 57.4856C34.4621 57.4856 38.5165 55.7948 41.8951 54.7804C45.2738 53.7659 47.9767 51.3988 50.0039 49.7081C52.0311 47.6792 53.7204 45.3121 54.734 41.9306C56.0854 38.5491 56.4233 34.8295 56.4233 30.4335C56.4233 22.3179 54.3961 16.2312 50.3417 11.159C46.2874 6.42486 37.1651 4.7341 23.6505 4.7341H16.5553V57.4856H30.0699Z" fill="white"></path><path d="M148.66 112.942H184.473V117H116.562V86.9046V78.789V71.6879V29.0809V0H184.811V4.0578H148.997H133.456V29.4191V32.8006V53.7659H145.281H167.242V57.4856H145.619H133.118V71.6879V74.3931V78.789V86.9046V112.942H148.66Z" fill="white"></path><path d="M417.601 113.28V117.338H336.176V87.2428V29.7572V0H353.069V113.28H417.601Z" fill="white"></path><path d="M507.136 4.0578H477.404H458.145V86.2283V117H441.252V86.2283V4.0578H424.021H392.938V0H506.798V4.0578H507.136Z" fill="white"></path><path d="M557.477 74.0549H514.231L497.675 117H491.594L540.246 0H543.625L593.291 117H575.046C568.965 101.783 566.262 95.3584 566.262 95.3584L557.477 74.0549ZM556.126 70.3353L535.516 21.3035L515.582 70.3353H556.126Z" fill="white"></path><path d="M645.998 0C658.161 0 667.284 1.3526 673.703 3.3815C680.122 5.07225 685.528 8.79191 689.583 13.526C693.637 18.2601 695.664 24.3468 695.664 31.448C695.664 37.8728 694.313 43.2832 691.272 48.0173C688.231 52.7514 684.177 56.4711 679.109 58.8382C673.703 61.5434 664.581 61.8815 651.066 61.8815H638.565V87.9191C638.565 92.9913 638.565 95.6965 638.565 99.4162V117H621.672V87.9191V30.7717V0H645.998ZM677.757 32.8006C677.757 23.3324 675.392 15.8931 670.662 11.4971C665.932 7.10116 658.161 4.7341 647.687 4.7341C643.633 4.7341 640.93 4.7341 638.903 5.07225V57.8237H647.012C653.769 57.8237 659.175 57.8237 663.229 56.4711C667.621 55.1185 671 52.7514 673.703 48.3555C676.406 44.2977 677.757 38.8873 677.757 32.8006Z" fill="white"></path><path d="M264.887 117L251.034 83.8613L237.857 115.986L237.52 117H264.887Z" fill="white"></path><path d="M258.803 0H255.424L207.109 117H213.191L229.408 74.7312L250.694 21.3035L271.304 70.3353L272.993 74.7312L281.439 95.6965C281.439 95.6965 284.142 102.121 290.224 117.338H308.469L258.803 0Z" fill="white"></path><path d="M268.602 74.3931L251.033 29.4191L232.789 74.7313H229.41L251.033 19.9509L272.995 74.3931H268.602Z" fill="url(#paint0_linear_1323_1339)"></path></g><defs><linearGradient id="paint0_linear_1323_1339" x1="244.128" y1="26.4028" x2="255.225" y2="101.498" gradientUnits="userSpaceOnUse"><stop stop-color="#DEB65C"></stop><stop offset="0.3156" stop-color="#EFB137"></stop><stop offset="1" stop-color="#6F4D1F"></stop></linearGradient><clipPath id="clip0_1323_1339"><rect width="696" height="117" fill="white"></rect></clipPath></defs></svg>