<svg xmlns="http://www.w3.org/2000/svg" width="624" height="278" viewBox="0 0 624 278" fill="none"><path d="M199.519 56.025H143.494V0H87.6619V56.025H87.4688V111.857H87.6619V112.05H143.494V111.857H199.519V56.025Z" fill="#01FFFF"></path><path d="M71.6254 41.3423C32.6011 41.3423 0.917969 73.0254 0.917969 112.05C0.917969 151.074 32.6011 182.757 71.6254 182.757V41.3423Z" fill="#01FFFF"></path><path d="M87.4688 133.687C126.493 133.687 158.176 165.37 158.176 204.395C158.176 243.419 126.493 275.102 87.4688 275.102V133.687Z" fill="#01FFFF"></path><path d="M40.9125 275.489C57.8771 275.489 71.6296 261.736 71.6296 244.771C71.6296 227.807 57.8771 214.054 40.9125 214.054C23.9479 214.054 10.1953 227.807 10.1953 244.771C10.1953 261.736 23.9479 275.489 40.9125 275.489Z" fill="#01FFFF"></path><path d="M322.194 107.8V113.789C322.194 121.13 319.875 126.925 315.625 131.369C311.182 135.812 305.386 137.937 298.045 137.937C280.465 137.937 261.532 136.971 241.44 135.039L239.702 134.846V111.857L241.634 112.05C261.532 113.595 277.567 114.368 289.158 114.368C290.124 114.368 290.897 113.982 291.477 113.402C292.056 112.823 292.443 112.05 292.443 111.084V107.8H262.305C255.157 107.8 249.168 105.481 244.725 101.231C240.281 96.7879 238.156 90.9922 238.156 83.651V78.4348C238.156 71.0936 240.475 65.2979 244.725 60.8546C249.168 56.4112 254.964 54.2861 262.305 54.2861H314.853V77.4689H271.385C270.419 77.4689 269.646 77.8553 269.067 78.4348C268.487 79.0144 268.101 79.7872 268.101 80.7531C268.101 81.7191 268.487 82.4918 269.067 83.0714C269.646 83.651 270.419 84.0373 271.385 84.0373H298.238C305.386 84.0373 311.375 86.3556 315.819 90.6058C319.875 94.856 322.194 100.652 322.194 107.8Z" fill="white"></path><path d="M455.103 53.8994L429.408 136.585H399.271L385.748 93.3101L372.224 136.585H341.893L316.199 53.8994H348.462L360.44 96.4012L372.417 53.8994H399.078L411.055 96.4012L423.033 53.8994H455.103Z" fill="white"></path><path d="M526.006 59.1158C521.562 54.6724 515.767 52.5474 508.425 52.5474C493.936 52.5474 477.322 53.5133 459.162 55.4452L457.423 55.6384V77.8552L459.355 77.662C464.185 77.2757 470.56 76.8893 478.288 76.3097C486.015 75.7301 493.163 75.3438 499.539 75.3438C500.505 75.3438 501.277 75.5369 501.857 76.3097C502.436 76.8893 502.823 77.662 502.823 78.628V82.685H474.231C467.083 82.685 461.094 85.0032 456.65 89.2534C452.207 93.6968 450.082 99.4925 450.082 106.834V113.595C450.082 120.937 452.4 126.732 456.65 131.176C461.094 135.619 466.89 137.744 474.231 137.744H479.447C482.924 137.744 487.368 136.971 492.391 135.426C496.641 134.267 500.891 132.335 504.948 129.823L506.107 136.005H532.574V76.1165C532.574 69.3549 530.449 63.5592 526.006 59.1158ZM502.823 105.288V110.891C496.834 112.629 491.618 113.402 486.788 113.402H483.117C482.152 113.402 481.379 113.016 480.799 112.436C480.22 111.857 479.833 111.084 479.833 110.118V108.572C479.833 107.606 480.22 106.834 480.799 106.254C481.379 105.675 482.152 105.288 483.117 105.288H502.823Z" fill="white"></path><path d="M566.386 53.8994C558.465 53.8994 552.09 56.2177 547.646 60.8542C543.01 65.4908 540.691 71.6729 540.691 79.5937V109.345C540.691 116.493 543.01 122.482 547.453 126.925C551.896 131.368 557.692 133.494 565.033 133.494H570.249C577.011 133.494 584.932 132.528 593.625 130.982V136.198C593.625 137.164 593.432 137.937 592.659 138.517C592.08 139.096 591.307 139.482 590.341 139.482C580.682 139.482 566.192 138.71 547.26 137.357L545.135 137.164V160.154L546.874 160.347C565.999 162.279 583.58 163.245 599.035 163.245C606.183 163.245 612.172 160.927 616.615 156.676C621.058 152.233 623.183 146.437 623.183 139.096V53.8994H566.386ZM573.92 109.731C572.954 109.731 572.181 109.345 571.602 108.765C571.022 108.186 570.636 107.413 570.636 106.447V81.9119C570.636 79.0141 571.795 77.8549 574.693 77.8549H593.625V108.572C588.602 109.345 583.193 109.731 577.591 109.731H573.92Z" fill="white"></path><path d="M286.452 253.465V276.261L284.906 276.454C278.145 277.42 271.769 278 265.587 278C259.019 278 253.609 275.682 249.166 271.431C244.723 266.988 242.598 261.192 242.598 253.851V168.655H272.349V250.181C272.349 251.147 272.735 251.919 273.315 252.499C273.894 253.078 274.667 253.465 275.633 253.465H286.452Z" fill="white"></path><path d="M365.275 198.985C360.832 194.542 355.036 192.417 347.695 192.417C333.012 192.417 316.591 193.382 298.431 195.314L296.693 195.508V217.724L298.625 217.531C303.454 217.145 309.83 216.758 317.557 216.179C325.285 215.599 332.433 215.213 338.808 215.213C339.774 215.213 340.547 215.599 341.126 216.179C341.706 216.758 342.092 217.531 342.092 218.497V222.554H313.5C306.352 222.554 300.363 224.872 295.92 229.123C291.477 233.566 289.352 239.362 289.352 246.703V253.464C289.352 260.612 291.67 266.601 295.92 271.045C300.363 275.488 306.159 277.613 313.5 277.613H318.716C322.194 277.613 326.637 276.84 331.66 275.488C335.91 274.136 340.16 272.397 344.217 269.886L345.57 276.068H372.037V216.179C372.037 209.417 369.718 203.428 365.275 198.985ZM342.092 245.157V250.76C336.103 252.499 330.887 253.271 326.058 253.271H322.387C321.421 253.271 320.648 252.885 320.069 252.305C319.489 251.726 319.103 250.953 319.103 249.987V248.442C319.103 247.476 319.489 246.703 320.069 246.123C320.648 245.544 321.421 245.157 322.387 245.157H342.092Z" fill="white"></path><path d="M457.621 198.985C453.177 194.542 447.382 192.417 440.04 192.417H434.824C428.063 192.417 420.142 193.19 411.448 194.928V168.655H381.504V276.454H438.495C446.416 276.454 452.791 274.136 457.234 269.5C461.871 264.863 464.189 258.681 464.189 250.76V216.566C464.189 209.418 461.871 203.429 457.621 198.985ZM411.448 217.532C412.994 217.338 414.733 217.145 416.858 216.759C419.755 216.372 423.426 216.179 427.29 216.179H430.96C431.926 216.179 432.699 216.372 433.279 217.145C433.858 217.725 434.245 218.497 434.245 219.463V248.442C434.245 251.34 433.086 252.499 430.188 252.499H411.255V217.532H411.448Z" fill="white"></path><path d="M553.446 247.862V253.851C553.446 260.999 551.127 266.988 546.877 271.431C542.434 275.874 536.638 278 529.297 278C511.717 278 492.784 277.034 472.499 275.102L470.76 274.909V251.919L472.885 252.112C492.784 253.658 508.819 254.43 520.41 254.43C521.376 254.43 522.149 254.044 522.728 253.464C523.308 252.885 523.694 252.112 523.694 251.146V247.862H493.557C486.216 247.862 480.42 245.544 475.976 241.293C471.533 236.85 469.215 231.054 469.215 223.713V218.497C469.215 211.349 471.533 205.36 475.976 200.917C480.42 196.473 486.216 194.348 493.557 194.348H546.104V217.531H502.637C501.671 217.531 500.898 217.918 500.318 218.497C499.739 219.077 499.352 219.849 499.352 220.815C499.352 221.781 499.739 222.554 500.318 223.134C500.898 223.713 501.671 224.1 502.637 224.1H529.49C536.638 224.1 542.627 226.418 547.07 230.668C551.127 234.725 553.446 240.521 553.446 247.862Z" fill="white"></path></svg>