<svg xmlns="http://www.w3.org/2000/svg" width="130" height="130" viewBox="0 0 130 130" fill="none"><path d="M98.8 0H31.2C13.9687 0 0 13.9687 0 31.2V98.8C0 116.031 13.9687 130 31.2 130H98.8C116.031 130 130 116.031 130 98.8V31.2C130 13.9687 116.031 0 98.8 0Z" fill="url(#paint0_linear_804_985)"></path><path d="M29.9603 34.4502C30.8503 33.5302 31.7303 32.6102 32.6403 31.7102C32.7703 31.5802 32.9803 31.5102 33.1703 31.4902C33.8103 31.4202 34.4603 31.3602 35.1103 31.3302C38.1903 31.1902 41.2403 31.3902 44.2603 32.0302C44.4003 32.0602 44.5403 32.0902 44.6903 32.0902C45.3103 32.1202 45.8203 31.7102 45.9203 31.1102C46.0103 30.5602 45.6503 29.9702 45.0803 29.8302C44.5003 29.6902 43.9203 29.5902 43.3303 29.4902C41.0103 29.1002 38.6803 28.9302 36.3303 28.9602C36.2103 28.9602 36.0803 28.9602 35.9303 28.9602C36.6503 27.9502 42.0203 24.2702 46.8203 22.2702C50.8003 20.6102 54.9203 19.4502 59.2003 18.9402C63.4903 18.4302 67.7803 18.4302 72.0403 19.1002C92.9203 22.3702 107.62 38.5602 110.77 56.9402C114.54 78.9502 102.7 98.4002 85.2603 106.81C67.0503 115.59 46.6103 111.24 33.8503 99.4002C35.7203 97.1802 37.6003 94.9502 39.5203 92.6702C40.1103 93.1702 40.7403 93.7202 41.4003 94.2902C41.3103 94.4402 41.2303 94.5802 41.1403 94.7002C40.2103 95.8502 39.2703 96.9902 38.3403 98.1402C38.2403 98.2702 38.1203 98.3802 38.0303 98.5202C37.7003 99.0202 37.7803 99.6602 38.2203 100.04C38.6603 100.43 39.3003 100.43 39.7503 100.04C39.8603 99.9502 39.9503 99.8402 40.0503 99.7302C41.0803 98.4702 42.1003 97.2202 43.1303 95.9602C43.1703 95.9102 43.2203 95.8502 43.3003 95.7602C43.4403 95.8402 43.5803 95.9102 43.7103 96.0002C46.5503 97.9502 49.6003 99.4902 52.8603 100.61C55.1003 101.38 57.3903 101.93 59.7403 102.24C61.7303 102.51 63.7203 102.67 65.7303 102.62C68.1003 102.56 70.4403 102.31 72.7603 101.81C81.6703 99.8902 88.9503 95.3202 94.6203 88.2102C97.5103 84.6002 99.6103 80.5502 100.97 76.1302C102.27 71.9202 102.87 67.6102 102.61 63.2202C101.95 52.2502 97.4003 43.1902 89.0203 36.0702C85.6903 33.2402 81.9303 31.1302 77.8203 29.6402C75.3803 28.7502 72.8603 28.1402 70.2803 27.7702C67.1203 27.3302 63.9503 27.2702 60.7803 27.6302C56.8503 28.0802 53.0703 29.1202 49.4703 30.7702C47.3703 31.7302 45.3603 32.8702 43.4703 34.2002C43.2203 34.3802 42.9903 34.4402 42.6703 34.3902C38.5903 33.6902 34.5203 33.7402 30.4603 34.5502C30.3203 34.5802 30.1803 34.5802 30.0403 34.5902L29.9803 34.4702L29.9603 34.4502ZM89.1703 51.5902C88.2303 45.2502 82.7703 40.5602 76.3603 40.6402C72.8703 40.6802 69.8503 41.9502 67.3703 44.4202C59.7103 52.0702 52.0303 59.6902 44.4103 67.3802C40.8003 71.0302 39.7503 75.4402 41.2103 80.3402C42.8003 85.6802 48.0703 89.8302 54.6103 89.2702C57.7103 89.0002 60.3603 87.7302 62.5703 85.5202C70.2503 77.8402 77.9403 70.1702 85.6103 62.4802C88.0803 60.0002 89.2703 56.9602 89.3303 53.2202C89.2903 52.8302 89.2603 52.2002 89.1703 51.5702V51.5902ZM59.8703 56.7502C63.1403 53.4802 66.4003 50.2202 69.6703 46.9502C71.1803 45.4302 72.9703 44.4402 75.1003 44.1702C78.9203 43.6902 82.0003 45.0202 84.2203 48.1502C86.8403 51.8402 86.3803 56.8402 83.2003 60.0702C79.8703 63.4502 76.4903 66.7802 73.1403 70.1402C73.0503 70.2302 72.9503 70.3102 72.9003 70.3602C68.4603 65.9202 64.0403 61.5002 59.5903 57.0602C59.6503 57.0002 59.7503 56.8802 59.8703 56.7602V56.7502ZM21.1103 53.2902C20.6703 53.8102 20.2403 54.3502 19.8303 54.9002C19.6703 55.1102 19.5403 55.3602 19.4803 55.6202C19.3603 56.1102 19.2703 56.6102 19.2103 57.1102C19.0203 58.5202 18.8003 59.9302 18.6703 61.3402C18.5703 62.4602 18.5703 63.5902 18.5303 64.7102C18.6403 64.6502 18.6603 64.5802 18.6703 64.5202C18.7003 64.3802 18.7303 64.2402 18.7603 64.1002C20.0503 57.4402 23.8103 52.7602 30.0303 50.0602C30.4103 49.8902 30.6403 49.6802 30.8103 49.3202C32.0703 46.5502 33.6603 43.9902 35.5503 41.6102C35.6403 41.5002 35.7103 41.3802 35.8203 41.2102C35.6503 41.2102 35.5503 41.2102 35.4403 41.2102C31.0903 41.4802 27.0603 42.7402 23.3403 45.0102C23.0503 45.1902 22.8403 45.4102 22.7103 45.7202C22.2103 46.9502 21.6903 48.1802 21.2103 49.4202C20.9903 49.9702 20.8303 50.5402 20.6503 51.1102C21.7403 51.7402 21.8503 52.4302 21.1103 53.3102V53.2902ZM30.7803 47.0002C30.3303 47.1702 29.8603 47.3102 29.4103 47.4802C27.7903 48.1002 26.2703 48.9202 24.8503 49.9202C24.7003 50.0202 24.5603 50.1402 24.4003 50.2202C23.8703 50.5002 23.2503 50.3402 22.9103 49.8602C22.5803 49.3902 22.6303 48.7902 23.0403 48.3802C23.1403 48.2802 23.2603 48.1902 23.3803 48.1102C25.3703 46.6802 27.5403 45.6002 29.8703 44.8502C30.0103 44.8102 30.1503 44.7602 30.2903 44.7502C30.9803 44.6702 31.5703 45.2002 31.5803 45.8902C31.5803 46.4002 31.3003 46.8102 30.7903 47.0002H30.7803ZM19.2803 71.0802C20.1503 70.7502 20.9203 71.2302 20.9503 72.1602C20.9903 73.5302 20.7403 74.8502 20.1903 76.1102C20.0403 76.4502 20.0203 76.7602 20.1203 77.1002C20.3503 77.8602 20.5703 78.6202 20.8003 79.3802C20.8403 79.5202 20.9303 79.6502 21.0303 79.8402C21.2003 79.6002 21.3403 79.4302 21.4503 79.2502C22.8303 77.1602 23.5603 74.8802 23.5503 72.3702C23.5403 70.6602 23.4403 68.9402 23.4503 67.2302C23.4603 63.2302 24.9503 59.8602 27.8903 57.1402C28.1603 56.8902 28.3103 56.6202 28.4003 56.2802C28.6603 55.3102 28.9403 54.3402 29.2103 53.3602C29.2403 53.2702 29.2303 53.1702 29.2503 53.0202C29.0703 53.1102 28.9303 53.1602 28.8103 53.2402C24.8603 55.6302 22.3303 59.0602 21.2503 63.5502C20.9403 64.8402 20.8203 66.1402 20.8403 67.4702C20.8403 67.9702 20.6503 68.3502 20.2103 68.5802C19.7703 68.8102 19.3403 68.7502 18.9403 68.4502C18.8703 68.4002 18.7703 68.3702 18.6303 68.2902C18.7403 69.2902 18.8403 70.2202 18.9403 71.2302C19.1203 71.1502 19.2003 71.1102 19.2803 71.0802ZM27.3603 61.4302C27.2803 61.5502 27.2003 61.6702 27.1403 61.8002C26.2203 63.5002 25.7503 65.3102 25.7903 67.2502C25.8203 68.8202 25.8603 70.3802 25.9003 71.9502C25.9403 73.6002 25.7103 75.2202 25.2103 76.8002C24.5903 78.7502 23.6103 80.5002 22.2503 82.0302C21.9803 82.3402 21.9403 82.5902 22.1103 82.9402C22.2803 83.2802 22.4103 83.6302 22.5703 83.9802C22.7203 84.3202 22.8903 84.6502 23.0903 85.0702C23.5503 84.5402 23.9403 84.0802 24.3403 83.6102C26.4203 81.1602 27.7303 78.3502 28.2703 75.1902C28.3603 74.6602 28.4303 74.1102 28.3603 73.5802C28.2003 72.3702 27.9103 71.1702 27.7303 69.9602C27.3303 67.2902 27.2503 64.6202 27.5103 61.9302C27.5303 61.7502 27.5303 61.5702 27.5503 61.3402C27.4303 61.3902 27.3903 61.4002 27.3703 61.4202L27.3603 61.4302ZM25.1303 41.3702C25.2403 41.3302 25.3603 41.3002 25.4703 41.2502C29.3203 39.5402 33.3603 38.7502 37.5703 38.8302C37.8403 38.8302 38.0503 38.7702 38.2403 38.5702C38.8703 37.9502 39.5303 37.3602 40.1703 36.7502C40.2503 36.6702 40.3203 36.5702 40.4403 36.4202C40.0503 36.3702 39.7303 36.3202 39.4103 36.3002C36.0703 36.0502 32.7803 36.3002 29.5303 37.1202C28.9903 37.2602 28.4703 37.3402 27.9603 36.9602C26.8803 38.3602 25.9203 39.7902 25.0503 41.2702C25.0703 41.3002 25.1003 41.3302 25.1203 41.3602L25.1303 41.3702ZM29.0403 93.7602C30.0503 92.5902 31.0903 91.4402 32.0703 90.2402C32.8203 89.3202 33.4703 88.3202 34.1803 87.3702C34.3903 87.0802 34.4103 86.8602 34.1803 86.5602C33.7503 85.9802 33.3803 85.3602 32.9803 84.7602C32.8903 84.6302 32.8003 84.5002 32.6603 84.3002C31.1603 87.1102 28.9603 89.3002 26.9703 91.7202C27.5603 92.5102 28.1303 93.2602 28.7503 94.0802C28.8903 93.9202 28.9703 93.8402 29.0403 93.7602ZM25.8303 89.4402C26.7103 88.4102 27.6003 87.4002 28.4603 86.3502C29.5103 85.0802 30.3803 83.6902 31.1203 82.2302C31.2703 81.9202 31.2903 81.6802 31.1203 81.3802C30.8603 80.9102 30.6603 80.4002 30.4403 79.9102C30.2503 79.4902 30.0803 79.0602 29.8903 78.6202C29.8203 78.6902 29.7903 78.7102 29.7803 78.7402C29.7203 78.8902 29.6603 79.0402 29.6003 79.1902C28.9203 81.0302 27.9903 82.7302 26.7903 84.2802C26.2403 84.9902 25.6403 85.6602 25.0603 86.3502C24.8003 86.6702 24.5303 86.9802 24.2403 87.3302C24.6903 88.1002 25.1403 88.8602 25.6103 89.6702C25.7403 89.5502 25.8003 89.5102 25.8403 89.4502L25.8303 89.4402ZM37.7303 90.9302C37.1203 90.2602 36.5503 89.6202 35.9403 88.9302C34.3003 91.4902 32.1903 93.5802 30.2903 95.9002C30.8903 96.5302 31.4503 97.1302 32.0803 97.7902C34.0103 95.4702 36.0703 93.3802 37.7303 90.9302ZM73.6903 46.5302C72.5203 46.9102 71.5003 47.5302 70.6403 48.4102C69.9903 49.0702 69.9803 50.1002 70.5903 50.7602C71.2103 51.4302 72.2203 51.5002 72.9403 50.9302C73.0503 50.8402 73.1503 50.7402 73.2603 50.6402C75.1303 49.0102 77.9303 49.2702 79.4603 51.2102C79.5803 51.3702 79.6903 51.5302 79.8303 51.6702C80.3103 52.1302 80.8703 52.3002 81.5203 52.1002C82.1603 51.9102 82.5603 51.4702 82.7103 50.8202C82.8303 50.3002 82.6903 49.8202 82.3803 49.3902C80.8203 47.2702 78.7003 46.2202 76.0903 46.1302C75.2703 46.1302 74.4703 46.2702 73.6903 46.5202V46.5302Z" fill="white"></path><defs><linearGradient id="paint0_linear_804_985" x1="9.14" y1="120.86" x2="120.86" y2="9.14" gradientUnits="userSpaceOnUse"><stop stop-color="#965384"></stop><stop offset="0.03" stop-color="#995484"></stop><stop offset="0.47" stop-color="#C76685"></stop><stop offset="0.81" stop-color="#E47186"></stop><stop offset="1" stop-color="#EF7687"></stop></linearGradient></defs></svg>