<svg xmlns="http://www.w3.org/2000/svg" width="169" height="171" viewBox="0 0 169 171" fill="none"><path d="M8.32443 128.896L26.9634 118.011C37.7785 111.69 45.9693 101.651 50.0268 89.7371L58.2894 65.4826C61.4091 56.3309 67.694 48.6157 75.9944 43.7503L97.2464 31.2916L168.305 72.2606L145.884 85.287C137.587 90.1067 131.344 97.8029 128.311 106.958L120.484 130.58C116.381 142.97 107.929 153.368 96.6829 159.864L78.7775 170.17L8.32443 128.896ZM41.8928 106.368C41.8285 106.368 41.7604 106.398 41.7188 106.452C37.6953 111.397 32.8701 115.531 27.3832 118.739L10.3211 128.698C10.2492 128.74 10.2076 128.816 10.2076 128.896C10.2076 128.976 10.2492 129.053 10.3211 129.094L78.6679 169.141C78.7019 169.16 78.7435 169.172 78.7813 169.172C78.8191 169.172 78.8607 169.16 78.8948 169.141L96.2708 159.144C101.72 155.997 106.507 151.928 110.497 147.051C110.538 146.998 110.557 146.933 110.546 146.864C110.535 146.8 110.493 146.742 110.436 146.708L42.0062 106.398C41.9722 106.375 41.9306 106.368 41.8928 106.368ZM58.9247 66.6865C58.8982 66.6865 58.8717 66.6904 58.8453 66.7018C58.781 66.7246 58.7318 66.778 58.7091 66.8428L50.8171 90.0114C48.9188 95.5854 46.1281 100.775 42.5243 105.43C42.4827 105.484 42.4676 105.549 42.4789 105.613C42.4903 105.678 42.5319 105.735 42.5886 105.766L111.022 146.079C111.056 146.102 111.098 146.11 111.136 146.11C111.204 146.11 111.272 146.079 111.314 146.022C114.985 141.302 117.803 136.017 119.693 130.317L127.362 107.175C127.396 107.073 127.355 106.958 127.26 106.905L59.0381 66.7132C59.0041 66.6942 58.9625 66.6827 58.9247 66.6827V66.6865ZM97.2502 32.2974C97.2123 32.2974 97.1708 32.3089 97.1367 32.3279L76.4141 44.478C68.3482 49.2062 62.2108 56.7081 59.1402 65.5931C59.1062 65.6959 59.1478 65.8102 59.2385 65.8674L127.464 106.059C127.498 106.078 127.54 106.09 127.578 106.09C127.604 106.09 127.631 106.086 127.657 106.074C127.721 106.052 127.771 106.002 127.793 105.937C130.977 96.9266 137.255 89.3332 145.468 84.5631L166.293 72.4663C166.365 72.4244 166.406 72.3482 166.406 72.2682C166.406 72.1882 166.361 72.112 166.293 72.0701L97.3636 32.3279C97.3296 32.3089 97.2918 32.2974 97.2502 32.2974ZM75.4914 155.098C73.2792 155.098 71.1503 154.519 69.6528 153.513C68.3066 152.606 67.6032 151.459 67.6788 150.282C67.7545 149.105 68.5977 148.057 70.0498 147.333C71.241 146.742 72.7914 146.415 74.4175 146.415C76.6296 146.415 78.7586 146.99 80.2523 147.996C81.5985 148.903 82.3019 150.049 82.2263 151.227C82.1506 152.404 81.3111 153.452 79.859 154.176C78.6717 154.77 77.1212 155.094 75.4914 155.094V155.098ZM74.4288 146.83C72.8519 146.83 71.4036 147.135 70.2389 147.718C68.9267 148.369 68.1704 149.291 68.1024 150.312C68.0381 151.333 68.6696 152.343 69.8872 153.162C71.328 154.13 73.3662 154.686 75.4801 154.686C77.057 154.686 78.5053 154.381 79.67 153.799C80.9822 153.147 81.7385 152.225 81.8027 151.204C81.867 150.183 81.2355 149.173 80.0179 148.354C78.5771 147.386 76.5389 146.83 74.4288 146.83ZM76.1267 151.935C76.0246 151.935 75.9225 151.928 75.8204 151.909L72.2847 151.276C72.0578 151.234 71.9103 151.139 71.8687 151.059C71.8536 151.029 71.8574 151.017 71.8612 151.006C71.8914 150.93 72.0729 150.823 72.3641 150.823C72.4284 150.823 72.4965 150.827 72.5645 150.842L75.4725 151.36C75.4725 151.36 75.499 151.36 75.5103 151.36C75.5746 151.36 75.6351 151.333 75.6767 151.288C75.7297 151.231 75.7486 151.151 75.7297 151.074L75.2834 149.337C75.2834 149.337 75.2759 149.314 75.2986 149.287C75.3515 149.215 75.5103 149.135 75.741 149.127H75.7939C76.1343 149.127 76.3876 149.28 76.4179 149.383L76.9549 151.467C76.9775 151.558 76.9586 151.627 76.8944 151.692C76.7469 151.84 76.4519 151.932 76.1305 151.932L76.1267 151.935ZM38.4705 114.54L38.8903 113.816L93.5443 145.87L93.1245 146.594L38.4705 114.54ZM26.5437 124.766L30.4802 122.476L65.565 142.586L61.6284 144.875L26.5437 124.766ZM30.4878 123.475C30.45 123.475 30.4084 123.486 30.3743 123.505L28.5592 124.561C28.4874 124.602 28.4458 124.679 28.4458 124.759C28.4458 124.839 28.4912 124.915 28.5592 124.957L61.5112 143.843C61.5452 143.862 61.5831 143.873 61.6247 143.873C61.6663 143.873 61.7041 143.862 61.7381 143.843L63.5532 142.788C63.6251 142.746 63.6667 142.669 63.6667 142.589C63.6667 142.509 63.6213 142.433 63.5532 142.391L30.6012 123.505C30.5672 123.486 30.5294 123.475 30.4878 123.475ZM41.473 111.679L41.8928 110.955L96.5468 143.009L96.1271 143.732L41.473 111.679ZM64.6574 99.8107L65.9583 95.9893L117.065 125.528L115.795 129.369L64.6574 99.8145V99.8107ZM66.5444 97.3304C66.5179 97.3304 66.4914 97.3342 66.465 97.3457C66.4007 97.3685 66.3515 97.4219 66.3288 97.4866L65.7276 99.2507C65.6936 99.3535 65.7351 99.4678 65.8297 99.525L115.087 127.993C115.122 128.012 115.159 128.024 115.201 128.024C115.227 128.024 115.254 128.02 115.28 128.009C115.345 127.986 115.394 127.932 115.416 127.868L116.003 126.092C116.037 125.989 115.995 125.875 115.901 125.822L66.6578 97.3609C66.6238 97.3418 66.586 97.3304 66.5444 97.3304ZM69.528 85.6108L70.8288 81.7894L121.936 111.328L120.665 115.169L69.528 85.6146V85.6108ZM71.415 83.1305C71.3885 83.1305 71.362 83.1343 71.3355 83.1458C71.2713 83.1686 71.2221 83.222 71.1994 83.2867L70.5982 85.0508C70.5641 85.1536 70.6057 85.2679 70.7003 85.3251L119.958 113.793C119.992 113.813 120.03 113.824 120.072 113.824C120.098 113.824 120.124 113.82 120.151 113.809C120.215 113.786 120.264 113.732 120.287 113.668L120.873 111.892C120.907 111.789 120.866 111.675 120.771 111.622L71.5284 83.161C71.4944 83.142 71.4566 83.1305 71.415 83.1305ZM53.8083 93.4099L55.1129 89.5809L58.8037 91.8935L57.5293 95.7416L53.8083 93.4099ZM55.6839 90.9677C55.6575 90.9677 55.631 90.9715 55.6083 90.9791C55.544 91.002 55.4911 91.0553 55.4684 91.1201L54.8709 92.8765C54.8369 92.9756 54.8747 93.0899 54.9654 93.1432L56.8297 94.3129C56.8675 94.3357 56.9091 94.3472 56.9507 94.3472C56.9772 94.3472 57.0037 94.3434 57.0264 94.3319C57.0906 94.3091 57.1436 94.2557 57.1663 94.1872L57.7486 92.4231C57.7827 92.3241 57.7411 92.2136 57.6541 92.1564L55.8049 90.9944C55.7671 90.9715 55.7255 90.9601 55.6839 90.9601V90.9677ZM79.4771 62.0726L79.791 61.6878C80.4414 60.8877 81.1599 60.08 81.9238 59.2799L82.1469 59.0437L133.953 88.8036L133.571 89.1923C132.864 89.9085 132.153 90.6972 131.454 91.5316L131.231 91.7983L79.4771 62.0688V62.0726ZM82.3397 60.1562C82.2792 60.1562 82.2187 60.179 82.1733 60.2286C81.7384 60.6934 81.3187 61.162 80.9216 61.6269C80.8763 61.6802 80.8574 61.7488 80.8687 61.8135C80.8801 61.8821 80.9217 61.9393 80.9784 61.9736L130.871 90.6324C130.906 90.6515 130.947 90.6629 130.985 90.6629C131.049 90.6629 131.113 90.6362 131.155 90.5829C131.579 90.0914 131.995 89.6266 132.395 89.2037C132.445 89.1542 132.467 89.0818 132.456 89.0132C132.445 88.9446 132.403 88.8836 132.342 88.8493L82.4456 60.1867C82.4116 60.1676 82.37 60.1562 82.3321 60.1562H82.3397ZM56.3532 86.5252L57.6579 82.6962L61.3486 85.0127L60.0742 88.857L56.3532 86.5252ZM58.2289 84.083C58.2024 84.083 58.1759 84.0868 58.1532 84.0945C58.089 84.1173 58.036 84.1707 58.0133 84.2354L57.4158 85.9919C57.3818 86.0909 57.4196 86.2052 57.5104 86.2585L59.3747 87.4282C59.4125 87.4511 59.4541 87.4625 59.4957 87.4625C59.5221 87.4625 59.5486 87.4587 59.5713 87.4473C59.6356 87.4244 59.6885 87.3711 59.7112 87.3025L60.2974 85.5385C60.3314 85.4394 60.2898 85.3289 60.2028 85.2718L58.3499 84.1097C58.3121 84.0868 58.2705 84.0754 58.2289 84.0754V84.083ZM97.375 57.8588L101.315 55.5689L145.797 81.1836L141.861 83.4734L97.375 57.8549V57.8588ZM101.319 56.571C101.281 56.571 101.24 56.5824 101.206 56.6015L99.3905 57.6568C99.3186 57.6987 99.277 57.7749 99.277 57.8549C99.277 57.935 99.3224 58.0112 99.3905 58.0531L141.743 82.4447C141.777 82.4638 141.819 82.4752 141.857 82.4752C141.895 82.4752 141.936 82.4638 141.97 82.4447L143.785 81.3894C143.857 81.3474 143.899 81.2712 143.899 81.1912C143.899 81.1112 143.853 81.035 143.785 80.9931L101.432 56.6053C101.398 56.5862 101.357 56.5748 101.319 56.5748V56.571ZM58.6789 79.21L59.9835 75.381L63.6742 77.6975L62.3999 81.5418L58.6789 79.21ZM60.5545 76.7678C60.528 76.7678 60.5016 76.7716 60.4789 76.7792C60.4146 76.8021 60.3616 76.8555 60.339 76.9202L59.7415 78.6766C59.7074 78.7757 59.7453 78.89 59.836 78.9433L61.7003 80.113C61.7381 80.1359 61.7797 80.1473 61.8213 80.1473C61.8478 80.1473 61.8742 80.1435 61.8969 80.1321C61.9612 80.1092 62.0142 80.0559 62.0368 79.9911L62.6192 78.2271C62.6532 78.128 62.6116 78.0175 62.5247 77.9604L60.6755 76.7983C60.6377 76.7754 60.5961 76.764 60.5545 76.764V76.7678ZM90.5607 39.3802L94.4972 37.0904L157.939 73.9141L154.003 76.2039L90.5645 39.3764L90.5607 39.3802ZM94.4972 38.0924C94.4594 38.0924 94.4178 38.1039 94.3838 38.1229L92.5687 39.1783C92.4968 39.2202 92.4552 39.2964 92.4552 39.3764C92.4552 39.4564 92.4968 39.5326 92.5687 39.5745L153.889 75.1676C153.923 75.1867 153.965 75.1981 154.003 75.1981C154.041 75.1981 154.082 75.1867 154.116 75.1676L155.931 74.1122C156.003 74.0703 156.045 73.9941 156.045 73.9141C156.045 73.8341 156.003 73.7579 155.931 73.716L94.6145 38.1191C94.5804 38.1001 94.5388 38.0886 94.501 38.0886L94.4972 38.0924ZM3.69965 73.6436C3.1778 73.6436 2.70134 73.5179 2.27781 73.2702C1.2568 72.6759 0.693359 71.4567 0.693359 69.8374V38.0582C0.693359 34.8616 2.83369 31.1087 5.57149 29.5199L55.1205 0.697231C55.9146 0.23241 56.686 0 57.4045 0C57.9226 0 58.4028 0.12573 58.8264 0.37338C59.8474 0.967741 60.4108 2.18694 60.4108 3.81001V35.5816C60.4108 38.7782 58.2705 42.5273 55.5364 44.1199L46.3777 49.4463C45.4852 49.9644 44.7592 51.2332 44.7592 52.2771V58.636C44.7592 59.8438 43.9348 60.983 43.1596 61.4364C42.8798 61.6002 42.6037 61.684 42.339 61.684C42.1348 61.684 41.9457 61.6345 41.7718 61.5354L34.9273 57.6263C34.5983 57.4397 34.2164 57.3444 33.789 57.3444C33.1386 57.3444 32.405 57.573 31.6676 57.9997L5.98368 72.9464C5.18578 73.4112 4.41435 73.6436 3.69587 73.6436H3.69965ZM57.4007 0.842012C56.8297 0.842012 56.202 1.04013 55.5364 1.42494L5.98368 30.2553C3.5257 31.684 1.52529 35.1854 1.52529 38.062V69.8412C1.52529 71.1481 1.94125 72.1082 2.68999 72.5463C2.98495 72.7178 3.3215 72.8054 3.69965 72.8054C4.27066 72.8054 4.89839 72.6073 5.56393 72.2225L31.2517 57.2796C32.1365 56.7653 32.9911 56.5024 33.789 56.5024C34.3563 56.5024 34.8781 56.6357 35.3395 56.9024L42.184 60.8115C42.2331 60.8382 42.2861 60.8496 42.3428 60.8496C42.4562 60.8496 42.5924 60.8039 42.7361 60.7201C43.3033 60.3848 43.9197 59.4971 43.9197 58.6474V52.2885C43.9197 50.955 44.8121 49.3891 45.9541 48.7262L55.1129 43.3998C57.5709 41.971 59.5675 38.4696 59.5675 35.5931V3.8062C59.5675 2.49936 59.1516 1.53924 58.4028 1.10109C58.1079 0.929641 57.7713 0.842012 57.3932 0.842012H57.4007ZM64.2074 61.9621L64.3965 61.6116C64.8767 60.7124 65.4175 59.798 65.9961 58.8951L66.2154 58.5522L69.7814 60.7582L69.5431 61.1201C68.9721 61.985 68.4314 62.8727 67.9398 63.7605L67.728 64.1415L64.2074 61.9583V61.9621ZM66.5482 59.779C66.4725 59.779 66.3969 59.8171 66.3553 59.8857C66.0188 60.4305 65.7049 60.9639 65.4213 61.4706C65.3608 61.5773 65.3986 61.7145 65.5007 61.7754L67.2251 62.8461C67.2629 62.8689 67.3007 62.8803 67.3423 62.8803C67.3612 62.8803 67.3801 62.8803 67.399 62.8727C67.4595 62.8575 67.5087 62.8194 67.5389 62.766C67.8452 62.2326 68.1629 61.7107 68.4843 61.2116C68.5183 61.1582 68.5297 61.0973 68.5145 61.0363C68.4994 60.9753 68.4654 60.9258 68.4125 60.8915L66.6654 59.8095C66.6276 59.7866 66.586 59.7752 66.5482 59.7752V59.779ZM19.5252 58.5026C19.287 58.5026 19.0601 58.4417 18.8559 58.3236C18.3303 58.015 18.0278 57.3482 18.0278 56.4948V38.0772C18.0278 37.1323 18.387 36.0731 18.992 35.2426C19.0185 35.2045 19.0412 35.174 19.0639 35.1435C19.1282 35.0559 19.1811 34.9911 19.2378 34.9301L19.3021 34.8616C19.5404 34.6025 19.7861 34.4006 20.0319 34.2558L47.0205 18.5585C47.3344 18.3757 47.6445 18.2842 47.9432 18.2842C48.1814 18.2842 48.4083 18.3452 48.6125 18.4633C48.7449 18.5395 48.8697 18.65 48.9831 18.7833L49.0171 18.8291C49.089 18.9243 49.1457 19.0157 49.1949 19.1148L49.2327 19.1796C49.2327 19.1796 49.2402 19.2139 49.244 19.2329C49.3726 19.5453 49.4407 19.8997 49.4407 20.2921V38.7097C49.4407 40.1994 48.5596 41.8796 47.4365 42.5311L20.4479 58.2321C20.134 58.415 19.824 58.5065 19.5252 58.5065V58.5026ZM19.5706 36.077C19.4874 36.077 19.4118 36.1227 19.3702 36.1951C19.045 36.797 18.8597 37.4828 18.8597 38.0734V56.491C18.8597 57.0282 19.0147 57.4397 19.2719 57.5882C19.3475 57.6302 19.4307 57.653 19.5252 57.653C19.7143 57.653 19.9034 57.5654 20.0282 57.493L47.0167 41.792C47.8903 41.2852 48.605 39.8946 48.605 38.6982V20.5245C48.605 20.4254 48.5444 20.3416 48.4537 20.3073C48.431 20.2997 48.4045 20.2959 48.3781 20.2959C48.31 20.2959 48.2419 20.3264 48.2003 20.3835L35.2222 37.1399C34.5151 38.0582 33.6189 38.6068 32.8285 38.6068C32.7264 38.6068 32.6243 38.5954 32.5222 38.5763L19.6122 36.0731C19.6122 36.0731 19.5819 36.0693 19.5706 36.0693V36.077ZM47.531 19.2786C47.5045 19.2786 47.4818 19.2824 47.4554 19.2901C47.4062 19.3091 47.3571 19.3282 47.3079 19.3586L20.5878 34.9073C20.55 34.9301 20.5084 34.953 20.4706 34.9797C20.3912 35.0292 20.3458 35.1245 20.3647 35.2159C20.3836 35.3073 20.4479 35.3835 20.5424 35.3988L32.6886 37.7534C32.734 37.761 32.7832 37.7648 32.8361 37.7648C33.2483 37.7648 33.9176 37.4638 34.568 36.6218L47.7163 19.6444C47.7768 19.5644 47.7806 19.4539 47.7201 19.3701C47.6747 19.3091 47.6066 19.2748 47.5348 19.2748L47.531 19.2786ZM68.0116 55.3556L68.3141 54.9822C68.957 54.1897 69.6755 53.382 70.4469 52.5743L70.6776 52.3304L74.3532 54.6012L73.9826 54.9784C73.2792 55.6947 72.5683 56.4833 71.865 57.3216L71.6343 57.5959L68.0078 55.3518L68.0116 55.3556ZM70.8553 53.4658C70.7948 53.4658 70.7343 53.4887 70.6889 53.5382C70.254 54.003 69.8305 54.4755 69.4334 54.9441C69.3919 54.9936 69.3729 55.0622 69.3805 55.127C69.3881 55.1918 69.4297 55.2527 69.4864 55.287L71.2977 56.4071C71.3355 56.43 71.3771 56.4414 71.415 56.4414C71.4792 56.4414 71.5435 56.4148 71.5851 56.3614C71.9935 55.8852 72.4133 55.4204 72.833 54.9746C72.8784 54.9251 72.9011 54.8565 72.8935 54.7879C72.886 54.7193 72.8444 54.6583 72.7876 54.6241L70.9687 53.5001C70.9309 53.4773 70.8893 53.4658 70.8515 53.4658H70.8553Z" fill="#F16C3F"></path></svg>