<svg xmlns="http://www.w3.org/2000/svg" width="181" height="120" viewBox="0 0 181 120" fill="none"><path d="M53.5612 28.0137C53.4761 28.7199 53.4165 29.5793 53.374 30.5748C53.3315 31.5788 53.3144 32.5743 53.3144 33.5783C53.3144 34.5823 53.3315 35.4757 53.374 36.267C53.4165 37.0583 53.4591 37.5603 53.5016 37.7646C53.6293 38.3942 53.9185 39.0579 54.378 39.7641C54.8375 40.4703 55.4416 41.134 56.1903 41.7381C56.9391 42.3422 57.807 42.8442 58.7855 43.2356C59.7639 43.6355 60.836 43.8312 62.0102 43.8312C64.6394 43.8312 66.8176 42.9122 68.5448 41.0829C70.272 39.245 71.1399 36.4372 71.1399 32.6424C71.1399 30.5152 70.8336 28.7114 70.2295 27.2309C69.6254 25.7504 68.8596 24.5677 67.9492 23.6658C67.0303 22.7724 66.0433 22.1173 64.9797 21.6918C63.9161 21.2749 62.9461 21.0707 62.0698 21.0707C60.8615 21.0707 59.849 21.2494 59.0407 21.5982C58.2239 21.9556 57.5092 22.3555 56.8795 22.815C55.8415 23.6063 55.0672 24.3976 54.5652 25.1889C54.0632 25.9802 53.7314 26.9161 53.5612 28.0052M43.487 2.68367C43.487 1.76475 43.7082 1.22871 44.1422 1.05853C44.5761 0.888362 45.0526 0.811785 45.5461 0.811785H49.392C50.5406 0.811785 51.5787 0.803277 52.5231 0.777751C53.4591 0.760734 54.3355 0.692665 55.1523 0.590562C55.9691 0.488459 56.7264 0.309779 57.4326 0.06303C57.7644 -0.0645987 57.9431 0.00347 57.9601 0.250219C57.9771 0.496968 57.9942 0.726699 57.9942 0.939414C57.9942 1.18616 57.8665 1.39037 57.6198 1.53501C57.373 1.67966 57.0922 1.79878 56.7774 1.87536C56.4626 1.96044 56.1648 2.02 55.867 2.06255C55.5777 2.10509 55.3905 2.12211 55.3054 2.12211C55.1778 2.53903 55.0332 3.49199 54.8715 4.96397C54.7013 6.44447 54.5227 8.19723 54.3355 10.2138C54.1483 12.2388 53.9951 14.383 53.8675 16.6548C53.7399 18.9266 53.6803 21.0622 53.6803 23.0617C54.0547 22.6448 54.6843 22.0577 55.5607 21.309C56.4371 20.5602 57.4666 19.82 58.6578 19.0882C59.849 18.3565 61.1679 17.7268 62.6313 17.1823C64.0863 16.6377 65.6093 16.3655 67.2004 16.3655C68.7915 16.3655 70.255 16.6122 71.6079 17.1142C72.9608 17.6162 74.1434 18.348 75.1389 19.3009C76.143 20.2624 76.9257 21.4366 77.4873 22.832C78.0489 24.2274 78.3297 25.8015 78.3297 27.5543C78.3297 29.0177 78.0489 30.5238 77.4873 32.0893C76.9257 33.6549 76.1515 35.195 75.173 36.718C74.1945 38.241 73.0118 39.6875 71.6419 41.0659C70.2635 42.4443 68.7745 43.6525 67.1664 44.6905C65.5583 45.7286 63.8481 46.5709 62.0357 47.1921C60.2234 47.8217 58.3941 48.128 56.5647 48.128C54.4801 48.128 52.7699 47.8983 51.434 47.4388C50.0982 46.9793 49.0346 46.4603 48.2433 45.8732C47.452 45.2861 46.8905 44.7331 46.5501 44.2141C46.2183 43.695 46.0311 43.3717 45.9885 43.2441C46.1162 42.8697 46.2608 41.8572 46.4225 40.215C46.5927 38.5644 46.7458 36.5478 46.8905 34.1484C47.0351 31.749 47.1712 29.1113 47.2989 26.2354C47.4265 23.3595 47.4861 20.5432 47.4861 17.7949C47.4861 15.3785 47.4435 13.3449 47.3584 11.6943C47.2733 10.0436 47.1627 8.69073 47.0096 7.62716C46.8649 6.56359 46.6863 5.72974 46.482 5.12564C46.2693 4.52153 46.0396 4.05355 45.7929 3.72172C45.2908 3.09208 44.7548 2.76025 44.1677 2.71771L43.4785 2.65815L43.487 2.68367Z" fill="white"></path><path d="M111.922 38.9644C112.007 38.8793 112.075 38.8878 112.143 38.9984C112.202 39.1005 112.245 39.2452 112.27 39.4409C112.287 39.6281 112.279 39.8238 112.236 40.0365C112.194 40.2492 112.109 40.4108 111.99 40.5385C111.156 41.3298 110.109 42.1636 108.859 43.04C107.608 43.9164 106.314 44.7332 104.979 45.482C104.604 45.6947 104.085 45.9584 103.413 46.2988C102.749 46.6306 102.009 46.9539 101.192 47.2688C100.375 47.5836 99.5416 47.8473 98.6908 48.0856C97.8399 48.3153 97.0316 48.4259 96.2828 48.4259C94.7853 48.4259 93.3644 48.1366 92.0286 47.5495C90.6927 46.971 89.527 46.1626 88.523 45.1416C87.519 44.1206 86.7362 42.9039 86.1746 41.4829C85.6131 40.062 85.3323 38.5219 85.3323 36.8543C85.3323 35.0589 85.579 33.3742 86.0811 31.7917C86.5831 30.2091 87.1531 28.7881 87.7998 27.5374C88.4464 26.2866 89.0591 25.2315 89.6461 24.3807C90.2247 23.5298 90.6246 22.8917 90.8373 22.4748C90.0461 22.4322 89.3228 22.4067 88.6762 22.3812C88.0295 22.3641 87.4169 22.3471 86.8298 22.3471C85.494 22.3471 84.3708 22.3556 83.4519 22.3812C82.533 22.4067 81.7247 22.5003 81.0099 22.6619C80.6781 22.747 80.3633 22.9087 80.074 23.1639C79.7847 23.4107 79.5294 23.5979 79.3252 23.7255C79.2402 23.6404 79.1295 23.5298 78.9849 23.3852C78.8403 23.2405 78.7637 23.0789 78.7637 22.9172C78.7637 22.8321 78.7892 22.7726 78.8232 22.73C78.8232 22.6875 79.0955 22.4492 79.6401 22.0068C80.1846 21.5643 80.8568 21.0453 81.6736 20.4412C82.4904 19.8371 83.3838 19.1734 84.3623 18.4417C85.3408 17.7099 86.2767 17.0378 87.1787 16.4081C88.0721 15.7785 88.8463 15.251 89.493 14.817C90.1396 14.3746 90.5651 14.1193 90.7778 14.0342C91.0245 13.9492 91.2798 13.9917 91.5265 14.1619C91.7733 14.332 91.8584 14.4512 91.7733 14.5362C91.6457 14.6213 91.4585 14.7745 91.2117 15.0042C90.965 15.234 90.8799 15.4296 90.965 15.5998C91.4244 15.9742 92.2157 16.306 93.3389 16.6038C94.462 16.8931 95.7383 17.1399 97.1507 17.3271C98.5716 17.5143 100.027 17.6589 101.533 17.7695C103.03 17.8716 104.392 17.9227 105.6 17.9227C107.395 17.9227 108.833 17.8716 109.914 17.7695C110.994 17.6674 111.896 17.5313 112.602 17.3611C113.266 17.1909 113.708 17.0718 113.913 16.9867C113.955 16.9867 114.04 17.0463 114.159 17.1739C114.287 17.3015 114.347 17.4462 114.347 17.6164C114.347 17.7014 114.04 17.9056 113.436 18.2375C112.832 18.5693 112.219 18.9267 111.59 19.3011C111.215 19.5138 110.764 19.7775 110.245 20.1179C109.726 20.4497 109.156 20.773 108.552 21.0879C107.948 21.4027 107.31 21.6835 106.646 21.9302C105.983 22.177 105.336 22.3301 104.706 22.3641C104.077 22.4492 103.353 22.5088 102.52 22.5513C101.686 22.5939 100.809 22.6279 99.8905 22.6449C98.9716 22.6705 98.0441 22.6875 97.1082 22.7045C96.1722 22.73 95.3044 22.7385 94.5131 22.7385C94.3854 22.9427 94.1897 23.2916 93.9175 23.7681C93.6452 24.2445 93.3899 24.8657 93.1347 25.6144C92.8794 26.3632 92.6582 27.2225 92.4455 28.1755C92.2413 29.137 92.1307 30.175 92.1307 31.3067C92.1307 33.0169 92.3859 34.591 92.9134 36.0289C93.4325 37.4669 94.1642 38.7091 95.1001 39.7472C96.0361 40.7937 97.1507 41.602 98.444 42.1891C99.7373 42.7762 101.133 43.0655 102.639 43.0655C103.515 43.0655 104.357 42.9634 105.174 42.7507C105.983 42.5465 106.757 42.2742 107.489 41.9339C108.22 41.602 108.893 41.2362 109.522 40.8363C110.152 40.4364 110.688 40.0535 111.147 39.6791L111.896 38.9899L111.922 38.9644Z" fill="white"></path><path d="M142.893 21.0707C142.434 21.4451 141.889 21.9131 141.268 22.4746C140.647 23.0362 139.984 23.5808 139.294 24.0998C138.605 24.6188 137.907 25.0698 137.201 25.4441C136.495 25.8185 135.806 26.0057 135.134 26.0057C134.547 26.0057 134.028 25.8696 133.568 25.5973C133.109 25.325 132.683 25.0357 132.283 24.7209C131.883 24.4061 131.5 24.1168 131.126 23.8445C130.752 23.5722 130.352 23.4361 129.935 23.4361C128.812 23.4361 127.859 23.8956 127.093 24.8145C126.319 25.7334 125.698 26.8991 125.213 28.32C124.736 29.741 124.379 31.281 124.149 32.9487C123.919 34.6164 123.809 36.2245 123.809 37.7646C123.809 39.0579 123.86 40.1129 123.962 40.9212C124.064 41.7296 124.226 42.3847 124.43 42.8612C124.634 43.3377 124.923 43.661 125.272 43.8312C125.63 44.0014 126.055 44.0779 126.557 44.0779C127.102 44.0779 127.68 43.9928 128.31 43.8312C128.437 43.7886 128.531 43.8737 128.591 44.0779C128.65 44.2906 128.684 44.4523 128.684 44.5799C128.684 44.665 128.625 44.7586 128.497 44.8607C128.369 44.9628 128.284 45.0139 128.25 45.0139C127.331 45.3882 126.395 45.7967 125.434 46.2306C124.472 46.6645 123.681 47.0304 123.06 47.3282C122.473 47.575 121.775 47.8472 120.967 48.145C120.15 48.4343 119.452 48.579 118.874 48.579C118.21 48.579 117.657 48.4769 117.215 48.2641C116.781 48.0514 116.559 47.8472 116.559 47.6345C116.559 47.4218 116.61 47.2431 116.713 47.073C116.815 46.9028 116.908 46.5965 116.993 46.137C117.078 45.5074 117.172 44.7671 117.274 43.9163C117.376 43.0654 117.478 42.138 117.589 41.134C117.691 40.1299 117.776 39.1004 117.836 38.0368C117.895 36.9733 117.929 35.9182 117.929 34.8802C117.929 32.5403 117.853 30.5663 117.708 28.9412C117.563 27.316 117.3 26.0057 116.925 25.0017C116.551 23.9977 116.04 23.283 115.394 22.8405C114.747 22.3981 113.922 22.1853 112.926 22.1853H112.365C112.194 22.1853 112.033 22.2024 111.863 22.2449C111.607 22.2449 111.488 22.1173 111.488 21.8705C111.488 21.6238 111.616 21.4281 111.863 21.309C112.322 21.0197 113.028 20.5857 113.99 20.0242C114.951 19.4626 115.938 18.9181 116.959 18.399C117.98 17.88 118.967 17.412 119.929 16.9951C120.89 16.5782 121.596 16.3655 122.056 16.3655C122.6 16.3655 123.06 16.5442 123.434 16.9015C123.809 17.2589 124.089 17.7013 124.277 18.2459C124.464 18.7904 124.6 19.403 124.685 20.0922C124.77 20.7814 124.813 21.4621 124.813 22.1258C124.813 22.6278 124.804 23.1468 124.779 23.6914C124.762 24.2359 124.745 24.8145 124.745 25.4441C126.625 22.6959 128.31 20.5517 129.807 19.0372C131.305 17.5141 132.726 16.7569 134.062 16.7569C134.564 16.7569 135.049 16.9696 135.534 17.3865C136.01 17.8034 136.521 18.2714 137.065 18.7904C137.61 19.3094 138.171 19.7774 138.75 20.1943C139.337 20.6113 139.941 20.824 140.562 20.824C141.107 20.824 141.498 20.7644 141.753 20.6368C142 20.5092 142.213 20.4071 142.383 20.322C142.715 20.322 142.885 20.5517 142.885 21.0112V21.0707H142.893Z" fill="white"></path><path d="M88.625 26.0312C88.625 26.0312 99.6862 6.05306 105.54 4.91291C111.394 3.77276 99.0991 10.2223 92.8708 26.5332C88.7186 37.4157 88.625 26.0227 88.625 26.0227" fill="white"></path><path d="M15.8432 87.5568C15.9282 87.5568 16.0814 87.5228 16.3111 87.4632C16.5409 87.4036 16.694 87.3696 16.7791 87.3696C17.0258 87.3696 17.1875 87.5398 17.2471 87.8716C17.3066 88.2034 17.2556 88.4332 17.0939 88.5608C16.7621 88.8075 16.3452 89.1054 15.8432 89.4372C15.3411 89.769 14.7881 90.1179 14.184 90.4667C13.5799 90.8241 12.9843 91.1644 12.3972 91.4963C11.8101 91.8281 11.3081 92.1259 10.8997 92.3726C10.6529 92.5003 10.2871 92.696 9.80206 92.9682C9.32558 93.2405 8.84059 93.5128 8.36411 93.7851C7.88763 94.0573 7.43668 94.2871 7.01976 94.4743C6.60283 94.6614 6.33056 94.755 6.20293 94.755C5.99022 94.755 5.79452 94.6529 5.60733 94.4402C5.42014 94.236 5.32655 94.0403 5.32655 93.8787C5.32655 93.6744 5.34356 93.5553 5.38611 93.5383C5.42865 93.5213 5.51374 93.4617 5.63286 93.3852C5.87961 93.215 6.22846 93.0108 6.6624 92.764C7.09633 92.5173 7.41966 91.9727 7.63237 91.1389C7.79404 90.4327 7.96421 89.3436 8.13438 87.8886C8.29604 86.4251 8.4492 84.7319 8.56832 82.792C8.69595 80.852 8.79805 78.7249 8.88313 76.4105C8.96822 74.0962 9.01076 71.7138 9.01076 69.2463V66.5916C9.01076 65.7408 8.99375 64.975 8.9512 64.3113C8.86612 64.3113 8.54279 64.2773 7.98123 64.2178C7.41966 64.1582 6.82406 64.0816 6.19442 63.9965C5.56479 63.9114 4.99471 63.8178 4.47569 63.7157C3.95667 63.6136 3.6929 63.4775 3.6929 63.3073C3.6929 63.2222 3.68439 63.1031 3.65887 62.933C3.63334 62.7628 3.795 62.516 4.12684 62.1842C4.45867 61.8524 4.86708 61.478 5.34356 61.0611C5.82005 60.6441 6.28802 60.2272 6.74748 59.8103C7.20694 59.3934 7.63237 59.019 8.03228 58.6872C8.43218 58.3553 8.72998 58.0831 8.94269 57.8703C8.98524 56.6196 9.01076 55.4879 9.03629 54.4584C9.05331 53.4374 9.10436 52.5099 9.18944 51.6761C9.27453 50.6381 9.43619 49.8127 9.69145 49.2086C9.9382 48.6045 10.2956 48.0344 10.755 47.4899C11.257 46.9113 12.2355 46.1625 13.6905 45.2691C15.1455 44.3757 16.8812 43.4483 18.8807 42.4868C19.5869 42.155 20.2081 41.8572 20.7271 41.6104C21.2461 41.3637 21.7566 41.1595 22.2586 41.0148C22.7606 40.8702 23.2797 40.7511 23.8242 40.6745C24.3688 40.5979 24.9899 40.5469 25.7046 40.5469C27.5425 40.5469 29.1165 40.7426 30.4269 41.1425C31.7372 41.5424 32.7497 42.0529 33.4559 42.674C33.4559 42.8442 33.1836 43.193 32.6391 43.7376C32.0945 44.2821 31.4734 44.8948 30.7587 45.584C30.0525 46.2732 29.3378 46.9709 28.6316 47.6771C27.9253 48.3918 27.3978 48.9874 27.066 49.4894C26.9383 49.7021 26.7512 49.7617 26.5044 49.6766C26.2577 49.5915 26.1726 49.4724 26.2577 49.3022C26.3427 49.1405 26.4108 48.9704 26.4789 48.8002C26.5384 48.6385 26.5725 48.4258 26.5725 48.1791C26.5725 47.0559 26.0109 46.0775 24.8793 45.2436C23.7561 44.4098 22.3182 43.9928 20.5654 43.9928C19.5614 43.9928 18.7276 44.2992 18.0639 44.9033C17.4002 45.5074 16.8727 46.5199 16.4983 47.9408C16.1665 49.2767 15.9282 50.8252 15.7751 52.6035C15.6304 54.3733 15.5113 56.6366 15.4262 59.3934C16.0133 59.521 16.7706 59.6146 17.7065 59.6742C18.6425 59.7337 19.655 59.7678 20.7441 59.7678H23.0925C23.9433 59.7678 24.7857 59.7507 25.594 59.7082C26.4108 59.6657 27.1766 59.6146 27.9083 59.555C28.6401 59.4955 29.2357 59.4019 29.6951 59.2743C29.8653 59.4444 29.9419 59.6316 29.9419 59.8358C29.3548 60.7122 28.4444 61.4269 27.1936 61.997C25.9428 62.5586 24.5985 63.018 23.1605 63.3754C21.7226 63.7328 20.2846 63.971 18.8467 64.0901C17.4087 64.2177 16.226 64.2773 15.3156 64.2773C15.3156 64.9835 15.2901 65.979 15.2561 67.2468C15.2135 68.5231 15.171 69.8845 15.1284 71.3479C15.0859 72.8114 15.0519 74.2749 15.0348 75.7554C15.0178 77.2359 15.0008 78.5632 15.0008 79.7289C15.0008 80.6904 15.0093 81.6263 15.0348 82.5452C15.0519 83.4642 15.0859 84.2725 15.1284 84.9872C15.171 85.6934 15.239 86.289 15.3497 86.774C15.4518 87.2505 15.6134 87.5313 15.8176 87.6163" fill="white"></path><path d="M47.5539 78.1121C47.4263 77.4059 47.3072 76.6316 47.1796 75.7978C47.0519 74.964 46.9328 74.1727 46.8052 73.4239C46.6776 72.6752 46.5669 72.0285 46.4648 71.484C46.3627 70.9394 46.2862 70.5906 46.2436 70.4204C45.5799 70.6671 44.8227 70.9649 43.9888 71.2968C43.155 71.6286 42.3212 71.9945 41.4873 72.3944C40.6535 72.7943 39.8622 73.1857 39.1134 73.5856C38.3647 73.9855 37.735 74.3428 37.233 74.6832C36.2716 75.3043 35.5398 75.9339 35.0463 76.5636C34.5443 77.1847 34.2976 77.942 34.2976 78.8184C34.2976 80.0266 34.6549 81.0901 35.3611 82.0091C36.0674 82.928 37.1735 83.3875 38.6795 83.3875C39.4708 83.3875 40.2961 83.2428 41.147 82.9535C41.9978 82.6642 42.7891 82.3239 43.5209 81.9495C44.2526 81.5751 44.8822 81.2008 45.4268 80.8264C45.9713 80.452 46.3457 80.1627 46.5499 79.95C46.8818 79.6182 47.1455 79.3374 47.3327 79.1077C47.5199 78.8779 47.588 78.5546 47.5539 78.1377M45.7416 68.4464C45.4949 67.1531 45.1971 65.9959 44.8652 64.9749C44.5334 63.9539 44.1165 63.0945 43.6145 62.4138C43.1125 61.7246 42.5084 61.2056 41.8021 60.8482C41.0959 60.4909 40.2195 60.3122 39.173 60.3122C38.2541 60.3122 37.4117 60.4824 36.6374 60.8142C35.8632 61.146 35.1995 61.5459 34.6379 62.0054C34.0763 62.4649 33.6339 62.9243 33.3276 63.3838C33.0128 63.8433 32.8341 64.2006 32.7916 64.4474C32.749 64.7792 32.5618 64.9494 32.23 64.9494C31.6429 64.9494 31.1069 64.7452 30.6048 64.3197C30.1028 63.9028 29.8561 63.4008 29.8561 62.8222C29.8561 62.4904 29.8986 62.2351 29.9837 62.0735C30.9452 61.5289 32.1109 60.9503 33.4893 60.3207C34.8676 59.6996 36.2886 59.1125 37.7691 58.5679C39.2496 58.0234 40.7215 57.5809 42.1765 57.2236C43.6315 56.8662 44.9503 56.696 46.116 56.696C47.8688 56.696 49.2131 56.9428 50.1491 57.4448C51.085 57.9468 51.7827 58.653 52.2422 59.5719C52.7016 60.4909 52.9824 61.563 53.0845 62.7967C53.1866 64.0304 53.2802 65.3493 53.3653 66.7702C53.4929 68.8974 53.6546 70.9479 53.8673 72.9304C54.0715 74.9129 54.3863 76.6657 54.8033 78.1802C55.2202 79.7032 55.7477 80.9285 56.3944 81.8729C57.041 82.8089 57.8408 83.2768 58.8023 83.2768C59.2617 83.2768 59.7638 83.1918 60.2998 83.0301C60.8443 82.8599 61.3634 82.6642 61.8654 82.4345C62.3674 82.2048 62.8098 81.975 63.2097 81.7453C63.6096 81.5156 63.8649 81.3624 63.9925 81.2773C64.3669 81.2773 64.5966 81.4645 64.6817 81.8389C64.6817 82.0516 64.6392 82.2388 64.5541 82.4005C64.469 82.4856 64.1542 82.6898 63.6181 83.0301C63.0821 83.3704 62.4099 83.7618 61.6186 84.2213C60.8273 84.6808 59.9509 85.1743 58.9895 85.6933C58.028 86.2123 57.0835 86.7058 56.1476 87.1653C55.2117 87.6247 54.3438 87.9991 53.5525 88.2884C52.7612 88.5777 52.1316 88.7309 51.6721 88.7309C51.1275 88.7309 50.6596 88.5096 50.2682 88.0757C49.8683 87.6332 49.5279 87.0547 49.2386 86.3229C48.9493 85.5912 48.6941 84.7488 48.4899 83.7874C48.2772 82.8259 48.09 81.8304 47.9283 80.7838C47.1796 81.4135 46.2181 82.1537 45.0524 83.0046C43.8867 83.8554 42.6105 84.6637 41.2406 85.4125C39.8622 86.1613 38.4583 86.7994 37.0203 87.3184C35.5824 87.8375 34.1955 88.1012 32.8596 88.1012C31.7365 88.1012 30.7495 87.9225 29.9242 87.5652C29.0903 87.2078 28.3926 86.7398 27.831 86.1613C27.2695 85.5827 26.8526 84.902 26.5803 84.1277C26.308 83.3534 26.1719 82.5536 26.1719 81.7198C26.1719 80.3839 26.5803 79.2863 27.3886 78.4355C28.2054 77.5846 29.4647 76.6997 31.1749 75.7808C31.9662 75.3639 33.0723 74.8108 34.4933 74.1216C35.9142 73.4324 37.3607 72.7347 38.8412 72.0285C40.3216 71.3223 41.7 70.6416 42.9678 69.995C44.2356 69.3483 45.163 68.8378 45.7501 68.4634" fill="white"></path><path d="M91.1024 61.2824C90.643 61.6568 90.0984 62.1247 89.4773 62.6863C88.8477 63.2479 88.1925 63.7924 87.5033 64.3114C86.8141 64.8305 86.1164 65.2814 85.4102 65.6558C84.704 66.0302 84.0148 66.2174 83.3426 66.2174C82.7555 66.2174 82.2365 66.0812 81.777 65.809C81.3176 65.5367 80.8921 65.2474 80.4922 64.9326C80.0923 64.6178 79.7094 64.3285 79.3351 64.0562C78.9607 63.7839 78.5608 63.6478 78.1439 63.6478C77.0207 63.6478 76.0678 64.1072 75.302 65.0262C74.5277 65.9451 73.9066 67.1108 73.4216 68.5317C72.9451 69.9526 72.5878 71.4927 72.358 73.1604C72.1283 74.8281 72.0177 76.4362 72.0177 77.9762C72.0177 79.2695 72.0687 80.3246 72.1708 81.1329C72.2729 81.9412 72.4346 82.5964 72.6388 83.0729C72.843 83.5494 73.1238 83.8727 73.4812 84.0428C73.8385 84.213 74.264 84.2896 74.766 84.2896C75.3105 84.2896 75.8891 84.2045 76.5187 84.0428C76.6464 84.0003 76.74 84.0854 76.7995 84.2896C76.8591 84.5023 76.8931 84.664 76.8931 84.7916C76.8931 84.8767 76.8335 84.9703 76.7059 85.0724C76.5783 85.1745 76.4932 85.2255 76.4592 85.2255C75.5402 85.5999 74.6043 86.0083 73.6428 86.4423C72.6814 86.8762 71.8901 87.2421 71.2689 87.5399C70.6818 87.7866 69.9841 88.0589 69.1758 88.3567C68.359 88.646 67.6613 88.7906 67.0827 88.7906C66.419 88.7906 65.866 88.6885 65.4235 88.4758C64.9896 88.2631 64.7684 88.0589 64.7684 87.8462C64.7684 87.6335 64.8194 87.4548 64.9215 87.2846C65.0236 87.1144 65.1172 86.8081 65.2023 86.3487C65.2874 85.719 65.381 84.9788 65.4831 84.1279C65.5852 83.2771 65.6873 82.3496 65.7979 81.3456C65.9 80.3416 65.9851 79.3121 66.0447 78.2485C66.1042 77.1849 66.1383 76.1299 66.1383 75.0918C66.1383 72.7605 66.0617 70.778 65.917 69.1528C65.7724 67.5277 65.5086 66.2174 65.1342 65.2134C64.7599 64.2093 64.2494 63.4946 63.6027 63.0522C62.956 62.6097 62.1307 62.397 61.1352 62.397H60.5736C60.4035 62.397 60.2418 62.414 60.0716 62.4566C59.8164 62.4566 59.6973 62.329 59.6973 62.0822C59.6973 61.8355 59.8249 61.6483 60.0716 61.5206C60.5311 61.2313 61.2373 60.7974 62.1988 60.2358C63.1603 59.6743 64.1472 59.1297 65.1683 58.6107C66.1893 58.0917 67.1763 57.6237 68.1378 57.2068C69.0992 56.7899 69.8055 56.5771 70.2649 56.5771C70.8095 56.5771 71.2689 56.7558 71.6433 57.1132C72.0177 57.4705 72.2985 57.913 72.4857 58.4575C72.6729 59.0021 72.809 59.6147 72.8941 60.3039C72.9792 60.9931 73.0217 61.6738 73.0217 62.3375C73.0217 62.8395 73.0132 63.3585 72.9877 63.903C72.9706 64.4476 72.9536 65.0262 72.9536 65.6558C74.834 62.9075 76.5187 60.7634 78.0162 59.2488C79.5138 57.7258 80.9347 56.9685 82.2705 56.9685C82.7725 56.9685 83.2575 57.1813 83.7425 57.5982C84.219 58.0151 84.7295 58.4831 85.2741 59.0021C85.8186 59.5211 86.3802 59.9891 86.9588 60.406C87.5458 60.8229 88.15 61.0356 88.7711 61.0356C89.3156 61.0356 89.707 60.9761 89.9623 60.8485C90.209 60.7208 90.4218 60.6187 90.5919 60.5336C90.9238 60.5336 91.0939 60.7634 91.0939 61.2228V61.2824H91.1024Z" fill="white"></path><path d="M150.559 82.4261C150.687 82.4261 150.764 82.5027 150.806 82.6473C150.849 82.792 150.866 82.9707 150.866 83.1749C150.866 83.3791 150.823 83.5152 150.738 83.5833C150.653 83.6428 150.568 83.7194 150.491 83.8045C150.202 83.9747 149.504 84.3235 148.398 84.8681C147.292 85.4126 146.058 85.9657 144.706 86.5272C143.353 87.0888 142.017 87.5908 140.707 88.0248C139.396 88.4587 138.401 88.6799 137.737 88.6799C137.15 88.6799 136.597 88.5523 136.078 88.3055C135.559 88.0588 135.338 87.6589 135.423 87.1143C135.508 86.7825 135.601 86.2805 135.704 85.6168C135.806 84.9532 135.899 84.1363 135.984 83.1749C136.069 81.9666 136.163 80.5712 136.265 78.9886C136.367 77.406 136.418 75.6533 136.418 73.7303C136.418 71.4756 136.274 69.6122 135.976 68.1317C135.686 66.6512 135.27 65.477 134.725 64.6006C134.18 63.7242 133.517 63.1116 132.726 62.7543C131.934 62.3969 131.015 62.2182 129.977 62.2182C129.016 62.2182 128.207 62.3714 127.535 62.6862C126.872 63.001 126.285 63.3414 125.783 63.7157C124.864 64.4219 124.149 65.3324 123.621 66.4385C123.102 67.5446 122.779 68.9911 122.651 70.7864C122.609 71.2458 122.575 71.7053 122.558 72.1648C122.532 72.6242 122.515 73.1262 122.498 73.6623C122.473 74.2068 122.456 74.8109 122.439 75.4746C122.422 76.1383 122.405 76.9381 122.405 77.8485C122.405 80.3075 122.6 82.0177 123 82.9792C123.392 83.9406 124.072 84.4171 125.034 84.4171C125.366 84.4171 125.578 84.4086 125.663 84.3831C125.748 84.3661 125.91 84.332 126.165 84.2895C126.25 84.3746 126.336 84.4767 126.412 84.6043C126.54 84.817 126.514 85.0382 126.353 85.2935C126.14 85.5403 125.646 85.8636 124.855 86.2635C124.064 86.6634 123.187 87.0207 122.226 87.3611C121.264 87.6929 120.328 87.9822 119.41 88.2375C118.491 88.4842 117.801 88.6119 117.342 88.6119C116.755 88.6119 116.227 88.5353 115.751 88.3906C115.274 88.246 115.028 88.0673 115.028 87.8631C115.028 87.6163 115.113 87.3185 115.274 86.9867C115.402 86.7825 115.521 86.2805 115.649 85.4892C115.776 84.6979 115.887 83.6769 115.989 82.4261C116.091 81.1753 116.185 79.7289 116.27 78.0782C116.355 76.4276 116.398 74.6493 116.398 72.7263C116.398 71.7223 116.346 70.6247 116.244 69.408C116.142 68.1998 115.879 67.0596 115.462 65.996C115.045 64.9325 114.432 64.0391 113.615 63.3073C112.798 62.5756 111.684 62.2097 110.271 62.2097C109.438 62.2097 108.689 62.3288 108.017 62.5501C107.353 62.7798 106.783 63.0606 106.332 63.3924C105.413 64.0986 104.63 64.975 103.984 66.0216C103.337 67.0596 102.911 68.5486 102.699 70.463C102.614 71.3394 102.529 72.2498 102.452 73.1858C102.367 74.1217 102.324 75.1938 102.324 76.402C102.324 77.9846 102.367 79.3035 102.452 80.3415C102.537 81.3796 102.682 82.2049 102.886 82.809C103.09 83.4131 103.345 83.83 103.635 84.0598C103.924 84.2895 104.298 84.4086 104.758 84.4086C105.217 84.4086 105.532 84.3661 105.694 84.281C105.898 84.1959 106.051 84.3235 106.128 84.6554C106.213 84.9872 106.187 85.1999 106.068 85.2765C105.898 85.4467 105.464 85.7019 104.758 86.0593C104.052 86.4166 103.235 86.7825 102.316 87.1569C101.397 87.5313 100.461 87.8631 99.4995 88.1609C98.538 88.4502 97.7297 88.5948 97.0575 88.5948C96.3513 88.5948 95.7983 88.5097 95.3984 88.3481C94.9985 88.1779 94.8028 87.9907 94.8028 87.7865C94.8028 87.744 94.8453 87.6078 94.9304 87.3781C95.0155 87.1484 95.075 86.9527 95.1176 86.7825C95.2877 85.4892 95.4409 84.2895 95.5855 83.1834C95.7302 82.0773 95.8323 80.8775 95.9004 79.5842C95.9599 78.2909 96.011 76.8104 96.0535 75.1428C96.0961 73.4751 96.1131 71.45 96.1131 69.0761C96.1131 66.7023 95.7472 65.0941 95.0155 64.005C94.2837 62.9244 93.5265 62.3799 92.7352 62.3799C92.4033 62.3799 92.1226 62.4139 91.8928 62.4735C91.6631 62.533 91.4419 62.5841 91.2377 62.6266C90.9909 62.6692 90.8633 62.5416 90.8633 62.2523V61.8183C90.8633 61.8183 91.3227 61.4865 92.114 60.9419C92.9053 60.3974 93.8413 59.8188 94.9304 59.1892C96.011 58.568 97.1426 57.9895 98.3083 57.4704C99.474 56.9514 100.435 56.6876 101.184 56.6876C101.686 56.6876 102.112 56.8323 102.469 57.1216C102.826 57.4109 103.005 57.9554 103.005 58.7467C103.005 59.1211 102.997 59.538 102.971 59.9975C102.945 60.4569 102.928 60.9334 102.911 61.4354C102.886 61.9374 102.86 62.4224 102.818 62.9074C102.775 63.3839 102.758 63.7923 102.758 64.1242C103.345 63.5796 104.086 62.8734 104.979 61.997C105.872 61.1206 106.885 60.2868 108.008 59.4955C109.131 58.7042 110.356 58.015 111.667 57.4279C112.977 56.8408 114.364 56.5515 115.827 56.5515C117.742 56.5515 119.307 57.1131 120.516 58.2447C121.724 59.3679 122.371 61.3333 122.456 64.1242C123.119 63.4945 123.936 62.7458 124.898 61.8694C125.859 60.993 126.931 60.1592 128.122 59.3679C129.314 58.5766 130.573 57.9044 131.909 57.3683C133.245 56.8238 134.597 56.5515 135.976 56.5515C140.809 56.5515 143.234 59.1126 143.234 64.2433C143.234 65.0771 143.191 66.0386 143.106 67.1192C143.021 68.1998 142.919 69.3399 142.791 70.5311C142.664 71.7223 142.561 72.8965 142.476 74.0622C142.391 75.2279 142.349 76.2914 142.349 77.2529C142.349 81.5923 143.497 83.762 145.786 83.762C146.161 83.762 146.577 83.7109 147.037 83.6088C147.496 83.5067 147.956 83.3791 148.415 83.2344C148.875 83.0898 149.292 82.9451 149.666 82.8005C150.04 82.6558 150.313 82.5197 150.483 82.3921H150.542L150.559 82.4261Z" fill="white"></path><path d="M151.955 86.306C151.623 86.5188 151.308 86.8591 151.019 87.3356C150.73 87.8121 150.543 88.1779 150.458 88.4332C150.415 88.5183 150.304 88.5863 150.109 88.6544C149.921 88.714 149.785 88.748 149.7 88.748C149.326 88.748 149.139 88.5608 149.139 88.1864C149.139 88.0588 149.309 87.727 149.641 87.1824C149.887 86.7655 150.287 86.1103 150.832 85.2084C151.376 84.315 151.929 83.3961 152.491 82.4602C153.053 81.5242 153.572 80.6649 154.057 79.8991C154.533 79.1248 154.882 78.6143 155.086 78.3675C155.29 78.1633 155.546 78.1293 155.835 78.2739C156.124 78.4186 156.209 78.5973 156.082 78.81C155.997 78.8951 155.937 78.9972 155.894 79.1248C155.852 79.2524 155.835 79.4566 155.835 79.7544C155.835 80.1288 156.158 80.5968 156.805 81.1583C157.452 81.7199 158.277 82.2645 159.272 82.7835C160.276 83.3025 161.374 83.7535 162.582 84.1278C163.79 84.5022 164.982 84.6894 166.147 84.6894C167.526 84.6894 168.615 84.298 169.432 83.4982C170.248 82.7069 170.648 81.6604 170.648 80.3671C170.648 78.9121 170.189 77.823 169.27 77.1168C168.351 76.4106 167.219 75.866 165.858 75.4916C164.505 75.1173 163.025 74.811 161.417 74.5812C159.808 74.3515 158.328 74.0111 156.975 73.5517C155.622 73.0922 154.482 72.4285 153.563 71.5522C152.644 70.6758 152.185 69.408 152.185 67.7403C152.185 66.447 152.636 65.1367 153.529 63.8008C154.423 62.465 155.614 61.2823 157.094 60.2358C158.575 59.1977 160.276 58.3383 162.191 57.6747C164.105 57.011 166.113 56.6707 168.198 56.6707C168.828 56.6707 169.551 56.7302 170.385 56.8578C171.218 56.9855 172.044 57.1386 172.852 57.3258C173.669 57.513 174.418 57.7002 175.107 57.8874C175.796 58.0746 176.307 58.2362 176.638 58.3553C176.723 58.3553 176.698 58.5255 176.579 58.8574C176.451 59.2317 176.145 59.8103 175.643 60.5761C175.141 61.3504 174.588 62.1076 173.984 62.8564C173.38 63.6051 172.818 64.2773 172.299 64.8559C171.78 65.443 171.414 65.7323 171.201 65.7323H170.827C170.614 65.7323 170.47 65.6898 170.385 65.6047C170.427 65.4005 170.444 65.1282 170.444 64.7878C170.444 63.3329 169.789 62.1842 168.47 61.3504C167.16 60.5165 165.245 60.0996 162.744 60.0996C161.536 60.0996 160.54 60.457 159.774 61.1632C159 61.8694 158.617 62.7288 158.617 63.7243C158.617 65.3494 159.077 66.5576 159.996 67.3489C160.915 68.1402 162.063 68.7358 163.433 69.1357C164.811 69.5356 166.292 69.8334 167.875 70.0461C169.457 70.2504 170.938 70.5737 172.316 71.0161C173.694 71.4586 174.835 72.1137 175.754 72.9901C176.672 73.8665 177.132 75.1768 177.132 76.9296C177.132 77.7209 176.962 78.4952 176.63 79.2439C176.298 79.9927 175.856 80.7074 175.32 81.3711C174.775 82.0347 174.171 82.6559 173.507 83.2174C172.844 83.779 172.171 84.2725 171.508 84.6894C170.878 85.1063 170.172 85.5318 169.381 85.9742C168.589 86.4167 167.73 86.8166 166.82 87.1909C165.901 87.5653 164.965 87.8716 164.003 88.1014C163.042 88.3311 162.089 88.4417 161.127 88.4417C160.668 88.4417 159.936 88.3481 158.941 88.1609C157.937 87.9737 156.933 87.7525 155.912 87.5058C154.89 87.259 153.98 87.0123 153.189 86.7825C152.397 86.5528 151.981 86.3996 151.938 86.3145" fill="white"></path><path d="M4.20324 109.058C4.73077 109.058 5.14769 109.186 5.454 109.432L5.73478 111.27L4.79884 111.381L4.51806 110.13C4.33087 110.062 4.14368 110.028 3.95649 110.028C3.53106 110.028 3.1737 110.207 2.89292 110.564C2.61213 110.921 2.46749 111.381 2.46749 111.951V115.55H4.1607V116.486H0.0340343V115.55H1.31032V110.113H0V109.177H2.39942V110.487C2.54407 110.079 2.7738 109.739 3.09712 109.458C3.42045 109.177 3.78632 109.041 4.20324 109.041V109.058Z" fill="white"></path><path d="M15.4008 116.503H12.9418V115.125C12.7121 115.584 12.3718 115.959 11.9293 116.239C11.4869 116.52 10.9764 116.665 10.3978 116.665C9.68306 116.665 9.08746 116.444 8.60247 116.001C8.11748 115.559 7.87073 114.853 7.87073 113.874V110.13H6.58594V109.194H9.01939V113.542C9.01939 114.333 9.18106 114.887 9.51289 115.201C9.84472 115.516 10.2616 115.678 10.7807 115.678C11.4018 115.678 11.9123 115.44 12.3122 114.972C12.7121 114.504 12.9248 114.002 12.9418 113.474V110.122H11.4188V109.186H14.099V115.559H15.4093V116.495L15.4008 116.503Z" fill="white"></path><path d="M22.1978 114.384C22.1978 115.099 21.9 115.652 21.3044 116.061C20.7088 116.469 19.9685 116.665 19.0922 116.665C18.5731 116.665 18.0626 116.597 17.5606 116.46C17.0586 116.324 16.6417 116.154 16.3184 115.941L16.5481 114.282L17.467 114.384L17.416 115.354C17.918 115.593 18.4625 115.712 19.0411 115.712C19.5516 115.712 20.0111 115.61 20.411 115.405C20.8109 115.201 21.0066 114.895 21.0066 114.478C21.0066 114.061 20.8534 113.789 20.5471 113.627C20.2408 113.465 19.8579 113.346 19.407 113.27C18.956 113.193 18.4966 113.1 18.0371 112.989C17.5776 112.878 17.1947 112.691 16.8884 112.419C16.5821 112.155 16.429 111.73 16.429 111.16C16.429 110.385 16.7098 109.832 17.2798 109.517C17.8499 109.203 18.471 109.041 19.1347 109.041C19.6367 109.041 20.1132 109.109 20.5556 109.237C20.9981 109.364 21.3725 109.526 21.6788 109.713L21.8574 111.423L20.9045 111.543L20.7258 110.36C20.2663 110.122 19.7643 110.002 19.2283 110.002C18.7688 110.002 18.3945 110.088 18.0967 110.266C17.7989 110.445 17.6542 110.717 17.6542 111.083C17.6542 111.449 17.8074 111.738 18.1137 111.9C18.42 112.062 18.7944 112.172 19.2453 112.249C19.6963 112.317 20.1387 112.41 20.5897 112.521C21.0406 112.632 21.415 112.827 21.7213 113.108C22.0276 113.389 22.1808 113.814 22.1808 114.393L22.1978 114.384Z" fill="white"></path><path d="M28.8528 114.529C28.6571 115.95 27.8828 116.665 26.5385 116.665C25.8067 116.665 25.2452 116.461 24.8538 116.044C24.4624 115.627 24.2667 115.065 24.2667 114.351V110.113H23.084V109.194H24.2667V106.846H25.4153V109.194H28.2742V110.113H25.4153V114.206C25.4153 114.64 25.5089 114.997 25.7046 115.269C25.8918 115.542 26.2066 115.669 26.6491 115.669C26.9299 115.669 27.2021 115.584 27.4489 115.406C27.6956 115.227 27.8743 114.844 27.9849 114.257L28.8528 114.538V114.529Z" fill="white"></path><path d="M33.2021 116.503H29.4923V115.567H30.7771V110.13H29.4668V109.194H31.9258V115.567H33.2106V116.503H33.2021ZM30.658 107.305V105.808H31.9088V107.305H30.658Z" fill="white"></path><path d="M40.5606 114.036C40.4585 114.674 40.1777 115.269 39.7012 115.822C39.2247 116.384 38.4845 116.656 37.4805 116.656C36.4764 116.656 35.6681 116.333 35.064 115.678C34.4599 115.023 34.1621 114.112 34.1621 112.946C34.1621 111.942 34.4429 111.032 35.013 110.241C35.583 109.441 36.4339 109.041 37.574 109.041C38.059 109.041 38.5015 109.092 38.9014 109.203C39.3013 109.313 39.6927 109.509 40.0671 109.79L40.3478 111.551L39.3949 111.662L39.1141 110.428C38.6802 110.156 38.1526 110.019 37.557 110.019C36.7828 110.019 36.2212 110.3 35.8808 110.853C35.5405 111.415 35.3703 112.087 35.3703 112.87C35.3703 113.746 35.566 114.427 35.9489 114.92C36.3318 115.414 36.8849 115.661 37.6081 115.661C38.7057 115.661 39.3609 115.04 39.5821 113.806L40.5691 114.019L40.5606 114.036Z" fill="white"></path><path d="M58.8699 116.503H55.3729V115.567H56.4364V112.164C56.4364 111.372 56.2833 110.819 55.9685 110.496C55.6536 110.173 55.2622 110.011 54.7773 110.011C54.1136 110.011 53.5946 110.266 53.2372 110.768C52.8798 111.27 52.6926 111.755 52.6756 112.215V115.567H53.9434V116.503H50.4634V115.567H51.5185V112.164C51.5185 111.364 51.3653 110.802 51.059 110.487C50.7527 110.173 50.3613 110.011 49.8933 110.011C49.2126 110.011 48.6936 110.258 48.3448 110.743C47.9874 111.228 47.8002 111.713 47.7747 112.181V115.567H49.119V116.503H45.3412V115.567H46.6175V110.13H45.3242V109.194H47.7747V110.556C48.0129 110.122 48.3363 109.756 48.7447 109.475C49.1531 109.194 49.6466 109.05 50.2252 109.05C50.8037 109.05 51.2887 109.194 51.7142 109.475C52.1396 109.756 52.4204 110.207 52.5735 110.802C52.7948 110.292 53.1181 109.866 53.552 109.535C53.986 109.203 54.522 109.041 55.1516 109.041C55.8493 109.041 56.4364 109.262 56.9044 109.696C57.3724 110.13 57.6021 110.836 57.6021 111.815V115.559H58.8869V116.495L58.8699 116.503Z" fill="white"></path><path d="M63.2867 116.503H59.577V115.567H60.8533V110.13H59.543V109.194H62.0019V115.567H63.2867V116.503ZM60.7427 107.305V105.808H61.9934V107.305H60.7427Z" fill="white"></path><path d="M72.8753 116.503H69.1826V115.567H70.4504V112.164C70.4504 111.372 70.2887 110.819 69.9739 110.496C69.6591 110.173 69.2506 110.011 68.7571 110.011C68.102 110.011 67.5745 110.224 67.1746 110.658C66.7746 111.092 66.5619 111.585 66.5449 112.147V115.559H67.8297V116.495H64.12V115.559H65.3963V110.122H64.0859V109.186H66.5449V110.479C67.0724 109.517 67.9233 109.032 69.106 109.032C69.8207 109.032 70.4163 109.254 70.8928 109.688C71.3778 110.122 71.616 110.828 71.616 111.806V115.55H72.8838V116.486L72.8753 116.503Z" fill="white"></path><path d="M77.2906 116.503H73.5809V115.567H74.8572V110.13H73.5469V109.194H76.0059V115.567H77.2906V116.503ZM74.7466 107.305V105.808H75.9973V107.305H74.7466Z" fill="white"></path><path d="M91.6453 116.503H88.1482V115.567H89.2118V112.164C89.2118 111.372 89.0587 110.819 88.7438 110.496C88.429 110.173 88.0376 110.011 87.5526 110.011C86.889 110.011 86.3699 110.266 86.0126 110.768C85.6552 111.27 85.468 111.755 85.451 112.215V115.567H86.7188V116.503H83.2388V115.567H84.2939V112.164C84.2939 111.364 84.1407 110.802 83.8344 110.487C83.5281 110.173 83.1367 110.011 82.6687 110.011C81.988 110.011 81.469 110.258 81.1202 110.743C80.7628 111.228 80.5756 111.713 80.5501 112.181V115.567H81.8944V116.503H78.1166V115.567H79.3929V110.13H78.0996V109.194H80.5501V110.556C80.7883 110.122 81.1116 109.756 81.5201 109.475C81.9285 109.194 82.422 109.05 83.0006 109.05C83.5791 109.05 84.0641 109.194 84.4896 109.475C84.915 109.756 85.1958 110.207 85.3489 110.802C85.5701 110.292 85.8935 109.866 86.3274 109.535C86.7613 109.203 87.2974 109.041 87.927 109.041C88.6247 109.041 89.2118 109.262 89.6798 109.696C90.1478 110.13 90.3775 110.836 90.3775 111.815V115.559H91.6623V116.495L91.6453 116.503Z" fill="white"></path><path d="M93.126 109.747C93.5089 109.492 93.9173 109.313 94.3427 109.203C94.7682 109.092 95.2276 109.041 95.7041 109.041C97.4484 109.041 98.3162 109.858 98.3162 111.491V114.971C98.3162 115.499 98.5204 115.763 98.9374 115.763C99.1245 115.763 99.2862 115.729 99.4309 115.661L99.4479 116.418C99.1501 116.58 98.8353 116.665 98.4949 116.665C97.627 116.665 97.1846 116.171 97.1676 115.184V115.15C96.9378 115.542 96.6145 115.899 96.1891 116.205C95.7637 116.512 95.2617 116.665 94.6661 116.665C94.1811 116.665 93.6961 116.52 93.1941 116.222C92.6921 115.924 92.4453 115.388 92.4453 114.614C92.4453 113.695 92.8112 113.091 93.5344 112.802C94.2661 112.513 95.0404 112.368 95.8573 112.368C96.0785 112.368 96.2997 112.368 96.5209 112.385C96.7421 112.393 96.9549 112.41 97.1506 112.436V111.781C97.1506 111.253 97.0399 110.828 96.8102 110.496C96.5805 110.164 96.1465 110.002 95.4914 110.002C94.9553 110.002 94.4874 110.105 94.079 110.3L93.7982 111.568L92.8452 111.457L93.109 109.764L93.126 109.747ZM97.1676 113.755V113.193C96.9634 113.185 96.7421 113.168 96.5124 113.142C96.2827 113.117 96.0444 113.108 95.8062 113.108C95.2617 113.108 94.7596 113.193 94.3172 113.363C93.8748 113.534 93.6535 113.899 93.6535 114.469C93.6535 114.937 93.7982 115.261 94.096 115.439C94.3938 115.618 94.7001 115.703 95.0149 115.703C95.5169 115.703 95.9934 115.525 96.4358 115.176C96.8783 114.827 97.125 114.35 97.1676 113.746V113.755Z" fill="white"></path><path d="M103.762 116.503H100.052V115.567H101.328V106.14H100.035V105.204H102.486V115.567H103.77V116.503H103.762Z" fill="white"></path><path d="M108.367 116.503H104.657V115.567H105.933V110.13H104.623V109.194H107.082V115.567H108.367V116.503ZM105.823 107.305V105.808H107.074V107.305H105.823Z" fill="white"></path><path d="M115.239 114.384C115.239 115.099 114.941 115.652 114.345 116.061C113.75 116.469 113.01 116.665 112.133 116.665C111.614 116.665 111.104 116.597 110.602 116.46C110.1 116.324 109.683 116.154 109.359 115.941L109.589 114.282L110.508 114.384L110.457 115.354C110.959 115.593 111.504 115.712 112.082 115.712C112.593 115.712 113.052 115.61 113.452 115.405C113.852 115.201 114.048 114.895 114.048 114.478C114.048 114.061 113.894 113.789 113.588 113.627C113.282 113.465 112.899 113.346 112.448 113.27C111.997 113.193 111.538 113.1 111.078 112.989C110.619 112.878 110.236 112.691 109.929 112.419C109.623 112.155 109.47 111.73 109.47 111.16C109.47 110.385 109.751 109.832 110.321 109.517C110.891 109.203 111.512 109.041 112.176 109.041C112.678 109.041 113.154 109.109 113.597 109.237C114.039 109.364 114.413 109.526 114.72 109.713L114.898 111.423L113.945 111.543L113.767 110.36C113.307 110.122 112.805 110.002 112.269 110.002C111.81 110.002 111.435 110.088 111.138 110.266C110.84 110.445 110.695 110.717 110.695 111.083C110.695 111.449 110.848 111.738 111.155 111.9C111.461 112.062 111.835 112.172 112.286 112.249C112.737 112.317 113.18 112.41 113.631 112.521C114.082 112.632 114.456 112.827 114.762 113.108C115.069 113.389 115.222 113.814 115.222 114.393L115.239 114.384Z" fill="white"></path><path d="M121.894 114.529C121.698 115.95 120.924 116.665 119.579 116.665C118.848 116.665 118.286 116.461 117.895 116.044C117.503 115.627 117.308 115.065 117.308 114.351V110.113H116.125V109.194H117.308V106.846H118.456V109.194H121.315V110.113H118.456V114.206C118.456 114.64 118.55 114.997 118.746 115.269C118.933 115.542 119.248 115.669 119.69 115.669C119.971 115.669 120.243 115.584 120.49 115.406C120.737 115.227 120.915 114.844 121.026 114.257L121.894 114.538V114.529Z" fill="white"></path><path d="M129.738 116.503H126.028V115.567H127.313V106.14H126.02V105.204H128.47V115.567H129.755V116.503H129.738Z" fill="white"></path><path d="M134.341 116.503H130.632V115.567H131.908V110.13H130.598V109.194H133.057V115.567H134.341V116.503ZM131.797 107.305V105.808H133.048V107.305H131.797Z" fill="white"></path><path d="M138.937 105.042C139.277 105.042 139.584 105.076 139.847 105.144C140.12 105.212 140.375 105.348 140.63 105.57L140.911 107.263L139.975 107.382L139.66 106.131C139.439 106.046 139.158 106.003 138.826 106.003C137.958 106.003 137.533 106.582 137.533 107.748V109.211H139.422V110.13H137.533V115.584H139.192V116.52H135.1V115.584H136.367V110.13H135.312V109.211H136.367V107.85C136.367 106.999 136.623 106.318 137.133 105.816C137.644 105.314 138.248 105.059 138.945 105.059L138.937 105.042Z" fill="white"></path><path d="M146.832 114.401C146.73 115.022 146.424 115.558 145.896 116.001C145.369 116.443 144.662 116.664 143.76 116.664C142.731 116.664 141.897 116.341 141.267 115.695C140.629 115.048 140.314 114.137 140.314 112.955C140.314 111.772 140.612 110.879 141.216 110.147C141.82 109.415 142.637 109.049 143.667 109.049C144.696 109.049 145.437 109.364 145.964 110.002C146.492 110.64 146.755 111.389 146.772 112.249C146.772 112.529 146.738 112.827 146.67 113.116H141.531C141.599 114.827 142.365 115.678 143.846 115.678C144.424 115.678 144.884 115.541 145.207 115.269C145.53 114.997 145.751 114.631 145.862 114.189L146.832 114.401ZM145.547 112.266C145.598 111.721 145.471 111.202 145.164 110.726C144.858 110.249 144.339 110.002 143.633 110.002C142.927 110.002 142.459 110.224 142.135 110.674C141.82 111.125 141.616 111.653 141.548 112.266H145.556H145.547Z" fill="white"></path><path d="M153.961 114.384C153.961 115.099 153.664 115.652 153.068 116.061C152.472 116.469 151.732 116.665 150.856 116.665C150.345 116.665 149.826 116.597 149.324 116.46C148.822 116.324 148.405 116.154 148.082 115.941L148.312 114.282L149.231 114.384L149.18 115.354C149.682 115.593 150.226 115.712 150.805 115.712C151.315 115.712 151.775 115.61 152.175 115.405C152.575 115.201 152.77 114.895 152.77 114.478C152.77 114.061 152.617 113.789 152.311 113.627C152.004 113.465 151.622 113.346 151.171 113.27C150.72 113.193 150.26 113.1 149.801 112.989C149.341 112.878 148.958 112.691 148.652 112.419C148.346 112.155 148.193 111.73 148.193 111.16C148.193 110.385 148.473 109.832 149.044 109.517C149.614 109.203 150.235 109.041 150.898 109.041C151.4 109.041 151.877 109.109 152.319 109.237C152.762 109.364 153.136 109.526 153.442 109.713L153.621 111.423L152.668 111.543L152.489 110.36C152.03 110.122 151.528 110.002 150.992 110.002C150.533 110.002 150.158 110.088 149.86 110.266C149.563 110.445 149.418 110.717 149.418 111.083C149.418 111.449 149.571 111.738 149.877 111.9C150.184 112.062 150.558 112.172 151.009 112.249C151.46 112.317 151.902 112.41 152.353 112.521C152.804 112.632 153.179 112.827 153.485 113.108C153.791 113.389 153.944 113.814 153.944 114.393L153.961 114.384Z" fill="white"></path><path d="M160.616 114.529C160.421 115.95 159.646 116.665 158.302 116.665C157.57 116.665 157.009 116.461 156.617 116.044C156.226 115.627 156.03 115.065 156.03 114.351V110.113H154.848V109.194H156.03V106.846H157.179V109.194H160.038V110.113H157.179V114.206C157.179 114.64 157.273 114.997 157.468 115.269C157.664 115.542 157.97 115.669 158.413 115.669C158.694 115.669 158.966 115.584 159.213 115.406C159.459 115.227 159.638 114.844 159.749 114.257L160.616 114.538V114.529Z" fill="white"></path><path d="M169.074 110.13H168.206L165.628 116.503L164.641 119.064H165.891V120H162.182V119.064H163.543L164.496 116.486L161.833 110.13H160.965V109.194H164.351V110.13H163.075L165.126 115.039H165.228L167.048 110.13H165.866V109.194H169.082V110.13H169.074Z" fill="white"></path><path d="M173.259 116.503H169.55V115.567H170.834V106.14H169.541V105.204H171.991V115.567H173.276V116.503H173.259Z" fill="white"></path><path d="M180.73 114.401C180.628 115.022 180.322 115.558 179.795 116.001C179.267 116.443 178.561 116.664 177.659 116.664C176.629 116.664 175.795 116.341 175.166 115.695C174.528 115.048 174.213 114.137 174.213 112.955C174.213 111.772 174.511 110.879 175.115 110.147C175.719 109.415 176.536 109.049 177.565 109.049C178.595 109.049 179.335 109.364 179.863 110.002C180.39 110.64 180.654 111.389 180.671 112.249C180.671 112.529 180.637 112.827 180.569 113.116H175.43C175.498 114.827 176.263 115.678 177.744 115.678C178.323 115.678 178.782 115.541 179.105 115.269C179.437 114.997 179.65 114.631 179.76 114.189L180.73 114.401ZM179.454 112.266C179.505 111.721 179.378 111.202 179.071 110.726C178.756 110.241 178.246 110.002 177.54 110.002C176.834 110.002 176.366 110.224 176.042 110.674C175.727 111.125 175.523 111.653 175.455 112.266H179.463H179.454Z" fill="white"></path></svg>