<svg xmlns="http://www.w3.org/2000/svg" width="124" height="164" viewBox="0 0 124 164" fill="none"><path d="M123.213 61.5078C123.065 61.4546 122.905 61.504 122.806 61.6143L95.2553 91.9704C90.5221 90.7197 86.5994 87.5529 84.1947 83.0213L51.1688 20.7922C54.7834 16.4355 58.7747 10.5429 58.4132 6.095C58.2687 4.30822 57.4316 2.88261 55.9211 1.85616C54.1442 0.647238 52.3369 0.35071 50.5448 0.981783C44.6131 3.06509 40.8007 14.5955 40.3403 16.0629L0.895616 38.5421C0.777667 38.6105 0.705375 38.7359 0.705375 38.869L0.659765 134.134C0.648351 134.188 0.648351 134.241 0.659765 134.294L0.644531 162.776C0.644531 162.909 0.716823 163.035 0.834773 163.103C0.891845 163.137 0.960332 163.152 1.02501 163.152C1.0897 163.152 1.15438 163.137 1.21526 163.103L33.4612 144.551C35.6794 147.497 38.6433 149.854 42.14 151.371C44.9137 152.572 47.8434 153.169 50.7655 153.169C54.285 153.169 57.793 152.303 61.0004 150.58L66.5555 147.6C66.5555 147.6 66.5631 147.592 66.5669 147.592C66.5746 147.592 66.5784 147.589 66.586 147.585L108.534 119.844C108.557 119.829 108.568 119.81 108.587 119.791C108.599 119.779 108.614 119.768 108.626 119.753C108.645 119.726 108.656 119.7 108.667 119.673C108.675 119.658 108.683 119.643 108.686 119.624C108.694 119.597 108.694 119.567 108.694 119.54C108.694 119.521 108.694 119.498 108.694 119.479C108.694 119.453 108.679 119.43 108.671 119.403C108.664 119.384 108.663 119.365 108.656 119.35C108.656 119.346 108.648 119.342 108.644 119.338C108.644 119.335 108.645 119.327 108.637 119.323C108.626 119.308 108.61 119.297 108.599 119.285C108.58 119.266 108.565 119.243 108.542 119.228C108.527 119.217 108.508 119.209 108.488 119.202C108.462 119.19 108.439 119.175 108.409 119.167C108.393 119.164 108.374 119.167 108.359 119.164C108.329 119.164 108.298 119.156 108.264 119.164C108.249 119.164 108.234 119.175 108.218 119.179C108.192 119.186 108.169 119.19 108.142 119.202L102.587 122.186C96.0848 125.68 88.1936 125.463 81.8814 121.654L112.875 87.6327C112.875 87.6327 112.883 87.6289 112.887 87.6251L113.127 87.3628C114.698 85.5874 115.912 83.4927 116.737 81.1433L123.453 61.9944C123.521 61.7967 123.419 61.5838 123.221 61.5154L123.213 61.5078ZM94.6884 92.5939L87.6571 100.342C87.6228 100.38 87.5962 100.421 87.581 100.471L80.8655 119.62C80.2453 121.391 79.3816 123.003 78.32 124.429L77.9015 124.889C77.8521 124.942 77.8293 125.011 77.814 125.079C74.8995 128.633 70.6876 130.876 65.9163 131.238C58.9878 131.762 52.5918 128.215 49.1751 121.981L83.7914 83.8387C86.2493 88.1916 90.0845 91.2709 94.6922 92.5939H94.6884ZM30.4287 136.419L5.06188 40.8459L44.2744 14.9148L11.1458 51.4144C11.1458 51.4144 11.1459 51.422 11.1421 51.422C11.1231 51.4448 11.1116 51.4677 11.1002 51.4943C11.0888 51.5133 11.0773 51.5285 11.0697 51.5513C11.0621 51.5741 11.0621 51.6007 11.0583 51.6235C11.0583 51.6463 11.0507 51.6691 11.0507 51.692C11.0507 51.7148 11.0621 51.7338 11.0659 51.7566C11.0735 51.7832 11.0773 51.8098 11.0888 51.8326C11.0888 51.8326 11.0888 51.8402 11.0888 51.844L48.3761 122.098C49.0533 123.376 49.8523 124.543 50.7465 125.6L30.4249 136.415L30.4287 136.419ZM36.8817 18.8989L5.88378 39.3974L8.59277 35.0217L36.8817 18.8989ZM45.1343 26.7227C45.2104 26.7988 45.3093 26.8406 45.4083 26.8406C45.5034 26.8406 45.5948 26.8064 45.6671 26.7379C45.7812 26.6315 46.4318 26.0042 47.3792 25.0234C47.6037 25.4416 47.7369 25.9358 47.7369 26.468C47.7369 27.9735 46.6943 29.1976 45.4083 29.1976C44.1222 29.1976 43.0798 27.9735 43.0798 26.468C43.0798 24.9626 44.1222 23.7384 45.4083 23.7384C45.9866 23.7384 46.5155 23.9894 46.9226 24.3999C45.8763 25.4986 45.18 26.1677 45.1496 26.1943C44.9974 26.3388 44.9936 26.5783 45.1343 26.7265V26.7227ZM48.7946 121.27L11.884 51.7224L15.8791 47.3239L53.5696 116.008L48.7946 121.27ZM53.7598 115.799L16.0693 47.1148L21.0993 41.572L58.7899 110.256L53.7598 115.799ZM58.9801 110.047L21.2895 41.3629L26.3576 35.7783L64.0481 104.463L58.9801 110.047ZM64.2422 104.25L26.5516 35.5654L31.5549 30.053L69.2456 98.7373L64.2422 104.25ZM69.4358 98.5244L31.7452 29.8401L36.817 24.2479L74.5076 92.9322L69.432 98.5244H69.4358ZM74.7016 92.7231L37.0111 24.0388L41.9839 18.5606L44.4951 23.134C43.2434 23.575 42.3302 24.8979 42.3302 26.4604C42.3302 28.3803 43.7113 29.9427 45.4121 29.9427C46.2872 29.9427 47.0786 29.5284 47.6379 28.8631L79.6746 87.245L74.7016 92.7231ZM45.4083 22.9781C45.1838 22.9781 44.9669 23.0085 44.7577 23.0579L42.1742 18.3477L46.4927 13.588L50.2518 20.6743C49.2321 21.887 48.2581 22.9667 47.4363 23.8449C46.8922 23.3051 46.1845 22.9781 45.4083 22.9781ZM1.41692 121.182L18.3446 93.837L20.559 102.178L1.4093 133.116L1.41692 121.182ZM1.41692 120.669L1.42454 108.747L16.0388 85.1388L18.2533 93.4759L1.42073 120.665L1.41692 120.669ZM1.42454 108.234L1.43216 96.3119L13.7293 76.4407L15.9437 84.7815L1.42454 108.234ZM1.43216 95.7987L1.43977 83.8653L11.4236 67.7425L13.638 76.0795L1.43596 95.7987H1.43216ZM1.43977 83.3521L1.4473 71.4301L9.11408 59.0367L11.3285 67.3814L1.43977 83.3521ZM1.4473 70.9169L1.45491 58.9835L6.80833 50.3386L9.02277 58.6794L1.45111 70.9169H1.4473ZM1.45491 58.4703L1.46253 46.5445L4.49878 41.6366L6.71321 49.9774L1.45491 58.4665V58.4703ZM20.6617 102.535L22.8761 110.876L12.3177 127.934L1.45491 133.564L20.6617 102.535ZM22.9712 111.233L25.1818 119.559L23.6294 122.064L12.7819 127.687L22.9674 111.233H22.9712ZM25.277 119.916L25.5776 121.053L24.0974 121.821L25.277 119.916ZM83.4109 83.1316L79.8724 87.0321L47.8244 28.6274C48.2467 28.0305 48.5016 27.2778 48.5016 26.4566C48.5016 25.7077 48.2886 25.0158 47.9309 24.4456C48.7261 23.6054 49.6659 22.5713 50.6513 21.408L83.4109 83.1316ZM50.8036 1.68509C52.3559 1.14145 53.9387 1.40377 55.5063 2.47203C56.8342 3.37682 57.5418 4.57814 57.6674 6.14822C58.0022 10.235 54.2583 15.812 50.7807 20.0432L46.9264 12.7783C46.9264 12.7783 46.9226 12.7707 46.9188 12.7631V12.7517C46.9188 12.7517 46.9112 12.7517 46.9112 12.7479C46.9112 12.7479 46.9112 12.7441 46.9112 12.7403C46.9112 12.7403 46.9112 12.7403 46.9074 12.7365C46.9074 12.7327 46.9074 12.7251 46.8998 12.7213C46.8922 12.7061 46.877 12.6985 46.8655 12.6871C46.8541 12.6756 46.8503 12.6604 46.8389 12.649C46.8351 12.649 46.8313 12.6452 46.8275 12.6414C46.8275 12.6414 46.8198 12.6376 46.816 12.6338C46.816 12.6338 46.8085 12.63 46.8085 12.6262C46.7895 12.611 46.7704 12.6034 46.7514 12.5958C46.7362 12.5882 46.721 12.5768 46.702 12.573C46.6982 12.573 46.6943 12.573 46.6905 12.573C46.6867 12.573 46.6829 12.573 46.6791 12.573C46.6601 12.5692 46.6373 12.5692 46.6183 12.5654C46.5992 12.5654 46.584 12.5578 46.565 12.5616C46.5611 12.5616 46.5573 12.5616 46.5497 12.5616C46.5421 12.5616 46.5383 12.5616 46.5345 12.5616C46.5155 12.5616 46.5003 12.573 46.4813 12.5768C46.4622 12.5844 46.4432 12.5844 46.4242 12.5958C46.4204 12.5958 46.4166 12.5958 46.4128 12.5958C46.4128 12.5958 46.4128 12.5958 46.409 12.5958C46.409 12.5958 46.409 12.5958 46.4052 12.5958L41.3409 15.4813C42.372 12.5236 45.9067 3.39583 50.8111 1.67368L50.8036 1.68509ZM8.10955 35.2955L5.35486 39.7472L4.42651 40.3592C4.42651 40.3592 4.41888 40.3668 4.41508 40.3707C4.39225 40.3859 4.37707 40.4087 4.35805 40.4277C4.34283 40.4429 4.32756 40.4581 4.31234 40.4771C4.30093 40.4961 4.29339 40.5189 4.28578 40.5417C4.27817 40.5645 4.26673 40.5873 4.26292 40.6102C4.26292 40.633 4.26292 40.652 4.26292 40.6748C4.26292 40.7014 4.26293 40.728 4.26673 40.7546C4.26673 40.7584 4.26673 40.7622 4.26673 40.7698L4.39985 41.2792L1.45872 46.0313V39.0819L8.10574 35.2955H8.10955ZM1.4055 162.118L1.42073 134.435L25.7792 121.806L29.8313 137.069C30.4934 139.571 31.5816 141.882 33.016 143.935L1.4055 162.122V162.118ZM92.7137 125.406C95.7728 125.406 98.8357 124.76 101.689 123.459L66.1865 146.935L60.6466 149.908C54.9812 152.949 48.3456 153.23 42.4443 150.672C36.6343 148.155 32.3501 143.236 30.6455 137.157L51.2716 126.178C54.7111 129.907 59.4557 132.036 64.577 132.036C65.0412 132.036 65.5092 132.017 65.981 131.983C71.2507 131.587 75.8659 128.983 78.9174 124.896L81.3677 122.209C84.8377 124.334 88.7719 125.41 92.7137 125.41V125.406ZM116.026 80.881C115.234 83.1354 114.074 85.1388 112.575 86.8382C112.575 86.8382 112.567 86.8382 112.567 86.8458L80.8617 121.646C81.1318 121.072 81.3753 120.475 81.5884 119.863L88.2811 100.786L122.129 63.4961L116.03 80.8848L116.026 80.881Z" fill="#F16C3F"></path></svg>