<svg xmlns="http://www.w3.org/2000/svg" width="102" height="101" viewBox="0 0 102 101" fill="none"><path d="M88.5002 0H13.1878C6.25497 0 0.634766 5.61397 0.634766 12.5391V87.7684C0.634766 94.6935 6.25497 100.307 13.1878 100.307H88.5002C95.433 100.307 101.053 94.6935 101.053 87.7684V12.5391C101.053 5.61397 95.433 0 88.5002 0Z" fill="#EAEFFD"></path><path d="M72.8113 43.774V71.1815C72.8113 72.9397 71.3851 74.3643 69.625 74.3643H62.5844C61.5034 74.3643 60.6262 73.488 60.6262 72.4082V56.1775C60.6262 53.8652 58.7472 51.9883 56.4324 51.9883H45.249C42.9342 51.9883 41.0553 53.8652 41.0553 56.1775V72.4082C41.0553 73.488 40.178 74.3643 39.097 74.3643H32.0565C30.2963 74.3643 28.8701 72.9397 28.8701 71.1815V43.774C28.8701 42.796 29.3229 41.8688 30.0982 41.2639L48.8825 26.6161C50.037 25.7172 51.6557 25.7172 52.8046 26.6161L71.5889 41.2639C72.3642 41.8688 72.817 42.796 72.817 43.774H72.8113Z" fill="#0868A4"></path></svg>