<svg xmlns="http://www.w3.org/2000/svg" width="102" height="101" viewBox="0 0 102 101" fill="none"><path d="M89.2533 0.098877H13.4938C6.5203 0.098877 0.867188 5.74574 0.867188 12.7115V88.3873C0.867188 95.3531 6.5203 101 13.4938 101H89.2533C96.2268 101 101.88 95.3531 101.88 88.3873V12.7115C101.88 5.74574 96.2268 0.098877 89.2533 0.098877Z" fill="#EAEFFD"></path><path d="M52.3814 55.4961C54.8886 57.5256 58.856 58.7241 63.429 58.7241C68.0019 58.7241 71.975 57.5256 74.4765 55.4961V60.3523C72.773 62.8681 68.4887 64.4849 63.429 64.4849C58.3693 64.4849 54.0963 62.8737 52.3814 60.358V55.4961ZM52.3814 35.0366C52.3814 31.588 56.9204 28.9818 63.0045 28.8631C63.146 28.8631 63.2875 28.8518 63.429 28.8518C69.3376 28.8518 73.8823 31.1866 74.4312 34.4317C74.4539 34.5673 74.4595 34.7087 74.4652 34.85C74.4652 34.9122 74.4822 34.9744 74.4822 35.0366C74.4822 38.5586 69.7281 41.2157 63.429 41.2157C57.1298 41.2157 52.3984 38.5699 52.3758 35.0592V35.0422L52.3814 35.0366ZM63.4346 43.2226C68.2566 43.2226 72.2297 41.8206 74.4822 39.5819V44.8169C72.7787 47.3326 68.4943 48.9495 63.4346 48.9495C58.3749 48.9495 54.1019 47.3383 52.3871 44.8225V39.5762C54.6396 41.8206 58.6127 43.2226 63.4403 43.2226H63.4346ZM52.3814 47.7284C54.8886 49.7579 58.856 50.9564 63.429 50.9564C68.0019 50.9564 71.975 49.7579 74.4765 47.7284V52.5846C72.773 55.1003 68.4887 56.7172 63.429 56.7172C58.3693 56.7172 54.0963 55.106 52.3814 52.5902V50.5381C52.3814 50.5381 52.3814 50.5042 52.3814 50.4815C52.3814 50.4589 52.3814 50.4476 52.3814 50.425V47.7227V47.7284ZM39.3247 44.3024C45.5956 44.3024 50.3326 46.9369 50.3722 50.4363V50.4759C50.3722 50.4759 50.3722 50.4815 50.3722 50.4872V50.555C50.31 54.0432 45.5842 56.6663 39.3247 56.6663C33.0652 56.6663 28.2828 54.0149 28.2715 50.4985V50.4872C28.2715 46.9652 33.0256 44.3081 39.3247 44.3081V44.3024ZM39.3247 58.6733C44.1467 58.6733 48.1197 57.2712 50.3722 55.0325V60.2675C48.6687 62.7833 44.3844 64.4001 39.3247 64.4001C34.265 64.4001 29.992 62.7889 28.2771 60.2732V55.0268C30.5297 57.2712 34.5027 58.6733 39.3304 58.6733H39.3247ZM39.3247 72.2583C33.0312 72.2583 28.2828 69.5955 28.2771 66.0735V63.179C30.7844 65.2085 34.7518 66.407 39.3247 66.407C43.8977 66.407 47.8707 65.2085 50.3722 63.179V66.0678C50.3553 69.5955 45.6069 72.2583 39.3247 72.2583ZM63.4346 72.2583C57.1411 72.2583 52.3927 69.5955 52.3871 66.0735V63.2694C54.8943 65.299 58.8617 66.4975 63.4346 66.4975C68.0076 66.4975 71.9807 65.299 74.4822 63.2694V66.0678C74.4652 69.5955 69.7168 72.2583 63.4346 72.2583Z" fill="#0868A4"></path></svg>