<svg xmlns="http://www.w3.org/2000/svg" width="101" height="101" viewBox="0 0 101 101" fill="none"><path d="M87.8654 0H12.553C5.62017 0 0 5.61397 0 12.5391V87.7684C0 94.6935 5.62017 100.307 12.553 100.307H87.8654C94.7983 100.307 100.418 94.6935 100.418 87.7684V12.5391C100.418 5.61397 94.7983 0 87.8654 0Z" fill="#EAEFFD"></path><path d="M48.2032 81.7476H29.6001C25.6836 81.7476 22.5029 78.5647 22.5029 74.6583V25.655C22.5029 21.7429 25.6893 18.5657 29.6001 18.5657H48.2032C52.1197 18.5657 55.3004 21.7485 55.3004 25.655V74.6583C55.3004 78.5704 52.114 81.7476 48.2032 81.7476ZM29.6001 23.682C28.5134 23.682 27.6249 24.5695 27.6249 25.655V74.6583C27.6249 75.7437 28.5134 76.6313 29.6001 76.6313H48.2032C49.2899 76.6313 50.1784 75.7437 50.1784 74.6583V25.655C50.1784 24.5695 49.2899 23.682 48.2032 23.682H29.6001Z" fill="#0868A4"></path><path d="M52.737 47.5957H25.0615V52.712H52.737V47.5957Z" fill="#0868A4"></path><path d="M52.737 62.187H25.0615V67.3033H52.737V62.187Z" fill="#0868A4"></path><path d="M52.737 33.0044H25.0615V38.1207H52.737V33.0044Z" fill="#0868A4"></path><path d="M41.4628 21.1211H36.3408V79.1867H41.4628V21.1211Z" fill="#0868A4"></path><path d="M73.7451 81.7476H48.209V76.6313H73.7451C74.8261 76.6313 75.7034 75.7551 75.7034 74.6753V54.668C75.7034 53.5883 74.8261 52.712 73.7451 52.712H54.1629V47.5957H73.7451C77.6503 47.5957 80.8253 50.7672 80.8253 54.668V74.6753C80.8253 78.5761 77.6503 81.7476 73.7451 81.7476Z" fill="#0868A4"></path><path d="M67.9036 56.9746H62.7646V62.1079H67.9036V56.9746Z" fill="#0868A4"></path><path d="M67.9036 66.9753H62.7646V72.1086H67.9036V66.9753Z" fill="#0868A4"></path></svg>