<svg xmlns="http://www.w3.org/2000/svg" width="101" height="101" viewBox="0 0 101 101" fill="none"><path d="M88.4475 0.398438H13.135C6.20217 0.398438 0.582031 6.01241 0.582031 12.9376V88.1668C0.582031 95.092 6.20217 100.706 13.135 100.706H88.4475C95.3803 100.706 101 95.092 101 88.1668V12.9376C101 6.01241 95.3803 0.398438 88.4475 0.398438Z" fill="#EAEFFD"></path><path d="M53.9467 25.2563L81.5825 72.1396C83.0201 74.5762 81.2599 77.6459 78.4301 77.6459H23.1641C20.3343 77.6459 18.5798 74.5762 20.0116 72.1396L47.6476 25.2563C49.0625 22.8592 52.5374 22.8592 53.9523 25.2563H53.9467Z" fill="#0868A4"></path><path d="M58.2705 55.0213L47.6532 69.72C47.4721 69.9631 47.2004 70.0818 46.9004 70.0818C46.7816 70.0818 46.6288 70.0535 46.5099 69.9913C46.1194 69.8104 45.9043 69.3582 46.0288 68.9398L48.5926 59.4817H44.0367C43.7028 59.4817 43.4028 59.3008 43.25 59.0012C43.0972 58.7016 43.0971 58.368 43.2782 58.0684L52.6845 43.3979C52.9279 43.0361 53.3807 42.8835 53.7712 43.0361C54.1617 43.1888 54.4051 43.6071 54.3428 44.0311L52.8657 53.6079H57.5405C57.8744 53.6079 58.2026 53.7888 58.3554 54.0884C58.5083 54.3881 58.4461 54.7499 58.2649 55.0213H58.2705Z" fill="#CED9F2"></path></svg>