<svg xmlns="http://www.w3.org/2000/svg" width="102" height="101" viewBox="0 0 102 101" fill="none"><path d="M88.3861 0.098877H12.6266C5.65311 0.098877 0 5.74574 0 12.7115V88.3873C0 95.3531 5.65311 101 12.6266 101H88.3861C95.3596 101 101.013 95.3531 101.013 88.3873V12.7115C101.013 5.74574 95.3596 0.098877 88.3861 0.098877Z" fill="#EAEFFD"></path><path d="M48.7408 25.9405C35.9557 26.8224 25.8193 37.4677 25.8193 50.4987C25.8193 54.3429 26.7532 58.0289 28.3152 61.2457L48.7464 49.5093V25.9348L48.7408 25.9405Z" fill="#0868A4"></path><path d="M52.2725 25.9404V49.5149L72.7036 61.3022C74.3166 58.0289 75.1995 54.3938 75.1995 50.5551C75.1995 37.4733 65.0632 26.828 52.2781 25.9461L52.2725 25.9404ZM71.0397 56.5251L55.5494 47.5928V29.7847C64.9556 32.0687 71.8717 40.5826 71.8717 50.5551C71.9226 52.579 71.6113 54.5521 71.0397 56.5251Z" fill="#0868A4"></path><path d="M30.0752 64.3097C34.4953 70.8506 42.0283 75.1641 50.5064 75.1641C58.9845 75.1641 66.5174 70.8563 70.9376 64.3097L50.5064 52.5225L30.0752 64.3097ZM45.6165 59.1708V71.3199C44.5242 71.0598 43.4828 70.7489 42.4471 70.3305V60.9855L45.6165 59.1708ZM39.1702 62.8568V68.5667C37.6647 67.6339 36.2611 66.5428 35.0613 65.2425L39.1702 62.8568ZM48.8934 71.7891V57.2487L50.5064 56.3159L52.1194 57.2487V71.7891C51.5987 71.84 51.078 71.8909 50.5573 71.8909C49.9857 71.8909 49.465 71.84 48.8934 71.7891ZM55.3906 59.1708L58.56 60.9855V70.2797C57.5186 70.6924 56.4829 71.0089 55.3906 71.269V59.1708ZM61.8369 68.6232V62.9133L65.9967 65.299C64.7516 66.5428 63.348 67.6848 61.8369 68.6232Z" fill="#0868A4"></path></svg>