<svg xmlns="http://www.w3.org/2000/svg" width="102" height="101" viewBox="0 0 102 101" fill="none"><path d="M88.6047 0.398438H13.2922C6.35939 0.398438 0.739258 6.01241 0.739258 12.9376V88.1668C0.739258 95.092 6.35939 100.706 13.2922 100.706H88.6047C95.5375 100.706 101.158 95.092 101.158 88.1668V12.9376C101.158 6.01241 95.5375 0.398438 88.6047 0.398438Z" fill="#EAEFFD"></path><path fill-rule="evenodd" clip-rule="evenodd" d="M33.933 38.2249H36.0157V59.4589H33.933C30.5146 59.4589 27.6904 56.6379 27.6904 53.2233V44.4662C27.6904 41.0516 30.5146 38.2306 33.933 38.2306V38.2249ZM38.0928 38.2249H47.4594C69.4583 39.5591 74.2124 23.5262 74.2124 39.4121V58.4187C74.2124 74.3046 63.063 59.4589 46.2709 59.4589L53.1078 76.5321C55.0377 81.1339 48.2008 83.8079 46.2709 79.3531L38.2456 59.4589H38.0985V38.2249H38.0928Z" fill="#0868A4"></path></svg>