<svg xmlns="http://www.w3.org/2000/svg" width="102" height="101" viewBox="0 0 102 101" fill="none"><path d="M88.6889 0.098877H12.9293C5.95585 0.098877 0.302734 5.74574 0.302734 12.7115V88.3873C0.302734 95.3531 5.95585 101 12.9293 101H88.6889C95.6623 101 101.315 95.3531 101.315 88.3873V12.7115C101.315 5.74574 95.6623 0.098877 88.6889 0.098877Z" fill="#EAEFFD"></path><path d="M37.1011 53.28L34.1863 65.9322C33.8298 67.4191 34.7806 68.9624 36.2691 69.2564C36.5068 69.3186 36.6879 69.3186 36.9256 69.3186C38.1764 69.3186 39.3649 68.4254 39.6592 67.1195L42.4551 54.9478L37.2255 53.2857C37.2255 53.2857 37.1633 53.2857 37.1067 53.2857L37.1011 53.28Z" fill="#0868A4"></path><path d="M33.4176 44.1951L34.7249 39.7403L37.2208 38.5531L36.3266 47.5193C36.2078 48.8252 36.9831 50.0746 38.2905 50.4873L46.0215 52.9239L46.1403 60.9403C46.1403 62.4837 47.3911 63.7331 48.9362 63.7331H48.9985C50.5435 63.7331 51.7943 62.4272 51.7943 60.8838L51.6132 50.8491C51.6132 49.6619 50.7812 48.5934 49.6493 48.2373L44.7141 46.6939L46.1403 40.5204L48.5174 43.5506C49.1116 44.263 50.0625 44.6191 50.9567 44.3817L56.305 43.0136C57.5558 42.7139 58.3255 41.408 57.9689 40.1643C57.669 38.9149 56.3616 38.146 55.1165 38.5022L51.251 39.5141L48.3363 35.7151C48.2174 35.5964 48.1552 35.4776 48.0363 35.4154C47.261 34.7031 46.3101 34.2282 45.3027 34.0473L40.9052 33.0976C39.5978 32.7979 38.2282 32.9789 37.0397 33.5725L31.8102 36.0656C31.216 36.3652 30.7406 36.8966 30.5595 37.5524L28.9521 43.0136C28.5956 44.2629 29.3087 45.5689 30.5595 45.925C30.7972 45.9872 30.9783 46.0438 31.216 46.0438C32.1668 45.8629 33.1176 45.2127 33.4176 44.2008V44.1951Z" fill="#0868A4"></path><path d="M71.2288 57.1413L61.715 53.6983C60.5265 53.28 59.1569 53.8793 58.7437 55.123C58.3249 56.3102 58.9248 57.6783 60.17 58.091L64.392 59.6344L32.7039 74.3048C31.5153 74.8419 31.0399 76.2665 31.5719 77.3916C31.9907 78.2226 32.8227 78.7597 33.7113 78.7597C34.0678 78.7597 34.3678 78.6975 34.7243 78.5222L66.2937 63.7952L64.7486 68.0126C64.3297 69.1999 64.9297 70.568 66.1748 70.9807C66.4125 71.0994 66.7124 71.0994 66.9502 71.0994C67.901 71.0994 68.7952 70.5058 69.1517 69.556L72.5984 60.0527C73.0738 58.9221 72.4173 57.5596 71.2288 57.1413Z" fill="#0868A4"></path><path d="M44.8893 32.1986C47.6149 32.1986 49.8245 29.9915 49.8245 27.2688C49.8245 24.5462 47.6149 22.3391 44.8893 22.3391C42.1637 22.3391 39.9541 24.5462 39.9541 27.2688C39.9541 29.9915 42.1637 32.1986 44.8893 32.1986Z" fill="#0868A4"></path></svg>