<svg xmlns="http://www.w3.org/2000/svg" width="102" height="101" viewBox="0 0 102 101" fill="none"><path d="M88.8176 0H13.5052C6.57232 0 0.952148 5.61397 0.952148 12.5391V87.7684C0.952148 94.6935 6.57232 100.307 13.5052 100.307H88.8176C95.7504 100.307 101.371 94.6935 101.371 87.7684V12.5391C101.371 5.61397 95.7504 0 88.8176 0Z" fill="#EAEFFD"></path><path d="M49.0416 25.1914V75.1161C49.0416 76.75 47.5588 77.9881 45.9515 77.6828C33.0136 75.184 23.2451 63.8094 23.2451 50.1566C23.2451 36.5037 33.0136 25.1292 45.9515 22.6304C47.5531 22.3195 49.0416 23.5632 49.0416 25.197V25.1914Z" fill="#0868A4"></path><path d="M78.828 55.7591C76.5811 66.8227 67.8144 75.5233 56.7046 77.6772C55.0916 77.9881 53.5918 76.7557 53.5918 75.1162V55.239C53.5918 53.7974 54.7633 52.6328 56.2009 52.6328H76.2642C77.9168 52.6328 79.1506 54.1423 78.8223 55.7591H78.828Z" fill="#0868A4"></path><path d="M76.3493 48.0819H56.2067C54.7635 48.0819 53.5977 46.9117 53.5977 45.4757V25.1915C53.5977 23.552 55.0975 22.3196 56.7104 22.6305C67.9617 24.8183 76.8134 33.7167 78.9131 44.9895C79.213 46.5951 77.9849 48.0819 76.3493 48.0819Z" fill="#0868A4"></path></svg>