<svg xmlns="http://www.w3.org/2000/svg" width="592" height="120" viewBox="0 0 592 120" fill="none"><g clip-path="url(#clip0_664_480)"><path d="M256.826 89.3644C252.898 91.2523 245.482 92.7058 237.039 92.7058C214.053 92.7058 199.36 78.6216 199.36 56.4066C199.36 35.7898 213.618 18.804 240.097 18.804C245.917 18.804 252.318 19.823 256.972 21.5608L253.478 37.9673C250.861 36.8034 246.933 35.7898 241.112 35.7898C229.472 35.7898 221.91 44.0654 222.056 55.5377C222.056 68.6029 230.783 75.4304 241.548 75.4304C246.788 75.4304 250.856 74.5616 254.204 73.1081L256.821 89.3698L256.826 89.3644ZM328.835 74.1218C328.835 80.7991 329.125 87.3317 330.001 91.2524H310.069L308.757 84.1405H308.322C303.668 89.8043 296.391 92.8506 287.954 92.8506C273.551 92.8506 264.968 82.3974 264.968 71.07C264.968 52.6307 281.553 43.9206 306.72 43.9206V43.0518C306.72 39.276 304.684 33.9072 293.774 33.9072C286.503 33.9072 278.791 36.3744 274.137 39.1365L270.063 25.0523C275.007 22.2955 284.756 18.6645 297.703 18.6645C321.413 18.6645 328.835 32.6039 328.835 49.3001V74.1271V74.1218ZM307.451 57.7152C295.811 57.7152 286.793 60.472 286.793 68.8925C286.793 74.5562 290.576 77.313 295.521 77.313C300.906 77.313 305.56 73.682 307.016 69.1821C307.306 68.0182 307.451 66.7149 307.451 65.4063V57.7099V57.7152ZM346.441 44.0654C346.441 34.7761 346.151 26.9348 345.861 20.2521H365.062L366.084 30.1261H366.374C371.614 22.7192 379.761 18.6538 390.085 18.6538C405.654 18.6538 419.616 32.1588 419.616 54.8083C419.616 80.649 403.176 92.8453 387.317 92.8453C378.734 92.8453 372.044 89.3591 368.841 84.7144H368.55V119.995H346.436V44.0708L346.441 44.0654ZM368.556 60.7616C368.556 62.5047 368.701 63.9582 368.991 65.4063C370.447 71.3596 375.537 75.8595 381.937 75.8595C391.541 75.8595 397.211 67.8734 397.211 55.8219C397.211 44.4999 392.121 35.9292 382.228 35.9292C375.972 35.9292 370.442 40.5739 368.991 47.1065C368.701 48.2703 368.556 49.7184 368.556 51.0271V60.7562V60.7616ZM500.508 68.458C500.508 77.7474 500.798 85.299 501.088 91.2524H481.886L480.871 81.2336H480.435C477.673 85.5886 470.977 92.8506 458.176 92.8506C443.628 92.8506 433.153 83.8509 433.153 61.9255V20.2575H455.268V58.4446C455.268 68.753 458.616 74.996 466.468 74.996C472.578 74.996 476.217 70.7857 477.523 67.2996C478.103 65.9909 478.393 64.398 478.393 62.5101V20.2575H500.508V68.458ZM518.254 44.0654C518.254 34.7761 517.963 26.9348 517.673 20.2521H536.875L537.896 30.1261H538.186C543.426 22.7192 551.573 18.6538 561.897 18.6538C577.466 18.6538 591.428 32.1588 591.428 54.8083C591.428 80.649 574.989 92.8453 559.13 92.8453C550.547 92.8453 543.856 89.3591 540.653 84.7144H540.363V119.995H518.248V44.0708L518.254 44.0654ZM540.368 60.7616C540.368 62.5047 540.513 63.9582 540.804 65.4063C542.26 71.3596 547.349 75.8595 553.75 75.8595C563.354 75.8595 569.023 67.8734 569.023 55.8219C569.023 44.4999 563.934 35.9292 554.04 35.9292C547.785 35.9292 542.255 40.5739 540.804 47.1065C540.513 48.2703 540.368 49.7184 540.368 51.0271V60.7562V60.7616Z" fill="#0867A4"></path><path d="M183.088 0L146.543 61.2228L131.479 86.4521L0 117.415L183.088 0Z" fill="url(#paint0_linear_664_480)"></path><path d="M183.088 0L171.904 51.4937L157.587 117.415L131.479 86.4521L146.543 61.2228L183.088 0Z" fill="url(#paint1_linear_664_480)"></path><path opacity="0.2" d="M183.088 0L171.904 51.4937L146.543 61.2228L0 117.415L183.088 0Z" fill="white"></path></g><defs><linearGradient id="paint0_linear_664_480" x1="0" y1="58.7074" x2="183.088" y2="58.7074" gradientUnits="userSpaceOnUse"><stop stop-color="#0867A4"></stop><stop offset="0.6" stop-color="#1C89C2"></stop><stop offset="1" stop-color="#2BA3D8"></stop></linearGradient><linearGradient id="paint1_linear_664_480" x1="176.203" y1="111.563" x2="157.973" y2="45.4411" gradientUnits="userSpaceOnUse"><stop stop-color="#2BA3D8"></stop><stop offset="0.4" stop-color="#1C89C2"></stop><stop offset="1" stop-color="#0867A4"></stop></linearGradient><clipPath id="clip0_664_480"><rect width="591.429" height="120" fill="white"></rect></clipPath></defs></svg>