<svg xmlns="http://www.w3.org/2000/svg" width="101" height="101" viewBox="0 0 101 101" fill="none"><path d="M88.4475 0H13.135C6.20217 0 0.582031 5.61397 0.582031 12.5391V87.7684C0.582031 94.6935 6.20217 100.307 13.135 100.307H88.4475C95.3803 100.307 101 94.6935 101 87.7684V12.5391C101 5.61397 95.3803 0 88.4475 0Z" fill="#EAEFFD"></path><path d="M50.5673 57.6134C54.1743 57.6134 57.0985 54.6925 57.0985 51.0894C57.0985 47.4863 54.1743 44.5654 50.5673 44.5654C46.9602 44.5654 44.0361 47.4863 44.0361 51.0894C44.0361 54.6925 46.9602 57.6134 50.5673 57.6134Z" fill="#0868A4"></path><path d="M34.9185 42.355C39.3726 42.355 42.9834 38.7482 42.9834 34.299C42.9834 29.8497 39.3726 26.2429 34.9185 26.2429C30.4643 26.2429 26.8535 29.8497 26.8535 34.299C26.8535 38.7482 30.4643 42.355 34.9185 42.355Z" fill="#0868A4"></path><path d="M37.3696 74.9409C41.8238 74.9409 45.4346 71.3341 45.4346 66.8849C45.4346 62.4357 41.8238 58.8289 37.3696 58.8289C32.9155 58.8289 29.3047 62.4357 29.3047 66.8849C29.3047 71.3341 32.9155 74.9409 37.3696 74.9409Z" fill="#0868A4"></path><path d="M75.2036 76.8403C79.6578 76.8403 83.2686 73.2335 83.2686 68.7843C83.2686 64.3351 79.6578 60.7283 75.2036 60.7283C70.7495 60.7283 67.1387 64.3351 67.1387 68.7843C67.1387 73.2335 70.7495 76.8403 75.2036 76.8403Z" fill="#0868A4"></path><path d="M71.6667 36.6507C74.4205 36.6507 76.6529 34.4208 76.6529 31.6701C76.6529 28.9193 74.4205 26.6895 71.6667 26.6895C68.913 26.6895 66.6807 28.9193 66.6807 31.6701C66.6807 34.4208 68.913 36.6507 71.6667 36.6507Z" fill="#0868A4"></path><path d="M57.1043 83.5567C59.8581 83.5567 62.0904 81.3268 62.0904 78.5761C62.0904 75.8254 59.8581 73.5955 57.1043 73.5955C54.3506 73.5955 52.1182 75.8254 52.1182 78.5761C52.1182 81.3268 54.3506 83.5567 57.1043 83.5567Z" fill="#0868A4"></path><path d="M21.036 58.8289C23.7897 58.8289 26.022 56.599 26.022 53.8483C26.022 51.0976 23.7897 48.8677 21.036 48.8677C18.2822 48.8677 16.0498 51.0976 16.0498 53.8483C16.0498 56.599 18.2822 58.8289 21.036 58.8289Z" fill="#0868A4"></path><path d="M57.1043 78.118C56.527 78.118 56.0007 77.7222 55.8592 77.14L50.3071 54.1478C50.1429 53.458 50.5618 52.7683 51.2522 52.6044C51.9427 52.4404 52.6332 52.8588 52.7973 53.5485L58.3493 76.5407C58.5135 77.2304 58.0947 77.9201 57.4042 78.0841C57.3024 78.1067 57.2005 78.118 57.1043 78.118Z" fill="#0868A4"></path><path d="M40.4997 63.8602C40.1997 63.8602 39.8998 63.7528 39.6564 63.5436C39.1244 63.0801 39.0734 62.2716 39.5375 61.7402L48.4627 51.5868C48.9268 51.0554 49.7362 51.0045 50.2682 51.4681C50.8002 51.9317 50.8511 52.7401 50.387 53.2715L41.4618 63.4249C41.2071 63.7133 40.8562 63.8602 40.4997 63.8602Z" fill="#0868A4"></path><path d="M22.762 55.1259C22.1168 55.1259 21.5622 54.6398 21.4886 53.9896C21.4094 53.2886 21.9187 52.6554 22.6205 52.5763L47.585 49.8174C48.2925 49.7383 48.9207 50.2471 48.9999 50.9481C49.0792 51.6491 48.5698 52.2823 47.868 52.3615L22.9035 55.1203C22.8582 55.1203 22.8073 55.1259 22.762 55.1259Z" fill="#0868A4"></path><path d="M49.311 50.8802C48.9771 50.8802 48.6489 50.7502 48.3998 50.4958L35.6317 37.5439C35.1337 37.0408 35.1394 36.2323 35.6431 35.7348C36.1468 35.2374 36.9561 35.243 37.4542 35.7462L50.2222 48.698C50.7203 49.2011 50.7146 50.0096 50.2109 50.5071C49.9619 50.7502 49.6393 50.8745 49.311 50.8745V50.8802Z" fill="#0868A4"></path><path d="M52.7014 50.8802C52.3505 50.8802 51.994 50.7332 51.745 50.4506C51.2752 49.9248 51.3205 49.1107 51.8525 48.6415L70.0425 32.5068C70.5688 32.0376 71.3838 32.0828 71.8535 32.6142C72.3233 33.14 72.278 33.9541 71.746 34.4233L53.556 50.558C53.3127 50.7728 53.0071 50.8802 52.7071 50.8802H52.7014Z" fill="#0868A4"></path><path d="M72.1304 66.0029C71.8927 66.0029 71.655 65.9407 71.4456 65.805L52.1293 53.5485C51.5294 53.1698 51.354 52.3783 51.7332 51.7847C52.1124 51.1854 52.9047 51.0102 53.499 51.389L72.8152 63.6454C73.4151 64.0242 73.5906 64.8157 73.2114 65.4093C72.968 65.7937 72.5549 66.0029 72.1304 66.0029Z" fill="#0868A4"></path></svg>