<svg xmlns="http://www.w3.org/2000/svg" width="102" height="101" viewBox="0 0 102 101" fill="none"><path d="M88.8226 0.098877H13.0631C6.08964 0.098877 0.436523 5.74574 0.436523 12.7115V88.3873C0.436523 95.3531 6.08964 101 13.0631 101H88.8226C95.7961 101 101.449 95.3531 101.449 88.3873V12.7115C101.449 5.74574 95.7961 0.098877 88.8226 0.098877Z" fill="#EAEFFD"></path><path fill-rule="evenodd" clip-rule="evenodd" d="M31.208 33.9059V53.3138C31.208 54.9024 31.5759 56.3667 32.4305 57.7065C36.4658 64.6658 43.5516 70.0365 51.0053 75.164C58.3402 70.0365 65.426 64.6658 69.4556 57.7065C70.3102 56.361 70.6781 54.8968 70.6781 53.3138V33.9059C47.7058 23.2889 54.1804 23.2889 31.208 33.9059ZM45.8721 47.457L48.5604 50.1423L56.0141 42.5725C56.3819 42.205 56.8687 42.205 57.2365 42.5725L58.5835 43.918C58.8269 44.161 58.8269 44.7716 58.5835 45.1391L49.1716 54.5406C48.8037 54.7837 48.1925 54.7837 47.8246 54.5406L43.3026 49.9049C43.0592 49.5374 43.0592 48.9268 43.4271 48.6837L44.6496 47.4626C45.0175 47.0951 45.5042 47.0951 45.8721 47.4626V47.457Z" fill="#0868A4"></path></svg>