<svg xmlns="http://www.w3.org/2000/svg" width="101" height="101" viewBox="0 0 101 101" fill="none"><path d="M88.1828 0H12.8704C5.93757 0 0.317383 5.61397 0.317383 12.5391V87.7684C0.317383 94.6935 5.93757 100.307 12.8704 100.307H88.1828C95.1156 100.307 100.736 94.6935 100.736 87.7684V12.5391C100.736 5.61397 95.1156 0 88.1828 0Z" fill="#EAEFFD"></path><path d="M50.53 44.9895H50.5243C48.552 44.9895 46.9531 46.5866 46.9531 48.5568V63.1424C46.9531 65.1126 48.552 66.7097 50.5243 66.7097H50.53C52.5023 66.7097 54.1012 65.1126 54.1012 63.1424V48.5568C54.1012 46.5866 52.5023 44.9895 50.53 44.9895Z" fill="#0868A4"></path><path d="M35.6452 44.9895H35.6396C33.6672 44.9895 32.0684 46.5866 32.0684 48.5568V63.1424C32.0684 65.1126 33.6672 66.7097 35.6396 66.7097H35.6452C37.6176 66.7097 39.2164 65.1126 39.2164 63.1424V48.5568C39.2164 46.5866 37.6176 44.9895 35.6452 44.9895Z" fill="#0868A4"></path><path d="M65.4148 44.9895H65.4091C63.4368 44.9895 61.8379 46.5866 61.8379 48.5568V63.1424C61.8379 65.1126 63.4368 66.7097 65.4091 66.7097H65.4148C67.3871 66.7097 68.986 65.1126 68.986 63.1424V48.5568C68.986 46.5866 67.3871 44.9895 65.4148 44.9895Z" fill="#0868A4"></path><path d="M27.8122 71.4699C26.1275 71.4699 24.7617 72.8341 24.7617 74.517C24.7617 76.1999 26.1275 77.5642 27.8122 77.5642H73.2419C74.9267 77.5642 76.2925 76.1999 76.2925 74.517C76.2925 72.8341 74.9267 71.4699 73.2419 71.4699H27.8122Z" fill="#0868A4"></path><path d="M25.588 36.1872L49.7658 22.9414C50.2412 22.6813 50.8129 22.6813 51.2883 22.9414L75.4661 36.1872C76.9036 36.973 76.3434 39.1552 74.7021 39.1552H26.3407C24.7051 39.1552 24.1448 36.973 25.5767 36.1872H25.588Z" fill="#0868A4"></path></svg>