<svg xmlns="http://www.w3.org/2000/svg" width="101" height="101" viewBox="0 0 101 101" fill="none"><path d="M88.1291 0H12.8166C5.88381 0 0.263672 5.61397 0.263672 12.5391V87.7684C0.263672 94.6935 5.88381 100.307 12.8166 100.307H88.1291C95.0619 100.307 100.682 94.6935 100.682 87.7684V12.5391C100.682 5.61397 95.0619 0 88.1291 0Z" fill="#EAEFFD"></path><path d="M30.9449 37.3347C35.3678 37.3347 38.9532 33.7532 38.9532 29.3352C38.9532 24.9172 35.3678 21.3357 30.9449 21.3357C26.522 21.3357 22.9365 24.9172 22.9365 29.3352C22.9365 33.7532 26.522 37.3347 30.9449 37.3347Z" fill="#0868A4"></path><path d="M41.941 71.221H19.9421C18.6801 71.221 17.684 70.1582 17.7632 68.8975L18.9121 50.7785C19.314 44.4354 24.5831 39.4944 30.9445 39.4944C37.3059 39.4944 42.575 44.4354 42.9768 50.7785L44.1257 68.8975C44.2049 70.1525 43.2031 71.221 41.9467 71.221H41.941Z" fill="#0868A4"></path><path d="M73.3296 37.3347C77.7525 37.3347 81.338 33.7532 81.338 29.3352C81.338 24.9172 77.7525 21.3357 73.3296 21.3357C68.9068 21.3357 65.3213 24.9172 65.3213 29.3352C65.3213 33.7532 68.9068 37.3347 73.3296 37.3347Z" fill="#0868A4"></path><path d="M84.3258 71.221H62.3269C61.0648 71.221 60.0687 70.1582 60.148 68.8975L61.2969 50.7785C61.6987 44.4354 66.9678 39.4944 73.3292 39.4944C79.6906 39.4944 84.9597 44.4354 85.3616 50.7785L86.5104 68.8975C86.5896 70.1525 85.5879 71.221 84.3315 71.221H84.3258Z" fill="#0868A4"></path><path d="M52.1343 45.0854C56.5572 45.0854 60.1426 41.5039 60.1426 37.0859C60.1426 32.6679 56.5572 29.0864 52.1343 29.0864C47.7114 29.0864 44.126 32.6679 44.126 37.0859C44.126 41.5039 47.7114 45.0854 52.1343 45.0854Z" fill="#0868A4"></path><path d="M63.1364 78.9774H41.1375C39.8754 78.9774 38.8793 77.9145 38.9585 76.6538L40.1074 58.5348C40.5092 52.1918 45.7783 47.2507 52.1397 47.2507C58.5011 47.2507 63.7702 52.1918 64.172 58.5348L65.321 76.6538C65.4002 77.9089 64.3985 78.9774 63.142 78.9774H63.1364Z" fill="#0868A4"></path><path d="M52.1344 47.2564C58.4958 47.2564 63.7649 52.1974 64.1667 58.5405L65.3157 76.6595C65.3949 77.9145 64.3932 78.983 63.1367 78.983H41.1378C39.8757 78.983 38.8797 77.9202 38.9589 76.6595L40.1077 58.5405C40.5096 52.1974 45.7787 47.2564 52.1401 47.2564M52.1401 45.8374C48.699 45.8374 45.4222 47.132 42.915 49.4838C40.4077 51.8356 38.9079 55.0185 38.6872 58.45L37.5383 76.569C37.4761 77.5584 37.8269 78.5421 38.5061 79.2657C39.1852 79.9893 40.1417 80.402 41.1378 80.402H63.1367C64.1272 80.402 65.0893 79.9893 65.7685 79.2657C66.4476 78.5421 66.8041 77.5584 66.7362 76.569L65.5873 58.45C65.3722 55.0185 63.8668 51.8356 61.3596 49.4838C58.8524 47.132 55.5754 45.8374 52.1344 45.8374H52.1401Z" fill="#EAEFFD"></path></svg>