<svg xmlns="http://www.w3.org/2000/svg" width="143" height="155" viewBox="0 0 143 155" fill="none"><path d="M117.486 32.5061C117.406 32.3924 117.266 32.3279 117.125 32.3468C116.985 32.3658 116.867 32.4606 116.822 32.5934C115.665 35.8324 114.383 39.0184 113.022 42.0754C105.132 29.7412 95.6921 18.6548 85.1215 9.37753C85.0153 9.2865 84.8674 9.25995 84.7346 9.30926C84.6019 9.36236 84.5108 9.47994 84.4995 9.62027C84.3667 10.9098 84.2111 12.1956 84.0442 13.4662C79.1477 8.94515 74.0009 4.78443 68.6568 1.04091C68.5431 0.961263 68.3914 0.949885 68.2663 1.01436C68.1411 1.07884 68.0651 1.2078 68.0651 1.35192C68.4596 58.0546 34.3357 94.8146 2.46084 104.972C2.27119 105.032 2.16114 105.23 2.21045 105.423C6.06775 120.28 5.64287 136.581 0.989081 152.56C0.954946 152.682 0.98157 152.814 1.06501 152.909C1.13708 152.993 1.24327 153.042 1.34947 153.042C1.36464 153.042 1.38356 153.042 1.39874 153.042C1.41011 153.042 1.42162 153.042 1.433 153.038C1.50127 153.103 1.59227 153.141 1.68709 153.141H1.69468C3.0563 153.114 4.41794 153.053 5.78715 152.97C12.5042 154.225 19.464 154.847 26.5452 154.847C43.1237 154.847 60.3771 151.445 76.7014 144.827C102.367 134.423 125.124 116.509 142.514 93.0244C142.579 92.9409 142.602 92.8309 142.583 92.7285C138.331 70.7453 129.653 49.919 117.486 32.5023V32.5061ZM85.1708 10.4243C100.786 24.2719 113.89 42.1058 123.099 62.0484C98.5101 120.591 48.2098 149.003 7.17908 152.113C14.3285 150.77 21.4703 148.673 28.487 145.881C46.8063 140.837 64.5037 131.237 79.7964 118.038C97.2282 102.992 110.86 84.1037 120.311 61.8967C120.326 61.8626 120.326 61.8208 120.311 61.7867C118.199 57.296 115.866 52.866 113.374 48.6256C113.336 48.5611 113.253 48.5422 113.188 48.5763C113.124 48.6142 113.105 48.6977 113.139 48.7584C115.616 52.976 117.937 57.3757 120.038 61.8436C102.625 102.7 69.4722 133.456 30.7627 144.944C43.7 139.502 56.1368 131.711 67.2649 121.948C88.6261 103.208 104.412 78.0882 112.919 49.3083C112.949 49.2059 112.934 49.0997 112.881 49.0087C105.057 35.9804 95.4986 24.1581 84.7232 14.092C84.8863 12.8821 85.038 11.6494 85.1708 10.4168V10.4243ZM62.7022 134.537C63.6884 136.19 65.0044 137.393 66.6239 138.106C59.429 140.632 52.1011 142.487 44.8037 143.64C50.9064 141.083 56.903 138.041 62.7022 134.537ZM43.757 144.076C51.5399 142.919 59.372 140.962 67.0449 138.242C67.098 138.223 67.1322 138.174 67.136 138.117C67.136 138.06 67.1019 138.011 67.0488 137.988C65.3344 137.321 63.9538 136.107 62.9335 134.393C65.5164 132.822 68.0614 131.165 70.5608 129.416C78.8861 123.587 86.5856 116.866 93.5757 109.375C93.5378 115.99 90.5907 123.682 85.7738 129.633C85.7321 129.682 85.7321 129.754 85.7738 129.803C85.8003 129.834 85.8383 129.853 85.8762 129.853C85.899 129.853 85.9217 129.849 85.9406 129.837C94.7969 125.059 103.24 119.244 111.038 112.554C111.053 112.538 111.068 112.523 111.076 112.5C113.647 106.064 117.129 100.219 120.876 96.051C124.988 91.4959 128.872 86.6221 132.425 81.5625C132.448 81.5283 132.456 81.4866 132.445 81.4487C129.975 72.4597 126.71 63.74 122.746 55.5361C122.723 55.4906 122.678 55.4603 122.629 55.4603C122.579 55.4603 122.534 55.4868 122.511 55.5323C122.223 56.0747 121.919 56.6361 121.608 57.205C119.651 53.287 117.543 49.4563 115.297 45.7279C116.283 43.6343 117.22 41.5103 118.081 39.4091C128.037 55.081 135.039 72.7062 138.892 91.7917C109.388 131.123 64.0182 153.74 20.0291 151.172C27.9978 149.647 35.9666 147.265 43.7646 144.08L43.757 144.076ZM115.149 79.9353C115.657 80.5156 116.067 81.3046 116.359 82.2869C117.728 86.8762 115.601 94.1736 111.8 97.9057C109.919 99.7642 108.015 100.546 106.433 100.102C105.231 99.7642 104.328 98.7136 103.854 97.1396C107.954 91.7045 111.732 85.9584 115.153 79.9391L115.149 79.9353ZM103.653 97.4051C104.169 98.9677 105.117 100.011 106.361 100.36C106.672 100.447 106.999 100.492 107.332 100.492C108.785 100.492 110.404 99.6694 111.99 98.0992C115.851 94.3063 118.013 86.8838 116.617 82.2148C116.302 81.1566 115.858 80.3108 115.293 79.6926C118.46 74.0906 121.324 68.2459 123.861 62.1925C123.903 62.0939 123.899 61.9839 123.858 61.8891C123.179 60.4137 122.473 58.9497 121.753 57.497C122.052 56.9547 122.344 56.4161 122.621 55.8927C126.52 63.9941 129.733 72.5925 132.171 81.4601C128.636 86.4931 124.772 91.3441 120.679 95.8728C116.913 100.06 113.42 105.92 110.841 112.372C103.236 118.895 95.0132 124.584 86.3922 129.288C91.0725 123.28 93.8943 115.637 93.845 109.087C97.2927 105.378 100.566 101.479 103.653 97.4013V97.4051ZM3.02976 105.586C20.2795 99.9956 36.3306 87.5475 48.2628 70.5064C61.7653 51.2237 68.8654 27.5755 68.8237 2.08014C85.8535 14.1413 100.824 30.4391 112.153 49.2628C93.3633 112.592 43.3511 146.545 1.87284 152.223C6.3825 136.414 6.78086 120.31 3.02976 105.586ZM8.87826 152.742C12.2311 152.443 15.5992 151.988 18.9672 151.373C21.5311 151.544 24.1064 151.635 26.6969 151.635C44.8835 151.635 63.5973 147.406 81.3211 139.236C103.649 128.946 123.641 112.58 139.135 91.9017C139.158 91.8714 139.165 91.8334 139.158 91.7955C135.281 72.5659 128.216 54.8193 118.157 39.045C118.13 39.0032 118.081 38.9805 118.032 38.9843C117.983 38.9881 117.937 39.0222 117.918 39.0677C117.053 41.1917 116.113 43.3346 115.119 45.451C114.588 44.5749 114.049 43.7063 113.503 42.8454C114.857 39.849 116.124 36.7238 117.281 33.5378C129.141 50.7041 137.618 71.1474 141.809 92.7171C108.857 137.123 56.994 160.442 8.87066 152.742H8.87826Z" fill="#F16C3F"></path><path d="M109.345 49.3118C99.1117 32.5779 86.3904 18.3282 71.5339 6.95736C71.4922 6.92701 71.4392 6.91943 71.3937 6.94219C71.3482 6.96494 71.3178 7.00666 71.3178 7.05976C69.3152 61.244 36.7084 96.3427 5.28107 107.095C5.21659 107.118 5.17867 107.186 5.19384 107.255C8.34188 120.446 8.22797 134.901 4.86753 149.059C4.85615 149.105 4.86765 149.15 4.90179 149.181C4.92834 149.207 4.96239 149.222 5.00031 149.222C5.0079 149.222 5.01551 149.222 5.02309 149.222C26.6877 145.517 48.5457 134.487 66.5692 118.17C86.4056 100.211 101.201 76.4418 109.36 49.4256C109.371 49.3876 109.367 49.3497 109.345 49.3156V49.3118ZM5.17477 148.919C8.48969 134.828 8.59591 120.446 5.48201 107.308C22.2577 101.539 37.9828 89.3602 49.7747 73.0017C63.0875 54.5345 70.6237 31.8269 71.5795 7.32526C86.3032 18.6392 98.922 32.794 109.087 49.399C93.2707 101.694 52.5055 140.73 5.17866 148.919H5.17477Z" fill="#F16C3F"></path><path d="M81.4969 20.877C81.4589 20.8428 81.4059 20.8277 81.3604 20.8466C81.3111 20.8618 81.277 20.9035 81.2694 20.9566C80.4805 26.6952 79.3199 32.4034 77.8255 37.9181C76.5094 42.7312 73.7368 45.8792 70.3992 46.342C70.3499 46.3496 70.3081 46.3837 70.2892 46.4292C67.1677 55.1717 63.1094 63.4438 58.2281 71.0181C58.2281 71.0181 58.2281 71.0181 58.2281 71.0218C58.2243 71.0294 58.2204 71.0408 58.2166 71.0484C58.2166 71.056 58.209 71.0636 58.209 71.0712C58.209 71.0787 58.209 71.0863 58.209 71.0939C58.209 71.1053 58.209 71.1129 58.209 71.1242C58.209 71.1242 58.209 71.1242 58.209 71.128C58.209 71.1356 58.2166 71.1394 58.2166 71.1432C58.2204 71.1508 58.2242 71.1622 58.2318 71.1698C58.2356 71.1773 58.2431 71.1811 58.2507 71.1887C58.2544 71.1925 58.2583 71.2001 58.2658 71.2039C58.2924 71.2191 58.3266 71.2267 58.357 71.2191C58.357 71.2191 58.3608 71.2191 58.3645 71.2191C58.3645 71.2191 58.3683 71.2191 58.3721 71.2191C63.3369 69.7626 68.2108 72.6072 71.4081 78.8313C74.7458 85.226 75.0415 94.7725 72.1628 103.158C72.1552 103.174 72.1552 103.193 72.1552 103.212C72.1552 103.219 72.1515 103.23 72.1515 103.238C72.1553 103.265 72.1665 103.291 72.1893 103.314C72.2158 103.34 72.25 103.352 72.2841 103.352C72.3182 103.352 72.3524 103.337 72.3789 103.314C72.3865 103.306 72.3942 103.299 72.398 103.287C79.0696 95.77 85.0052 87.4144 90.0383 78.4558C90.0497 78.4368 90.0536 78.414 90.0574 78.3951C90.2622 71.4694 91.5289 64.7864 93.6226 59.5789C95.9248 53.8897 97.9046 47.9767 99.5052 42.0068C99.5165 41.9688 99.5052 41.9271 99.4863 41.893C94.0739 34.2846 88.0168 27.2148 81.4932 20.877H81.4969ZM93.3761 59.4765C91.2749 64.703 90.0004 71.4049 89.7918 78.3534C84.8801 87.0958 79.0999 95.258 72.618 102.627C75.2995 94.3287 74.9392 85.006 71.6546 78.7099C68.4648 72.501 63.6214 69.5957 58.6414 70.8739C63.4355 63.3831 67.4331 55.221 70.5205 46.5999C73.9302 46.0841 76.7521 42.8715 78.0872 37.9902C79.5626 32.5475 80.7118 26.9227 81.5007 21.2601C87.9296 27.5258 93.8918 34.5008 99.2359 42.003C97.6391 47.9425 95.6707 53.8214 93.3798 59.4841L93.3761 59.4765Z" fill="#F16C3F"></path><path d="M57.5714 117.564C57.5714 117.492 57.5107 117.435 57.4386 117.431C52.8038 117.321 48.8744 113.092 47.1828 106.394C45.5102 99.7262 45.5938 92.1443 47.4067 85.5941C47.4067 85.5827 47.4067 85.5676 47.4067 85.5562C47.4067 85.5562 47.4067 85.5524 47.4067 85.5486C47.4067 85.5145 47.3876 85.4841 47.3649 85.4614C47.3649 85.4614 47.3649 85.4614 47.3649 85.4576C47.3497 85.4462 47.3347 85.4348 47.3119 85.4272C47.3005 85.4272 47.2891 85.4272 47.274 85.4272C47.274 85.4272 47.2702 85.4272 47.2664 85.4272C47.2322 85.4272 47.2019 85.4462 47.1791 85.469C47.1791 85.469 47.179 85.469 47.1753 85.4728C42.237 90.9306 36.8247 95.7892 31.0861 99.9196C31.0634 99.9348 31.0445 99.9613 31.0369 99.9879C29.7966 103.925 27.1037 107.354 23.8381 109.159C19.4157 111.613 14.8187 113.707 10.1801 115.379C10.1194 115.402 10.0853 115.463 10.0928 115.523C11.0941 122.582 11.2459 129.883 10.5481 137.226C10.5443 137.271 10.5633 137.313 10.5936 137.34C10.6202 137.359 10.6505 137.37 10.6808 137.37C10.6922 137.37 10.7035 137.37 10.7149 137.366C16.0742 135.936 21.422 134.059 26.6144 131.776C30.631 130.008 34.31 129.883 36.9726 131.427C37.0143 131.449 37.0637 131.449 37.1054 131.427C44.2207 127.607 51.0857 122.984 57.507 117.678C57.507 117.678 57.5108 117.674 57.5146 117.67C57.526 117.662 57.5373 117.651 57.5486 117.636C57.5486 117.632 57.5563 117.628 57.5601 117.621C57.5677 117.602 57.5753 117.583 57.5753 117.56L57.5714 117.564ZM37.0409 131.161C34.3063 129.614 30.5665 129.743 26.5044 131.533C21.3841 133.782 16.1122 135.64 10.8288 137.059C11.5077 129.796 11.3521 122.578 10.3697 115.595C14.9856 113.923 19.5598 111.837 23.9633 109.398C27.2782 107.566 30.009 104.099 31.2758 100.117C36.8816 96.0813 42.1688 91.344 47.0123 86.0417C45.3207 92.516 45.2827 99.9234 46.9212 106.462C48.5976 113.111 52.4663 117.37 57.0745 117.685C50.7557 122.878 44.0196 127.41 37.0371 131.165L37.0409 131.161Z" fill="#F16C3F"></path><path d="M80.6305 45.7202C78.8858 45.9705 77.3308 47.6204 76.3636 50.245C74.562 55.1567 74.9528 61.8548 77.274 65.8259C78.3284 67.6275 79.7202 68.6137 81.207 68.6137C81.2563 68.6137 81.3057 68.6137 81.355 68.6137C83.1338 68.534 84.7761 67.0927 85.9784 64.5515C88.3034 59.6626 87.7876 51.948 84.8785 48.0414C83.6155 46.3346 82.106 45.5154 80.6268 45.7278L80.6305 45.7202ZM84.6661 48.1969C87.5259 52.0352 88.0266 59.6209 85.7395 64.434C84.5979 66.8462 82.9973 68.2723 81.3474 68.3444C79.9137 68.405 78.5445 67.4682 77.509 65.6932C75.2257 61.7866 74.8427 55.1833 76.6216 50.3398C77.5508 47.81 79.0301 46.2246 80.6724 45.9857C82.0681 45.7847 83.4487 46.547 84.67 48.1931L84.6661 48.1969Z" fill="#F16C3F"></path><path d="M35.783 107.573C34.1862 106.921 32.2064 107.228 30.3441 108.419C26.851 110.657 24.5715 115.265 25.0418 119.138C25.2732 121.038 26.1834 122.487 27.6019 123.215C28.2429 123.545 28.9483 123.708 29.6993 123.708C30.7309 123.708 31.8385 123.401 32.9612 122.786C36.9057 120.647 39.538 115.239 38.6011 111.211C38.1915 109.44 37.1938 108.15 35.7867 107.573H35.783ZM32.8323 122.551C30.9776 123.564 29.1607 123.716 27.7233 122.976C26.3844 122.29 25.5273 120.913 25.3035 119.104C24.8445 115.326 27.0746 110.828 30.4843 108.643C32.2708 107.501 34.1673 107.202 35.6769 107.82C37.0006 108.362 37.945 109.587 38.3319 111.268C39.2459 115.189 36.6743 120.461 32.8284 122.548L32.8323 122.551Z" fill="#F16C3F"></path></svg>