<svg xmlns="http://www.w3.org/2000/svg" width="95" height="170" viewBox="0 0 95 170" fill="none"><path d="M94.8617 0.420848C94.8617 0.394298 94.8541 0.371541 94.8465 0.348784C94.8389 0.326027 94.8351 0.299477 94.8237 0.27672C94.8237 0.269134 94.8237 0.261549 94.8161 0.253963C94.8085 0.238792 94.7935 0.231206 94.7859 0.219828C94.7707 0.200864 94.7554 0.178107 94.7365 0.162936C94.7175 0.147764 94.6987 0.136386 94.6759 0.121214C94.6569 0.109836 94.634 0.0984576 94.6113 0.090872C94.5885 0.0832863 94.5621 0.0794939 94.5355 0.075701C94.5204 0.075701 94.5051 0.0681152 94.49 0.0681152C94.4824 0.0681152 94.4748 0.0719081 94.4672 0.0719081C94.4444 0.0719081 94.4217 0.0794934 94.3952 0.087079C94.3686 0.0946647 94.3459 0.098458 94.3231 0.109836C94.3155 0.109836 94.3079 0.109836 94.3003 0.117422L17.9963 44.171C17.9963 44.171 17.9699 44.1938 17.9585 44.2052C17.9396 44.2203 17.9206 44.2355 17.9054 44.2507C17.8902 44.2696 17.8789 44.2886 17.8637 44.3114C17.8523 44.3341 17.8408 44.3531 17.8295 44.3796C17.8219 44.4024 17.8181 44.4251 17.8143 44.4479C17.8143 44.4669 17.803 44.482 17.803 44.501V152.509L1.08419 162.162C1.08419 162.162 1.07289 162.173 1.0653 162.177C1.06151 162.177 1.05391 162.181 1.05011 162.185C1.03494 162.196 1.03102 162.207 1.01585 162.219C0.996888 162.238 0.974168 162.257 0.958997 162.279C0.947618 162.298 0.940003 162.317 0.928625 162.34C0.917246 162.363 0.909727 162.386 0.902142 162.408C0.898349 162.431 0.898438 162.454 0.898438 162.48C0.898438 162.503 0.898438 162.526 0.898438 162.553C0.90223 162.579 0.913446 162.602 0.921032 162.625C0.928617 162.64 0.928632 162.659 0.936218 162.674C0.940011 162.681 0.947611 162.689 0.951404 162.693C0.951404 162.697 0.951411 162.704 0.958997 162.708L3.86806 166.66C5.61655 169.038 8.02888 169.975 10.3197 169.975C11.6776 169.975 12.9936 169.645 14.1011 169.095C14.3893 168.947 14.6474 168.799 14.8863 168.64L91.2168 124.674C91.304 124.624 91.3608 124.545 91.3874 124.454C93.5417 122.971 94.8465 120.543 94.8465 117.79V0.443604C94.8465 0.443604 94.8428 0.428433 94.8428 0.420848H94.8617ZM13.775 168.428C11.0745 169.774 7.01995 169.653 4.49013 166.216L1.83146 162.602L77.4791 118.928L80.191 122.61C81.7726 124.757 84.1546 125.937 86.673 125.937C86.7299 125.937 86.7906 125.929 86.8475 125.929C86.8513 125.929 86.8551 125.929 86.8627 125.929C86.8703 125.929 86.8779 125.925 86.8854 125.925C87.1396 125.918 87.3974 125.899 87.6553 125.868L14.5259 167.991C14.5259 167.991 14.5221 167.995 14.5183 167.999C14.5183 167.999 14.5108 167.999 14.507 168.003C14.287 168.147 14.048 168.287 13.775 168.424V168.428ZM26.1964 49.6213L86.4871 14.8146V125.178C84.2721 125.121 82.1898 124.059 80.7979 122.167L77.8888 118.214C77.8888 118.214 77.8622 118.192 77.8508 118.177C77.8319 118.158 77.8167 118.139 77.794 118.127C77.7712 118.112 77.7484 118.104 77.7256 118.093C77.7067 118.086 77.684 118.074 77.6651 118.07C77.6385 118.067 77.612 118.067 77.5854 118.067C77.5627 118.067 77.5438 118.067 77.521 118.067C77.4944 118.07 77.4715 118.082 77.4488 118.089C77.4336 118.097 77.4147 118.097 77.3995 118.104L26.2003 147.662V49.6251L26.1964 49.6213ZM89.0396 124.803C88.4404 125 87.8373 125.117 87.2381 125.163V14.1622C87.2381 14.1622 87.2344 14.1471 87.2344 14.1395C87.2344 14.1129 87.2268 14.0902 87.2192 14.0674C87.2116 14.0447 87.2078 14.0181 87.1964 13.9954C87.1964 13.9878 87.1964 13.9802 87.1888 13.9726C87.1812 13.9574 87.166 13.9498 87.1584 13.9385C87.1432 13.9195 87.1281 13.8967 87.1092 13.8816C87.0902 13.8664 87.0712 13.855 87.0484 13.8398C87.0294 13.8285 87.0067 13.8171 86.984 13.8095C86.9612 13.8019 86.9348 13.7981 86.9082 13.7943C86.8931 13.7943 86.8778 13.7867 86.8627 13.7867C86.8551 13.7867 86.8475 13.7905 86.8399 13.7905C86.8171 13.7905 86.7906 13.7981 86.7678 13.8057C86.7413 13.8133 86.7186 13.8171 86.6958 13.8285C86.6882 13.8285 86.6806 13.8285 86.673 13.8361L25.6314 49.0789C25.6314 49.0789 25.6085 49.1017 25.5971 49.1093C25.5782 49.1245 25.5555 49.1396 25.5403 49.1586C25.5251 49.1776 25.5138 49.1965 25.4986 49.2193C25.4872 49.2382 25.4758 49.261 25.4682 49.2838C25.4607 49.3103 25.4569 49.3331 25.4531 49.3596C25.4531 49.3748 25.4455 49.3899 25.4455 49.4051V148.102L18.5652 152.073V44.7134L94.1183 1.09597V117.793C94.1183 121.04 92.1271 123.79 89.0435 124.803H89.0396Z" fill="#F16C3F"></path><path d="M35.1775 118.837C35.1775 118.837 35.185 118.863 35.1888 118.875C35.1888 118.875 35.1888 118.882 35.1888 118.886C35.1888 118.89 35.1965 118.893 35.2003 118.897C35.2154 118.916 35.2306 118.935 35.2495 118.947C35.2571 118.95 35.2608 118.954 35.2684 118.958C35.295 118.973 35.3216 118.981 35.352 118.981C35.3823 118.981 35.4126 118.969 35.4392 118.958C35.4392 118.958 35.443 118.958 35.4468 118.958L81.2299 92.5258C81.3209 92.4727 81.3513 92.3589 81.2982 92.2679C81.2451 92.1769 81.1313 92.1465 81.0402 92.1996L73.6935 96.44V49.1815C75.7189 50.8351 77.0768 53.3384 77.2361 55.9479C77.2437 56.0503 77.3195 56.1299 77.4371 56.1223C77.5395 56.1147 77.6191 56.0275 77.6115 55.9213C77.437 53.107 75.9275 50.4141 73.6935 48.696V35.0873C73.6935 35.0873 73.6935 35.0798 73.6935 35.076C73.6935 35.0646 73.6897 35.0532 73.6859 35.038C73.6859 35.0267 73.6784 35.0153 73.6746 35.0039C73.6746 35.0039 73.6746 34.9963 73.6746 34.9925C73.6708 34.9849 73.6632 34.9811 73.6594 34.9736C73.6518 34.9622 73.6443 34.9546 73.6329 34.9432C73.6254 34.9356 73.614 34.928 73.6026 34.9243C73.5912 34.9167 73.5797 34.9129 73.5683 34.9091C73.5569 34.9053 73.5457 34.9015 73.5305 34.9015C73.5229 34.9015 73.5153 34.8977 73.5078 34.8977C73.504 34.8977 73.5001 34.8977 73.4963 34.8977C73.4849 34.8977 73.4735 34.9015 73.4583 34.9053C73.4469 34.9053 73.4356 34.9129 73.4242 34.9167C73.4242 34.9167 73.4167 34.9167 73.4129 34.9167L35.2608 56.9416C35.2608 56.9416 35.2495 56.953 35.2419 56.9567C35.2306 56.9643 35.223 56.9719 35.2116 56.9833C35.204 56.9909 35.1965 57.0023 35.1927 57.0136C35.1851 57.025 35.1813 57.0326 35.1775 57.0478C35.1737 57.0592 35.1699 57.0705 35.1699 57.0857C35.1699 57.0933 35.166 57.1009 35.166 57.1085V118.784C35.166 118.784 35.166 118.791 35.166 118.795C35.166 118.806 35.1698 118.818 35.1736 118.829L35.1775 118.837ZM73.3181 39.066L35.5416 60.8747V57.2222L73.3181 35.4135V39.066ZM50.4284 81.7845L43.1765 85.9718V70.4364L50.4284 66.2492V81.7845ZM73.3181 69.0027V71.8739L35.5416 93.6826V90.8115L73.3181 69.0027ZM58.435 88.0579L65.6869 83.8706V101.056L58.435 105.243V88.0579ZM66.0662 100.84V83.5444C66.0662 83.4761 66.0321 83.4155 65.9714 83.3813C65.9145 83.3472 65.8424 83.3472 65.7817 83.3813L58.1505 87.7848C58.0936 87.8189 58.0557 87.8796 58.0557 87.9479V105.459L35.5416 118.457V94.1112L73.3181 72.3025V96.6486L66.0623 100.836L66.0662 100.84ZM61.5413 58.4966C61.2227 58.0984 60.8813 57.7191 60.4983 57.3777C60.4224 57.3095 60.3012 57.3133 60.2329 57.3929C60.1646 57.4688 60.1684 57.5901 60.2481 57.6584C60.7298 58.0908 61.162 58.5763 61.5337 59.1035C61.5678 59.1528 61.6249 59.1831 61.6856 59.1831C61.6856 59.1831 61.6894 59.1831 61.6932 59.1831C61.7576 59.1831 61.8144 59.149 61.8485 59.0959C62.114 58.6635 62.444 58.2766 62.8271 57.9391C62.9068 57.8708 62.9144 57.7532 62.8423 57.6736C62.774 57.5939 62.6564 57.5863 62.5767 57.6584C62.334 57.8708 62.1216 58.1098 61.9206 58.3601C62.0951 53.8808 65.1293 49.5456 69.309 47.9147C69.7376 47.7478 70.1928 47.5961 70.6631 47.6302C71.0348 47.6568 71.4027 47.8009 71.7099 47.9412C72.2788 48.1991 72.8137 48.5177 73.3181 48.8856V68.5742L50.8038 81.5721V65.9306C50.8038 65.8623 50.7697 65.8016 50.709 65.7675C50.6521 65.7333 50.58 65.7333 50.5193 65.7675L42.8883 70.1747C42.8314 70.2089 42.7935 70.2695 42.7935 70.3378V86.1956L35.5377 90.3829V61.3147L73.3142 39.506V48.4305C72.8553 48.1119 72.3698 47.8312 71.8615 47.5999C71.524 47.4481 71.1183 47.2851 70.6859 47.2585C70.1473 47.2206 69.6163 47.395 69.1688 47.5695C64.807 49.2725 61.6513 53.8277 61.5337 58.508L61.5413 58.4966Z" fill="#F16C3F"></path><path d="M50.8054 92.3596C50.8054 92.3596 50.8055 92.3482 50.8017 92.3444C50.8017 92.3216 50.7942 92.3027 50.7828 92.2799C50.7828 92.2723 50.7751 92.2647 50.7713 92.2571C50.7562 92.2306 50.7371 92.2116 50.7106 92.1927C50.684 92.1775 50.6538 92.1699 50.6273 92.1699C50.6197 92.1699 50.6121 92.1699 50.6045 92.1699C50.5817 92.1699 50.559 92.1775 50.54 92.1851C50.5362 92.1851 50.5286 92.1851 50.5248 92.1889L42.8936 96.5923C42.8936 96.5923 42.8936 96.5961 42.8861 96.5999C42.8595 96.6151 42.8406 96.6341 42.8216 96.6644C42.8064 96.691 42.7988 96.7213 42.7988 96.7478V96.7554V105.566C42.7988 105.566 42.8027 105.578 42.8027 105.581C42.8027 105.604 42.8102 105.623 42.8216 105.646C42.8216 105.653 42.8291 105.661 42.8329 105.669C42.8481 105.695 42.8671 105.714 42.8936 105.733C42.924 105.748 42.9543 105.76 42.9885 105.76C43.0226 105.76 43.0529 105.752 43.0833 105.733L50.7106 101.33C50.7334 101.314 50.7486 101.295 50.7637 101.273C50.7675 101.269 50.7751 101.265 50.7789 101.258C50.7941 101.231 50.8017 101.201 50.8017 101.174V101.166V92.3558L50.8054 92.3596ZM43.1744 97.0892L46.5461 99.0349L43.1781 104.872V97.0892H43.1744ZM43.364 96.763L50.1039 92.8716L46.7357 98.7087L43.364 96.763ZM46.8724 99.2246L50.2441 101.17L43.5042 105.062L46.8724 99.2246ZM50.43 100.844L47.0582 98.8984L50.4261 93.0612V100.844H50.43Z" fill="#F16C3F"></path><path d="M58.0566 61.5189V70.3296C58.0566 70.3979 58.0946 70.4586 58.1515 70.4927C58.1818 70.5079 58.2121 70.5193 58.2463 70.5193C58.2804 70.5193 58.3108 70.5117 58.3411 70.4927L65.9723 66.0893C66.0292 66.0551 66.0671 65.9944 66.0671 65.9262V57.1154C66.0671 57.0472 66.0292 56.9865 65.9723 56.9524C65.9154 56.9182 65.8433 56.9182 65.7827 56.9524L58.1515 61.3596C58.0946 61.3937 58.0566 61.4544 58.0566 61.5227V61.5189ZM65.6878 57.4378V65.8124L58.4359 69.9997V61.6251L65.6878 57.4378Z" fill="#F16C3F"></path><path d="M61.9674 112.021L50.5206 118.628C50.4637 118.662 50.4257 118.723 50.4257 118.791V120.35L43.1701 124.678V123.198C43.1701 123.13 43.136 123.069 43.0753 123.035C43.0184 123.001 42.9464 123.001 42.8857 123.035L35.2545 127.442C35.1634 127.496 35.1332 127.609 35.1863 127.7C35.2205 127.761 35.2848 127.795 35.3493 127.795C35.3796 127.795 35.4138 127.788 35.4441 127.769L42.7908 123.524V125.011C42.7908 125.08 42.8288 125.14 42.8857 125.174C42.9464 125.209 43.0184 125.209 43.0753 125.174L50.7065 120.623C50.7634 120.589 50.7974 120.528 50.7974 120.46V118.905L62.1494 112.351C62.2404 112.298 62.2708 112.184 62.2177 112.093C62.1646 112.002 62.0508 111.972 61.9598 112.025L61.9674 112.021Z" fill="#F16C3F"></path></svg>