<svg xmlns="http://www.w3.org/2000/svg" width="166" height="20" viewBox="0 0 166 20" fill="none"><path d="M5.684 15H7L10.192 7.3V15H11.62V4.948H9.716L6.356 13.11L2.982 4.948H1.092V15H2.506V7.314L5.684 15ZM18.4252 15H19.6012V10.24C19.6012 8.476 18.5372 7.44 16.7032 7.44C14.9672 7.44 13.7772 8.546 13.7072 10.212H14.9952C15.0372 9.176 15.6672 8.56 16.7032 8.56C17.6832 8.56 18.2572 9.162 18.2572 10.226V10.772C17.6552 10.702 17.3052 10.688 16.8712 10.688C14.6592 10.688 13.4972 11.444 13.4972 12.9C13.4972 14.258 14.5052 15.14 16.0452 15.14C17.1372 15.14 17.9632 14.678 18.4252 13.852V15ZM14.8412 12.858C14.8412 11.99 15.5412 11.57 16.9552 11.57C17.3192 11.57 17.7112 11.584 18.2572 11.654V12.256C18.2572 13.39 17.5152 14.132 16.3252 14.132C15.4152 14.132 14.8412 13.628 14.8412 12.858ZM21.2097 11.29C21.2097 13.516 22.4977 15.14 24.4997 15.14C25.5497 15.14 26.4457 14.608 26.9777 13.67V15H28.2937V4.948H26.8797V8.854C26.3617 7.944 25.4937 7.44 24.4997 7.44C22.4977 7.44 21.2097 9.036 21.2097 11.29ZM22.6797 11.29C22.6797 9.61 23.5477 8.686 24.7797 8.686C25.9557 8.686 26.8797 9.596 26.8797 11.262C26.8797 12.9 25.9837 13.88 24.7797 13.88C23.5477 13.88 22.6797 12.942 22.6797 11.29ZM33.5613 15.14C35.3113 15.14 36.5853 14.146 36.9493 12.494H35.5493C35.3113 13.46 34.5833 14.034 33.5333 14.034C32.2873 14.034 31.5313 13.152 31.4193 11.64H36.9493C37.2013 9.232 35.7313 7.44 33.5193 7.44C31.4753 7.44 29.9773 9.05 29.9773 11.248C29.9773 13.586 31.4193 15.14 33.5613 15.14ZM33.4913 8.504C34.6393 8.504 35.3813 9.33 35.4513 10.702H31.4333C31.5873 9.316 32.3573 8.504 33.4913 8.504ZM48.0104 15H49.4244L51.5804 7.58H50.1804L48.6824 12.998L47.0304 7.58H45.6304L43.9504 12.984L42.4524 7.58H41.0664L43.2084 15H44.6364L46.3304 9.484L48.0104 15ZM54.7059 5.858C54.7059 5.312 54.2859 4.92 53.6839 4.92C53.0819 4.92 52.6479 5.312 52.6479 5.858C52.6479 6.39 53.0819 6.796 53.6839 6.796C54.2859 6.796 54.7059 6.39 54.7059 5.858ZM54.3979 15V7.58H52.9839V15H54.3979ZM60.7969 13.628C60.5029 13.768 60.2089 13.824 59.8729 13.824C59.1169 13.824 58.6269 13.46 58.6269 12.438V8.784H60.8669V7.58H58.6269V5.382H57.2129V7.58H55.5749V8.784H57.2129V12.76C57.2129 14.398 58.1649 15.14 59.5369 15.14C59.9849 15.14 60.3629 15.07 60.7969 14.874V13.628ZM63.8803 10.814C63.8803 9.498 64.6923 8.686 65.6583 8.686C66.7083 8.686 67.2683 9.4 67.2683 10.674V15H68.6823V10.198C68.6823 8.42 67.6743 7.44 66.1483 7.44C65.1263 7.44 64.3703 7.972 63.8803 8.77V4.948H62.4663V15H63.8803V10.814ZM81.0699 11.29C81.0699 9.05 79.7679 7.44 77.7939 7.44C76.7439 7.44 75.8339 7.986 75.3019 8.938V7.58H73.9859V17.702H75.3999V13.74C75.9319 14.636 76.7859 15.14 77.7939 15.14C79.7819 15.14 81.0699 13.53 81.0699 11.29ZM79.5999 11.29C79.5999 12.956 78.7179 13.88 77.4999 13.88C76.3099 13.88 75.3999 12.928 75.3999 11.29C75.3999 9.624 76.3239 8.686 77.4999 8.686C78.7179 8.686 79.5999 9.624 79.5999 11.29ZM87.2474 15H88.4234V10.24C88.4234 8.476 87.3594 7.44 85.5254 7.44C83.7894 7.44 82.5994 8.546 82.5294 10.212H83.8174C83.8594 9.176 84.4894 8.56 85.5254 8.56C86.5054 8.56 87.0794 9.162 87.0794 10.226V10.772C86.4774 10.702 86.1274 10.688 85.6934 10.688C83.4814 10.688 82.3194 11.444 82.3194 12.9C82.3194 14.258 83.3274 15.14 84.8674 15.14C85.9594 15.14 86.7854 14.678 87.2474 13.852V15ZM83.6634 12.858C83.6634 11.99 84.3634 11.57 85.7774 11.57C86.1414 11.57 86.5334 11.584 87.0794 11.654V12.256C87.0794 13.39 86.3374 14.132 85.1474 14.132C84.2374 14.132 83.6634 13.628 83.6634 12.858ZM96.444 12.788C96.444 11.724 95.744 11.08 94.274 10.814L93.014 10.576C92.118 10.408 91.74 10.128 91.74 9.526C91.74 8.882 92.342 8.504 93.238 8.504C94.232 8.504 94.89 9.022 94.974 9.918H96.332C96.206 8.392 95.002 7.44 93.224 7.44C91.502 7.44 90.368 8.35 90.368 9.652C90.368 10.772 91.138 11.472 92.51 11.738L93.714 11.962C94.638 12.144 95.016 12.41 95.016 13.026C95.016 13.726 94.358 14.076 93.364 14.076C92.23 14.076 91.488 13.502 91.432 12.578H90.074C90.214 14.174 91.376 15.14 93.336 15.14C95.31 15.14 96.444 14.244 96.444 12.788ZM104.118 12.788C104.118 11.724 103.418 11.08 101.948 10.814L100.688 10.576C99.7918 10.408 99.4138 10.128 99.4138 9.526C99.4138 8.882 100.016 8.504 100.912 8.504C101.906 8.504 102.564 9.022 102.648 9.918H104.006C103.88 8.392 102.676 7.44 100.898 7.44C99.1758 7.44 98.0418 8.35 98.0418 9.652C98.0418 10.772 98.8118 11.472 100.184 11.738L101.388 11.962C102.312 12.144 102.69 12.41 102.69 13.026C102.69 13.726 102.032 14.076 101.038 14.076C99.9038 14.076 99.1618 13.502 99.1058 12.578H97.7478C97.8878 14.174 99.0498 15.14 101.01 15.14C102.984 15.14 104.118 14.244 104.118 12.788ZM107.634 5.858C107.634 5.312 107.214 4.92 106.612 4.92C106.01 4.92 105.576 5.312 105.576 5.858C105.576 6.39 106.01 6.796 106.612 6.796C107.214 6.796 107.634 6.39 107.634 5.858ZM107.326 15V7.58H105.912V15H107.326ZM112.647 15.14C114.747 15.14 116.287 13.488 116.287 11.29C116.287 9.092 114.747 7.44 112.647 7.44C110.547 7.44 109.007 9.092 109.007 11.29C109.007 13.488 110.547 15.14 112.647 15.14ZM112.647 13.894C111.429 13.894 110.477 12.914 110.477 11.29C110.477 9.666 111.429 8.7 112.647 8.7C113.865 8.7 114.831 9.666 114.831 11.29C114.831 12.914 113.865 13.894 112.647 13.894ZM119.392 10.814C119.392 9.498 120.204 8.686 121.17 8.686C122.22 8.686 122.78 9.4 122.78 10.674V15H124.194V10.198C124.194 8.42 123.186 7.44 121.66 7.44C120.638 7.44 119.798 7.986 119.294 8.812V7.58H117.978V15H119.392V10.814ZM136.582 11.29C136.582 9.036 135.28 7.44 133.292 7.44C132.284 7.44 131.43 7.944 130.912 8.854V4.948H129.498V15H130.814V13.67C131.346 14.608 132.242 15.14 133.292 15.14C135.294 15.14 136.582 13.516 136.582 11.29ZM135.112 11.29C135.112 12.942 134.23 13.88 133.012 13.88C131.808 13.88 130.912 12.9 130.912 11.262C130.912 9.596 131.836 8.686 133.012 8.686C134.23 8.686 135.112 9.61 135.112 11.29ZM144.193 7.58H142.765L140.763 13.236L138.607 7.58H137.081L140.007 14.902L138.943 17.702H140.483L144.193 7.58Z" fill="white"></path><path d="M159.311 18C158.283 18 157.274 17.8346 156.31 17.508C154.569 16.9594 153.29 15.3717 153.137 13.5621C153.047 12.3618 153 11.1402 153 9.92578C153 9.57374 153.004 9.22029 153.011 8.86825C153.024 8.26173 153.051 7.634 153.089 7.00203C153.099 6.85358 153.106 6.72493 153.116 6.59627C153.148 6.19051 153.208 5.65892 153.383 5.1344C153.587 4.52364 153.978 3.93408 154.545 3.38128C155.05 2.88928 155.69 2.52311 156.396 2.31952C157.111 2.11169 157.886 2 158.635 2C159.511 2 160.421 2.15693 161.271 2.45524C163.229 3.18759 164.535 5.07219 164.535 7.15048C164.535 7.73155 164.438 8.29708 164.245 8.83432C164.426 9.0068 164.599 9.18777 164.76 9.37863C165.523 10.3146 165.941 11.4668 165.941 12.6318C165.941 14.7044 164.63 16.6102 162.679 17.3737C161.609 17.7865 160.482 17.9958 159.328 17.9986H159.31L159.311 18ZM158.637 3.27101C158.006 3.27101 157.355 3.36432 156.751 3.53963C156.242 3.68525 155.787 3.94539 155.432 4.29177C155.01 4.70178 154.726 5.12026 154.588 5.53733C154.455 5.9332 154.408 6.36582 154.381 6.69806C154.371 6.81824 154.364 6.93982 154.357 7.06141C154.319 7.6948 154.294 8.30556 154.281 8.89511C154.274 9.23867 154.27 9.58222 154.27 9.92578C154.27 11.1091 154.315 12.2981 154.402 13.4603C154.513 14.7582 155.437 15.9019 156.706 16.302C157.551 16.5876 158.425 16.7304 159.313 16.7304C159.774 16.7304 160.442 16.6922 161.22 16.5042C161.343 16.4745 161.836 16.343 162.221 16.1917C163.687 15.6177 164.674 14.187 164.674 12.6318C164.674 11.7708 164.35 10.8815 163.786 10.1887C163.738 10.1308 163.687 10.0742 163.635 10.0177C162.707 11.3382 161.175 12.1553 159.532 12.1553C158.085 12.1553 156.909 10.9791 156.909 9.53415C156.909 8.08925 158.085 6.91155 159.532 6.91155C160.828 6.93276 162.091 7.31307 163.174 7.99735C163.237 7.72166 163.27 7.4389 163.27 7.14907C163.27 5.59813 162.294 4.18998 160.841 3.64708C160.137 3.40108 159.371 3.26818 158.637 3.26818V3.27101ZM159.52 8.18256C158.785 8.18256 158.177 8.78908 158.177 9.53557C158.177 10.2821 158.785 10.8886 159.53 10.8886C160.801 10.8886 161.983 10.234 162.666 9.18494C161.743 8.55439 160.644 8.20094 159.519 8.18256H159.52Z" fill="#3EE595"></path></svg>