<svg xmlns="http://www.w3.org/2000/svg" width="302" height="276" viewBox="0 0 302 276" fill="none"><path d="M188.458 38.4052C166.633 39.0631 145.204 86.9403 158.721 104.359C172.238 121.778 189.549 115.596 196.298 127.284C199.227 132.348 201.11 128.14 206.932 122.887C212.753 117.633 236.363 87.7423 233.839 70.9992C231.316 54.2562 208.815 37.7835 188.458 38.4052Z" fill="#263238"></path><path d="M196.026 122.841C184.771 117.966 171.876 116.741 161.9 109.09C156.953 105.305 153.475 100.394 153.078 94.0321C152.709 88.2828 154.069 82.3173 155.881 76.9105C158.173 70.0152 161.67 63.5807 166.208 57.9056C166.298 57.7885 166.127 57.6353 166.027 57.7524C158.215 67.1602 152.556 79.5418 152.285 91.9324C152.175 94.6567 152.628 97.3743 153.615 99.9156C154.603 102.457 156.104 104.767 158.025 106.702C162.243 111.027 167.758 113.857 173.345 115.948C180.725 118.705 188.439 120.453 195.828 123.157C196.071 123.229 196.233 122.931 196.026 122.841Z" fill="#263238"></path><path d="M189.34 157.346C160.422 191.039 112.022 232.528 95.6847 223.129C81.9244 215.19 70.8765 164.717 70.7324 148.767C70.6693 141.558 120.087 125.167 120.178 132.925C120.277 141.126 121.98 164.15 123.097 163.78C126.702 162.627 136.614 156.373 171.849 139.522C191.439 130.105 208.48 135.043 189.34 157.346Z" fill="#BF8178"></path><path d="M113.097 195.148C116.071 190.454 123.262 177.063 122.893 163.203C122.893 163.05 122.712 163.032 122.694 163.203C121.694 174.504 115.485 190.237 112.944 195.031C112.881 195.148 113.043 195.266 113.097 195.148Z" fill="#263238"></path><path d="M152.52 201.583L136.525 153.759C136.525 153.759 169.534 136.422 188.503 131.177C199.136 128.23 201.56 136.449 196.973 145.289C180.915 176.252 152.52 201.583 152.52 201.583Z" fill="#C4D095"></path><path d="M152.52 201.583L136.525 153.759C136.525 153.759 169.534 136.422 188.503 131.177C199.136 128.23 201.56 136.449 196.973 145.289C180.915 176.252 152.52 201.583 152.52 201.583Z" fill="#C4D095"></path><path opacity="0.1" d="M156.63 164.276C156.729 164.085 156.897 163.939 157.1 163.869C157.303 163.798 157.525 163.809 157.72 163.897L162.316 166.141C162.353 166.156 162.386 166.177 162.415 166.204C162.415 166.204 162.478 166.258 162.514 166.285L162.577 166.366C162.577 166.366 162.577 166.366 162.577 166.411V166.492V166.546C162.577 166.546 162.577 166.601 162.577 166.628C162.579 166.655 162.579 166.682 162.577 166.709C162.577 166.709 162.577 166.709 162.577 166.781C162.577 166.853 162.577 166.835 162.577 166.862C162.584 166.882 162.584 166.904 162.577 166.925C162.586 166.961 162.586 166.998 162.577 167.033C162.577 167.033 162.577 167.105 162.577 167.123L160.397 171.755C160.293 171.946 160.123 172.094 159.919 172.17C159.725 172.245 159.509 172.245 159.315 172.17C159.218 172.125 159.131 172.062 159.058 171.983C158.986 171.904 158.93 171.811 158.894 171.711C158.857 171.61 158.842 171.503 158.848 171.396C158.854 171.289 158.881 171.184 158.928 171.088L160.775 167.195L156.909 165.321C156.744 165.21 156.624 165.043 156.573 164.851C156.521 164.659 156.542 164.454 156.63 164.276ZM149.673 166.556C149.739 166.489 149.817 166.437 149.902 166.401C149.988 166.365 150.08 166.347 150.173 166.347C150.266 166.347 150.359 166.365 150.444 166.401C150.53 166.437 150.608 166.489 150.674 166.556L156.08 172.548C156.144 172.616 156.194 172.697 156.226 172.785C156.258 172.873 156.272 172.966 156.267 173.06C156.262 173.153 156.238 173.245 156.196 173.329C156.155 173.413 156.097 173.487 156.026 173.548C155.961 173.608 155.884 173.654 155.801 173.683C155.67 173.727 155.529 173.732 155.395 173.698C155.261 173.665 155.139 173.594 155.044 173.494L149.637 167.484C149.525 167.353 149.467 167.185 149.474 167.013C149.481 166.841 149.552 166.677 149.673 166.556ZM144.771 172.548C144.768 172.503 144.768 172.458 144.771 172.413C144.784 172.374 144.802 172.338 144.825 172.305L147.006 167.673C147.105 167.482 147.273 167.336 147.476 167.266C147.678 167.196 147.901 167.206 148.096 167.294C148.193 167.34 148.279 167.404 148.351 167.483C148.422 167.562 148.477 167.655 148.513 167.756C148.548 167.856 148.563 167.963 148.556 168.07C148.55 168.176 148.522 168.28 148.475 168.376L146.672 172.269L150.538 174.143C150.636 174.188 150.724 174.253 150.796 174.333C150.869 174.412 150.925 174.505 150.961 174.607C150.997 174.708 151.012 174.816 151.006 174.924C151 175.031 150.973 175.137 150.926 175.233C150.828 175.424 150.66 175.569 150.457 175.639C150.359 175.681 150.253 175.703 150.146 175.703C150.039 175.703 149.934 175.681 149.835 175.639L145.24 173.386C145.198 173.374 145.159 173.355 145.123 173.332L145.023 173.242L144.951 173.152V173.062V173.008C144.947 172.984 144.947 172.959 144.951 172.936C144.95 172.909 144.95 172.881 144.951 172.854C144.951 172.854 144.951 172.854 144.951 172.809C144.951 172.764 144.951 172.737 144.951 172.692L144.771 172.548ZM199.164 136.935C199.097 136.974 199.024 136.998 198.947 137.007C198.735 137.038 198.519 136.987 198.343 136.863C198.168 136.739 198.049 136.552 198.01 136.341L197.352 132.294C198.536 133.547 199.186 135.212 199.164 136.935ZM176.04 152.93L180.276 152.2L179.582 147.947C179.558 147.74 179.613 147.532 179.737 147.365C179.861 147.197 180.044 147.083 180.249 147.046C180.455 147.024 180.662 147.081 180.829 147.204C180.996 147.327 181.11 147.509 181.15 147.713L181.97 152.768C181.978 152.807 181.978 152.847 181.97 152.885C181.974 152.93 181.974 152.976 181.97 153.021C181.97 153.021 181.97 153.075 181.97 153.12C181.97 153.165 181.97 153.12 181.97 153.174L181.916 153.246V153.309C181.916 153.309 181.916 153.309 181.862 153.363V153.435C181.862 153.435 181.862 153.435 181.799 153.435C181.736 153.435 181.799 153.435 181.736 153.435C181.726 153.441 181.715 153.443 181.704 153.443C181.693 153.443 181.682 153.441 181.673 153.435C181.646 153.461 181.616 153.482 181.582 153.498H181.537C181.522 153.507 181.505 153.511 181.488 153.511C181.47 153.511 181.453 153.507 181.438 153.498L176.401 154.399C176.185 154.424 175.967 154.369 175.788 154.246C175.702 154.187 175.629 154.111 175.573 154.022C175.518 153.934 175.48 153.835 175.464 153.732C175.457 153.554 175.509 153.377 175.614 153.232C175.718 153.087 175.869 152.981 176.04 152.93ZM171.778 151.074L173.58 143.171C173.619 142.992 173.727 142.836 173.881 142.736C174.034 142.637 174.221 142.602 174.4 142.639C174.584 142.68 174.744 142.793 174.846 142.951C174.947 143.11 174.981 143.302 174.941 143.486L173.139 151.38C173.12 151.472 173.083 151.558 173.029 151.634C172.976 151.711 172.907 151.775 172.828 151.824C172.749 151.873 172.66 151.905 172.568 151.919C172.476 151.932 172.382 151.927 172.292 151.903C172.206 151.886 172.126 151.849 172.057 151.795C171.945 151.716 171.858 151.605 171.808 151.477C171.758 151.349 171.748 151.208 171.778 151.074ZM166.254 142.648C166.254 142.648 166.254 142.648 166.254 142.603C166.254 142.558 166.254 142.549 166.254 142.495L166.317 142.414C166.318 142.393 166.318 142.372 166.317 142.351H166.371L166.425 142.279C166.461 142.259 166.495 142.235 166.524 142.207L166.642 142.153C166.683 142.148 166.726 142.148 166.768 142.153L171.805 141.252C172.012 141.23 172.219 141.286 172.385 141.41C172.552 141.533 172.667 141.715 172.706 141.919C172.735 142.126 172.681 142.337 172.556 142.505C172.432 142.673 172.246 142.786 172.039 142.82L167.795 143.55L168.498 147.803C168.522 148.01 168.466 148.218 168.343 148.385C168.219 148.553 168.036 148.667 167.831 148.704C167.619 148.735 167.403 148.683 167.227 148.56C167.058 148.431 166.94 148.245 166.894 148.037L166.074 142.982C166.07 142.94 166.07 142.898 166.074 142.856C166.13 142.795 166.176 142.725 166.209 142.648H166.254Z" fill="#030402"></path><path opacity="0.1" d="M140.155 164.6L152.527 201.547C152.527 201.547 180.913 176.216 196.971 145.253C198.683 141.946 199.422 138.738 199.116 136.151L140.155 164.6Z" fill="black"></path><path d="M144.581 152.903C147.654 160.058 155.394 179.703 158.801 193.13C158.801 193.211 158.53 193.328 158.494 193.247C153.989 182.506 146.581 160.464 144.139 153.075C144.121 152.939 144.581 152.768 144.581 152.903Z" fill="#263238"></path><path d="M85.9555 163.6C91.3623 166.303 120.117 143.567 120.298 137.395C120.424 133.096 119.613 114.722 123.722 103.278C127.146 93.6536 133.346 79.7581 128.228 77.7216C120.793 74.7298 110.845 91.3557 105.699 101.25C102.383 96.1768 99.0489 92.1307 96.2464 90.4816C86.9197 85.0117 57.2003 123.508 61.1022 133.781C64.923 143.685 80.6027 160.896 85.9555 163.6Z" fill="#BF8178"></path><path d="M99.3628 76.3124L107.152 79.9067L88.875 119.517L81.0854 115.923L99.3628 76.3124Z" fill="#C7C7C7"></path><path d="M66.4522 142.387L78.239 147.821L94.4414 112.704L82.6546 107.27L66.4522 142.387Z" fill="#263238"></path><path d="M108.931 101.782C107.94 107.315 101.992 102.972 101.992 102.972C101.992 102.972 109.039 111.28 105.813 116.579C102.677 121.679 95.6843 116.182 95.1797 115.795C95.5491 116.236 101.821 124.049 98.0272 129.032C94.0803 134.223 88.0066 127.5 87.6101 127.059C87.8264 127.59 90.5839 134.61 86.8352 137.746C80.3921 143.153 72.8586 125.374 66.4515 123.085C66.4515 123.085 61.3421 133.502 61.1348 133.772C61.1348 133.772 53.6194 117.011 57.1789 108.541C57.6763 107.3 58.5826 106.266 59.7478 105.61C60.913 104.955 62.2671 104.717 63.5859 104.936C63.5859 104.936 60.5671 99.7995 63.4327 95.7805C64.9106 93.7169 69.5244 94.2395 69.5244 94.2395C69.5244 94.2395 67.2716 90.0312 70.0471 86.6069C72.2548 83.9035 76.5352 84.8047 76.5352 84.8047C76.5352 84.8047 76.2559 79.7673 79.4188 77.6947C85.7808 73.5585 111.067 89.9411 108.931 101.782Z" fill="#BF8178"></path><path d="M77.2371 84.8947C77.147 84.8407 77.2371 84.7145 77.2911 84.7415C86.9243 88.1028 96.4763 94.7531 102.343 103.17C102.532 103.449 102.162 103.882 101.892 103.611C94.1964 96.0868 86.753 90.0312 77.2371 84.8947Z" fill="#263238"></path><path d="M69.4286 94.1313C69.3294 94.0682 69.4286 93.897 69.5367 93.942C79.4492 97.4564 89.9924 105.233 95.6065 115.74C95.8047 116.101 95.6065 116.642 95.3632 116.218C91.1008 109.514 78.0254 98.709 69.4286 94.1313Z" fill="#263238"></path><path d="M87.7541 127.933C81.9779 118.065 73.6243 111.046 64.0092 105.071C63.8831 104.999 64.0093 104.828 64.1264 104.864C69.6233 106.504 75.3635 110.955 79.5268 114.776C83.4626 118.265 86.4171 122.723 88.0966 127.708C88.1596 127.924 87.8713 128.14 87.7541 127.933Z" fill="#263238"></path><path d="M102.181 102.971C102.415 103.305 101.676 103.278 101.892 103.611C102.794 105.044 107.651 114.1 105.082 116.704C103.01 118.786 98.7745 117.452 97.3507 116.299L93.7462 113.406L96.0982 117.371C97.1624 119.121 97.9354 121.033 98.387 123.03C98.7925 124.986 98.6844 127.049 97.585 128.482C97.106 129.223 96.3868 129.775 95.5482 130.048C94.7096 130.32 93.8028 130.296 92.9802 129.978C91.1502 129.236 89.5402 128.039 88.3034 126.5L84.6988 122.364L86.7084 127.41C87.2657 128.816 87.6412 130.288 87.8258 131.789C88.0644 133.203 87.8762 134.656 87.2851 135.962C86.9948 136.539 86.5491 137.023 85.9982 137.361C85.4474 137.699 84.8132 137.876 84.1672 137.872C82.7266 137.656 81.3786 137.03 80.2833 136.07C77.8743 134.026 75.6324 131.793 73.5788 129.392C72.4975 128.221 71.4161 127.04 70.2717 125.905C69.1863 124.711 67.8635 123.756 66.3878 123.103C67.7649 123.898 68.9739 124.954 69.9473 126.211C70.9926 127.41 71.9748 128.663 72.9661 129.915C74.8911 132.522 77.0639 134.936 79.4542 137.124C80.7274 138.33 82.3245 139.138 84.05 139.449C85.0062 139.516 85.9611 139.302 86.7969 138.833C87.6328 138.363 88.3131 137.66 88.7539 136.809C89.5297 135.209 89.8151 133.416 89.574 131.654C89.3935 129.979 88.9967 128.334 88.3935 126.761L86.8345 127.662C88.2672 129.509 90.1595 130.948 92.3224 131.834C93.5355 132.293 94.8704 132.315 96.0982 131.898C97.2888 131.449 98.3159 130.651 99.0449 129.609C99.6909 128.595 100.115 127.455 100.289 126.265C100.463 125.076 100.383 123.863 100.054 122.706C99.5323 120.513 98.6524 118.422 97.4499 116.515L96.2243 117.588C98.0897 118.993 102.658 121.003 106.272 118.173C110.489 113.749 103.569 104.566 102.181 102.971Z" fill="#263238"></path><path d="M101.991 102.972C103.041 103.46 104.159 103.785 105.307 103.936C105.766 104.008 106.235 103.956 106.666 103.785C107.098 103.614 107.475 103.33 107.758 102.963C108.275 102.076 108.522 101.058 108.47 100.034C108.47 98.8984 108.407 97.7089 108.299 96.4834C108.997 97.5212 109.47 98.6939 109.687 99.9257C109.844 100.597 109.867 101.293 109.754 101.974C109.641 102.654 109.394 103.306 109.029 103.891C108.573 104.492 107.944 104.938 107.227 105.17C106.535 105.369 105.801 105.369 105.109 105.17C103.861 104.791 102.767 104.02 101.991 102.972Z" fill="#263238"></path><path d="M290.941 267.104L155.222 266.833L162.728 220.164C162.728 220.164 151.996 207.142 154.023 193.013C156.249 177.531 184.166 138.296 186.509 136.079C195.962 127.212 205.965 125.626 215.571 128.825C259.924 156.67 290.941 267.104 290.941 267.104Z" fill="#C4D095"></path><path d="M184.232 216.551C189.785 217.04 195.294 217.944 200.713 219.254C203.417 219.939 206.03 220.75 208.661 221.615C209.977 222.047 211.293 222.435 212.617 222.813C213.995 223.251 215.42 223.52 216.862 223.615C216.888 223.615 216.913 223.626 216.932 223.644C216.95 223.663 216.961 223.688 216.961 223.715C216.961 223.741 216.95 223.766 216.932 223.785C216.913 223.803 216.888 223.814 216.862 223.814C215.498 223.88 214.131 223.856 212.771 223.742C211.458 223.581 210.158 223.334 208.878 223.003C206.174 222.327 203.471 221.534 200.768 220.831C195.271 219.425 189.783 218.01 184.205 217.001C183.88 216.965 183.943 216.523 184.232 216.551Z" fill="#263238"></path><path d="M170.486 221.471C175.06 220.987 179.657 220.764 184.256 220.804C186.554 220.804 188.833 220.993 191.131 221.218C192.222 221.326 193.312 221.453 194.402 221.588C195.493 221.723 196.781 222.056 198.007 222.191C198.133 222.191 198.133 222.399 198.007 222.39C196.872 222.291 195.709 222.39 194.574 222.39L191.14 222.3C188.842 222.246 186.554 222.209 184.256 222.137C179.669 221.975 175.1 221.867 170.504 221.876C170.234 221.849 170.252 221.489 170.486 221.471Z" fill="#263238"></path><path opacity="0.1" d="M209.246 205.313C209.343 205.121 209.51 204.973 209.713 204.901C209.916 204.829 210.139 204.838 210.336 204.926L214.932 207.179C214.972 207.186 215.007 207.209 215.031 207.242C215.031 207.242 215.094 207.305 215.13 207.332L215.193 207.422V207.512V207.566C215.193 207.566 215.193 207.62 215.193 207.638V207.728C215.193 207.728 215.193 207.728 215.193 207.791C215.193 207.854 215.193 207.845 215.193 207.872C215.201 207.893 215.201 207.915 215.193 207.935C215.202 207.971 215.202 208.008 215.193 208.044C215.193 208.089 215.193 208.116 215.193 208.143L213.013 212.775C212.911 212.966 212.74 213.111 212.535 213.18C212.439 213.22 212.337 213.241 212.233 213.241C212.129 213.241 212.027 213.22 211.931 213.18C211.833 213.135 211.746 213.07 211.673 212.991C211.601 212.911 211.545 212.818 211.509 212.716C211.473 212.615 211.457 212.507 211.463 212.399C211.469 212.292 211.497 212.187 211.544 212.09L213.346 208.206L209.48 206.322C209.329 206.208 209.224 206.044 209.181 205.86C209.138 205.676 209.161 205.482 209.246 205.313ZM202.289 207.593C202.354 207.527 202.432 207.474 202.518 207.438C202.604 207.403 202.696 207.384 202.789 207.384C202.882 207.384 202.974 207.403 203.06 207.438C203.146 207.474 203.224 207.527 203.289 207.593L208.696 213.595C208.76 213.662 208.809 213.742 208.841 213.829C208.873 213.916 208.887 214.009 208.882 214.102C208.877 214.195 208.853 214.285 208.812 214.368C208.77 214.452 208.713 214.526 208.642 214.586C208.577 214.646 208.5 214.692 208.417 214.721C208.287 214.768 208.146 214.775 208.011 214.743C207.877 214.711 207.755 214.641 207.66 214.541L202.253 208.53C202.134 208.403 202.068 208.236 202.068 208.062C202.068 207.888 202.134 207.72 202.253 207.593H202.289ZM197.387 213.577C197.384 213.535 197.384 213.492 197.387 213.45C197.397 213.408 197.416 213.369 197.441 213.333L199.622 208.701C199.72 208.511 199.888 208.365 200.091 208.295C200.294 208.224 200.516 208.234 200.712 208.323C200.809 208.369 200.896 208.434 200.967 208.514C201.039 208.594 201.094 208.688 201.129 208.789C201.164 208.891 201.179 208.998 201.172 209.105C201.166 209.212 201.138 209.317 201.091 209.413L199.243 213.297L203.118 215.181C203.312 215.274 203.46 215.44 203.531 215.643C203.602 215.846 203.59 216.068 203.497 216.262C203.399 216.455 203.231 216.603 203.028 216.676C202.827 216.75 202.607 216.75 202.406 216.676L197.81 214.424C197.769 214.411 197.73 214.393 197.693 214.37C197.656 214.344 197.623 214.314 197.594 214.279L197.522 214.18C197.518 214.147 197.518 214.114 197.522 214.081C197.519 214.063 197.519 214.045 197.522 214.027C197.522 214.027 197.522 213.973 197.522 213.964V213.874C197.522 213.874 197.522 213.793 197.522 213.748C197.522 213.703 197.387 213.595 197.387 213.577ZM267.973 210.143C268.106 210.012 268.286 209.938 268.473 209.938C268.66 209.938 268.84 210.012 268.973 210.143L272.109 213.667C272.623 214.892 273.118 216.1 273.605 217.271C273.511 217.234 273.428 217.176 273.361 217.1L267.955 211.089C267.835 210.96 267.771 210.789 267.774 210.613C267.777 210.437 267.848 210.268 267.973 210.143ZM263.089 216.001C263.103 215.96 263.121 215.921 263.143 215.883L265.332 211.234C265.429 211.041 265.597 210.894 265.8 210.821C266.003 210.749 266.226 210.758 266.423 210.846C266.52 210.892 266.606 210.957 266.678 211.037C266.75 211.117 266.805 211.211 266.84 211.312C266.875 211.414 266.89 211.521 266.883 211.628C266.876 211.735 266.849 211.84 266.801 211.936L264.999 215.82L268.874 217.704C268.971 217.75 269.057 217.815 269.129 217.895C269.201 217.975 269.256 218.068 269.291 218.17C269.326 218.271 269.341 218.379 269.334 218.486C269.328 218.593 269.3 218.698 269.252 218.794C269.154 218.985 268.986 219.13 268.784 219.2C268.587 219.276 268.368 219.276 268.171 219.2L263.566 216.947C263.527 216.936 263.49 216.918 263.458 216.893L263.359 216.812L263.287 216.713C263.283 216.68 263.283 216.646 263.287 216.613V216.559C263.287 216.559 263.287 216.505 263.287 216.496V216.415C263.282 216.4 263.282 216.385 263.287 216.37C263.291 216.331 263.291 216.292 263.287 216.253C263.287 216.253 263.089 216.055 263.089 216.001ZM168.01 256.29C168.108 256.102 168.275 255.958 168.476 255.887C168.677 255.817 168.897 255.826 169.091 255.912L173.687 258.165C173.726 258.175 173.763 258.194 173.795 258.219C173.795 258.219 173.858 258.282 173.894 258.309L173.948 258.399C173.948 258.399 173.948 258.399 173.993 258.399V258.489V258.543C173.993 258.543 173.993 258.597 173.993 258.615V258.705C173.993 258.705 173.993 258.705 173.993 258.768C173.993 258.831 173.993 258.822 173.993 258.85C173.999 258.859 174.002 258.87 174.002 258.881C174.002 258.892 173.999 258.903 173.993 258.913C173.998 258.948 173.998 258.985 173.993 259.021C174 259.036 174.004 259.053 174.004 259.07C174.004 259.087 174 259.104 173.993 259.12L171.804 263.743C171.756 263.841 171.69 263.928 171.607 263.999C171.525 264.07 171.43 264.124 171.326 264.157C171.23 264.197 171.128 264.218 171.024 264.218C170.921 264.218 170.818 264.197 170.722 264.157C170.625 264.111 170.539 264.046 170.467 263.966C170.395 263.886 170.34 263.793 170.305 263.691C170.27 263.59 170.255 263.482 170.262 263.375C170.269 263.268 170.296 263.163 170.344 263.067L172.146 259.183L168.271 257.3C168.116 257.189 168.005 257.027 167.957 256.842C167.909 256.658 167.928 256.462 168.01 256.29ZM161.044 258.579C161.11 258.513 161.187 258.46 161.273 258.424C161.359 258.389 161.451 258.37 161.544 258.37C161.637 258.37 161.729 258.389 161.815 258.424C161.901 258.46 161.979 258.513 162.044 258.579L167.451 264.581C167.514 264.649 167.563 264.729 167.594 264.817C167.625 264.904 167.638 264.997 167.633 265.09C167.627 265.183 167.602 265.273 167.56 265.356C167.518 265.439 167.459 265.512 167.388 265.572C167.324 265.634 167.247 265.68 167.163 265.707C167.034 265.754 166.895 265.762 166.762 265.73C166.629 265.698 166.508 265.627 166.415 265.527L161.008 259.516C160.895 259.384 160.837 259.213 160.845 259.039C160.853 258.865 160.928 258.7 161.053 258.579H161.044ZM156.169 264.437C156.183 264.396 156.201 264.357 156.223 264.319L158.422 259.624C158.519 259.434 158.685 259.289 158.887 259.218C159.088 259.148 159.309 259.158 159.503 259.246C159.6 259.292 159.687 259.357 159.759 259.437C159.83 259.517 159.885 259.611 159.92 259.712C159.956 259.814 159.97 259.921 159.964 260.028C159.957 260.135 159.929 260.24 159.882 260.336L158.079 264.22L161.954 266.104C162.083 266.163 162.194 266.256 162.273 266.374C162.352 266.492 162.398 266.629 162.405 266.77H159.611L156.656 265.329C156.614 265.316 156.575 265.298 156.539 265.275L156.439 265.184C156.423 265.147 156.398 265.113 156.367 265.085C156.364 265.052 156.364 265.019 156.367 264.986V264.932C156.367 264.932 156.367 264.878 156.367 264.869V264.779C156.372 264.737 156.372 264.695 156.367 264.653C156.295 264.589 156.231 264.517 156.178 264.437H156.169ZM233.486 153.192C233.583 152.999 233.751 152.852 233.954 152.779C234.157 152.707 234.38 152.716 234.577 152.804L239.199 155.093C239.239 155.101 239.275 155.123 239.299 155.156C239.299 155.156 239.362 155.219 239.398 155.246L239.461 155.336V155.426C239.461 155.426 239.461 155.471 239.461 155.48C239.461 155.49 239.461 155.535 239.461 155.553V155.643C239.461 155.643 239.461 155.643 239.461 155.715C239.461 155.787 239.461 155.715 239.461 155.787C239.468 155.807 239.468 155.83 239.461 155.85C239.47 155.885 239.47 155.923 239.461 155.958V156.003C239.469 156.017 239.473 156.032 239.473 156.048C239.473 156.064 239.469 156.08 239.461 156.093L237.28 160.725C237.179 160.916 237.008 161.061 236.802 161.131C236.707 161.171 236.604 161.191 236.501 161.191C236.397 161.191 236.294 161.171 236.199 161.131C236.101 161.085 236.013 161.021 235.941 160.941C235.868 160.861 235.812 160.768 235.776 160.667C235.74 160.565 235.725 160.457 235.731 160.35C235.737 160.242 235.764 160.137 235.811 160.04L237.613 156.156L233.748 154.273C233.576 154.159 233.454 153.983 233.407 153.782C233.361 153.581 233.392 153.37 233.495 153.192H233.486ZM226.53 155.472C226.595 155.405 226.673 155.353 226.759 155.317C226.845 155.281 226.937 155.263 227.03 155.263C227.123 155.263 227.215 155.281 227.301 155.317C227.387 155.353 227.464 155.405 227.53 155.472L232.937 161.473C233 161.541 233.05 161.62 233.082 161.708C233.113 161.795 233.127 161.888 233.122 161.98C233.117 162.073 233.093 162.164 233.052 162.247C233.011 162.33 232.953 162.404 232.883 162.464C232.817 162.524 232.741 162.57 232.657 162.599C232.527 162.646 232.386 162.654 232.252 162.622C232.118 162.59 231.995 162.519 231.9 162.419L226.493 156.409C226.38 156.276 226.322 156.105 226.33 155.931C226.339 155.757 226.413 155.593 226.539 155.472H226.53ZM221.627 161.455C221.624 161.413 221.624 161.371 221.627 161.329C221.638 161.287 221.656 161.247 221.681 161.212L223.88 156.562C223.977 156.369 224.145 156.222 224.348 156.15C224.551 156.078 224.774 156.086 224.971 156.174C225.067 156.221 225.154 156.286 225.226 156.366C225.297 156.446 225.352 156.539 225.388 156.64C225.423 156.742 225.438 156.849 225.431 156.956C225.424 157.064 225.396 157.168 225.349 157.265L223.502 161.149L227.368 163.032C227.465 163.076 227.552 163.14 227.625 163.219C227.697 163.298 227.753 163.39 227.789 163.491C227.825 163.592 227.841 163.699 227.835 163.806C227.829 163.913 227.802 164.017 227.755 164.113C227.708 164.21 227.643 164.296 227.562 164.368C227.482 164.439 227.388 164.493 227.286 164.528C227.086 164.602 226.865 164.602 226.665 164.528L222.069 162.275C222.028 162.263 221.988 162.244 221.952 162.221C221.915 162.195 221.882 162.165 221.853 162.131L221.781 162.032V161.933V161.879C221.781 161.879 221.781 161.824 221.781 161.815C221.782 161.788 221.782 161.761 221.781 161.734C221.781 161.68 221.781 161.653 221.781 161.617C221.781 161.581 221.636 161.473 221.636 161.455H221.627ZM200.379 180.712L203.632 177.892L200.847 174.612C200.777 174.531 200.723 174.437 200.689 174.336C200.656 174.234 200.643 174.127 200.651 174.02C200.66 173.914 200.689 173.81 200.738 173.715C200.788 173.62 200.855 173.536 200.937 173.467C201.103 173.332 201.314 173.265 201.528 173.282C201.741 173.299 201.94 173.397 202.082 173.557L205.38 177.468C205.414 177.488 205.44 177.52 205.452 177.558C205.452 177.558 205.452 177.63 205.506 177.675C205.506 177.675 205.506 177.739 205.506 177.775C205.506 177.811 205.506 177.775 205.506 177.829C205.502 177.858 205.502 177.889 205.506 177.919C205.506 177.919 205.506 177.973 205.506 177.982C205.503 178.009 205.503 178.036 205.506 178.063C205.501 178.09 205.501 178.117 205.506 178.144C205.506 178.144 205.506 178.144 205.506 178.207C205.509 178.234 205.509 178.261 205.506 178.288C205.503 178.299 205.497 178.308 205.489 178.316C205.481 178.324 205.472 178.33 205.461 178.333C205.45 178.368 205.435 178.401 205.416 178.432C205.416 178.477 205.416 178.495 205.344 178.504L201.478 181.866C201.305 181.996 201.091 182.06 200.874 182.046C200.771 182.039 200.67 182.011 200.577 181.965C200.484 181.919 200.401 181.854 200.334 181.776C200.211 181.622 200.149 181.43 200.159 181.234C200.169 181.038 200.25 180.852 200.388 180.712H200.379ZM193.647 172.746C193.825 172.686 194.02 172.698 194.189 172.781C194.358 172.864 194.487 173.01 194.548 173.188L197.099 180.865C197.131 180.955 197.144 181.049 197.138 181.144C197.132 181.239 197.107 181.331 197.064 181.415C197.021 181.5 196.961 181.575 196.888 181.635C196.815 181.695 196.73 181.74 196.639 181.767C196.556 181.784 196.47 181.784 196.387 181.767C196.249 181.756 196.117 181.706 196.007 181.623C195.897 181.54 195.813 181.427 195.765 181.298L193.215 173.611C193.16 173.438 193.176 173.25 193.259 173.089C193.341 172.927 193.484 172.804 193.656 172.746H193.647ZM186.645 176.576C186.647 176.555 186.647 176.534 186.645 176.513V176.432C186.645 176.432 186.645 176.432 186.645 176.387C186.666 176.354 186.682 176.317 186.69 176.279C186.69 176.279 186.69 176.216 186.763 176.171L186.853 176.089L190.718 172.737C190.883 172.599 191.095 172.532 191.309 172.549C191.523 172.565 191.722 172.666 191.863 172.827C191.934 172.907 191.988 173.001 192.023 173.102C192.057 173.203 192.071 173.31 192.063 173.417C192.056 173.523 192.027 173.627 191.979 173.723C191.93 173.818 191.863 173.903 191.782 173.972L188.52 176.783L191.304 180.063C191.412 180.184 191.481 180.334 191.502 180.494C191.523 180.654 191.496 180.817 191.423 180.961C191.35 181.106 191.235 181.224 191.093 181.302C190.951 181.38 190.789 181.413 190.628 181.397C190.415 181.381 190.215 181.284 190.07 181.127L186.772 177.216C186.739 177.187 186.712 177.154 186.69 177.117L186.636 177C186.636 177 186.636 176.936 186.636 176.882C186.632 176.85 186.632 176.816 186.636 176.783C186.636 176.783 186.645 176.594 186.654 176.576H186.645ZM189.835 240.611L193.088 237.799L190.304 234.519C190.235 234.438 190.182 234.344 190.149 234.243C190.116 234.141 190.103 234.034 190.112 233.928C190.12 233.822 190.149 233.718 190.198 233.623C190.246 233.528 190.313 233.444 190.394 233.374C190.56 233.236 190.774 233.168 190.989 233.185C191.205 233.202 191.405 233.302 191.548 233.465L194.846 237.375C194.875 237.401 194.899 237.431 194.918 237.466C194.941 237.502 194.959 237.541 194.972 237.583C194.972 237.583 194.972 237.655 194.972 237.691C194.972 237.727 194.972 237.691 194.972 237.745C194.972 237.799 194.972 237.808 194.972 237.835C194.972 237.862 194.972 237.88 194.972 237.898C194.972 237.916 194.972 237.943 194.972 237.97C194.976 238 194.976 238.03 194.972 238.06C194.972 238.06 194.972 238.06 194.972 238.123C194.972 238.187 194.972 238.178 194.972 238.196C194.976 238.204 194.978 238.213 194.978 238.223C194.978 238.232 194.976 238.241 194.972 238.25C194.961 238.284 194.945 238.317 194.927 238.349C194.927 238.349 194.927 238.412 194.855 238.421L190.989 241.782C190.816 241.913 190.601 241.977 190.385 241.962C190.178 241.942 189.985 241.845 189.844 241.692C189.713 241.542 189.641 241.35 189.641 241.151C189.641 240.952 189.713 240.76 189.844 240.611H189.835ZM183.104 232.654C183.192 232.622 183.285 232.609 183.379 232.615C183.472 232.62 183.563 232.644 183.647 232.685C183.731 232.726 183.806 232.784 183.867 232.854C183.929 232.924 183.976 233.006 184.005 233.095L186.555 240.773C186.589 240.861 186.604 240.956 186.599 241.05C186.594 241.145 186.57 241.237 186.528 241.322C186.485 241.407 186.426 241.482 186.353 241.542C186.28 241.603 186.196 241.648 186.105 241.674C186.018 241.691 185.93 241.691 185.843 241.674C185.705 241.662 185.573 241.61 185.463 241.526C185.353 241.441 185.269 241.327 185.222 241.196L182.68 233.51C182.626 233.339 182.641 233.153 182.722 232.993C182.803 232.833 182.943 232.711 183.113 232.654H183.104ZM176.102 236.483V236.42C176.102 236.42 176.102 236.357 176.102 236.33C176.119 236.295 176.135 236.259 176.147 236.222L176.219 236.114C176.246 236.08 176.28 236.052 176.318 236.033L180.265 232.59C180.432 232.457 180.643 232.392 180.855 232.409C181.068 232.426 181.266 232.523 181.41 232.681C181.55 232.846 181.62 233.06 181.603 233.276C181.586 233.492 181.484 233.693 181.32 233.834L178.067 236.646L180.851 239.926C180.955 240.048 181.02 240.198 181.039 240.358C181.057 240.517 181.028 240.679 180.955 240.822C180.881 240.964 180.767 241.082 180.627 241.16C180.487 241.238 180.326 241.273 180.166 241.259C179.955 241.243 179.759 241.146 179.617 240.989L176.309 237.069C176.28 237.041 176.253 237.011 176.228 236.979L176.174 236.862C176.181 236.823 176.181 236.783 176.174 236.745C176.174 236.745 176.174 236.673 176.174 236.637L176.102 236.483ZM253.131 174.918C253.13 174.897 253.13 174.876 253.131 174.855C253.131 174.855 253.131 174.792 253.131 174.765C253.155 174.729 253.173 174.689 253.185 174.648L253.257 174.539C253.257 174.539 253.257 174.485 253.338 174.476C253.96 175.594 254.582 176.729 255.195 177.865L253.266 175.576C253.237 175.548 253.21 175.518 253.185 175.486C253.172 175.444 253.154 175.405 253.131 175.369C253.136 175.33 253.136 175.29 253.131 175.251C253.131 175.251 253.131 175.188 253.131 175.152V174.918ZM246.147 235.654L249.4 232.843L246.616 229.554C246.546 229.473 246.494 229.379 246.461 229.277C246.428 229.176 246.415 229.069 246.424 228.963C246.432 228.856 246.461 228.753 246.51 228.658C246.558 228.563 246.625 228.478 246.706 228.409C246.873 228.273 247.086 228.207 247.301 228.223C247.515 228.24 247.716 228.339 247.859 228.499L251.158 232.41C251.185 232.438 251.209 232.468 251.23 232.5C251.255 232.536 251.273 232.575 251.284 232.618C251.284 232.618 251.284 232.681 251.284 232.717C251.284 232.753 251.284 232.717 251.284 232.771C251.288 232.801 251.288 232.831 251.284 232.861V232.924C251.284 232.969 251.284 232.978 251.284 233.005C251.287 233.035 251.287 233.065 251.284 233.095C251.284 233.095 251.284 233.095 251.284 233.149C251.284 233.203 251.284 233.203 251.284 233.23C251.287 233.263 251.287 233.296 251.284 233.329C251.284 233.329 251.284 233.383 251.212 233.393L247.346 236.754C247.173 236.884 246.958 236.948 246.742 236.934C246.583 236.921 246.432 236.862 246.307 236.763C246.182 236.664 246.09 236.53 246.042 236.378C245.993 236.226 245.991 236.063 246.036 235.91C246.08 235.758 246.169 235.621 246.291 235.519L246.147 235.654ZM239.416 227.688C239.504 227.657 239.597 227.644 239.691 227.649C239.784 227.655 239.875 227.679 239.959 227.72C240.043 227.761 240.118 227.818 240.179 227.889C240.241 227.959 240.287 228.041 240.317 228.13L242.867 235.808C242.899 235.896 242.913 235.99 242.908 236.085C242.902 236.179 242.878 236.271 242.836 236.355C242.793 236.439 242.735 236.514 242.662 236.575C242.59 236.636 242.507 236.681 242.417 236.709C242.33 236.726 242.241 236.726 242.155 236.709C242.018 236.701 241.886 236.652 241.777 236.569C241.667 236.485 241.586 236.371 241.542 236.24L238.992 228.553C238.94 228.384 238.954 228.2 239.033 228.041C239.112 227.882 239.249 227.759 239.416 227.697V227.688ZM232.414 231.518C232.415 231.497 232.415 231.476 232.414 231.455C232.414 231.455 232.414 231.392 232.414 231.374C232.414 231.356 232.414 231.374 232.414 231.329C232.416 231.293 232.416 231.257 232.414 231.221C232.414 231.221 232.414 231.167 232.486 231.113C232.518 231.084 232.551 231.057 232.585 231.032L236.451 227.679C236.617 227.544 236.828 227.477 237.041 227.494C237.255 227.511 237.453 227.61 237.595 227.769C237.666 227.85 237.72 227.944 237.753 228.045C237.787 228.147 237.8 228.254 237.792 228.361C237.783 228.467 237.753 228.571 237.704 228.666C237.655 228.761 237.588 228.845 237.505 228.914L234.252 231.725L237.037 235.006C237.177 235.171 237.247 235.385 237.23 235.601C237.213 235.817 237.111 236.018 236.947 236.159C236.778 236.292 236.566 236.357 236.352 236.339C236.141 236.323 235.944 236.226 235.802 236.069L232.495 232.158C232.495 232.158 232.441 232.086 232.414 232.059C232.393 232.018 232.375 231.976 232.36 231.933C232.36 231.933 232.36 231.87 232.36 231.816C232.364 231.783 232.364 231.749 232.36 231.716C232.36 231.716 232.414 231.545 232.414 231.527V231.518ZM240.434 198.474L244.669 197.744L243.975 193.49C243.951 193.284 244.007 193.075 244.131 192.908C244.255 192.741 244.438 192.627 244.642 192.589C244.849 192.567 245.056 192.624 245.223 192.747C245.39 192.871 245.504 193.052 245.543 193.256L246.363 198.311C246.372 198.35 246.372 198.39 246.363 198.429C246.363 198.429 246.363 198.51 246.363 198.564C246.363 198.564 246.363 198.618 246.363 198.663C246.363 198.708 246.363 198.663 246.363 198.717L246.309 198.789C246.311 198.81 246.311 198.831 246.309 198.852C246.309 198.852 246.309 198.852 246.255 198.906V198.978C246.255 198.978 246.255 198.978 246.192 198.978C246.129 198.978 246.192 198.978 246.129 199.023C246.12 199.029 246.109 199.032 246.098 199.032C246.087 199.032 246.076 199.029 246.066 199.023C246.042 199.051 246.011 199.073 245.976 199.086C245.961 199.095 245.944 199.1 245.926 199.1C245.909 199.1 245.892 199.095 245.877 199.086L240.84 199.987C240.623 200.012 240.406 199.958 240.227 199.834C240.141 199.775 240.068 199.699 240.012 199.611C239.956 199.522 239.919 199.424 239.902 199.321C239.884 199.142 239.927 198.962 240.023 198.81C240.119 198.657 240.264 198.542 240.434 198.483V198.474ZM236.172 196.617L237.974 188.714C238.013 188.535 238.121 188.379 238.274 188.28C238.428 188.18 238.615 188.145 238.794 188.183C238.978 188.224 239.138 188.336 239.239 188.494C239.341 188.653 239.375 188.846 239.335 189.03L237.532 196.924C237.513 197.015 237.476 197.101 237.423 197.178C237.369 197.254 237.301 197.318 237.221 197.367C237.142 197.416 237.054 197.449 236.962 197.462C236.869 197.476 236.775 197.47 236.685 197.446C236.6 197.429 236.52 197.392 236.451 197.338C236.34 197.26 236.254 197.151 236.204 197.024C236.155 196.898 236.143 196.759 236.172 196.626V196.617ZM230.648 188.192C230.648 188.192 230.648 188.192 230.648 188.147C230.648 188.102 230.648 188.093 230.648 188.038L230.711 187.957V187.903C230.711 187.903 230.711 187.903 230.765 187.858L230.819 187.786C230.855 187.767 230.888 187.742 230.918 187.714L231.035 187.66C231.077 187.655 231.119 187.655 231.161 187.66L236.199 186.759C236.405 186.737 236.612 186.793 236.779 186.917C236.946 187.04 237.06 187.222 237.1 187.426C237.128 187.633 237.075 187.844 236.95 188.012C236.825 188.181 236.64 188.293 236.433 188.327L232.198 189.057L232.892 193.31C232.916 193.517 232.86 193.725 232.736 193.892C232.612 194.06 232.429 194.174 232.225 194.211C232.018 194.233 231.811 194.177 231.644 194.053C231.477 193.93 231.363 193.748 231.324 193.544L230.504 188.489C230.5 188.447 230.5 188.405 230.504 188.363C230.559 188.316 230.608 188.262 230.648 188.201V188.192ZM167.911 208.143L172.155 207.404L171.452 203.159C171.426 202.952 171.481 202.743 171.605 202.575C171.729 202.407 171.913 202.294 172.119 202.258C172.326 202.236 172.533 202.293 172.699 202.416C172.866 202.54 172.981 202.721 173.02 202.925L173.84 207.981C173.853 208.018 173.853 208.06 173.84 208.098C173.84 208.098 173.84 208.179 173.84 208.224V208.323C173.84 208.323 173.84 208.323 173.84 208.386C173.839 208.41 173.839 208.434 173.84 208.458C173.84 208.458 173.84 208.503 173.84 208.512L173.786 208.566L173.732 208.647C173.732 208.647 173.732 208.647 173.669 208.647C173.606 208.647 173.669 208.647 173.606 208.692C173.596 208.698 173.586 208.701 173.574 208.701C173.563 208.701 173.552 208.698 173.543 208.692C173.518 208.72 173.487 208.742 173.453 208.755H173.408C173.393 208.765 173.376 208.77 173.358 208.77C173.341 208.77 173.323 208.765 173.309 208.755L168.271 209.657C168.055 209.681 167.838 209.627 167.659 209.503C167.487 209.381 167.371 209.197 167.334 208.99C167.32 208.805 167.37 208.622 167.475 208.469C167.58 208.317 167.734 208.205 167.911 208.152V208.143ZM163.648 206.286L165.451 198.383C165.469 198.294 165.505 198.21 165.556 198.135C165.607 198.059 165.673 197.995 165.749 197.946C165.826 197.896 165.911 197.862 166.001 197.846C166.09 197.83 166.182 197.832 166.271 197.852C166.361 197.871 166.447 197.908 166.524 197.961C166.6 198.013 166.665 198.08 166.715 198.158C166.766 198.236 166.8 198.323 166.817 198.414C166.833 198.506 166.831 198.599 166.811 198.69L165.009 206.584C164.991 206.676 164.955 206.763 164.902 206.841C164.849 206.918 164.78 206.983 164.701 207.033C164.622 207.083 164.533 207.116 164.44 207.13C164.347 207.144 164.253 207.139 164.162 207.115C164.078 207.094 163.998 207.058 163.928 207.007C163.817 206.928 163.732 206.819 163.683 206.693C163.633 206.566 163.621 206.428 163.648 206.295V206.286ZM158.125 197.852C158.125 197.852 158.125 197.789 158.125 197.735L158.188 197.654C158.188 197.654 158.188 197.599 158.188 197.59L158.233 197.545L158.287 197.473C158.325 197.453 158.359 197.426 158.386 197.392C158.386 197.392 158.458 197.392 158.503 197.338H158.629L163.666 196.437C163.873 196.413 164.081 196.469 164.249 196.592C164.416 196.716 164.53 196.899 164.568 197.104C164.594 197.311 164.539 197.52 164.415 197.688C164.291 197.856 164.107 197.97 163.901 198.005L159.665 198.735L160.359 202.979C160.379 203.085 160.377 203.194 160.354 203.299C160.33 203.405 160.287 203.504 160.224 203.592C160.162 203.68 160.083 203.755 159.992 203.812C159.901 203.87 159.799 203.908 159.692 203.925C159.487 203.943 159.282 203.885 159.116 203.762C158.95 203.64 158.835 203.46 158.791 203.259L157.98 198.203C157.977 198.161 157.977 198.119 157.98 198.077C158.031 198.012 158.07 197.939 158.097 197.861L158.125 197.852ZM206.966 141.288L211.201 140.558L210.507 136.304C210.481 136.097 210.536 135.888 210.66 135.72C210.784 135.552 210.968 135.439 211.174 135.403C211.381 135.381 211.588 135.438 211.755 135.561C211.921 135.685 212.036 135.866 212.075 136.07L212.886 141.125C212.894 141.164 212.894 141.204 212.886 141.243C212.89 141.288 212.89 141.333 212.886 141.378C212.886 141.378 212.886 141.432 212.886 141.477C212.886 141.522 212.886 141.477 212.886 141.531L212.832 141.603V141.666C212.832 141.666 212.832 141.666 212.778 141.72V141.792C212.778 141.792 212.778 141.792 212.715 141.792C212.652 141.792 212.715 141.792 212.652 141.837C212.642 141.843 212.632 141.846 212.621 141.846C212.609 141.846 212.599 141.843 212.589 141.837C212.563 141.863 212.532 141.885 212.499 141.9H212.454C212.439 141.908 212.422 141.912 212.404 141.912C212.387 141.912 212.37 141.908 212.355 141.9L207.317 142.802C207.101 142.826 206.884 142.772 206.705 142.648C206.619 142.589 206.546 142.513 206.49 142.425C206.434 142.336 206.397 142.238 206.38 142.135C206.365 141.949 206.415 141.763 206.522 141.61C206.629 141.457 206.786 141.346 206.966 141.297V141.288ZM202.704 139.431L204.506 131.528C204.545 131.35 204.653 131.193 204.806 131.094C204.96 130.994 205.147 130.959 205.326 130.997C205.51 131.038 205.67 131.15 205.771 131.309C205.873 131.467 205.907 131.66 205.867 131.844L204.064 139.738C204.044 139.828 204.006 139.914 203.952 139.99C203.899 140.065 203.83 140.129 203.751 140.178C203.672 140.227 203.584 140.259 203.493 140.273C203.401 140.287 203.307 140.283 203.217 140.26C203.132 140.243 203.052 140.206 202.983 140.152C202.872 140.074 202.786 139.965 202.736 139.838C202.687 139.712 202.675 139.573 202.704 139.44V139.431ZM197.18 131.006C197.184 130.97 197.184 130.934 197.18 130.898L197.243 130.816C197.244 130.795 197.244 130.774 197.243 130.753H197.297C197.31 130.726 197.328 130.701 197.351 130.681C197.387 130.662 197.42 130.637 197.45 130.609L197.567 130.555C197.609 130.55 197.651 130.55 197.693 130.555L202.731 129.654C202.937 129.632 203.144 129.689 203.311 129.812C203.478 129.936 203.592 130.117 203.632 130.321C203.66 130.528 203.607 130.739 203.482 130.907C203.357 131.076 203.172 131.189 202.965 131.222L198.721 131.952L199.423 136.205C199.447 136.412 199.392 136.62 199.268 136.788C199.144 136.955 198.961 137.069 198.757 137.106C198.544 137.137 198.328 137.086 198.153 136.962C197.978 136.838 197.858 136.651 197.819 136.44L196.999 131.384C196.996 131.342 196.996 131.3 196.999 131.258C197.076 131.19 197.137 131.107 197.18 131.015V131.006ZM224.367 260.949L228.611 260.21L227.908 255.966C227.882 255.759 227.937 255.549 228.061 255.382C228.185 255.214 228.369 255.1 228.575 255.065C228.782 255.043 228.989 255.099 229.155 255.223C229.322 255.346 229.437 255.528 229.476 255.732L230.296 260.787C230.309 260.825 230.309 260.866 230.296 260.904C230.296 260.904 230.296 260.985 230.296 261.03V261.129C230.296 261.129 230.296 261.129 230.296 261.183C230.275 261.208 230.257 261.236 230.242 261.265V261.319C230.242 261.319 230.242 261.319 230.188 261.373L230.134 261.445C230.134 261.445 230.134 261.445 230.071 261.445L230.008 261.499C229.988 261.506 229.965 261.506 229.945 261.499C229.918 261.524 229.888 261.545 229.855 261.562C229.84 261.572 229.823 261.577 229.805 261.577C229.788 261.577 229.77 261.572 229.756 261.562L224.718 262.463C224.502 262.488 224.285 262.433 224.105 262.31C223.937 262.185 223.821 262.002 223.781 261.796C223.766 261.609 223.815 261.422 223.922 261.268C224.029 261.113 224.186 261.001 224.367 260.949ZM220.104 259.093L221.907 251.19C221.946 251.011 222.054 250.855 222.207 250.755C222.361 250.656 222.548 250.621 222.727 250.658C222.91 250.697 223.071 250.807 223.174 250.964C223.277 251.121 223.314 251.312 223.276 251.496L221.474 259.39C221.451 259.503 221.399 259.608 221.325 259.696C221.25 259.784 221.155 259.852 221.048 259.894C220.941 259.936 220.825 259.951 220.71 259.937C220.596 259.923 220.487 259.881 220.393 259.814C220.279 259.735 220.191 259.625 220.14 259.497C220.089 259.368 220.076 259.228 220.104 259.093ZM214.581 250.658C214.581 250.658 214.581 250.595 214.581 250.541L214.644 250.46C214.644 250.46 214.644 250.406 214.644 250.397V250.352L214.698 250.28C214.735 250.262 214.769 250.238 214.797 250.208C214.797 250.208 214.869 250.208 214.914 250.154H215.04L220.077 249.252C220.284 249.231 220.491 249.287 220.658 249.41C220.825 249.534 220.939 249.716 220.979 249.919C221.007 250.127 220.953 250.337 220.829 250.506C220.704 250.674 220.519 250.787 220.312 250.82L216.076 251.559L216.77 255.804C216.796 255.962 216.775 256.124 216.709 256.27C216.643 256.416 216.535 256.539 216.4 256.624C216.264 256.709 216.106 256.752 215.945 256.747C215.785 256.742 215.63 256.69 215.5 256.597C215.325 256.472 215.206 256.285 215.166 256.074L214.355 251.028C214.352 250.986 214.352 250.944 214.355 250.902C214.446 250.836 214.523 250.754 214.581 250.658ZM280.967 259.742L285.211 259.012L284.508 254.758C284.485 254.55 284.542 254.341 284.667 254.173C284.793 254.006 284.978 253.893 285.184 253.857C285.39 253.84 285.595 253.897 285.761 254.02C285.927 254.143 286.042 254.322 286.085 254.524L286.896 259.579C286.91 259.617 286.91 259.659 286.896 259.697C286.896 259.697 286.896 259.778 286.896 259.832C286.891 259.865 286.891 259.898 286.896 259.931C286.896 259.931 286.896 259.931 286.896 259.985L286.842 260.057C286.841 260.078 286.841 260.099 286.842 260.12L286.788 260.174L286.734 260.246C286.734 260.246 286.734 260.246 286.68 260.246C286.626 260.246 286.68 260.246 286.608 260.291C286.536 260.336 286.608 260.291 286.554 260.291L286.464 260.354H286.41C286.396 260.362 286.381 260.366 286.365 260.366C286.349 260.366 286.333 260.362 286.32 260.354L281.273 261.256C281.057 261.28 280.84 261.226 280.661 261.102C280.529 261.01 280.428 260.881 280.371 260.731C280.313 260.581 280.303 260.417 280.339 260.261C280.376 260.104 280.459 259.963 280.578 259.854C280.696 259.746 280.844 259.675 281.003 259.652L280.967 259.742ZM276.705 257.885L278.507 249.982C278.548 249.805 278.656 249.65 278.809 249.551C278.962 249.451 279.148 249.416 279.327 249.451C279.419 249.47 279.506 249.507 279.583 249.56C279.661 249.613 279.727 249.681 279.778 249.76C279.829 249.839 279.864 249.927 279.881 250.019C279.898 250.111 279.896 250.206 279.877 250.298L278.074 258.192C278.055 258.283 278.018 258.369 277.965 258.446C277.911 258.522 277.843 258.587 277.763 258.635C277.684 258.684 277.596 258.717 277.503 258.73C277.411 258.744 277.317 258.738 277.227 258.714C277.142 258.697 277.062 258.66 276.993 258.606C276.879 258.528 276.792 258.417 276.74 258.289C276.689 258.161 276.677 258.021 276.705 257.885ZM271.19 249.46C271.19 249.46 271.19 249.46 271.19 249.415C271.19 249.37 271.19 249.361 271.19 249.306L271.244 249.225V249.171C271.244 249.171 271.244 249.171 271.244 249.126L271.298 249.054L271.388 248.982L271.505 248.928C271.547 248.923 271.589 248.923 271.631 248.928L276.678 248.027C276.884 248.007 277.09 248.064 277.256 248.187C277.422 248.311 277.537 248.491 277.579 248.694C277.603 248.901 277.547 249.109 277.423 249.276C277.3 249.443 277.117 249.557 276.912 249.595L272.668 250.325L273.361 254.578C273.397 254.791 273.347 255.009 273.222 255.185C273.097 255.361 272.907 255.479 272.695 255.515C272.482 255.551 272.264 255.501 272.088 255.376C271.912 255.251 271.793 255.061 271.757 254.848L270.946 249.793C270.943 249.751 270.943 249.709 270.946 249.667C271.181 249.532 271.181 249.487 271.19 249.46ZM176.039 152.93L180.274 152.2L179.58 147.947C179.556 147.74 179.612 147.532 179.736 147.365C179.86 147.197 180.043 147.083 180.247 147.046C180.454 147.024 180.661 147.08 180.828 147.204C180.995 147.327 181.109 147.509 181.148 147.713L181.969 152.768C181.977 152.807 181.977 152.847 181.969 152.885C181.972 152.93 181.972 152.975 181.969 153.02C181.969 153.02 181.969 153.074 181.969 153.12C181.969 153.165 181.969 153.12 181.969 153.174L181.914 153.246V153.309C181.914 153.309 181.914 153.309 181.86 153.363V153.435C181.86 153.435 181.86 153.435 181.797 153.435C181.734 153.435 181.797 153.435 181.734 153.435C181.725 153.44 181.714 153.443 181.703 153.443C181.692 153.443 181.681 153.44 181.671 153.435C181.645 153.461 181.614 153.482 181.581 153.498H181.536C181.521 153.507 181.504 153.511 181.486 153.511C181.469 153.511 181.452 153.507 181.437 153.498L176.399 154.399C176.183 154.424 175.966 154.369 175.787 154.246C175.701 154.187 175.628 154.111 175.572 154.022C175.516 153.934 175.479 153.835 175.462 153.732C175.455 153.553 175.508 153.377 175.613 153.232C175.717 153.087 175.867 152.98 176.039 152.93Z" fill="#030402"></path><path d="M231.865 140.999C266.432 177.234 309.416 252.947 300.91 268.059C291.448 284.829 241.984 233.555 243.552 231.113C244.886 229.013 227.269 183.127 214.716 149.785C202.163 116.443 223.322 132.042 231.865 140.999Z" fill="#BF8178"></path><path d="M274.219 184.443L224.584 193.373C224.584 193.373 212.194 158.229 209.743 138.683C208.364 127.744 214.789 127.293 222.881 133.105C251.204 153.462 274.219 184.443 274.219 184.443Z" fill="#C4D095"></path><path opacity="0.1" d="M233.494 153.191C233.591 152.999 233.759 152.851 233.962 152.779C234.165 152.707 234.388 152.716 234.584 152.804L239.198 155.093C239.238 155.101 239.273 155.123 239.297 155.156C239.297 155.156 239.36 155.219 239.397 155.246L239.46 155.336V155.426C239.46 155.426 239.46 155.471 239.46 155.48C239.46 155.489 239.46 155.534 239.46 155.552V155.642C239.46 155.642 239.46 155.643 239.46 155.715C239.46 155.787 239.46 155.715 239.46 155.787C239.467 155.807 239.467 155.829 239.46 155.85C239.468 155.885 239.468 155.922 239.46 155.958V156.003C239.467 156.017 239.472 156.032 239.472 156.048C239.472 156.064 239.467 156.079 239.46 156.093L237.279 160.725C237.177 160.916 237.006 161.061 236.801 161.13C236.706 161.17 236.603 161.191 236.499 161.191C236.396 161.191 236.293 161.17 236.197 161.13C236.1 161.085 236.012 161.021 235.94 160.941C235.867 160.861 235.811 160.768 235.775 160.666C235.739 160.565 235.723 160.457 235.729 160.35C235.735 160.242 235.763 160.137 235.81 160.04L237.612 156.156L233.746 154.273C233.575 154.158 233.453 153.983 233.406 153.782C233.359 153.581 233.391 153.37 233.494 153.191ZM226.537 155.471C226.603 155.405 226.681 155.353 226.766 155.317C226.852 155.281 226.944 155.262 227.037 155.262C227.131 155.262 227.223 155.281 227.308 155.317C227.394 155.353 227.472 155.405 227.538 155.471L232.944 161.473C233.008 161.54 233.057 161.62 233.089 161.707C233.121 161.795 233.135 161.887 233.13 161.98C233.125 162.073 233.101 162.164 233.06 162.247C233.019 162.33 232.961 162.404 232.89 162.464C232.825 162.524 232.748 162.57 232.665 162.599C232.535 162.646 232.394 162.654 232.26 162.622C232.125 162.59 232.003 162.519 231.908 162.419L226.501 156.408C226.387 156.277 226.327 156.107 226.334 155.933C226.34 155.759 226.413 155.594 226.537 155.471ZM221.635 161.455C221.632 161.413 221.632 161.371 221.635 161.329C221.646 161.287 221.664 161.247 221.689 161.212L223.879 156.562C223.976 156.369 224.144 156.222 224.347 156.15C224.55 156.077 224.773 156.086 224.969 156.174C225.066 156.22 225.153 156.285 225.225 156.365C225.296 156.445 225.351 156.539 225.386 156.64C225.422 156.742 225.436 156.849 225.43 156.956C225.423 157.063 225.395 157.168 225.348 157.265L223.501 161.148L227.366 163.032C227.464 163.076 227.551 163.14 227.624 163.219C227.696 163.297 227.752 163.39 227.788 163.491C227.824 163.592 227.84 163.699 227.834 163.805C227.828 163.912 227.801 164.017 227.754 164.113C227.707 164.21 227.642 164.296 227.561 164.367C227.481 164.439 227.387 164.493 227.285 164.528C227.085 164.601 226.864 164.601 226.663 164.528L222.068 162.275C222.026 162.262 221.987 162.244 221.951 162.221C221.914 162.195 221.88 162.165 221.851 162.131L221.779 162.032V161.932V161.878C221.779 161.878 221.779 161.824 221.779 161.815C221.781 161.788 221.781 161.761 221.779 161.734C221.779 161.68 221.779 161.653 221.779 161.617C221.779 161.581 221.635 161.473 221.635 161.455ZM266.863 179.054L268.665 177.468C269.026 177.9 269.359 178.324 269.684 178.721L267.881 180.288C267.717 180.425 267.506 180.493 267.293 180.478C267.08 180.463 266.88 180.366 266.737 180.207C266.669 180.123 266.619 180.027 266.589 179.923C266.559 179.82 266.549 179.712 266.561 179.605C266.573 179.497 266.605 179.394 266.657 179.299C266.709 179.205 266.779 179.121 266.863 179.054ZM260.132 171.097C260.31 171.037 260.504 171.049 260.673 171.132C260.842 171.215 260.971 171.361 261.033 171.538L263.583 179.216C263.613 179.324 263.617 179.437 263.595 179.547C263.572 179.657 263.525 179.759 263.455 179.847C263.386 179.935 263.297 180.005 263.195 180.052C263.094 180.099 262.983 180.121 262.871 180.117C262.733 180.105 262.601 180.054 262.491 179.969C262.38 179.884 262.297 179.77 262.249 179.64L259.708 171.953C259.653 171.783 259.667 171.599 259.746 171.439C259.825 171.279 259.963 171.156 260.132 171.097ZM253.13 174.918C253.129 174.897 253.129 174.876 253.13 174.855C253.13 174.855 253.13 174.792 253.13 174.765C253.153 174.728 253.172 174.689 253.184 174.647L253.256 174.539C253.283 174.505 253.317 174.478 253.355 174.458L257.221 171.097C257.387 170.964 257.598 170.899 257.811 170.915C258.024 170.932 258.222 171.029 258.365 171.187C258.506 171.352 258.575 171.566 258.558 171.782C258.542 171.999 258.44 172.199 258.275 172.341L255.022 175.152L257.807 178.432C257.87 178.591 257.882 178.765 257.841 178.931C257.799 179.097 257.707 179.246 257.576 179.356C257.445 179.465 257.282 179.531 257.112 179.543C256.941 179.556 256.771 179.514 256.626 179.423L253.328 175.512C253.299 175.485 253.271 175.455 253.247 175.422C253.234 175.381 253.216 175.342 253.193 175.305C253.198 175.266 253.198 175.227 253.193 175.188C253.193 175.188 253.193 175.125 253.193 175.089L253.13 174.918ZM237.946 188.714C237.985 188.535 238.093 188.379 238.246 188.279C238.4 188.18 238.587 188.145 238.766 188.182C238.95 188.223 239.11 188.336 239.211 188.494C239.312 188.653 239.347 188.845 239.306 189.029L238.91 190.787L237.423 191.057L237.946 188.714ZM230.646 188.191C230.646 188.191 230.646 188.191 230.646 188.146C230.646 188.101 230.646 188.092 230.646 188.038L230.71 187.957V187.903C230.71 187.903 230.71 187.903 230.764 187.858L230.818 187.786C230.854 187.766 230.887 187.742 230.917 187.714L231.034 187.66C231.076 187.655 231.118 187.655 231.16 187.66L236.197 186.759C236.404 186.737 236.611 186.793 236.778 186.917C236.945 187.04 237.059 187.222 237.099 187.425C237.127 187.633 237.073 187.843 236.949 188.012C236.824 188.18 236.639 188.293 236.432 188.327L232.196 189.057L232.665 191.94L231.07 192.229L230.466 188.525C230.462 188.483 230.462 188.441 230.466 188.399C230.538 188.344 230.599 188.277 230.646 188.2V188.191ZM211.2 140.558L210.506 136.304C210.48 136.097 210.535 135.888 210.659 135.72C210.783 135.552 210.967 135.439 211.173 135.403C211.379 135.381 211.587 135.438 211.753 135.561C211.92 135.685 212.035 135.866 212.074 136.07L212.885 141.125C212.893 141.164 212.893 141.204 212.885 141.242C212.889 141.287 212.889 141.333 212.885 141.378C212.885 141.378 212.885 141.432 212.885 141.477C212.885 141.522 212.885 141.477 212.885 141.531L212.831 141.603V141.666C212.831 141.666 212.831 141.666 212.777 141.72V141.792C212.777 141.792 212.777 141.792 212.714 141.792C212.651 141.792 212.714 141.792 212.651 141.837C212.641 141.843 212.63 141.846 212.619 141.846C212.608 141.846 212.597 141.843 212.588 141.837C212.562 141.863 212.531 141.884 212.498 141.9H212.453C212.437 141.908 212.42 141.912 212.403 141.912C212.386 141.912 212.369 141.908 212.353 141.9L210.362 142.252C210.272 141.711 210.191 141.17 210.11 140.648L211.2 140.558Z" fill="#030402"></path><path d="M224.917 185.254C232.432 183.244 252.996 178.387 266.765 176.981C266.856 176.981 266.919 177.288 266.838 177.306C255.555 180.207 232.685 184.362 225.016 185.713C224.872 185.731 224.782 185.29 224.917 185.254Z" fill="#263238"></path><path d="M230.637 192.292C228.591 192.49 226.546 192.725 224.518 193.004L224.942 193.256C223.464 187.849 221.824 182.497 220.066 177.18C218.309 171.863 216.417 166.592 214.281 161.392C215.579 166.853 217.147 172.206 218.787 177.612C220.427 183.019 222.247 188.273 224.194 193.527L224.32 193.842L224.626 193.779C226.645 193.31 228.648 192.815 230.637 192.292Z" fill="#263238"></path><path d="M217.574 172.088C217.133 170.984 216.564 169.934 215.88 168.961C215.208 167.975 214.457 167.043 213.636 166.177C213.752 166.769 213.949 167.342 214.222 167.88C214.484 168.418 214.785 168.936 215.123 169.43C215.796 170.439 216.623 171.336 217.574 172.088Z" fill="#263238"></path><path d="M209.236 136.602C208.56 138.873 196.665 153.417 186.032 152.39C182.581 152.047 183.653 133.105 183.653 133.105L183.41 131.691L180.058 111.866L203.856 98.3487L207.281 96.5464C207.281 96.5464 207.839 102.034 208.47 108.865C208.47 109.189 208.533 109.505 208.56 109.838C208.587 110.172 208.651 110.595 208.678 110.956C208.786 111.974 208.894 113.019 208.975 114.055C209.038 114.848 209.11 115.614 209.146 116.452C209.182 117.29 209.254 118.101 209.308 118.931C209.759 127.158 209.462 135.62 209.236 136.602Z" fill="#BF8178"></path><path d="M208.5 108.802C206.231 114.202 202.814 119.044 198.487 122.992C194.159 126.94 189.025 129.899 183.439 131.664L180.087 111.839L203.886 98.3218L207.311 96.5195C207.311 96.5195 207.869 101.971 208.5 108.802Z" fill="#263238"></path><path d="M214.609 97.1411C212.104 116.678 230.181 142 217.844 176.738C212.302 192.346 182.583 205.872 181.141 237.421C180.772 245.594 144.195 194.653 189.017 138.449C203.093 120.85 214.609 97.1411 214.609 97.1411Z" fill="#263238"></path><path d="M188.736 142.378C172.516 160.5 158.188 185.912 164.793 210.963C166.73 218.271 170.659 224.615 174.705 230.941C174.778 231.05 174.94 230.941 174.868 230.815C171.38 225.165 167.92 219.389 166.019 212.991C164.285 206.898 163.696 200.537 164.279 194.229C165.307 181.721 170.281 169.989 176.895 159.454C180.59 153.579 184.888 148.19 189.088 142.684C189.268 142.423 188.907 142.153 188.736 142.378Z" fill="#263238"></path><path d="M220.645 129.645C218.212 121.652 215.239 113.704 214.509 105.314C214.509 105.224 214.355 105.242 214.364 105.314C215.266 118.94 221.646 131.447 223.214 144.964C224.673 157.58 223.042 170.647 217.338 182.082C214.273 188.166 210.134 193.646 205.119 198.257C204.957 198.411 205.119 198.681 205.335 198.537C214.22 191.283 220.141 180.649 222.871 169.61C226.169 156.301 224.619 142.639 220.645 129.645Z" fill="#263238"></path><path d="M208.228 110.036C205.731 115.622 202.387 120.789 198.316 125.356C194.306 129.915 189.899 134.097 185.844 138.602C177.301 148.064 170.056 158.968 166.614 171.349C164.658 178.41 164.137 185.792 165.082 193.058H165.145C163.541 179.685 167.965 165.979 174.85 154.624C178.136 149.269 181.913 144.231 186.132 139.575C190.115 135.115 194.378 130.916 198.289 126.392C202.47 121.553 206.552 116.29 208.67 110.172C208.687 110.113 208.681 110.05 208.653 109.996C208.624 109.942 208.575 109.901 208.516 109.883C208.458 109.865 208.395 109.871 208.34 109.9C208.286 109.929 208.246 109.978 208.228 110.036Z" fill="#263238"></path><path d="M206.811 108.369H216.003C217.63 108.369 218.949 109.688 218.949 111.316V114.01C218.949 115.638 217.63 116.957 216.003 116.957H206.811C205.184 116.957 203.864 115.638 203.864 114.01V111.316C203.864 109.688 205.184 108.369 206.811 108.369Z" fill="#C4D095"></path><path d="M157.37 73.4956C147.25 107.306 166.381 117.183 173.653 119.354C180.268 121.328 203.066 127.212 216.619 94.6272C230.172 62.0422 217.656 46.6508 202.76 41.3341C187.864 36.0174 167.49 39.6851 157.37 73.4956Z" fill="#BF8178"></path><path d="M164.937 67.1875C165.716 67.421 166.507 67.6135 167.307 67.7642C168.11 68.0865 168.997 68.1341 169.83 67.8994C170.078 67.7757 170.278 67.5733 170.398 67.3238C170.519 67.0743 170.554 66.7918 170.497 66.5206C170.297 65.9973 169.961 65.5367 169.524 65.1866C169.087 64.8365 168.564 64.6095 168.01 64.5291C166.925 64.1885 165.751 64.2657 164.72 64.7454C164.494 64.8717 164.309 65.0608 164.188 65.2899C164.066 65.519 164.014 65.7783 164.037 66.0365C164.06 66.2948 164.157 66.5409 164.316 66.7451C164.476 66.9493 164.692 67.103 164.937 67.1875Z" fill="#263238"></path><path d="M186.033 81.0019C185.213 80.8577 184.474 80.5964 183.672 80.3801C182.814 80.275 182.013 79.8921 181.392 79.2897C181.233 79.0621 181.154 78.7874 181.169 78.5098C181.183 78.2321 181.291 77.9673 181.474 77.7578C181.892 77.3948 182.4 77.1501 182.945 77.0487C183.49 76.9473 184.052 76.993 184.573 77.1811C185.694 77.4134 186.687 78.0563 187.358 78.9833C187.487 79.1997 187.552 79.4478 187.547 79.6995C187.541 79.9512 187.465 80.1963 187.327 80.4068C187.189 80.6172 186.994 80.7847 186.765 80.8899C186.537 80.9951 186.283 81.0339 186.033 81.0019Z" fill="#263238"></path><path d="M167.93 78.0372C167.93 77.9381 167.722 78.1093 167.704 78.2084C167.299 80.5694 166.434 83.2187 164.1 83.5611C164.037 83.5611 164.019 83.6873 164.1 83.6963C166.803 83.9036 167.921 80.3441 167.93 78.0372Z" fill="#263238"></path><path d="M166.334 75.1447C162.613 74.0813 160.747 81.6058 164.199 82.597C167.65 83.5883 169.461 76.0368 166.334 75.1447Z" fill="#263238"></path><path d="M164.639 75.2527C163.945 75.505 163.179 76.0817 162.458 75.9556C161.737 75.8294 161.215 74.8382 160.881 73.928C160.881 73.8379 160.764 73.883 160.737 73.9821C160.35 75.4149 160.449 77.0279 161.764 77.6497C163.08 78.2715 164.197 77.2082 164.891 75.8474C165.026 75.6041 164.918 75.1536 164.639 75.2527Z" fill="#263238"></path><path d="M176.118 101.926C175.46 102.386 174.766 103.053 173.892 102.981C173.012 102.821 172.176 102.474 171.441 101.962C171.426 101.951 171.407 101.945 171.388 101.946C171.37 101.947 171.352 101.955 171.338 101.968C171.324 101.981 171.315 101.998 171.312 102.017C171.31 102.035 171.314 102.054 171.324 102.07C171.582 102.596 171.979 103.042 172.471 103.359C172.963 103.677 173.532 103.854 174.118 103.873C174.623 103.825 175.102 103.628 175.496 103.307C175.889 102.986 176.177 102.556 176.325 102.07C176.433 101.971 176.262 101.926 176.118 101.926Z" fill="#263238"></path><path d="M168.281 91.2751C168.281 91.2751 167.011 94.6633 166.632 96.3124C166.632 96.4746 166.984 96.6368 167.533 96.79C167.533 96.79 167.533 96.79 167.596 96.79C168.956 97.3704 170.449 97.5648 171.911 97.3518C173.374 97.1387 174.75 96.5265 175.887 95.5825C176.04 95.4473 175.887 95.2311 175.689 95.3031C173.257 96.2625 170.581 96.4141 168.056 95.7357C168.056 95.2491 170.435 89.9955 170.183 89.9234C168.873 89.7424 167.545 89.7424 166.236 89.9234C168.687 82.7774 172.264 76.091 174.598 68.945C174.679 68.6837 174.319 68.5215 174.193 68.7377C169.948 75.4872 166.984 83.6425 164.226 90.9507C163.875 91.8788 167.56 91.4012 168.281 91.2751Z" fill="#263238"></path><path d="M187.719 84.6246C187.092 84.1683 186.403 83.8041 185.673 83.5433C184.929 83.2702 184.149 83.1063 183.357 83.0567C182.523 83.022 181.689 83.1411 180.897 83.4081C180.084 83.7107 179.351 84.1946 178.752 84.8229L177.671 85.9493L179.23 86.2106C180.334 86.3983 181.415 86.7003 182.456 87.1118C183.546 87.507 184.519 88.1702 185.286 89.0402C184.951 87.7865 184.148 86.7092 183.042 86.0304C181.949 85.319 180.722 84.8376 179.437 84.6156L179.915 85.9944C180.862 85.1151 182.078 84.5816 183.366 84.4804C184.818 84.3538 186.279 84.4022 187.719 84.6246Z" fill="#263238"></path><path d="M181.762 89.4815C180.693 88.9004 179.703 88.1857 178.815 87.3548C178.626 87.1385 177.914 86.2194 177.986 86.0392C178.258 85.5037 178.604 85.0092 179.013 84.5703C178.471 84.9141 178.007 85.3686 177.653 85.904C177.643 86.2435 177.708 86.5809 177.844 86.8924C177.979 87.2039 178.182 87.4817 178.437 87.7063C179.368 88.5824 180.516 89.1951 181.762 89.4815Z" fill="#263238"></path><path d="M212.041 97.3033C205.039 94.8072 210.239 78.6048 210.239 78.6048C210.239 78.6048 199.119 72.2969 196.974 62.5647C196.974 62.5647 197.875 70.6749 201.534 75.1805C202.147 75.9375 178.852 65.268 182.907 45.9568C182.907 45.9568 173.103 62.9882 160.812 62.9521C160.226 62.9521 168.12 46.8849 173.004 44.1996C175.818 42.6153 178.826 41.4036 181.952 40.595C191.047 37.6792 200.922 38.4393 209.464 42.7127C223.539 49.9217 227.91 68.8455 226.838 75.6221C224.783 88.9498 215.357 98.4838 212.041 97.3033Z" fill="#263238"></path><path d="M200.614 75.2795C187.655 70.1971 180.059 58.158 183.573 44.3887C183.586 44.3155 183.572 44.2403 183.534 44.1764C183.496 44.1124 183.437 44.0638 183.367 44.0391C183.297 44.0143 183.221 44.015 183.151 44.0411C183.082 44.0671 183.024 44.1168 182.987 44.1814C176.526 57.2118 187.854 72.2607 200.659 75.5589C200.965 75.64 200.92 75.4057 200.614 75.2795Z" fill="#263238"></path><path d="M212.265 96.5192C206.389 90.4095 207.714 82.858 209.669 75.3967C209.724 75.1804 209.363 75.0452 209.282 75.2705C206.723 82.3624 205.029 91.554 211.796 97.0329C211.866 97.0799 211.951 97.1003 212.034 97.0902C212.118 97.0802 212.195 97.0404 212.252 96.9782C212.309 96.9159 212.341 96.8353 212.344 96.7511C212.346 96.6668 212.318 96.5845 212.265 96.5192Z" fill="#263238"></path><path d="M183.734 43.1C183.734 43.0189 183.635 42.9828 183.59 43.0549C179.409 50.0477 174.723 62.6456 164.414 61.2488C164.387 61.2435 164.359 61.2436 164.332 61.2491C164.305 61.2546 164.279 61.2653 164.256 61.2808C164.233 61.2963 164.213 61.3162 164.198 61.3393C164.182 61.3624 164.172 61.3883 164.166 61.4155C164.161 61.4427 164.161 61.4707 164.167 61.4979C164.172 61.5251 164.183 61.5509 164.198 61.5739C164.214 61.597 164.234 61.6167 164.257 61.632C164.28 61.6474 164.306 61.658 164.333 61.6633C174.11 63.8891 182.076 51.2462 183.734 43.1Z" fill="#263238"></path><path d="M225.619 74.811L227.223 78.2173L215.94 86.1653L212.498 78.4877L225.619 74.811ZM216.77 82.6869L224.573 77.8478L224.222 77.0458L215.517 80.0016L216.77 82.6869Z" fill="#C4D095"></path><path d="M225.27 68.8278L225.469 72.5855L212.024 75.6945L211.726 67.2959L225.27 68.8278ZM214.105 72.7928L223.117 71.2429V70.3417L213.943 69.801L214.105 72.7928Z" fill="#C4D095"></path><path d="M210.471 95.6181C210.471 95.6181 220.249 86.3904 224.583 90.0941C228.917 93.7978 220.014 108.261 213.823 109.207C213.036 109.387 212.22 109.405 211.425 109.26C210.63 109.116 209.873 108.811 209.199 108.366C208.525 107.92 207.949 107.343 207.505 106.668C207.06 105.993 206.757 105.235 206.614 104.44L210.471 95.6181Z" fill="#BF8178"></path><path d="M221.923 94.1766C221.944 94.1766 221.965 94.1852 221.98 94.2004C221.995 94.2156 222.004 94.2362 222.004 94.2577C222.004 94.2792 221.995 94.2998 221.98 94.3151C221.965 94.3303 221.944 94.3388 221.923 94.3388C217.561 95.1318 214.66 98.43 212.371 101.998C213.885 100.755 215.678 100.277 217.381 102.116C217.471 102.215 217.381 102.35 217.228 102.305C216.566 101.933 215.804 101.775 215.049 101.854C214.294 101.933 213.581 102.245 213.011 102.746C212.059 103.583 211.204 104.523 210.46 105.549C210.19 105.873 209.559 105.549 209.803 105.152L209.857 105.071C210.821 99.9078 216.3 93.5548 221.923 94.1766Z" fill="#263238"></path><path d="M299.945 269.384C289.645 278.593 268.18 275.773 213.436 273.736C205.867 273.457 193.476 219.479 201.577 219.362C211.787 219.218 251.419 220.867 254.303 221.353C278.633 225.454 306.929 263.13 299.945 269.384Z" fill="#BF8178"></path><path d="M218.566 219.785C218.566 219.785 198.642 209.593 186.513 207.485C170.293 204.646 155.082 208.891 148.828 211.089C135.77 215.595 107.312 235.546 111.629 244.747C115.531 253.073 143.592 231.23 143.592 231.23C143.592 231.23 111.304 248.793 117.847 257.948C124.389 267.104 155.523 239.926 155.523 239.926C155.523 239.926 122.758 258.714 131.003 267.095C137.23 273.403 166.814 250.361 166.814 250.361C166.814 250.361 138.762 266.698 144.89 273.493C151.657 280.99 180.304 261.409 180.304 261.409C198.778 276.043 213.565 275.457 224.027 273.781C226.586 273.295 218.566 219.785 218.566 219.785Z" fill="#BF8178"></path><path d="M154.366 224.39C150.491 226.318 146.571 228.238 142.885 230.509C139.2 232.779 135.595 235.158 132.144 237.718C123.664 244.089 119.357 249.432 119.654 249.099C126.8 242.025 139.857 233.717 143.543 231.455C147.229 229.193 150.752 226.76 154.456 224.498C154.461 224.485 154.462 224.47 154.46 224.456C154.457 224.442 154.451 224.429 154.442 224.418C154.433 224.407 154.421 224.399 154.408 224.394C154.394 224.389 154.38 224.387 154.366 224.39Z" fill="#263238"></path><path d="M162.774 237.538C157.944 240.241 153.051 242.692 148.356 245.576C143.661 248.46 139.462 251.587 134.983 254.777C134.631 255.02 134.884 255.128 135.235 254.894C139.84 251.884 144.328 249.487 148.968 246.513C153.609 243.54 158.142 240.422 162.864 237.655C162.918 237.61 162.846 237.502 162.774 237.538Z" fill="#263238"></path><path d="M172.031 247.531C164.435 251.235 157.532 256.335 150.89 261.508C150.557 261.76 150.89 261.859 151.242 261.616C158.181 256.84 163.587 253.046 172.157 247.792C172.292 247.711 172.184 247.45 172.031 247.531Z" fill="#263238"></path><path d="M275.244 231.689C271.225 228.544 259.663 220.876 247.218 220.705C247.074 220.705 247.047 220.876 247.218 220.894C257.293 222.327 270.99 229.067 275.154 231.834C275.244 231.924 275.37 231.789 275.244 231.689Z" fill="#263238"></path><path d="M112.363 84.94C110.965 84.734 109.587 84.4084 108.245 83.9668C107.267 83.6357 106.312 83.2383 105.388 82.7773C105.355 82.7696 105.324 82.7541 105.298 82.7322C104.92 82.543 104.541 82.3447 104.172 82.1285C103.802 81.9122 103.73 81.8762 103.514 81.732C100.44 79.8173 97.818 77.2595 95.8274 74.2346C95.3678 73.5587 94.9262 72.8468 94.5297 72.1259C93.9052 71.0144 93.3514 69.8647 92.8716 68.6836C92.7004 68.2781 92.5382 67.8635 92.394 67.458C92.0877 66.638 91.8083 65.7909 91.565 64.9349C91.3217 64.0788 91.0874 63.1326 90.8982 62.2315C90.7089 61.3303 90.5377 60.4292 90.4116 59.474C89.5291 52.8444 89.9732 46.1055 91.7182 39.649C97.6026 17.2018 116.364 0.990436 133.639 3.49559C134.351 3.59471 135.054 3.73889 135.748 3.89209C136.441 4.04528 137.09 4.25254 137.757 4.46881C138.118 4.59497 138.487 4.72112 138.847 4.8653L139.1 4.96442L140.001 5.34291C153.085 11.3174 159.393 29.1779 154.284 48.7054C148.408 71.2878 129.638 87.4452 112.363 84.94ZM149.652 48.1107C151.016 43.0061 151.434 37.6951 150.887 32.44C150.842 32.0345 150.796 31.638 150.733 31.2325C149.598 23.3025 145.984 16.7242 140.533 12.9124L140.208 12.6961C140.028 12.561 139.839 12.4438 139.649 12.3267L139.298 12.1194C139.051 11.9612 138.795 11.8168 138.532 11.6869C138.226 11.5127 137.925 11.3595 137.631 11.2273H137.568C136.911 10.9184 136.237 10.6476 135.549 10.4163C134.958 10.2193 134.357 10.0568 133.747 9.92968C133.177 9.78486 132.6 9.67352 132.017 9.59625C117.292 7.46957 101.288 21.311 96.2869 40.424C92.4301 55.1846 96.2148 68.8097 104.902 75.2618C106.118 76.1768 107.441 76.9422 108.84 77.5417C109.074 77.6408 109.308 77.749 109.561 77.8391C109.813 77.9292 110.092 78.0463 110.372 78.1365C111.517 78.514 112.693 78.7914 113.886 78.9655C128.665 81.0651 144.651 67.2598 149.652 48.1107Z" fill="#455A64"></path><path d="M113.944 78.9292C112.751 78.7551 111.575 78.4777 110.429 78.1002C110.15 78.0101 109.88 77.9019 109.618 77.8028C109.357 77.7037 109.132 77.6046 108.898 77.5054L108.402 77.2982L101.193 73.9189C101.85 74.2263 102.524 74.4971 103.211 74.7299C103.803 74.9273 104.404 75.0927 105.014 75.2256C105.572 75.3607 106.158 75.4689 106.753 75.559C121.468 77.6947 137.463 63.8442 142.456 44.7402C146.331 29.9706 142.537 16.3455 133.859 9.8934C132.785 9.08256 131.628 8.38783 130.408 7.8208L137.617 11.191H137.68C137.986 11.3232 138.286 11.4764 138.581 11.6506C138.844 11.7806 139.1 11.925 139.347 12.0832L139.698 12.2904C139.888 12.4076 140.077 12.5247 140.257 12.6599L140.581 12.8761C146.033 16.6879 149.647 23.2662 150.782 31.1962C150.845 31.6017 150.89 31.9982 150.935 32.4037C151.468 37.6616 151.035 42.9726 149.656 48.0744C144.655 67.2596 128.668 81.0649 113.944 78.9292Z" fill="#37474F"></path><path d="M84.486 36.3508C79.4036 55.8153 85.6575 73.6037 98.6428 79.6503L105.834 83.0025C92.8485 76.9739 86.6127 59.1765 91.6861 39.7481C97.5614 17.3009 116.332 1.0985 133.598 3.58562C134.997 3.79157 136.375 4.12027 137.716 4.56787C138.522 4.84187 139.313 5.15768 140.086 5.51405L132.877 2.14382C132.1 1.80349 131.306 1.50273 130.498 1.24269C129.16 0.794872 127.785 0.469131 126.389 0.26946C109.123 -2.30778 90.3614 13.8946 84.486 36.3508Z" fill="#37474F"></path><path d="M75.6673 270.529H193.68V275.818H75.6673V270.529Z" fill="#455A64"></path><path d="M134.277 270.529H193.68V275.818H134.277V270.529Z" fill="#263238"></path><path d="M136.484 275.818H21.4637L5.21628 197.708H120.228L136.484 275.818Z" fill="#263238"></path><path d="M131.27 275.818H16.2579L0.00143433 197.708H115.013L131.27 275.818Z" fill="#37474F"></path><path d="M78.9407 238.511C79.0697 239.479 78.9876 240.464 78.7 241.398C78.4124 242.331 77.9261 243.191 77.2745 243.919C76.623 244.647 75.8216 245.225 74.9255 245.614C74.0293 246.002 73.0596 246.192 72.0831 246.171C69.9862 246.126 67.9757 245.327 66.4201 243.92C64.8644 242.513 63.8676 240.593 63.6124 238.511C63.482 237.542 63.5631 236.557 63.85 235.622C64.137 234.687 64.6231 233.826 65.2748 233.097C65.9265 232.368 66.7284 231.789 67.6252 231.4C68.5221 231.011 69.4926 230.821 70.4701 230.842C72.5683 230.888 74.5799 231.688 76.1358 233.097C77.6917 234.505 78.6875 236.428 78.9407 238.511Z" fill="#EBEBEB"></path></svg>