<svg xmlns="http://www.w3.org/2000/svg" width="493" height="183" viewBox="0 0 493 183" fill="none"><path d="M205.016 149.062C205.798 112.872 205.016 32.6006 205.016 32.6006H232.187C232.187 32.6006 231.083 111.008 231.865 141.148C246.313 138.203 267.042 134.015 280.087 130.127C281.652 136.661 282.434 143.471 281.652 150.005C252.916 148.924 218.383 149.085 205.016 149.085V149.062Z" fill="white"></path><path d="M296.074 45.1854C296.074 38.1913 301.573 32.6006 310.039 32.6006C318.506 32.6006 324.005 38.1913 324.005 45.1854C324.005 52.1795 318.506 57.4481 310.039 57.4481C301.573 57.4481 296.074 51.8574 296.074 45.1854ZM296.695 68.3304H322.923V148.924H296.695V68.3304Z" fill="white"></path><path d="M418.884 123.294C415.755 139.744 400.824 148.901 380.877 148.901C353.245 148.901 336.91 131.347 336.91 105.74C336.91 80.1332 353.406 63.6602 379.634 63.6602C405.862 63.6602 419.045 79.489 418.424 104.659L415.295 106.522H364.104V107.442C364.104 131.048 368.499 143.31 381.383 143.31C388.124 143.31 393.622 139.123 393.622 127.942C393.622 125.296 393.461 123.432 393.001 121.109L395.831 119.866L418.907 123.294H418.884ZM364.242 99.9882H395.049C395.371 85.9309 393.093 69.2509 380.6 69.2509C371.329 69.2509 365.37 78.2466 364.265 99.9882H364.242Z" fill="white"></path><path d="M461.981 68.4916L483.354 68.0314C483.032 71.5975 482.871 73.162 483.193 76.7281C475.969 76.429 468.906 76.2679 462.004 76.2679C461.842 98.6307 462.487 148.947 462.487 148.947H436.121C436.121 148.947 436.282 102.059 436.121 76.429C432.348 76.59 428.574 76.59 424.824 76.7281C425.123 73.162 425.123 71.7585 424.824 68.0314C428.574 68.1925 432.348 68.1925 436.121 68.3305C437.225 43.0228 451.052 33.5439 472.541 33.5439C478.822 33.5439 485.885 34.3262 492.005 36.0287C491.222 42.4016 489.175 49.8559 485.402 55.9067H480.225C479.443 48.1534 477.717 38.9736 471.897 38.9736C464.833 38.9736 462.326 46.1058 462.004 68.4685L461.981 68.4916Z" fill="white"></path><path d="M155.873 62.1189L125.343 87.7256L153.572 81.8589L149.316 104.774L99.368 124.1L146.716 119.636L143.864 141.355L90.4413 155.458L142.529 156.724L138.94 177.706L0.253906 182.606C0.253906 182.606 0.322927 182.583 0.345934 182.56C55.7698 143.817 146.969 35.6838 163.304 0L155.873 62.1189Z" fill="#00AFAA"></path><path d="M163.304 0C146.969 35.6838 55.7698 143.817 0.345934 182.56C0.322927 182.583 0.276913 182.583 0.253906 182.606L6.8109 129.598L30.8302 135.465L7.22502 113.931L13.9431 75.3249L51.1224 91.3147L17.9923 47.9466L22.8928 4.18727L44.0592 3.75014L62.1657 40.1702L62.6028 3.45105L93.8463 2.82986L99.253 45.5768L117.129 1.49545L163.304 0Z" fill="#1D938D"></path></svg>