<svg xmlns="http://www.w3.org/2000/svg" width="480" height="150" viewBox="0 0 480 150" fill="none"><g clip-path="url(#clip0_2923_650)"><path d="M256.768 64.5898C255.498 60.3552 253.377 56.3335 250.522 52.9429C249.671 51.8861 248.724 50.932 247.77 49.978C249.465 47.3286 250.838 44.3637 251.689 41.2961C252.533 38.4339 253.062 35.469 253.062 32.2912C253.062 14.5017 238.449 0 220.659 0H159.559V105.886H225.745C243.535 105.886 258.038 91.3841 258.038 73.5946C258.038 70.5196 257.619 67.4519 256.768 64.5898ZM182.956 23.3964H220.659C225.635 23.3964 229.657 27.4255 229.657 32.2912C229.657 37.1569 225.635 41.2961 220.659 41.2961H182.956V23.3964ZM225.745 82.4894H182.956V64.5898H225.745C230.611 64.5898 234.743 68.7216 234.743 73.5946C234.743 78.4676 230.611 82.4894 225.745 82.4894Z" fill="white"></path><path d="M359.703 52.9429C353.773 45.8462 344.767 41.2961 334.815 41.2961H300.929C296.056 41.2961 292.034 37.2743 292.034 32.2912C292.034 27.3081 296.056 23.3964 300.929 23.3964H334.815C339.16 23.3964 342.866 26.4715 343.608 30.6033H367.115C366.161 13.6577 352.077 0 334.815 0H300.929C297.861 0 294.896 0.418318 292.034 1.26963C278.581 5.18861 268.629 17.6794 268.629 32.2912C268.629 35.469 269.157 38.4339 270.009 41.2961C271.176 45.6333 273.399 49.5523 276.152 52.9429C280.276 57.8159 285.788 61.5221 292.034 63.3201C294.896 64.1641 297.861 64.5898 300.929 64.5898H334.815C339.791 64.5898 343.82 68.6115 343.82 73.5946C343.82 78.5777 339.791 82.4894 334.815 82.4894H300.929C296.584 82.4894 292.988 79.4144 292.247 75.2825H268.739C269.48 89.1604 279.117 100.91 292.034 104.616C294.896 105.467 297.861 105.886 300.929 105.886H334.815C352.606 105.886 367.115 91.3841 367.115 73.5946C367.115 70.5196 366.69 67.4519 365.846 64.5898C364.576 60.3552 362.455 56.3335 359.703 52.9429Z" fill="white"></path><path d="M468.781 52.9429C462.851 45.8462 453.845 41.2961 443.893 41.2961H410.007C405.134 41.2961 401.112 37.2743 401.112 32.2912C401.112 27.3081 405.134 23.3964 410.007 23.3964H443.893C448.231 23.3964 451.937 26.4715 452.678 30.6033H476.186C475.239 13.6577 461.155 0 443.893 0H410.007C406.932 0 403.967 0.418318 401.112 1.26963C387.659 5.18861 377.707 17.6794 377.707 32.2912C377.707 35.469 378.235 38.4339 379.079 41.2961C380.246 45.6333 382.47 49.5523 385.223 52.9429C389.355 57.8159 394.859 61.5221 401.112 63.3201C403.967 64.1641 406.932 64.5898 410.007 64.5898H443.893C448.869 64.5898 452.891 68.6115 452.891 73.5946C452.891 78.5777 448.869 82.4894 443.893 82.4894H410.007C405.663 82.4894 402.059 79.4144 401.318 75.2825H377.81C378.551 89.1604 388.188 100.91 401.112 104.616C403.967 105.467 406.932 105.886 410.007 105.886H443.893C461.684 105.886 476.186 91.3841 476.186 73.5946C476.186 70.5196 475.768 67.4519 474.917 64.5898C473.647 60.3552 471.533 56.3335 468.781 52.9429Z" fill="white"></path><path d="M176.547 142.081C176.422 141.722 176.334 141.274 176.297 140.731L175.996 137.274C175.827 135.315 175.541 134.009 175.137 133.363C174.726 132.717 174.058 132.232 173.119 131.924C174.33 131.506 175.247 130.809 175.886 129.84C176.524 128.871 176.84 127.675 176.84 126.259C176.84 125.114 176.598 124.086 176.106 123.184C175.614 122.281 174.917 121.576 174.007 121.063C173.413 120.725 172.715 120.49 171.923 120.343C171.123 120.197 169.831 120.123 168.048 120.123H160.363V143.175H162.477V132.864H169.207C170.998 132.864 172.194 133.15 172.789 133.73C173.383 134.309 173.758 135.652 173.912 137.759L174.183 140.812C174.22 141.377 174.286 141.846 174.367 142.235C174.455 142.624 174.558 142.933 174.682 143.175H177.031V142.859C176.833 142.698 176.671 142.434 176.547 142.081ZM168.591 130.97H162.477V122.017H168.466C169.824 122.017 170.8 122.083 171.394 122.208C171.989 122.332 172.503 122.538 172.928 122.831C173.479 123.198 173.904 123.683 174.205 124.284C174.499 124.894 174.653 125.569 174.653 126.317C174.653 127.961 174.176 129.143 173.236 129.869C172.29 130.603 170.741 130.97 168.591 130.97Z" fill="white"></path><path d="M194.24 135.227V134.581C194.24 131.91 193.616 129.833 192.376 128.35C191.128 126.86 189.389 126.119 187.158 126.119C184.926 126.119 183.07 126.897 181.778 128.446C180.486 130.001 179.848 132.166 179.848 134.941C179.848 137.715 180.486 139.792 181.771 141.325C183.055 142.859 184.824 143.63 187.092 143.63C188.992 143.63 190.563 143.123 191.818 142.103C193.073 141.083 193.8 139.733 194.013 138.045H192.082C191.899 139.263 191.363 140.225 190.49 140.929C189.609 141.634 188.523 141.986 187.216 141.986C185.565 141.986 184.251 141.384 183.275 140.18C182.292 138.97 181.8 137.355 181.8 135.322V135.227H194.24ZM183.407 129.385C184.361 128.321 185.602 127.792 187.121 127.792C188.64 127.792 189.851 128.313 190.761 129.363C191.671 130.412 192.17 131.858 192.258 133.693L181.829 133.678C181.925 131.88 182.453 130.449 183.407 129.385Z" fill="white"></path><path d="M210.008 120.123V129.422C209.414 128.321 208.636 127.499 207.667 126.948C206.705 126.391 205.568 126.119 204.261 126.119C201.986 126.119 200.188 126.904 198.852 128.475C197.524 130.046 196.863 132.181 196.863 134.882C196.863 137.583 197.509 139.718 198.816 141.281C200.122 142.845 201.898 143.63 204.137 143.63C205.443 143.63 206.588 143.358 207.571 142.808C208.562 142.257 209.37 141.443 210.008 140.357V143.175H211.931V120.123H210.008ZM208.702 140.1C207.725 141.318 206.331 141.92 204.511 141.92C202.691 141.92 201.377 141.311 200.386 140.078C199.403 138.845 198.911 137.113 198.911 134.882C198.911 132.651 199.395 130.86 200.364 129.649C201.333 128.431 202.72 127.822 204.511 127.822C206.302 127.822 207.711 128.438 208.694 129.664C209.67 130.889 210.162 132.629 210.162 134.882C210.162 137.135 209.678 138.882 208.702 140.1Z" fill="white"></path><path d="M229.853 135.227V134.581C229.853 131.91 229.229 129.833 227.981 128.35C226.734 126.86 224.994 126.119 222.763 126.119C220.532 126.119 218.675 126.897 217.383 128.446C216.099 130.001 215.453 132.166 215.453 134.941C215.453 137.715 216.092 139.792 217.376 141.325C218.66 142.859 220.437 143.63 222.697 143.63C224.598 143.63 226.176 143.123 227.424 142.103C228.679 141.083 229.405 139.733 229.618 138.045H227.688C227.504 139.263 226.969 140.225 226.095 140.929C225.222 141.634 224.128 141.986 222.822 141.986C221.178 141.986 219.864 141.384 218.881 140.18C217.897 138.97 217.413 137.355 217.413 135.322V135.227H229.853ZM219.013 129.385C219.967 128.321 221.207 127.792 222.734 127.792C224.26 127.792 225.457 128.313 226.367 129.363C227.284 130.412 227.783 131.858 227.864 133.693L217.442 133.678C217.537 131.88 218.059 130.449 219.013 129.385Z" fill="white"></path><path d="M236.554 122.119C236.841 121.819 237.347 121.672 238.066 121.672C238.235 121.672 238.529 121.686 238.947 121.716C239.028 121.73 239.094 121.738 239.13 121.738V120.013C238.947 119.969 238.771 119.94 238.609 119.925C238.448 119.91 238.294 119.903 238.147 119.903C236.767 119.903 235.769 120.189 235.145 120.762C234.514 121.342 234.206 122.252 234.206 123.506V126.537H231.762V128.108H234.206V143.175H236.114V128.108H239.13V126.537H236.114V123.69C236.114 122.941 236.261 122.413 236.554 122.119Z" fill="white"></path><path d="M242 126.538V143.175H243.908V126.538H242ZM242 120.123V123.015H243.908V120.123H242Z" fill="white"></path><path d="M261.294 129.862C261.191 129.319 261.015 128.849 260.773 128.468C260.318 127.712 259.657 127.132 258.791 126.728C257.925 126.317 256.919 126.119 255.767 126.119C254.556 126.119 253.492 126.376 252.575 126.89C251.657 127.411 250.886 128.174 250.255 129.201V126.537H248.398V143.175H250.351V133.363C250.351 131.66 250.806 130.317 251.708 129.334C252.611 128.35 253.837 127.851 255.393 127.851C256.949 127.851 257.962 128.203 258.563 128.893C259.158 129.59 259.459 130.911 259.459 132.864V143.175H261.448V132.563C261.448 131.315 261.396 130.412 261.294 129.862Z" fill="white"></path><path d="M265.883 126.538V143.175H267.791V126.538H265.883ZM265.883 120.123V123.015H267.791V120.123H265.883Z" fill="white"></path><path d="M285.176 129.862C285.074 129.319 284.898 128.849 284.663 128.468C284.2 127.712 283.54 127.132 282.674 126.728C281.808 126.317 280.802 126.119 279.65 126.119C278.439 126.119 277.375 126.376 276.457 126.89C275.54 127.411 274.769 128.174 274.145 129.201V126.537H272.281V143.175H274.234V133.363C274.234 131.66 274.689 130.317 275.591 129.334C276.494 128.35 277.72 127.851 279.276 127.851C280.832 127.851 281.844 128.203 282.446 128.893C283.048 129.59 283.349 130.911 283.349 132.864V143.175H285.331V132.563C285.331 131.315 285.279 130.412 285.176 129.862Z" fill="white"></path><path d="M301.91 126.537V129.422C301.257 128.321 300.457 127.499 299.495 126.948C298.534 126.391 297.418 126.119 296.134 126.119C293.881 126.119 292.09 126.904 290.754 128.482C289.426 130.053 288.758 132.188 288.758 134.882C288.758 137.575 289.418 139.733 290.732 141.289C292.046 142.852 293.844 143.63 296.134 143.63C297.396 143.63 298.512 143.358 299.473 142.808C300.435 142.257 301.257 141.435 301.939 140.327V142.375C301.939 144.327 301.433 145.802 300.427 146.793C299.422 147.784 297.917 148.275 295.914 148.275C294.512 148.275 293.418 148.004 292.618 147.461C291.818 146.918 291.363 146.14 291.246 145.134H289.279C289.389 146.631 290.05 147.82 291.239 148.694C292.435 149.56 294.005 150 295.943 150C298.541 150 300.508 149.354 301.837 148.055C303.165 146.763 303.833 144.848 303.833 142.316V126.537H301.91ZM300.574 140.092C299.583 141.333 298.196 141.957 296.413 141.957C294.629 141.957 293.301 141.325 292.303 140.07C291.312 138.808 290.813 137.083 290.813 134.882C290.813 132.68 291.297 130.875 292.266 129.656C293.235 128.431 294.622 127.822 296.413 127.822C298.204 127.822 299.598 128.438 300.581 129.671C301.572 130.897 302.064 132.636 302.064 134.882C302.064 137.127 301.565 138.852 300.574 140.092Z" fill="white"></path><path d="M333.257 142.081C333.133 141.722 333.045 141.274 333.008 140.731L332.707 137.274C332.546 135.315 332.252 134.009 331.848 133.363C331.445 132.717 330.769 132.232 329.83 131.924C331.041 131.506 331.966 130.809 332.597 129.84C333.235 128.871 333.558 127.675 333.558 126.259C333.558 125.114 333.309 124.086 332.817 123.184C332.325 122.281 331.628 121.576 330.718 121.063C330.124 120.725 329.434 120.49 328.634 120.343C327.834 120.197 326.542 120.123 324.759 120.123H317.074V143.175H319.188V132.864H325.918C327.709 132.864 328.905 133.15 329.5 133.73C330.094 134.309 330.469 135.652 330.63 137.759L330.894 140.812C330.938 141.377 330.997 141.846 331.078 142.235C331.166 142.624 331.269 142.933 331.393 143.175H333.742V142.859C333.544 142.698 333.382 142.434 333.257 142.081ZM325.309 130.97H319.188V122.017H325.184C326.535 122.017 327.511 122.083 328.105 122.208C328.7 122.332 329.214 122.538 329.639 122.831C330.197 123.198 330.623 123.683 330.916 124.284C331.217 124.894 331.364 125.569 331.364 126.317C331.364 127.961 330.894 129.143 329.947 129.869C329.001 130.603 327.459 130.97 325.309 130.97Z" fill="white"></path><path d="M350.958 135.227V134.581C350.958 131.91 350.335 129.833 349.087 128.35C347.839 126.86 346.1 126.119 343.869 126.119C341.637 126.119 339.781 126.897 338.489 128.446C337.204 130.001 336.559 132.166 336.559 134.941C336.559 137.715 337.197 139.792 338.481 141.325C339.766 142.859 341.542 143.63 343.803 143.63C345.703 143.63 347.281 143.123 348.529 142.103C349.784 141.083 350.511 139.733 350.724 138.045H348.793C348.61 139.263 348.074 140.225 347.201 140.929C346.327 141.634 345.234 141.986 343.927 141.986C342.283 141.986 340.97 141.384 339.986 140.18C339.003 138.97 338.511 137.355 338.511 135.322V135.227H350.958ZM340.118 129.385C341.072 128.321 342.313 127.792 343.832 127.792C345.351 127.792 346.562 128.313 347.472 129.363C348.39 130.412 348.889 131.858 348.969 133.693L338.548 133.678C338.636 131.88 339.164 130.449 340.118 129.385Z" fill="white"></path><path d="M365.807 137.428C365.609 138.837 365.08 139.946 364.214 140.746C363.348 141.553 362.269 141.957 360.97 141.957C359.312 141.957 357.991 141.311 357.007 140.026C356.024 138.749 355.525 137.003 355.525 134.801C355.525 132.599 356.016 130.955 356.992 129.701C357.969 128.446 359.282 127.822 360.941 127.822C362.203 127.822 363.268 128.189 364.126 128.915C364.992 129.649 365.499 130.618 365.653 131.829H367.502C367.407 130.119 366.754 128.739 365.55 127.69C364.346 126.64 362.813 126.119 360.941 126.119C358.644 126.119 356.838 126.904 355.517 128.482C354.196 130.053 353.543 132.218 353.543 134.977C353.543 137.737 354.189 139.74 355.488 141.281C356.787 142.822 358.563 143.6 360.816 143.6C362.791 143.6 364.391 143.05 365.624 141.949C366.857 140.848 367.561 139.344 367.737 137.428H365.807Z" fill="white"></path><path d="M377.908 126.119C376.668 126.119 375.619 126.391 374.767 126.948C373.916 127.499 373.255 128.335 372.771 129.451V126.537H370.914V143.175H372.896V134.001C372.896 132.056 373.314 130.589 374.143 129.605C374.973 128.629 376.213 128.137 377.879 128.137H378.129V126.119H377.908Z" fill="white"></path><path d="M391.855 126.537V136.386C391.855 138.081 391.392 139.424 390.467 140.401C389.543 141.369 388.288 141.861 386.688 141.861C385.227 141.861 384.185 141.509 383.561 140.812C382.93 140.114 382.622 138.933 382.622 137.274V126.537H380.691V137.729C380.691 139.689 381.168 141.164 382.108 142.147C383.055 143.138 384.464 143.63 386.343 143.63C387.598 143.63 388.677 143.373 389.594 142.859C390.504 142.353 391.282 141.567 391.913 140.518V143.175H393.777V126.537H391.855Z" fill="white"></path><path d="M398.297 126.538V143.175H400.212V126.538H398.297ZM398.297 120.123V123.015H400.212V120.123H398.297Z" fill="white"></path><path d="M410.32 128.108V126.537H407.238V121.767H405.315V126.537H403.047V128.108H405.315V140.232C405.315 141.509 405.513 142.382 405.909 142.866C406.306 143.358 406.981 143.6 407.942 143.6C408.287 143.6 408.654 143.571 409.036 143.512C409.425 143.454 409.85 143.365 410.32 143.241L410.305 141.707C409.777 141.817 409.381 141.898 409.131 141.934C408.882 141.964 408.654 141.986 408.456 141.986C408.001 141.986 407.685 141.868 407.502 141.641C407.326 141.413 407.238 140.944 407.238 140.232V128.108H410.32Z" fill="white"></path><path d="M434.605 127.469C433.709 126.567 432.359 126.119 430.553 126.119C429.364 126.119 428.315 126.398 427.405 126.956C426.487 127.514 425.753 128.321 425.203 129.385C424.931 128.343 424.388 127.536 423.566 126.97C422.737 126.398 421.71 126.119 420.469 126.119C419.31 126.119 418.282 126.391 417.379 126.941C416.484 127.484 415.75 128.269 415.185 129.297V126.537H413.387V143.175H415.31V132.893C415.31 131.388 415.765 130.178 416.667 129.246C417.563 128.321 418.744 127.851 420.205 127.851C421.387 127.851 422.267 128.189 422.84 128.857C423.412 129.524 423.698 130.544 423.698 131.924V143.175H425.629V132.754C425.629 131.278 426.069 130.089 426.957 129.187C427.845 128.277 429.02 127.822 430.495 127.822C431.735 127.822 432.63 128.123 433.174 128.732C433.709 129.334 433.981 130.339 433.981 131.733V143.175H435.94V131.579C435.94 129.745 435.493 128.372 434.605 127.469Z" fill="white"></path><path d="M453.689 135.227V134.581C453.689 131.91 453.065 129.833 451.817 128.35C450.57 126.86 448.83 126.119 446.599 126.119C444.368 126.119 442.511 126.897 441.227 128.446C439.935 130.001 439.289 132.166 439.289 134.941C439.289 137.715 439.935 139.792 441.219 141.325C442.496 142.859 444.272 143.63 446.54 143.63C448.434 143.63 450.012 143.123 451.267 142.103C452.515 141.083 453.249 139.733 453.454 138.045H451.531C451.34 139.263 450.812 140.225 449.931 140.929C449.058 141.634 447.964 141.986 446.665 141.986C445.014 141.986 443.7 141.384 442.717 140.18C441.74 138.97 441.249 137.355 441.249 135.322V135.227H453.689ZM442.849 129.385C443.803 128.321 445.043 127.792 446.57 127.792C448.096 127.792 449.293 128.313 450.21 129.363C451.12 130.412 451.619 131.858 451.7 133.693L441.278 133.678C441.373 131.88 441.895 130.449 442.849 129.385Z" fill="white"></path><path d="M469.997 129.862C469.894 129.319 469.725 128.849 469.483 128.468C469.021 127.712 468.36 127.132 467.494 126.728C466.628 126.317 465.623 126.119 464.47 126.119C463.318 126.119 462.202 126.376 461.278 126.89C460.36 127.411 459.59 128.174 458.966 129.201V126.537H457.102V143.175H459.061V133.363C459.061 131.66 459.509 130.317 460.412 129.334C461.314 128.35 462.54 127.851 464.096 127.851C465.652 127.851 466.665 128.203 467.267 128.893C467.868 129.59 468.169 130.911 468.169 132.864V143.175H470.158V132.563C470.158 131.315 470.1 130.412 469.997 129.862Z" fill="white"></path><path d="M479.999 128.108V126.537H476.917V121.767H474.987V126.537H472.719V128.108H474.987V140.232C474.987 141.509 475.185 142.382 475.581 142.866C475.977 143.358 476.66 143.6 477.621 143.6C477.966 143.6 478.326 143.571 478.715 143.512C479.104 143.454 479.53 143.365 479.999 143.241L479.985 141.707C479.449 141.817 479.06 141.898 478.81 141.934C478.561 141.964 478.333 141.986 478.135 141.986C477.68 141.986 477.357 141.868 477.181 141.641C477.005 141.413 476.917 140.944 476.917 140.232V128.108H479.999Z" fill="white"></path><path d="M61.3366 9.93677V51.5411C51.3698 52.6346 43.3773 60.2964 41.7993 70.1085H0.0898438C1.89532 37.3403 28.4197 11.1624 61.3366 9.93677Z" fill="#96E007"></path><path d="M61.3348 95.8021V137.406C27.6693 136.144 0.689898 108.807 0 75.0037H41.5553C42.1939 85.8726 50.6268 94.6352 61.3348 95.8021Z" fill="#96E007"></path><path d="M93.7598 17.3711L90.4131 20.6956C90.0315 21.0772 89.8039 21.5836 89.7746 22.1194L88.9159 37.9861L88.5269 45.2002L66.2227 67.5032V9.93677C76.1601 10.3111 85.5031 12.9457 93.7598 17.3711Z" fill="#96E007"></path><path d="M118.052 40.1509L114.515 43.6516L96.4011 43.4901H95.6818L95.1093 43.4828L92.9883 43.4608L93.0984 41.4499L93.1424 40.5839L94.0818 23.1981L97.6708 19.6313C101.928 22.3101 105.839 25.4805 109.348 29.0472C109.583 29.2894 109.81 29.5315 110.045 29.7737C110.111 29.8471 110.184 29.9132 110.243 29.9939C113.179 33.0909 115.799 36.4962 118.052 40.1509Z" fill="#96E007"></path><path d="M127.468 70.1085H69.7812L80.6875 59.2028L92.0782 47.8128L98.6762 47.8716L115.388 48.0183H115.403C115.975 48.0183 116.533 47.7908 116.936 47.3872L120.276 44.0773L120.239 43.9819C120.239 43.9819 120.269 44.0406 120.283 44.07C121.78 46.8881 123.043 49.8457 124.092 52.8987C125.979 58.3442 127.138 64.1126 127.468 70.1085Z" fill="#96E007"></path><path d="M127.551 75.0037C127.191 92.4996 119.8 108.256 108.072 119.558C107.822 119.8 107.566 120.05 107.316 120.285C96.4759 130.42 82.0981 136.819 66.2305 137.414V95.8095C71.001 95.2884 75.3239 93.2555 78.7 90.2026C82.9054 86.4083 85.6577 81.0362 86.01 75.011H127.558L127.551 75.0037Z" fill="#96E007"></path><path d="M61.3353 29.8767V51.5412C51.3685 52.6347 43.376 60.2965 41.798 70.1086H21.0938C22.3121 48.4442 39.6696 31.1023 61.328 29.884L61.3353 29.8767Z" fill="#11AA7B"></path><path d="M61.3358 95.8021V115.228C39.6701 114.01 22.3199 96.6681 21.1016 75.0037H41.5636C42.2022 85.8726 50.6351 94.6352 61.3432 95.8021H61.3358Z" fill="#11AA7B"></path><path d="M66.2227 67.5033V29.8767C74.6849 30.3611 82.4793 33.2966 88.9159 37.9862L88.5269 45.2004L66.2227 67.5033Z" fill="#11AA7B"></path><path d="M95.1093 43.4831L92.9883 43.4611L93.0984 41.4502C93.4874 41.8171 93.869 42.1914 94.2433 42.5657C94.5369 42.8666 94.8305 43.1748 95.1093 43.4831Z" fill="#11AA7B"></path><path d="M106.463 70.1086H69.7812L80.6875 59.203L92.0782 47.813L98.6762 47.8717C103.183 54.2199 105.994 61.845 106.463 70.1086Z" fill="#11AA7B"></path><path d="M106.464 75.0037C105.811 86.5258 100.607 96.8149 92.6149 104.11C85.5765 110.546 76.3803 114.656 66.2227 115.228V95.8021C70.9932 95.2811 75.3161 93.2482 78.6922 90.1952C82.8976 86.401 85.6499 81.0289 86.0022 75.0037H106.464Z" fill="#11AA7B"></path><path d="M77.5399 56.1868L66.2227 67.5034V51.5486C70.4648 52.0109 74.3546 53.6695 77.5399 56.1868Z" fill="#96E007"></path><path d="M85.759 70.1087H69.7812L80.6875 59.2031C83.3003 62.2341 85.0984 65.9843 85.759 70.1087Z" fill="#96E007"></path><g opacity="0.13"><path d="M118.428 39.777L118.054 40.1513L114.516 43.652L96.4029 43.4905L95.6836 43.4832L97.1074 42.1695L97.3716 41.9126L103.177 36.5406L110.245 29.9942L113.07 27.3816L118.428 39.777Z" fill="#231F20"></path><path d="M127.468 70.1088H69.7812L80.6875 59.2031L92.0782 47.8131L98.6762 47.8719L115.388 48.0186H115.403C115.975 48.0186 116.533 47.7911 116.936 47.3875L120.276 44.0776L124.092 52.899C125.979 58.3445 127.138 64.1129 127.468 70.1088Z" fill="#231F20"></path></g><g opacity="0.13"><path d="M127.55 75.0037C127.19 92.4996 119.8 108.256 108.071 119.558L92.8421 104.345L92.6146 104.117L78.6992 90.2026C82.9047 86.4083 85.6569 81.0362 86.0092 75.011H127.557L127.55 75.0037Z" fill="#231F20"></path></g><path d="M103.175 36.5404C103.073 36.7606 102.933 36.9587 102.75 37.1422L96.4011 43.4904H95.6818L95.1093 43.483L92.9883 43.461L93.0984 41.4502L93.1424 40.5842L99.6671 34.0599C100.518 33.2086 101.898 33.2086 102.75 34.0599C103.417 34.7277 103.564 35.7331 103.175 36.5404Z" fill="#191919"></path><path d="M135.189 23.1617L118.426 39.777L118.052 40.1513L114.515 43.6519L96.4011 43.4905H95.6818L95.1093 43.4831L92.9883 43.4611L93.0984 41.4503L93.1424 40.5843L94.0818 23.1984L97.6708 19.6317L115.131 2.26782L114.118 20.3362C114.082 20.9233 114.294 21.5031 114.691 21.9361C115.087 22.3691 115.645 22.626 116.232 22.6406L135.189 23.1617Z" fill="#96E007"></path><path d="M120.238 43.9822L120.275 44.0776H120.282C120.282 44.0776 120.253 44.0115 120.238 43.9822Z" fill="#191919"></path></g><defs><clipPath id="clip0_2923_650"><rect width="480" height="150" fill="white"></rect></clipPath></defs></svg>