<svg xmlns="http://www.w3.org/2000/svg" width="463" height="300" viewBox="0 0 463 300" fill="none"><g clip-path="url(#clip0_14_3394)"><path d="M351.396 132.347L174.18 182.061L180.435 204.389L357.651 154.675L351.396 132.347Z" fill="black"></path><path d="M42.5947 293.519C40.0019 294.246 36.6714 294.333 32.4295 293.779C30.0862 293.693 27.5802 292.683 24.4124 290.577C21.9389 288.927 19.4545 287.06 17.0569 285.019C14.6594 282.988 12.468 280.937 10.5369 278.906C7.83557 276.073 6.65306 274.358 6.15402 272.577C5.44886 270.048 5.28613 265.184 12.1642 261.005C15.1367 259.192 18.63 257.444 22.5355 255.794C26.018 254.317 29.6523 252.808 33.3191 251.31C37.4633 249.617 38.5048 248.726 38.6024 248.639C38.9496 248.325 39.3401 248.053 39.7524 247.825L46.8908 243.971C47.3573 241.453 47.8997 238.684 48.4964 235.688C49.5162 230.542 50.6445 224.962 51.8704 218.937L55.4938 201.122C56.6872 195.281 57.772 189.864 58.7701 184.892C59.7574 179.931 60.5276 176.033 61.07 173.2C61.0917 173.113 61.1026 173.026 61.1243 172.939C63.4568 163.19 65.2576 155.645 66.5161 150.293C67.7745 144.93 68.7401 140.881 69.391 138.156C70.324 134.28 70.7254 132.967 70.9749 132.261C71.2244 131.566 71.4414 130.871 71.615 130.209C71.7343 129.753 71.9187 129.319 72.1357 128.928C73.6979 122.165 75.2384 116.085 76.7355 110.82C77.4624 108.236 78.1784 105.891 78.8944 103.764C77.1478 103.405 75.4879 102.852 73.9691 102.146C70.4759 100.518 69.1198 97.9772 68.599 96.1317C68.0241 94.069 67.9264 90.8664 70.7254 87.273C72.2333 85.3298 74.7502 83.3214 78.6341 80.9656C79.0246 80.7267 79.4369 80.5313 79.8817 80.401C83.4183 79.2611 87.0309 78.1647 90.6219 77.155L101.405 74.1262C109.781 71.7812 117.711 69.6643 124.99 67.8513C132.498 65.9732 137.933 64.8876 141.589 64.5184C141.708 64.5076 141.817 64.4967 141.936 64.4967C147.219 63.7585 151.765 63.3134 155.464 63.1831C159.75 63.0203 163.275 63.3026 166.237 64.0408C169.633 64.8876 172.399 66.3206 174.471 68.3073C176.565 70.3265 178.051 72.9103 178.919 75.9934C179.646 78.5881 179.917 81.2044 179.733 83.7773C179.549 86.4588 178.691 89.314 177.184 92.2886C175.784 95.0461 173.734 97.9121 170.902 101.039C168.353 103.85 164.979 107.02 160.845 110.451C157.656 113.632 154.032 116.954 150.062 120.33C153.631 119.874 157.059 119.548 160.335 119.364C169.589 118.832 178.192 119.114 185.949 120.178C186.481 120.113 187.023 120.124 187.577 120.222C194.574 121.383 199.597 123.229 202.917 125.867C205.455 127.886 207.44 130.47 208.84 133.586C209.447 129.178 210.174 124.542 211.031 119.7C212.865 109.333 215.176 98.4332 217.909 87.3056C220.654 76.1346 223.681 65.6475 226.903 56.1375C230.168 46.4755 233.64 38.203 237.198 31.5373C241.505 23.482 245.725 19.0961 250.477 17.7717C252.614 17.1746 255.034 17.2397 257.681 17.9562C260.035 18.6076 262.215 19.7041 264.157 21.2131C266.088 22.7221 267.683 24.5568 268.909 26.6629C270.482 29.3552 271.014 32.3407 270.439 35.3044C269.484 40.2657 267.803 46.4212 265.448 53.5971C265.242 54.2268 265.036 54.8673 264.819 55.5078C266.023 54.8564 267.325 54.2159 268.736 53.5754C273.487 51.4042 279.519 48.9724 286.658 46.3669C292.971 44.0654 300.099 41.2753 307.899 38.051C307.975 37.8991 308.051 37.7579 308.127 37.6168C308.17 37.4757 308.225 37.2911 308.279 37.074C308.409 36.6072 308.648 35.8255 309.006 34.7182C309.19 34.1537 309.451 33.6326 309.787 33.1658C311.067 29.3661 312.228 26.0767 313.237 23.3626C314.474 20.0515 315.591 17.4134 316.643 15.2965C317.869 12.8538 319.073 11.0083 320.354 9.66211C321.948 7.96854 323.771 6.82864 325.778 6.26412C327.872 5.67789 330.291 5.72131 333.394 6.41611C336.844 7.1869 339.99 9.51012 342.767 13.3098L346.618 17.8368C347.486 18.8573 347.974 20.1383 348.018 21.4736L348.072 23.3952C351.619 22.1576 355.362 20.9634 359.268 19.8235C366.385 17.75 373.306 15.7741 379.826 13.9394C387.073 11.9093 393.452 10.1506 398.8 8.72848C406.286 6.74179 408.694 6.37268 409.964 6.27498C410.267 6.25327 410.571 6.25327 410.875 6.27498C415.269 6.047 418.436 7.32803 420.313 10.1072C421.452 11.8008 422.168 13.2012 422.537 14.5365C423.134 16.6535 423.449 20.8548 418.936 25.1648C416.386 27.6074 412.057 29.6049 404.908 31.6025C400.872 32.7315 396.381 34.0343 391.532 35.4673C386.715 36.8894 381.746 38.4419 376.756 40.0594C371.809 41.6662 366.667 43.3706 361.481 45.1293C356.404 46.8554 351.468 48.6033 346.792 50.3511L339.36 53.4343L338.514 56.0398C337.907 57.8853 337.321 59.8177 336.713 61.9564C336.128 64.0082 335.509 66.0166 334.891 67.9381C335.618 67.6125 336.388 67.3302 337.223 67.0914C340.554 66.1577 344.405 66.1577 348.669 67.0805C348.799 67.0588 348.994 67.0371 349.276 66.9719C350.459 66.7114 351.771 66.4183 353.203 66.0926C354.538 65.7886 355.883 65.4412 357.217 65.0721L360.743 64.0842C363.162 63.4003 365.81 62.4883 368.587 61.3593C371.451 60.1977 374.304 58.9384 377.07 57.5813C379.859 56.2243 382.517 54.889 384.968 53.608C387.105 52.4898 388.787 51.4584 389.959 50.5357C390.013 50.4922 390.067 50.4488 390.132 50.4054L393.007 48.2993C394.439 47.1703 395.958 46.3669 397.509 45.9326C400.254 45.1619 404.409 45.303 409.031 49.9711C409.161 50.0689 409.302 50.1774 409.421 50.286C412.849 53.304 415.193 56.9951 416.386 61.2724C416.863 62.966 417.156 64.3665 417.287 65.5824C417.514 67.6993 417.026 69.8597 415.822 71.9984C414.878 73.6811 413.338 75.4289 411.103 77.3396C409.432 78.7726 407.089 80.7267 403.943 83.3105C400.677 85.9486 397.781 88.5106 395.296 90.975C392.79 93.461 390.382 96.0448 388.136 98.6612C387.778 99.0737 387.431 99.4862 387.073 99.8988L388.364 99.5405C391.152 98.7589 393.864 98.3246 396.403 98.2486C399.603 98.1618 402.532 98.9 405.103 100.442C408.043 102.2 410.094 105.11 411.2 109.072C411.938 111.721 411.775 114.435 410.723 116.921C409.877 118.908 408.033 121.503 404.008 122.762C400.992 124.021 397.889 125.552 394.786 127.311C391.521 129.156 388.277 131.154 385.142 133.249C381.952 135.388 378.915 137.515 376.137 139.589C373.49 141.554 371.19 143.248 369.151 144.735C367.751 146.895 365.994 148.762 363.911 150.304C361.47 152.106 359.496 153.17 357.662 153.68C354.18 154.657 350.459 154.049 346.597 151.867C346.011 151.531 345.479 151.107 345.034 150.597C344.242 150.087 343.45 149.512 342.637 148.849C341.628 148.035 340.565 147.134 339.426 146.092C339.046 145.744 338.72 145.354 338.438 144.93L337.234 143.052C335.346 141.163 334.023 138.894 333.296 136.3C332.83 134.617 332.623 132.847 332.689 131.013C332.493 131.306 332.287 131.599 332.092 131.892C329.076 136.321 325.93 140.935 322.653 145.744C319.431 150.467 316.101 155.558 312.759 160.9C312.694 161.008 312.618 161.117 312.542 161.225C311.23 163.049 309.288 164.352 306.912 165.025C304.102 165.807 301.195 165.926 298.255 165.362C295.586 164.851 293.113 163.95 290.889 162.702C288.838 161.54 287.026 160.27 285.518 158.902C285.074 158.5 284.672 158.11 284.303 157.708C284.043 158.055 283.783 158.392 283.522 158.728C280.778 162.311 278.033 165.535 275.364 168.325C272.012 171.832 269.104 173.84 266.219 174.644C266.045 174.698 265.861 174.73 265.676 174.763C261.055 175.599 256.411 174.307 251.866 170.931C250.423 169.856 249.154 168.705 248.058 167.479C246.637 169.628 245.324 171.615 244.12 173.428C242.102 176.478 240.594 178.443 239.314 179.703C238.63 180.56 238.305 181.016 238.153 181.255C236.981 182.992 235.3 184.197 233.271 184.772C230.038 185.684 226.849 185.608 223.811 184.544C221.283 183.665 218.897 182.33 216.738 180.582C214.611 178.856 212.778 176.804 211.27 174.47C209.773 172.158 208.656 169.715 207.961 167.218C207.462 165.448 207.137 163.288 206.985 160.704C205.151 164.298 202.732 168.184 199.705 172.386C193.706 180.723 185.982 189.766 176.739 199.265C167.55 208.7 156.907 218.59 145.104 228.664C133.322 238.717 120.792 248.618 107.86 258.095C102.631 261.862 96.9032 265.629 90.8063 269.31C84.7202 272.979 79.0246 276.323 73.8606 279.254C68.5665 282.25 63.9666 284.769 60.1805 286.723C55.7976 288.992 54.1377 289.763 53.2373 290.11C52.4128 290.501 51.4147 290.903 50.1997 291.326C48.8761 291.782 47.8672 292.108 47.0861 292.325L42.6273 293.573L42.5947 293.519ZM97.4457 162.724C97.2613 163.505 97.0226 164.395 96.708 165.405C96.0137 167.674 95.3085 170.138 94.6359 172.722L90.7086 187.487C90.6761 187.595 90.6544 187.693 90.6219 187.79C88.246 195.086 85.7617 203.152 83.2231 211.772C81.7585 216.766 80.2939 221.608 78.8619 226.254C81.8453 224.506 84.6551 222.802 87.2588 221.162C90.9148 218.861 93.8656 216.831 96.0028 215.126C96.1764 214.985 96.3608 214.855 96.5561 214.736C100.331 212.391 104.747 209.351 109.683 205.714C114.63 202.066 119.87 198.093 125.24 193.913C130.599 189.734 135.98 185.456 141.253 181.19C146.503 176.934 151.44 172.82 155.909 168.977C160.314 165.199 164.187 161.736 167.452 158.685C170.653 155.7 172.963 153.431 174.341 151.943C176.5 149.544 177.249 148.133 177.498 147.503C177.574 147.319 177.628 147.167 177.661 147.036C177.498 146.96 177.281 146.874 176.999 146.787C174.873 146.114 172.334 145.701 169.459 145.56C166.346 145.408 162.972 145.484 159.435 145.777C155.79 146.081 152.633 146.396 150.04 146.689C147.469 147.275 144.388 148.003 140.873 148.849C137 149.794 132.791 150.901 128.364 152.139C124.622 153.192 120.727 154.353 116.789 155.602C112.938 156.829 109.39 158.045 106.244 159.217C103.065 160.4 100.429 161.443 98.4004 162.289C98.0098 162.452 97.6843 162.593 97.4348 162.713L97.4457 162.724ZM256.824 79.2177C254.404 86.3177 251.898 93.7433 249.36 101.321C246.572 109.626 244.109 117.681 242.037 125.248C240.659 130.307 239.509 135.051 238.598 139.437C240.919 135.876 243.794 131.403 247.364 125.823C247.732 125.226 248.145 124.618 248.557 124.032C249.392 120.862 250.282 117.779 251.193 114.88C253.189 108.529 255.305 102.971 257.453 98.368C260.404 92.0606 263.116 88.9557 266.533 88.0004C267.477 87.7398 268.443 87.6313 269.441 87.6638C268.497 86.2525 267.737 84.711 267.206 83.05C266.891 82.1055 266.62 81.237 266.392 80.4553C261.836 81.4541 258.809 80.5965 256.802 79.196L256.824 79.2177ZM329.607 85.2212C328.761 87.7615 327.774 90.5082 326.678 93.4502C324.78 98.5309 322.816 103.85 320.842 109.268C320.397 110.494 319.952 111.699 319.518 112.894C323.044 109.572 326.168 106.63 328.891 104.1C332.255 100.963 334.967 98.4549 336.941 96.6528C337.256 96.3705 337.494 96.1425 337.69 95.958C338.221 94.9158 339.068 94.0364 340.142 93.461C337.928 93.0702 336.062 92.3646 334.489 91.3332C332.114 89.7808 330.475 87.7616 329.651 85.3515C329.64 85.308 329.618 85.2646 329.607 85.2212ZM283.077 120.124C283.056 120.406 283.023 120.699 282.958 120.981C284.108 119.353 285.312 117.649 286.56 115.879C286.864 114.229 287.178 112.546 287.515 110.798C288.838 103.937 290.389 96.7288 292.136 89.3465C293.915 81.8341 295.922 74.7884 298.081 68.3833L298.211 68.0033C295.868 68.9478 293.655 69.8488 291.594 70.7065C292.19 71.7812 292.657 72.8886 292.971 74.0285C293.85 77.1659 293.557 80.4987 292.125 83.6688C290.726 86.7736 288.014 89.39 283.848 91.6372C282.936 92.2343 282.003 92.5383 281.32 92.7337C280.962 92.8314 280.593 92.9182 280.235 92.9834L280.81 93.6239C281.83 94.5575 282.795 95.4911 283.696 96.3814C285.367 98.0532 286.43 99.7576 286.94 101.592C287.384 103.199 287.211 104.513 286.267 108.888C285.692 111.526 284.651 115.217 283.077 120.146V120.124ZM347.063 93.6347C348.625 94.5467 349.84 96.0882 350.404 98.1075C350.415 98.1618 350.437 98.2052 350.448 98.2595C352.194 96.0774 354.039 93.8627 355.97 91.6481C355.471 91.7892 354.983 91.9303 354.494 92.0714C351.695 92.8531 349.233 93.3742 347.074 93.6347H347.063ZM115.509 95.9797C115.769 97.5104 115.823 99.3125 115.661 101.527C115.498 103.861 115.162 106.456 114.663 109.246C114.424 110.57 114.163 111.906 113.881 113.241C116.919 111.33 120.043 109.322 123.233 107.227C129.482 103.134 135.34 99.1063 140.645 95.2632C144.236 92.6685 147.371 90.2259 150.018 87.9678C149.216 88.1089 148.369 88.2609 147.491 88.4346C143.292 89.2488 138.443 90.3562 133.094 91.7132C127.616 93.1028 121.942 94.4707 116.225 95.7734L115.498 95.9797H115.509ZM294.002 205.508C291.312 206.268 288.795 206.593 286.517 206.485C285.128 206.42 283.815 206.192 282.589 205.823C282.589 205.823 282.589 205.833 282.589 205.844C281.917 207.549 280.485 208.841 278.727 209.34L274.876 210.415C273.379 210.838 271.936 210.795 270.601 210.306C269.473 209.872 267.954 208.949 266.956 206.897C266.848 206.669 266.685 206.344 266.479 205.899L266.392 205.92C266.002 206.029 265.611 206.148 265.221 206.257C265.275 206.919 265.318 207.505 265.372 208.026C265.665 210.86 263.875 213.498 261.131 214.269L256.552 215.55C255.695 215.789 254.795 215.832 253.938 215.68C253.298 216.255 252.517 216.69 251.638 216.929L232.143 222.4C231.177 222.671 230.179 222.682 229.235 222.465C228.552 223.138 227.695 223.648 226.719 223.92L222.423 225.125C220.22 225.744 217.855 225.016 216.38 223.269C216.38 223.269 216.195 223.062 215.642 222.552C215.176 222.129 214.568 221.608 213.852 221.032L213.548 220.782L213.646 222.856C213.787 225.592 212.019 228.056 209.382 228.794L205.01 230.021C204.142 230.26 203.253 230.303 202.385 230.14C201.734 230.716 200.953 231.15 200.074 231.4L180.579 236.871C178.811 237.371 176.912 237.002 175.448 235.883C173.983 234.765 173.137 233.028 173.148 231.194C173.148 230.336 173.148 229.424 173.148 228.447C173.137 227.459 173.115 226.384 173.083 225.201C173.05 224.028 173.007 222.737 172.952 221.336L172.866 218.253C172.833 217.33 172.801 216.462 172.768 215.647C172.736 214.833 172.692 214.084 172.66 213.379C172.616 212.521 172.594 211.728 172.594 211.001C172.594 208.385 174.352 206.094 176.869 205.388L196.342 199.928C197.21 199.689 198.111 199.645 198.968 199.808C199.619 199.233 200.4 198.799 201.278 198.549L206.258 197.149C208.341 196.562 210.587 197.181 212.084 198.755C212.214 198.896 212.42 199.081 212.68 199.32C213.082 199.678 213.559 200.091 214.123 200.579C214.286 200.709 214.449 200.85 214.611 200.992C214.611 200.926 214.611 200.872 214.611 200.807C214.601 200.449 214.579 200.297 214.579 200.297C214.058 197.333 215.87 194.467 218.766 193.653L223.041 192.448C224.006 192.176 225.004 192.166 225.948 192.383C226.632 191.71 227.5 191.199 228.465 190.928L247.939 185.467C248.796 185.228 249.696 185.185 250.553 185.337C251.193 184.762 251.974 184.327 252.853 184.089L265.459 180.549C267.228 180.05 268.931 179.811 270.526 179.844C272.457 179.876 274.225 180.3 275.787 181.103C275.939 181.179 276.091 181.266 276.243 181.353C277.111 180.169 278.13 179.106 279.302 178.161C280.539 177.151 281.971 176.261 283.533 175.49C285.03 174.763 286.668 174.144 288.404 173.656C290.335 173.113 292.136 172.766 293.753 172.624C295.336 172.483 296.758 172.527 298.081 172.733C298.841 171.669 299.947 170.877 301.249 170.518L306.652 168.998C309.038 168.325 311.588 169.237 313.009 171.257C313.074 171.354 313.183 171.474 313.302 171.615C313.53 171.886 313.779 172.179 314.05 172.505C314.343 171.93 314.636 171.376 314.929 170.844C315.211 170.334 315.45 169.878 315.634 169.487C315.884 168.966 316.09 168.553 316.242 168.26C316.99 166.805 318.303 165.731 319.865 165.296L325.474 163.722C327.774 163.082 330.226 163.896 331.69 165.785C333.144 167.674 333.318 170.258 332.114 172.32C331.69 173.037 331.181 173.905 330.584 174.926C329.998 175.914 329.412 176.945 328.794 178.02C328.154 179.138 327.514 180.278 326.852 181.418C326.223 182.514 325.626 183.578 325.073 184.61C324.509 185.652 324.01 186.585 323.576 187.411C323.532 187.497 323.489 187.584 323.445 187.671C323.467 188.333 323.478 188.941 323.511 189.506C323.532 190.157 323.554 190.722 323.565 191.21C323.565 191.482 323.576 191.677 323.586 191.807C323.858 194.63 322.068 197.214 319.334 197.974L314.832 199.233C312.846 199.787 310.709 199.255 309.212 197.832C308.127 196.801 307.498 195.412 307.4 193.957C307.042 195.238 306.532 196.443 305.892 197.55C305.122 198.886 304.081 200.101 302.8 201.187C301.672 202.142 300.338 203 298.851 203.738C297.463 204.422 295.868 205.019 294.013 205.54L294.002 205.508ZM448.021 161.844C446.849 162.17 445.786 162.3 444.777 162.235C443.627 162.159 442.542 161.866 441.555 161.356C441.457 161.301 441.349 161.247 441.251 161.193C440.915 160.997 440.514 160.78 440.047 160.563C439.863 160.476 439.678 160.389 439.494 160.303C439.288 162.702 437.617 164.765 435.241 165.427L430.761 166.686C429.806 166.957 428.808 166.968 427.864 166.751C427.181 167.424 426.323 167.924 425.358 168.206L421.062 169.411C418.86 170.03 416.495 169.302 415.019 167.555C415.019 167.555 414.835 167.348 414.281 166.838C413.815 166.415 413.207 165.894 412.491 165.307L412.188 165.058L412.285 167.131C412.426 169.867 410.658 172.331 408.022 173.069L403.65 174.296C402.695 174.568 401.697 174.579 400.753 174.361C400.07 175.034 399.213 175.534 398.247 175.816L393.799 177.065C393.148 177.249 392.476 177.314 391.825 177.271C391.282 177.651 390.686 177.944 390.024 178.128L386.172 179.203C384.675 179.627 383.232 179.583 381.898 179.095C380.77 178.66 379.251 177.738 378.253 175.686C378.144 175.469 377.982 175.132 377.776 174.687L377.689 174.709C377.298 174.817 376.908 174.937 376.517 175.045C376.571 175.708 376.615 176.294 376.669 176.815C376.962 179.648 375.172 182.286 372.427 183.057L367.849 184.338C366.124 184.816 364.28 184.49 362.837 183.448C362.707 183.578 362.566 183.698 362.425 183.828C361.242 184.881 359.821 185.815 358.226 186.596C356.794 187.302 355.134 187.921 353.29 188.431L341.845 191.644C340.087 192.133 338.2 191.786 336.746 190.678C335.292 189.582 334.424 187.866 334.413 186.032C334.413 185.131 334.392 184.175 334.381 183.166C334.359 182.178 334.337 181.103 334.305 179.974C334.262 178.823 334.218 177.542 334.175 176.142C334.142 175.013 333.925 168.065 333.925 168.065C333.904 167.381 333.871 166.74 333.838 166.132C333.687 163.386 335.466 160.911 338.102 160.172L348.593 157.23C350.589 156.666 352.39 156.373 354.071 156.318C356.057 156.253 357.912 156.568 359.593 157.23C359.713 157.274 359.832 157.328 359.951 157.382C360.374 155.254 361.958 153.485 364.117 152.888L376.723 149.349C378.492 148.849 380.195 148.61 381.79 148.643C383.319 148.665 384.751 148.936 386.053 149.446C386.639 147.623 388.104 146.146 390.045 145.603L394.493 144.355C395.448 144.083 396.446 144.073 397.39 144.29C398.073 143.617 398.931 143.117 399.896 142.835L404.876 141.435C406.959 140.848 409.193 141.467 410.691 143.03C410.821 143.172 411.027 143.356 411.309 143.606C411.71 143.964 412.188 144.377 412.752 144.865C412.914 144.995 413.066 145.137 413.24 145.278C413.24 145.213 413.24 145.158 413.24 145.093C413.229 144.724 413.207 144.572 413.207 144.572C412.698 141.608 414.498 138.753 417.395 137.939L421.669 136.734C422.624 136.462 423.611 136.452 424.555 136.658C425.239 135.996 426.085 135.485 427.05 135.214L431.531 133.955C433.267 133.466 435.143 133.814 436.597 134.888C436.868 135.095 437.129 135.312 437.357 135.561C437.433 135.464 437.508 135.377 437.574 135.279C438.17 134.508 438.713 133.792 439.179 133.14C439.949 132.066 441.067 131.284 442.347 130.926L448.585 129.178C451.048 128.483 453.662 129.471 455.062 131.61C456.461 133.748 456.309 136.549 454.693 138.525C454.205 139.122 453.63 139.839 452.946 140.685C452.23 141.576 451.471 142.509 450.657 143.486C449.876 144.431 449.106 145.375 448.335 146.331C448.184 146.526 448.021 146.722 447.858 146.917C447.858 146.917 447.88 146.917 447.891 146.928C448.921 147.395 449.811 147.785 450.559 148.111C451.33 148.448 451.981 148.741 452.501 148.969C452.968 149.175 453.326 149.338 453.608 149.457C455.897 150.434 457.318 152.747 457.166 155.222C457.004 157.708 455.3 159.814 452.903 160.487L448.053 161.844H448.021ZM350.133 173.341C350.448 173.232 350.73 173.124 350.99 173.004C351.327 172.852 351.468 172.744 351.5 172.722C351.5 172.722 351.511 172.711 351.522 172.711C351.533 172.624 351.554 172.494 351.554 172.32C351.066 172.462 350.589 172.592 350.111 172.733C350.111 172.939 350.122 173.145 350.133 173.352V173.341Z" fill="white"></path><path d="M252.028 23.3957C253.135 23.0808 254.491 23.146 256.107 23.5911C257.724 24.0362 259.199 24.7744 260.533 25.8166C261.868 26.8588 262.964 28.1181 263.831 29.5946C264.688 31.071 264.97 32.6017 264.667 34.1759C263.755 38.9092 262.15 44.7715 259.861 51.752C257.572 58.7434 255.022 66.321 252.245 74.4849C249.457 82.6488 246.647 90.9755 243.805 99.465C240.962 107.955 238.489 116.032 236.395 123.707C234.301 131.382 232.728 138.319 231.708 144.497C230.678 150.685 230.634 155.429 231.567 158.751C231.611 158.892 231.698 158.935 231.828 158.903C232.099 158.827 232.598 158.349 233.325 157.47C234.052 156.59 235.18 155.049 236.721 152.823C238.261 150.598 240.279 147.569 242.785 143.737C245.291 139.904 248.459 134.986 252.299 128.983C252.842 128.125 253.384 127.333 253.948 126.605C254.827 123.197 255.771 119.875 256.791 116.65C258.722 110.517 260.718 105.251 262.768 100.865C264.819 96.4796 266.609 94.0803 268.127 93.6569C268.952 93.429 269.917 93.5267 271.013 93.9718C272.109 94.4169 273.443 95.0791 275.038 95.9802L276.98 98.1188L276.655 97.7606C277.653 98.6725 278.618 99.5953 279.551 100.529C280.484 101.463 281.07 102.342 281.298 103.178C281.374 103.46 281.124 104.947 280.538 107.64C279.953 110.343 278.781 114.403 277.013 119.82L277.219 119.766L271.382 138.862C271.36 139.318 271.425 139.817 271.577 140.371C271.892 141.478 272.521 141.891 273.498 141.62C275.288 141.12 278 138.265 281.612 133.076C284.607 128.777 288.1 123.815 292.06 118.203C292.428 116.173 292.819 114.088 293.242 111.895C294.544 105.11 296.074 98.0428 297.82 90.6932C299.567 83.3436 301.498 76.5259 303.613 70.2618L307.758 57.9075C296.974 62.1197 288.273 65.6697 281.656 68.5574C281.753 68.6226 281.862 68.6768 281.96 68.7528C283.185 69.6105 284.292 70.6418 285.279 71.836C286.266 73.0302 286.95 74.2895 287.319 75.614C287.829 77.4378 287.644 79.3268 286.765 81.2592C285.887 83.2024 283.88 84.9937 280.734 86.6438C280.56 86.8067 280.224 86.9478 279.714 87.0889C278.499 87.4255 277.457 87.3169 276.579 86.7415C275.711 86.1662 274.94 85.3954 274.29 84.4292C273.639 83.463 273.118 82.4099 272.749 81.2592C272.369 80.1084 272.066 79.1314 271.838 78.3171C271.252 76.211 270.959 74.4198 270.937 72.9216C269.093 73.5947 267.477 74.1266 266.088 74.5175C261.944 75.6791 259.514 75.0169 258.819 72.5308C258.049 69.7625 258.743 67.3307 260.913 65.2246C263.083 63.1293 266.478 61.0124 271.111 58.8954C275.732 56.7785 281.569 54.4335 288.599 51.8606C295.629 49.2877 303.559 46.172 312.379 42.5026C312.694 41.5147 312.954 40.8524 313.16 40.4942C313.356 40.1468 313.497 39.8428 313.583 39.5931C313.659 39.3434 313.757 39.0177 313.866 38.616C313.974 38.2144 314.191 37.5196 314.516 36.5317L314.636 36.9442C316.176 32.3303 317.521 28.4872 318.671 25.4041C319.821 22.3209 320.874 19.824 321.828 17.9133C322.783 16.0026 323.694 14.5913 324.551 13.6794C325.409 12.7675 326.331 12.1704 327.296 11.899C328.403 11.5841 329.987 11.671 332.059 12.1269C334.131 12.5938 336.138 14.1896 338.101 16.9254L342.105 21.6261L342.257 26.9565C341.996 27.6296 341.833 28.1181 341.779 28.4329C341.714 28.7478 341.627 29.0735 341.497 29.41C341.367 29.7465 341.226 30.1591 341.063 30.6476C340.9 31.1361 340.64 31.8092 340.282 32.656C340.553 32.58 340.792 32.4823 340.976 32.352C341.161 32.2217 341.399 32.124 341.671 32.0481C347.42 29.6923 353.81 27.4885 360.851 25.4366C367.881 23.3848 374.716 21.4307 381.355 19.5743C388.678 17.5225 394.981 15.7855 400.254 14.385C405.526 12.9846 408.889 12.2246 410.354 12.1052L409.941 12.2246C412.827 11.8664 414.65 12.2464 415.409 13.3754C416.169 14.5044 416.657 15.4164 416.841 16.1112C417.264 17.631 416.603 19.2377 414.834 20.9313C413.066 22.6249 409.215 24.2967 403.27 25.9686C399.125 27.1302 394.634 28.4329 389.817 29.8551C385 31.2881 380.021 32.8297 374.9 34.4907C369.769 36.1517 364.659 37.8561 359.549 39.5822C354.44 41.3192 349.46 43.0888 344.6 44.9018L334.576 49.0597C334.098 50.5361 333.534 52.2623 332.894 54.2272C332.254 56.2031 331.636 58.244 331.028 60.3501C330.421 62.4562 329.802 64.4972 329.162 66.473C328.522 68.4489 328.034 70.1533 327.687 71.5863L325.821 77.7092C324.682 81.6066 323.13 86.1879 321.167 91.4423C319.203 96.6967 317.261 101.984 315.319 107.292C313.377 112.612 311.533 117.725 309.765 122.621C308.007 127.517 306.803 131.48 306.152 134.487C311.088 129.222 315.916 124.358 320.635 119.907C325.354 115.445 329.423 111.624 332.851 108.421C336.279 105.219 338.948 102.754 340.846 101.028C342.745 99.3022 343.417 98.5097 342.875 98.6725C343.84 98.4011 344.459 98.7485 344.73 99.7147C344.882 100.268 344.763 100.898 344.361 101.604C341.671 106.391 338.893 110.973 336.019 115.358C333.144 119.744 330.204 124.152 327.199 128.581C324.193 133.011 321.047 137.625 317.771 142.423C314.495 147.221 311.153 152.335 307.747 157.774C307.204 158.523 306.391 159.055 305.284 159.359C303.353 159.901 301.357 159.977 299.307 159.576C297.256 159.185 295.39 158.512 293.709 157.567C292.027 156.623 290.584 155.613 289.391 154.528C288.198 153.442 287.482 152.487 287.243 151.662C287.048 150.967 286.982 150.055 287.037 148.926C287.091 147.786 287.243 146.592 287.482 145.332C287.644 144.193 287.861 142.966 288.089 141.706C287.503 142.618 286.896 143.563 286.256 144.551C283.923 148.188 281.439 151.716 278.824 155.146C276.199 158.566 273.617 161.606 271.089 164.255C268.551 166.904 266.381 168.489 264.591 168.988C261.607 169.531 258.516 168.608 255.315 166.22C252.115 163.842 250.064 161.052 249.175 157.871C248.958 157.079 248.86 156.297 248.817 155.516C247.743 157.198 246.68 158.848 245.638 160.433C243.23 164.092 241.082 167.349 239.194 170.182C237.306 173.027 235.885 174.883 234.93 175.741C234.16 176.707 233.585 177.467 233.216 178.01C232.848 178.563 232.316 178.932 231.622 179.128C229.55 179.714 227.553 179.671 225.666 179.008C223.767 178.346 221.999 177.347 220.35 176.023C218.712 174.688 217.301 173.113 216.108 171.279C214.926 169.444 214.058 167.566 213.515 165.623C212.55 162.17 212.387 156.395 213.027 148.296C213.667 140.208 214.893 131.024 216.716 120.732C218.527 110.451 220.795 99.7798 223.518 88.7174C226.241 77.6549 229.192 67.4284 232.37 58.0269C235.549 48.6255 238.858 40.7221 242.286 34.317C245.714 27.9118 248.947 24.275 251.985 23.4282M102.956 79.7719C111.386 77.4052 119.197 75.3317 126.379 73.5404C133.56 71.7491 138.811 70.6852 142.153 70.3487L141.946 70.403C147.392 69.6213 151.96 69.1654 155.659 69.0351C159.348 68.894 162.396 69.1328 164.805 69.7299C167.213 70.327 169.079 71.2715 170.403 72.5416C171.726 73.8227 172.681 75.4945 173.267 77.5789C173.809 79.5222 174.015 81.4546 173.885 83.3653C173.755 85.276 173.104 87.3712 171.954 89.6402C170.804 91.9091 169.003 94.3952 166.551 97.1092C164.143 99.769 160.921 102.776 156.896 106.109C153.207 109.8 148.955 113.654 144.127 117.671C139.223 121.742 133.962 125.987 128.342 130.416C140.352 127.485 151.124 125.759 160.66 125.216C170.207 124.673 178.865 124.999 186.665 126.204L186.61 125.998C192.556 126.985 196.776 128.462 199.271 130.449C201.766 132.435 203.513 135.225 204.522 138.819C204.945 140.339 205.227 142.021 205.368 143.845C205.509 145.669 205.455 147.221 205.216 148.481C204.218 153.985 200.801 160.802 194.953 168.934C189.106 177.065 181.631 185.804 172.54 195.141C163.449 204.477 153.034 214.161 141.296 224.17C129.557 234.18 117.255 243.896 104.388 253.33C99.3003 256.999 93.7566 260.636 87.7681 264.262C81.7688 267.888 76.1709 271.167 70.9527 274.13C65.7345 277.083 61.2431 279.537 57.4678 281.491C53.6924 283.445 51.5227 284.498 50.9694 284.661C50.3185 284.986 49.4072 285.356 48.2572 285.757C47.0964 286.159 46.1743 286.452 45.4908 286.647C44.3842 286.962 42.898 287.375 41.032 287.896C39.166 288.417 36.443 288.439 32.8846 287.939C31.7021 287.972 29.9663 287.223 27.6773 285.703C25.3882 284.183 23.11 282.468 20.8643 280.557C18.6186 278.646 16.5899 276.757 14.7999 274.868C12.999 272.98 12.0118 271.699 11.8165 271.004C11.35 269.343 12.4891 267.682 15.2338 266.021C17.9677 264.36 21.1789 262.753 24.8458 261.201C28.5126 259.648 32.0818 258.161 35.5643 256.739C39.0467 255.317 41.3792 254.068 42.5617 252.982L48.5827 249.726C49.7543 249.096 50.9694 248.434 52.1628 247.793C52.716 244.699 53.4103 241.062 54.2565 236.828C55.2763 231.693 56.4046 226.113 57.6196 220.099C58.8455 214.085 60.0497 208.146 61.2431 202.295C62.4365 196.443 63.5322 191.026 64.5194 186.043C65.5066 181.06 66.2769 177.152 66.8302 174.318C69.1626 164.559 70.9635 157.003 72.222 151.651C73.4804 146.299 74.4351 142.26 75.0969 139.535C75.7478 136.81 76.2251 135.041 76.518 134.216C76.811 133.391 77.0605 132.576 77.2883 131.762L77.31 132.652C79.0458 124.999 80.7382 118.257 82.3872 112.427C84.0362 106.598 85.6418 101.962 87.2148 98.5314C86.8026 98.6508 85.913 98.6725 84.5461 98.6074C83.19 98.5422 81.7905 98.3685 80.3802 98.0971C78.959 97.8257 77.6463 97.4132 76.4529 96.8487C75.2487 96.295 74.5219 95.5242 74.2398 94.558C73.9252 93.4507 74.2941 92.2348 75.3355 90.8886C76.377 89.5533 78.4925 87.914 81.6712 85.9708C85.0885 84.8634 88.5926 83.7995 92.1944 82.8007C95.7853 81.7911 99.3762 80.7815 102.978 79.7719M104.019 126.703L108.619 123.175L108.467 123.446C114.087 120.081 120.076 116.314 126.444 112.134C132.801 107.965 138.681 103.927 144.084 100.019C149.475 96.1213 153.858 92.5713 157.211 89.3904C160.574 86.2096 162.017 83.7887 161.55 82.1277C161.322 81.2917 159.803 80.9769 157.026 81.1615C154.238 81.346 150.69 81.8563 146.384 82.6922C142.066 83.5281 137.162 84.6463 131.662 86.0359C126.162 87.4363 120.542 88.7825 114.792 90.0961L107.328 92.1914C107.795 92.8102 108.25 93.4941 108.695 94.2757C109.14 95.0465 109.433 95.7088 109.585 96.2624C109.899 97.3698 109.975 98.9873 109.823 101.115C109.672 103.254 109.368 105.61 108.901 108.204C108.435 110.799 107.871 113.459 107.22 116.173C106.569 118.898 105.831 121.481 105.039 123.946L104.019 126.692M68.7178 238.739C71.7555 237.046 74.7497 235.374 77.6355 233.734C82.2678 231.096 86.5097 228.556 90.3827 226.124C94.2556 223.692 97.3475 221.554 99.6583 219.719C103.596 217.276 108.099 214.182 113.165 210.448C118.231 206.713 123.46 202.751 128.852 198.549C134.233 194.348 139.603 190.093 144.952 185.75C150.3 181.418 155.225 177.315 159.738 173.428C164.24 169.553 168.157 166.068 171.466 162.974C174.775 159.88 177.172 157.535 178.658 155.917C180.817 153.518 182.249 151.444 182.954 149.675C183.649 147.916 183.833 146.407 183.475 145.159C182.976 143.367 181.403 142.043 178.789 141.207C176.163 140.371 173.158 139.872 169.752 139.709C166.356 139.546 162.754 139.622 158.968 139.937C155.182 140.252 151.916 140.577 149.172 140.892L149.378 140.838C146.709 141.435 143.422 142.217 139.516 143.161C135.6 144.106 131.369 145.224 126.802 146.505C122.929 147.59 119.012 148.763 115.042 150.033C111.071 151.292 107.469 152.53 104.226 153.735C100.982 154.951 98.2913 155.993 96.165 156.894C94.0278 157.795 92.9321 158.403 92.867 158.718L91.8906 159.217L91.9449 159.424C92.0967 159.977 91.8255 161.4 91.1204 163.679C90.4152 165.97 89.6992 168.478 88.9832 171.214L85.0668 185.967C82.6584 193.36 80.1849 201.405 77.6246 210.1C75.0643 218.807 72.5691 226.928 70.139 234.473C69.6617 235.938 69.1952 237.339 68.7287 238.717M399.06 51.5458C400.991 51.003 403.172 52.1103 405.58 54.8678L405.526 54.6615C408.097 56.9304 409.833 59.6445 410.723 62.8254C411.113 64.2149 411.352 65.3331 411.449 66.2016C411.547 67.0701 411.298 68.0363 410.69 69.1002C410.093 70.1641 408.954 71.4126 407.273 72.8565C405.591 74.3003 403.226 76.2653 400.199 78.7622C396.793 81.5089 393.777 84.1903 391.151 86.785C388.526 89.3905 386.031 92.0611 383.666 94.8186C381.312 97.576 378.925 100.366 376.506 103.21C374.097 106.055 371.537 109.04 368.847 112.188C371.635 110.962 374.184 109.941 376.495 109.149C378.806 108.356 380.997 107.661 383.069 107.075C385.282 106.456 387.561 105.816 389.915 105.154C392.269 104.491 394.471 104.133 396.543 104.079C398.615 104.025 400.46 104.47 402.065 105.436C403.682 106.402 404.832 108.128 405.526 110.625C405.917 112.015 405.841 113.339 405.298 114.609C404.756 115.88 403.66 116.748 402 117.215C398.659 118.604 395.285 120.255 391.868 122.187C388.45 124.119 385.12 126.171 381.854 128.353C378.589 130.535 375.508 132.707 372.6 134.867C369.704 137.027 367.067 138.96 364.713 140.664C363.618 142.608 362.175 144.247 360.385 145.571C358.595 146.896 357.141 147.71 356.034 148.025C354.092 148.568 351.89 148.144 349.417 146.744L349.037 146.179C348.147 145.68 347.225 145.05 346.26 144.269C345.294 143.498 344.318 142.651 343.309 141.739L341.725 139.275C340.336 138.026 339.382 136.495 338.883 134.704C338.384 132.913 338.351 130.937 338.796 128.798C339.241 126.66 339.881 124.575 340.738 122.545C341.584 120.515 342.56 118.68 343.667 117.019C344.773 115.369 345.641 114.077 346.271 113.155C348.353 110.484 350.686 107.477 353.257 104.144C355.828 100.811 358.616 97.4566 361.621 94.0695C364.626 90.6932 367.762 87.3821 371.038 84.1578C374.304 80.9335 377.775 78.1326 381.431 75.7551C380.498 76.1676 379.044 76.7973 377.048 77.6549C375.052 78.5126 372.709 79.4679 370.018 80.5209C367.328 81.574 364.496 82.627 361.513 83.6909C358.53 84.7549 355.655 85.6668 352.888 86.4484C348.744 87.61 345.489 88.1203 343.135 87.9574C340.781 87.8055 338.959 87.3061 337.678 86.4593C336.398 85.6234 335.563 84.6246 335.161 83.4738C334.76 82.3231 334.445 81.3243 334.218 80.4884C333.089 76.4716 334.608 73.8878 338.752 72.7262C341.291 72.0097 344.329 72.0748 347.865 72.8999C348.484 72.9976 349.352 72.9216 350.48 72.6828C351.673 72.4222 353.008 72.1291 354.483 71.7817C355.958 71.4452 357.38 71.0761 358.768 70.6961C360.146 70.3053 361.328 69.9796 362.294 69.7082C364.919 68.97 367.74 67.9929 370.756 66.777C373.772 65.5611 376.723 64.2475 379.609 62.8362C382.494 61.4358 385.174 60.0787 387.647 58.7869C390.121 57.495 392.085 56.2791 393.549 55.1175L396.522 52.9462C397.368 52.2623 398.214 51.7955 399.049 51.5675M289.933 179.28C291.528 178.835 292.949 178.552 294.219 178.444C295.477 178.335 296.584 178.379 297.527 178.574C298.471 178.77 299.274 179.095 299.936 179.54C300.598 179.985 301.097 180.517 301.433 181.147C301.758 181.766 301.921 182.471 301.921 183.253C301.954 183.383 301.975 183.503 301.965 183.59C301.965 183.687 301.954 183.796 301.954 183.915C301.737 183.98 301.433 184.056 301.053 184.154C300.673 184.252 300.283 184.36 299.882 184.469C299.48 184.578 299.057 184.697 298.656 184.816C298.254 184.936 297.929 185.034 297.668 185.12C297.679 185.044 297.69 184.979 297.69 184.936C297.69 184.892 297.69 184.827 297.69 184.762C297.69 184.697 297.69 184.621 297.679 184.578C297.658 183.774 297.375 183.166 296.833 182.775C296.301 182.385 295.499 182.189 294.436 182.2C293.372 182.2 291.984 182.45 290.27 182.938C289.13 183.253 288.111 183.655 287.21 184.132C286.31 184.61 285.572 185.186 284.975 185.859C284.39 186.532 283.945 187.302 283.663 188.182C283.37 189.061 283.229 190.06 283.24 191.178C283.283 192.437 283.5 193.49 283.901 194.348C284.292 195.206 284.845 195.846 285.54 196.27C286.234 196.693 287.102 196.91 288.154 196.932C289.196 196.954 290.432 196.769 291.832 196.378C293.123 196.02 294.186 195.586 295.021 195.086C295.857 194.587 296.518 194.022 297.007 193.371C297.495 192.731 297.788 191.971 297.896 191.102C297.95 190.679 297.972 190.223 297.972 189.734C297.571 189.843 297.169 189.962 296.714 190.082C296.106 190.255 295.455 190.429 294.794 190.624C294.121 190.809 293.47 191.004 292.83 191.2C292.19 191.395 291.582 191.58 291.018 191.732C290.454 191.895 289.933 192.047 289.467 192.199C289.489 192.079 289.499 191.949 289.488 191.797C289.478 191.645 289.478 191.493 289.467 191.341C289.467 191.189 289.467 191.08 289.456 191.004C289.445 190.7 289.434 190.407 289.423 190.114C289.423 189.832 289.402 189.582 289.38 189.365C290.628 189.039 291.843 188.703 293.036 188.366C294.229 188.03 295.271 187.737 296.182 187.487C296.703 187.346 297.278 187.183 297.907 186.998C298.536 186.825 299.198 186.64 299.892 186.445C300.587 186.249 301.292 186.054 301.997 185.859C302.095 187.042 302.149 188.149 302.16 189.181C302.16 190.212 302.051 191.178 301.823 192.09C301.585 193.002 301.248 193.827 300.815 194.587C300.37 195.347 299.773 196.053 299.003 196.693C298.233 197.334 297.321 197.931 296.258 198.452C295.195 198.973 293.915 199.451 292.418 199.863C290.324 200.449 288.447 200.71 286.798 200.623C285.149 200.547 283.739 200.156 282.578 199.461C281.417 198.767 280.517 197.768 279.898 196.465C279.269 195.162 278.922 193.566 278.835 191.678C278.813 190.418 278.944 189.257 279.258 188.182C279.562 187.107 280.028 186.108 280.647 185.186C281.265 184.263 282.025 183.427 282.936 182.699C283.847 181.961 284.889 181.31 286.06 180.734C287.243 180.159 288.534 179.671 289.944 179.28M450.125 134.802C449.626 135.41 449.029 136.148 448.346 137.017C447.651 137.885 446.914 138.786 446.122 139.741C445.33 140.697 444.538 141.663 443.757 142.629C442.976 143.606 442.195 144.54 441.413 145.441C440.632 146.342 439.916 147.189 439.244 147.949C438.897 148.35 438.571 148.698 438.278 149.024C438.549 149.132 438.821 149.23 439.103 149.349C439.526 149.523 439.971 149.718 440.448 149.925C440.925 150.131 441.413 150.348 441.902 150.576C443.247 151.227 444.44 151.792 445.482 152.259C446.523 152.725 447.424 153.127 448.172 153.453C448.921 153.789 449.561 154.061 450.06 154.289C450.57 154.517 450.971 154.701 451.286 154.832L446.426 156.189C445.905 156.33 445.471 156.395 445.135 156.373C444.798 156.351 444.484 156.275 444.212 156.134C443.713 155.841 443.149 155.548 442.531 155.255C441.902 154.962 441.24 154.647 440.546 154.31C439.84 153.974 439.157 153.659 438.473 153.355C437.79 153.062 437.139 152.769 436.499 152.498C435.859 152.226 435.251 151.976 434.676 151.759C434.297 151.618 433.971 151.499 433.678 151.39L433.342 151.488C433.342 151.781 433.364 152.085 433.375 152.378C433.396 153.279 433.418 154.148 433.44 154.984C433.461 155.82 433.494 156.623 433.537 157.405C433.57 158.186 433.613 158.979 433.667 159.804L429.187 161.063C429.176 160.249 429.165 159.467 429.165 158.707C429.165 157.947 429.144 157.177 429.133 156.395C429.111 155.613 429.089 154.777 429.068 153.887C429.046 152.997 429.013 152.009 428.981 150.934C428.948 149.859 428.916 148.861 428.883 147.96C428.851 147.059 428.818 146.212 428.796 145.419C428.775 144.627 428.742 143.867 428.71 143.139C428.677 142.412 428.645 141.652 428.601 140.86L433.082 139.6C433.103 140.371 433.103 141.142 433.082 141.891C433.071 142.651 433.082 143.433 433.114 144.247C433.147 145.061 433.179 145.897 433.212 146.755C433.234 147.547 433.244 148.405 433.244 149.295L433.483 149.23C433.602 149.1 433.722 148.969 433.841 148.828C434.438 148.177 435.034 147.493 435.653 146.776C436.271 146.06 436.857 145.343 437.41 144.627C438.387 143.519 439.255 142.488 440.036 141.544C440.806 140.588 441.522 139.698 442.162 138.873C442.802 138.037 443.377 137.277 443.887 136.571L450.125 134.824M423.22 142.358C423.22 142.955 423.22 143.617 423.231 144.345C423.231 145.072 423.253 145.864 423.285 146.7C423.318 147.547 423.34 148.437 423.361 149.393C423.383 150.348 423.415 151.358 423.437 152.432C423.491 154.647 423.557 156.536 423.611 158.121C423.665 159.706 423.719 161.182 423.773 162.539L419.477 163.745C419.206 163.419 418.783 163.006 418.219 162.485C417.644 161.964 416.961 161.389 416.169 160.737C415.377 160.097 414.52 159.402 413.619 158.675C412.719 157.936 411.818 157.22 410.918 156.525C410.017 155.83 409.149 155.157 408.314 154.495C407.869 154.137 407.414 153.735 406.947 153.312C406.492 152.888 406.068 152.465 405.7 152.031C405.71 152.183 405.732 152.335 405.743 152.487C405.797 153.192 405.841 153.887 405.884 154.582C405.927 155.277 405.949 155.971 405.971 156.677C406.014 158.045 406.058 159.293 406.112 160.433C406.166 161.573 406.22 162.594 406.253 163.506C406.285 164.407 406.318 165.188 406.351 165.84C406.383 166.491 406.405 167.012 406.426 167.403L402.054 168.63C402.033 167.273 402.011 165.796 401.957 164.179C401.913 162.561 401.859 160.672 401.794 158.523C401.751 157.09 401.718 155.765 401.686 154.56C401.653 153.355 401.621 152.248 401.588 151.249C401.555 150.25 401.512 149.306 401.458 148.437L406.437 147.037C406.643 147.254 406.958 147.547 407.381 147.927C407.804 148.307 408.314 148.752 408.922 149.273C409.529 149.794 410.191 150.337 410.907 150.902C411.623 151.466 412.361 152.063 413.12 152.671C413.879 153.279 414.628 153.876 415.355 154.452C416.082 155.027 416.744 155.559 417.34 156.069C417.72 156.384 418.089 156.721 418.469 157.101C418.848 157.47 419.195 157.85 419.51 158.24C419.575 158.316 419.618 158.425 419.684 158.501L419.749 158.447C419.727 158.262 419.705 158.078 419.684 157.893C419.618 157.242 419.564 156.59 419.521 155.939C419.477 155.288 419.445 154.658 419.434 154.05C419.423 153.225 419.401 152.378 419.369 151.531C419.336 150.685 419.293 149.849 419.239 149.045C419.185 148.242 419.141 147.482 419.119 146.776C419.098 146.071 419.065 145.441 419.054 144.898C419.033 144.355 419 143.91 418.935 143.563L423.209 142.358M396.055 149.979C396.055 150.761 396.055 151.51 396.066 152.259C396.066 152.997 396.088 153.768 396.098 154.571C396.12 155.374 396.131 156.221 396.153 157.122C396.174 158.023 396.196 159.011 396.229 160.086C396.261 161.161 396.294 162.138 396.326 163.017C396.359 163.897 396.391 164.732 396.413 165.547C396.435 166.361 396.457 167.132 396.5 167.87C396.532 168.608 396.587 169.379 396.641 170.182L392.193 171.431C392.171 170.638 392.16 169.867 392.15 169.107C392.15 168.348 392.128 167.577 392.117 166.795C392.095 166.013 392.074 165.178 392.063 164.276C392.041 163.375 392.019 162.387 391.987 161.313C391.954 160.238 391.922 159.25 391.889 158.338C391.857 157.437 391.824 156.59 391.792 155.798C391.759 155.005 391.737 154.245 391.716 153.507C391.705 152.769 391.661 152.009 391.607 151.227L396.055 149.979ZM378.263 154.962C379.489 154.614 380.617 154.452 381.659 154.473C382.7 154.495 383.59 154.69 384.339 155.081C385.087 155.472 385.673 156.026 386.096 156.775C386.519 157.513 386.758 158.447 386.79 159.554C386.779 160.412 386.628 161.193 386.335 161.91C386.042 162.626 385.597 163.278 384.989 163.875C384.382 164.472 383.59 165.015 382.624 165.492C382.256 165.677 381.822 165.851 381.388 166.024V166.176C381.616 166.144 381.854 166.1 382.039 166.079C382.852 165.981 383.525 165.992 384.056 166.122C384.588 166.252 385.065 166.535 385.488 166.969C385.912 167.403 386.302 168.022 386.671 168.825C386.921 169.39 387.148 169.911 387.354 170.389C387.561 170.866 387.756 171.279 387.94 171.637C388.125 171.995 388.277 172.277 388.407 172.495L384.556 173.569C384.273 173.645 384.056 173.656 383.905 173.602C383.753 173.548 383.612 173.385 383.482 173.124C383.351 172.864 383.156 172.44 382.885 171.865C382.603 171.181 382.342 170.606 382.104 170.128C381.865 169.65 381.616 169.27 381.377 168.977C381.127 168.684 380.834 168.478 380.498 168.369C380.162 168.261 379.75 168.228 379.283 168.293C378.817 168.358 378.22 168.489 377.493 168.684C376.994 168.825 376.517 168.956 376.083 169.075C375.649 169.194 375.204 169.325 374.77 169.455C374.325 169.585 373.88 169.715 373.414 169.846C372.947 169.976 372.448 170.117 371.895 170.269C371.429 170.399 370.908 170.54 370.387 170.692C370.431 171.865 370.496 172.994 370.561 174.014C370.648 175.361 370.745 176.501 370.832 177.412L366.254 178.694C366.254 177.706 366.232 176.707 366.2 175.708C366.167 174.709 366.156 173.635 366.145 172.462C366.145 171.3 366.102 169.998 366.048 168.565C365.993 166.426 365.928 164.58 365.863 163.006C365.798 161.443 365.733 159.934 365.668 158.49L378.274 154.951M375.475 165.872C376.343 165.633 377.211 165.384 378.079 165.145C379.153 164.841 380.021 164.494 380.672 164.092C381.333 163.69 381.811 163.223 382.115 162.702C382.418 162.17 382.559 161.617 382.538 161.02C382.538 160.368 382.429 159.836 382.212 159.424C381.995 159.011 381.691 158.718 381.29 158.544C380.889 158.371 380.4 158.284 379.815 158.306C379.229 158.327 378.567 158.436 377.808 158.653C377.526 158.729 377.146 158.838 376.69 158.968C376.235 159.098 375.725 159.239 375.182 159.402C374.64 159.565 374.076 159.728 373.501 159.901C372.926 160.075 372.372 160.238 371.83 160.401C371.298 160.564 370.799 160.705 370.355 160.846C370.257 160.878 370.181 160.9 370.094 160.933C370.127 162.116 370.159 163.299 370.181 164.483C370.203 165.449 370.235 166.383 370.257 167.305C370.496 167.24 370.778 167.164 371.147 167.067C371.689 166.925 372.329 166.752 373.067 166.556C373.804 166.361 374.607 166.133 375.475 165.894M350.143 162.854C351.673 162.431 353.029 162.192 354.223 162.16C355.416 162.127 356.479 162.29 357.412 162.659C358.345 163.028 359.126 163.582 359.745 164.309C360.363 165.036 360.84 165.97 361.177 167.088C361.513 168.206 361.697 169.531 361.741 171.051C361.784 172.256 361.708 173.363 361.502 174.373C361.296 175.393 360.949 176.316 360.45 177.141C359.951 177.966 359.3 178.737 358.519 179.432C357.727 180.137 356.772 180.756 355.644 181.31C354.516 181.864 353.192 182.352 351.684 182.775L340.239 185.989C340.239 185.066 340.228 184.089 340.206 183.069C340.184 182.037 340.163 180.941 340.13 179.779C340.087 178.618 340.043 177.326 339.989 175.903C339.957 174.829 339.924 173.808 339.902 172.864C339.87 171.908 339.848 171.029 339.816 170.193C339.794 169.368 339.772 168.586 339.74 167.848C339.718 167.11 339.685 166.426 339.653 165.785L350.143 162.843M348.592 179.899C348.744 179.855 348.885 179.812 349.037 179.768C349.644 179.584 350.306 179.399 351.011 179.204C351.879 178.954 352.671 178.683 353.376 178.368C354.082 178.053 354.689 177.684 355.199 177.271C355.709 176.859 356.132 176.381 356.479 175.849C356.826 175.317 357.076 174.709 357.228 174.014C357.38 173.32 357.434 172.549 357.39 171.691C357.369 170.649 357.26 169.77 357.076 169.053C356.881 168.337 356.598 167.75 356.219 167.284C355.839 166.817 355.373 166.491 354.819 166.307C354.266 166.122 353.648 166.046 352.964 166.079C352.281 166.122 351.478 166.263 350.556 166.524C349.243 166.893 347.995 167.24 346.813 167.588C345.902 167.848 345.034 168.12 344.177 168.38C344.177 168.945 344.198 169.498 344.209 170.095C344.231 170.866 344.242 171.659 344.263 172.451C344.274 173.255 344.318 174.036 344.361 174.796C344.383 175.893 344.405 176.859 344.426 177.673C344.448 178.487 344.47 179.225 344.502 179.877C344.524 180.235 344.535 180.572 344.546 180.897C344.914 180.81 345.272 180.724 345.62 180.637C346.216 180.485 346.791 180.344 347.334 180.224C347.746 180.127 348.169 180.018 348.614 179.899M327.036 169.335C326.624 170.052 326.114 170.91 325.517 171.919C324.92 172.929 324.313 173.982 323.684 175.089C323.054 176.197 322.414 177.326 321.752 178.466C321.091 179.605 320.483 180.713 319.897 181.777C319.322 182.841 318.802 183.807 318.357 184.664C318.021 185.316 317.749 185.848 317.511 186.315C317.532 186.792 317.543 187.281 317.554 187.737C317.576 188.442 317.597 189.105 317.619 189.713C317.641 190.32 317.663 190.852 317.673 191.308C317.673 191.764 317.695 192.09 317.717 192.285L317.088 192.459L316.285 192.687C316.003 192.763 315.731 192.839 315.482 192.915L314.712 193.132L313.941 193.349C313.692 193.425 313.442 193.49 313.215 193.556C313.258 193.339 313.28 193.013 313.269 192.546C313.269 192.09 313.236 191.558 313.215 190.95C313.193 190.342 313.171 189.68 313.149 188.974C313.139 188.497 313.128 187.986 313.117 187.487C312.867 187.161 312.585 186.814 312.249 186.391C311.761 185.783 311.208 185.11 310.6 184.371C309.982 183.633 309.309 182.873 308.582 182.102C307.855 181.332 307.15 180.572 306.467 179.823C305.783 179.073 305.121 178.379 304.481 177.727C303.841 177.087 303.266 176.555 302.767 176.131L308.17 174.612C308.322 174.818 308.528 175.089 308.799 175.404C309.07 175.719 309.374 176.077 309.71 176.49C310.047 176.902 310.405 177.336 310.763 177.792C311.132 178.248 311.479 178.704 311.826 179.139C312.173 179.573 312.477 179.985 312.726 180.365C313.182 180.886 313.562 181.353 313.876 181.766C314.191 182.178 314.462 182.547 314.701 182.873C314.777 182.971 314.809 183.058 314.874 183.155L315.189 183.069C315.232 182.971 315.265 182.884 315.308 182.775C315.482 182.341 315.71 181.842 315.992 181.277C316.274 180.724 316.599 180.072 316.968 179.334C317.283 178.791 317.619 178.194 317.955 177.532C318.292 176.881 318.639 176.218 318.975 175.545C319.312 174.883 319.648 174.242 319.984 173.635C320.32 173.027 320.603 172.484 320.83 172.017C321.058 171.55 321.243 171.17 321.384 170.899L326.992 169.325M266.988 186.184C268.214 185.837 269.342 185.674 270.384 185.696C271.425 185.717 272.315 185.913 273.064 186.304C273.812 186.695 274.398 187.248 274.821 187.997C275.244 188.735 275.483 189.669 275.515 190.776C275.505 191.634 275.353 192.416 275.06 193.132C274.767 193.849 274.322 194.5 273.715 195.097C273.107 195.694 272.315 196.237 271.35 196.715C270.981 196.899 270.547 197.073 270.113 197.247V197.399C270.341 197.366 270.579 197.323 270.764 197.301C271.577 197.203 272.25 197.214 272.782 197.344C273.313 197.475 273.79 197.757 274.214 198.191C274.637 198.625 275.027 199.244 275.396 200.048C275.646 200.612 275.873 201.133 276.08 201.611C276.286 202.089 276.481 202.501 276.665 202.859C276.85 203.218 277.002 203.5 277.132 203.717L273.281 204.792C272.999 204.868 272.782 204.879 272.63 204.824C272.478 204.77 272.337 204.607 272.207 204.347C272.076 204.086 271.881 203.663 271.61 203.087C271.328 202.403 271.067 201.828 270.829 201.35C270.59 200.873 270.341 200.493 270.102 200.2C269.852 199.907 269.559 199.7 269.223 199.592C268.887 199.483 268.475 199.451 268.008 199.516C267.542 199.581 266.945 199.711 266.218 199.906C265.719 200.048 265.242 200.178 264.808 200.297C264.374 200.417 263.929 200.547 263.495 200.677C263.05 200.808 262.605 200.938 262.139 201.068C261.672 201.198 261.173 201.34 260.62 201.492L259.112 201.915C259.156 203.087 259.221 204.216 259.286 205.237C259.373 206.583 259.47 207.723 259.557 208.635L254.979 209.916C254.979 208.928 254.957 207.929 254.925 206.93C254.892 205.932 254.881 204.857 254.87 203.684C254.87 202.523 254.827 201.22 254.773 199.787C254.718 197.648 254.653 195.803 254.588 194.229C254.523 192.665 254.458 191.156 254.393 189.713L266.999 186.173M264.2 197.095C265.068 196.856 265.936 196.606 266.804 196.367C267.878 196.063 268.746 195.716 269.397 195.314C270.059 194.913 270.536 194.446 270.84 193.925C271.143 193.393 271.284 192.839 271.263 192.242C271.263 191.591 271.154 191.059 270.937 190.646C270.72 190.234 270.417 189.941 270.015 189.767C269.614 189.593 269.126 189.506 268.54 189.528C267.954 189.55 267.292 189.658 266.533 189.875L265.415 190.19C264.949 190.32 264.45 190.462 263.907 190.624C263.365 190.787 262.801 190.95 262.226 191.124C261.651 191.298 261.098 191.46 260.555 191.623C260.023 191.786 259.524 191.927 259.08 192.068C258.982 192.101 258.906 192.123 258.819 192.155C258.852 193.339 258.884 194.522 258.906 195.705C258.928 196.671 258.96 197.605 258.982 198.528C259.221 198.463 259.503 198.387 259.872 198.289C260.414 198.148 261.054 197.974 261.792 197.779C262.53 197.583 263.332 197.355 264.2 197.116M249.489 191.091C249.489 191.308 249.489 191.569 249.489 191.873C249.489 192.177 249.489 192.481 249.468 192.774C249.489 193.1 249.5 193.436 249.522 193.805C249.544 194.174 249.555 194.435 249.565 194.598C248.546 194.88 247.461 195.184 246.332 195.488C245.768 195.64 245.193 195.803 244.629 195.955C244.065 196.118 243.49 196.281 242.926 196.443C241.787 196.769 240.669 197.095 239.574 197.399C238.478 197.703 237.437 197.996 236.471 198.267C235.766 198.463 235.115 198.647 234.507 198.821C234.507 199.06 234.507 199.266 234.507 199.516C234.507 200.178 234.529 200.851 234.572 201.535C234.616 202.219 234.638 202.87 234.659 203.478C234.659 203.576 234.659 203.652 234.659 203.75C235.408 203.543 236.189 203.326 237.024 203.098C237.567 202.957 238.109 202.805 238.652 202.653C239.194 202.501 239.758 202.338 240.311 202.175C241.429 201.85 242.535 201.535 243.631 201.22C244.727 200.905 245.768 200.601 246.745 200.319C247.721 200.037 248.622 199.765 249.435 199.494C249.435 199.744 249.435 200.08 249.457 200.504C249.479 200.927 249.489 201.35 249.511 201.763C249.533 202.186 249.533 202.534 249.511 202.805C248.676 203.001 247.775 203.239 246.81 203.511C245.833 203.782 244.803 204.064 243.707 204.368C242.611 204.662 241.505 204.976 240.387 205.291C239.27 205.606 238.163 205.91 237.1 206.203C236.265 206.431 235.484 206.648 234.724 206.854C234.724 207.006 234.724 207.158 234.735 207.31C234.757 208.049 234.779 208.765 234.8 209.46C234.822 210.166 234.833 210.828 234.844 211.468C234.844 211.609 234.844 211.729 234.844 211.859C235.462 211.685 236.113 211.501 236.84 211.295C237.838 211.012 238.89 210.719 240.008 210.404C241.125 210.09 242.253 209.775 243.392 209.46C244.532 209.145 245.649 208.819 246.756 208.494C247.862 208.168 248.914 207.864 249.913 207.582C249.913 207.821 249.913 208.114 249.913 208.461C249.913 208.819 249.913 209.167 249.923 209.525C249.945 209.807 249.967 210.111 249.988 210.437C250.01 210.763 250.021 211.045 250.032 211.284L230.537 216.755C230.537 215.865 230.537 214.921 230.526 213.911C230.515 212.901 230.493 211.794 230.461 210.589C230.428 209.384 230.385 208.07 230.331 206.637C230.298 205.563 230.276 204.553 230.244 203.608C230.211 202.664 230.179 201.774 230.146 200.938C230.114 200.102 230.07 199.32 230.027 198.593C229.983 197.876 229.973 197.192 229.973 196.563L249.446 191.102M224.592 198.083C224.592 198.68 224.592 199.342 224.603 200.069C224.603 200.797 224.624 201.589 224.657 202.425C224.689 203.272 224.711 204.162 224.733 205.117C224.754 206.073 224.787 207.082 224.809 208.157C224.863 210.372 224.928 212.261 224.982 213.846C225.036 215.431 225.091 216.907 225.145 218.264L220.849 219.469C220.578 219.144 220.155 218.731 219.59 218.21C219.015 217.689 218.332 217.114 217.54 216.462C216.748 215.822 215.891 215.127 214.991 214.4C214.09 213.661 213.19 212.945 212.289 212.25C211.389 211.555 210.521 210.882 209.686 210.22C209.241 209.862 208.785 209.46 208.319 209.037C207.863 208.613 207.44 208.19 207.06 207.756C207.071 207.908 207.093 208.059 207.104 208.211C207.158 208.917 207.201 209.612 207.245 210.307C207.288 211.002 207.31 211.696 207.331 212.402C207.375 213.77 207.418 215.018 207.472 216.158C207.527 217.298 207.581 218.319 207.614 219.231C207.646 220.132 207.679 220.913 207.711 221.565C207.744 222.216 207.765 222.737 207.787 223.128L203.415 224.355C203.393 222.998 203.372 221.521 203.317 219.904C203.274 218.286 203.22 216.397 203.155 214.248C203.111 212.815 203.079 211.49 203.046 210.285C203.014 209.08 202.981 207.973 202.949 206.974C202.916 205.975 202.873 205.031 202.818 204.162L207.798 202.762C208.004 202.979 208.319 203.272 208.742 203.652C209.165 204.032 209.675 204.477 210.282 204.998C210.89 205.519 211.552 206.062 212.268 206.626C212.984 207.191 213.721 207.788 214.481 208.396C215.24 209.004 215.989 209.601 216.716 210.176C217.442 210.752 218.104 211.284 218.701 211.794C219.081 212.109 219.449 212.445 219.829 212.825C220.209 213.194 220.556 213.574 220.871 213.965C220.936 214.041 220.979 214.15 221.044 214.226L221.109 214.172C221.088 213.987 221.066 213.802 221.044 213.618C220.979 212.967 220.925 212.315 220.881 211.664C220.838 211.012 220.806 210.383 220.795 209.775C220.784 208.95 220.762 208.103 220.73 207.256C220.697 206.409 220.654 205.573 220.599 204.77C220.545 203.967 220.502 203.207 220.48 202.501C220.458 201.795 220.426 201.166 220.415 200.623C220.393 200.08 220.361 199.635 220.296 199.288L224.57 198.083M197.904 205.563C197.904 205.78 197.904 206.04 197.904 206.344C197.915 206.648 197.904 206.952 197.882 207.245C197.904 207.571 197.915 207.908 197.936 208.277C197.958 208.646 197.969 208.906 197.98 209.069C196.96 209.351 195.875 209.655 194.747 209.959C194.183 210.111 193.608 210.274 193.044 210.426C192.48 210.578 191.905 210.752 191.34 210.915C190.201 211.24 189.084 211.566 187.988 211.87C186.893 212.174 185.851 212.467 184.886 212.739C184.18 212.934 183.529 213.118 182.922 213.292C182.922 213.531 182.922 213.737 182.922 213.987C182.922 214.649 182.944 215.322 182.987 216.006C183.03 216.69 183.052 217.342 183.074 217.949C183.074 218.047 183.074 218.123 183.074 218.221C183.822 218.015 184.603 217.798 185.439 217.57C185.981 217.428 186.524 217.276 187.066 217.124C187.609 216.972 188.173 216.81 188.726 216.647C189.843 216.321 190.95 216.006 192.046 215.691C193.141 215.377 194.183 215.073 195.159 214.79C196.136 214.508 197.036 214.237 197.85 213.965C197.85 214.215 197.85 214.552 197.871 214.975C197.893 215.398 197.904 215.822 197.926 216.234C197.947 216.658 197.947 217.005 197.926 217.276C197.09 217.472 196.19 217.711 195.224 217.982C194.259 218.253 193.217 218.536 192.122 218.84C191.026 219.133 189.919 219.448 188.802 219.762C187.674 220.077 186.578 220.381 185.515 220.674C184.679 220.902 183.898 221.119 183.139 221.326C183.139 221.478 183.139 221.63 183.15 221.782C183.171 222.52 183.193 223.236 183.215 223.931C183.237 224.637 183.247 225.299 183.258 225.94C183.258 226.081 183.258 226.2 183.258 226.33C183.877 226.157 184.528 225.972 185.254 225.766C186.252 225.484 187.305 225.191 188.422 224.876C189.54 224.561 190.668 224.246 191.807 223.931C192.946 223.616 194.064 223.291 195.17 222.965C196.277 222.639 197.329 222.335 198.327 222.053C198.327 222.292 198.327 222.585 198.327 222.932C198.327 223.291 198.327 223.638 198.338 223.996C198.36 224.279 198.381 224.583 198.403 224.908C198.425 225.234 198.436 225.516 198.446 225.755L178.951 231.227C178.951 230.336 178.951 229.392 178.94 228.382C178.93 227.373 178.908 226.265 178.875 225.06C178.843 223.855 178.799 222.542 178.745 221.109C178.713 220.034 178.691 219.024 178.658 218.08C178.626 217.135 178.593 216.245 178.561 215.409C178.528 214.573 178.485 213.792 178.441 213.064C178.398 212.348 178.387 211.664 178.387 211.034L197.861 205.573M248.871 12.1161C240.474 14.4719 235.223 22.7443 232.012 28.7586C228.302 35.6957 224.711 44.2721 221.337 54.2381C218.061 63.9218 214.991 74.5718 212.203 85.8948C209.436 97.1418 207.093 108.172 205.238 118.67C205.151 119.158 205.064 119.647 204.977 120.135C200.952 117.443 195.658 115.608 188.498 114.425C187.695 114.295 186.893 114.24 186.101 114.273C180.025 113.469 173.473 113.133 166.54 113.252C170.012 110.267 172.865 107.531 175.198 104.958C178.376 101.43 180.72 98.1623 182.358 94.938C184.224 91.2686 185.287 87.6535 185.536 84.1903C185.764 80.9443 185.428 77.6549 184.517 74.4089C183.367 70.3161 181.349 66.8421 178.506 64.1064C175.664 61.3815 172.008 59.4491 167.604 58.3526C164.099 57.4841 160.042 57.1476 155.204 57.3213C151.309 57.4624 146.752 57.9075 141.317 58.6566C141.198 58.6566 141.079 58.6783 140.959 58.6891C137.021 59.0908 131.326 60.2307 123.536 62.1631C116.192 63.9978 108.207 66.1148 99.7885 68.4814L89.0049 71.5103C85.338 72.5416 81.6495 73.649 78.0477 74.8214C77.1798 75.1037 76.3445 75.4837 75.5634 75.9613C70.9961 78.7405 68.0669 81.118 66.0816 83.6801C61.5577 89.4773 62.1652 94.9597 62.9355 97.7172C64.1397 102.005 67.1665 105.468 71.4842 107.466C71.5168 107.477 71.5493 107.499 71.571 107.509C71.4083 108.074 71.2456 108.649 71.072 109.236C69.6074 114.414 68.0995 120.363 66.5589 126.953C66.3094 127.507 66.1033 128.082 65.9406 128.679C65.7995 129.2 65.626 129.765 65.4198 130.329C65.1052 131.219 64.6604 132.685 63.6732 136.789C63.0548 139.372 62.1327 143.237 60.7874 148.958C59.529 154.321 57.7173 161.942 55.4065 171.583C55.3631 171.756 55.3306 171.919 55.298 172.093C54.799 174.677 54.0938 178.27 53.0089 183.752C52.0434 188.616 50.9368 194.066 49.7435 199.95L46.9771 213.52L46.12 217.754C44.7639 224.42 43.6899 229.739 42.7461 234.538C42.3555 236.503 41.9867 238.37 41.6504 240.14L36.9637 242.669C36.226 243.071 35.5426 243.538 34.9133 244.08C34.6421 244.254 33.6115 244.862 31.1055 245.882C27.341 247.424 23.7934 248.9 20.2568 250.399C16.1017 252.157 12.3589 254.035 9.13687 255.99C-1.73351 262.601 -0.214691 271.568 0.512171 274.163C1.41261 277.355 3.47386 279.982 6.29452 282.945C8.36662 285.117 10.7099 287.321 13.2702 289.481C15.8522 291.674 18.5101 293.682 21.1789 295.441C23.7283 297.135 27.5145 299.317 31.8757 299.599C36.877 300.239 40.8042 300.087 44.1673 299.143L48.6261 297.894C49.5265 297.645 50.6114 297.297 52.0326 296.809C53.367 296.342 54.4952 295.897 55.4607 295.452C56.6866 294.963 58.596 294.051 62.8162 291.869C66.7108 289.85 71.2456 287.375 76.6916 284.292C81.9315 281.317 87.6813 277.952 93.7891 274.261C100.027 270.493 105.885 266.64 111.201 262.807C111.223 262.786 111.256 262.775 111.277 262.753C124.328 253.189 136.967 243.201 148.857 233.061C155.225 227.633 161.268 222.238 166.931 216.951C166.953 217.428 166.964 217.917 166.985 218.427C167.018 219.372 167.039 220.37 167.072 221.434C167.072 221.478 167.072 221.532 167.072 221.575C167.126 222.943 167.17 224.203 167.202 225.343C167.235 226.493 167.256 227.546 167.267 228.502C167.267 229.446 167.278 230.326 167.267 231.151C167.246 234.831 168.949 238.305 171.878 240.53C174.796 242.756 178.593 243.483 182.141 242.495L201.636 237.024C202.482 236.785 203.285 236.459 204.023 236.058C204.869 236.014 205.726 235.873 206.561 235.634L210.933 234.407C213.342 233.734 215.392 232.334 216.878 230.488C219.124 231.292 221.597 231.411 223.984 230.738L228.28 229.533C229.213 229.272 230.092 228.903 230.906 228.437C231.849 228.404 232.793 228.263 233.715 228.002L253.211 222.531C254.046 222.292 254.849 221.977 255.586 221.575C256.433 221.532 257.279 221.391 258.114 221.163L262.692 219.882C265.166 219.187 267.249 217.743 268.735 215.843C270.471 216.451 273.172 216.951 276.427 216.028L280.278 214.953C282.111 214.443 283.76 213.498 285.116 212.228C285.485 212.261 285.854 212.293 286.223 212.304C289.12 212.445 292.266 212.044 295.564 211.121C297.777 210.502 299.697 209.786 301.422 208.928C303.321 207.994 305.056 206.876 306.553 205.606C307.118 205.128 307.649 204.629 308.159 204.097C310.687 205.313 313.605 205.595 316.382 204.814L317.109 204.607L317.88 204.39L318.65 204.173L319.453 203.945L320.255 203.717L320.885 203.543C326.276 202.034 329.846 196.899 329.39 191.33C329.39 191.254 329.39 191.146 329.39 191.037C329.39 190.798 329.379 190.559 329.368 190.299C330.149 192.264 331.462 194.012 333.198 195.314C336.116 197.507 339.892 198.224 343.406 197.236L354.852 194.022C357.065 193.404 359.007 192.676 360.797 191.797C361.838 191.287 362.836 190.722 363.769 190.103C365.614 190.505 367.556 190.462 369.422 189.941L374 188.659C376.473 187.965 378.556 186.521 380.042 184.621C381.778 185.229 384.48 185.728 387.734 184.806L391.585 183.731C392.226 183.557 392.833 183.318 393.43 183.047C394.081 182.982 394.721 182.851 395.361 182.678L399.809 181.429C400.742 181.169 401.61 180.8 402.423 180.344C403.356 180.311 404.3 180.17 405.211 179.909L409.583 178.683C411.992 178.01 414.042 176.609 415.528 174.764C417.774 175.567 420.248 175.686 422.634 175.013L426.93 173.808C427.863 173.548 428.731 173.179 429.545 172.723C430.478 172.69 431.422 172.549 432.344 172.288L436.824 171.029C438.951 170.432 440.806 169.27 442.227 167.74C442.932 167.892 443.659 168 444.408 168.044C446.078 168.152 447.782 167.957 449.604 167.446L454.464 166.089C459.249 164.743 462.666 160.52 462.991 155.559C463.274 151.086 460.995 146.896 457.198 144.692C457.296 144.562 457.404 144.442 457.502 144.312C458.164 143.476 458.728 142.781 459.205 142.195C462.438 138.243 462.731 132.642 459.932 128.364C457.133 124.087 451.893 122.122 446.979 123.501L440.741 125.248C438.842 125.78 437.117 126.779 435.729 128.147C433.874 127.713 431.899 127.735 429.936 128.288L425.455 129.548C424.533 129.808 423.665 130.177 422.851 130.633C421.918 130.666 420.985 130.807 420.074 131.057L415.8 132.262C413.5 132.902 411.536 134.205 410.082 135.909C407.924 135.204 405.569 135.138 403.302 135.768L398.322 137.169C397.389 137.429 396.522 137.798 395.708 138.254C394.775 138.287 393.831 138.428 392.909 138.688L388.461 139.937C386.519 140.48 384.805 141.5 383.438 142.846C382.928 142.792 382.397 142.77 381.876 142.76C381.811 142.76 381.746 142.76 381.67 142.76C383.807 141.218 386.063 139.644 388.407 138.07C391.412 136.061 394.536 134.14 397.672 132.359C400.492 130.763 403.313 129.374 406.047 128.212C410.723 126.671 414.281 123.479 416.114 119.169C417.698 115.445 417.948 111.396 416.841 107.444C414.932 100.648 411.048 97.1309 408.119 95.3722C406.134 94.1889 404.007 93.3421 401.762 92.8536C403.53 91.2252 405.472 89.5642 407.566 87.8706L407.652 87.8055C410.82 85.2 413.196 83.2133 414.91 81.7477C417.698 79.3593 419.608 77.1555 420.92 74.8323C422.732 71.608 423.47 68.286 423.112 64.9423C423.112 64.9206 423.112 64.9097 423.112 64.888C422.938 63.3573 422.58 61.642 422.027 59.6553C420.519 54.2815 417.579 49.6351 413.294 45.8571C413.163 45.7486 413.044 45.64 412.914 45.5314C406.188 38.92 399.689 39.2674 396.153 40.201C399.852 39.1154 403.324 38.1167 406.502 37.2265C414.628 34.9467 419.716 32.5257 423.003 29.3666C429.968 22.7117 428.948 15.6552 428.178 12.9303C427.625 10.9762 426.67 9.02207 425.162 6.79655C423.014 3.61568 418.826 0.0765649 410.918 0.391394C410.462 0.369682 409.985 0.380538 409.518 0.413107C407.826 0.543381 405.179 0.955917 397.303 3.05116C391.911 4.48418 385.51 6.24288 378.252 8.28385C371.722 10.1185 364.789 12.0944 357.64 14.1788C355.839 14.6999 354.06 15.2427 352.324 15.7963C351.966 15.1667 351.554 14.5804 351.076 14.0268L347.355 9.66258C343.743 4.79901 339.49 1.78099 334.695 0.706224C330.638 -0.19484 327.22 -0.227409 324.204 0.619374C321.167 1.46616 318.444 3.15972 316.111 5.63493C314.44 7.40449 312.9 9.71686 311.425 12.6806C310.275 14.9713 309.081 17.8047 307.769 21.3113C306.792 23.9276 305.696 27.0433 304.481 30.615C304.069 31.3315 303.722 32.0915 303.462 32.8948C303.375 33.1554 303.299 33.4051 303.223 33.6439C296.464 36.4014 290.237 38.8223 284.672 40.8524C280.875 42.242 277.392 43.5773 274.224 44.8584C275.06 41.7861 275.722 38.9743 276.21 36.4014C277.056 32.0263 276.286 27.6296 273.986 23.6996C272.38 20.9422 270.297 18.5647 267.791 16.5997C265.209 14.5913 262.345 13.1583 259.253 12.3006C255.554 11.291 252.082 11.2259 248.904 12.1161H248.871ZM119.175 105.664C119.338 102.754 119.468 99.8775 119.576 97.0658C126.086 95.5459 132.573 94.0152 139.061 92.4845L119.175 105.675V105.664ZM348.907 55.7797C353.507 54.0644 358.367 52.3383 363.335 50.6556C368.478 48.9077 373.598 47.2141 378.535 45.6183C383.492 44.0116 388.407 42.4809 393.169 41.0695C393.885 40.8633 394.591 40.6462 395.285 40.4399C393.234 41.1021 391.271 42.1552 389.437 43.599L386.649 45.64C386.53 45.7269 386.421 45.8137 386.313 45.9006C385.814 46.2914 384.631 47.1382 382.256 48.3758C379.847 49.6351 377.243 50.9487 374.51 52.2731C371.863 53.565 369.129 54.7809 366.395 55.8882C363.802 56.9413 361.361 57.7881 359.148 58.4069L355.622 59.3948C354.385 59.7422 353.127 60.057 351.901 60.3393C350.708 60.6107 349.623 60.8604 348.635 61.0775C346.77 60.7301 344.947 60.5456 343.2 60.513C343.482 59.5902 343.764 58.7 344.047 57.8424C344.047 57.8206 344.057 57.7989 344.068 57.7881L348.907 55.7797ZM102.338 167.012C104.009 166.339 106.005 165.568 108.305 164.711C111.342 163.582 114.803 162.398 118.578 161.193C122.451 159.967 126.281 158.816 129.959 157.784C134.32 156.558 138.464 155.472 142.272 154.549C145.602 153.746 148.542 153.051 151.038 152.476C153.511 152.194 156.505 151.9 159.944 151.618C162.288 151.423 164.544 151.336 166.692 151.347C165.814 152.194 164.75 153.203 163.47 154.397C160.259 157.394 156.44 160.803 152.101 164.526C147.664 168.337 142.782 172.408 137.574 176.631C132.335 180.876 126.975 185.142 121.649 189.289C116.311 193.447 111.125 197.388 106.222 200.992C101.405 204.542 97.1197 207.484 93.4745 209.753C93.0948 209.992 92.726 210.252 92.3788 210.524C91.4241 211.284 90.2742 212.131 88.9615 213.042C91.4458 204.618 93.8759 196.736 96.1975 189.593C96.2626 189.387 96.3277 189.181 96.382 188.974L100.298 174.221C100.971 171.68 101.644 169.292 102.316 167.11L102.349 167.012H102.338ZM187.511 196.313C194.085 189.137 199.759 182.254 204.424 175.762C204.576 175.556 204.728 175.35 204.869 175.133C205.314 175.969 205.802 176.794 206.323 177.597C208.167 180.452 210.423 182.971 213.016 185.077C214.361 186.173 215.783 187.129 217.258 187.954L217.15 187.986C214.85 188.627 212.886 189.93 211.432 191.634C209.273 190.928 206.919 190.863 204.652 191.493L199.672 192.893C198.826 193.132 198.023 193.458 197.286 193.86C196.439 193.903 195.582 194.044 194.747 194.283L187.522 196.313H187.511ZM320.928 158.881C323.141 155.44 325.333 152.139 327.47 149.002C328.555 147.417 329.618 145.854 330.681 144.301C331.267 145.126 331.907 145.919 332.612 146.668L333.502 148.057C334.055 148.915 334.717 149.697 335.465 150.381C336.702 151.51 337.852 152.498 338.98 153.399C339.11 153.507 339.241 153.605 339.371 153.703L336.496 154.506C334.174 155.157 332.2 156.471 330.724 158.208C328.555 157.48 326.168 157.394 323.868 158.045L320.928 158.87V158.881ZM281.992 169.715C283.044 168.532 284.108 167.295 285.171 166.003C286.039 166.589 286.961 167.164 287.915 167.707C287.536 167.805 287.156 167.902 286.765 168.011C285.095 168.478 283.489 169.053 281.981 169.715H281.992ZM246.886 179.671C247.537 178.78 248.231 177.771 248.99 176.631C249.077 176.501 249.164 176.359 249.262 176.229C250.325 176.967 251.366 177.586 252.386 178.118L251.236 178.444C250.401 178.683 249.598 178.997 248.86 179.399C248.198 179.432 247.537 179.529 246.886 179.681V179.671Z" fill="black"></path></g><defs><clipPath id="clip0_14_3394"><rect width="463" height="300" fill="white"></rect></clipPath></defs></svg>