<svg xmlns="http://www.w3.org/2000/svg" width="103" height="105" viewBox="0 0 103 105" fill="none"><g clip-path="url(#clip0_14_2383)"><path d="M48.0531 2.47782C47.9764 3.142 47.9253 3.80619 47.8998 4.47038C47.8998 4.62365 47.8998 4.77692 47.8998 4.9302C47.8998 5.03238 47.8998 5.13456 47.8998 5.23674C47.8998 4.98129 47.8998 4.9302 47.8998 5.08347C47.8998 5.41556 47.8998 5.74766 47.8998 6.1053C47.8998 7.45921 48.0275 8.81313 48.2319 10.1415C48.3851 11.2144 47.6954 12.2873 46.9801 12.2873C46.7247 12.2873 46.3415 12.2873 46.1116 11.9297C45.805 11.4443 45.9583 10.6269 46.0094 10.3714C46.4692 7.35703 44.3234 4.26601 45.2941 1.60926C45.6262 0.715167 46.2904 -0.178931 46.929 0.0509801C47.6954 0.331982 48.2319 1.37935 48.1041 2.50336" fill="#CBA16E"></path><path d="M28.818 7.99589C29.0224 8.8389 29.2267 9.65636 29.4822 10.4738C29.5844 10.8315 29.7121 11.1635 29.8143 11.5212C29.661 11.0614 29.9164 11.7766 29.942 11.8533C29.9931 12.0321 30.0697 12.1854 30.1464 12.3642C30.7339 13.8969 31.4492 15.353 32.2411 16.758C32.752 17.6777 32.471 19.0571 31.7557 19.4659C31.4747 19.6447 31.0149 19.8746 30.7595 19.6192C30.5551 19.4148 30.5551 18.9805 30.5551 18.8783C30.5295 16.9624 25.6759 12.5175 25.727 8.73671C25.727 7.71489 26.1101 6.4887 26.7743 6.36097C27.6173 6.2077 28.537 6.87188 28.7924 7.99589" fill="#CBA16E"></path><path d="M13.7953 25.0352C13.7953 25.0352 13.7187 24.9586 13.6165 24.8819C13.3355 24.6265 13.7953 25.0352 13.6165 24.8819C13.5143 24.7797 13.3866 24.6775 13.2844 24.5754C13.0289 24.3455 12.7735 24.1155 12.518 23.8856C12.0326 23.4514 11.5217 22.9915 11.0108 22.5828C10.0145 21.7398 8.99271 20.9223 7.99643 20.156C7.15343 19.5173 6.94906 18.0101 6.87243 17.7547C6.7447 17.2693 6.51479 16.4263 6.66806 16.0176C7.33225 14.4848 13.5398 21.4588 14.5106 22.6339C14.7916 22.9915 15.1748 23.4769 15.2258 23.9112C15.2258 24.0389 15.2258 24.1666 14.9448 24.4987C14.2807 25.3162 13.8719 25.1629 13.7697 25.0863" fill="#CBA16E"></path><path d="M5.48074 36.2748C2.61963 34.9464 1.18907 34.2823 0.448249 33.1327C0.243883 32.8006 -0.292575 31.9576 0.141701 31.2423C0.422703 30.757 1.18907 30.2971 1.85326 30.4504C2.36417 30.5781 2.56854 30.9869 2.97727 31.4467C4.48446 33.1583 6.73247 33.005 8.00976 34.5888C8.44403 35.1508 8.87831 36.0449 8.3163 36.4792C8.00976 36.7091 7.49884 36.7602 7.37112 36.7602C6.60475 36.7857 5.91501 36.4792 5.48074 36.2748Z" fill="#CBA16E"></path><path d="M86.9078 81.4394C89.2325 79.4723 91.4038 77.3265 93.3709 75.0274C93.9329 74.3632 93.8307 73.3669 93.1665 72.7794C84.9919 65.5755 82.0286 55.0252 74.5693 39.9277C73.8285 38.3694 71.9636 34.7164 71.5804 33.9245C71.5804 33.9245 70.2521 31.2933 68.0551 26.925C66.9567 24.7791 66.4202 23.7318 66.2669 23.604C61.1578 18.3927 27.0288 37.9351 29.66 48.2811C30.3242 50.8868 33.824 54.9485 34.8203 56.1236C36.9406 58.6016 38.8309 60.1343 39.4696 60.6963C48.2062 68.1045 55.64 82.1035 61.0045 92.2452C61.4133 93.0626 61.822 93.8034 62.1796 94.4676C65.2451 93.4969 68.234 92.3473 71.1717 91.019C75.2335 89.1541 80.7769 86.6251 86.8823 81.4649L86.9078 81.4394Z" fill="#CBA16E"></path><path d="M102.921 80.9795C102.691 80.0344 102.155 79.1403 101.746 78.5783C101.465 78.1695 101.056 77.8374 100.596 77.6331C99.83 77.2754 99.1402 76.9178 98.5016 76.5857C95.9981 79.7278 93.1626 82.6145 90.0971 85.2457C83.4297 90.8657 77.2987 93.6502 73.2114 95.515C70.759 96.6135 68.2556 97.6353 65.701 98.5039C64.1683 99.0148 63.2997 100.701 63.9383 102.182C64.1683 102.719 64.4748 103.179 64.8835 103.562C71.9086 110.127 104.837 88.5155 102.921 80.9795Z" fill="#CBA16E"></path><path d="M82.6829 39.6979C82.3764 38.9571 81.6867 37.2711 80.205 37.0667C79.6941 36.9901 79.2087 37.0923 76.4754 38.6506C72.618 40.8219 72.0815 41.4861 71.826 41.8438C70.8298 43.2232 70.9064 44.3983 70.5488 44.3983C70.1145 44.3983 69.4503 42.7379 69.9357 41.0774C70.5232 39.0593 72.5669 37.8331 74.2784 36.7857C75.99 35.7639 78.2891 34.3844 80.5371 34.3589C83.8836 34.3589 84.8288 37.3988 92.5691 49.814C95.6346 54.7443 97.576 57.6054 96.2988 60.9774C95.5579 62.9445 93.9997 64.3495 93.1822 65.0647C92.6202 65.5501 87.9709 69.663 84.7011 68.4623C83.9091 68.1558 82.8362 67.4149 82.9895 66.7252C83.3471 65.2436 88.7883 65.6523 92.237 62.4335C92.9523 61.7694 93.3355 61.1563 93.5654 60.5943C94.204 58.9593 93.5654 57.4777 93.2844 56.7624C89.9124 49.0987 84.1135 43.0955 82.6829 39.7235V39.6979Z" fill="#CBA16E"></path><path d="M97.0179 57.0179C96.4815 55.0254 95.1531 52.9051 93.4415 50.1462L93.0583 49.5331C91.4234 46.9019 90.095 44.705 88.971 42.8657C84.7816 35.9173 83.5043 33.8225 80.5665 33.8225C78.1908 33.8225 75.7895 35.2531 74.0524 36.3004C72.2642 37.3734 70.0673 38.6762 69.4542 40.9242C69.0454 42.3037 69.352 43.8364 69.8885 44.5261C70.1439 44.8582 70.4249 44.9349 70.6037 44.9349C71.1402 44.9349 71.319 44.3984 71.4467 43.9386C71.6 43.4788 71.7788 42.8401 72.2897 42.1504C72.4686 41.8949 72.9028 41.3074 76.7602 39.1105C79.3659 37.6288 79.8257 37.5522 80.1578 37.6033C81.2818 37.7565 81.8949 39.1615 82.1759 39.8513L82.6868 39.698L82.2014 39.9024C82.8145 41.3074 84.0663 43.07 85.6757 45.2925C87.9748 48.4602 90.8103 52.4197 92.8029 56.9413C93.0583 57.5033 93.6714 58.8828 93.0839 60.3389C92.854 60.9264 92.4708 61.4373 91.8832 61.9993C90.044 63.7365 87.6171 64.3495 85.6501 64.8605C83.9386 65.2947 82.7124 65.6268 82.4824 66.572C82.227 67.6705 83.5554 68.5901 84.5261 68.9478C87.8981 70.1995 92.292 66.5976 93.5437 65.448C94.4123 64.6561 95.9961 63.2255 96.788 61.1563C97.3245 59.7258 97.35 58.3974 96.9668 56.9924L97.0179 57.0179ZM70.4505 43.2489C70.3227 42.7379 70.2461 41.9716 70.4505 41.2052C70.9614 39.3915 72.8773 38.2419 74.5633 37.2201C76.2238 36.2238 78.4462 34.8954 80.541 34.8954C82.789 34.8954 83.7853 36.3771 88.0259 43.4021C89.1499 45.267 90.4782 47.4639 92.1132 50.0951L92.4963 50.7082C95.2553 55.1276 96.9157 57.8099 95.7917 60.7732C95.102 62.6124 93.6204 63.9408 92.8284 64.6561C90.5549 66.6997 87.1062 68.7689 84.8837 67.9515C84.0407 67.6449 83.4787 67.0318 83.5043 66.8275C83.5809 66.4954 84.8582 66.1633 85.88 65.9078C87.847 65.3969 90.5293 64.7072 92.573 62.7913C93.2883 62.1271 93.7481 61.4629 94.0291 60.7476C94.7699 58.8828 94.0291 57.1712 93.7225 56.507C91.7044 51.8833 88.8178 47.8982 86.4931 44.6794C84.9859 42.5847 83.6831 40.7965 83.1211 39.4936L82.6357 39.698L83.0955 39.417C82.7635 38.6251 81.9715 36.7603 80.2344 36.5303C79.5702 36.4282 79.0082 36.5559 76.1727 38.1653C72.4175 40.2856 71.7277 41.0008 71.3446 41.5117C70.8336 42.227 70.5782 42.8912 70.4249 43.3766C70.4249 43.3255 70.4249 43.2999 70.3994 43.2489H70.4505Z" fill="#CBA16E"></path></g><defs><clipPath id="clip0_14_2383"><rect width="103" height="104.788" fill="white"></rect></clipPath></defs></svg>