<svg xmlns="http://www.w3.org/2000/svg" width="66" height="83" viewBox="0 0 66 83" fill="none"><g clip-path="url(#clip0_14_2394)"><path d="M52.8475 2.70857C52.599 3.30495 52.3753 3.90134 52.1766 4.52257C52.1269 4.67167 52.0772 4.79591 52.0275 4.94501C52.0026 5.04441 51.9778 5.14381 51.9281 5.2432C52.0026 4.99471 52.0275 4.94501 51.9778 5.09411C51.8784 5.41715 51.8038 5.71534 51.7044 6.03838C51.3565 7.3057 51.108 8.59787 50.9341 9.89004C50.785 10.9337 49.8656 11.7537 49.1946 11.5798C48.9461 11.5053 48.5982 11.4059 48.474 11.0331C48.3249 10.5113 48.6728 9.76579 48.797 9.54215C50.0395 6.83356 48.8467 3.3795 50.4619 1.14305C51.0086 0.397571 51.8784 -0.273362 52.4002 0.124228C53.0214 0.596366 53.2699 1.71459 52.8475 2.73341" fill="#CBA16E"></path><path d="M33.3551 2.70823C33.3302 3.52826 33.3054 4.37314 33.3302 5.19317C33.3302 5.54106 33.3302 5.9138 33.3799 6.26169C33.3799 5.78955 33.3799 6.53504 33.4048 6.60958C33.4048 6.78353 33.4296 6.95748 33.4545 7.13142C33.6036 8.72178 33.8769 10.2873 34.2248 11.8031C34.4733 12.7971 33.8272 14.0147 33.0569 14.2135C32.7338 14.288 32.2617 14.3874 32.0878 14.0893C31.9387 13.8408 32.0878 13.4432 32.0878 13.3438C32.5599 11.5298 29.2301 6.08775 30.2986 2.55913C30.5968 1.61485 31.2429 0.546331 31.9138 0.620879C32.7338 0.695427 33.4048 1.56516 33.3799 2.68338" fill="#CBA16E"></path><path d="M14.7649 14.6363C14.7649 14.6363 14.7152 14.5369 14.6406 14.4375C14.4418 14.1144 14.7649 14.6363 14.6406 14.4375C14.5661 14.3132 14.4915 14.189 14.417 14.0399C14.243 13.7417 14.0691 13.4683 13.8951 13.195C13.5472 12.6483 13.1993 12.1016 12.8515 11.5798C12.1557 10.5113 11.4102 9.49245 10.6896 8.49847C10.0683 7.67844 10.2671 6.21233 10.292 5.93898C10.292 5.44199 10.292 4.59711 10.5653 4.27407C11.5841 3.00675 15.5352 11.1822 16.1316 12.5489C16.3055 12.9465 16.5292 13.518 16.4546 13.9405C16.4546 14.0647 16.3801 14.1641 16.057 14.4126C15.2121 15.009 14.8643 14.7357 14.8146 14.6363" fill="#CBA16E"></path><path d="M4.0197 22.9362C1.7087 20.9234 0.54078 19.9294 0.168039 18.6621C0.0437924 18.2893 -0.229551 17.3699 0.391684 16.7984C0.789274 16.4256 1.63415 16.1771 2.20569 16.5002C2.65298 16.7487 2.72753 17.196 2.97602 17.7426C3.94515 19.7554 6.0822 20.2027 6.82768 22.0167C7.10102 22.6628 7.25012 23.6071 6.60403 23.8804C6.25614 24.0295 5.75915 23.9301 5.63491 23.8804C4.91427 23.7065 4.34274 23.2344 3.99485 22.9362" fill="#CBA16E"></path><path d="M52.9892 23.506L8.1875 36.209L21.1819 82.0387L65.9836 69.3357L52.9892 23.506Z" fill="#CBA16E"></path></g><defs><clipPath id="clip0_14_2394"><rect width="66" height="82.0279" fill="white"></rect></clipPath></defs></svg>