<svg xmlns="http://www.w3.org/2000/svg" width="100" height="107" viewBox="0 0 100 107" fill="none"><g clip-path="url(#clip0_14_2365)"><path d="M16.4219 53.4225L64.6403 18.0967L62.976 56.7512C70.6178 68.964 78.2597 81.1534 85.9249 93.3662C90.6132 92.1004 95.3014 90.8581 99.9896 89.5922C92.2306 95.265 84.4716 100.961 76.7125 106.634C78.7988 102.883 80.8616 99.1562 82.9479 95.4056L58.2175 57.9935L16.4453 53.4225H16.4219Z" fill="#CA9F6D"></path><path d="M2.30641 35.0681C3.03309 35.1853 3.78321 35.3493 4.50988 35.5134C4.67397 35.5603 4.83806 35.5838 5.02559 35.6306C5.14279 35.6541 5.26 35.6775 5.35376 35.7244C5.07247 35.6541 5.00215 35.6306 5.16623 35.6775C5.54129 35.7713 5.89291 35.8885 6.26797 35.9823C7.72132 36.4276 9.15123 36.9668 10.5343 37.5763C11.636 38.0685 13.0425 37.67 13.2534 36.8965C13.3472 36.6152 13.4644 36.1932 13.1362 35.8651C12.7143 35.3962 11.7766 35.3025 11.4719 35.2556C8.0495 34.8336 5.3772 31.5284 2.18921 31.7394C1.11091 31.8097 -0.0611455 32.2786 -0.0142631 33.0052C0.0560603 33.9194 1.01715 34.8102 2.28297 35.0446" fill="#CA9F6D"></path><path d="M14.1993 15.9168C15.0432 16.3856 15.8637 16.8779 16.6607 17.417C17.0123 17.6515 17.3405 17.8859 17.6921 18.1203C17.2467 17.8155 17.9499 18.3078 18.0203 18.3547C18.1843 18.4719 18.3484 18.5891 18.5125 18.7298C19.9893 19.8549 21.3489 21.0739 22.6382 22.3631C23.4586 23.207 25.076 23.3242 25.7324 22.6913C26.0137 22.4335 26.3888 22.0115 26.2012 21.6599C26.0371 21.3552 25.5683 21.238 25.4511 21.2145C23.3648 20.5816 20.0831 13.9478 15.9574 12.846C14.8557 12.5413 13.4023 12.5647 13.0742 13.2445C12.6522 14.1118 13.0742 15.3073 14.2228 15.9403" fill="#CA9F6D"></path><path d="M43.1984 12.6822C43.1984 12.6822 43.1984 12.565 43.1984 12.4243C43.175 11.9789 43.1984 12.6822 43.1984 12.4243C43.1984 12.2602 43.1984 12.0727 43.175 11.9086C43.175 11.5101 43.1281 11.135 43.1046 10.7365C43.0812 9.98643 43.0578 9.23631 43.0343 8.4862C43.0109 7.0094 43.0343 5.55605 43.0578 4.12614C43.1047 2.93064 41.9326 1.66482 41.7685 1.43041C41.4403 0.961585 40.8543 0.164585 40.4089 0.0239384C38.6039 -0.491767 40.2214 9.89267 40.573 11.5804C40.6668 12.0727 40.8309 12.7525 41.1825 13.1041C41.2762 13.1979 41.3934 13.2916 41.8857 13.2916C43.0812 13.2916 43.2453 12.8228 43.2219 12.6822" fill="#CA9F6D"></path></g><defs><clipPath id="clip0_14_2365"><rect width="100" height="106.634" fill="white"></rect></clipPath></defs></svg>