<svg xmlns="http://www.w3.org/2000/svg" width="96" height="124" viewBox="0 0 96 124" fill="none"><g clip-path="url(#clip0_14_2370)"><path d="M32.7438 32.113C30.9447 37.2107 43.1028 42.3084 44.0569 53.676C44.3023 56.4838 43.648 57.4925 43.2664 60.4366C41.4127 74.7483 52.3169 81.836 65.5382 108.088C69.9816 116.866 71.1266 120.791 75.6245 122.454C82.6577 125.071 92.9077 120.491 95.143 113.813C96.915 108.524 92.5533 105.198 85.193 92.5221C72.0262 69.8414 73.3892 58.801 61.5854 52.8037C57.1692 50.5683 55.6699 51.4406 52.126 48.6055C43.2391 41.5178 44.7112 29.714 39.1228 28.6509C36.6966 28.1875 33.4799 29.8504 32.6893 32.0857L32.7438 32.113Z" fill="#CBA16E"></path><path d="M37.7631 29.523C37.8721 29.1141 37.4087 28.4326 36.5091 27.0423C36.0457 26.3335 35.8003 25.9791 35.555 25.8701C34.6827 25.4612 33.5922 26.1972 32.2565 27.1241C31.1388 27.8873 30.5663 28.269 30.5391 28.8687C30.5391 29.1686 30.6481 29.4412 31.9566 30.6952C33.8921 32.5761 34.3283 32.6852 34.6009 32.5761C34.8735 32.4671 34.8735 32.249 35.1733 31.7856C36.1275 30.2863 37.5177 30.5044 37.7631 29.5775V29.523Z" fill="#CBA16E"></path><path d="M2.5506 39.1182C3.36842 39.2545 4.18623 39.4181 5.0313 39.6089C5.22213 39.6634 5.41295 39.6907 5.60377 39.7452C5.74007 39.7725 5.84912 39.7997 5.98542 39.8543C5.65829 39.7725 5.60377 39.7452 5.7946 39.7998C6.2035 39.9088 6.61241 40.0178 7.02132 40.1541C8.65694 40.6448 10.2381 41.2446 11.7919 41.9533C13.0186 42.4985 14.5725 42.0351 14.8451 41.19C14.9268 40.8629 15.0632 40.4267 14.7088 40.0178C14.2181 39.4999 13.1822 39.3908 12.8551 39.3363C9.03859 38.8729 6.0672 35.1655 2.49608 35.4108C1.29662 35.4926 -0.039142 36.0105 0.0426393 36.8284C0.124421 37.837 1.18758 38.8456 2.60512 39.091" fill="#CBA16E"></path><path d="M12.1522 14.9655C13.0791 15.4834 14.006 16.0559 14.9056 16.6284C15.2872 16.8737 15.6688 17.1463 16.0505 17.3917C15.5325 17.0373 16.3231 17.6098 16.4321 17.6643C16.623 17.8006 16.7865 17.9369 16.9773 18.0732C18.613 19.3272 20.1396 20.6902 21.5844 22.1077C22.5112 23.0346 24.2831 23.1709 25.0464 22.4621C25.3463 22.1623 25.7825 21.6988 25.5644 21.3172C25.3736 20.9901 24.8556 20.8538 24.7466 20.7992C22.4294 20.0905 18.7493 12.7029 14.1423 11.4489C12.8883 11.1218 11.2799 11.1218 10.9255 11.9123C10.4621 12.8664 10.9255 14.2022 12.2068 14.911" fill="#CBA16E"></path><path d="M48.1898 14.1478C48.1898 14.1478 48.1898 14.0115 48.1898 13.8479C48.1625 13.3573 48.1898 14.1478 48.1898 13.8479C48.1898 13.6571 48.1898 13.4663 48.1625 13.2755C48.1625 12.8393 48.108 12.4031 48.108 11.967C48.0808 11.1219 48.0535 10.3041 48.0262 9.45901C47.999 7.79613 48.0262 6.18776 48.0535 4.57939C48.0808 3.24363 46.7995 1.82609 46.6087 1.55348C46.227 1.03553 45.6001 0.135938 45.0821 -0.0276245C43.0648 -0.627355 44.8913 10.9856 45.2457 12.8666C45.3547 13.4118 45.5455 14.1751 45.9272 14.5567C46.0362 14.6658 46.1725 14.7475 46.7177 14.7475C48.0535 14.7475 48.2171 14.2296 48.2171 14.066" fill="#CBA16E"></path></g><defs><clipPath id="clip0_14_2370"><rect width="95.5479" height="123.19" fill="white"></rect></clipPath></defs></svg>