<svg xmlns="http://www.w3.org/2000/svg" width="99" height="87" viewBox="0 0 99 87" fill="none"><g clip-path="url(#clip0_14_2377)"><path d="M45.393 13.4927C45.393 13.4927 45.393 13.3627 45.393 13.2067C45.367 12.7387 45.393 13.4927 45.393 13.2067C45.393 13.0247 45.393 12.8427 45.367 12.6608C45.367 12.2448 45.315 11.8288 45.315 11.4129C45.289 10.6069 45.263 9.82698 45.237 9.02105C45.211 7.43517 45.237 5.9013 45.263 4.36742C45.289 3.09353 44.0671 1.74164 43.8851 1.48166C43.5212 0.987696 42.9232 0.129766 42.4292 -0.0262216C40.5054 -0.598175 42.2473 10.4769 42.5852 12.2708C42.6892 12.7907 42.8712 13.5187 43.2352 13.8827C43.3392 13.9866 43.4692 14.0646 43.9891 14.0646C45.263 14.0646 45.419 13.5707 45.419 13.4147" fill="#CBA16E"></path><path d="M58.2447 21.2663C58.2447 21.2663 58.2967 21.1103 58.3747 20.9023C58.2447 21.2403 58.5827 20.3044 58.3747 20.9023C58.4527 20.6684 58.5307 20.4344 58.6347 20.2004C58.8167 19.6804 59.0247 19.1605 59.2066 18.6405C59.5966 17.6266 59.9866 16.6387 60.3765 15.6508C61.1825 13.6749 62.0144 11.7771 62.8723 9.90522C63.6003 8.37135 62.8203 5.97954 62.7423 5.56358C62.5864 4.73164 62.3004 3.32776 61.7804 2.88579C59.7526 1.09194 55.9829 15.7807 55.4629 18.2246C55.3069 18.9525 55.151 19.9404 55.3849 20.5904C55.4629 20.7723 55.5669 20.9543 56.1909 21.2663C57.6988 21.9942 58.1927 21.4743 58.2447 21.2663Z" fill="#CBA16E"></path><path d="M65.8775 26.8037C65.8775 26.8037 65.9815 26.7257 66.0855 26.6217C65.8775 26.8037 66.4495 26.3357 66.0855 26.6217C66.2415 26.4917 66.3715 26.3877 66.5274 26.2577C66.8394 25.9977 67.1774 25.7378 67.4894 25.4778C68.1133 24.9838 68.7373 24.4899 69.3872 24.0219C70.6611 23.086 71.909 22.1761 73.1829 21.3181C74.2228 20.6162 74.6128 18.8223 74.7168 18.5104C74.9248 17.9124 75.2627 16.9245 75.0808 16.4565C74.4048 14.5587 66.4495 22.436 65.2016 23.7879C64.8376 24.1779 64.3436 24.7499 64.2656 25.2698C64.2656 25.3998 64.2656 25.5558 64.5516 25.9977C65.2795 27.0377 65.7995 26.8817 65.9035 26.7777" fill="#CBA16E"></path><path d="M24.2227 6.3695C16.2413 20.0964 8.28597 33.8493 0.33061 47.5762C-0.319337 48.6941 0.0186354 50.124 1.08455 50.8519L20.843 64.0848C21.8309 64.7608 23.1828 64.6048 23.9887 63.7209C34.7778 52.2558 45.541 40.8167 56.3301 29.3516C45.6189 21.6823 34.9078 14.0129 24.2227 6.34351V6.3695Z" fill="#CBA16E"></path><path d="M92.3026 31.9255C94.5384 47.4983 96.7482 63.045 98.984 78.6178C99.218 80.1776 98.1781 81.6335 96.6442 81.9455L74.286 86.6511C72.8562 86.9631 71.4263 86.1832 70.9063 84.8313C65.2388 70.3244 59.5712 55.7916 53.9297 41.2848C66.7207 38.165 79.5376 35.0713 92.3286 31.9515L92.3026 31.9255Z" fill="#CBA16E"></path></g><defs><clipPath id="clip0_14_2377"><rect width="99" height="86.703" fill="white"></rect></clipPath></defs></svg>