<svg xmlns="http://www.w3.org/2000/svg" width="187" height="186" viewBox="0 0 187 186" fill="none"><path d="M124.876 122.784C158.506 122.784 185.769 95.5219 185.769 61.8921C185.769 28.2623 158.506 1 124.876 1C91.2467 1 63.9844 28.2623 63.9844 61.8921C63.9844 95.5219 91.2467 122.784 124.876 122.784Z" stroke="#2353F9" stroke-width="1.75238"></path><path d="M62.6655 122.784C96.2953 122.784 123.558 95.5219 123.558 61.8921C123.558 28.2623 96.2953 1 62.6655 1C29.0358 1 1.77344 28.2623 1.77344 61.8921C1.77344 95.5219 29.0358 122.784 62.6655 122.784Z" stroke="#2353F9" stroke-width="1.75238"></path><path d="M155.327 124.108C155.327 157.731 127.775 185 93.7727 185C59.7707 185 32.2188 157.731 32.2188 124.108C32.2188 90.4848 59.7707 63.2158 93.7727 63.2158C127.775 63.2158 155.327 90.4848 155.327 124.108Z" stroke="#2353F9" stroke-width="1.75238"></path></svg>