<svg xmlns="http://www.w3.org/2000/svg" width="187" height="186" viewBox="0 0 187 186" fill="none"><path d="M99.3356 56.1297L99.5992 58.7324L100.696 56.3559L123.942 6.01906L111.255 59.9674L110.656 62.5142L112.468 60.6217L150.858 20.5323L121.277 67.4531L119.881 69.6683L122.212 68.4645L171.586 42.9671L128.317 77.7759L126.275 79.4191L128.871 79.0347L183.88 70.8922L131.612 89.8168L129.144 90.7102L131.726 91.1868L186.407 101.282L130.804 102.271L128.179 102.318L130.465 103.604L178.894 130.842L125.981 113.789L123.483 112.984L125.226 114.94L162.154 156.37L117.666 123.123L115.566 121.554L116.577 123.967L138.003 175.1L106.76 129.261L105.285 127.097L105.455 129.707L109.057 185L94.4439 131.538L93.7541 129.014L93.0643 131.538L78.4518 185L82.0536 129.707L82.2236 127.097L80.7487 129.261L49.5052 175.1L70.9311 123.967L71.9426 121.554L69.8423 123.123L25.3539 156.37L62.2818 114.94L64.0252 112.984L61.5273 113.789L8.61463 130.842L57.0431 103.604L59.3294 102.318L56.7045 102.271L1.10156 101.282L55.7826 91.1868L58.364 90.7102L55.8966 89.8168L3.62887 70.8922L58.6369 79.0347L61.2337 79.4191L59.1911 77.7759L15.9226 42.9671L65.2967 68.4645L67.6276 69.6683L66.2311 67.4531L36.6507 20.5323L75.0402 60.6217L76.8526 62.5142L76.2536 59.9674L63.5668 6.01908L86.8118 56.3559L87.9091 58.7324L88.1726 56.1297L93.7541 1L99.3356 56.1297Z" stroke="#2353F9" stroke-width="1.75238"></path></svg>