<svg xmlns="http://www.w3.org/2000/svg" width="301" height="218" viewBox="0 0 301 218" fill="none"><path d="M212.744 97.624C203.236 105.508 193.742 113.391 184.234 121.29C184.234 121.275 184.234 126.874 184.234 126.86C184.234 127.788 184.234 131.693 184.234 132.651C184.234 132.651 184.249 132.651 184.264 132.651C193.772 124.826 203.295 117.001 212.803 109.192C212.788 90.713 212.773 72.2344 212.759 53.7559C212.759 70.2598 212.759 81.1348 212.759 97.6388L212.744 97.624Z" fill="#D3D3D3"></path><path d="M301 0H0V218H301V0Z" fill="#FC3030"></path><path d="M95.1696 168.429C95.1696 154.239 95.1402 140.034 95.1402 125.843C92.8406 125.843 90.5262 125.843 88.2266 125.843C88.2266 142.347 88.2266 158.836 88.2266 175.34C102.01 175.384 115.793 175.414 129.59 175.458C131.86 175.473 134.145 175.488 136.415 175.502C136.415 173.145 136.401 170.787 136.386 168.429C122.647 168.429 108.908 168.429 95.1844 168.429H95.1696Z" fill="#D3D3D3"></path><path d="M136.37 168.429V125.828C122.616 125.828 108.863 125.828 95.1094 125.828C95.1094 140.033 95.1389 154.224 95.1389 168.429C108.878 168.429 122.616 168.429 136.34 168.429H136.37Z" fill="white"></path><path d="M184.235 71.4535V75.0784C163.833 75.0784 143.417 75.0784 123.015 75.0784C123.015 72.5881 123.015 70.0683 123 67.5632H184.235C184.235 69.0073 184.235 70.2893 184.235 71.4387V71.4535Z" fill="#D3D3D3"></path><path d="M198.312 113.568C203.147 109.56 207.952 105.611 212.729 101.706C212.729 85.2017 212.729 68.6977 212.729 52.1937V42.4829C203.25 42.5124 193.786 42.5566 184.308 42.5861L159.233 42.5124L148.103 42.4829C139.848 50.7496 131.593 59.0016 123.353 67.2684L123.147 67.4747L122.984 67.6368C141.647 67.6368 160.309 67.6368 178.957 67.6368C180.711 67.6368 182.465 67.6368 184.204 67.6368C184.204 68.6388 184.204 69.6408 184.204 70.6281C184.204 71.5565 184.204 72.4995 184.204 73.4279C184.204 90.7276 184.204 107.998 184.204 125.283V125.342C188.848 121.422 193.536 117.488 198.282 113.538L198.312 113.568Z" fill="white"></path><path d="M146.913 116.103C127.793 116.103 108.674 116.103 89.5694 116.103C89.5694 113.76 89.5694 111.417 89.5547 109.074H146.913V112.713C146.913 113.848 146.913 114.968 146.913 116.103Z" fill="#D3D3D3"></path><path d="M173.625 137.234C164.721 144.616 155.818 152.014 146.914 159.396C146.914 159.381 146.914 164.627 146.914 164.613C146.914 165.482 146.914 169.136 146.914 170.035C146.914 170.035 146.929 170.035 146.944 170.035C155.862 162.712 164.766 155.373 173.684 148.05C173.669 130.735 173.655 113.421 173.64 96.1211C173.64 111.579 173.64 121.776 173.64 137.234H173.625Z" fill="#D3D3D3"></path><path d="M160.106 152.176C164.631 148.418 169.128 144.719 173.624 141.065C173.624 125.607 173.624 110.135 173.624 94.6769V85.585C164.749 85.6144 155.875 85.6586 147.001 85.6881L123.504 85.6144L113.082 85.585C105.342 93.3359 97.6181 101.072 89.8938 108.808L89.7021 109L89.5547 109.147C107.038 109.147 124.521 109.147 141.989 109.147C143.625 109.147 145.276 109.147 146.913 109.147C146.913 110.09 146.913 111.019 146.913 111.962C146.913 112.831 146.913 113.715 146.913 114.585C146.913 130.779 146.913 146.974 146.913 163.168V163.227C151.261 159.558 155.654 155.86 160.106 152.176Z" fill="white"></path></svg>