<svg xmlns="http://www.w3.org/2000/svg" width="417" height="229" viewBox="0 0 417 229" fill="none"><path d="M47.2639 101.136V14.1859L71.8937 42.6382H84.1135L55.8381 9.96956H84.3745V0.143311H0.703125V9.96956H29.2395L0.973004 42.6382H13.1883L37.4907 14.5619L37.6279 14.4027L37.6677 101.136H47.2639Z" fill="white"></path><mask id="mask0_4417_239" style="mask-type:luminance" maskUnits="userSpaceOnUse" x="-62" y="-133" width="479" height="479"><path d="M416.664 -133H-62V346H416.664V-133Z" fill="white"></path></mask><g mask="url(#mask0_4417_239)"><path d="M85.0242 45.8723C81.4582 51.9512 79.6797 58.6008 79.6797 65.8345C79.6797 73.0681 81.4582 79.731 85.0242 85.863C88.5857 91.9862 93.4302 96.8263 99.5578 100.397C105.677 103.963 112.362 105.741 119.586 105.741C128.223 105.741 135.983 103.255 142.854 98.2863C149.733 93.3179 154.529 86.8098 157.237 78.7754H146.247C143.831 84.2039 140.274 88.4733 135.553 91.5792C130.833 94.6938 125.51 96.2512 119.586 96.2512C114.065 96.2512 108.99 94.8929 104.376 92.1897C99.7569 89.4688 96.0627 85.779 93.3019 81.107C91.1031 77.3906 89.7758 73.4043 89.329 69.1438H159.192C159.498 60.3042 157.834 52.6015 154.224 46.0271C150.609 39.4527 145.738 34.4754 139.611 31.1174C133.487 27.7461 126.816 26.0693 119.582 26.0693C112.348 26.0693 105.677 27.8479 99.5534 31.4138C99.0269 31.7191 98.5049 32.0332 97.9961 32.3695C97.6333 32.5995 97.2749 32.8384 96.921 33.0773C96.8723 33.1083 96.8281 33.1437 96.7838 33.1747C94.3549 34.8515 92.1516 36.7539 90.1873 38.882C88.2362 40.9923 86.5151 43.3151 85.0197 45.8678M93.3064 50.6151C96.0671 45.9917 99.7569 42.3373 104.38 39.6164C108.995 36.9043 114.069 35.5549 119.591 35.5549C125.112 35.5549 130.333 36.9397 134.956 39.6916C139.571 42.4612 143.212 46.1997 145.871 50.9203C147.764 54.2828 148.937 57.8398 149.375 61.6049H89.4484C89.9838 57.6983 91.2668 54.0261 93.3108 50.6151" fill="white"></path><path d="M346.132 27.2684H344.353V42.1117C341.141 37.7671 337.146 34.2012 332.381 31.4095C326.311 27.8435 319.653 26.0605 312.428 26.0605C305.203 26.0605 298.522 27.8391 292.399 31.4095C286.267 34.9754 281.427 39.7978 277.857 45.8679C274.295 51.9468 272.508 58.5965 272.508 65.8301C272.508 73.0638 274.295 79.7267 277.857 85.8587C281.423 91.9774 286.267 96.822 292.399 100.392C298.522 103.958 305.194 105.737 312.428 105.737C319.661 105.737 326.311 103.958 332.381 100.392C337.142 97.6006 341.141 94.0126 344.353 89.6414V104.538H353.967V27.2684H346.132ZM338.487 80.9655C335.77 85.6375 332.111 89.3184 327.488 92.0305C322.865 94.7426 317.847 96.1008 312.428 96.1008C307.008 96.1008 301.832 94.7647 297.217 92.1057C292.594 89.4512 288.931 85.779 286.219 81.107C283.506 76.4439 282.157 71.3516 282.157 65.8345C282.157 60.3175 283.506 55.3889 286.219 50.7655C288.931 46.1511 292.62 42.4878 297.292 39.7757C301.956 37.0637 307.008 35.7054 312.428 35.7054C317.847 35.7054 322.865 37.0637 327.488 39.7757C332.111 42.4878 335.766 46.1511 338.487 50.7655C341.19 55.3889 342.548 60.406 342.548 65.8345C342.548 71.2631 341.19 76.2979 338.487 80.9699" fill="white"></path><path d="M183.513 53.4777L214.691 36.3072V25.4634L181.553 43.6868V27.2685H173.727V104.538H183.513V53.4777Z" fill="white"></path><path d="M235.796 27.2685H227.961V104.538H237.752V53.4777L268.925 36.3072V25.4634L235.796 43.6868V27.2685Z" fill="white"></path><path d="M20.3594 49.3809V54.2121H21.2929V52.3318H27.8098V54.2121H28.7389V49.3809H27.8098V51.2612H21.2929V49.3809H20.3594Z" fill="white"></path><path d="M23.7936 60.1893H20.356V61.2378H23.9308C25.5943 61.2378 26.3774 60.3574 26.3774 59.0124C26.3774 57.6674 25.6253 56.9861 24.5634 56.7472V56.4508L25.2713 56.6322H26.2579V55.5659H20.3516V56.6322H22.9397C24.5369 56.6322 25.4748 57.4816 25.4748 58.716C25.4748 59.7203 25.0059 60.1893 23.7848 60.1893" fill="white"></path><path d="M20.3594 66.5336H21.2663L21.2487 64.4409H25.3588V66.2947H26.2657V64.4409H28.0797L27.7567 63.388H26.2657V62.0784H25.3588V63.388H21.1911C20.6248 63.388 20.3594 63.6622 20.3594 64.2197V66.5336Z" fill="white"></path><path d="M22.4312 73.0904V72.0418C21.6171 71.8339 21.0906 71.241 21.0906 70.2367C21.0906 69.0112 21.971 68.4095 23.1258 68.3653V73.0594H23.5018C25.3335 73.0594 26.3864 71.9224 26.3864 70.1748C26.3864 68.4272 25.3069 67.3433 23.3956 67.3433C21.6481 67.3433 20.25 68.321 20.25 70.2412C20.25 72.0639 21.3384 72.8426 22.4312 73.0859M23.8735 68.3874C24.9353 68.4715 25.5547 69.2015 25.5547 70.1836C25.5547 71.2366 24.9353 71.9622 23.8735 72.0374V68.3874Z" fill="white"></path><path d="M25.4428 74.5193H20.3594V75.5723H25.3588V78.6869H26.2657V75.351C26.2657 74.7892 26.0003 74.5193 25.4428 74.5193Z" fill="white"></path><path d="M28.0664 80.4878C27.6063 80.4878 27.2656 80.8594 27.2656 81.3196C27.2656 81.7797 27.6019 82.1734 28.0664 82.1734C28.531 82.1734 28.8672 81.7974 28.8672 81.3196C28.8672 80.8417 28.531 80.4878 28.0664 80.4878Z" fill="white"></path><path d="M20.3594 79.3284V83.5889H21.2663V81.9431H25.5756C26.0622 81.9431 26.2702 81.7042 26.2702 81.275V79.7442H25.3632V80.9698H21.2663V79.3284H20.3594Z" fill="white"></path><path d="M23.317 84.1553C21.5606 84.1553 20.2422 85.4073 20.2422 87.2921C20.2422 89.1768 21.5606 90.4156 23.317 90.4156C25.0735 90.4156 26.383 89.1724 26.383 87.2921C26.383 85.4118 25.0646 84.1553 23.317 84.1553ZM23.317 89.3715C22.1225 89.3715 21.1403 88.637 21.1403 87.2965C21.1403 85.9559 22.1225 85.2038 23.317 85.2038C24.5116 85.2038 25.4849 85.9427 25.4849 87.2965C25.4849 88.6503 24.5027 89.3715 23.317 89.3715Z" fill="white"></path><path d="M26.2657 96.0036V92.6677C26.2657 92.1058 26.0047 91.8359 25.4428 91.8359H20.3594V92.8889H25.3632V96.0036H26.2702H26.2657Z" fill="white"></path><path d="M21.9898 105.025V105.321L21.3571 105.157H21.0784C20.6271 105.157 20.3616 105.423 20.3616 105.874V106.954H21.2686V106.091H23.7727C25.3301 106.091 26.383 105.157 26.383 103.436C26.383 101.905 25.5026 101.007 24.1665 100.875V101.923C25.1487 102.016 25.5247 102.631 25.5247 103.454C25.5247 104.503 25.0115 104.985 23.9497 105.029L23.7196 102.715C23.5869 101.313 22.9366 100.746 21.9986 100.746C21.3836 100.746 20.2422 101.012 20.2422 102.737C20.2422 104.18 21.0828 104.803 21.9898 105.029M22.1313 101.786C22.6976 101.786 22.9056 102.167 22.9719 102.892L23.202 105.025C22.0163 105.025 21.1093 104.184 21.1093 102.897C21.1093 102.22 21.4544 101.782 22.1313 101.782" fill="white"></path><path d="M23.7936 112.678H20.356V113.727H23.9308C25.5943 113.727 26.3774 112.847 26.3774 111.502C26.3774 110.157 25.6253 109.475 24.5634 109.236V108.94L25.2713 109.113H26.2579V108.06H20.3516V109.113H22.9397C24.5369 109.113 25.4748 109.971 25.4748 111.205C25.4748 112.201 25.0059 112.678 23.7848 112.678" fill="white"></path><path d="M21.8958 120.217V120.514L21.1879 120.341H20.365V121.39H29.0985V120.341H25.4485L24.7495 120.514V120.217C25.6653 119.961 26.3909 119.187 26.3909 117.837C26.3909 116.107 25.0724 115.028 23.3249 115.028C21.5773 115.028 20.25 116.107 20.25 117.837C20.25 119.187 20.9844 119.961 21.8958 120.217ZM23.3204 116.09C24.8424 116.09 25.4883 116.961 25.4883 118.165C25.4883 119.368 24.8468 120.341 23.3204 120.341C21.7941 120.341 21.1437 119.368 21.1437 118.165C21.1437 116.961 21.8029 116.09 23.3204 116.09Z" fill="white"></path><path d="M28.7389 129.088L20.3594 126.429V127.549L23.5625 128.553V131.937L20.3594 132.951V134.079L28.7389 131.402V129.088ZM28.4425 130.398L24.496 131.641V128.849L28.4425 130.101V130.398Z" fill="white"></path><path d="M26.2657 139.414V136.078C26.2657 135.516 26.0047 135.247 25.4428 135.247H20.3594V136.3H25.3632V139.414H26.2702H26.2657Z" fill="white"></path><path d="M24.0072 144.635V145.697C25.7106 145.551 26.3786 144.091 26.3786 142.905C26.3786 140.994 25.0381 139.874 23.3126 139.874C21.5872 139.874 20.2422 140.994 20.2422 142.905C20.2422 144.091 20.9102 145.551 22.6136 145.697V144.635C21.5341 144.471 21.1403 143.763 21.1403 142.905C21.1403 141.569 22.1225 140.918 23.317 140.918C24.5116 140.918 25.4849 141.569 25.4849 142.905C25.4849 143.763 25.0867 144.471 24.0116 144.635" fill="white"></path><path d="M20.3526 148.179H22.8567C24.4539 148.179 25.4759 148.979 25.4759 150.254C25.4759 151.267 24.9981 151.727 23.7858 151.727H20.3482V152.776H23.8964C25.4847 152.776 26.3696 151.966 26.3696 150.625C26.3696 149.285 25.6219 148.559 24.5556 148.294V147.988L25.2635 148.179H29.0772V147.126H20.3438V148.179H20.3526Z" fill="white"></path><path d="M20.3594 154.103V158.372H21.2663V156.726H25.5756C26.0622 156.726 26.2702 156.487 26.2702 156.058V154.527H25.3632V155.748H21.2663V154.107H20.3594V154.103Z" fill="white"></path><path d="M28.0664 155.271C27.6063 155.271 27.2656 155.634 27.2656 156.103C27.2656 156.571 27.6019 156.952 28.0664 156.952C28.531 156.952 28.8672 156.571 28.8672 156.103C28.8672 155.634 28.531 155.271 28.0664 155.271Z" fill="white"></path><path d="M26.2736 159.77V158.46H25.3666V159.77H21.1989C20.6282 159.77 20.3672 160.044 20.3672 160.602V162.916H21.2742L21.2565 160.823H25.3666V162.677H26.2736V160.823H28.0831L27.7601 159.77H26.2691H26.2736Z" fill="white"></path><path d="M23.3878 163.743C21.6402 163.743 20.2422 164.717 20.2422 166.637C20.2422 168.459 21.3306 169.238 22.4233 169.477V168.428C21.6093 168.234 21.0828 167.628 21.0828 166.623C21.0828 165.398 21.9632 164.796 23.1179 164.761V169.446H23.494C25.3257 169.446 26.3786 168.309 26.3786 166.561C26.3786 164.814 25.2991 163.734 23.3878 163.734M23.8701 168.42V164.77C24.9319 164.849 25.5513 165.584 25.5513 166.566C25.5513 167.619 24.9319 168.344 23.8701 168.42Z" fill="white"></path><path d="M24.0072 175.423V176.485C25.7106 176.339 26.3786 174.879 26.3786 173.693C26.3786 171.782 25.0381 170.663 23.3126 170.663C21.5872 170.663 20.2422 171.782 20.2422 173.693C20.2422 174.879 20.9102 176.339 22.6136 176.485V175.423C21.5341 175.259 21.1403 174.543 21.1403 173.693C21.1403 172.357 22.1225 171.707 23.317 171.707C24.5116 171.707 25.4849 172.357 25.4849 173.693C25.4849 174.543 25.0867 175.259 24.0116 175.423" fill="white"></path><path d="M26.2736 178.454V177.144H25.3666V178.454H21.1989C20.6282 178.454 20.3672 178.728 20.3672 179.285V181.599H21.2742L21.2565 179.507H25.3666V181.36H26.2736V179.507H28.0831L27.7601 178.454H26.2691H26.2736Z" fill="white"></path><path d="M22.0551 187.227V187.515L21.3561 187.351H20.3606V188.395H26.267V187.351H23.6876C22.0816 187.351 21.1437 186.479 21.1437 185.258C21.1437 184.245 21.6215 183.785 22.8338 183.785H26.2714V182.732H22.6966C21.0419 182.732 20.25 183.604 20.25 184.966C20.25 186.249 21.0021 186.992 22.0639 187.231" fill="white"></path><path d="M26.2657 194.058V190.722C26.2657 190.16 26.0047 189.89 25.4428 189.89H20.3594V190.943H25.3632V194.058H26.2702H26.2657Z" fill="white"></path><path d="M23.3878 194.593C21.6402 194.593 20.2422 195.567 20.2422 197.491C20.2422 199.305 21.3306 200.093 22.4233 200.327V199.287C21.6093 199.08 21.0828 198.487 21.0828 197.474C21.0828 196.252 21.9632 195.646 23.1179 195.611V200.296H23.494C25.3257 200.296 26.3786 199.159 26.3786 197.412C26.3786 195.664 25.2991 194.584 23.3878 194.584M23.8701 199.274V195.624C24.9319 195.717 25.5513 196.447 25.5513 197.42C25.5513 198.473 24.9319 199.199 23.8701 199.274Z" fill="white"></path><path d="M47.2967 114.457H47.164C47.1418 114.457 47.1197 114.453 47.102 114.448H37.6562V204.906H76.6162V195.266H47.2967V114.453V114.457Z" fill="white"></path><path d="M237.5 131.287C231.421 127.725 224.772 125.942 217.538 125.942C210.304 125.942 203.633 127.73 197.509 131.287C192.696 134.087 188.679 137.662 185.458 142.002V127.132H175.817V163.902C175.769 164.495 175.742 165.097 175.742 165.694C175.742 166.292 175.764 166.893 175.817 167.486V228.019H185.458V189.506C188.679 193.877 192.7 197.46 197.509 200.265C203.633 203.831 210.313 205.61 217.538 205.61C224.763 205.61 231.421 203.831 237.5 200.265C243.57 196.699 248.393 191.855 251.959 185.732C255.516 179.608 257.299 172.928 257.299 165.694C257.299 158.461 255.52 151.82 251.959 145.741C248.393 139.671 243.57 134.848 237.5 131.282M243.601 180.843C240.889 185.506 237.226 189.196 232.603 191.908C227.988 194.62 222.962 195.978 217.542 195.978C212.123 195.978 206.946 194.642 202.336 191.983C197.713 189.329 194.054 185.665 191.338 180.993C188.626 176.321 187.276 171.229 187.276 165.703C187.276 160.177 188.626 155.262 191.338 150.643C194.054 146.028 197.74 142.365 202.412 139.653C207.084 136.941 212.123 135.583 217.547 135.583C222.971 135.583 227.993 136.941 232.607 139.653C237.23 142.365 240.894 146.028 243.606 150.643C246.318 155.266 247.676 160.283 247.676 165.703C247.676 171.123 246.318 176.175 243.606 180.843" fill="white"></path><path d="M152.885 127.641H151.107V142.502C147.895 138.158 143.899 134.587 139.13 131.782C133.06 128.221 126.41 126.438 119.177 126.438C111.943 126.438 105.271 128.225 99.1482 131.782C93.0162 135.348 88.1761 140.171 84.6145 146.241C81.0442 152.32 79.2656 158.969 79.2656 166.194C79.2656 173.419 81.0442 180.109 84.6145 186.232C88.1716 192.355 93.0162 197.199 99.1482 200.765C105.271 204.331 111.952 206.11 119.177 206.11C126.402 206.11 133.06 204.331 139.13 200.765C143.899 197.965 147.895 194.381 151.107 190.006V204.906H160.712V127.637H152.885V127.641ZM145.231 181.338C142.519 186.002 138.856 189.691 134.232 192.404C129.618 195.116 124.592 196.474 119.172 196.474C113.753 196.474 108.576 195.138 103.962 192.479C99.3384 189.824 95.6752 186.161 92.9631 181.489C90.251 176.817 88.9016 171.725 88.9016 166.199C88.9016 160.673 90.251 155.757 92.9631 151.139C95.6752 146.524 99.365 142.861 104.037 140.149C108.709 137.437 113.748 136.078 119.172 136.078C124.596 136.078 129.618 137.437 134.232 140.149C138.856 142.861 142.519 146.524 145.231 151.139C147.943 155.762 149.293 160.779 149.293 166.199C149.293 171.618 147.939 176.671 145.231 181.338Z" fill="white"></path><path d="M280.656 129.146H271.016V204.906H280.656V129.146Z" fill="white"></path><path d="M280.643 112.112H271.016V121.894H280.643V112.112Z" fill="white"></path><path d="M340.847 165.862C337.467 164.5 333.003 163.119 327.455 161.717C322.871 160.54 319.31 159.487 316.775 158.567C314.24 157.646 312.107 156.302 310.377 154.532C308.647 152.762 307.785 150.479 307.785 147.679C307.785 143.776 309.231 140.737 312.129 138.56C315.027 136.388 318.766 135.3 323.354 135.3C328.26 135.3 332.202 136.423 335.18 138.671C338.153 140.918 339.843 143.515 340.245 146.462H352.315C351.669 140.494 348.833 135.707 343.807 132.092C338.777 128.482 332.322 126.677 324.442 126.677C318.969 126.677 314.125 127.562 309.899 129.331C305.674 131.101 302.396 133.605 300.064 136.848C297.733 140.091 296.565 143.812 296.565 148.01C296.565 152.802 297.751 156.616 300.126 159.452C302.498 162.288 305.356 164.371 308.696 165.694C312.032 167.021 316.478 168.349 322.031 169.672C326.535 170.778 330.118 171.808 332.768 172.764C335.423 173.724 337.635 175.122 339.405 176.963C341.174 178.808 342.059 181.201 342.059 184.148C342.059 187.904 340.551 190.983 337.533 193.377C334.516 195.77 330.393 196.969 325.163 196.969C319.934 196.969 315.527 195.735 312.673 193.266C309.815 190.797 308.187 187.758 307.785 184.148H296.078C296.158 188.346 297.445 192.049 299.941 195.257C302.436 198.46 305.873 200.969 310.258 202.774C314.642 204.579 319.611 205.481 325.159 205.481C330.707 205.481 335.976 204.451 340.241 202.389C344.506 200.327 347.722 197.637 349.895 194.319C352.067 191.005 353.155 187.466 353.155 183.71C353.155 178.847 351.948 174.998 349.536 172.158C347.125 169.322 344.227 167.225 340.847 165.858" fill="white"></path></g></svg>