<svg xmlns="http://www.w3.org/2000/svg" width="314" height="659" viewBox="0 0 314 659" fill="none"><g clip-path="url(#clip0_4214_1875)"><path d="M266.52 609.86C266.095 609.727 265.749 609.434 265.563 609.062C265.377 608.663 265.35 608.211 265.483 607.812C266.387 605.391 266.813 602.864 266.813 600.284C266.813 588.315 257.078 578.606 245.135 578.606C234.522 578.606 225.531 586.213 223.749 596.667C223.67 597.172 223.324 597.624 222.845 597.837C222.366 598.05 221.834 598.023 221.382 597.784C219.44 596.64 217.233 596.055 214.998 596.055C208.003 596.055 202.311 601.747 202.311 608.743C202.311 610.578 202.71 612.36 203.481 614.036C203.667 614.408 203.667 614.86 203.534 615.259C203.375 615.658 203.082 615.977 202.71 616.164C198.454 618.079 195.688 622.335 195.688 626.989C195.688 633.559 201.034 638.879 207.604 638.879H262.344C270.51 638.879 277.16 632.229 277.16 624.063C277.16 617.573 272.798 611.722 266.547 609.886" fill="#7C7C7C"></path><path d="M165.466 608.078H128.414V610.126H165.466V608.078Z" fill="#7C7C7C"></path><path d="M164.802 606.641C166.158 606.641 167.276 607.758 167.276 609.115C167.276 610.471 166.158 611.588 164.802 611.588C163.445 611.588 162.328 610.471 162.328 609.115C162.328 607.758 163.445 606.641 164.802 606.641Z" fill="#7C7C7C"></path><path d="M168.292 609.115C168.292 611.03 166.723 612.599 164.808 612.599C162.893 612.599 161.297 611.03 161.297 609.115C161.297 607.2 162.866 605.63 164.808 605.63C166.75 605.63 168.292 607.2 168.292 609.115ZM163.345 609.115C163.345 609.913 164.01 610.578 164.808 610.578C165.606 610.578 166.271 609.913 166.271 609.115C166.271 608.317 165.606 607.652 164.808 607.652C164.01 607.652 163.345 608.317 163.345 609.115Z" fill="#7C7C7C"></path><path d="M75.3815 607.04C75.3815 607.04 75.2485 607.226 75.1953 607.306H75.4081C75.4081 607.306 75.4081 607.12 75.4081 607.04H75.3815Z" fill="#6D6D6D"></path><path d="M90.3278 591.959C86.9764 585.921 82.2684 581.08 76.2304 577.436C70.1925 573.818 63.0906 571.983 54.9513 571.983C46.812 571.983 39.2313 573.845 32.9274 577.595C26.5969 581.346 21.6761 586.479 18.165 593.023C14.654 599.566 12.8984 607.2 12.8984 615.871C12.8984 624.542 14.6806 631.804 18.2714 638.214C21.8357 644.651 26.7831 649.652 33.1136 653.243C39.4441 656.807 46.6524 658.616 54.8183 658.616C61.4148 658.616 67.2666 657.392 72.4002 654.972C77.5072 652.551 81.8694 649.279 85.4336 645.157C88.9979 641.034 91.4982 636.432 92.9345 631.378H72.9588C71.416 634.677 69.1285 637.31 66.1228 639.305C63.0906 641.273 59.2869 642.284 54.6587 642.284C50.4827 642.284 46.7056 641.326 43.3542 639.385C40.0027 637.469 37.3428 634.65 35.3479 630.979C33.6988 627.894 32.7146 624.303 32.4486 620.18H95.0624C95.1688 618.637 95.2486 617.201 95.3018 615.898C95.355 614.568 95.3816 613.371 95.3816 612.28C95.3816 604.806 93.7059 598.023 90.3544 591.985L90.3278 591.959ZM59.6327 586.905C59.9519 587.011 60.2179 587.118 60.3775 587.171C62 587.809 63.3565 588.634 64.4737 589.565C67.2666 591.799 68.7029 594.432 69.1285 595.284C70.0861 595.284 70.9904 595.47 71.815 595.789C74.8739 596.986 76.8156 600.098 76.5496 603.077C76.4432 604.274 75.991 605.391 75.2729 606.375C75.2729 606.455 75.2729 606.535 75.2729 606.641H75.0601C73.9961 607.998 72.4002 609.009 70.5383 609.354H38.2738C37.8216 609.248 37.396 609.142 36.9704 608.982C35.6671 608.477 34.5765 607.652 33.7786 606.641C33.4062 606.189 33.1136 605.684 32.8742 605.178C32.6614 604.726 32.5018 604.247 32.422 603.769C32.3688 603.556 32.3422 603.316 32.3156 603.077C32.1028 600.284 33.9648 597.358 36.8374 596.108C37.8748 595.656 39.0186 595.443 40.2687 595.496C40.7209 594.539 42.1306 591.879 44.8703 589.591C45.8013 588.82 46.9184 588.102 48.1686 587.517C48.7006 587.277 49.2325 587.065 49.7645 586.878C54.0469 585.442 57.824 586.32 59.5263 586.878L59.6327 586.905Z" fill="#6D6D6D"></path><path d="M244.657 405.846C245.96 405.58 247.157 405.713 248.327 406.245C249.391 406.644 250.562 405.846 250.562 404.809V392.6C250.562 391.669 249.897 391.03 248.992 391.03H236.783C235.613 391.03 234.815 389.833 235.347 388.796C235.879 387.759 236.012 386.429 235.746 385.125C235.347 382.625 233.246 380.524 230.746 380.125C226.676 379.327 223.138 382.359 223.138 386.296C223.138 387.227 223.271 387.998 223.67 388.796C224.069 389.833 223.271 391.03 222.234 391.03H210.025C209.094 391.03 208.456 391.695 208.456 392.6V404.809C208.456 405.979 207.285 406.777 206.221 406.245C205.157 405.713 203.854 405.58 202.551 405.846C200.05 406.245 197.949 408.346 197.55 410.847C196.752 414.916 199.784 418.454 203.721 418.454C204.652 418.454 205.423 418.321 206.221 417.922C207.259 417.523 208.456 418.321 208.456 419.358V431.567C208.456 432.498 209.121 433.136 210.025 433.136H222.234C223.404 433.136 224.202 431.966 223.67 430.902C223.138 429.838 223.005 428.535 223.271 427.231C223.67 424.731 225.772 422.63 228.272 422.231C232.341 421.433 235.879 424.465 235.879 428.402C235.879 429.333 235.746 430.104 235.347 430.902C234.948 431.939 235.746 433.136 236.783 433.136H248.992C249.923 433.136 250.562 432.471 250.562 431.567V419.358C250.562 418.161 249.391 417.39 248.327 417.922C247.529 418.188 246.758 418.454 245.827 418.454C241.89 418.454 238.858 414.916 239.656 410.847C240.055 408.346 242.156 406.378 244.657 405.846Z" fill="#7C7C7C"></path><path d="M307.826 405.846C306.895 405.846 306.124 405.979 305.326 406.378C304.661 406.644 303.89 406.112 303.89 405.341V391.696C303.89 391.164 303.358 390.658 302.826 390.658H289.181C288.383 390.658 287.877 391.589 288.25 392.228C288.782 393.159 289.048 394.196 289.048 395.26C289.048 398.665 286.281 401.564 282.877 401.697C279.339 401.83 276.307 398.93 276.307 395.393C276.307 394.355 276.573 393.291 277.105 392.361C277.504 391.696 276.972 390.791 276.174 390.791H262.768C262.236 390.791 261.73 391.323 261.73 391.829V405.367C261.73 406.165 260.799 406.671 260.161 406.298C259.23 405.766 258.193 405.5 257.129 405.5C253.724 405.5 250.825 408.267 250.692 411.671C250.559 415.209 253.458 418.241 256.996 418.241C258.06 418.241 259.097 417.975 260.028 417.443C260.693 417.044 261.597 417.576 261.597 418.374V432.02C261.597 432.551 262.129 433.057 262.635 433.057H276.174C276.972 433.057 277.477 432.126 277.105 431.488C276.573 430.557 276.307 429.519 276.307 428.455C276.307 425.051 279.073 422.151 282.478 422.018C286.015 421.885 289.048 424.785 289.048 428.322C289.048 429.36 288.782 430.424 288.25 431.355C287.851 432.02 288.383 432.924 289.181 432.924H302.826C303.358 432.924 303.89 432.392 303.89 431.886V419.013C303.89 418.215 304.688 417.709 305.326 418.082C306.124 418.348 306.895 418.481 307.693 418.481C311.231 418.481 314.13 415.581 313.997 411.911C313.864 408.639 311.098 405.873 307.826 405.873" fill="#7C7C7C"></path><path d="M163.529 405.554H126.477V407.602H163.529V405.554Z" fill="#7C7C7C"></path><path d="M162.833 404.091C164.19 404.091 165.307 405.208 165.307 406.565C165.307 407.921 164.19 409.038 162.833 409.038C161.477 409.038 160.359 407.921 160.359 406.565C160.359 405.208 161.477 404.091 162.833 404.091Z" fill="#7C7C7C"></path><path d="M166.347 406.564C166.347 408.479 164.778 410.049 162.863 410.049C160.947 410.049 159.352 408.479 159.352 406.564C159.352 404.649 160.921 403.08 162.863 403.08C164.804 403.08 166.347 404.649 166.347 406.564ZM161.373 406.564C161.373 407.362 162.038 408.027 162.836 408.027C163.634 408.027 164.299 407.362 164.299 406.564C164.299 405.766 163.634 405.101 162.836 405.101C162.038 405.101 161.373 405.766 161.373 406.564Z" fill="#7C7C7C"></path><path d="M5.39587 460.48C5.39587 450.24 5.39587 440.026 5.39587 429.785C3.74674 429.785 2.07101 429.785 0.421875 429.785C0.421875 441.675 0.421875 453.565 0.421875 465.454C10.3433 465.481 20.2913 465.507 30.2126 465.534C31.8618 465.534 33.4843 465.534 35.1334 465.561C35.1334 463.858 35.1334 462.156 35.1334 460.454C25.2386 460.454 15.3439 460.454 5.44907 460.454L5.39587 460.48Z" fill="#3B3B3B"></path><path d="M35.0782 460.48V429.785C25.1834 429.785 15.262 429.785 5.36719 429.785C5.36719 440.026 5.36719 450.24 5.36719 460.48C15.262 460.48 25.1568 460.48 35.0516 460.48H35.0782Z" fill="#6D6D6D"></path><path d="M69.5541 390.579V393.185C54.8449 393.185 40.1623 393.185 25.4531 393.185C25.4531 391.377 25.4531 389.568 25.4531 387.786H69.5541C69.5541 388.823 69.5541 389.754 69.5541 390.579Z" stroke="#6D6D6D" stroke-linecap="round" stroke-linejoin="round"></path><path d="M90.089 409.437C83.2531 415.129 76.3906 420.795 69.5547 426.487V430.503C69.5547 431.168 69.5547 433.988 69.5547 434.679C76.4172 429.041 83.2531 423.402 90.1156 417.763C90.1156 404.437 90.1156 391.137 90.089 377.811C90.089 389.701 90.089 397.547 90.089 409.437Z" stroke="#6D6D6D" stroke-linecap="round" stroke-linejoin="round"></path><path d="M79.6883 420.928C83.1727 418.028 86.6306 415.182 90.0884 412.389C90.0884 400.5 90.0884 388.61 90.0884 376.694V369.698C83.2525 369.698 76.4432 369.751 69.6073 369.778L51.5466 369.725H43.5404C37.5822 375.683 31.6507 381.641 25.7191 387.599L25.5595 387.759L25.4531 387.865C38.8856 387.865 52.3446 387.865 65.7771 387.865C67.0272 387.865 68.304 387.865 69.5541 387.865C69.5541 388.583 69.5541 389.302 69.5541 390.02C69.5541 390.685 69.5541 391.376 69.5541 392.041C69.5541 404.516 69.5541 416.964 69.5541 429.413V429.466C72.9056 426.646 76.2836 423.8 79.6883 420.954V420.928Z" stroke="#6D6D6D" stroke-linecap="round" stroke-linejoin="round"></path><path d="M42.6597 422.763C28.8814 422.763 15.1032 422.763 1.35156 422.763C1.35156 421.087 1.35156 419.385 1.35156 417.683H42.6862V420.289C42.6862 421.114 42.6862 421.912 42.6862 422.736L42.6597 422.763Z" stroke="#6D6D6D" stroke-linecap="round" stroke-linejoin="round"></path><path d="M61.8873 438.004C55.4769 443.324 49.0666 448.644 42.6562 453.99C42.6562 453.99 42.6562 457.767 42.6562 457.741C42.6562 458.379 42.6562 461.012 42.6562 461.651C49.0666 456.357 55.5035 451.091 61.9139 445.798C61.9139 433.323 61.9139 420.848 61.8873 408.373C61.8873 419.518 61.8873 426.859 61.8873 438.004Z" stroke="#6D6D6D" stroke-linecap="round" stroke-linejoin="round"></path><path d="M52.1555 448.75C55.4271 446.037 58.6722 443.377 61.8907 440.744V407.309C61.8907 405.128 61.8907 402.947 61.8907 400.766C55.5069 400.766 49.0966 400.819 42.7128 400.845L25.7959 400.792H18.2951C12.7359 406.378 7.15012 411.937 1.59095 417.523L1.45796 417.656L1.35156 417.762C13.9328 417.762 26.5407 417.762 39.122 417.762C40.2924 417.762 41.4893 417.762 42.6597 417.762C42.6597 418.427 42.6597 419.119 42.6597 419.784C42.6597 420.422 42.6597 421.034 42.6597 421.672C42.6597 433.349 42.6597 445.026 42.6597 456.677V456.73C45.7983 454.07 48.9636 451.437 52.1555 448.75Z" stroke="#6D6D6D" stroke-linecap="round" stroke-linejoin="round"></path><path fill-rule="evenodd" clip-rule="evenodd" d="M199.516 250.163L229.705 210.424L260.055 250.163H239.387V267.106H220.05V250.163H199.516Z" fill="#7C7C7C"></path><path d="M168.052 237.768H131V239.816H168.052V237.768Z" fill="#7C7C7C"></path><path d="M167.388 236.305C168.744 236.305 169.861 237.422 169.861 238.778C169.861 240.135 168.744 241.252 167.388 241.252C166.031 241.252 164.914 240.135 164.914 238.778C164.914 237.422 166.031 236.305 167.388 236.305Z" fill="#7C7C7C"></path><path d="M170.871 238.778C170.871 240.694 169.301 242.263 167.359 242.263C165.418 242.263 163.875 240.694 163.875 238.778C163.875 236.863 165.444 235.294 167.359 235.294C169.275 235.294 170.871 236.863 170.871 238.778ZM165.923 238.778C165.923 239.576 166.588 240.241 167.386 240.241C168.184 240.241 168.849 239.576 168.849 238.778C168.849 237.98 168.184 237.315 167.386 237.315C166.588 237.315 165.923 237.98 165.923 238.778Z" fill="#7C7C7C"></path><path d="M14.7631 281.55C14.7631 271.309 14.7631 261.095 14.7631 250.854C13.1139 250.854 11.4382 250.854 9.78906 250.854C9.78906 262.744 9.78906 274.634 9.78906 286.524C19.7105 286.55 29.6584 286.577 39.5798 286.603C41.229 286.603 42.8515 286.603 44.5006 286.63C44.5006 284.928 44.5006 283.225 44.5006 281.523C34.6058 281.523 24.711 281.523 14.8163 281.523L14.7631 281.55Z" stroke="#6D6D6D" stroke-miterlimit="10"></path><path d="M44.4453 281.55V250.854C34.5506 250.854 24.6292 250.854 14.7344 250.854C14.7344 261.095 14.7344 271.309 14.7344 281.55C24.6292 281.55 34.524 281.55 44.4187 281.55H44.4453Z" stroke="#6D6D6D" stroke-miterlimit="10"></path><path d="M78.9213 211.674V214.281C64.2121 214.281 49.5295 214.281 34.8203 214.281C34.8203 212.472 34.8203 210.663 34.8203 208.881H78.9213C78.9213 209.919 78.9213 210.85 78.9213 211.674Z" fill="#3B3B3B"></path><path d="M99.4797 230.533C92.6437 236.225 85.7812 241.891 78.9453 247.583V251.599C78.9453 252.264 78.9453 255.084 78.9453 255.775C85.8078 250.136 92.6437 244.497 99.5063 238.858C99.5063 225.532 99.5063 212.233 99.4797 198.907C99.4797 210.796 99.4797 218.643 99.4797 230.533Z" fill="#3B3B3B"></path><path d="M89.0789 242.023C92.5634 239.124 96.0212 236.278 99.4791 233.485C99.4791 221.595 99.4791 209.706 99.4791 197.789V190.794C92.6432 190.794 85.8338 190.847 78.9979 190.874L60.9373 190.821H52.931C46.9728 196.779 41.0413 202.737 35.1097 208.695L34.9501 208.855L34.8438 208.961C48.2762 208.961 61.7352 208.961 75.1677 208.961C76.4178 208.961 77.6946 208.961 78.9447 208.961C78.9447 209.679 78.9447 210.397 78.9447 211.116C78.9447 211.78 78.9447 212.472 78.9447 213.137C78.9447 225.612 78.9447 238.06 78.9447 250.508V250.562C82.2962 247.742 85.6742 244.896 89.0789 242.05V242.023Z" fill="#6D6D6D"></path><path d="M52.0268 243.859C38.2486 243.859 24.4704 243.859 10.7188 243.859C10.7188 242.183 10.7188 240.481 10.7188 238.778H52.0534V241.385C52.0534 242.21 52.0534 243.008 52.0534 243.832L52.0268 243.859Z" fill="#3B3B3B"></path><path d="M71.2857 259.073C64.8754 264.393 58.465 269.713 52.0547 275.059C52.0547 275.059 52.0547 278.836 52.0547 278.809C52.0547 279.448 52.0547 282.081 52.0547 282.719C58.465 277.426 64.902 272.16 71.3123 266.867C71.3123 254.392 71.3123 241.917 71.2857 229.442C71.2857 240.587 71.2857 247.928 71.2857 259.073Z" fill="#3B3B3B"></path><path d="M61.5461 269.846C64.8177 267.133 68.0628 264.473 71.2813 261.839V228.405C71.2813 226.224 71.2813 224.042 71.2813 221.861C64.8975 221.861 58.4872 221.915 52.1035 221.941L35.1866 221.888H27.6857C22.1265 227.474 16.5407 233.033 10.9816 238.619L10.8486 238.752L10.7422 238.858C23.3235 238.858 35.9313 238.858 48.5126 238.858C49.683 238.858 50.8799 238.858 52.0503 238.858C52.0503 239.523 52.0503 240.215 52.0503 240.88C52.0503 241.518 52.0503 242.13 52.0503 242.768C52.0503 254.445 52.0503 266.122 52.0503 277.772V277.825C55.1889 275.166 58.3542 272.532 61.5461 269.846Z" fill="#6D6D6D"></path><path d="M171.959 43.3296H134.906V45.3777H171.959V43.3296Z" fill="#7C7C7C"></path><path d="M171.271 41.8667C172.627 41.8667 173.744 42.9839 173.744 44.3404C173.744 45.6969 172.627 46.8141 171.271 46.8141C169.914 46.8141 168.797 45.6969 168.797 44.3404C168.797 42.9839 169.914 41.8667 171.271 41.8667Z" fill="#7C7C7C"></path><path d="M174.777 44.3668C174.777 46.2819 173.207 47.8512 171.266 47.8512C169.324 47.8512 167.781 46.2819 167.781 44.3668C167.781 42.4517 169.351 40.8823 171.266 40.8823C173.181 40.8823 174.777 42.4517 174.777 44.3668ZM169.829 44.3668C169.829 45.1647 170.494 45.8297 171.292 45.8297C172.09 45.8297 172.755 45.1647 172.755 44.3668C172.755 43.5688 172.09 42.9038 171.292 42.9038C170.494 42.9038 169.829 43.5688 169.829 44.3668Z" fill="#7C7C7C"></path><path d="M14.5209 90.6493C14.5209 80.4619 14.5209 70.2479 14.5209 60.0605C12.8717 60.0605 11.196 60.0605 9.54688 60.0605C9.54688 71.8971 9.54688 83.7602 9.54688 95.5967C19.4683 95.6233 29.4163 95.6499 39.3376 95.6765C40.9868 95.6765 42.6093 95.6765 44.2584 95.7031C44.2584 94.0007 44.2584 92.325 44.2584 90.6227C34.3636 90.6227 24.4689 90.6227 14.5741 90.6227L14.5209 90.6493Z" fill="#3B3B3B"></path><path d="M44.2032 90.6493V60.0605C34.3084 60.0605 24.387 60.0605 14.4922 60.0605C14.4922 70.2479 14.4922 80.4619 14.4922 90.6493C24.387 90.6493 34.2818 90.6493 44.1766 90.6493H44.2032Z" fill="#6D6D6D"></path><path d="M78.6791 20.8803V23.487C63.9699 23.487 49.2873 23.487 34.5781 23.487C34.5781 21.6783 34.5781 19.8695 34.5781 18.0874H78.6791C78.6791 19.1248 78.6791 20.0557 78.6791 20.8803Z" fill="#3B3B3B"></path><path d="M99.214 39.7389C92.3781 45.431 85.5156 51.0966 78.6797 56.7888V60.8052C78.6797 61.4702 78.6797 64.2897 78.6797 64.9812C85.5422 59.3423 92.3781 53.7033 99.2406 48.0643C99.2406 34.7383 99.2406 21.4388 99.214 8.11279C99.214 20.0025 99.214 27.8492 99.214 39.7389Z" fill="#3B3B3B"></path><path d="M88.8399 51.2295C92.3243 48.3302 95.7822 45.4841 99.2401 42.6912C99.2401 30.8015 99.2401 18.9118 99.2401 6.99551V0C92.4041 0 85.5948 0.0531978 78.7589 0.0797967L60.6982 0.0265989L52.6654 0C46.7072 5.95815 40.7757 11.9163 34.8441 17.8745L34.6845 18.0341L34.5781 18.1404C48.0106 18.1404 61.4696 18.1404 74.9021 18.1404C76.1522 18.1404 77.429 18.1404 78.6791 18.1404C78.6791 18.8586 78.6791 19.5768 78.6791 20.295C78.6791 20.9599 78.6791 21.6515 78.6791 22.3165C78.6791 34.7914 78.6791 47.2396 78.6791 59.6879V59.7411C82.0306 56.9216 85.4086 54.0756 88.8133 51.2295H88.8399Z" fill="#6D6D6D"></path><path d="M51.7846 53.0379C38.0064 53.0379 24.2282 53.0379 10.4766 53.0379C10.4766 51.3622 10.4766 49.6598 10.4766 47.9575H51.8112V50.5642C51.8112 51.3888 51.8112 52.1867 51.8112 53.0113L51.7846 53.0379Z" fill="#3B3B3B"></path><path d="M71.0435 68.2791C64.6332 73.5989 58.2228 78.9187 51.8125 84.2651C51.8125 84.2651 51.8125 88.0421 51.8125 88.0155C51.8125 88.6539 51.8125 91.2872 51.8125 91.9256C58.2228 86.6324 64.6598 81.3658 71.0701 76.0726C71.0701 63.5977 71.0701 51.1228 71.0435 38.6479C71.0435 49.7929 71.0435 57.1342 71.0435 68.2791Z" fill="#3B3B3B"></path><path d="M61.3039 79.0518C64.5756 76.3387 67.8206 73.6788 71.0391 71.0455C71.0391 59.9006 71.0391 48.7557 71.0391 37.6107V31.0674C64.6553 31.0674 58.245 31.1206 51.8613 31.1472L34.9444 31.094H27.4435C21.8843 36.6797 16.2986 42.2389 10.7394 47.8247L10.6064 47.9577L10.5 48.0641C23.0813 48.0641 35.6892 48.0641 48.2704 48.0641C49.4408 48.0641 50.6377 48.0641 51.8081 48.0641C51.8081 48.729 51.8081 49.4206 51.8081 50.0856C51.8081 50.724 51.8081 51.3357 51.8081 51.9741C51.8081 63.651 51.8081 75.328 51.8081 86.9783V87.0315C54.9468 84.3716 58.112 81.7383 61.3039 79.0518Z" fill="#6D6D6D"></path><path d="M285.486 8.88379L265.431 28.9128H235.613C235.214 28.9128 234.815 29.1256 234.416 29.3117C234.017 29.5245 233.618 29.7107 233.405 29.9235L203.588 59.5547C203.375 59.7675 203.375 59.9537 203.189 59.9537C202.391 60.5654 201.992 61.3634 201.992 62.3476C201.992 63.1455 202.391 63.9435 202.79 64.5553C203.402 65.1671 203.987 65.3532 204.998 65.3532H233.219V93.3885C233.219 94.1865 233.618 94.9844 234.017 95.5962C234.416 96.208 235.214 96.3942 236.225 96.3942C237.023 96.3942 237.635 95.9952 238.22 95.5962C238.433 95.3834 238.832 95.1972 239.018 94.9844L268.649 65.3532C269.261 64.7415 269.447 63.9435 269.447 63.1455V33.3282L289.742 13.0332C288.146 11.8363 286.71 10.4265 285.486 8.91039V8.88379ZM234.815 59.5281H212.206L217.021 54.7137H239.63L234.815 59.5281ZM243.806 81.7382L239.204 86.3398V63.7307L243.806 59.1291V81.7382ZM245.614 48.7289H223.005L227.022 44.7125H249.631L245.614 48.7289ZM253.833 71.737L249.817 75.7534V53.1444L253.833 49.1279V71.737ZM255.429 38.7012H232.82L236.837 34.6847H259.446L255.429 38.7012ZM263.622 61.922L259.605 65.9384V43.1166L263.622 39.1001V61.922Z" fill="#7C7C7C"></path></g><defs><clipPath id="clip0_4214_1875"><rect width="314" height="658.615" fill="white"></rect></clipPath></defs></svg>