<svg xmlns="http://www.w3.org/2000/svg" width="186" height="186" viewBox="0 0 186 186" fill="none"><path d="M92.9844 185C143.795 185 184.984 143.81 184.984 93C184.984 42.1898 143.795 1 92.9844 1C42.1742 1 0.984375 42.1898 0.984375 93C0.984375 143.81 42.1742 185 92.9844 185Z" stroke="#2353F9" stroke-width="1.75238"></path><path d="M92.9842 163.819C132.097 163.819 163.804 132.112 163.804 92.9993C163.804 53.8865 132.097 22.1792 92.9842 22.1792C53.8713 22.1792 22.1641 53.8865 22.1641 92.9993C22.1641 132.112 53.8713 163.819 92.9842 163.819Z" stroke="#2353F9" stroke-width="2.5034"></path><path d="M92.984 142.64C120.4 142.64 142.624 120.416 142.624 93.0001C142.624 65.5846 120.4 43.3599 92.984 43.3599C65.5685 43.3599 43.3438 65.5846 43.3438 93.0001C43.3438 120.416 65.5685 142.64 92.984 142.64Z" stroke="#2353F9" stroke-width="2.5034"></path><path d="M92.9863 125.431C110.898 125.431 125.418 110.911 125.418 92.9995C125.418 75.088 110.898 60.5679 92.9863 60.5679C75.0748 60.5679 60.5547 75.088 60.5547 92.9995C60.5547 110.911 75.0748 125.431 92.9863 125.431Z" stroke="#2353F9" stroke-width="2.5034"></path><path d="M92.9886 108.223C101.396 108.223 108.212 101.407 108.212 92.9999C108.212 84.5924 101.396 77.7769 92.9886 77.7769C84.5812 77.7769 77.7656 84.5924 77.7656 92.9999C77.7656 101.407 84.5812 108.223 92.9886 108.223Z" stroke="#2353F9" stroke-width="2.5034"></path></svg>