<svg xmlns="http://www.w3.org/2000/svg" width="584" height="129" viewBox="0 0 584 129" fill="none"><g clip-path="url(#clip0_4214_2011)"><path d="M107.453 94.7784V28.8273H121.495L122.94 41.2032C124.514 38.3051 126.461 35.8291 128.779 33.7671C131.098 31.7051 133.809 30.1058 136.917 28.9612C140.021 27.8206 143.501 27.2483 147.35 27.2483V43.9674H142.364C139.653 43.9674 137.116 44.2962 134.752 44.9538C132.389 45.6113 130.333 46.6667 128.585 48.1117C126.833 49.5608 125.502 51.5578 124.583 54.1028C123.664 56.6478 123.203 59.8098 123.203 63.5807V94.7784H107.453Z" fill="white"></path><path d="M181.202 96.3572C175.775 96.3572 171.271 95.4561 167.685 93.658C164.096 91.8598 161.429 89.4244 159.681 86.3517C157.929 83.279 157.055 79.9466 157.055 76.3462C157.055 72.1329 158.127 68.5123 160.272 65.4843C162.417 62.4562 165.585 60.0857 169.786 58.3769C173.986 56.664 179.146 55.8116 185.273 55.8116H201.941C201.941 52.3005 201.459 49.4064 200.496 47.1253C199.533 44.8441 198.024 43.1312 195.968 41.9906C193.912 40.85 191.351 40.2777 188.291 40.2777C184.617 40.2777 181.489 41.1138 178.907 42.778C176.325 44.4463 174.771 46.902 174.249 50.1492H158.762C159.199 45.4083 160.774 41.3533 163.485 37.9722C166.196 34.595 169.717 31.9607 174.051 30.0733C178.381 28.1858 183.128 27.2441 188.291 27.2441C194.503 27.2441 199.796 28.3198 204.171 30.4711C208.545 32.6224 211.892 35.695 214.211 39.6851C216.529 43.6791 217.687 48.485 217.687 54.0987V94.7742H204.3L202.726 84.2451C201.852 85.9133 200.735 87.4923 199.379 88.982C198.024 90.4757 196.47 91.7705 194.722 92.8665C192.969 93.9665 190.982 94.8188 188.749 95.4318C186.519 96.0447 184.002 96.3532 181.202 96.3532V96.3572ZM184.746 83.8514C187.284 83.8514 189.558 83.3886 191.569 82.4672C193.58 81.5458 195.288 80.251 196.688 78.5827C198.089 76.9185 199.181 75.0067 199.97 72.8554C200.759 70.7042 201.281 68.492 201.544 66.2068V65.9429H186.976C183.828 65.9429 181.266 66.3367 179.3 67.1282C177.333 67.9197 175.888 68.9953 174.97 70.3551C174.051 71.7149 173.59 73.3182 173.59 75.161C173.59 77.0038 174.047 78.5827 174.97 79.8979C175.888 81.213 177.179 82.1993 178.842 82.861C180.501 83.5185 182.472 83.8473 184.746 83.8473V83.8514Z" fill="white"></path><path d="M232.664 123.739V28.8272H246.706L248.414 38.4349C249.814 36.5068 251.498 34.6843 253.468 32.9714C255.435 31.2585 257.819 29.8785 260.619 28.8231C263.419 27.7718 266.697 27.2441 270.461 27.2441C276.672 27.2441 282.16 28.7582 286.931 31.7862C291.698 34.8142 295.461 38.9382 298.217 44.1622C300.973 49.3861 302.353 55.3286 302.353 61.9975C302.353 68.6665 300.953 74.4588 298.152 79.6381C295.352 84.8174 291.568 88.8967 286.801 91.8801C282.03 94.8635 276.583 96.3572 270.461 96.3572C265.475 96.3572 261.096 95.4115 257.337 93.5281C253.574 91.6406 250.599 88.9454 248.414 85.4344V123.739H232.664ZM267.179 82.6702C270.853 82.6702 274.135 81.7934 277.02 80.0359C279.906 78.2824 282.18 75.847 283.843 72.7296C285.502 69.6163 286.336 65.9957 286.336 61.8717C286.336 57.7477 285.502 54.1271 283.843 51.0098C282.18 47.8965 279.906 45.4611 277.02 43.7035C274.131 41.95 270.853 41.0692 267.179 41.0692C263.504 41.0692 260.093 41.9459 257.203 43.7035C254.314 45.4611 252.084 47.8965 250.51 51.0098C248.936 54.1271 248.147 57.7477 248.147 61.8717C248.147 65.9957 248.936 69.5068 250.51 72.6647C252.084 75.8226 254.314 78.2824 257.203 80.0359C260.089 81.7934 263.415 82.6702 267.179 82.6702Z" fill="white"></path><path d="M318.629 123.739L334.771 87.4071H330.834L304.453 28.8271H321.514L341.331 73.582L359.966 28.8271H376.635L335.164 123.735H318.629V123.739Z" fill="white"></path><path d="M411.814 96.3573C405.602 96.3573 400.111 94.8636 395.344 91.8802C390.573 88.8968 386.813 84.7931 384.058 79.5732C381.302 74.3533 379.922 68.4068 379.922 61.7378C379.922 55.0688 381.302 49.2563 384.058 44.0323C386.813 38.8124 390.621 34.7088 395.473 31.7254C400.33 28.742 405.861 27.2483 412.073 27.2483C416.974 27.2483 421.304 28.2143 425.067 30.1423C428.827 32.0744 431.76 34.7493 433.861 38.1711V0H449.611V94.7783H435.568L433.994 85.1706C432.594 87.1027 430.886 88.9211 428.875 90.6341C426.86 92.347 424.456 93.727 421.656 94.7824C418.855 95.8337 415.574 96.3613 411.814 96.3613V96.3573ZM415.096 82.6662C418.855 82.6662 422.162 81.7691 425.006 79.9669C427.847 78.1688 430.081 75.709 431.7 72.5957C433.319 69.4825 434.128 65.9064 434.128 61.8677C434.128 57.829 433.319 54.1231 431.7 51.0058C430.081 47.8925 427.827 45.4571 424.942 43.6995C422.056 41.946 418.73 41.0652 414.967 41.0652C411.203 41.0652 408.144 41.9419 405.254 43.6995C402.365 45.4571 400.115 47.8925 398.496 51.0058C396.878 54.1231 396.068 57.6991 396.068 61.7338C396.068 65.7684 396.878 69.4784 398.496 72.5957C400.115 75.7131 402.369 78.1688 405.254 79.9669C408.14 81.7651 411.422 82.6662 415.096 82.6662Z" fill="white"></path><path d="M513.387 55.2109C513.343 55.2759 513.291 55.3489 513.234 55.4179H513.404C513.4 55.3449 513.391 55.2799 513.387 55.2109Z" fill="white"></path><path d="M525.28 43.1759C522.609 38.3497 518.87 34.4896 514.058 31.5915C509.246 28.6974 503.605 27.2483 497.131 27.2483C490.656 27.2483 484.638 28.7461 479.608 31.7254C474.574 34.7128 470.661 38.8125 467.861 44.0324C465.056 49.2563 463.664 55.3368 463.664 62.2655C463.664 69.1943 465.084 74.9662 467.929 80.1009C470.77 85.2356 474.708 89.2297 479.742 92.0832C484.768 94.9326 490.518 96.3614 496.997 96.3614C502.25 96.3614 506.907 95.3953 510.978 93.4632C515.041 91.5352 518.501 88.9252 521.346 85.6334C524.187 82.3455 526.178 78.6802 527.315 74.6375H511.436C510.21 77.2758 508.397 79.3784 505.989 80.9614C503.585 82.5404 500.546 83.3319 496.872 83.3319C493.545 83.3319 490.546 82.5607 487.876 81.0223C485.205 79.4921 483.088 77.2555 481.51 74.3087C480.195 71.853 479.426 68.9792 479.216 65.6873H529.023C529.112 64.4574 529.173 63.3168 529.217 62.2655C529.262 61.2102 529.282 60.2523 529.282 59.3714C529.282 53.4047 527.942 48.0062 525.28 43.18V43.1759ZM500.862 39.1453C501.125 39.2346 501.327 39.3117 501.461 39.3604C502.743 39.8638 503.824 40.5376 504.726 41.2641C506.956 43.046 508.085 45.1486 508.433 45.8305C509.202 45.8305 509.918 45.9807 510.582 46.2405C513.006 47.1903 514.564 49.6744 514.349 52.0652C514.256 53.011 513.904 53.9161 513.342 54.6954C513.346 54.7604 513.354 54.8294 513.358 54.9025H513.188C512.338 55.9822 511.076 56.7899 509.603 57.0659H483.938C483.578 56.9888 483.238 56.8914 482.902 56.7615C481.87 56.3596 481 55.7021 480.357 54.9025C480.065 54.5371 479.819 54.1434 479.632 53.7294C479.467 53.3681 479.345 52.9907 479.268 52.6091C479.224 52.4305 479.204 52.2479 479.191 52.0652C479.021 49.8327 480.494 47.4947 482.793 46.5043C483.614 46.1512 484.537 45.9685 485.529 46.0254C485.897 45.2582 486.998 43.1313 489.199 41.3209C489.948 40.708 490.818 40.1316 491.833 39.6567C492.262 39.4578 492.683 39.2874 493.104 39.1494C496.507 37.9966 499.506 38.7029 500.87 39.1494L500.862 39.1453Z" fill="white"></path><path d="M544.102 94.7784V28.8273H558.144L559.588 41.2032C561.163 38.3051 563.109 35.8291 565.428 33.7671C567.747 31.7051 570.458 30.1058 573.566 28.9612C576.67 27.8206 580.15 27.2483 583.998 27.2483V43.9674H579.013C576.301 43.9674 573.764 44.2962 571.401 44.9538C569.038 45.6113 566.982 46.6667 565.234 48.1117C563.481 49.5608 562.15 51.5578 561.231 54.1028C560.313 56.6478 559.851 59.8098 559.851 63.5807V94.7784H544.102Z" fill="white"></path><path d="M4.98934 119.372C4.98125 109.167 4.97315 98.959 4.96506 88.7546C3.31399 88.7546 1.65888 88.7546 0.0078125 88.7587C0.0078125 100.619 0.0078125 112.476 0.0078125 124.336C9.88588 124.364 19.7599 124.393 29.638 124.421C31.2688 124.433 32.8996 124.446 34.5305 124.454C34.5224 122.761 34.5183 121.065 34.5143 119.372C24.6726 119.372 14.835 119.372 4.99339 119.372H4.98934Z" fill="#C40000"></path><path d="M34.5102 119.376H34.5183V88.7466C24.6645 88.7466 14.8147 88.7466 4.96094 88.7506C4.96903 98.9591 4.97712 109.168 4.98522 119.372C14.8269 119.372 24.6645 119.372 34.5061 119.372L34.5102 119.376Z" fill="#FC3030"></path><path d="M68.7965 49.6661V52.2679C54.1797 52.272 39.5549 52.272 24.9381 52.2801C24.934 50.486 24.9259 48.6838 24.9219 46.8816H65.0209L68.7884 46.8978C68.7884 47.9207 68.7884 48.8462 68.7925 49.6701L68.7965 49.6661Z" fill="#C40000"></path><path d="M89.2248 68.4799C82.4182 74.1503 75.6116 79.8167 68.8009 85.4872C68.8009 85.471 68.8009 89.5057 68.8009 89.4894C68.8009 90.1592 68.8009 92.9599 68.7969 93.654C68.805 93.654 68.809 93.654 68.8171 93.654C75.6318 88.0322 82.4465 82.4105 89.2612 76.7847C89.2491 63.4995 89.2369 50.2183 89.2248 36.9331C89.2248 48.7976 89.2248 56.6153 89.2248 68.4799Z" fill="#C40000"></path><path d="M78.8888 79.9425C82.3488 77.0606 85.7925 74.2192 89.2201 71.4185C89.2201 59.554 89.2201 47.6894 89.2201 35.8249V28.8474C82.4337 28.8718 75.6474 28.9002 68.865 28.9245L50.8976 28.8677L42.9255 28.8474C37.0132 34.7898 31.101 40.7282 25.1927 46.6666L25.043 46.8167L24.9297 46.9304C38.296 46.9304 51.6664 46.9304 65.0328 46.9304C66.2873 46.9304 67.5418 46.9304 68.7963 46.9304C68.7963 47.6488 68.7963 48.3673 68.7963 49.0857C68.7963 49.7555 68.7963 50.4293 68.7963 51.099V51.1071C68.7963 63.5278 68.7963 75.9524 68.7963 88.3771V88.4218C72.1186 85.6008 75.4815 82.7716 78.8848 79.9384L78.8888 79.9425Z" fill="#FC3030"></path><path d="M42.0636 81.7651C28.3694 81.7692 14.6713 81.7692 0.977125 81.7773C0.973078 80.0968 0.964984 78.4042 0.960938 76.7197H38.5308L42.0555 76.736V79.3337C42.0595 80.1455 42.0595 80.9574 42.0595 81.7692L42.0636 81.7651Z" fill="#C40000"></path><path d="M61.1917 96.954C54.814 102.263 48.4364 107.576 42.0587 112.886C42.0587 112.874 42.0587 116.648 42.0587 116.636C42.0587 117.261 42.0587 119.888 42.0547 120.537C42.0587 120.537 42.0668 120.537 42.0709 120.537C48.4566 115.268 54.8383 110.004 61.2241 104.735C61.2119 92.2902 61.1998 79.8452 61.1917 67.4043C61.1917 78.5179 61.1917 85.8445 61.1917 96.9581V96.954Z" fill="#C40000"></path><path d="M51.5089 107.694C54.7504 104.995 57.9756 102.332 61.1887 99.71C61.1887 88.5964 61.1887 77.4787 61.1887 66.3651V59.8301C54.8313 59.8544 48.4739 59.8788 42.1205 59.9031L25.2861 59.8504L17.8159 59.8301C12.2759 65.3991 6.73995 70.9599 1.20402 76.5249L1.06239 76.6669L0.953125 76.7765C13.4778 76.7765 25.9983 76.7765 38.523 76.7765C39.6965 76.7765 40.8741 76.7765 42.0477 76.7765C42.0477 77.4503 42.0477 78.1201 42.0477 78.7939C42.0477 79.423 42.0477 80.0522 42.0477 80.6813V80.6894C42.0477 92.3267 42.0477 103.964 42.0477 115.601V115.642C45.1596 112.999 48.312 110.349 51.5008 107.694H51.5089Z" fill="#FC3030"></path><path d="M357.724 122.765C356.911 122.4 356.271 121.888 355.81 121.239C355.349 120.59 355.11 119.835 355.094 118.982H357.267C357.34 119.717 357.643 120.334 358.173 120.837C358.703 121.34 359.476 121.588 360.492 121.588C361.508 121.588 362.228 121.345 362.787 120.857C363.345 120.37 363.628 119.745 363.628 118.982C363.628 118.386 363.462 117.898 363.135 117.521C362.807 117.147 362.394 116.863 361.904 116.669C361.415 116.474 360.747 116.263 359.913 116.039C358.882 115.771 358.06 115.5 357.437 115.232C356.814 114.964 356.288 114.538 355.846 113.961C355.405 113.385 355.187 112.609 355.187 111.635C355.187 110.783 355.405 110.028 355.838 109.366C356.271 108.709 356.878 108.197 357.663 107.84C358.449 107.483 359.347 107.3 360.363 107.3C361.823 107.3 363.025 107.666 363.956 108.4C364.891 109.135 365.417 110.105 365.534 111.319H363.296C363.224 110.722 362.908 110.19 362.358 109.736C361.803 109.277 361.075 109.05 360.164 109.05C359.315 109.05 358.618 109.273 358.08 109.711C357.542 110.154 357.275 110.771 357.275 111.566C357.275 112.135 357.437 112.601 357.757 112.959C358.076 113.32 358.473 113.592 358.942 113.778C359.412 113.965 360.071 114.18 360.925 114.42C361.957 114.704 362.783 114.984 363.41 115.264C364.037 115.544 364.575 115.97 365.02 116.543C365.47 117.119 365.692 117.902 365.692 118.889C365.692 119.652 365.49 120.37 365.089 121.044C364.685 121.718 364.09 122.266 363.296 122.684C362.503 123.102 361.573 123.313 360.496 123.313C359.42 123.313 358.546 123.131 357.732 122.761L357.724 122.765Z" fill="white"></path><path d="M370.916 122.575C369.981 122.051 369.253 121.304 368.723 120.338C368.193 119.372 367.93 118.252 367.93 116.981C367.93 115.711 368.201 114.611 368.747 113.645C369.293 112.679 370.034 111.94 370.977 111.42C371.916 110.905 372.972 110.645 374.133 110.645C375.295 110.645 376.351 110.905 377.29 111.42C378.229 111.936 378.973 112.675 379.52 113.632C380.066 114.59 380.337 115.707 380.337 116.981C380.337 118.256 380.058 119.372 379.495 120.338C378.937 121.304 378.176 122.051 377.221 122.575C376.266 123.098 375.206 123.362 374.04 123.362C372.875 123.362 371.851 123.098 370.916 122.575ZM376.1 121.048C376.743 120.703 377.261 120.188 377.658 119.498C378.055 118.808 378.253 117.972 378.253 116.981C378.253 115.991 378.059 115.155 377.67 114.465C377.282 113.775 376.776 113.263 376.149 112.926C375.521 112.589 374.841 112.419 374.113 112.419C373.385 112.419 372.685 112.585 372.065 112.926C371.446 113.263 370.949 113.775 370.576 114.465C370.204 115.155 370.018 115.991 370.018 116.981C370.018 117.972 370.2 118.832 370.568 119.518C370.932 120.208 371.422 120.72 372.033 121.056C372.644 121.393 373.316 121.564 374.048 121.564C374.781 121.564 375.465 121.393 376.108 121.048H376.1Z" fill="white"></path><path d="M385.055 106.537V123.159H383.016V106.537H385.055Z" fill="white"></path><path d="M399.409 110.852V123.159H397.373V121.34C396.985 121.97 396.443 122.461 395.751 122.81C395.054 123.163 394.29 123.338 393.456 123.338C392.501 123.338 391.643 123.139 390.882 122.741C390.122 122.343 389.519 121.75 389.081 120.955C388.64 120.159 388.422 119.197 388.422 118.057V110.848H390.437V117.789C390.437 119.002 390.745 119.932 391.356 120.586C391.967 121.235 392.804 121.564 393.865 121.564C394.925 121.564 395.811 121.227 396.438 120.553C397.066 119.879 397.377 118.897 397.377 117.61V110.848H399.413L399.409 110.852Z" fill="white"></path><path d="M405.341 112.537V119.79C405.341 120.391 405.466 120.813 405.721 121.061C405.976 121.308 406.417 121.43 407.04 121.43H408.542V123.159H406.705C405.572 123.159 404.718 122.895 404.151 122.372C403.585 121.848 403.301 120.987 403.301 119.79V112.537H401.711V110.852H403.301V107.751H405.341V110.852H408.542V112.537H405.341Z" fill="white"></path><path d="M411.077 108.449C410.809 108.181 410.672 107.848 410.672 107.459C410.672 107.069 410.805 106.74 411.077 106.468C411.348 106.196 411.671 106.062 412.06 106.062C412.448 106.062 412.752 106.196 413.011 106.468C413.27 106.74 413.403 107.069 413.403 107.459C413.403 107.848 413.274 108.177 413.011 108.449C412.748 108.721 412.432 108.855 412.06 108.855C411.688 108.855 411.344 108.721 411.077 108.449ZM413.047 110.852V123.159H411.008V110.852H413.047Z" fill="white"></path><path d="M418.744 122.575C417.81 122.051 417.081 121.304 416.551 120.338C416.021 119.372 415.758 118.252 415.758 116.981C415.758 115.711 416.029 114.611 416.575 113.645C417.122 112.679 417.862 111.94 418.805 111.42C419.744 110.905 420.8 110.645 421.961 110.645C423.123 110.645 424.179 110.905 425.118 111.42C426.057 111.936 426.801 112.675 427.348 113.632C427.894 114.59 428.165 115.707 428.165 116.981C428.165 118.256 427.886 119.372 427.323 120.338C426.765 121.304 426.004 122.051 425.049 122.575C424.094 123.098 423.034 123.362 421.868 123.362C420.703 123.362 419.679 123.098 418.744 122.575ZM423.928 121.048C424.572 120.703 425.09 120.188 425.486 119.498C425.883 118.808 426.081 117.972 426.081 116.981C426.081 115.991 425.887 115.155 425.498 114.465C425.11 113.775 424.604 113.263 423.977 112.926C423.349 112.589 422.67 112.419 421.941 112.419C421.213 112.419 420.513 112.585 419.894 112.926C419.274 113.263 418.777 113.775 418.404 114.465C418.032 115.155 417.846 115.991 417.846 116.981C417.846 117.972 418.028 118.832 418.396 119.518C418.76 120.208 419.25 120.72 419.861 121.056C420.472 121.393 421.144 121.564 421.876 121.564C422.609 121.564 423.293 121.393 423.936 121.048H423.928Z" fill="white"></path><path d="M440.455 111.984C441.381 112.89 441.843 114.197 441.843 115.905V123.159H439.827V116.198C439.827 114.972 439.52 114.03 438.909 113.381C438.298 112.727 437.46 112.403 436.4 112.403C435.34 112.403 434.47 112.739 433.834 113.413C433.199 114.087 432.883 115.069 432.883 116.356V123.163H430.844V110.856H432.883V112.61C433.288 111.98 433.834 111.493 434.53 111.148C435.226 110.803 435.987 110.633 436.825 110.633C438.318 110.633 439.528 111.087 440.451 111.993L440.455 111.984Z" fill="white"></path><path d="M446.993 122.879C446.244 122.558 445.657 122.108 445.224 121.531C444.791 120.955 444.552 120.293 444.508 119.542H446.612C446.673 120.155 446.96 120.659 447.474 121.048C447.988 121.438 448.664 121.633 449.502 121.633C450.278 121.633 450.89 121.462 451.339 121.117C451.788 120.772 452.01 120.338 452.01 119.814C452.01 119.291 451.772 118.873 451.294 118.613C450.817 118.353 450.076 118.093 449.077 117.838C448.166 117.598 447.421 117.355 446.847 117.107C446.272 116.859 445.778 116.494 445.37 116.007C444.957 115.52 444.755 114.879 444.755 114.087C444.755 113.458 444.941 112.881 445.313 112.358C445.685 111.834 446.216 111.416 446.903 111.112C447.591 110.803 448.372 110.653 449.255 110.653C450.614 110.653 451.711 110.998 452.545 111.688C453.382 112.378 453.827 113.32 453.888 114.517H451.849C451.804 113.872 451.545 113.356 451.076 112.967C450.606 112.577 449.975 112.382 449.182 112.382C448.449 112.382 447.867 112.541 447.434 112.853C447.001 113.166 446.782 113.58 446.782 114.087C446.782 114.493 446.912 114.826 447.175 115.086C447.438 115.349 447.765 115.556 448.162 115.715C448.559 115.873 449.105 116.048 449.809 116.242C450.691 116.482 451.408 116.717 451.958 116.949C452.508 117.18 452.986 117.529 453.378 117.992C453.771 118.455 453.981 119.063 453.993 119.81C453.993 120.484 453.807 121.089 453.435 121.629C453.063 122.169 452.537 122.591 451.857 122.899C451.177 123.208 450.396 123.362 449.518 123.362C448.579 123.362 447.733 123.2 446.988 122.879H446.993Z" fill="white"></path><path d="M458.974 120.33L456.465 126.374H455.102L456.736 120.33H458.974Z" fill="white"></path><path d="M469.466 122.765C468.653 122.4 468.014 121.888 467.552 121.239C467.091 120.59 466.852 119.835 466.836 118.982H469.009C469.082 119.717 469.385 120.334 469.915 120.837C470.446 121.34 471.219 121.588 472.234 121.588C473.25 121.588 473.97 121.345 474.529 120.857C475.087 120.37 475.37 119.745 475.37 118.982C475.37 118.386 475.205 117.898 474.877 117.521C474.549 117.147 474.136 116.863 473.647 116.669C473.157 116.474 472.489 116.263 471.656 116.039C470.624 115.771 469.802 115.5 469.179 115.232C468.556 114.964 468.03 114.538 467.589 113.961C467.148 113.385 466.929 112.609 466.929 111.635C466.929 110.783 467.148 110.028 467.581 109.366C468.014 108.705 468.621 108.197 469.406 107.84C470.191 107.483 471.089 107.3 472.105 107.3C473.566 107.3 474.768 107.666 475.698 108.4C476.633 109.135 477.159 110.105 477.277 111.319H475.039C474.966 110.722 474.65 110.19 474.1 109.736C473.545 109.277 472.817 109.05 471.907 109.05C471.057 109.05 470.361 109.273 469.822 109.711C469.284 110.154 469.017 110.771 469.017 111.566C469.017 112.135 469.179 112.601 469.499 112.959C469.818 113.32 470.215 113.592 470.684 113.778C471.154 113.965 471.813 114.18 472.667 114.42C473.699 114.704 474.525 114.984 475.152 115.264C475.779 115.54 476.317 115.97 476.763 116.543C477.212 117.119 477.434 117.902 477.434 118.889C477.434 119.652 477.232 120.37 476.831 121.044C476.427 121.718 475.832 122.266 475.039 122.684C474.246 123.102 473.315 123.313 472.238 123.313C471.162 123.313 470.288 123.131 469.474 122.761L469.466 122.765Z" fill="white"></path><path d="M480.491 108.449C480.224 108.181 480.086 107.848 480.086 107.459C480.086 107.069 480.219 106.74 480.491 106.468C480.762 106.196 481.086 106.062 481.474 106.062C481.862 106.062 482.166 106.196 482.425 106.468C482.684 106.74 482.817 107.069 482.817 107.459C482.817 107.848 482.688 108.177 482.425 108.449C482.162 108.721 481.846 108.855 481.474 108.855C481.102 108.855 480.758 108.721 480.491 108.449ZM482.461 110.852V123.159H480.422V110.852H482.461Z" fill="white"></path><path d="M503.241 111.221C503.99 111.619 504.577 112.212 505.01 113.007C505.443 113.803 505.661 114.769 505.661 115.906V123.159H503.646V116.198C503.646 114.972 503.342 114.03 502.74 113.381C502.133 112.727 501.319 112.403 500.287 112.403C499.255 112.403 498.385 112.744 497.758 113.426C497.131 114.107 496.819 115.09 496.819 116.38V123.163H494.804V116.202C494.804 114.976 494.5 114.034 493.897 113.385C493.294 112.731 492.477 112.407 491.445 112.407C490.413 112.407 489.543 112.748 488.916 113.43C488.289 114.111 487.977 115.094 487.977 116.385V123.167H485.938V110.86H487.977V112.634C488.382 111.989 488.92 111.497 489.6 111.152C490.28 110.807 491.028 110.637 491.85 110.637C492.882 110.637 493.792 110.868 494.581 111.335C495.374 111.798 495.961 112.48 496.35 113.381C496.694 112.512 497.26 111.838 498.049 111.359C498.843 110.881 499.721 110.641 500.692 110.641C501.663 110.641 502.497 110.84 503.245 111.238L503.241 111.221Z" fill="white"></path><path d="M512.84 111.355C513.638 110.885 514.568 110.649 515.628 110.649C516.689 110.649 517.709 110.913 518.595 111.437C519.481 111.96 520.181 112.699 520.687 113.649C521.193 114.599 521.448 115.703 521.448 116.961C521.448 118.219 521.193 119.311 520.687 120.285C520.181 121.259 519.481 122.014 518.595 122.554C517.705 123.094 516.717 123.362 515.628 123.362C514.54 123.362 513.662 123.127 512.865 122.656C512.067 122.185 511.456 121.596 511.04 120.894V129.004H509V110.856H511.04V113.125C511.444 112.423 512.043 111.834 512.84 111.364V111.355ZM518.809 114.534C518.437 113.844 517.931 113.32 517.296 112.963C516.66 112.606 515.964 112.423 515.204 112.423C514.443 112.423 513.767 112.606 513.132 112.975C512.496 113.34 511.991 113.872 511.61 114.57C511.23 115.268 511.04 116.072 511.04 116.985C511.04 117.899 511.23 118.727 511.61 119.421C511.991 120.119 512.5 120.647 513.132 121.016C513.767 121.381 514.455 121.568 515.204 121.568C515.952 121.568 516.66 121.385 517.296 121.016C517.931 120.647 518.433 120.119 518.809 119.421C519.182 118.723 519.368 117.907 519.368 116.961C519.368 116.015 519.182 115.224 518.809 114.534Z" fill="white"></path><path d="M526.18 106.537V123.159H524.141V106.537H526.18Z" fill="white"></path><path d="M529.717 108.449C529.45 108.181 529.312 107.848 529.312 107.459C529.312 107.069 529.446 106.74 529.717 106.468C529.988 106.196 530.312 106.062 530.701 106.062C531.089 106.062 531.393 106.196 531.652 106.468C531.911 106.74 532.044 107.069 532.044 107.459C532.044 107.848 531.915 108.177 531.652 108.449C531.388 108.721 531.073 108.855 530.701 108.855C530.328 108.855 529.984 108.721 529.717 108.449ZM531.688 110.852V123.159H529.648V110.852H531.688Z" fill="white"></path><path d="M540.149 112.537H537.575V123.159H535.536V112.537H533.945V110.852H535.536V109.975C535.536 108.599 535.892 107.593 536.6 106.955C537.308 106.318 538.449 106.001 540.015 106.001V107.706C539.121 107.706 538.49 107.881 538.122 108.234C537.753 108.587 537.571 109.168 537.571 109.975V110.852H540.145V112.537H540.149Z" fill="white"></path><path d="M542.592 108.449C542.325 108.181 542.188 107.848 542.188 107.459C542.188 107.069 542.321 106.74 542.592 106.468C542.863 106.196 543.187 106.062 543.576 106.062C543.964 106.062 544.268 106.196 544.527 106.468C544.786 106.74 544.919 107.069 544.919 107.459C544.919 107.848 544.79 108.177 544.527 108.449C544.263 108.721 543.948 108.855 543.576 108.855C543.203 108.855 542.859 108.721 542.592 108.449ZM544.563 110.852V123.159H542.523V110.852H544.563Z" fill="white"></path><path d="M559.159 117.769H549.35C549.423 118.982 549.839 119.928 550.592 120.61C551.345 121.292 552.259 121.633 553.336 121.633C554.218 121.633 554.95 121.426 555.541 121.016C556.132 120.606 556.545 120.054 556.784 119.364H558.977C558.649 120.545 557.989 121.507 557.006 122.25C556.019 122.993 554.797 123.362 553.336 123.362C552.17 123.362 551.13 123.098 550.212 122.575C549.293 122.051 548.573 121.304 548.051 120.338C547.529 119.372 547.266 118.252 547.266 116.981C547.266 115.711 547.521 114.594 548.026 113.632C548.532 112.67 549.249 111.936 550.167 111.42C551.086 110.905 552.142 110.645 553.336 110.645C554.53 110.645 555.529 110.901 556.427 111.408C557.322 111.92 558.014 112.618 558.499 113.507C558.985 114.4 559.228 115.406 559.228 116.527C559.228 116.916 559.203 117.326 559.159 117.76V117.769ZM556.605 114.095C556.261 113.535 555.796 113.109 555.205 112.817C554.614 112.524 553.963 112.378 553.247 112.378C552.215 112.378 551.341 112.707 550.616 113.369C549.892 114.026 549.479 114.939 549.374 116.108H557.123C557.123 115.329 556.953 114.659 556.61 114.099L556.605 114.095Z" fill="white"></path><path d="M561.913 113.649C562.419 112.699 563.119 111.96 564.005 111.437C564.891 110.913 565.891 110.649 566.996 110.649C567.951 110.649 568.841 110.868 569.662 111.311C570.484 111.753 571.111 112.334 571.544 113.052V106.537H573.604V123.159H571.544V120.845C571.14 121.58 570.545 122.181 569.752 122.652C568.958 123.123 568.036 123.358 566.975 123.358C565.915 123.358 564.895 123.09 564.009 122.55C563.119 122.01 562.423 121.255 561.917 120.281C561.411 119.307 561.156 118.199 561.156 116.957C561.156 115.715 561.411 114.595 561.917 113.645L561.913 113.649ZM570.982 114.558C570.609 113.868 570.104 113.34 569.472 112.975C568.837 112.61 568.141 112.423 567.38 112.423C566.619 112.423 565.923 112.602 565.296 112.963C564.669 113.324 564.167 113.848 563.795 114.534C563.422 115.224 563.236 116.031 563.236 116.961C563.236 117.89 563.422 118.723 563.795 119.421C564.167 120.119 564.669 120.647 565.296 121.016C565.923 121.385 566.615 121.568 567.38 121.568C568.145 121.568 568.841 121.385 569.472 121.016C570.108 120.651 570.609 120.119 570.982 119.421C571.354 118.723 571.54 117.911 571.54 116.985C571.54 116.06 571.354 115.248 570.982 114.558Z" fill="white"></path><path d="M576.717 122.891C576.45 122.623 576.312 122.29 576.312 121.901C576.312 121.511 576.446 121.182 576.717 120.91C576.984 120.642 577.316 120.504 577.705 120.504C578.093 120.504 578.397 120.638 578.656 120.91C578.915 121.178 579.048 121.511 579.048 121.901C579.048 122.29 578.919 122.619 578.656 122.891C578.392 123.159 578.077 123.297 577.705 123.297C577.332 123.297 576.988 123.163 576.717 122.891Z" fill="white"></path></g><defs><clipPath id="clip0_4214_2011"><rect width="584" height="129" fill="white"></rect></clipPath></defs></svg>