<svg xmlns="http://www.w3.org/2000/svg" width="354" height="296" viewBox="0 0 354 296" fill="none"><g clip-path="url(#clip0_4196_810)"><path d="M42.8672 20.623L42.0984 113.572C42.0845 115.227 40.7547 116.57 39.0993 116.598L27.7954 116.813C26.0985 116.847 24.7063 115.49 24.6855 113.793L23.6119 21.4332C23.5912 19.7227 22.1782 18.3654 20.4674 18.4139L3.92723 18.8917C2.28568 18.9402 0.893486 17.6729 0.78959 16.0316L0.193924 6.74505C0.083102 5.0207 1.41989 3.55257 3.14455 3.49717L63.0852 1.57199C64.7753 1.51659 66.1813 2.83929 66.2367 4.52901L66.5346 13.961C66.59 15.6507 65.2601 17.0635 63.5631 17.1119L45.8386 17.6036C44.1971 17.6521 42.8811 18.9886 42.8672 20.6299V20.623Z" fill="white"></path><path d="M125.538 115.774L100.34 67.9146C99.7723 66.8342 98.6087 66.1971 97.3896 66.2941L96.1152 66.398C94.5429 66.5226 93.3308 67.8245 93.31 69.4035L92.7351 113.793C92.7143 115.552 91.2113 116.93 89.452 116.799L77.8573 115.94C76.2573 115.822 75.0175 114.479 75.0314 112.872L75.814 4.5498C75.8279 3.0332 76.943 1.75898 78.4391 1.5443C84.9568 0.62326 94.8338 0 102.841 0C123.8 0 134.764 12.9292 134.764 31.4262C134.764 45.6642 128.447 54.6876 118.46 60.38C116.943 61.2457 116.43 63.1778 117.351 64.6598L142.792 105.276C143.692 106.709 143.249 108.593 141.815 109.486L129.847 116.937C128.344 117.872 126.356 117.339 125.531 115.767L125.538 115.774ZM100.049 14.8959C99.1974 14.8959 97.9091 15.0067 96.6277 15.1591C95.1109 15.3391 93.9749 16.6272 93.9542 18.1507L93.5455 48.6835C93.5178 50.5118 95.1039 51.9799 96.9186 51.7652C109.601 50.2832 116.264 44.5146 116.264 33.0674C116.264 21.6202 111.028 14.8959 100.056 14.8959H100.049Z" fill="white"></path><path d="M202.141 113.8L201.864 110.172C201.656 107.492 198.353 106.384 196.552 108.371C191.454 114.008 184.936 117.201 177.968 117.201C163.395 117.201 153.407 107.215 153.082 86.1L152.133 5.81718C152.112 4.13438 153.456 2.75628 155.132 2.72858L167.51 2.50698C169.213 2.47928 170.606 3.84352 170.619 5.54018L171.09 83.4754C171.09 95.0957 176.167 100.172 183.371 100.172C190.574 100.172 196.94 94.4378 199.793 84.0709C199.869 83.787 199.911 83.4892 199.904 83.1914L199.121 5.58865C199.101 3.87122 200.514 2.47235 202.231 2.50698L213.791 2.72166C215.447 2.74936 216.777 4.09975 216.791 5.75485L217.414 113.24C217.421 114.895 216.112 116.259 214.456 116.307L205.286 116.605C203.651 116.661 202.266 115.414 202.141 113.787V113.8Z" fill="white"></path><path d="M37.1668 251.707C18.341 251.707 0 236.811 0 192.615C0 153.654 16.5401 133.523 37.9841 133.523C44.6958 133.523 50.881 135.213 55.9719 138.592C57.0732 139.319 57.5926 140.663 57.2602 141.937L54.926 150.863C54.4689 152.609 52.6264 153.543 50.9226 152.955C48.0481 151.958 44.6127 151.369 41.0871 151.369C27.0059 151.369 18.0016 164.79 18.0016 194.09C18.0016 225.191 28.1556 235.509 40.5954 235.509C43.6014 235.509 46.6975 234.934 49.5234 233.861C50.9988 233.3 52.6542 233.875 53.3814 235.274L56.9623 242.143C57.6481 243.466 57.3017 245.107 56.1035 245.994C51.0888 249.699 44.6265 251.714 37.153 251.714L37.1668 251.707Z" fill="white"></path><path d="M115.732 247.233L112.85 232.968C112.552 231.5 111.243 230.468 109.747 230.516L87.0841 231.32C85.6711 231.368 84.4729 232.386 84.1958 233.778L81.4391 247.677C81.1344 249.221 79.7075 250.274 78.1422 250.121L67.6695 249.096C65.834 248.916 64.5734 247.157 64.9959 245.364L90.0694 138.094C90.3672 136.826 91.4338 135.885 92.7291 135.753L103.617 134.617C105.141 134.458 106.547 135.455 106.907 136.944L132.646 244.983C133.075 246.797 131.794 248.577 129.937 248.736L118.994 249.671C117.449 249.803 116.043 248.757 115.738 247.233H115.732ZM95.4858 180.136L88.7534 212.324C88.3447 214.277 89.8893 216.091 91.8841 216.001L105.46 215.371C107.351 215.281 108.701 213.522 108.306 211.673L101.47 180.115C100.771 176.895 96.1715 176.909 95.4927 180.136H95.4858Z" fill="white"></path><path d="M203.31 249.2L173.312 196.382C172.294 194.596 169.842 194.298 168.429 195.801L164.384 200.101C163.864 200.655 163.566 201.389 163.553 202.151L162.957 246.298C162.936 247.947 161.606 249.276 159.965 249.311L149.118 249.519C147.428 249.553 146.029 248.203 146.001 246.513L144.297 138.197C144.27 136.584 145.509 135.227 147.123 135.102L160.581 134.091C162.368 133.959 163.885 135.379 163.864 137.166L163.497 172.394C163.469 175.268 167.064 176.59 168.9 174.374L202.43 134.036C203.552 132.685 205.582 132.554 206.863 133.758L214.745 141.12C215.964 142.256 216.047 144.167 214.925 145.4L185.696 177.691C184.803 178.675 184.65 180.129 185.322 181.279L219.49 239.879C220.342 241.34 219.843 243.217 218.375 244.062L207.493 250.329C206.025 251.174 204.148 250.661 203.31 249.193V249.2Z" fill="white"></path><path d="M317.085 250.398C307.609 250.398 299.374 247.773 291.623 242.136C290.432 241.271 289.989 239.692 290.605 238.348L294.941 228.958C295.724 227.261 297.816 226.686 299.388 227.691C304.929 231.229 311.149 233.695 317.251 233.695C327.89 233.695 333.95 227.144 333.95 218.141C333.95 193.751 294.165 197.677 294.165 162.484C294.165 145.129 307.097 133.675 324.288 133.675C331.325 133.675 337.982 135.06 343.82 137.276C345.22 137.81 346.037 139.25 345.76 140.718L343.931 150.365C343.592 152.158 341.77 153.26 340.032 152.712C335.156 151.175 329.455 149.887 324.946 149.887C315.942 149.887 312.015 155.614 312.015 162.491C312.015 183.605 351.8 182.463 351.8 216.347C351.8 238.12 338.376 250.398 317.092 250.398H317.085Z" fill="white"></path><path d="M353.458 65.5807V79.2509C353.029 79.5695 352.634 79.895 352.267 80.1512C349.884 81.834 343.332 84.8118 337.437 84.6871C332.215 84.5625 328.018 81.7855 325.296 79.708C321.784 77.0072 318.868 73.9948 316.042 71.0793C314.511 69.4934 313.064 68.0115 311.581 66.6195C309.303 64.4935 303.637 57.9285 298.082 61.0032C296.094 62.1043 293.303 64.5628 292.963 68.7455C292.721 71.7095 291.647 89.2369 291.419 91.9239C291.128 95.3726 289.528 98.7174 287.907 102.215C283.156 112.491 273.106 118.676 261.684 118.676C260.465 118.676 259.211 118.613 257.958 118.461C256.067 118.246 254.183 117.803 252.34 117.18C250.463 116.536 248.51 117.803 248.309 119.742C248.295 119.846 248.295 119.957 248.295 120.061L248.309 128.807L248.399 231.132C248.399 232.891 249.868 234.276 251.606 234.186L273.036 233.044C274.719 232.954 276.153 234.235 276.243 235.918L276.867 246.866C276.97 248.605 275.585 250.086 273.84 250.1L233.293 250.377C231.596 250.391 230.224 249.034 230.211 247.337L229.414 6.7727C229.414 5.11067 230.758 3.73258 232.42 3.71873L349.025 1.85587C350.75 1.82817 352.17 3.22704 352.128 4.97217L351.927 15.0482C351.9 16.6964 350.556 18.0122 348.901 18.0399L251.246 19.1063C249.584 19.134 248.219 20.4983 248.219 22.1603L248.268 92.277C248.268 92.4156 248.281 92.5679 248.295 92.7064C248.323 92.9834 248.399 93.2535 248.524 93.5166C248.676 93.8698 248.842 94.2022 249.043 94.5554C251.426 98.7866 255.658 101.827 259.828 102.312C265.68 103.011 270.882 100.269 273.147 95.3933C274.214 93.0873 275.544 90.4904 275.758 87.5472C276.035 83.8076 277.13 68.7317 277.594 63.4478C278.314 55.0615 284.576 49.8746 290.227 46.7583C300.596 41.0451 311.041 43.8705 322.684 54.7291C324.458 56.3911 326.12 58.1016 327.706 59.7498C330.241 62.3606 332.624 64.8328 335.207 66.8065C335.221 66.8203 335.235 66.8342 335.27 66.855C336.779 68.0184 341.025 68.15 342.584 67.0696C342.688 66.9935 342.812 66.9173 342.923 66.8411C343.166 66.6749 343.429 66.4464 343.72 66.2179C345.036 65.1652 346.94 63.6209 349.358 62.7068C351.346 61.9589 353.465 63.4686 353.465 65.5807H353.458Z" fill="#9CD0C0"></path><path d="M12.8614 266.915L20.6881 289.899H16.5254L14.5514 284.103H5.935L4.02333 289.899H-0.0078125L7.69429 266.915H12.8614ZM10.2363 270.64H10.1739L6.82157 280.945H13.6163L10.2363 270.64Z" fill="white"></path><path d="M22.5382 273.833H26.4516V283.355C26.4516 286.111 27.3312 287.302 29.1736 287.302C31.868 287.302 32.5883 284.982 32.5883 282.386V273.84H36.5017V289.906H32.9623L32.7753 287.524H32.7407C32.0204 288.715 30.7667 290.28 27.8853 290.28C24.4706 290.28 22.5312 288.216 22.5312 283.549V273.84L22.5382 273.833Z" fill="white"></path><path d="M38.9922 273.833H40.9316V270.453L44.8173 269.297V273.84H48.4813V276.561H44.8173V284.234C44.8173 286.457 45.316 287.364 47.006 287.364C47.664 287.364 48.225 287.267 48.8553 287.08L49.2293 289.774C48.5436 290.058 47.38 290.273 46.0363 290.273C42.4969 290.273 40.9316 288.521 40.9316 284.698V276.554H38.9922V273.833Z" fill="white"></path><path d="M65.8301 289.899H61.9167V280.439C61.9167 278.313 61.4457 276.43 59.0977 276.43C56.341 276.43 55.5306 278.431 55.5306 280.938V289.892H51.6172V266.908H55.5029V275.987H55.5652C56.4102 274.705 57.7262 273.452 60.4206 273.452C63.8006 273.452 65.837 275.516 65.837 280.218V289.892L65.8301 289.899Z" fill="white"></path><path d="M82.9887 284.795C82.2683 289.303 78.9783 290.273 76.2216 290.273C70.8052 290.273 68.6719 286.769 68.6719 282.039C68.6719 276.748 71.5809 273.459 76.5333 273.459C80.89 273.459 83.1757 276.18 83.1757 280.882C83.1757 281.416 83.148 282.074 83.0787 282.669H72.6822C72.7099 285.425 73.6242 287.399 76.3463 287.399C78.1333 287.399 79.3523 286.582 79.6986 284.456L82.9887 284.802V284.795ZM79.3869 280.031C79.4839 277.524 78.445 276.083 76.2562 276.083C73.8736 276.083 72.8138 277.932 72.7169 280.031H79.3869Z" fill="white"></path><path d="M100.439 289.899H96.5252V280.439C96.5252 277.531 95.5832 276.43 93.6715 276.43C90.8871 276.43 90.1321 278.556 90.1321 280.938V289.892H86.2188V273.826H89.7858L89.9451 276.173H90.0075C90.6655 274.955 92.0438 273.452 94.9252 273.452C98.3676 273.452 100.439 275.453 100.439 280.121V289.892V289.899Z" fill="white"></path><path d="M102.477 273.833H104.416V270.453L108.302 269.297V273.84H111.966V276.561H108.302V284.234C108.302 286.457 108.8 287.364 110.49 287.364C111.148 287.364 111.709 287.267 112.34 287.08L112.714 289.774C112.028 290.058 110.864 290.273 109.521 290.273C105.981 290.273 104.416 288.521 104.416 284.698V276.554H102.477V273.833Z" fill="white"></path><path d="M115.102 266.915H119.015V270.578H115.102V266.915ZM115.102 273.833H119.015V289.899H115.102V273.833Z" fill="white"></path><path d="M132.886 279.816C132.699 277.309 131.411 276.312 129.693 276.312C127.532 276.312 126.029 277.849 126.029 281.886C126.029 285.612 127.186 287.399 129.631 287.399C131.48 287.399 132.485 286.457 132.824 284.206L136.239 284.456C135.74 288.839 132.762 290.28 129.472 290.28C124.118 290.28 121.984 286.741 121.984 282.046C121.984 276.63 124.963 273.466 129.846 273.466C134.265 273.466 136.204 276.187 136.363 279.539L132.886 279.823V279.816Z" fill="white"></path><path d="M157.779 279.719H149.855V286.575H159.441V289.892H145.789V266.908H158.818V270.197H149.862V276.492H157.786V279.719H157.779Z" fill="white"></path><path d="M176.422 273.833V288.583C176.422 293.403 173.79 296.007 168.783 296.007C165.34 296.007 162.93 294.594 162.237 291.651L165.777 290.903C166.123 292.122 166.684 293.161 168.88 293.161C171.387 293.161 172.544 291.88 172.544 288.839V287.302H172.516C171.858 288.493 170.389 289.65 167.882 289.65C164.53 289.65 161.648 287.738 161.648 281.977C161.648 276.215 164.467 273.459 168.353 273.459C170.673 273.459 171.955 274.304 172.71 275.585H172.807L173.278 273.833H176.443H176.422ZM169.281 276.056C167.217 276.056 165.714 277.621 165.714 281.852C165.714 285.799 166.968 287.018 169.004 287.018C171.415 287.018 172.668 285.418 172.668 281.693C172.668 277.655 171.387 276.056 169.288 276.056H169.281Z" fill="white"></path><path d="M194.149 273.833V288.583C194.149 293.403 191.517 296.007 186.509 296.007C183.067 296.007 180.656 294.594 179.964 291.651L183.503 290.903C183.849 292.122 184.41 293.161 186.606 293.161C189.113 293.161 190.27 291.88 190.27 288.839V287.302H190.242C189.584 288.493 188.116 289.65 185.609 289.65C182.256 289.65 179.375 287.738 179.375 281.977C179.375 276.215 182.194 273.459 186.08 273.459C188.4 273.459 189.681 274.304 190.436 275.585H190.533L191.004 273.833H194.17H194.149ZM187.008 276.056C184.944 276.056 183.441 277.621 183.441 281.852C183.441 285.799 184.694 287.018 186.731 287.018C189.141 287.018 190.395 285.418 190.395 281.693C190.395 277.655 189.113 276.056 187.015 276.056H187.008Z" fill="white"></path><path d="M201.788 289.899H197.875V266.915H201.788V289.899Z" fill="white"></path><path d="M219.075 284.795C218.354 289.303 215.064 290.273 212.308 290.273C206.891 290.273 204.758 286.769 204.758 282.039C204.758 276.748 207.667 273.459 212.619 273.459C216.976 273.459 219.262 276.18 219.262 280.882C219.262 281.416 219.234 282.074 219.165 282.669H208.768C208.796 285.425 209.71 287.399 212.432 287.399C214.219 287.399 215.438 286.582 215.785 284.456L219.075 284.802V284.795ZM215.473 280.031C215.57 277.524 214.531 276.083 212.342 276.083C209.959 276.083 208.9 277.932 208.803 280.031H215.473Z" fill="white"></path><path d="M230.789 278.715C230.539 277.053 229.757 276.146 227.97 276.146C226.37 276.146 225.372 276.679 225.372 277.932C225.372 281.436 234.39 278.493 234.39 285.01C234.39 288.424 231.26 290.273 227.623 290.273C223.675 290.273 221.549 288.77 221.016 285.356L224.52 284.857C224.804 286.547 225.428 287.579 227.686 287.579C229.66 287.579 230.567 286.7 230.567 285.543C230.567 281.845 221.639 284.788 221.639 278.466C221.639 275.176 224.458 273.459 227.997 273.459C231.724 273.459 233.601 275.024 234.169 278.002L230.789 278.722V278.715Z" fill="white"></path><path d="M246.047 278.715C245.797 277.053 245.015 276.146 243.228 276.146C241.628 276.146 240.63 276.679 240.63 277.932C240.63 281.436 249.648 278.493 249.648 285.01C249.648 288.424 246.518 290.273 242.881 290.273C238.933 290.273 236.807 288.77 236.273 285.356L239.778 284.857C240.062 286.547 240.686 287.579 242.944 287.579C244.918 287.579 245.825 286.7 245.825 285.543C245.825 281.845 236.897 284.788 236.897 278.466C236.897 275.176 239.716 273.459 243.255 273.459C246.982 273.459 248.859 275.024 249.427 278.002L246.047 278.722V278.715Z" fill="white"></path><path d="M259.296 289.899V266.915H267.22C272.574 266.915 274.389 269.11 274.389 272.579C274.389 275.647 272.165 277.399 269.845 277.87V277.967C273.544 278.279 275.171 280.315 275.171 283.417C275.171 288.05 271.944 289.899 266.714 289.899H259.289H259.296ZM265.405 276.651C267.788 276.651 270.26 275.966 270.26 273.05C270.26 271.014 269.228 270.142 266.499 270.142H263.369V276.658H265.405V276.651ZM266.25 286.637C269.194 286.637 271.105 285.979 271.105 283.161C271.105 280.813 269.637 279.747 266.943 279.747H263.369V286.637H266.25Z" fill="white"></path><path d="M292.775 289.837C289.395 290.585 288.141 289.677 287.698 287.738C286.79 289.303 285.1 290.273 282.621 290.273C279.081 290.273 277.641 288.078 277.641 285.765C277.641 281.381 281.866 280.945 287.254 280.564V279.878C287.254 277.032 286.188 276.09 284.401 276.09C281.741 276.09 281.679 277.531 281.928 279.504L278.423 279.816C277.738 276.18 279.428 273.459 284.622 273.459C289.817 273.459 291.071 276.499 291.071 280.661V286.36C291.071 287.427 291.417 287.773 292.699 287.489L292.761 289.837H292.775ZM287.261 282.912C282.503 283.071 281.596 283.978 281.596 285.543C281.596 286.887 282.503 287.704 284.006 287.704C285.855 287.704 287.261 286.166 287.261 284.2V282.918V282.912Z" fill="white"></path><path d="M299.381 280.003L305.047 273.833H309.556L304.167 279.498L310.117 289.892H305.636L301.438 282.281L299.374 284.414V289.892H295.461V266.908H299.374V279.996L299.381 280.003Z" fill="white"></path><path d="M312.195 266.915H316.109V270.578H312.195V266.915ZM312.195 273.833H316.109V289.899H312.195V273.833Z" fill="white"></path><path d="M334.126 289.899H330.213V280.439C330.213 277.531 329.271 276.43 327.359 276.43C324.575 276.43 323.82 278.556 323.82 280.938V289.892H319.906V273.826H323.473L323.633 276.173H323.695C324.353 274.955 325.731 273.452 328.613 273.452C332.055 273.452 334.126 275.453 334.126 280.121V289.892V289.899Z" fill="white"></path><path d="M351.782 273.833V288.583C351.782 293.403 349.15 296.007 344.142 296.007C340.7 296.007 338.289 294.594 337.597 291.651L341.136 290.903C341.482 292.122 342.043 293.161 344.239 293.161C346.746 293.161 347.903 291.88 347.903 288.839V287.302H347.875C347.217 288.493 345.749 289.65 343.242 289.65C339.889 289.65 337.008 287.738 337.008 281.977C337.008 276.215 339.827 273.459 343.713 273.459C346.033 273.459 347.314 274.304 348.069 275.585H348.166L348.637 273.833H351.802H351.782ZM344.641 276.056C342.577 276.056 341.074 277.621 341.074 281.852C341.074 285.799 342.327 287.018 344.364 287.018C346.774 287.018 348.028 285.418 348.028 281.693C348.028 277.655 346.746 276.056 344.648 276.056H344.641Z" fill="white"></path></g><defs><clipPath id="clip0_4196_810"><rect width="353.459" height="296" fill="white"></rect></clipPath></defs></svg>