<svg xmlns="http://www.w3.org/2000/svg" width="488" height="205" viewBox="0 0 488 205" fill="none"><path d="M12.1649 168.68C6.63605 164.041 3.76165 157.848 3.09438 150.329H23.8898C24.1097 152.543 24.997 154.309 26.7642 155.855C28.3113 157.182 30.5258 157.841 32.9602 157.841H46.8923C49.9866 157.841 52.6411 156.515 54.6355 153.862C56.63 151.209 57.7299 147.896 57.7299 143.69V136.398C55.7428 138.611 53.0884 140.377 50.2066 141.704C47.3322 143.03 44.4578 143.69 41.8034 143.69H31.1857C21.8953 143.69 14.372 140.817 8.6232 135.291C2.8744 129.766 0 122.466 0 113.408V97.7108C0 91.5182 1.32721 85.9926 3.98163 81.1338C6.63605 76.2677 10.3977 72.7353 15.2592 70.0824C20.1208 67.4295 25.6569 66.103 31.8457 66.103H40.6962C44.2379 66.103 47.5522 66.9898 50.8739 68.5361C54.1883 70.0824 56.8427 72.2956 59.0571 74.9485V67.2096H78.5253V143.477C78.5253 149.89 77.1981 155.415 74.5437 160.281C71.8893 165.148 68.1276 168.9 63.2661 171.553C58.3972 174.206 52.8684 175.532 46.6796 175.532H32.7476C24.5644 175.752 17.7083 173.319 12.1795 168.68H12.1649ZM42.9106 126.013C46.8923 126.013 50.2066 124.467 52.861 121.147C55.5155 117.835 57.0626 113.628 57.5026 108.322V97.7108C57.0626 93.5116 55.7354 90.419 53.301 87.7661C50.8666 85.333 47.9922 84.0066 44.4505 84.0066H33.6129C29.8512 84.0066 26.7568 85.333 24.3224 88.2058C21.8879 91.0785 20.7807 94.6182 20.7807 99.2572V111.855C20.7807 116.054 21.8879 119.374 24.0951 122.027C26.3095 124.68 28.9639 125.786 32.4983 125.786H42.896V126.006L42.9106 126.013Z" fill="white"></path><path d="M105.725 168.68C100.416 164.041 97.3214 157.848 96.6541 150.329H117.449C117.669 152.543 118.557 154.309 120.324 155.855C121.871 157.182 124.086 157.841 126.52 157.841H139.125C142.219 157.841 144.874 156.515 146.868 153.862C148.855 151.209 149.962 147.896 149.962 143.69V133.745C147.528 136.838 144.874 139.491 141.779 141.264C138.685 143.03 135.81 143.917 132.709 143.917H122.531C114.348 143.917 107.932 141.264 102.843 135.738C97.974 130.433 95.5469 123.141 95.5469 114.295V67.6493H116.562V114.735C116.562 118.047 117.449 120.927 119.217 122.913C120.984 125.127 123.198 126.006 125.853 126.006H134.703C138.018 126.006 141.119 124.68 143.994 121.807C146.868 118.934 148.635 115.175 149.962 110.536V67.4294H170.978V143.697C170.978 150.11 169.651 155.635 166.996 160.501C164.342 165.367 160.58 169.12 155.719 171.773C150.85 174.425 145.321 175.752 139.132 175.752H126.527C118.124 175.752 111.041 173.319 105.732 168.68H105.725Z" fill="white"></path><path d="M188.695 67.4296H208.163V77.3743C210.151 74.2817 213.032 71.8486 216.567 70.0825C220.328 68.0965 224.09 67.2097 228.072 67.2097H238.469V85.3404H228.072C222.543 85.3404 218.121 86.8867 214.8 90.2065C211.485 93.519 209.711 97.7255 209.711 102.804V144.364H188.695V67.4296Z" fill="white"></path><path d="M254.382 137.285C249.513 131.759 247.086 124.46 247.086 115.622V67.4296H268.101V116.069C268.101 119.381 268.989 122.261 270.756 124.247C272.523 126.461 274.737 127.34 277.392 127.34H286.242C289.557 127.34 292.658 126.014 295.533 123.141C298.407 120.268 300.174 116.508 301.502 111.87V67.2097H322.517V144.144H303.049V134.199C300.614 137.512 297.74 140.165 294.426 142.158C290.884 144.144 287.57 145.251 284.475 145.251H274.297C265.894 145.691 259.258 142.818 254.389 137.292L254.382 137.285Z" fill="white"></path><path d="M344.856 138.171C339.108 133.305 336.453 126.673 336.453 118.714H357.248C357.248 121.587 358.136 123.8 360.123 125.347C362.11 127.113 364.544 127.999 367.646 127.999H381.578C387.774 127.999 390.869 126.233 390.869 122.914V120.261C390.869 119.154 390.429 118.275 389.321 117.388C388.214 116.501 386.887 115.842 385.12 115.622L358.356 110.983C352.16 109.876 347.078 107.67 343.536 104.35C339.775 100.811 338.008 96.8314 338.008 92.1925V87.1065C338.008 80.4742 340.662 75.3882 346.191 71.6287C351.5 67.8692 359.243 66.103 368.753 66.103H380.698C389.321 66.103 396.405 68.3162 401.714 72.9552C407.022 77.5941 409.677 83.5668 409.677 91.0859H388.882C388.882 88.8727 388.222 87.1065 386.667 85.78C385.12 84.4536 383.125 83.794 380.691 83.794H368.966C362.33 83.794 359.016 85.3403 359.016 88.433V90.866C359.016 91.9726 359.456 92.852 360.343 93.7388C361.23 94.6255 362.557 95.0652 364.104 95.2851L392.196 100.371C398.172 101.478 402.814 103.684 406.355 107.003C409.897 110.316 411.664 114.075 411.664 118.275V123.8C411.664 130.433 409.01 135.738 403.481 139.718C397.952 143.697 390.649 145.683 381.586 145.683H367.654C358.143 145.683 350.62 143.03 344.871 138.164L344.856 138.171Z" fill="white"></path><path d="M393.281 41.7798V57.6973H432.43L420.705 93.5117L435.084 99.4771L452.998 40.8931L393.273 41.7798H393.281Z" fill="#FF7F00"></path><path d="M433.984 0L420.492 4.19921L428.015 28.0755L441.508 23.8762L433.984 0Z" fill="#FF7F00"></path><path d="M487.75 25.6425L479.567 14.144L459.219 28.7351L467.402 40.2335L487.75 25.6425Z" fill="#FF7F00"></path><path d="M478.9 84.8934L487.523 73.6222L467.615 58.3716L458.992 69.6428L478.9 84.8934Z" fill="#FF7F00"></path><path d="M270.678 202.274H269.278L268.361 199.672C268.2 199.21 267.921 198.829 267.54 198.544C267.159 198.25 266.719 198.104 266.22 198.104H263.83V202.274H262.539V192.52H266.858C267.613 192.52 268.229 192.593 268.706 192.739C269.182 192.886 269.578 193.194 269.879 193.663C270.18 194.132 270.334 194.659 270.334 195.253C270.334 195.927 270.136 196.492 269.747 196.946C269.358 197.4 268.823 197.693 268.141 197.833V197.862C268.823 198.082 269.336 198.668 269.696 199.628L270.678 202.281V202.274ZM263.83 196.946H266.711C267.518 196.946 268.097 196.821 268.464 196.565C268.823 196.316 269.006 195.876 269.006 195.253C269.006 194.146 268.31 193.589 266.917 193.589H263.837V196.946H263.83Z" fill="#AAAAAA"></path><path d="M275.228 202.442C274.186 202.442 273.358 202.12 272.727 201.468C272.097 200.815 271.781 199.914 271.781 198.749C271.781 197.584 272.089 196.689 272.698 196.037C273.306 195.385 274.106 195.055 275.088 195.055C276.071 195.055 276.899 195.378 277.501 196.023C278.102 196.667 278.403 197.576 278.403 198.749V199.049H273.079C273.13 199.863 273.358 200.471 273.754 200.867C274.15 201.262 274.641 201.46 275.22 201.46C275.66 201.46 276.056 201.35 276.408 201.123C276.76 200.896 276.943 200.581 276.965 200.17H278.263C278.161 200.896 277.838 201.46 277.273 201.856C276.709 202.252 276.027 202.45 275.22 202.45L275.228 202.442ZM277.075 198.067C276.973 197.386 276.745 196.88 276.386 196.543C276.034 196.206 275.594 196.037 275.081 196.037C274.568 196.037 274.15 196.206 273.79 196.543C273.431 196.88 273.204 197.386 273.101 198.075H277.068L277.075 198.067Z" fill="#AAAAAA"></path><path d="M281.066 202.274H279.805V192.52H281.066V202.274Z" fill="#AAAAAA"></path><path d="M284.175 193.875H282.914V192.52H284.175V193.875ZM284.175 202.274H282.914V195.209H284.175V202.274Z" fill="#AAAAAA"></path><path d="M290.493 201.548C289.855 202.142 289.034 202.442 288.022 202.442C287.325 202.442 286.746 202.252 286.291 201.871C285.837 201.49 285.609 201.006 285.609 200.405C285.609 198.756 287.032 197.928 289.877 197.928H290.493C290.493 197.422 290.464 197.056 290.412 196.829C290.361 196.601 290.214 196.411 289.965 196.257C289.716 196.103 289.334 196.03 288.799 196.03C287.677 196.03 287.105 196.433 287.069 197.232H285.815C285.91 195.781 286.922 195.055 288.865 195.055C289.767 195.055 290.478 195.231 290.984 195.597C291.49 195.957 291.747 196.66 291.747 197.715V202.281H290.493V201.556V201.548ZM290.493 200.42V198.851H289.635C287.816 198.851 286.907 199.35 286.907 200.339C286.907 200.698 287.039 200.977 287.311 201.167C287.582 201.358 287.934 201.453 288.388 201.453C288.799 201.453 289.202 201.358 289.591 201.174C289.98 200.991 290.28 200.735 290.5 200.42H290.493Z" fill="#AAAAAA"></path><path d="M294.871 196.059C295.428 195.385 296.102 195.055 296.887 195.055C297.811 195.055 298.53 195.385 299.036 196.037C299.542 196.689 299.791 197.576 299.791 198.69C299.791 199.804 299.505 200.764 298.94 201.438C298.376 202.112 297.664 202.449 296.799 202.449C296.037 202.449 295.391 202.215 294.871 201.739V202.288H293.609V192.534H294.871V196.074V196.059ZM294.871 200.595C295.406 201.167 296.022 201.453 296.718 201.453C297.261 201.453 297.694 201.218 298.009 200.757C298.332 200.295 298.486 199.599 298.486 198.683C298.486 197.818 298.332 197.151 298.031 196.704C297.73 196.257 297.305 196.03 296.762 196.03C296.066 196.03 295.428 196.433 294.856 197.239V200.595H294.871Z" fill="#AAAAAA"></path><path d="M302.441 202.274H301.18V192.52H302.441V202.274Z" fill="#AAAAAA"></path><path d="M307.306 202.442C306.264 202.442 305.436 202.12 304.805 201.468C304.175 200.815 303.859 199.914 303.859 198.749C303.859 197.584 304.167 196.689 304.776 196.037C305.385 195.385 306.184 195.055 307.166 195.055C308.149 195.055 308.978 195.378 309.579 196.023C310.18 196.667 310.481 197.576 310.481 198.749V199.049H305.157C305.209 199.863 305.436 200.471 305.832 200.867C306.228 201.262 306.719 201.46 307.298 201.46C307.738 201.46 308.134 201.35 308.486 201.123C308.838 200.896 309.022 200.581 309.044 200.17H310.341C310.239 200.896 309.916 201.46 309.352 201.856C308.787 202.252 308.105 202.45 307.298 202.45L307.306 202.442ZM309.161 198.067C309.058 197.386 308.831 196.88 308.472 196.543C308.12 196.206 307.68 196.037 307.166 196.037C306.653 196.037 306.235 196.206 305.876 196.543C305.517 196.88 305.289 197.386 305.187 198.075H309.154L309.161 198.067Z" fill="#AAAAAA"></path><path d="M319.977 201.548C319.339 202.142 318.518 202.442 317.506 202.442C316.81 202.442 316.23 202.252 315.776 201.871C315.321 201.49 315.094 201.006 315.094 200.405C315.094 198.756 316.516 197.928 319.361 197.928H319.977C319.977 197.422 319.948 197.056 319.897 196.829C319.845 196.601 319.699 196.411 319.449 196.257C319.2 196.103 318.819 196.03 318.283 196.03C317.162 196.03 316.59 196.433 316.553 197.232H315.299C315.394 195.781 316.406 195.055 318.349 195.055C319.251 195.055 319.963 195.231 320.469 195.597C320.975 195.957 321.231 196.66 321.231 197.715V202.281H319.977V201.556V201.548ZM319.977 200.42V198.851H319.119C317.301 198.851 316.392 199.35 316.392 200.339C316.392 200.698 316.524 200.977 316.795 201.167C317.066 201.358 317.418 201.453 317.873 201.453C318.283 201.453 318.687 201.358 319.075 201.174C319.464 200.991 319.765 200.735 319.985 200.42H319.977Z" fill="#AAAAAA"></path><path d="M324.347 196.11C324.97 195.407 325.674 195.055 326.459 195.055C328.05 195.055 328.849 195.92 328.849 197.657V202.274H327.588V197.708C327.588 197.129 327.486 196.719 327.28 196.462C327.075 196.213 326.738 196.081 326.268 196.081C325.63 196.081 324.992 196.462 324.347 197.21V202.266H323.086V195.202H324.347V196.103V196.11Z" fill="#AAAAAA"></path><path d="M335.155 201.431C334.597 202.105 333.923 202.442 333.138 202.442C332.214 202.442 331.503 202.112 330.99 201.46C330.484 200.801 330.234 199.921 330.234 198.807C330.234 197.693 330.52 196.741 331.085 196.066C331.65 195.392 332.361 195.055 333.219 195.055C333.981 195.055 334.627 195.29 335.155 195.759V192.52H336.408V202.274H335.155V201.431ZM335.155 200.244V196.887C334.612 196.316 333.996 196.03 333.299 196.03C332.764 196.03 332.331 196.264 332.009 196.726C331.686 197.188 331.525 197.877 331.525 198.8C331.525 199.672 331.679 200.332 331.98 200.779C332.28 201.226 332.705 201.453 333.241 201.453C333.945 201.453 334.583 201.05 335.155 200.244Z" fill="#AAAAAA"></path><path d="M350.186 202.274H348.786L347.869 199.672C347.708 199.21 347.429 198.829 347.048 198.544C346.666 198.25 346.226 198.104 345.728 198.104H343.337V202.274H342.047V192.52H346.366C347.121 192.52 347.737 192.593 348.214 192.739C348.69 192.886 349.086 193.194 349.387 193.663C349.687 194.132 349.841 194.659 349.841 195.253C349.841 195.927 349.644 196.492 349.255 196.946C348.866 197.4 348.331 197.693 347.649 197.833V197.862C348.331 198.082 348.844 198.668 349.204 199.628L350.186 202.281V202.274ZM343.337 196.946H346.219C347.026 196.946 347.605 196.821 347.972 196.565C348.331 196.316 348.514 195.876 348.514 195.253C348.514 194.146 347.818 193.589 346.424 193.589H343.345V196.946H343.337Z" fill="#AAAAAA"></path><path d="M354.735 202.442C353.694 202.442 352.866 202.12 352.235 201.468C351.604 200.815 351.289 199.914 351.289 198.749C351.289 197.584 351.597 196.689 352.206 196.037C352.814 195.385 353.614 195.055 354.596 195.055C355.579 195.055 356.407 195.378 357.009 196.023C357.61 196.667 357.91 197.576 357.91 198.749V199.049H352.587C352.638 199.863 352.866 200.471 353.262 200.867C353.658 201.262 354.149 201.46 354.728 201.46C355.168 201.46 355.564 201.35 355.916 201.123C356.268 200.896 356.451 200.581 356.473 200.17H357.771C357.668 200.896 357.346 201.46 356.781 201.856C356.217 202.252 355.535 202.45 354.728 202.45L354.735 202.442ZM356.591 198.067C356.488 197.386 356.261 196.88 355.901 196.543C355.549 196.206 355.109 196.037 354.596 196.037C354.083 196.037 353.665 196.206 353.306 196.543C352.946 196.88 352.719 197.386 352.616 198.075H356.583L356.591 198.067Z" fill="#AAAAAA"></path><path d="M361.849 202.442C359.92 202.442 358.908 201.687 358.82 200.163H360.082C360.089 201.028 360.675 201.453 361.841 201.453C362.362 201.453 362.758 201.343 363.029 201.131C363.301 200.918 363.44 200.647 363.44 200.324C363.44 200.002 363.308 199.782 363.037 199.65C362.765 199.518 362.223 199.35 361.387 199.137C360.551 198.925 359.95 198.697 359.561 198.441C359.18 198.184 358.982 197.73 358.982 197.085C358.982 196.499 359.224 196.015 359.7 195.634C360.177 195.253 360.815 195.055 361.614 195.055C363.462 195.055 364.415 195.715 364.452 197.034H363.198C363.154 196.367 362.655 196.037 361.702 196.037C361.284 196.037 360.932 196.118 360.653 196.279C360.375 196.44 360.236 196.675 360.236 196.975C360.236 197.254 360.338 197.452 360.558 197.569C360.771 197.693 361.306 197.855 362.157 198.06C363.015 198.265 363.645 198.507 364.063 198.785C364.481 199.057 364.686 199.533 364.686 200.207C364.686 200.881 364.43 201.387 363.917 201.812C363.403 202.237 362.714 202.45 361.849 202.45V202.442Z" fill="#AAAAAA"></path><path d="M367.394 196.059C367.951 195.385 368.626 195.055 369.41 195.055C370.334 195.055 371.053 195.385 371.559 196.037C372.065 196.689 372.314 197.576 372.314 198.69C372.314 199.804 372.028 200.764 371.464 201.438C370.899 202.113 370.188 202.45 369.322 202.45C368.56 202.45 367.915 202.215 367.394 201.739V205H366.133V195.224H367.394V196.067V196.059ZM367.394 200.596C367.929 201.167 368.545 201.453 369.242 201.453C369.784 201.453 370.217 201.218 370.532 200.757C370.855 200.295 371.009 199.599 371.009 198.683C371.009 197.818 370.855 197.151 370.554 196.704C370.254 196.257 369.828 196.03 369.286 196.03C368.589 196.03 367.951 196.433 367.379 197.239V200.596H367.394Z" fill="#AAAAAA"></path><path d="M376.588 195.055C377.6 195.055 378.399 195.378 379.001 196.023C379.602 196.667 379.903 197.576 379.903 198.749C379.903 199.921 379.602 200.83 379.001 201.475C378.399 202.12 377.593 202.442 376.588 202.442C375.584 202.442 374.784 202.12 374.183 201.475C373.582 200.83 373.281 199.921 373.281 198.749C373.281 197.576 373.582 196.66 374.183 196.023C374.784 195.378 375.584 195.055 376.588 195.055ZM376.588 201.46C377.19 201.46 377.674 201.233 378.047 200.779C378.421 200.324 378.605 199.65 378.605 198.749C378.605 197.847 378.421 197.173 378.047 196.711C377.674 196.257 377.19 196.03 376.588 196.03C375.987 196.03 375.503 196.257 375.129 196.711C374.755 197.166 374.572 197.847 374.572 198.749C374.572 199.65 374.755 200.317 375.129 200.779C375.503 201.24 375.987 201.46 376.588 201.46Z" fill="#AAAAAA"></path><path d="M382.566 196.11C383.189 195.407 383.893 195.055 384.678 195.055C386.269 195.055 387.068 195.92 387.068 197.657V202.274H385.807V197.708C385.807 197.129 385.704 196.719 385.499 196.462C385.294 196.213 384.956 196.081 384.487 196.081C383.849 196.081 383.211 196.462 382.566 197.21V202.266H381.305V195.202H382.566V196.103V196.11Z" fill="#AAAAAA"></path><path d="M391.411 202.442C389.483 202.442 388.471 201.687 388.383 200.163H389.644C389.651 201.028 390.238 201.453 391.404 201.453C391.924 201.453 392.32 201.343 392.592 201.131C392.863 200.918 393.002 200.647 393.002 200.324C393.002 200.002 392.87 199.782 392.599 199.65C392.328 199.518 391.785 199.35 390.949 199.137C390.113 198.925 389.512 198.697 389.123 198.441C388.742 198.184 388.544 197.73 388.544 197.085C388.544 196.499 388.786 196.015 389.263 195.634C389.739 195.253 390.377 195.055 391.177 195.055C393.024 195.055 393.978 195.715 394.014 197.034H392.76C392.716 196.367 392.218 196.037 391.265 196.037C390.847 196.037 390.495 196.118 390.216 196.279C389.937 196.44 389.798 196.675 389.798 196.975C389.798 197.254 389.901 197.452 390.121 197.569C390.333 197.693 390.869 197.855 391.719 198.06C392.577 198.265 393.208 198.507 393.626 198.785C394.044 199.057 394.249 199.533 394.249 200.207C394.249 200.881 393.992 201.387 393.479 201.812C392.966 202.237 392.276 202.45 391.411 202.45V202.442Z" fill="#AAAAAA"></path><path d="M396.972 193.875H395.711V192.52H396.972V193.875ZM396.972 202.274H395.711V195.209H396.972V202.274Z" fill="#AAAAAA"></path><path d="M409.11 202.442C408.069 202.442 407.241 202.12 406.61 201.468C405.979 200.815 405.664 199.914 405.664 198.749C405.664 197.584 405.972 196.689 406.581 196.037C407.189 195.385 407.989 195.055 408.971 195.055C409.954 195.055 410.782 195.378 411.384 196.023C411.985 196.667 412.285 197.576 412.285 198.749V199.049H406.962C407.013 199.863 407.241 200.471 407.637 200.867C408.033 201.262 408.524 201.46 409.103 201.46C409.543 201.46 409.939 201.35 410.291 201.123C410.643 200.896 410.826 200.581 410.848 200.17H412.146C412.043 200.896 411.721 201.46 411.156 201.856C410.592 202.252 409.91 202.45 409.103 202.45L409.11 202.442ZM410.958 198.067C410.856 197.386 410.628 196.88 410.269 196.543C409.917 196.206 409.477 196.037 408.964 196.037C408.45 196.037 408.032 196.206 407.673 196.543C407.314 196.88 407.087 197.386 406.984 198.075H410.951L410.958 198.067Z" fill="#AAAAAA"></path><path d="M185.822 180.002C185.044 179.299 184.648 178.207 184.648 176.719V161.329H188.483V176.492C188.483 176.946 188.586 177.269 188.791 177.481C188.997 177.686 189.327 177.789 189.781 177.789H191.306V181.057H189.503C187.831 181.057 186.606 180.706 185.822 180.002Z" fill="#FF7F00"></path><path d="M195.319 180.625C194.41 180.186 193.698 179.563 193.192 178.764C192.686 177.965 192.43 177.049 192.43 176.016V172.381C192.43 171.274 192.686 170.292 193.192 169.449C193.698 168.607 194.41 167.947 195.319 167.478C196.228 167.009 197.277 166.774 198.464 166.774H200.723C202.527 166.774 203.979 167.28 205.064 168.299C206.156 169.31 206.699 170.666 206.699 172.359V175.349H196.265V176.023C196.265 176.646 196.463 177.144 196.859 177.518C197.255 177.892 197.79 178.082 198.464 178.082H200.664C201.324 178.082 201.852 177.936 202.255 177.643C202.659 177.349 202.864 176.968 202.864 176.499H206.64C206.64 177.437 206.384 178.273 205.878 179.006C205.372 179.739 204.661 180.303 203.751 180.699C202.842 181.094 201.793 181.292 200.606 181.292H198.464C197.284 181.292 196.235 181.072 195.319 180.633V180.625ZM202.923 172.579V172.351C202.923 171.619 202.725 171.032 202.329 170.593C201.933 170.153 201.405 169.933 200.752 169.933H198.464C197.79 169.933 197.24 170.167 196.829 170.637C196.419 171.106 196.206 171.728 196.206 172.498V172.586H202.915L202.923 172.579Z" fill="#FF7F00"></path><path d="M210.2 180.186C209.298 179.453 208.844 178.485 208.844 177.283V176.243C208.844 175.056 209.313 174.103 210.252 173.385C211.19 172.659 212.429 172.3 213.977 172.3H215.7C216.191 172.3 216.712 172.366 217.276 172.498C217.841 172.63 218.354 172.806 218.831 173.033V171.567C218.831 171.098 218.677 170.717 218.369 170.424C218.061 170.131 217.65 169.984 217.144 169.984H214.717C214.189 169.984 213.771 170.102 213.449 170.351C213.126 170.6 212.972 170.922 212.972 171.34H209.247C209.247 169.97 209.753 168.863 210.758 168.028C211.762 167.192 213.082 166.774 214.717 166.774H217.144C218.802 166.774 220.136 167.214 221.148 168.086C222.16 168.958 222.673 170.124 222.673 171.567V181.065H219.117V179.372C218.662 179.958 218.112 180.42 217.452 180.764C216.792 181.109 216.147 181.285 215.509 181.285H213.764C212.297 181.285 211.11 180.918 210.208 180.186H210.2ZM215.788 178.353C216.484 178.353 217.108 178.178 217.65 177.818C218.193 177.459 218.589 176.983 218.831 176.382V175.906C218.53 175.679 218.112 175.503 217.577 175.371C217.042 175.239 216.47 175.173 215.868 175.173H214.094C213.639 175.173 213.273 175.283 212.994 175.51C212.708 175.737 212.569 176.038 212.569 176.411V177.144C212.569 177.503 212.723 177.796 213.031 178.016C213.339 178.243 213.749 178.353 214.255 178.353H215.78H215.788Z" fill="#FF7F00"></path><path d="M225.766 166.994H229.322V168.797C229.681 168.255 230.195 167.808 230.862 167.456C231.529 167.104 232.226 166.936 232.959 166.936H234.88V170.263H232.959C231.962 170.263 231.155 170.563 230.532 171.164C229.909 171.765 229.601 172.535 229.601 173.473V181.058H225.766V166.994Z" fill="#FF7F00"></path><path d="M236.562 166.994H240.119V168.687C240.529 168.101 241.065 167.639 241.725 167.295C242.385 166.95 243.037 166.774 243.697 166.774H245.391C246.894 166.774 248.104 167.243 249.013 168.181C249.923 169.12 250.377 170.365 250.377 171.904V181.065H246.542V172.044C246.542 171.457 246.388 170.988 246.08 170.637C245.772 170.285 245.369 170.102 244.878 170.102H243.184C242.524 170.102 241.937 170.343 241.424 170.82C240.911 171.296 240.566 171.926 240.397 172.696V181.065H236.562V167.002V166.994Z" fill="#FF7F00"></path><path d="M254.152 165.037C253.712 164.612 253.492 164.055 253.492 163.359C253.492 162.663 253.712 162.106 254.152 161.681C254.592 161.256 255.179 161.043 255.912 161.043C256.645 161.043 257.232 161.256 257.672 161.681C258.112 162.106 258.332 162.663 258.332 163.359C258.332 164.055 258.112 164.612 257.672 165.037C257.232 165.455 256.638 165.668 255.912 165.668C255.186 165.668 254.592 165.455 254.152 165.037ZM253.991 166.994H257.826V181.058H253.991V166.994Z" fill="#FF7F00"></path><path d="M261.617 166.994H265.174V168.687C265.584 168.101 266.119 167.639 266.779 167.295C267.439 166.95 268.092 166.774 268.752 166.774H270.446C271.949 166.774 273.159 167.243 274.068 168.181C274.977 169.12 275.432 170.365 275.432 171.904V181.065H271.597V172.044C271.597 171.457 271.443 170.988 271.135 170.637C270.827 170.285 270.424 170.102 269.932 170.102H268.239C267.579 170.102 266.992 170.343 266.479 170.82C265.965 171.296 265.621 171.926 265.452 172.696V181.065H261.617V167.002V166.994Z" fill="#FF7F00"></path><path d="M280.242 185.499C279.245 184.641 278.687 183.52 278.577 182.128H282.361C282.398 182.538 282.566 182.875 282.867 183.132C283.168 183.381 283.542 183.513 283.996 183.513H286.533C287.113 183.513 287.589 183.271 287.956 182.795C288.322 182.318 288.506 181.688 288.506 180.918V179.592C288.132 180.01 287.677 180.332 287.142 180.581C286.607 180.83 286.093 180.948 285.609 180.948H283.666C281.958 180.948 280.579 180.442 279.538 179.423C278.497 178.405 277.969 177.071 277.969 175.422V172.549C277.969 171.406 278.211 170.395 278.702 169.515C279.193 168.643 279.875 167.962 280.762 167.485C281.65 167.009 282.662 166.767 283.806 166.767H285.441C286.079 166.767 286.709 166.921 287.318 167.221C287.926 167.522 288.425 167.918 288.799 168.409V167.002H292.355V180.926C292.355 182.091 292.113 183.11 291.637 183.996C291.16 184.876 290.478 185.565 289.591 186.056C288.704 186.547 287.692 186.789 286.548 186.789H284.011C282.508 186.789 281.254 186.363 280.257 185.506L280.242 185.499ZM285.851 177.709C286.57 177.709 287.164 177.408 287.655 176.822C288.146 176.228 288.425 175.459 288.498 174.499V172.557C288.425 171.802 288.168 171.201 287.736 170.754C287.303 170.307 286.761 170.08 286.101 170.08H284.128C283.432 170.08 282.867 170.329 282.434 170.842C282.002 171.347 281.782 172.014 281.782 172.842V175.158C281.782 175.928 281.98 176.551 282.376 177.02C282.772 177.489 283.278 177.723 283.901 177.723H285.844L285.851 177.709Z" fill="#FF7F00"></path><path d="M303.734 166.994H307.291V168.519C307.687 167.991 308.193 167.566 308.801 167.251C309.41 166.928 310.011 166.774 310.59 166.774H312.365C313.494 166.774 314.491 167.009 315.357 167.463C316.222 167.925 316.889 168.57 317.358 169.391C317.828 170.219 318.062 171.164 318.062 172.241V175.4C318.062 176.565 317.828 177.591 317.358 178.485C316.889 179.379 316.229 180.068 315.386 180.559C314.543 181.05 313.56 181.292 312.453 181.292H310.62C310.092 181.292 309.549 181.175 308.999 180.926C308.442 180.684 307.965 180.354 307.577 179.936V186.701H303.742V167.002L303.734 166.994ZM311.94 177.987C312.636 177.987 313.194 177.723 313.604 177.196C314.022 176.668 314.227 175.972 314.227 175.107V172.513C314.227 171.78 314.015 171.186 313.597 170.739C313.179 170.292 312.614 170.065 311.918 170.065H310.202C309.652 170.065 309.139 170.285 308.647 170.724C308.156 171.164 307.804 171.736 307.577 172.425V175.217C307.672 176.045 307.958 176.712 308.435 177.218C308.911 177.723 309.505 177.98 310.194 177.98H311.94V177.987Z" fill="#FF7F00"></path><path d="M321.954 180.002C321.177 179.299 320.781 178.207 320.781 176.719V161.329H324.616V176.492C324.616 176.946 324.719 177.269 324.924 177.481C325.13 177.694 325.459 177.789 325.914 177.789H327.439V181.057H325.636C323.964 181.057 322.732 180.706 321.954 180.002Z" fill="#FF7F00"></path><path d="M330.013 180.186C329.111 179.453 328.656 178.485 328.656 177.283V176.243C328.656 175.056 329.126 174.103 330.064 173.385C331.003 172.666 332.242 172.3 333.789 172.3H335.512C336.004 172.3 336.524 172.366 337.089 172.498C337.653 172.63 338.167 172.806 338.643 173.033V171.567C338.643 171.098 338.489 170.717 338.174 170.424C337.866 170.131 337.455 169.984 336.949 169.984H334.522C333.994 169.984 333.569 170.102 333.254 170.351C332.931 170.6 332.777 170.922 332.777 171.34H329.052C329.052 169.97 329.558 168.863 330.563 168.028C331.567 167.192 332.887 166.774 334.53 166.774H336.957C338.614 166.774 339.949 167.214 340.96 168.086C341.972 168.958 342.486 170.124 342.486 171.567V181.065H338.929V179.372C338.475 179.958 337.925 180.42 337.265 180.764C336.605 181.109 335.96 181.285 335.322 181.285H333.576C332.11 181.285 330.929 180.918 330.02 180.186H330.013ZM335.6 178.353C336.297 178.353 336.913 178.178 337.463 177.818C338.013 177.459 338.401 176.983 338.651 176.382V175.906C338.35 175.679 337.932 175.503 337.397 175.371C336.862 175.239 336.29 175.173 335.688 175.173H333.914C333.466 175.173 333.1 175.283 332.814 175.51C332.535 175.737 332.389 176.038 332.389 176.411V177.144C332.389 177.503 332.543 177.796 332.858 178.016C333.166 178.243 333.576 178.353 334.082 178.353H335.608H335.6Z" fill="#FF7F00"></path><path d="M348.09 179.936C347.32 179.181 346.932 178.016 346.932 176.441V170.27H344.453V167.002H347.049V162.744H350.774V167.002H354.44V170.27H350.774V176.272C350.774 176.8 350.876 177.181 351.067 177.43C351.265 177.672 351.58 177.796 352.013 177.796H354.44V181.065H351.734C350.077 181.065 348.867 180.691 348.097 179.936H348.09Z" fill="#FF7F00"></path><path d="M358.451 170.263H356.023V166.994H358.451V166.063C358.451 164.539 358.935 163.352 359.902 162.502C360.87 161.652 362.22 161.219 363.95 161.219H365.981V164.488H364.009C363.407 164.488 362.967 164.62 362.696 164.883C362.425 165.147 362.286 165.558 362.286 166.122V166.994H365.673V170.263H362.286V181.057H358.451V170.263Z" fill="#FF7F00"></path><path d="M369.391 180.596C368.482 180.134 367.778 179.482 367.279 178.639C366.781 177.796 366.531 176.814 366.531 175.708V172.41C366.531 171.303 366.788 170.321 367.294 169.464C367.8 168.607 368.511 167.947 369.42 167.478C370.33 167.009 371.378 166.774 372.566 166.774H375.103C376.284 166.774 377.332 167.009 378.249 167.478C379.158 167.947 379.869 168.607 380.375 169.464C380.881 170.321 381.138 171.303 381.138 172.41V175.708C381.138 176.814 380.889 177.796 380.375 178.639C379.869 179.482 379.158 180.134 378.249 180.596C377.34 181.058 376.276 181.285 375.081 181.285H372.544C371.356 181.285 370.308 181.058 369.398 180.596H369.391ZM375.015 177.987C375.712 177.987 376.269 177.745 376.68 177.269C377.09 176.792 377.303 176.162 377.303 175.393V172.659C377.303 171.89 377.098 171.267 376.68 170.783C376.262 170.307 375.719 170.065 375.044 170.065H372.617C371.943 170.065 371.393 170.307 370.982 170.783C370.564 171.259 370.359 171.89 370.359 172.659V175.393C370.359 176.162 370.564 176.785 370.982 177.269C371.393 177.745 371.928 177.987 372.588 177.987H375.015Z" fill="#FF7F00"></path><path d="M383.844 166.994H387.4V168.797C387.759 168.255 388.265 167.808 388.933 167.456C389.6 167.104 390.304 166.936 391.037 166.936H392.958V170.263H391.037C390.04 170.263 389.233 170.563 388.61 171.164C387.987 171.765 387.679 172.535 387.679 173.473V181.058H383.844V166.994Z" fill="#FF7F00"></path><path d="M414.16 168.167C415.025 169.097 415.458 170.314 415.458 171.816V181.057H411.623V171.816C411.623 171.289 411.498 170.871 411.256 170.563C411.014 170.255 410.692 170.101 410.296 170.101H409.086C408.558 170.101 408.096 170.292 407.7 170.68C407.304 171.069 407.062 171.582 406.967 172.219V181.072H403.132V171.853C403.132 171.325 403.007 170.907 402.765 170.585C402.523 170.263 402.201 170.109 401.805 170.109H400.705C400.155 170.109 399.678 170.351 399.268 170.842C398.857 171.333 398.593 171.97 398.476 172.762V181.072H394.641V167.009H398.197V168.643C398.534 168.079 398.974 167.632 399.51 167.287C400.045 166.95 400.587 166.781 401.13 166.781H402.707C403.381 166.781 403.997 166.957 404.554 167.317C405.104 167.676 405.544 168.174 405.867 168.812C406.278 168.174 406.776 167.676 407.348 167.317C407.92 166.957 408.529 166.781 409.167 166.781H410.721C412.151 166.781 413.295 167.251 414.16 168.181V168.167Z" fill="#FF7F00"></path><path d="M400.992 202.142C400.831 202.01 400.706 201.812 400.596 201.534L398.125 195.173H399.533L401.571 200.83H401.601L403.639 195.173H405.047L402.231 202.34H401.571C401.344 202.34 401.146 202.274 400.985 202.142H400.992Z" fill="#AAAAAA"></path></svg>