<svg xmlns="http://www.w3.org/2000/svg" width="567" height="337" viewBox="0 0 567 337" fill="none"><g clip-path="url(#clip0_4093_2344)"><path d="M115.968 2.88086H9.29932C4.57335 2.88086 0.742188 6.71203 0.742188 11.438V118.106C0.742188 122.832 4.57335 126.663 9.29932 126.663H115.968C120.694 126.663 124.525 122.832 124.525 118.106V11.438C124.525 6.71203 120.694 2.88086 115.968 2.88086Z" fill="#1328A3"></path><path d="M336.991 0.297852H230.323C225.597 0.297852 221.766 4.12902 221.766 8.855V115.523C221.766 120.249 225.597 124.08 230.323 124.08H336.991C341.717 124.08 345.548 120.249 345.548 115.523V8.855C345.548 4.12902 341.717 0.297852 336.991 0.297852Z" fill="#1328A3"></path><path d="M558.015 0.849609H451.346C446.62 0.849609 442.789 4.68078 442.789 9.40676V116.075C442.789 120.801 446.62 124.632 451.346 124.632H558.015C562.741 124.632 566.572 120.801 566.572 116.075V9.40676C566.572 4.68078 562.741 0.849609 558.015 0.849609Z" fill="#1328A3"></path><path d="M115.225 210.115H8.55714C3.83116 210.115 0 213.946 0 218.672V325.341C0 330.067 3.83116 333.898 8.55714 333.898H115.225C119.951 333.898 123.783 330.067 123.783 325.341V218.672C123.783 213.946 119.951 210.115 115.225 210.115Z" fill="#1328A3"></path><path d="M340.679 213.643H234.01C229.284 213.643 225.453 217.474 225.453 222.2V328.868C225.453 333.594 229.284 337.425 234.01 337.425H340.679C345.405 337.425 349.236 333.594 349.236 328.868V222.2C349.236 217.474 345.405 213.643 340.679 213.643Z" fill="#1328A3"></path><path d="M559.936 211.779H453.268C448.542 211.779 444.711 215.61 444.711 220.336V327.004C444.711 331.73 448.542 335.561 453.268 335.561H559.936C564.662 335.561 568.494 331.73 568.494 327.004V220.336C568.494 215.61 564.662 211.779 559.936 211.779Z" fill="#1328A3"></path><path d="M476.457 88.4045C482.127 88.4045 487.789 88.4045 493.46 88.4045H493.963C493.963 88.5484 493.963 88.6524 493.963 88.7564C493.819 90.5637 492.436 92.1632 490.66 92.5631C490.325 92.643 489.973 92.651 489.629 92.691C488.997 92.763 488.549 93.0829 488.357 93.6987C488.053 94.6584 488.757 95.5461 489.821 95.5461C492.644 95.5461 495.475 95.5461 498.298 95.5461C502.025 95.5461 505.743 95.5461 509.47 95.5461C509.998 95.5461 510.454 95.4181 510.782 94.9863C511.126 94.5304 511.19 94.0346 510.95 93.5147C510.67 92.9309 510.174 92.699 509.55 92.675C508.207 92.6271 507.127 92.0512 506.303 91.0036C505.719 90.2598 505.407 89.4041 505.407 88.4045H505.911C511.589 88.4045 517.268 88.4045 522.954 88.4045C523.337 88.4045 523.737 88.3645 524.105 88.2605C525.785 87.7887 526.816 86.3332 526.816 84.4378C526.816 77.3682 526.816 70.2905 526.816 63.2209V62.781C525.233 62.781 523.945 64.0686 523.945 65.6521V76.9683H475.426V76.4645C475.426 67.5554 475.426 58.6464 475.426 49.7374C475.426 48.7457 475.689 48.4818 476.689 48.4818C481.16 48.4818 485.638 48.4818 490.109 48.4818C490.261 48.4818 490.404 48.4658 490.62 48.4578C489.965 47.5781 489.709 46.6504 489.701 45.6508C489.541 45.6508 489.421 45.6348 489.301 45.6348C485.014 45.6348 480.728 45.6348 476.433 45.6348C474.298 45.6348 472.562 47.3782 472.562 49.5135C472.562 61.1816 472.562 72.8497 472.562 84.5178C472.562 86.813 474.17 88.4125 476.457 88.4125V88.4045ZM495.259 92.6591C496.219 91.3795 496.802 90.0119 496.826 88.4285H502.52C502.552 89.9799 503.12 91.3555 504.096 92.6591H495.251H495.259ZM475.418 80.0313C475.418 80.0313 475.434 79.9593 475.45 79.8873H523.953C523.953 80.6791 523.953 81.4548 523.953 82.2305C523.953 82.9903 523.953 83.758 523.953 84.5178C523.953 85.0936 523.473 85.5574 522.898 85.5654C521.498 85.5654 520.091 85.5654 518.691 85.5654C504.672 85.5654 490.644 85.5654 476.625 85.5574C476.321 85.5574 475.977 85.4695 475.737 85.3095C475.561 85.1975 475.434 84.8856 475.434 84.6537C475.41 83.1102 475.418 81.5748 475.426 80.0313H475.418Z" fill="#FF7F00"></path><path d="M492.88 44.6988C492.392 45.4585 492.432 46.0263 493.023 46.7061C496.686 50.8887 500.349 55.0633 504.004 59.2539C504.396 59.7018 504.844 59.8937 505.443 59.8937C511.993 59.8857 518.543 59.8697 525.093 59.8937C526.18 59.8937 526.836 59.2539 526.82 58.1743C526.78 55.5751 526.804 52.976 526.812 50.3769C526.812 50.2249 526.828 50.073 526.836 49.921H531.099V68.4268H533.946V49.8971C534.386 49.8971 534.786 49.8971 535.185 49.8971C535.961 49.8971 536.465 49.6091 536.697 49.0013C536.945 48.3456 536.737 47.8177 536.257 47.3299C530.635 41.7238 525.013 36.1097 519.399 30.4875C519.023 30.1117 518.615 29.9277 518.079 29.9277C510.098 29.9277 502.116 29.9277 494.127 29.9277C493.455 29.9277 492.951 30.1756 492.672 30.7914C492.392 31.4152 492.576 31.959 493.031 32.4389C494.223 33.7025 495.415 34.974 496.606 36.2456C496.934 36.5975 497.254 36.9494 497.574 37.2933C497.494 37.4212 497.446 37.5092 497.382 37.6051C495.879 39.9644 494.375 42.3236 492.872 44.6828L492.88 44.6988ZM497.278 32.7908H497.878C504.292 32.7908 510.706 32.7908 517.127 32.7828C517.511 32.7828 517.767 32.8947 518.031 33.1666C522.534 37.6771 527.044 42.1796 531.563 46.6821C531.659 46.7781 531.803 46.8421 531.922 46.9221C531.89 46.97 531.858 47.018 531.818 47.058H531.435C524.661 47.058 517.879 47.058 511.105 47.058C510.778 47.058 510.57 46.954 510.346 46.7221C506.115 42.2036 501.885 37.6931 497.646 33.1826C497.55 33.0787 497.454 32.9747 497.278 32.7828V32.7908ZM499.597 39.4605C500.245 40.1483 500.861 40.7961 501.477 41.4439C503.964 44.091 506.443 46.7301 508.922 49.3852C509.282 49.7691 509.698 49.913 510.21 49.913C514.616 49.913 519.023 49.913 523.429 49.913H523.941V57.0467H523.501C517.759 57.0467 512.009 57.0467 506.267 57.0387C506.067 57.0387 505.803 56.9587 505.683 56.8147C502.42 53.12 499.181 49.4092 495.935 45.7064C495.879 45.6505 495.839 45.5785 495.767 45.4985C497.038 43.5072 498.302 41.5159 499.605 39.4765L499.597 39.4605Z" fill="#FF7F00"></path><path d="M499.682 84.1334C500.465 84.1334 501.121 83.4697 501.113 82.6939C501.105 81.9102 500.441 81.2704 499.658 81.2784C498.89 81.2864 498.25 81.9342 498.242 82.6939C498.242 83.4697 498.898 84.1334 499.674 84.1334H499.682Z" fill="#FF7F00"></path><path d="M90.432 260.811C90.432 259.691 89.9522 259.211 88.8165 259.211C85.9215 259.211 83.0185 259.211 80.1235 259.211C78.9958 259.211 78.516 259.691 78.516 260.819V271.751C78.516 272.407 78.516 273.063 78.516 273.719C78.516 274.166 78.6919 274.55 78.9958 274.798C79.2757 275.038 79.6436 275.134 80.0355 275.07C80.7233 274.958 81.1231 274.406 81.1231 273.559C81.1231 270.56 81.1231 267.569 81.1231 264.57V261.867H87.7689V295.687H81.1231V284.139V284.027C81.1231 283.875 81.1231 283.715 81.0991 283.555C81.0032 282.931 80.4513 282.452 79.8276 282.444H79.8116C79.1718 282.444 78.612 282.939 78.524 283.587C78.508 283.723 78.508 283.859 78.508 284.003V287.394C78.508 290.473 78.508 293.544 78.5 296.623C78.5 297.447 78.7719 297.966 79.3957 298.302L89.5123 298.326L89.5603 298.302C90.1681 297.958 90.448 297.463 90.448 296.735C90.44 287.33 90.44 277.917 90.44 268.512V260.819L90.432 260.811Z" fill="#FF7F00"></path><path d="M58.6917 269.152C55.7967 269.152 52.9017 269.152 50.0066 269.152C48.815 269.152 48.3752 269.592 48.3752 270.767V277.637C48.3752 283.995 48.3752 290.353 48.3672 296.711C48.3672 297.51 48.6631 298.022 49.2949 298.318L59.4035 298.334L59.4515 298.302C60.0273 297.918 60.2992 297.43 60.2912 296.775C60.2912 290.985 60.2912 285.194 60.2912 279.404V270.719C60.2912 269.64 59.7954 269.152 58.6997 269.152H58.6917ZM57.6281 271.775V295.679H51.0303V271.775H57.6281Z" fill="#FF7F00"></path><path d="M64.3408 298.31L74.4494 298.334L74.4974 298.31C75.1132 297.966 75.3851 297.446 75.3851 296.622C75.3691 290.96 75.3691 285.306 75.3771 279.644V274.334C75.3771 273.15 74.9213 272.694 73.7537 272.694H65.1806C63.893 272.694 63.4611 273.126 63.4611 274.398V279.164C63.4611 284.986 63.4611 290.808 63.4531 296.63C63.4531 297.462 63.725 297.982 64.3488 298.31H64.3408ZM66.1002 295.687V275.325H72.722V295.687H66.1002Z" fill="#FF7F00"></path><path d="M43.5403 282.907H41.0132C39.0378 282.907 37.0545 282.907 35.0792 282.899H35.0472C34.2554 282.899 33.7276 283.171 33.3757 283.755L33.3438 283.803V298.334H44.3321L44.3801 298.31C45.0039 297.974 45.2758 297.454 45.2678 296.63C45.2518 293.711 45.2518 290.792 45.2518 287.865V284.626C45.2518 283.355 44.8039 282.907 43.5323 282.907H43.5403ZM35.9909 295.695V285.554H42.6126V295.695H35.9909Z" fill="#FF7F00"></path><path d="M88.3132 253.477C89.7287 251.638 89.6487 249.118 88.1372 247.359C86.6337 245.616 84.0906 245.176 82.0993 246.311C81.1076 246.879 80.3878 247.695 79.972 248.735C79.4601 250.022 79.5081 251.342 80.1159 252.677L72.0226 259.907C72.0226 259.907 71.9906 259.891 71.9747 259.883C69.4635 258.491 66.9043 259.099 65.2809 261.474C65.1609 261.65 65.089 261.642 64.841 261.586L63.5135 261.266C62.2579 260.962 60.9543 260.659 59.6748 260.379C59.2589 260.291 59.1389 260.155 59.091 259.739C58.947 258.491 58.2592 257.332 57.2116 256.556C56.132 255.756 54.7804 255.436 53.4848 255.668C52.1093 255.916 50.8457 256.78 50.118 257.979C49.4622 259.051 49.2942 260.267 49.6381 261.402C50.006 262.618 49.6461 263.138 48.8544 263.69C48.7424 263.77 48.6385 263.866 48.5505 263.961C48.5105 264.001 48.4705 264.041 48.4305 264.081L41.8807 270.079C39.1696 268.872 36.8584 269.336 35.3709 271.391C34.0273 273.238 34.1873 275.814 35.7468 277.501C36.6905 278.525 37.994 279.052 39.3056 279.052C40.1853 279.052 41.073 278.812 41.8567 278.325C43.96 277.021 44.6078 274.726 43.6481 272.015L44.5198 271.207C46.895 269.024 49.2702 266.84 51.6534 264.673C51.6934 264.641 51.8614 264.633 51.9414 264.673C54.4125 265.905 56.9077 265.257 58.4432 262.97C58.5551 262.802 58.6111 262.778 58.8111 262.826C59.2829 262.946 59.7547 263.058 60.2266 263.162C60.4905 263.218 60.7624 263.282 61.0263 263.346C61.818 263.53 62.6098 263.722 63.3935 263.913L64.5531 264.193C64.7851 266.377 65.8727 267.832 67.7761 268.528C69.6474 269.216 71.3829 268.832 72.7824 267.44C74.3499 265.889 74.6857 264.001 73.7741 261.834L81.8513 254.621C84.4985 255.868 86.7937 255.452 88.3132 253.469V253.477ZM82.883 252.093C82.4591 251.662 82.2272 251.094 82.2432 250.486C82.2672 249.27 83.2669 248.295 84.4825 248.295H84.5145C85.7381 248.311 86.7297 249.318 86.7137 250.542C86.7137 251.766 85.7061 252.757 84.4825 252.757C83.8827 252.757 83.3229 252.517 82.899 252.085L82.883 252.093ZM71.6468 263.985C71.6468 264.577 71.4068 265.161 70.975 265.585C70.5511 266.009 69.9993 266.241 69.4235 266.241H69.3915C68.1679 266.225 67.1763 265.217 67.1843 263.993C67.1843 262.754 68.1679 261.786 69.4075 261.778C70.6311 261.778 71.6388 262.77 71.6468 263.985ZM56.5558 260.451C56.5558 261.042 56.3079 261.618 55.868 262.05C55.4442 262.458 54.8924 262.698 54.3326 262.698C54.3166 262.698 54.3006 262.698 54.2846 262.698C53.045 262.666 52.0853 261.674 52.0933 260.435C52.1013 259.203 53.077 258.235 54.3166 258.235C55.5481 258.235 56.5478 259.235 56.5478 260.459L56.5558 260.451ZM37.0583 274.158C37.0823 272.95 38.082 271.983 39.2976 271.983H39.3376C40.5612 272.007 41.5448 273.022 41.5288 274.246C41.5128 275.462 40.5132 276.445 39.2896 276.445H39.2736C38.6738 276.445 38.114 276.197 37.6981 275.765C37.2743 275.334 37.0503 274.758 37.0583 274.15V274.158Z" fill="#FF7F00"></path><path d="M314.055 288.514H314.047C313.311 288.514 312.783 289.065 312.751 289.849C312.735 290.257 312.743 290.665 312.751 291.065V291.473C312.759 294.679 311.52 297.367 309.072 299.454L300.003 307.187C299.867 307.299 299.732 307.411 299.596 307.515C298.636 306.699 297.676 305.892 296.725 305.076C294.405 303.109 292.014 301.077 289.703 299.046C287.584 297.183 286.488 294.751 286.448 291.816C286.4 288.346 286.424 284.811 286.448 281.396V281.18C286.448 281.028 286.592 280.772 286.704 280.7C290.91 278.069 295.165 275.43 299.34 272.871C299.444 272.807 299.74 272.807 299.851 272.871C304.01 275.422 308.257 278.053 312.487 280.708C312.599 280.78 312.727 281.036 312.727 281.204C312.751 282.02 312.751 282.835 312.751 283.659C312.751 284.051 312.751 284.443 312.751 284.835C312.751 285.794 313.239 286.378 314.047 286.386H314.063C314.415 286.386 314.719 286.266 314.95 286.042C315.222 285.77 315.366 285.363 315.374 284.859C315.374 284.347 315.374 283.827 315.374 283.315C315.374 282.484 315.374 281.652 315.382 280.82C315.398 279.852 314.998 279.133 314.143 278.621C313.575 278.277 313.007 277.925 312.447 277.573C311.712 277.117 310.984 276.653 310.24 276.222C309.808 275.966 309.664 275.726 309.664 275.214C309.68 268.936 309.68 262.658 309.68 256.388C309.68 251.91 309.68 247.423 309.68 242.945C309.68 242.241 309.552 241.257 308.457 240.754L308.401 240.729H269.814L269.67 240.77C268.838 241.217 268.462 241.929 268.526 242.929C268.558 243.529 268.558 244.128 268.542 244.768C268.542 244.96 268.542 245.152 268.542 245.352H267.926C267.27 245.352 266.647 245.352 266.023 245.352C264.535 245.352 263.904 245.992 263.896 247.479C263.896 248.103 263.896 248.735 263.896 249.391V250.006C263.704 250.006 263.504 250.006 263.32 250.006C262.68 250.014 262.08 250.022 261.48 249.982C260.489 249.926 259.777 250.294 259.321 251.126L259.289 251.19V303.684L259.321 303.812C259.737 304.684 260.481 305.092 261.528 305.02C262.016 304.996 262.512 305.004 263 305.004C263.224 305.004 263.44 305.004 263.664 305.004H264.991C266.095 305.004 267.206 305.004 268.318 305.004C268.83 305.004 269.262 304.812 269.518 304.484C269.75 304.196 269.83 303.812 269.742 303.413C269.59 302.733 269.102 302.389 268.294 302.389C266.91 302.389 265.527 302.389 264.143 302.389H261.96V252.63H297.82V257.196C297.82 261.419 297.812 265.641 297.844 269.864C297.844 270.536 297.668 270.863 297.108 271.183C295.869 271.895 294.637 272.671 293.438 273.415C293.086 273.63 292.734 273.854 292.382 274.07C292.23 273.119 291.798 272.863 290.639 272.863H268.99C268.83 272.863 268.67 272.863 268.518 272.879C267.782 272.959 267.35 273.423 267.342 274.142C267.334 274.87 267.75 275.342 268.486 275.446C268.742 275.478 268.998 275.478 269.246 275.478H289.983C289.135 276.094 288.239 276.669 287.2 277.269C286.896 277.445 286.504 277.557 286.16 277.557C284.673 277.581 283.177 277.581 281.69 277.573H279.97C279.826 277.573 279.682 277.573 279.538 277.573C278.771 277.629 278.267 278.093 278.235 278.797C278.219 279.165 278.331 279.509 278.563 279.756C278.795 280.004 279.122 280.148 279.514 280.156C280.41 280.18 281.306 280.18 282.209 280.18C282.641 280.18 283.065 280.18 283.497 280.18C283.609 280.18 283.729 280.18 283.833 280.196V282.276H269.214C268.342 282.276 267.334 282.42 267.334 283.579C267.334 284.739 268.406 284.899 269.206 284.899H283.793V286.994H269.086C268.862 286.994 268.638 286.994 268.406 287.026C267.758 287.13 267.374 287.57 267.342 288.234C267.31 288.897 267.67 289.385 268.294 289.537C268.606 289.609 268.926 289.609 269.23 289.609C272.877 289.609 276.523 289.609 280.178 289.609H283.785V291.704H269.238H269.102C268.886 291.704 268.67 291.704 268.462 291.728C267.766 291.824 267.366 292.28 267.35 292.976C267.334 293.672 267.718 294.152 268.406 294.272C268.686 294.32 268.974 294.32 269.262 294.32H270.061C274.62 294.32 279.178 294.32 283.737 294.32C284.073 294.32 284.145 294.352 284.201 294.6C284.833 297.335 286.32 299.678 288.623 301.565C288.943 301.829 289.247 302.093 289.559 302.365H273.796C272.869 302.365 271.917 302.517 271.909 303.652C271.909 304.02 272.013 304.316 272.229 304.54C272.533 304.844 273.02 304.988 273.772 304.988H277.227C282.177 304.988 287.136 304.988 292.086 305.004C292.398 305.004 292.782 305.148 293.03 305.348C294.277 306.372 295.493 307.419 296.717 308.467L297.956 309.522C298.556 310.034 299.084 310.29 299.612 310.29C300.139 310.29 300.659 310.034 301.259 309.522C302.235 308.691 303.202 307.859 304.17 307.027C306.177 305.3 308.249 303.508 310.336 301.813C314.063 298.782 315.71 294.847 315.382 289.785C315.334 288.993 314.806 288.474 314.079 288.474L314.055 288.514ZM302.435 254.901C302.547 255.645 303.138 256.124 303.818 256.06C304.562 255.996 305.01 255.525 305.018 254.797C305.034 251.63 305.034 249.223 305.018 246.975C305.018 246.16 304.458 245.536 303.618 245.392C303.338 245.344 303.058 245.344 302.787 245.344H271.213V243.385H307.009V274.206L306.793 274.07C306.201 273.71 305.642 273.367 305.122 273.007C305.106 272.983 305.042 272.839 305.042 272.519C305.034 269.44 305.034 266.361 305.034 263.29V260.059V259.923C305.034 259.715 305.034 259.491 305.002 259.267C304.906 258.66 304.498 258.268 303.882 258.204C303.826 258.204 303.77 258.196 303.714 258.196C303.13 258.196 302.699 258.516 302.523 259.067C302.427 259.371 302.419 259.691 302.419 260.019C302.419 263.018 302.419 266.009 302.419 269.008V271.343L302.203 271.215C301.571 270.847 300.979 270.496 300.459 270.16C300.427 270.096 300.427 269.864 300.427 269.688C300.427 265.409 300.427 261.123 300.427 256.844V252.174C300.427 250.566 299.851 249.99 298.236 249.99H266.551V248.023H302.419V254.253V254.381C302.419 254.557 302.419 254.733 302.443 254.901H302.435Z" fill="#FF7F00"></path><path d="M299.572 278.741C297.029 278.741 294.638 279.74 292.83 281.556C291.023 283.371 290.031 285.77 290.031 288.313C290.039 293.576 294.326 297.846 299.588 297.846H299.604C302.155 297.846 304.546 296.847 306.354 295.031C308.161 293.224 309.153 290.825 309.145 288.282C309.137 283.019 304.842 278.741 299.572 278.741ZM294.662 293.16C293.358 291.848 292.646 290.113 292.654 288.274C292.678 284.451 295.789 281.356 299.596 281.356H299.628C303.419 281.372 306.522 284.475 306.53 288.274C306.53 290.113 305.818 291.848 304.506 293.16C303.187 294.479 301.443 295.207 299.588 295.207C297.725 295.207 295.981 294.479 294.662 293.152V293.16Z" fill="#FF7F00"></path><path d="M267.313 264.714C267.305 265.105 267.433 266.025 268.872 266.073C268.912 266.073 268.952 266.073 268.992 266.073H272.719C278.661 266.073 284.603 266.073 290.545 266.073C290.857 266.073 291.137 266.073 291.417 266.001C292.049 265.849 292.4 265.377 292.376 264.714C292.352 264.05 291.969 263.602 291.329 263.498C291.097 263.458 290.873 263.458 290.649 263.458H276.238C273.791 263.458 271.335 263.458 268.88 263.458C267.497 263.458 267.321 264.338 267.313 264.722V264.714Z" fill="#FF7F00"></path><path d="M268.872 270.783H272.207C278.317 270.783 284.427 270.783 290.545 270.783H290.721C290.785 270.783 290.857 270.791 290.921 270.791C291.153 270.791 291.385 270.767 291.569 270.631C291.913 270.376 292.297 269.952 292.337 269.528C292.385 269.056 291.945 268.56 291.705 268.368C291.465 268.168 291.113 268.168 290.801 268.176H290.673C287.85 268.176 285.035 268.176 282.212 268.176H276.894C274.223 268.176 271.544 268.176 268.872 268.176C267.489 268.176 267.313 269.056 267.305 269.44C267.297 269.832 267.425 270.751 268.872 270.799V270.783Z" fill="#FF7F00"></path><path d="M273.723 259.195C275.25 259.195 276.786 259.195 278.313 259.195H281.368C281.88 259.195 282.392 259.195 282.896 259.195C283.912 259.195 284.935 259.195 285.959 259.195C286.231 259.195 286.535 259.195 286.831 259.123C287.462 258.971 287.814 258.5 287.798 257.836C287.774 257.172 287.398 256.732 286.759 256.612C286.543 256.572 286.319 256.572 286.119 256.572H286.039C281.92 256.572 277.794 256.572 273.667 256.572H273.587C273.387 256.572 273.163 256.572 272.947 256.612C272.307 256.724 271.924 257.172 271.9 257.836C271.876 258.5 272.227 258.971 272.867 259.123C273.163 259.195 273.467 259.195 273.739 259.195H273.723Z" fill="#FF7F00"></path><path d="M272.439 280.22C273.647 280.22 274.854 280.22 276.07 280.212C276.566 280.212 276.974 280.06 277.238 279.788C277.47 279.549 277.581 279.229 277.573 278.853C277.549 278.077 276.99 277.605 276.07 277.597C275.23 277.597 274.391 277.597 273.551 277.597H272.503H271.416C270.544 277.597 269.68 277.597 268.808 277.597C267.897 277.597 267.337 278.077 267.313 278.853C267.305 279.229 267.417 279.549 267.649 279.788C267.913 280.06 268.313 280.204 268.816 280.212C270.024 280.212 271.232 280.22 272.447 280.22H272.439Z" fill="#FF7F00"></path><path d="M303.964 287.546C304.204 287.298 304.34 286.978 304.332 286.65C304.332 286.314 304.18 285.986 303.916 285.731C303.34 285.179 302.604 285.235 301.956 285.875C301.285 286.538 300.621 287.21 299.925 287.906L299.181 288.65C299.085 288.538 298.981 288.434 298.885 288.322C298.494 287.89 298.118 287.474 297.71 287.082C297.43 286.81 297.126 286.658 296.758 286.682C296.422 286.69 296.102 286.842 295.846 287.114C295.351 287.642 295.367 288.386 295.878 288.913C296.606 289.673 297.398 290.465 298.31 291.345C298.598 291.625 298.925 291.761 299.245 291.761C299.549 291.761 299.853 291.633 300.109 291.385C301.365 290.169 302.66 288.866 303.964 287.53V287.546Z" fill="#FF7F00"></path><path d="M541.709 247.727C541.653 247.087 541.205 246.631 540.581 246.551C540.405 246.527 540.229 246.535 540.053 246.535H539.901H474.211H473.796C473.452 246.535 473.1 246.527 472.756 246.535C472.028 246.567 471.524 247.071 471.484 247.815C471.484 247.879 471.484 247.943 471.484 248.007V252.981C471.484 254.069 471.956 254.533 473.052 254.541C473.316 254.541 473.588 254.541 473.852 254.541H474.771C475.099 254.541 475.411 254.525 475.763 254.557V285.106C475.763 287.602 475.771 290.185 475.755 292.728C475.755 293.208 475.899 293.608 476.187 293.887C476.467 294.159 476.875 294.295 477.322 294.271C478.002 294.239 478.706 294.247 479.378 294.255C479.706 294.255 480.018 294.239 480.361 294.271C480.345 294.327 480.329 294.383 480.321 294.439C480.289 294.607 480.249 294.775 480.209 294.951C480.114 295.351 480.018 295.767 479.994 296.183C479.954 296.711 479.946 297.254 479.946 297.774C479.946 298.246 479.938 298.718 479.906 299.19C479.874 299.702 480.026 300.141 480.329 300.429C480.577 300.669 480.921 300.797 481.321 300.797C481.385 300.797 481.457 300.797 481.529 300.789L481.513 300.589L481.617 300.789H502.346H525.722C527.778 300.789 529.833 300.789 531.888 300.789C532.832 300.789 533.312 300.309 533.32 299.366C533.32 298.974 533.32 298.59 533.32 298.198C533.32 297.838 533.32 297.47 533.32 297.11C533.32 296.359 533.224 295.591 533.024 294.831L532.88 294.271H534.039C534.711 294.271 535.391 294.271 536.063 294.271C536.942 294.271 537.462 293.76 537.494 292.88C537.494 292.768 537.494 292.664 537.494 292.552V280.476V254.965C537.494 254.845 537.494 254.725 537.51 254.597V254.557H538.662C539.254 254.557 539.838 254.557 540.429 254.549C541.237 254.533 541.717 254.045 541.749 253.221C541.749 253.157 541.749 253.101 541.749 253.037V248.087C541.749 247.967 541.749 247.855 541.741 247.735L541.709 247.727ZM519.588 280.444C520.348 279.692 521.34 279.284 522.379 279.284H522.411C523.859 279.292 524.803 279.948 525.33 280.5C526.082 281.268 526.498 282.307 526.474 283.339C526.474 284.435 526.058 285.45 525.298 286.21C524.539 286.97 523.515 287.394 522.427 287.394C521.34 287.394 520.316 286.962 519.548 286.194C518.781 285.426 518.365 284.403 518.373 283.323C518.373 282.259 518.829 281.212 519.596 280.444H519.588ZM514.166 296.878C514.382 293.416 516.885 290.633 520.252 290.113C522.171 289.817 523.835 289.873 525.338 290.265C528.433 291.088 530.633 293.911 530.681 297.142C530.681 297.406 530.681 297.678 530.681 297.95V298.15H514.158C514.158 298.054 514.158 297.966 514.158 297.87C514.158 297.526 514.15 297.206 514.166 296.878ZM531.448 291.528C530.345 289.993 528.889 288.849 527.13 288.121C528.809 286.37 529.121 284.483 529.081 283.187C529.025 281.324 528.185 279.516 526.834 278.349C524.179 276.045 520.284 276.141 517.781 278.581C516.509 279.812 515.782 281.548 515.782 283.339C515.782 285.09 516.477 286.77 517.749 288.121C516.517 288.641 515.454 289.337 514.526 290.241C513.55 289.313 512.487 288.609 511.271 288.113C512.807 286.53 513.454 284.651 513.214 282.531C513.022 280.884 512.279 279.468 510.991 278.341C508.496 276.149 504.737 276.149 502.25 278.341C500.755 279.652 499.987 281.316 499.963 283.291C499.939 285.114 500.611 286.738 501.954 288.113C500.747 288.609 499.683 289.297 498.723 290.209C498.587 290.105 498.451 290.001 498.323 289.889C497.924 289.569 497.556 289.273 497.14 289.009C496.724 288.745 496.292 288.521 495.836 288.281C495.716 288.217 495.596 288.161 495.476 288.097C497.124 286.37 497.74 284.331 497.308 282.035C497.004 280.428 496.164 279.092 494.813 278.061C492.189 276.045 488.423 276.309 486.048 278.669C484.848 279.868 484.128 281.62 484.128 283.371C484.128 284.603 484.472 286.41 486.087 288.129C486.056 288.145 486.024 288.161 485.992 288.177C484.32 288.881 482.929 289.969 481.865 291.416C481.713 291.616 481.593 291.688 481.353 291.688H481.329C480.881 291.68 480.433 291.68 479.986 291.68C479.698 291.68 479.418 291.68 479.13 291.68H478.402L478.378 254.781C478.378 254.725 478.378 254.661 478.386 254.597H534.775C534.879 257.26 534.919 289.041 534.823 291.656C534.799 291.656 534.767 291.672 534.751 291.672C533.744 291.672 532.744 291.672 531.744 291.672C531.592 291.672 531.528 291.64 531.448 291.528ZM511.543 298.118C510.303 298.198 502.922 298.206 501.634 298.126C501.746 295.927 501.314 294.031 500.307 292.328C500.355 292.264 500.403 292.2 500.459 292.144C501.818 290.801 503.458 290.081 505.345 290.017C506.569 289.969 507.56 289.993 508.464 290.081C510.151 290.249 511.599 290.976 512.895 292.312C511.895 294.015 511.455 295.919 511.543 298.126V298.118ZM503.73 280.484C504.497 279.708 505.521 279.276 506.593 279.268H506.609C507.672 279.268 508.68 279.684 509.448 280.444C510.223 281.22 510.647 282.243 510.647 283.339C510.647 284.427 510.231 285.45 509.464 286.21C508.704 286.97 507.688 287.386 506.601 287.386H506.585C504.361 287.386 502.546 285.57 502.538 283.355C502.538 282.275 502.954 281.252 503.73 280.476V280.484ZM487.927 280.46C488.687 279.7 489.678 279.284 490.726 279.284H490.758C492.213 279.3 493.157 279.964 493.693 280.516C494.429 281.284 494.853 282.331 494.821 283.339C494.821 284.435 494.405 285.458 493.637 286.218C492.877 286.978 491.862 287.394 490.774 287.394H490.758C488.535 287.394 486.719 285.586 486.703 283.371C486.703 282.291 487.135 281.236 487.911 280.46H487.927ZM484.536 292.264C485.888 290.848 487.559 290.097 489.51 290.017C490.646 289.969 491.654 289.993 492.581 290.073C495.692 290.345 498.355 292.808 498.915 295.927C499.043 296.655 499.035 297.382 499.027 298.158H482.513C482.361 295.775 483.017 293.847 484.528 292.264H484.536ZM539.086 249.166V251.918C539.03 251.918 538.974 251.925 538.91 251.925C517.317 251.925 495.732 251.926 474.116 251.902V249.158C474.203 249.15 474.291 249.142 474.387 249.142C495.948 249.142 517.501 249.142 539.086 249.166Z" fill="#FF7F00"></path><path d="M502.707 266.944C502.611 266.936 502.523 266.944 502.427 266.944H502.339H492.974H492.887C492.751 266.944 492.623 266.944 492.495 266.96C491.831 267.064 491.375 267.608 491.391 268.288C491.407 268.952 491.903 269.48 492.575 269.536C492.679 269.536 492.783 269.544 492.887 269.536H497.845H501.268C501.46 269.536 501.652 269.536 501.844 269.536C502.115 269.536 502.387 269.536 502.659 269.528C503.363 269.504 503.891 268.984 503.915 268.28C503.939 267.568 503.427 267 502.699 266.944H502.707Z" fill="#FF7F00"></path><path d="M492.544 263.53C492.616 263.53 492.687 263.53 492.759 263.53C492.791 263.53 492.831 263.53 492.863 263.53H502.276H502.38C502.508 263.53 502.628 263.53 502.748 263.522C503.34 263.458 503.796 263.018 503.892 262.41C503.98 261.818 503.628 261.235 503.076 261.035C502.892 260.971 502.668 260.931 502.42 260.931C499.229 260.931 496.046 260.931 492.855 260.931C492.632 260.931 492.464 260.947 492.312 260.995C491.68 261.171 491.312 261.714 491.384 262.386C491.448 263.002 491.928 263.474 492.552 263.522L492.544 263.53Z" fill="#FF7F00"></path><path d="M487.797 263.937H487.813C488.74 263.937 489.5 263.194 489.508 262.266C489.516 261.33 488.764 260.554 487.837 260.546C487.405 260.562 486.965 260.714 486.637 261.034C486.309 261.354 486.117 261.786 486.117 262.234C486.117 262.682 486.285 263.106 486.597 263.433C486.917 263.761 487.341 263.937 487.797 263.945V263.937Z" fill="#FF7F00"></path><path d="M487.82 266.544C486.876 266.56 486.148 267.312 486.164 268.264C486.164 268.72 486.348 269.152 486.676 269.463C486.988 269.767 487.404 269.935 487.844 269.935H487.868C488.795 269.919 489.539 269.152 489.531 268.216C489.531 267.76 489.339 267.336 489.011 267.016C488.691 266.704 488.268 266.544 487.82 266.544Z" fill="#FF7F00"></path><path d="M526.465 266.944C526.369 266.936 526.281 266.944 526.185 266.944H526.097H516.732H516.644C516.508 266.944 516.38 266.944 516.252 266.96C515.589 267.064 515.133 267.608 515.149 268.288C515.165 268.952 515.669 269.48 516.332 269.536C516.436 269.536 516.54 269.544 516.644 269.536H521.603H525.026C525.217 269.536 525.409 269.536 525.601 269.536C525.873 269.536 526.145 269.536 526.417 269.528C527.121 269.504 527.649 268.984 527.673 268.28C527.697 267.568 527.185 267 526.457 266.944H526.465Z" fill="#FF7F00"></path><path d="M516.309 263.53C516.381 263.53 516.453 263.53 516.525 263.53C516.557 263.53 516.597 263.53 516.629 263.53H526.042H526.146C526.274 263.53 526.394 263.53 526.514 263.522C527.106 263.458 527.561 263.018 527.657 262.41C527.745 261.818 527.393 261.235 526.842 261.035C526.658 260.971 526.434 260.931 526.186 260.931C522.995 260.931 519.812 260.931 516.621 260.931C516.397 260.931 516.229 260.947 516.077 260.995C515.445 261.171 515.078 261.714 515.15 262.386C515.214 263.002 515.693 263.474 516.317 263.522L516.309 263.53Z" fill="#FF7F00"></path><path d="M511.554 263.937H511.57C512.498 263.937 513.258 263.194 513.266 262.266C513.274 261.33 512.522 260.554 511.594 260.546C511.139 260.562 510.731 260.714 510.395 261.034C510.067 261.354 509.875 261.786 509.875 262.234C509.875 262.682 510.043 263.106 510.355 263.433C510.675 263.761 511.099 263.937 511.554 263.945V263.937Z" fill="#FF7F00"></path><path d="M511.585 266.544C510.642 266.56 509.914 267.312 509.93 268.264C509.93 268.728 510.114 269.152 510.442 269.463C510.754 269.767 511.17 269.935 511.609 269.935H511.633C512.561 269.919 513.305 269.152 513.297 268.216C513.297 267.76 513.105 267.336 512.777 267.016C512.457 266.704 512.033 266.544 511.585 266.544Z" fill="#FF7F00"></path><path d="M283.869 71.7215C283.877 72.1853 283.941 72.7691 284.317 73.121C284.533 73.329 284.837 73.4329 285.221 73.4329C285.245 73.4329 285.269 73.4329 285.301 73.4329C286.572 73.385 286.564 72.1773 286.564 71.7215C286.564 70.9857 286.564 70.25 286.564 69.5062C286.564 68.2027 286.58 66.8511 286.532 65.5236C286.396 61.9088 285.157 58.5979 282.838 55.6949C279.511 51.5203 275.112 49.337 269.402 49.0171C269.402 48.7532 269.402 48.4893 269.41 48.2334C269.426 47.4896 269.434 46.7938 269.37 46.1061C269.33 45.6902 269.058 44.8505 268.586 44.7065C268.106 44.5626 267.315 44.7625 266.931 45.1384C265.131 46.8738 263.34 48.6652 261.613 50.4086C260.853 51.1684 260.101 51.9281 259.341 52.6799C258.958 53.0637 258.766 53.4556 258.766 53.8475C258.766 54.2474 258.966 54.6392 259.349 55.0311L261.149 56.8385C263.036 58.7339 264.988 60.6852 266.931 62.5806C267.275 62.9164 268.083 63.2683 268.482 63.0524C268.954 62.8125 269.306 62.1087 269.37 61.5969C269.458 60.8771 269.434 60.1494 269.418 59.4376C269.418 59.2137 269.41 58.9898 269.402 58.7658C269.442 58.7658 269.482 58.7658 269.522 58.7658C271.385 58.7658 273.153 59.4616 274.528 60.7492C276.088 62.2127 276.976 64.244 277.032 66.4673C277.064 67.7948 277.055 69.1464 277.047 70.4499V71.8095C277.047 72.4093 277.167 72.8331 277.447 73.105C277.671 73.329 277.991 73.4169 278.407 73.4249C279.735 73.3929 279.727 72.1614 279.727 71.7615C279.727 71.0817 279.727 70.4099 279.727 69.7302C279.727 68.6265 279.727 67.5149 279.727 66.4113C279.663 60.9571 275.664 56.5746 270.202 55.9988C267.395 55.7029 267.075 55.8148 266.659 58.166L262.516 53.9674L266.707 49.7528C266.875 51.6162 267.107 51.6802 269.562 51.7602C276.776 51.9841 282.55 57.0304 283.613 64.0281C283.877 65.7955 283.869 67.6429 283.869 69.4263C283.869 70.194 283.869 70.9618 283.877 71.7215H283.869Z" fill="#FF7F00"></path><path d="M287.38 42.6433C288.132 42.6593 288.836 42.6673 289.523 42.6033C290.003 42.5553 290.787 42.2434 290.923 41.8036C291.083 41.3157 290.891 40.516 290.515 40.1321C288.812 38.3647 287.044 36.6053 285.333 34.8939C284.549 34.1101 283.765 33.3264 282.982 32.5427C282.582 32.1348 282.19 31.9429 281.79 31.9429C281.39 31.9429 281.022 32.1268 280.638 32.5187C279.903 33.2544 279.167 33.9902 278.431 34.7259C276.672 36.4774 274.856 38.2927 273.105 40.1081C272.737 40.484 272.465 41.3157 272.657 41.7716C272.865 42.2514 273.657 42.5473 274.153 42.6033C274.84 42.6833 275.528 42.6673 276.264 42.6513C276.52 42.6513 276.776 42.6433 277.04 42.6353V43.8909C277.04 44.9865 277.04 46.0262 277.04 47.0578C277.04 47.1618 277.04 47.2658 277.04 47.3697C277.032 47.9295 277.016 48.5533 277.391 48.9452C277.607 49.1691 277.927 49.2811 278.335 49.2811C278.791 49.2811 279.119 49.1691 279.351 48.9372C279.751 48.5293 279.735 47.8655 279.727 47.2817C279.727 47.1778 279.727 47.0818 279.727 46.9858C279.727 45.9382 279.727 44.8905 279.727 43.8349V42.6273C279.727 40.2441 279.655 40.0681 277.463 39.9322L281.638 35.7576L286.029 39.9562C285.949 39.9562 285.869 39.9562 285.781 39.9562C285.261 39.9562 284.661 39.9562 284.269 40.356C283.997 40.628 283.861 41.0518 283.869 41.6356C283.877 44.4667 283.869 47.2977 283.869 50.1288V53.1598C283.869 54.2474 284.325 54.7992 285.221 54.7992C285.621 54.7992 285.933 54.6873 286.157 54.4633C286.428 54.1914 286.556 53.7756 286.556 53.1518C286.556 51.1125 286.556 49.0731 286.556 47.0418V42.6273C286.844 42.6273 287.116 42.6273 287.38 42.6353V42.6433Z" fill="#FF7F00"></path><path d="M294.241 61.597C294.305 62.1248 294.648 62.8126 295.112 63.0605C295.2 63.1085 295.296 63.1245 295.416 63.1245C295.832 63.1245 296.392 62.8526 296.664 62.5887C298.455 60.8452 300.255 59.0458 301.99 57.3104C302.742 56.5587 303.493 55.8069 304.253 55.0472C304.661 54.6393 304.861 54.2475 304.861 53.8476C304.861 53.4477 304.669 53.0718 304.293 52.7039C303.557 51.9682 302.822 51.2325 302.086 50.4887C300.335 48.7373 298.527 46.9219 296.712 45.1625C296.328 44.7946 295.504 44.5067 295.048 44.7066C294.56 44.9226 294.305 45.7463 294.249 46.2181C294.177 46.9139 294.193 47.6177 294.209 48.2894C294.209 48.5054 294.217 48.7133 294.217 48.9212C293.793 48.9932 293.385 49.0572 292.985 49.1212C291.969 49.2891 291.018 49.4411 290.066 49.625C289.61 49.713 288.97 49.8809 288.674 50.3607C288.49 50.6486 288.458 51.0085 288.57 51.4324C288.874 52.568 289.834 52.408 290.626 52.2801C291.945 52.0562 293.433 51.8083 294.904 51.7843C295.68 51.7683 296.192 51.6003 296.52 51.2405C296.832 50.9046 296.96 50.4007 296.904 49.713C296.904 49.705 296.904 49.689 296.904 49.681L301.318 54.0555L296.936 58.494C296.936 58.494 296.936 58.422 296.936 58.3821C296.92 58.0862 296.904 57.8542 296.904 57.6303C296.904 57.0145 296.736 56.5347 296.392 56.2388C296.096 55.9829 295.696 55.8869 295.232 55.9589C293.441 56.2308 291.561 56.6226 289.634 57.1265C289.122 57.2624 288.73 57.5583 288.562 57.9502C288.45 58.1981 288.387 58.614 288.682 59.1498C289.234 60.1575 290.146 59.8056 290.754 59.5736C291.529 59.2777 292.353 59.0378 293.225 58.7819C293.545 58.686 293.873 58.598 294.217 58.494C294.217 58.8219 294.209 59.1338 294.201 59.4217C294.185 60.2215 294.169 60.9172 294.249 61.597H294.241Z" fill="#FF7F00"></path><path d="M251.696 88.2439C251.904 88.2839 252.112 88.2759 252.304 88.2759H252.408C254.735 88.2759 257.054 88.2759 259.374 88.2759H262.884C267.331 88.2759 271.785 88.276 276.232 88.2839C276.488 88.2839 276.72 88.3479 276.792 88.4279C277.591 89.3556 278.655 89.9634 280.031 90.2833C281.254 90.5632 282.47 90.7071 283.685 90.7071C284.901 90.7071 286.133 90.5632 287.332 90.2753C288.636 89.9634 289.595 89.4276 290.275 88.6358C290.515 88.3559 290.731 88.244 291.131 88.26C294.738 88.276 298.353 88.2759 301.959 88.2759H303.767C307.605 88.2759 311.444 88.2759 315.275 88.2759C316.051 88.2759 316.626 87.7561 316.634 87.0364C316.642 86.3086 316.123 85.7808 315.339 85.7408C315.011 85.7248 314.667 85.7088 314.315 85.7408C314.011 85.7728 313.835 85.6768 313.611 85.3809C312.884 84.4132 312.156 83.4456 311.428 82.4859C310.644 81.4542 309.861 80.4146 309.085 79.3749C308.669 78.8151 308.181 78.5832 307.485 78.6072C306.646 78.6472 305.782 78.6312 304.95 78.6232C301.703 78.5752 297.945 78.4312 294.386 77.2396C293.418 76.9198 292.403 76.7678 291.171 76.6398C288.78 76.3919 286.956 76.7838 285.437 77.8474C284.933 78.1993 284.485 78.6472 284.053 79.079C283.901 79.231 283.757 79.3749 283.605 79.5269C283.566 79.4789 283.526 79.4309 283.494 79.3749C282.526 78.0634 281.174 77.2076 279.479 76.8238C277.983 76.4879 276.464 76.4719 274.944 76.7918C274.169 76.9517 273.401 77.1597 272.649 77.3596C271.881 77.5675 271.09 77.7755 270.298 77.9354C266.843 78.6392 263.364 78.6552 259.805 78.6072C259.134 78.5992 258.638 78.8231 258.254 79.3269C257.75 80.0067 257.23 80.6865 256.71 81.3583C255.871 82.4619 254.999 83.5975 254.183 84.7491C253.576 85.6128 253.016 85.8927 252.192 85.7408C252.032 85.7088 251.88 85.7408 251.752 85.7488C251.112 85.8368 250.689 86.3086 250.665 86.9484C250.649 87.5882 251.064 88.108 251.68 88.22L251.696 88.2439ZM256.639 85.7248L257.246 84.9251C258.198 83.6615 259.102 82.4699 260.029 81.2783C260.077 81.2143 260.397 81.1983 260.557 81.1903C261.469 81.1343 262.381 81.0943 263.3 81.0544C265.276 80.9664 267.315 80.8784 269.314 80.6705C270.434 80.5505 271.546 80.2386 272.617 79.9427C273.129 79.7988 273.649 79.6548 274.169 79.5269C275.736 79.151 277.024 79.047 278.231 79.183C280.271 79.4229 281.566 80.4785 282.198 82.3979C282.246 82.5419 282.286 82.6938 282.326 82.8378C282.366 82.9897 282.406 83.1417 282.454 83.2936C282.646 83.8694 283.062 84.1893 283.645 84.1893H283.661C284.253 84.1893 284.669 83.8694 284.877 83.2776C284.901 83.2136 284.917 83.1576 284.933 83.0937C285.565 80.1986 287.508 78.8711 290.723 79.167C291.995 79.2789 293.194 79.5109 294.274 79.8548C296.361 80.5185 298.64 80.8944 301.671 81.0544C302.743 81.1103 303.831 81.1343 304.886 81.1503C305.558 81.1663 306.23 81.1743 306.902 81.1983C307.118 81.1983 307.302 81.2703 307.342 81.3263C308.269 82.5099 309.173 83.7095 310.117 84.965L310.7 85.7328C310.596 85.7328 310.508 85.7408 310.413 85.7408H307.398C301.703 85.7408 296.009 85.7408 290.315 85.7248H290.291C289.563 85.7248 288.884 85.8128 288.46 86.7804C288.332 87.0843 287.852 87.4042 287.148 87.6602C285.781 88.156 284.277 88.2839 282.254 88.084C281.55 88.012 280.79 87.8521 279.935 87.5802C279.247 87.3643 278.839 86.9964 278.663 86.4206C278.447 85.7328 277.719 85.7328 277.32 85.7328H256.846C256.782 85.7248 256.718 85.7168 256.639 85.7168V85.7248Z" fill="#FF7F00"></path><path d="M319.674 89.8916C314.596 89.8916 309.518 89.8916 304.447 89.8916H297.786C296.002 89.8916 294.219 89.8916 292.435 89.8996C291.915 89.8996 291.484 90.1075 291.236 90.4594C291.012 90.7793 290.972 91.1792 291.116 91.587C291.388 92.3228 292.019 92.4188 292.547 92.4188C295.978 92.4188 299.401 92.4188 302.832 92.4188H306.047H306.247H315.628C317.019 92.4188 318.403 92.4268 319.786 92.4188C320.298 92.4188 320.738 92.2108 320.986 91.851C321.21 91.5311 321.25 91.1232 321.098 90.7313C320.818 89.9876 320.186 89.8996 319.658 89.8996L319.674 89.8916Z" fill="#FF7F00"></path><path d="M270.094 92.4268H270.933C272.261 92.4268 273.588 92.4268 274.916 92.4188C275.428 92.4188 275.876 92.1869 276.116 91.811C276.339 91.4671 276.355 91.0352 276.18 90.6354C275.884 89.9796 275.3 89.8916 274.772 89.8916H274.756C271.325 89.8916 267.894 89.8916 264.471 89.8916H257.362C254.115 89.8916 250.876 89.8916 247.629 89.8916C247.125 89.8916 246.717 90.0356 246.445 90.3075C246.23 90.5314 246.11 90.8273 246.118 91.1712C246.126 91.9309 246.709 92.4188 247.597 92.4188H270.086L270.094 92.4268Z" fill="#FF7F00"></path><path d="M93.3049 40.2445C91.2096 37.4934 88.5945 35.3661 85.5315 33.9266C82.0447 32.2951 78.3419 31.6554 74.4952 32.0312C71.5122 32.3271 68.9451 33.1029 66.6498 34.4144C65.5542 35.0382 64.5146 35.766 63.5069 36.4617C63.171 36.6937 62.8431 36.9256 62.5072 37.1495C62.4113 37.0695 62.3073 36.9976 62.2113 36.9176C61.6915 36.5097 61.1557 36.0859 60.5799 35.694C55.8215 32.4791 50.5512 31.3675 44.9051 32.3991C39.291 33.4228 34.7805 36.3098 31.5096 40.9882C28.1827 45.7466 27.0151 51.0809 28.0387 56.8469C28.7025 60.6057 30.206 63.8366 32.5013 66.4597C33.7408 67.8752 35.0924 69.2268 36.396 70.5303C36.9478 71.0742 37.4916 71.626 38.0354 72.1778C38.2673 72.4097 38.4993 72.6337 38.7312 72.8416C37.7635 74.8249 37.8595 76.6883 39.0111 78.3837C40.1067 79.9992 41.7062 80.7669 43.7295 80.687C43.6415 82.2944 44.1534 83.662 45.257 84.7736C46.3526 85.8772 47.7362 86.389 49.3756 86.3251C49.2876 87.9405 49.7995 89.3161 50.9031 90.4197C52.0067 91.5233 53.3663 92.0351 54.9977 91.9632C54.8938 94.0825 55.7415 95.7059 57.5009 96.8016C58.3646 97.3374 59.2843 97.6093 60.22 97.6093C61.1237 97.6093 62.0514 97.3534 62.9711 96.8495C64.7545 97.7772 66.5539 97.7532 68.2013 96.7696C69.7528 95.8499 70.6405 94.4184 70.8084 92.611C72.5918 93.0028 74.1593 92.6509 75.4789 91.5633C76.8304 90.4517 77.4702 88.9642 77.3902 87.1328C79.1816 87.2448 80.6611 86.613 81.8048 85.2454C82.9084 83.9179 83.2763 82.3264 82.8844 80.599C84.6918 80.399 86.2753 79.3674 87.115 77.7759C88.0107 76.0885 87.9227 74.1291 86.8991 72.4257L88.0267 71.2981C89.1783 70.1545 90.3139 69.0109 91.4575 67.8673C95.2403 64.0605 97.3116 59.4381 97.5995 54.1278C97.8794 49.0095 96.4399 44.3311 93.3289 40.2365L93.3049 40.2445ZM82.8044 77.68C82.0047 77.8159 81.2849 77.56 80.6132 76.8882L69.5689 65.8439C68.9771 65.2521 68.4492 65.1881 68.1133 65.2441C67.7855 65.2921 67.3296 65.492 66.9697 66.1638C66.7458 66.5877 66.8578 67.0995 66.9537 67.5473C67.0177 67.8592 67.2416 68.0432 67.3936 68.1631C67.4256 68.1871 67.4576 68.2111 67.4816 68.2351L70.1447 70.8982C73.1677 73.9212 76.1906 76.9362 79.2056 79.9592C80.2533 81.0069 80.4132 82.2224 79.6455 83.2861C79.2616 83.8219 78.6618 84.1738 77.998 84.2538C77.3583 84.3337 76.7585 84.1498 76.2866 83.7499C75.6308 83.1901 75.015 82.5423 74.4152 81.9185C74.1993 81.6946 73.9834 81.4707 73.7675 81.2548C70.3846 77.8159 67.0097 74.3771 63.6428 70.9302C63.4589 70.7383 63.163 70.4824 62.7471 70.4824C62.7471 70.4824 62.7391 70.4824 62.7311 70.4824C62.3153 70.4824 62.0274 70.7543 61.8354 70.9542C61.2516 71.586 61.0037 72.1058 61.0997 72.6256C60.8198 71.53 60.172 70.5943 59.1723 69.8426C57.4849 68.571 55.6055 68.3871 53.6862 69.2988C53.5422 68.523 53.2543 67.8272 52.8145 67.1955C51.9508 65.9559 50.5752 65.1561 49.0397 64.9962C47.5682 64.8362 46.1127 65.3081 45.0651 66.2838C43.9134 67.3554 42.8018 68.483 41.7222 69.5787C41.3543 69.9545 40.9864 70.3224 40.6105 70.6983C40.1067 70.1945 39.6029 69.6906 39.099 69.1868C37.8915 67.9872 36.6519 66.7476 35.4603 65.5C32.9171 62.8289 31.3416 59.614 30.7898 55.9352C30.0061 50.713 31.2377 45.9866 34.4526 41.8759C37.3956 38.1172 41.2743 35.854 45.9768 35.1502C51.319 34.3585 56.2053 35.734 60.5079 39.2528L55.0537 44.707C51.9907 47.778 48.9198 50.8409 45.8488 53.9039C44.1134 55.6313 43.6175 57.6467 44.4173 59.726C45.193 61.7413 47.8001 64.4524 50.9351 63.8766C52.1187 63.6606 53.0544 63.1968 53.7821 62.4691C56.9731 59.2861 60.164 56.1032 63.3469 52.9122C63.3629 52.8962 63.3709 52.8803 63.3869 52.8723L70.3926 59.8779C74.9351 64.4204 79.4695 68.9549 84.02 73.4974C84.7718 74.2491 85.0117 75.0568 84.7558 75.9605C84.4759 76.9282 83.8281 77.512 82.8284 77.68H82.8044ZM69.6648 84.7336C68.8811 83.422 67.6095 82.5343 66.09 82.2384C66.05 82.2304 66.01 82.2225 65.9701 82.2145C66.5939 80.647 66.5219 79.1435 65.7461 77.7279C68.4012 80.3911 71.0564 83.0542 73.7115 85.7173C74.3513 86.365 74.6232 87.1968 74.4472 88.0045C74.2793 88.8042 73.7035 89.444 72.8797 89.7719C72.024 90.1078 70.7205 89.7159 70.1767 88.9802C70.1767 88.9642 70.1767 88.9482 70.1847 88.9322C70.6165 87.5407 70.4246 86.0052 69.6648 84.7336ZM61.8674 73.8492L63.5309 75.5127C62.8431 75.1608 62.0594 74.9609 61.1957 74.9369C61.3156 74.1691 61.2996 73.4574 61.1477 72.7936C61.2516 73.1295 61.4916 73.4734 61.8754 73.8572L61.8674 73.8492ZM41.5862 73.8252C43.3696 72.0258 45.161 70.2265 46.9684 68.4431C47.8081 67.6193 49.2557 67.6513 50.1354 68.523C51.079 69.4587 51.151 70.9462 50.2873 71.8259C48.264 73.9052 46.5686 75.6007 44.9451 77.1601C44.2253 77.8559 43.3536 78.0158 42.4339 77.624C41.4903 77.2241 41.0104 76.5044 40.9624 75.4167C40.9624 74.7689 41.1784 74.2331 41.5862 73.8252ZM47.2083 79.4794C47.8721 78.7356 48.6079 78.0158 49.3116 77.3201C49.5675 77.0722 49.8235 76.8162 50.0794 76.5683C50.9191 75.7286 51.7668 74.8809 52.6145 74.0412L54.31 72.3537C54.7818 71.8819 55.3176 71.658 55.9494 71.658C55.9734 71.658 55.9974 71.658 56.0214 71.658C57.093 71.722 57.7728 72.1698 58.1647 73.0815C58.5885 74.0572 58.4446 74.9129 57.7408 75.6326C55.5415 77.8959 53.1983 80.2391 50.5832 82.7982C49.6875 83.67 48.264 83.67 47.3443 82.7982C46.4006 81.9025 46.3446 80.447 47.2083 79.4794ZM52.2626 86.9169C52.2467 86.0611 52.4466 85.4853 52.9424 84.9895C55.0777 82.8302 57.221 80.671 59.3723 78.5357C59.8441 78.0638 60.4759 77.8159 61.1077 77.8159C61.4436 77.8159 61.7715 77.8879 62.0754 78.0318C62.9311 78.4317 63.5229 79.3834 63.4829 80.3031C63.4509 81.1188 62.9871 81.7266 62.2593 82.4544C61.4676 83.2381 60.6918 84.0218 59.9081 84.8056C58.9884 85.7333 58.0607 86.661 57.125 87.5726L56.8851 87.8126C56.2533 88.4444 55.7175 88.9882 54.8858 89.0522C54.126 89.1081 53.4303 88.8922 52.9264 88.4284C52.4946 88.0285 52.2626 87.5007 52.2626 86.9329V86.9169ZM58.5485 90.6356C60.268 88.9002 61.8115 87.3327 63.4269 85.7732C63.9547 85.2694 64.5066 85.0135 65.0904 85.0135C65.4102 85.0135 65.7301 85.0855 66.066 85.2374C67.0177 85.6693 67.4816 86.3811 67.4896 87.4287C67.4976 88.1005 67.2816 88.6443 66.8258 89.1001C66.218 89.7079 65.6102 90.3157 65.0024 90.9235C63.9787 91.9552 62.9471 92.9788 61.9154 94.0025C60.9797 94.9302 59.5002 94.9222 58.5565 93.9865C57.6448 93.0908 57.6448 91.5473 58.5565 90.6276L58.5485 90.6356ZM86.3952 68.8429C85.9154 69.3228 85.4276 69.8026 84.9477 70.2824C84.9477 70.2824 84.9477 70.2824 84.9397 70.2984C84.7798 70.1305 84.6278 69.9625 84.4679 69.7946C83.8521 69.1388 83.2363 68.483 82.6045 67.8433C78.3419 63.5727 74.0714 59.3021 69.8008 55.0315L65.1943 50.4251C64.4826 49.7133 64.0507 49.2814 63.4669 49.2814C62.8831 49.2814 62.4512 49.7133 61.7395 50.4251L51.9268 60.2378C50.8471 61.3174 49.4476 61.3174 48.36 60.2538L48.12 60.0219C47.6082 59.534 47.1684 59.1102 47.0324 58.5104C46.8165 57.5587 47.0884 56.743 47.8961 55.9352C53.0784 50.769 58.2526 45.5947 63.4189 40.4124C66.154 37.6613 69.137 35.9819 72.5199 35.2701C78.5978 33.9986 84.02 35.3901 88.6185 39.4208C92.0813 42.4517 94.0967 46.2985 94.5925 50.8489C95.2083 56.4871 93.5608 61.4214 89.6821 65.516C88.6105 66.6437 87.4909 67.7633 86.4032 68.8429H86.3952ZM67.9134 92.1791C67.9454 92.6909 67.7775 93.2428 67.4336 93.6586C66.8578 94.3544 66.234 94.6743 65.4742 94.6183L67.9134 92.1791Z" fill="#FF7F00"></path></g><defs><clipPath id="clip0_4093_2344"><rect width="567" height="337" fill="white"></rect></clipPath></defs></svg>