<svg xmlns="http://www.w3.org/2000/svg" width="499" height="560" viewBox="0 0 499 560" fill="none"><g clip-path="url(#clip0_4093_2465)"><path d="M35.4766 551.598V543.553H36.6263V551.533C36.6263 554.236 37.9384 555.386 40.0104 555.386C42.0825 555.386 43.3946 554.236 43.3946 551.533V543.553H44.5443V551.598C44.5443 554.333 43.2192 556.458 39.965 556.458C37.0485 556.458 35.4831 554.71 35.4831 551.598H35.4766Z" fill="white"></path><path d="M47.0547 547.244H48.107V549.122H48.1394C48.9189 547.68 50.1985 546.984 51.5886 546.984C53.9529 546.984 55.7002 548.96 55.7002 551.715C55.7002 554.47 53.8685 556.458 51.5561 556.458C50.0491 556.458 48.802 555.666 48.1394 554.373V559.746H47.0547V547.244ZM51.3807 555.451C53.2125 555.451 54.5375 553.866 54.5375 551.708C54.5375 549.551 53.193 547.985 51.3807 547.985C49.5685 547.985 48.1459 549.506 48.1459 551.728C48.1459 553.95 49.6204 555.451 51.3807 555.451Z" fill="white"></path><path d="M56.2188 547.244H57.4334C58.3233 549.739 59.2132 552.215 60.0901 554.71H60.1226C60.9995 552.215 61.8894 549.739 62.7598 547.244H63.8445C64.7344 549.739 65.6438 552.215 66.5466 554.71H66.5791L69.1514 547.244H70.366L67.1312 556.179H65.9491C65.0462 553.684 64.1368 551.13 63.3119 548.635H63.2794C62.4545 551.13 61.5451 553.684 60.6227 556.179H59.473L56.2188 547.244Z" fill="white"></path><path d="M70.8672 554.126C70.8672 552.443 72.3871 551.747 74.089 551.39C75.7388 551.052 76.921 551.019 76.921 549.869C76.921 548.869 76.0311 547.926 74.6541 547.926C73.4589 547.926 72.582 548.654 72.2248 549.804L71.1725 549.434C71.7051 547.718 73.2446 546.991 74.732 546.991C76.3494 546.991 78.0513 547.848 78.0513 549.967V553.385C78.0513 554.873 78.1617 555.49 78.3436 556.185H77.2458C77.0834 555.555 77.0379 555.022 77.0379 554.32H77.0055C76.4404 555.536 75.3361 556.458 73.7057 556.458C72.1858 556.458 70.8737 555.698 70.8737 554.126H70.8672ZM73.8941 555.562C75.7713 555.562 76.934 553.794 76.934 552.598V551.383C76.4339 551.773 76.0117 551.916 74.8165 552.144C73.7837 552.339 72.0494 552.709 72.0494 554.067C72.0494 554.977 72.7639 555.555 73.8941 555.555V555.562Z" fill="white"></path><path d="M80.3516 547.244H81.4038V549.09H81.4688C81.9235 547.842 83.0537 546.984 84.3658 546.984C84.6711 546.984 85.0608 547.036 85.3856 547.16V548.342C85.0608 548.212 84.5607 548.134 84.2879 548.134C82.3782 548.134 81.4363 550.032 81.4363 551.845V556.186H80.3516V547.251V547.244Z" fill="white"></path><path d="M85.4062 551.728C85.4062 548.875 87.238 546.984 89.5634 546.984C90.9729 546.984 92.2006 547.699 92.9151 549.025H92.9476V543.229H94.0323V553.378C94.0323 554.886 94.1427 555.484 94.3246 556.179H93.2269C93.0645 555.529 92.9995 554.983 93.019 554.379H92.9865C92.259 555.737 90.9664 556.452 89.5569 556.452C87.16 556.452 85.4127 554.49 85.4127 551.721L85.4062 551.728ZM89.7128 555.451C91.4926 555.451 92.9671 553.911 92.9671 551.708C92.9671 549.506 91.4926 547.985 89.7128 547.985C87.933 547.985 86.556 549.571 86.556 551.728C86.556 553.885 87.9005 555.451 89.7128 555.451Z" fill="white"></path><path d="M103.635 543.553H104.915L110.027 556.185H108.799C108.202 554.71 107.585 553.235 106.987 551.767H101.518C100.92 553.242 100.336 554.717 99.7511 556.185H98.5234L103.635 543.553ZM106.565 550.688C105.72 548.615 104.896 546.477 104.285 544.872H104.253C103.817 545.99 102.843 548.388 101.94 550.688H106.571H106.565Z" fill="white"></path><path d="M111.172 547.244H112.224V549.09H112.289C112.744 547.842 113.874 546.984 115.186 546.984C115.491 546.984 115.881 547.036 116.206 547.16V548.342C115.881 548.212 115.381 548.134 115.108 548.134C113.198 548.134 112.263 550.032 112.263 551.845V556.186H111.178V547.251L111.172 547.244Z" fill="white"></path><path d="M117.336 547.244H118.388V549.09H118.453C118.908 547.842 120.038 546.984 121.35 546.984C121.655 546.984 122.045 547.036 122.37 547.16V548.342C122.045 548.212 121.545 548.134 121.272 548.134C119.363 548.134 118.421 550.032 118.421 551.845V556.186H117.336V547.251V547.244Z" fill="white"></path><path d="M122.391 551.728C122.391 548.94 124.235 546.984 126.873 546.984C129.51 546.984 131.322 548.947 131.322 551.728C131.322 554.509 129.49 556.458 126.873 556.458C124.255 556.458 122.391 554.516 122.391 551.728ZM126.873 555.451C128.834 555.451 130.172 553.911 130.172 551.728C130.172 549.545 128.828 547.985 126.873 547.985C124.917 547.985 123.553 549.538 123.553 551.728C123.553 553.918 124.911 555.451 126.873 555.451Z" fill="white"></path><path d="M131.852 547.244H133.066C133.956 549.739 134.846 552.215 135.723 554.71H135.755C136.632 552.215 137.522 549.739 138.393 547.244H139.477C140.367 549.739 141.277 552.215 142.179 554.71H142.212L144.784 547.244H145.999L142.764 556.179H141.582C140.679 553.684 139.77 551.13 138.945 548.635H138.912C138.087 551.13 137.178 553.684 136.256 556.179H135.106L131.852 547.244Z" fill="white"></path><path d="M150.039 554.126C150.039 552.443 151.559 551.747 153.261 551.39C154.911 551.052 156.093 551.019 156.093 549.869C156.093 548.869 155.203 547.926 153.826 547.926C152.631 547.926 151.754 548.654 151.397 549.804L150.344 549.434C150.877 547.718 152.416 546.991 153.904 546.991C155.521 546.991 157.223 547.848 157.223 549.967V553.385C157.223 554.873 157.334 555.49 157.515 556.185H156.418C156.255 555.555 156.21 555.022 156.21 554.32H156.177C155.612 555.536 154.508 556.458 152.878 556.458C151.358 556.458 150.046 555.698 150.046 554.126H150.039ZM153.066 555.562C154.943 555.562 156.106 553.794 156.106 552.598V551.383C155.606 551.773 155.184 551.916 153.988 552.144C152.956 552.339 151.221 552.709 151.221 554.067C151.221 554.977 151.936 555.555 153.066 555.555V555.562Z" fill="white"></path><path d="M159.523 547.244H160.576V548.96H160.608C161.323 547.569 162.485 546.984 163.765 546.984C165.35 546.984 167.019 547.875 167.019 550.578V556.179H165.935V551.065C165.935 548.83 164.785 547.992 163.473 547.992C161.641 547.992 160.608 549.61 160.608 551.195V556.179H159.523V547.244Z" fill="white"></path><path d="M168.617 551.728C168.617 548.875 170.449 546.984 172.774 546.984C174.184 546.984 175.412 547.699 176.126 549.025H176.159V543.229H177.243V553.378C177.243 554.886 177.354 555.484 177.536 556.179H176.438C176.275 555.529 176.21 554.983 176.23 554.379H176.197C175.47 555.737 174.177 556.452 172.768 556.452C170.371 556.452 168.624 554.49 168.624 551.721L168.617 551.728ZM172.924 555.451C174.704 555.451 176.178 553.911 176.178 551.708C176.178 549.506 174.704 547.985 172.924 547.985C171.144 547.985 169.767 549.571 169.767 551.728C169.767 553.885 171.111 555.451 172.924 555.451Z" fill="white"></path><path d="M183.71 543.553H184.872V555.081H191.329V556.179H183.703V543.547L183.71 543.553Z" fill="white"></path><path d="M193.133 543.164C193.633 543.164 194.023 543.566 194.023 544.054C194.023 544.574 193.633 544.977 193.133 544.977C192.601 544.977 192.211 544.574 192.211 544.054C192.211 543.566 192.601 543.164 193.133 543.164ZM192.568 547.244H193.653V556.179H192.568V547.244Z" fill="white"></path><path d="M195.834 557.394L196.834 557.037C197.256 558.252 198.191 559.045 199.861 559.045C201.433 559.045 202.901 558.22 202.901 555.205V554.106H202.868C202.154 555.484 200.913 556.16 199.504 556.16C197.074 556.16 195.359 554.152 195.359 551.546C195.359 548.94 197.172 546.978 199.504 546.978C200.926 546.978 202.193 547.706 202.901 549.083H202.933V547.238H203.985V555.075C203.985 558.733 202.238 560 199.861 560C198.016 560 196.529 559.305 195.834 557.394ZM199.672 555.159C201.452 555.159 202.927 553.606 202.927 551.533C202.927 549.46 201.452 547.985 199.672 547.985C197.893 547.985 196.516 549.538 196.516 551.546C196.516 553.554 197.873 555.159 199.672 555.159Z" fill="white"></path><path d="M206.397 543.229H207.482V548.96H207.514C208.229 547.569 209.359 546.984 210.619 546.984C212.204 546.984 213.886 547.875 213.886 550.578V556.179H212.802V551.065C212.802 548.83 211.652 547.992 210.34 547.992C208.508 547.992 207.475 549.629 207.475 551.195V556.179H206.391V543.229H206.397Z" fill="white"></path><path d="M216.577 553.489V548.212H214.797V547.238H216.577V544.58H217.661V547.238H220.396V548.212H217.661V553.183C217.661 554.184 217.661 555.464 218.941 555.464C219.344 555.464 219.85 555.334 220.396 554.977V556.01C219.941 556.302 219.331 556.445 218.759 556.445C216.577 556.445 216.577 554.535 216.577 553.482V553.489Z" fill="white"></path><path d="M225.756 553.489V548.212H223.977V547.238H225.756V544.58H226.841V547.238H229.576V548.212H226.841V553.183C226.841 554.184 226.841 555.464 228.121 555.464C228.523 555.464 229.03 555.334 229.576 554.977V556.01C229.121 556.302 228.51 556.445 227.939 556.445C225.756 556.445 225.756 554.535 225.756 553.482V553.489Z" fill="white"></path><path d="M230.109 551.728C230.109 548.94 231.954 546.984 234.591 546.984C237.228 546.984 239.041 548.947 239.041 551.728C239.041 554.509 237.209 556.458 234.591 556.458C231.974 556.458 230.109 554.516 230.109 551.728ZM234.591 555.451C236.553 555.451 237.891 553.911 237.891 551.728C237.891 549.545 236.546 547.985 234.591 547.985C232.636 547.985 231.272 549.538 231.272 551.728C231.272 553.918 232.63 555.451 234.591 555.451Z" fill="white"></path><path d="M244.555 547.244H245.607V549.09H245.672C246.127 547.842 247.257 546.984 248.569 546.984C248.874 546.984 249.264 547.036 249.589 547.16V548.342C249.264 548.212 248.764 548.134 248.491 548.134C246.581 548.134 245.639 550.032 245.639 551.845V556.186H244.555V547.251V547.244Z" fill="white"></path><path d="M249.608 551.728C249.608 548.94 251.44 546.984 253.993 546.984C255.694 546.984 258.072 547.894 258.072 551.468V551.968H250.771C250.823 554.119 252.18 555.451 254.058 555.451C255.597 555.451 256.662 554.451 257.162 553.203L258.195 553.573C257.513 555.406 255.928 556.458 254.006 556.458C251.479 556.458 249.602 554.561 249.602 551.728H249.608ZM256.89 550.87C256.838 548.752 255.318 548.018 253.96 548.018C252.258 548.018 251.076 549.2 250.836 550.87H256.89Z" fill="white"></path><path d="M259.852 547.244H260.904V549.122H260.936C261.716 547.68 262.995 546.984 264.385 546.984C266.75 546.984 268.497 548.96 268.497 551.715C268.497 554.47 266.665 556.458 264.353 556.458C262.846 556.458 261.599 555.666 260.936 554.373V559.746H259.852V547.244ZM264.171 555.451C266.003 555.451 267.328 553.866 267.328 551.708C267.328 549.551 265.983 547.985 264.171 547.985C262.359 547.985 260.936 549.506 260.936 551.728C260.936 553.95 262.411 555.451 264.171 555.451Z" fill="white"></path><path d="M270.203 547.244H271.255V549.09H271.32C271.775 547.842 272.905 546.984 274.217 546.984C274.523 546.984 274.912 547.036 275.237 547.16V548.342C274.912 548.212 274.412 548.134 274.139 548.134C272.23 548.134 271.294 550.032 271.294 551.845V556.186H270.21V547.251L270.203 547.244Z" fill="white"></path><path d="M275.257 551.728C275.257 548.94 277.088 546.984 279.641 546.984C281.343 546.984 283.72 547.894 283.72 551.468V551.968H276.419C276.471 554.119 277.829 555.451 279.706 555.451C281.245 555.451 282.311 554.451 282.811 553.203L283.844 553.573C283.162 555.406 281.577 556.458 279.654 556.458C277.127 556.458 275.25 554.561 275.25 551.728H275.257ZM282.538 550.87C282.486 548.752 280.966 548.018 279.608 548.018C277.907 548.018 276.724 549.2 276.484 550.87H282.538Z" fill="white"></path><path d="M284.594 553.944L285.614 553.619C286.068 554.749 287.185 555.516 288.283 555.516C289.03 555.516 290.31 555.146 290.31 553.898C290.31 552.878 289.387 552.573 288.433 552.313L287.575 552.072C286.731 551.832 285.016 551.293 285.016 549.48C285.016 547.777 286.568 546.984 287.965 546.984C289.504 546.984 290.732 547.959 291.135 549.168L290.082 549.525C289.79 548.68 289.03 547.92 287.867 547.92C286.867 547.92 286.12 548.485 286.12 549.376C286.12 550.513 287.335 550.916 288.192 551.176L289.037 551.416C290.011 551.689 291.466 552.131 291.466 553.749C291.466 555.269 290.173 556.452 288.277 556.452C286.51 556.452 285.087 555.451 284.6 553.944H284.594Z" fill="white"></path><path d="M292.342 551.728C292.342 548.94 294.174 546.984 296.727 546.984C298.429 546.984 300.806 547.894 300.806 551.468V551.968H293.505C293.551 554.119 294.915 555.451 296.792 555.451C298.331 555.451 299.397 554.451 299.897 553.203L300.93 553.573C300.248 555.406 298.663 556.458 296.74 556.458C294.213 556.458 292.336 554.561 292.336 551.728H292.342ZM299.624 550.87C299.578 548.752 298.052 548.018 296.694 548.018C294.993 548.018 293.81 549.2 293.57 550.87H299.624Z" fill="white"></path><path d="M302.586 547.244H303.638V548.96H303.671C304.385 547.569 305.548 546.984 306.828 546.984C308.412 546.984 310.082 547.875 310.082 550.578V556.179H308.997V551.065C308.997 548.83 307.847 547.992 306.535 547.992C304.703 547.992 303.671 549.61 303.671 551.195V556.179H302.586V547.244Z" fill="white"></path><path d="M312.764 553.489V548.212H310.984V547.238H312.764V544.58H313.849V547.238H316.584V548.212H313.849V553.183C313.849 554.184 313.849 555.464 315.129 555.464C315.531 555.464 316.038 555.334 316.584 554.977V556.01C316.129 556.302 315.518 556.445 314.947 556.445C312.764 556.445 312.764 554.535 312.764 553.482V553.489Z" fill="white"></path><path d="M321.725 543.229H322.81V548.96H322.842C323.557 547.569 324.687 546.984 325.947 546.984C327.532 546.984 329.215 547.875 329.215 550.578V556.179H328.13V551.065C328.13 548.83 326.98 547.992 325.668 547.992C323.836 547.992 322.804 549.629 322.804 551.195V556.179H321.719V543.229H321.725Z" fill="white"></path><path d="M332.071 543.164C332.571 543.164 332.961 543.566 332.961 544.054C332.961 544.574 332.571 544.977 332.071 544.977C331.538 544.977 331.148 544.574 331.148 544.054C331.148 543.566 331.538 543.164 332.071 543.164ZM331.506 547.244H332.59V556.179H331.506V547.244Z" fill="white"></path><path d="M334.771 557.394L335.771 557.037C336.194 558.252 337.129 559.045 338.798 559.045C340.37 559.045 341.838 558.22 341.838 555.205V554.106H341.806C341.091 555.484 339.851 556.16 338.441 556.16C336.012 556.16 334.297 554.152 334.297 551.546C334.297 548.94 336.109 546.978 338.441 546.978C339.864 546.978 341.13 547.706 341.838 549.083H341.871V547.238H342.923V555.075C342.923 558.733 341.176 560 338.798 560C336.954 560 335.466 559.305 334.771 557.394ZM338.603 555.159C340.383 555.159 341.858 553.606 341.858 551.533C341.858 549.46 340.383 547.985 338.603 547.985C336.824 547.985 335.447 549.538 335.447 551.546C335.447 553.554 336.804 555.159 338.603 555.159Z" fill="white"></path><path d="M345.342 543.229H346.427V548.96H346.46C347.174 547.569 348.304 546.984 349.564 546.984C351.149 546.984 352.832 547.875 352.832 550.578V556.179H351.747V551.065C351.747 548.83 350.597 547.992 349.285 547.992C347.453 547.992 346.421 549.629 346.421 551.195V556.179H345.336V543.229H345.342Z" fill="white"></path><path d="M354.413 551.728C354.413 548.94 356.244 546.984 358.797 546.984C360.499 546.984 362.876 547.894 362.876 551.468V551.968H355.575C355.621 554.119 356.985 555.451 358.862 555.451C360.402 555.451 361.467 554.451 361.967 553.203L363 553.573C362.318 555.406 360.733 556.458 358.81 556.458C356.283 556.458 354.406 554.561 354.406 551.728H354.413ZM361.694 550.87C361.642 548.752 360.122 548.018 358.765 548.018C357.063 548.018 355.887 549.2 355.64 550.87H361.694Z" fill="white"></path><path d="M364.656 547.244H365.709V549.09H365.773C366.228 547.842 367.358 546.984 368.67 546.984C368.976 546.984 369.366 547.036 369.69 547.16V548.342C369.366 548.212 368.865 548.134 368.593 548.134C366.683 548.134 365.741 550.032 365.741 551.845V556.186H364.656V547.251V547.244Z" fill="white"></path><path d="M373.461 551.728C373.461 548.94 375.306 546.984 377.943 546.984C380.58 546.984 382.392 548.947 382.392 551.728C382.392 554.509 380.561 556.458 377.943 556.458C375.325 556.458 373.461 554.516 373.461 551.728ZM377.943 555.451C379.898 555.451 381.243 553.911 381.243 551.728C381.243 549.545 379.898 547.985 377.943 547.985C375.988 547.985 374.624 549.538 374.624 551.728C374.624 553.918 375.981 555.451 377.943 555.451Z" fill="white"></path><path d="M384.125 547.244H385.177V549.09H385.242C385.697 547.842 386.827 546.984 388.139 546.984C388.445 546.984 388.834 547.036 389.159 547.16V548.342C388.834 548.212 388.334 548.134 388.061 548.134C386.152 548.134 385.21 550.032 385.21 551.845V556.186H384.125V547.251V547.244Z" fill="white"></path><path d="M389.188 551.728C389.188 548.875 391.019 546.984 393.345 546.984C394.754 546.984 395.982 547.699 396.696 549.025H396.729V543.229H397.814V553.378C397.814 554.886 397.924 555.484 398.106 556.179H397.008C396.846 555.529 396.781 554.983 396.8 554.379H396.768C396.04 555.737 394.741 556.452 393.338 556.452C390.941 556.452 389.194 554.49 389.194 551.721L389.188 551.728ZM393.488 555.451C395.267 555.451 396.742 553.911 396.742 551.708C396.742 549.506 395.267 547.985 393.488 547.985C391.708 547.985 390.331 549.571 390.331 551.728C390.331 553.885 391.675 555.451 393.488 555.451Z" fill="white"></path><path d="M399.546 551.728C399.546 548.94 401.377 546.984 403.93 546.984C405.632 546.984 408.009 547.894 408.009 551.468V551.968H400.708C400.754 554.119 402.118 555.451 403.995 555.451C405.534 555.451 406.6 554.451 407.1 553.203L408.133 553.573C407.451 555.406 405.866 556.458 403.943 556.458C401.416 556.458 399.539 554.561 399.539 551.728H399.546ZM406.827 550.87C406.775 548.752 405.255 548.018 403.898 548.018C402.196 548.018 401.02 549.2 400.773 550.87H406.827Z" fill="white"></path><path d="M409.789 547.244H410.841V549.09H410.906C411.361 547.842 412.491 546.984 413.803 546.984C414.109 546.984 414.498 547.036 414.823 547.16V548.342C414.498 548.212 413.998 548.134 413.725 548.134C411.816 548.134 410.874 550.032 410.874 551.845V556.186H409.789V547.251V547.244Z" fill="white"></path><path d="M419.499 553.489V548.212H417.719V547.238H419.499V544.58H420.583V547.238H423.318V548.212H420.583V553.183C420.583 554.184 420.583 555.464 421.863 555.464C422.266 555.464 422.772 555.334 423.318 554.977V556.01C422.863 556.302 422.253 556.445 421.681 556.445C419.499 556.445 419.499 554.535 419.499 553.482V553.489Z" fill="white"></path><path d="M424.678 543.229H425.763V548.96H425.796C426.51 547.569 427.64 546.984 428.9 546.984C430.485 546.984 432.168 547.875 432.168 550.578V556.179H431.083V551.065C431.083 548.83 429.933 547.992 428.621 547.992C426.789 547.992 425.757 549.629 425.757 551.195V556.179H424.672V543.229H424.678Z" fill="white"></path><path d="M435.016 543.164C435.516 543.164 435.906 543.566 435.906 544.054C435.906 544.574 435.516 544.977 435.016 544.977C434.483 544.977 434.094 544.574 434.094 544.054C434.094 543.566 434.483 543.164 435.016 543.164ZM434.445 547.244H435.529V556.179H434.445V547.244Z" fill="white"></path><path d="M437.945 547.244H438.998V548.96H439.03C439.745 547.569 440.907 546.984 442.187 546.984C443.772 546.984 445.441 547.875 445.441 550.578V556.179H444.356V551.065C444.356 548.83 443.207 547.992 441.895 547.992C440.063 547.992 439.03 549.61 439.03 551.195V556.179H437.945V547.244Z" fill="white"></path><path d="M447.719 543.229H448.816V551.565H448.849C450.207 550.11 451.571 548.68 452.928 547.244H454.273C453.142 548.407 452.025 549.59 450.908 550.76C452.22 552.56 453.532 554.386 454.857 556.186H453.597C452.467 554.633 451.317 553.08 450.168 551.54C449.732 552.007 449.258 552.482 448.823 552.93V556.186H447.725V543.235L447.719 543.229Z" fill="white"></path><path d="M456.274 543.164C456.774 543.164 457.164 543.566 457.164 544.054C457.164 544.574 456.774 544.977 456.274 544.977C455.741 544.977 455.352 544.574 455.352 544.054C455.352 543.566 455.741 543.164 456.274 543.164ZM455.709 547.244H456.794V556.179H455.709V547.244Z" fill="white"></path><path d="M459.203 547.244H460.255V548.96H460.288C461.002 547.569 462.165 546.984 463.445 546.984C465.03 546.984 466.699 547.875 466.699 550.578V556.179H465.614V551.065C465.614 548.83 464.464 547.992 463.152 547.992C461.321 547.992 460.288 549.61 460.288 551.195V556.179H459.203V547.244Z" fill="white"></path><path d="M468.755 557.394L469.756 557.037C470.178 558.252 471.113 559.045 472.783 559.045C474.355 559.045 475.823 558.22 475.823 555.205V554.106H475.79C475.076 555.484 473.835 556.16 472.425 556.16C469.996 556.16 468.281 554.152 468.281 551.546C468.281 548.94 470.094 546.978 472.425 546.978C473.848 546.978 475.115 547.706 475.823 549.083H475.855V547.238H476.907V555.075C476.907 558.733 475.16 560 472.783 560C470.938 560 469.45 559.305 468.755 557.394ZM472.588 555.159C474.368 555.159 475.842 553.606 475.842 551.533C475.842 549.46 474.368 547.985 472.588 547.985C470.808 547.985 469.431 549.538 469.431 551.546C469.431 553.554 470.789 555.159 472.588 555.159Z" fill="white"></path><path d="M27.2578 188.41V263.495L202.325 260.207L150.822 421.676L215.596 448.591L296.309 184.42L27.2578 188.41Z" fill="white"></path><path d="M210.606 0L149.82 18.9417L183.701 126.608L244.486 107.666L210.606 0Z" fill="white"></path><path d="M452.758 115.639L415.889 63.8042L324.211 129.597L361.08 181.431L452.758 115.639Z" fill="white"></path><path d="M412.895 382.799L451.758 331.958L362.074 263.177L323.211 314.017L412.895 382.799Z" fill="white"></path><path d="M3.88134 188.281L-0.015625 188.334L-0.00678253 188.984L3.89018 188.931L3.88134 188.281Z" fill="white"></path><path d="M11.5989 188.82L11.5859 188.17L19.2767 188.06L19.2896 188.709L11.5989 188.82ZM26.9804 188.593V187.943L34.6581 187.832V188.482L26.9804 188.593ZM42.3553 188.365L42.3423 187.715L50.033 187.605L50.046 188.255L42.3553 188.365ZM57.7367 188.138V187.488L65.4144 187.377V188.027L57.7367 188.138ZM73.1181 187.917V187.267L80.7959 187.156L80.8089 187.806L73.1181 187.917ZM88.4931 187.689L88.4801 187.039L96.1708 186.929V187.579L88.4931 187.689ZM103.875 187.462V186.812L111.552 186.702V187.351L103.875 187.462ZM119.249 187.234L119.236 186.585L126.927 186.474L126.94 187.124L119.249 187.234ZM134.631 187.007V186.357L142.309 186.247V186.897L134.631 187.007ZM150.006 186.786V186.136L157.684 186.026L157.697 186.676L150.006 186.786ZM165.387 186.559L165.374 185.909L173.065 185.798V186.448L165.387 186.559ZM180.769 186.331V185.681L188.446 185.571L188.459 186.221L180.769 186.331ZM196.144 186.104L196.131 185.454L203.821 185.343V185.993L196.144 186.104ZM211.525 185.883V185.233L219.203 185.123L219.216 185.772L211.525 185.883ZM226.9 185.655L226.887 185.006L234.578 184.895L234.591 185.545L226.9 185.655ZM242.281 185.428V184.778L249.959 184.668V185.317L242.281 185.428ZM257.663 185.201L257.65 184.551L265.341 184.44L265.354 185.09L257.663 185.201ZM273.038 184.98L273.025 184.33L280.715 184.219V184.869L273.038 184.98ZM288.419 184.752V184.102L296.097 183.992L296.11 184.642L288.419 184.752ZM303.794 184.525L303.781 183.875L311.472 183.764L311.485 184.414L303.794 184.525ZM319.176 184.297V183.647L326.853 183.537V184.187L319.176 184.297ZM334.55 184.076L334.537 183.427L342.228 183.316L342.241 183.966L334.55 184.076ZM349.932 183.849L349.919 183.199L357.61 183.089V183.738L349.932 183.849ZM365.313 183.622V182.972L372.991 182.861L373.004 183.511L365.313 183.622ZM380.688 183.394L380.675 182.744L388.366 182.634V183.284L380.688 183.394ZM396.07 183.167V182.517L403.747 182.406V183.056L396.07 183.167ZM411.445 182.946L411.432 182.296L419.122 182.185L419.135 182.835L411.445 182.946ZM426.826 182.718V182.068L434.504 181.958V182.608L426.826 182.718ZM442.207 182.491V181.841L449.885 181.731L449.898 182.38L442.207 182.491ZM457.582 182.263L457.569 181.614L465.26 181.503V182.153L457.582 182.263ZM472.964 182.042V181.393L480.642 181.282V181.932L472.964 182.042Z" fill="white"></path><path d="M492.225 181.101L488.328 181.158L488.338 181.807L492.235 181.75L492.225 181.101Z" fill="white"></path><path d="M3.95153 263.537L0.0546875 263.598L0.0648902 264.248L3.96173 264.187L3.95153 263.537Z" fill="white"></path><path d="M11.7317 264.067L11.7188 263.417L19.5134 263.293L19.5264 263.943L11.7317 264.067ZM27.3275 263.82L27.3145 263.17L35.1092 263.046L35.1222 263.696L27.3275 263.82ZM42.9233 263.573L42.9103 262.923L50.705 262.799L50.7179 263.449L42.9233 263.573ZM58.5126 263.332L58.4996 262.682L66.2942 262.559L66.3072 263.209L58.5126 263.332ZM74.1019 263.085L74.0889 262.436L81.8835 262.312L81.8965 262.962L74.1019 263.085ZM89.6976 262.838L89.6847 262.189L97.4793 262.065L97.4923 262.715L89.6976 262.838ZM105.293 262.591L105.28 261.942L113.075 261.818L113.088 262.468L105.293 262.591ZM120.883 262.351L120.87 261.701L128.664 261.578L128.677 262.228L120.883 262.351ZM136.479 262.104L136.465 261.454L144.26 261.331L144.273 261.981L136.479 262.104ZM152.068 261.857L152.055 261.207L159.849 261.084L159.862 261.734L152.068 261.857ZM167.664 261.617L167.651 260.967L175.445 260.844L175.458 261.493L167.664 261.617ZM183.253 261.37L183.24 260.72L191.034 260.597L191.047 261.246L183.253 261.37ZM198.849 261.123L198.836 260.473L206.63 260.35L206.643 260.999L198.849 261.123ZM214.438 260.876L214.425 260.226L222.22 260.103L222.233 260.753L214.438 260.876ZM230.034 260.636L230.021 259.986L237.815 259.862L237.828 260.512L230.034 260.636ZM245.623 260.389L245.61 259.739L253.405 259.615L253.418 260.265L245.623 260.389ZM261.219 260.142L261.206 259.492L269 259.368L269.013 260.018L261.219 260.142ZM276.808 259.895L276.795 259.245L284.59 259.122L284.603 259.771L276.808 259.895ZM292.404 259.654L292.391 259.005L300.185 258.881L300.198 259.531L292.404 259.654ZM307.993 259.407L307.98 258.758L315.775 258.634L315.788 259.284L307.993 259.407ZM323.589 259.161L323.576 258.511L331.371 258.387L331.384 259.037L323.589 259.161ZM339.178 258.92L339.165 258.27L346.96 258.147L346.973 258.797L339.178 258.92ZM354.774 258.673L354.761 258.023L362.556 257.9L362.569 258.55L354.774 258.673ZM370.363 258.426L370.35 257.776L378.145 257.653L378.158 258.303L370.363 258.426ZM385.959 258.179L385.946 257.53L393.741 257.406L393.754 258.056L385.959 258.179ZM401.548 257.939L401.535 257.289L409.33 257.166L409.343 257.815L401.548 257.939ZM417.144 257.692L417.131 257.042L424.926 256.919L424.939 257.569L417.144 257.692ZM432.733 257.445L432.72 256.795L440.515 256.672L440.528 257.322L432.733 257.445ZM448.329 257.198L448.316 256.548L456.111 256.425L456.124 257.075L448.329 257.198ZM463.918 256.958L463.905 256.308L471.7 256.184L471.713 256.834L463.918 256.958ZM479.514 256.711L479.501 256.061L487.296 255.938L487.309 256.587L479.514 256.711Z" fill="white"></path><path d="M499.022 255.713L495.125 255.774L495.135 256.424L499.032 256.363L499.022 255.713Z" fill="white"></path><path d="M125.084 495.394L123.836 499.088L124.451 499.296L125.7 495.603L125.084 495.394Z" fill="white"></path><path d="M128.164 488.346L127.547 488.138L130.009 480.854L130.626 481.062L128.164 488.346ZM133.094 473.771L132.477 473.563L134.939 466.279L135.556 466.487L133.094 473.771ZM138.018 459.196L137.401 458.988L139.862 451.704L140.479 451.912L138.018 459.196ZM142.948 444.621L142.331 444.413L144.793 437.129L145.41 437.337L142.948 444.621ZM147.878 430.046L147.261 429.838L149.723 422.547L150.34 422.755L147.878 430.046ZM152.808 415.471L152.191 415.263L154.653 407.978L155.27 408.186L152.808 415.471ZM157.732 400.896L157.115 400.688L159.576 393.403L160.193 393.611L157.732 400.896ZM162.662 386.321L162.045 386.113L164.506 378.828L165.124 379.036L162.662 386.321ZM167.592 371.745L166.975 371.538L169.437 364.253L170.054 364.461L167.592 371.745ZM172.515 357.17L171.898 356.962L174.36 349.678L174.977 349.886L172.515 357.17ZM177.446 342.595L176.829 342.387L179.29 335.103L179.907 335.311L177.446 342.595ZM182.376 328.02L181.759 327.812L184.22 320.528L184.837 320.736L182.376 328.02ZM187.306 313.445L186.689 313.237L189.151 305.946L189.768 306.154L187.306 313.445ZM192.229 298.87L191.612 298.662L194.074 291.378L194.691 291.586L192.229 298.87ZM197.16 284.295L196.542 284.087L199.004 276.803L199.621 277.011L197.16 284.295ZM202.09 269.72L201.473 269.512L203.934 262.228L204.551 262.436L202.09 269.72ZM207.02 255.145L206.403 254.937L208.864 247.653L209.482 247.861L207.02 255.145ZM211.943 240.57L211.326 240.362L213.788 233.078L214.405 233.285L211.943 240.57ZM216.873 225.995L216.256 225.787L218.718 218.502L219.335 218.71L216.873 225.995ZM221.804 211.42L221.186 211.212L223.648 203.921L224.265 204.129L221.804 211.42ZM226.734 196.845L226.117 196.637L228.578 189.352L229.196 189.56L226.734 196.845ZM231.657 182.269L231.04 182.062L233.502 174.777L234.119 174.985L231.657 182.269ZM236.587 167.694L235.97 167.486L238.432 160.202L239.049 160.41L236.587 167.694ZM241.518 153.119L240.9 152.911L243.362 145.627L243.979 145.835L241.518 153.119ZM246.448 138.544L245.831 138.336L248.292 131.052L248.909 131.26L246.448 138.544ZM251.371 123.969L250.754 123.761L253.216 116.477L253.833 116.685L251.371 123.969ZM256.301 109.394L255.684 109.186L258.146 101.902L258.763 102.11L256.301 109.394ZM261.231 94.819L260.614 94.6111L263.076 87.3268L263.693 87.5347L261.231 94.819ZM266.162 80.2439L265.545 80.036L268.006 72.7517L268.623 72.9597L266.162 80.2439ZM271.085 65.6689L270.468 65.4609L272.93 58.1766L273.547 58.3846L271.085 65.6689ZM276.015 51.0938L275.398 50.8859L277.86 43.6016L278.477 43.8095L276.015 51.0938Z" fill="white"></path><path d="M281.569 32.6117L280.32 36.3052L280.936 36.5133L282.184 32.8199L281.569 32.6117Z" fill="white"></path><path d="M201.289 495L200.148 498.729L200.77 498.919L201.91 495.191L201.289 495Z" fill="white"></path><path d="M204.21 487.677L203.586 487.489L205.892 479.97L206.515 480.159L204.21 487.677ZM208.815 472.641L208.191 472.452L210.497 464.934L211.121 465.122L208.815 472.641ZM213.42 457.598L212.797 457.409L215.103 449.891L215.726 450.079L213.42 457.598ZM218.032 442.555L217.408 442.366L219.714 434.848L220.338 435.036L218.032 442.555ZM222.637 427.518L222.014 427.33L224.32 419.812L224.943 420L222.637 427.518ZM227.243 412.475L226.619 412.287L228.925 404.769L229.549 404.957L227.243 412.475ZM231.848 397.439L231.224 397.25L233.524 389.732L234.147 389.921L231.842 397.439H231.848ZM236.46 382.396L235.836 382.208L238.142 374.689L238.766 374.878L236.46 382.396ZM241.065 367.353L240.442 367.165L242.748 359.646L243.371 359.835L241.065 367.353ZM245.67 352.317L245.047 352.128L247.353 344.61L247.976 344.798L245.67 352.317ZM250.276 337.274L249.652 337.085L251.958 329.567L252.582 329.755L250.276 337.274ZM254.881 322.237L254.258 322.049L256.564 314.531L257.187 314.719L254.881 322.237ZM259.493 307.194L258.869 307.006L261.175 299.488L261.799 299.676L259.493 307.194ZM264.098 292.151L263.475 291.963L265.781 284.445L266.404 284.633L264.098 292.151ZM268.704 277.115L268.08 276.926L270.386 269.408L271.01 269.597L268.704 277.115ZM273.309 262.072L272.685 261.884L274.991 254.365L275.615 254.554L273.309 262.072ZM277.921 247.036L277.297 246.847L279.603 239.329L280.227 239.517L277.921 247.036ZM282.526 231.993L281.903 231.804L284.209 224.286L284.832 224.474L282.526 231.993ZM287.132 216.95L286.508 216.761L288.814 209.243L289.437 209.431L287.138 216.95H287.132ZM291.737 201.913L291.113 201.725L293.419 194.207L294.043 194.395L291.737 201.913ZM296.349 186.87L295.725 186.682L298.031 179.164L298.655 179.352L296.349 186.87ZM300.954 171.834L300.33 171.645L302.636 164.127L303.26 164.316L300.954 171.834ZM305.559 156.791L304.936 156.602L307.242 149.084L307.865 149.273L305.559 156.791ZM310.165 141.748L309.541 141.56L311.847 134.041L312.471 134.23L310.165 141.748ZM314.77 126.712L314.146 126.523L316.452 119.005L317.076 119.193L314.77 126.712ZM319.382 111.669L318.758 111.48L321.064 103.962L321.688 104.15L319.382 111.669ZM323.987 96.6322L323.364 96.4437L325.67 88.9255L326.293 89.114L323.987 96.6322ZM328.592 81.5892L327.969 81.4008L330.275 73.8826L330.898 74.071L328.592 81.5892ZM333.198 66.5463L332.574 66.3579L334.874 58.8397L335.497 59.0281L333.191 66.5463H333.198ZM337.81 51.5099L337.186 51.3214L339.492 43.8032L340.116 43.9917L337.81 51.5099Z" fill="white"></path><path d="M342.938 32.5459L341.797 36.2739L342.418 36.4641L343.559 32.7361L342.938 32.5459Z" fill="white"></path></g><defs><clipPath id="clip0_4093_2465"><rect width="499" height="560" fill="white"></rect></clipPath></defs></svg>