<?xml version="1.0" encoding="UTF-8"?>
<svg id="Layer_1" data-name="Layer 1" xmlns="http://www.w3.org/2000/svg" viewBox="0 0 500 500">
  <defs>
    <style>
      .cls-1 {
        fill: #cd8df8;
      }

      .cls-2 {
        fill: #4f297a;
      }

      .cls-3 {
        fill: #a100ff;
      }
    </style>
  </defs>
  <path class="cls-2" d="m174.28,147.7v52.38l-25.22-14.33s-8.41-8.84-7.33,9.92c1.08,18.75-.1,125.45-.1,125.45,0,0-3.03,10.56,17.23-2.48l81.37-46.77s7.44-8.08,20.69,1.94l33.3,19.72-130.95,74.04s-19.72,18.75-49.47-3.56c0,0-18.75-10.67-18.43-36.86v-151.64s8.73-41.06,42.68-40.09c0,0,25.87,0,36.21,12.29h.02Z"/>
  <path class="cls-1" d="m197.47,373.67l45.36-26.19.2,29.01s-3.45,11.7,12.25,1.39c15.7-10.31,108.69-62.65,108.69-62.65,0,0,10.66-2.66-10.76-13.68l-81.2-47.08s-10.72-2.4-8.67-18.89l.43-38.7,129.6,76.38s26.1,7.7,21.66,44.62c0,0,.14,21.58-22.7,34.39l-131.32,75.83s-39.93,12.97-56.06-16.92c0,0-12.93-22.4-7.47-37.5h0Z"/>
  <path class="cls-3" d="m380.68,242.43l-45.35-26.21,25.03-14.66s11.86-2.86-4.92-11.31c-16.77-8.45-108.56-62.87-108.56-62.87,0,0-7.63-7.91-6.48,16.16l-.23,93.86s3.28,10.48-12.04,16.94l-33.74,18.96,1.43-150.42s-6.36-26.46,27.84-41.05c0,0,18.62-10.9,41.13,2.49l131.29,75.89s31.18,28.11,13.35,57.02c0,0-12.95,22.39-28.76,25.2h.01Z"/>
</svg>