<svg xmlns="http://www.w3.org/2000/svg" width="516" height="410" viewBox="0 0 516 410" fill="none"><path d="M251.658 545C210.673 545 170.422 538.383 131.974 525.32C62.5762 503.378 11.5569 439.87 5.46837 367.483C1.86037 319.47 0 270.609 0 222.031C0 207.95 0.169125 193.812 0.451 179.73C0.958374 155.469 2.0295 130.36 3.55162 105.081C3.94625 99.1433 4.22812 93.9971 4.62275 88.8509C5.91937 72.6204 8.28712 51.3568 15.2776 30.376C23.3956 5.94548 39.0115 -17.6367 61.6178 -39.7486C81.7437 -59.4287 107.282 -74.0757 135.413 -82.2192C163.938 -90.5324 194.832 -95 224.711 -95C259.607 -95 295.912 -88.7227 329.794 -76.7902C407.873 -47.4962 459.963 27.8877 459.963 111.019C459.963 134.262 456.073 156.883 448.406 178.373C455.622 185.272 462.5 192.511 468.927 200.145C499.369 237.583 516 283.673 516 330.272C516 413.177 463.74 489.409 385.943 519.947C343.267 536.461 298.336 544.83 252.334 544.943H251.601L251.658 545ZM224.767 -44.1597C199.624 -44.1597 173.635 -40.4272 149.563 -33.4148C129.268 -27.5899 111.115 -17.1843 96.9649 -3.32906C80.1652 13.0711 68.8338 29.8105 63.3091 46.4933C58.0098 62.3279 56.1495 79.6329 55.0783 92.9226C54.6837 97.7295 54.4018 102.593 54.12 107.456C52.5978 132.792 51.5831 157.222 51.0757 180.805C50.7938 194.547 50.6247 208.289 50.6247 222.031C50.6247 269.365 52.4287 316.925 55.924 363.411C60.3212 415.326 97.1904 461.077 147.759 477.081C181.471 488.504 216.311 494.216 251.714 494.216C270.092 494.216 296.758 492.689 327.764 485.168C332.669 483.98 352.344 478.721 367.677 472.67C426.138 449.71 465.488 392.479 465.488 330.272C465.488 295.831 452.578 260.26 430.085 232.55C428.168 230.231 426.138 227.969 424.052 225.707C387.07 278.527 325.96 311.214 260.452 311.214C202.781 311.214 155.877 264.162 155.877 206.366C155.877 148.57 202.781 101.462 260.452 101.462C312.148 102.31 362.491 117.523 405.674 144.894C408.211 133.866 409.508 122.556 409.508 110.963C409.508 48.9251 370.609 -7.40081 312.656 -29.1168C284.581 -38.9569 254.026 -44.2728 224.767 -44.2728V-44.1597ZM260.001 152.302C230.686 152.302 206.445 176.563 206.445 206.423C206.445 236.282 230.686 260.543 260.396 260.543C311.077 260.543 358.207 234.359 385.436 192.398C348.623 167.175 304.819 153.037 259.945 152.302H260.001Z" fill="#4C2D87"></path></svg>