<svg xmlns="http://www.w3.org/2000/svg" width="176" height="327" viewBox="0 0 176 327" fill="none"><g clip-path="url(#clip0_3338_1115)"><path d="M131.2 316.409C127.884 322.034 122.165 325.163 118.46 326.691C115.48 326.382 112.607 325.575 110.305 324.414C104.978 321.735 101.353 315.955 101.247 309.986C101.144 304.01 104.58 297.404 109.81 294.532C108.468 292.869 106.429 291.962 104.727 290.669C102.075 288.656 100.316 285.591 99.7057 282.333C98.9576 278.348 100.39 274.543 103.289 272.182C108.68 269.719 117.808 272.385 127.624 284.278C137.439 296.172 136.405 307.583 131.204 316.412L131.2 316.409Z" fill="#35FF7E"></path><path d="M133.288 322.262C129.949 326.109 124.016 327.267 118.461 326.691C122.169 325.167 127.888 322.034 131.201 316.409C136.403 307.577 137.437 296.169 127.621 284.275C117.806 272.382 108.678 269.716 103.287 272.179C104.411 271.263 105.759 270.565 107.281 270.153C107.836 270.005 108.36 269.912 108.829 269.88C113.301 269.59 118.137 272.317 121.669 274.797C124.732 276.949 128.553 279.888 131.092 282.642C134.22 286.031 136.136 289.328 138.069 293.516C142.622 303.38 140.005 314.524 133.288 322.262Z" fill="white"></path><path d="M110.432 284.401C110.759 286.687 109.414 288.878 107.23 289.63C102.144 291.386 94.6344 292.959 86.2253 291.087C69.6512 287.398 56.519 271.87 53.0899 251.82C57.2479 251.084 61.4059 250.347 65.5639 249.611C65.2845 261.18 71.2309 271.954 81.0528 277.573C90.0077 282.696 99.0493 281.738 104.511 280.329C107.263 279.618 110.014 281.487 110.419 284.307C110.422 284.34 110.428 284.372 110.432 284.404V284.401Z" fill="#21242D"></path><path d="M114.027 289.926L113.404 289.225C115.491 287.36 116.57 285.314 116.608 283.153C116.672 279.564 113.837 276.791 113.808 276.766L114.457 276.087C114.585 276.209 117.613 279.158 117.546 283.163C117.504 285.601 116.319 287.878 114.027 289.926Z" fill="#21242D"></path><path d="M104.307 300.678L103.495 300.209C103.594 300.035 105.996 295.918 109.598 294.111C113.275 292.264 118.784 294.722 119.016 294.825L118.63 295.68C118.579 295.658 113.294 293.303 110.019 294.947C106.67 296.626 104.329 300.633 104.307 300.675V300.678Z" fill="#21242D"></path><path d="M41.812 45.1941C41.812 45.1941 38.1742 156.308 36.1129 219.185C35.7789 229.384 35.4867 238.312 35.2556 245.292C35.0854 250.518 38.2801 255.246 43.1702 257.057C46.7181 258.369 51.3674 259.822 56.9959 261.016C59.2113 261.479 61.5713 261.903 64.0789 262.267C67.2351 262.72 70.6225 263.074 74.2186 263.273C75.0984 263.322 75.9685 263.36 76.829 263.386C88.8567 263.762 99.0477 262.026 105.752 260.405C110.831 259.173 114.54 254.805 114.951 249.585C118.874 199.727 130.648 50.1568 130.648 50.1568L41.8152 45.1909L41.812 45.1941Z" fill="#73E8DB"></path><path d="M75.8634 233.697C88.7837 234.421 99.5045 232.433 106.758 229.934C110.729 228.567 113.805 225.457 114.136 221.253L128.074 52.4112L44.1118 47.7188L39.2025 217.227C39.0644 221.417 41.784 224.83 45.5599 226.673C51.9173 229.776 62.2849 232.941 75.8602 233.7L75.8634 233.697Z" fill="#73E8DB"></path><path d="M43.1579 80.6821L43.1514 80.8687L41.9121 123.593L40.7048 165.237L39.8572 194.598L39.504 206.868L39.2054 217.227C39.1765 218.095 39.2728 218.935 39.4719 219.726C40.2392 222.765 42.5671 225.21 45.5628 226.67C49.0561 228.378 53.7567 230.098 59.5394 231.433C64.2753 232.527 69.7433 233.356 75.8631 233.7C79.6293 233.91 83.2094 233.89 86.5743 233.691C87.9293 233.614 89.2457 233.504 90.53 233.372C96.9741 232.713 102.474 231.417 106.761 229.941C110.729 228.574 113.808 225.464 114.139 221.26L116.104 197.47L118.397 169.714L121.944 126.713L125.367 85.2846L43.1643 80.6886L43.1579 80.6821Z" fill="url(#paint0_linear_3338_1115)"></path><g style="mix-blend-mode:overlay" opacity="0.5"><path d="M38.4959 244.777C38.2968 248.353 40.4609 251.643 43.829 252.849C50.3855 255.197 61.9026 258.652 74.4376 259.353C86.9533 260.054 98.5443 257.925 105.213 256.32C108.694 255.484 111.217 252.47 111.416 248.89L112.383 231.523C112.383 231.523 95.3367 237.27 75.5485 236.164C57.7093 235.167 39.4591 227.448 39.4591 227.448L38.4927 244.78L38.4959 244.777Z" fill="white"></path></g><g style="mix-blend-mode:overlay" opacity="0.3"><path d="M42.1688 249.225C42.05 251.38 56.6881 256.136 74.5562 257.134C92.4211 258.134 106.748 254.998 106.866 252.84C106.985 250.685 92.6009 248.128 74.736 247.128C56.8711 246.128 42.2909 247.067 42.1688 249.222V249.225Z" fill="black"></path></g><path d="M83.7349 92.5642C61.0349 91.297 42.8715 85.9823 43.1658 80.6937C43.46 75.4051 62.1005 72.1451 84.8005 73.4124C107.5 74.6797 125.664 79.9943 125.37 85.283C125.075 90.5716 106.435 93.8315 83.7349 92.5642Z" fill="#FFAE6C"></path><path d="M85.6279 58.5351C61.0972 57.1656 41.4854 51.1269 41.8237 45.0473C42.1619 38.9677 62.3222 35.1494 86.8528 36.5188C111.383 37.8883 130.995 43.927 130.657 50.0067C130.319 56.0863 110.159 59.9046 85.6279 58.5351Z" fill="#C4EDF2"></path><path d="M44.2676 44.9787C44.0942 48.1049 50.2397 51.2407 59.9395 53.5821C66.9969 55.2835 75.9357 56.5571 85.6998 57.1039C108.885 58.4 127.928 55.0712 128.227 49.6712C128.529 44.2647 109.973 38.839 86.7882 37.5428C82.4601 37.3016 78.2732 37.2212 74.3271 37.2823C57.1461 37.5621 44.5084 40.5821 44.2644 44.9755L44.2676 44.9787Z" fill="#ABD2D8"></path><path d="M85.6279 58.5351C61.0972 57.1656 41.4854 51.1269 41.8237 45.0473C42.1619 38.9677 62.3222 35.1494 86.8528 36.5188C111.383 37.8883 130.995 43.927 130.657 50.0067C130.319 56.0863 110.159 59.9046 85.6279 58.5351Z" fill="#C4EDF2"></path><path d="M44.2676 44.9787C44.0942 48.1049 50.2397 51.2407 59.9395 53.5821C66.9969 55.2835 75.9357 56.5571 85.6998 57.1039C108.885 58.4 127.928 55.0712 128.227 49.6712C128.529 44.2647 109.973 38.839 86.7882 37.5428C82.4601 37.3016 78.2732 37.2212 74.3271 37.2823C57.1461 37.5621 44.5084 40.5821 44.2644 44.9755L44.2676 44.9787Z" fill="#ABD2D8"></path><path d="M44.2676 44.9787C44.0942 48.1049 50.2397 51.2407 59.9395 53.5821C66.9969 55.2835 75.9357 56.5571 85.6998 57.1039C108.885 58.4 127.928 55.0712 128.227 49.6712C128.529 44.2647 109.973 38.839 86.7882 37.5428C82.4601 37.3016 78.2732 37.2212 74.3271 37.2823C57.1461 37.5621 44.5084 40.5821 44.2644 44.9755L44.2676 44.9787Z" fill="#C4EDF2"></path><path d="M44.2676 44.9787C44.0942 48.1049 50.2397 51.2407 59.9395 53.5821C66.9969 55.2835 75.9357 56.5571 85.6998 57.1039C108.885 58.4 127.928 55.0712 128.227 49.6712C128.529 44.2647 109.973 38.839 86.7882 37.5428C82.4601 37.3016 78.2732 37.2212 74.3271 37.2823C57.1461 37.5621 44.5084 40.5821 44.2644 44.9755L44.2676 44.9787Z" fill="#71DBCC"></path><path d="M127.484 47.6516C126.393 46.2461 124.819 45.323 123.262 44.5093C121.682 43.7117 120.042 43.0491 118.375 42.4606C115.03 41.3188 111.601 40.4569 108.146 39.7364C104.691 39.0031 101.198 38.4885 97.6978 38.0479C94.1948 37.6201 90.6822 37.3017 87.1599 37.083C80.1154 36.7293 73.0453 36.6907 66.0104 37.2889C62.4946 37.5976 58.9884 38.0415 55.5303 38.7716C53.8094 39.1736 52.0884 39.5853 50.4252 40.1867C48.7684 40.7753 47.0988 41.4571 45.7342 42.5924C47.1566 41.5407 48.8423 40.9522 50.5023 40.4279C52.1719 39.8972 53.8993 39.5595 55.6171 39.2315C59.0654 38.6011 62.562 38.2409 66.0618 38.0222C69.5648 37.8196 73.0709 37.6909 76.5804 37.6973C80.0898 37.6973 83.5992 37.8388 87.1021 38.035C94.1113 38.4049 101.101 39.1897 108.001 40.4504C111.453 41.0776 114.879 41.8559 118.228 42.898C119.904 43.4126 121.557 44.0044 123.15 44.728C124.72 45.4806 126.312 46.3072 127.481 47.6419L127.484 47.6516Z" fill="white"></path><path opacity="0.2" d="M44.2686 44.9787C44.0952 48.1048 50.2407 51.2406 59.9405 53.5821C60.1781 50.5845 60.8524 47.7157 61.9023 45.9628C64.9173 40.9294 67.4955 40.1415 74.3281 37.2822C57.1471 37.562 44.5094 40.5821 44.2654 44.9754L44.2686 44.9787Z" fill="white"></path><path d="M43.4056 45.6156C43.6881 45.8182 44.3142 46.2942 44.7605 46.6384C46.3916 49.1921 51.9623 51.6557 59.9412 53.5822C66.9985 55.2836 75.9374 56.5572 85.7014 57.104C88.8608 57.2809 91.9753 57.3709 94.9453 57.3806L94.7141 58.8021C91.7795 58.7893 88.726 58.6992 85.6211 58.5255C61.0938 57.1554 41.4791 51.1154 41.8162 45.0367C41.8258 44.8855 41.8483 44.7376 41.8804 44.5864C42.3235 44.8823 43.0845 45.3873 43.4023 45.6156H43.4056Z" fill="#C4EDF2"></path><path d="M119.359 55.1067L119.038 56.4833C119.038 56.4833 117.112 56.8338 116.495 56.9335C115.799 57.0461 113.635 57.3549 113.635 57.3549L113.946 56.1584C113.946 56.1584 115.972 55.824 116.63 55.7017C117.295 55.5795 119.359 55.1035 119.359 55.1035V55.1067Z" fill="#C4EDF2"></path><path d="M127.14 8.08222C126.533 5.89197 127.22 3.38653 127.917 1.29598C128.289 0.173523 129.776 -0.273533 130.784 0.170306C131.943 0.681686 132.274 1.9328 131.901 3.05526C131.259 4.98499 130.289 7.2653 128.633 8.53249C128.161 8.89592 127.31 8.69973 127.14 8.08222Z" fill="#CEFF00"></path><path d="M71.8706 11.9609C71.8706 11.9609 88.2296 21.095 91.3634 24.7068C91.3634 24.7068 105.07 32.1555 107.722 33.8408C107.722 33.8408 125.976 38.6169 130.063 40.2958C130.063 40.2958 148.31 41.6884 151.431 42.4024C151.431 42.4024 172.494 41.3765 175.897 42.8013C175.907 42.8013 175.91 42.8077 175.91 42.8077C175.91 42.8077 152.526 17.0264 129.903 2.11279C129.903 2.11279 94.1504 3.43466 71.8706 11.9609Z" fill="#34E26E"></path><g style="mix-blend-mode:multiply" opacity="0.73"><path d="M71.8706 11.9612C71.8706 11.9612 88.2296 21.0952 91.3634 24.7071C91.3634 24.7071 94.2049 26.2541 97.5474 28.0905C101.554 30.2936 106.278 32.9213 107.722 33.8379C107.722 33.8379 125.976 38.614 130.063 40.2929C130.063 40.2929 148.31 41.6855 151.431 42.3995C151.431 42.3995 158.164 42.0715 164.627 42.0457C169.604 42.0232 174.417 42.1744 175.897 42.7983C175.907 42.7983 175.91 42.8048 175.91 42.8048C175.91 42.8048 164.078 29.7597 149.103 16.8563C143.025 11.6235 136.433 6.41639 129.903 2.10986C129.903 2.10986 119.991 2.47651 107.35 4.07176C95.9901 5.50298 82.4213 7.9248 71.8706 11.9612Z" fill="#19D5FF"></path></g><path d="M128.659 11.3564C128.508 14.1545 127.763 16.9462 127.108 19.6897C126.427 22.536 125.75 25.3856 125.069 28.2319C123.685 34.0244 122.263 39.8071 120.856 45.5931C118.066 57.0686 115.276 68.5441 112.486 80.0164C111.722 83.1554 110.961 86.2944 110.196 89.4303C109.394 92.7365 108.755 96.1843 107.695 99.4134C107.047 101.388 104.857 100.677 105.175 98.7123C105.64 95.8499 106.498 92.9874 107.188 90.1636C107.881 87.3204 108.578 84.4773 109.272 81.6341C110.685 75.8482 112.097 70.0654 113.51 64.2794C116.313 52.8071 119.1 41.3348 121.916 29.8658C122.686 26.73 123.473 23.5974 124.253 20.4648C125.05 17.2582 125.727 13.923 127.082 10.9158C127.503 9.97987 128.71 10.398 128.659 11.3532V11.3564Z" fill="#E8E06F"></path><path d="M151.645 43.4221C149.202 39.0545 146.829 34.6579 144.475 30.2388C142.135 25.8455 139.499 21.5068 137.473 16.959C137.052 16.0135 138.311 15.2448 138.879 16.1486C141.525 20.3554 143.666 24.9675 146.013 29.3512C148.373 33.767 150.711 38.1861 152.981 42.6503C153.43 43.5315 152.136 44.2937 151.648 43.4189L151.645 43.4221Z" fill="#DBD369"></path><path d="M129.718 41.0323C129.843 36.3237 130.225 31.6377 130.572 26.9388C130.9 22.4779 131.465 17.9366 130.861 13.4757C130.707 12.3468 132.418 11.8611 132.588 13.0125C133.243 17.5217 132.797 21.9955 132.409 26.5046C131.982 31.4093 131.599 36.3076 130.948 41.1867C130.851 41.8974 129.702 41.7334 129.721 41.0323H129.718Z" fill="#DBD369"></path><path d="M107.046 33.9856C108.208 29.7853 110.594 25.7232 112.482 21.8122C114.514 17.6022 116.743 13.479 118.945 9.35901C119.668 8.00498 121.742 9.18534 121.01 10.5297C118.849 14.5114 116.785 18.5445 114.617 22.5198C112.492 26.4179 110.655 30.8177 108.006 34.3748C107.679 34.8122 106.879 34.6096 107.049 33.9856H107.046Z" fill="#DBD369"></path><path d="M90.0565 23.8836C92.6926 21.0629 95.3607 18.2809 98.0578 15.5182C100.726 12.7876 103.282 9.74825 106.204 7.29749C107.501 6.2104 109.135 7.83781 108.063 9.15647C105.651 12.1154 102.649 14.7173 99.9586 17.4189C97.2358 20.156 94.4906 22.8608 91.7101 25.5367C90.628 26.5788 89.0323 24.9835 90.0597 23.8868L90.0565 23.8836Z" fill="#DBD369"></path><path d="M154.149 32.4549C153.24 30.4287 152.052 28.6887 150.713 26.923C150.084 26.0932 151.464 25.0286 152.142 25.8263C153.661 27.608 154.765 29.6954 155.638 31.8502C155.985 32.709 154.531 33.3136 154.145 32.4549H154.149Z" fill="#EBE163"></path><path d="M134.8 24.1633C134.485 23.9349 134.492 23.7355 134.421 23.3753C134.354 23.028 134.238 22.6838 134.123 22.3493C133.869 21.6225 133.4 21.021 133.22 20.2652C133.012 19.3904 134.248 18.7665 134.877 19.3325C135.731 20.0948 135.892 21.3201 135.821 22.4137C135.792 22.8607 135.661 23.3785 135.465 23.7806C135.372 23.9735 135.057 24.3434 134.803 24.1601L134.8 24.1633Z" fill="#EBE163"></path><path d="M104.453 18.3546C105.439 16.8623 106.884 15.6723 108.294 14.5755C109.51 13.6268 110.721 15.3153 109.51 16.3187C108.127 17.4669 106.666 18.6344 105.064 19.223C104.508 19.4256 104.091 18.9014 104.45 18.3578L104.453 18.3546Z" fill="#EBE163"></path><path d="M175.891 43.5251C174.716 44.0043 173.547 42.6567 172.654 41.9909C171.335 41.0068 170.009 39.9776 168.878 38.7747C168.195 38.0446 169.216 37.0283 169.96 37.678C171.238 38.794 172.433 39.984 173.762 41.0421C174.616 41.7143 175.984 42.1807 176 43.3835C176 43.4543 175.952 43.4993 175.891 43.5251Z" fill="#EBE163"></path><path d="M70.808 12.5173C71.7616 11.9513 72.8212 11.6908 73.8294 11.3434C74.9307 10.9671 76.0256 10.5619 77.1269 10.192C78.5396 9.716 78.5557 11.7261 77.1493 12.1989C75.2004 12.855 72.7281 13.8263 70.8241 13.8231C70.0631 13.8231 70.137 12.9129 70.808 12.5141V12.5173Z" fill="#EBE163"></path><g style="mix-blend-mode:multiply" opacity="0.73"><path d="M71.8706 11.961C71.8706 11.961 88.2296 21.0951 91.3634 24.7069C91.3634 24.7069 94.2049 26.2539 97.5474 28.0903C100.662 27.7108 104.332 27.222 108.65 26.5851C129.983 23.4493 156.899 37.6361 164.627 42.0455C169.604 42.023 174.417 42.1742 175.897 42.7981C175.907 42.7981 175.91 42.8046 175.91 42.8046C175.91 42.8046 164.078 29.7596 149.103 16.8561L129.931 8.87662L107.347 4.06836C95.9869 5.49958 82.4181 7.9214 71.8674 11.9578L71.8706 11.961Z" fill="#90DECF"></path></g><path d="M71.8706 11.9609C72.9398 11.8354 74.0347 11.755 75.1392 11.7164C87.7159 11.2822 102.254 16.1773 105.195 17.2194C105.542 17.3416 105.728 17.4124 105.728 17.4124C106.467 17.3352 107.263 17.2998 108.101 17.303C117.313 17.332 131.803 21.7671 134.202 22.5294C134.427 22.5969 134.545 22.6355 134.545 22.6355C134.998 22.6452 135.448 22.6709 135.904 22.7159C141.641 23.2756 147.588 26.421 151.132 28.6209C153.136 29.8624 154.382 30.8079 154.382 30.8079C154.584 30.8305 154.793 30.8594 155.005 30.9044C161.677 32.1781 175.457 42.4668 175.897 42.8013C175.907 42.8013 175.91 42.8077 175.91 42.8077C175.91 42.8077 175.525 42.3864 174.809 41.6112C170.275 36.7483 152.423 18.0428 134.093 4.99131C133.245 4.38666 132.394 3.79488 131.543 3.21596C131.402 3.11947 131.258 3.01655 131.113 2.92328C130.949 2.81071 130.786 2.70458 130.619 2.59201C130.606 2.57915 130.59 2.5695 130.574 2.55985C130.477 2.49552 130.371 2.42798 130.275 2.36366C130.147 2.28004 130.025 2.1932 129.899 2.11279C129.899 2.11279 129.588 2.12244 129.004 2.1546C128.525 2.17712 127.861 2.2125 127.032 2.25752C118.119 2.77212 90.3552 4.88518 71.8674 11.9609H71.8706Z" fill="#35FF7E"></path><path opacity="0.6" d="M121.266 43.9947L107.639 99.5485C107.446 100.33 106.666 100.812 105.883 100.632C105.302 100.497 104.945 99.9152 105.083 99.3362L118.623 43.1777" fill="#ABD2D8"></path><g style="mix-blend-mode:hard-light" opacity="0.44"><path d="M51.3223 183.476C51.2131 186.991 49.3316 204.613 49.7779 211.901C50.2113 218.986 44.7787 218.645 44.2617 213.364C43.0641 201.158 45.0163 190.268 46.7661 183.109C47.6812 179.359 51.4218 180.227 51.3223 183.479V183.476Z" fill="#EFEFEF"></path></g><g style="mix-blend-mode:hard-light" opacity="0.44"><path d="M47.9499 223.254C46.6732 223.254 45.6382 222.217 45.6382 220.938C45.6382 219.659 46.6732 218.623 47.9499 218.623C49.2267 218.623 50.2617 219.659 50.2617 220.938C50.2617 222.217 49.2267 223.254 47.9499 223.254Z" fill="#EFEFEF"></path></g><g opacity="0.74"><path d="M63.3184 162.619C62.7953 162.619 62.3712 162.194 62.3712 161.67C62.3712 161.146 62.7953 160.721 63.3184 160.721C63.8416 160.721 64.2656 161.146 64.2656 161.67C64.2656 162.194 63.8416 162.619 63.3184 162.619Z" fill="#E6ECF4"></path><path d="M51.0528 142.038C50.5297 142.038 50.1056 141.613 50.1056 141.089C50.1056 140.565 50.5297 140.14 51.0528 140.14C51.5759 140.14 52 140.565 52 141.089C52 141.613 51.5759 142.038 51.0528 142.038Z" fill="#E6ECF4"></path><path d="M82.4603 209.855C82.5181 209.334 82.9836 208.958 83.5038 209.016C84.0239 209.074 84.3996 209.54 84.3418 210.061C84.284 210.582 83.8184 210.958 83.2983 210.9C82.7781 210.842 82.4025 210.376 82.4603 209.855Z" fill="#E6ECF4"></path><path d="M67.4798 227.664C67.5376 227.143 68.0031 226.766 68.5233 226.824C69.0434 226.882 69.4191 227.348 69.3613 227.87C69.3035 228.391 68.838 228.767 68.3178 228.709C67.7977 228.651 67.422 228.185 67.4798 227.664Z" fill="#E6ECF4"></path><path d="M53.2532 222.627C53.311 222.106 53.7766 221.73 54.2967 221.788C54.8169 221.846 55.1926 222.312 55.1348 222.833C55.077 223.354 54.6114 223.73 54.0912 223.672C53.5711 223.614 53.1954 223.148 53.2532 222.627Z" fill="#E6ECF4"></path><path d="M44.5489 172.489C44.0258 172.489 43.6017 172.065 43.6017 171.541C43.6017 171.017 44.0258 170.592 44.5489 170.592C45.072 170.592 45.4961 171.017 45.4961 171.541C45.4961 172.065 45.072 172.489 44.5489 172.489Z" fill="#E6ECF4"></path><path d="M61.0618 207.627C61.1196 207.106 61.5852 206.729 62.1053 206.787C62.6255 206.845 63.0011 207.311 62.9434 207.832C62.8856 208.353 62.42 208.73 61.8998 208.672C61.3797 208.614 61.004 208.148 61.0618 207.627Z" fill="#E6ECF4"></path><path d="M60.7728 178.658C60.8306 178.137 61.2961 177.76 61.8163 177.818C62.3364 177.876 62.7121 178.343 62.6543 178.864C62.5965 179.385 62.1309 179.761 61.6108 179.703C61.0906 179.645 60.715 179.179 60.7728 178.658Z" fill="#E6ECF4"></path><path d="M99.42 134.493C98.8969 134.493 98.4728 134.068 98.4728 133.544C98.4728 133.02 98.8969 132.595 99.42 132.595C99.9431 132.595 100.367 133.02 100.367 133.544C100.367 134.068 99.9431 134.493 99.42 134.493Z" fill="#E6ECF4"></path><path d="M81.9825 113.021C81.4594 113.021 81.0353 112.596 81.0353 112.072C81.0353 111.548 81.4594 111.124 81.9825 111.124C82.5056 111.124 82.9297 111.548 82.9297 112.072C82.9297 112.596 82.5056 113.021 81.9825 113.021Z" fill="#E6ECF4"></path><path d="M50.5919 101.649C50.0688 101.649 49.6447 101.224 49.6447 100.7C49.6447 100.176 50.0688 99.751 50.5919 99.751C51.115 99.751 51.5391 100.176 51.5391 100.7C51.5391 101.224 51.115 101.649 50.5919 101.649Z" fill="#E6ECF4"></path><path d="M115.318 100.639C114.795 100.639 114.371 100.214 114.371 99.69C114.371 99.166 114.795 98.7412 115.318 98.7412C115.842 98.7412 116.266 99.166 116.266 99.69C116.266 100.214 115.842 100.639 115.318 100.639Z" fill="#E6ECF4"></path><path d="M93.3809 96.3483C92.8578 96.3483 92.4338 95.9235 92.4338 95.3995C92.4338 94.8755 92.8578 94.4507 93.3809 94.4507C93.9041 94.4507 94.3281 94.8755 94.3281 95.3995C94.3281 95.9235 93.9041 96.3483 93.3809 96.3483Z" fill="#E6ECF4"></path><path d="M74.8626 190.021C74.9204 189.5 75.386 189.123 75.9061 189.181C76.4263 189.239 76.8019 189.705 76.7441 190.226C76.6863 190.747 76.2208 191.124 75.7006 191.066C75.1805 191.008 74.8048 190.542 74.8626 190.021Z" fill="#E6ECF4"></path><path d="M85.1661 230.613C84.643 230.613 84.2189 230.188 84.2189 229.664C84.2189 229.14 84.643 228.715 85.1661 228.715C85.6892 228.715 86.1133 229.14 86.1133 229.664C86.1133 230.188 85.6892 230.613 85.1661 230.613Z" fill="#E6ECF4"></path><path d="M98.9759 226.567C99.0337 226.046 99.4992 225.67 100.019 225.728C100.54 225.785 100.915 226.252 100.857 226.773C100.8 227.294 100.334 227.67 99.8139 227.612C99.2938 227.554 98.9181 227.088 98.9759 226.567Z" fill="#E6ECF4"></path><path d="M113.275 160.129C112.752 160.129 112.328 159.704 112.328 159.18C112.328 158.656 112.752 158.231 113.275 158.231C113.799 158.231 114.223 158.656 114.223 159.18C114.223 159.704 113.799 160.129 113.275 160.129Z" fill="#E6ECF4"></path><path d="M94.7325 197.215C94.2094 197.215 93.7853 196.791 93.7853 196.267C93.7853 195.743 94.2094 195.318 94.7325 195.318C95.2556 195.318 95.6797 195.743 95.6797 196.267C95.6797 196.791 95.2556 197.215 94.7325 197.215Z" fill="#E6ECF4"></path><path d="M54.6439 194.34C54.7017 193.819 55.1672 193.443 55.6874 193.501C56.2075 193.559 56.5832 194.025 56.5254 194.546C56.4676 195.067 56.002 195.44 55.4819 195.386C54.9617 195.328 54.5861 194.861 54.6439 194.34Z" fill="#E6ECF4"></path><path d="M95.1661 181.035C94.643 181.035 94.2189 180.61 94.2189 180.086C94.2189 179.562 94.643 179.137 95.1661 179.137C95.6892 179.137 96.1133 179.562 96.1133 180.086C96.1133 180.61 95.6892 181.035 95.1661 181.035Z" fill="#E6ECF4"></path><path d="M105.436 208.54C104.913 208.54 104.488 208.115 104.488 207.591C104.488 207.067 104.913 206.642 105.436 206.642C105.959 206.642 106.383 207.067 106.383 207.591C106.383 208.115 105.959 208.54 105.436 208.54Z" fill="#E6ECF4"></path><path d="M108.533 192.391C108.01 192.391 107.586 191.966 107.586 191.442C107.586 190.918 108.01 190.494 108.533 190.494C109.056 190.494 109.48 190.918 109.48 191.442C109.48 191.966 109.056 192.391 108.533 192.391Z" fill="#E6ECF4"></path><path d="M89.2325 156.032C88.7094 156.032 88.2853 155.607 88.2853 155.083C88.2853 154.559 88.7094 154.134 89.2325 154.134C89.7556 154.134 90.1797 154.559 90.1797 155.083C90.1797 155.607 89.7556 156.032 89.2325 156.032Z" fill="#E6ECF4"></path><path d="M70.1387 127.999C69.6156 127.999 69.1916 127.574 69.1916 127.05C69.1916 126.526 69.6156 126.102 70.1387 126.102C70.6619 126.102 71.0859 126.526 71.0859 127.05C71.0859 127.574 70.6619 127.999 70.1387 127.999Z" fill="#E6ECF4"></path><path d="M114.042 125.934C114.1 125.413 114.566 125.037 115.086 125.095C115.606 125.153 115.982 125.619 115.924 126.14C115.866 126.661 115.4 127.034 114.88 126.979C114.36 126.925 113.984 126.455 114.042 125.934Z" fill="#E6ECF4"></path></g><path d="M43.0561 17.0779C41.8136 24.5717 45.3487 31.403 48.8516 31.9851C52.1234 32.5287 57.9029 27.2476 59.1422 19.7538C60.3848 12.26 59.5693 7.14945 53.1445 6.08167C46.4853 4.97528 44.2987 9.58735 43.0561 17.0812V17.0779Z" fill="#35FF7E"></path><path d="M52.4975 7.31336L52.3594 7.30371C52.3594 7.32944 52.247 9.92493 51.7622 14.1318C51.6659 14.9712 51.5535 15.8942 51.425 16.8977L47.8835 12.7906L47.7679 12.8421L51.3994 17.0746C51.1329 19.088 50.7893 21.4101 50.3237 24.0056L45.1929 18.1778L45.0805 18.2292L50.2948 24.1696C49.9352 26.1669 49.5018 28.325 48.9816 30.6278L49.1165 30.6503C49.3059 29.8044 49.4857 28.9811 49.6559 28.1738L54.8478 25.2502L54.7611 25.1698L49.688 28.0226C50.237 25.3757 50.6673 22.9506 51.0076 20.7733L55.9844 17.8851L55.8945 17.8047L51.0301 20.6253C51.4186 18.1199 51.6947 15.9457 51.9002 14.1511C51.9677 13.5721 52.0255 13.0222 52.08 12.5043L54.4946 11.1342L54.4079 11.0538L52.0961 12.3564C52.4172 9.21415 52.4975 7.33909 52.4975 7.31658V7.31336Z" fill="white"></path><path d="M32.055 62.6452C36.99 58.6957 38.5954 52.4916 36.7492 50.1759C35.025 48.0146 28.5071 48.0629 23.5753 52.0156C18.6403 55.9651 16.306 59.5866 19.6934 63.832C23.2028 68.2318 27.1232 66.5948 32.055 62.642V62.6452Z" fill="#35FF7E"></path><path d="M20.7784 63.4301L20.8586 63.5138C20.8586 63.5138 22.3838 61.9539 25.023 59.6157C25.5496 59.1493 26.1308 58.638 26.7697 58.0912L26.6798 62.61L26.7793 62.6422L26.8821 57.9947C28.1664 56.8948 29.6691 55.6501 31.4029 54.2993L31.3419 60.7703L31.4414 60.8025L31.5121 54.2156C32.8445 53.18 34.3119 52.0833 35.9141 50.948L35.8434 50.8579C35.2558 51.276 34.6843 51.6877 34.1353 52.0929L29.2934 51.0091L29.303 51.1088L34.0325 52.1701C32.2216 53.5049 30.6066 54.7688 29.1842 55.9267L24.4965 54.9393L24.5061 55.039L29.0879 56.0071C27.4536 57.3418 26.0762 58.535 24.9492 59.5353C24.5864 59.8569 24.2428 60.1657 23.9249 60.4551L21.6677 59.9566L21.6774 60.0563L23.8318 60.5387C21.8861 62.3077 20.7944 63.4237 20.7816 63.4366L20.7784 63.4301Z" fill="white"></path><path d="M38.5066 51.0443C30.0037 51.0443 23.1108 44.1397 23.1108 35.6225C23.1108 27.1053 30.0037 20.2007 38.5066 20.2007C47.0094 20.2007 53.9023 27.1053 53.9023 35.6225C53.9023 44.1397 47.0094 51.0443 38.5066 51.0443Z" fill="#FB4311"></path><path opacity="0.1" d="M23.2015 35.0855C24.1166 38.0219 25.9114 40.7171 28.5347 42.7272C35.287 47.9021 44.9483 46.6188 50.1176 39.8551C52.1276 37.2275 53.1551 34.156 53.2739 31.0845C54.7123 35.703 53.9674 40.9261 50.808 45.0622C45.6386 51.8259 35.9773 53.1124 29.225 47.9343C25.0991 44.7695 23.0185 39.9227 23.2015 35.0887V35.0855Z" fill="#27233D"></path><path opacity="0.1" d="M37.0279 40.7587C31.5981 40.7587 27.1964 36.3495 27.1964 30.9106C27.1964 25.4716 31.5981 21.0625 37.0279 21.0625C42.4577 21.0625 46.8594 25.4716 46.8594 30.9106C46.8594 36.3495 42.4577 40.7587 37.0279 40.7587Z" fill="white"></path><path opacity="0.6" d="M33.4749 23.7639L32.7717 24.7641C32.5405 25.0954 32.2098 25.3495 31.831 25.4878L30.6847 25.9123C29.593 26.3176 29.0761 27.5687 29.5673 28.6268L30.0811 29.7364C30.2512 30.1031 30.3058 30.5147 30.2384 30.9136L30.0329 32.1196C29.837 33.2678 30.659 34.3421 31.8181 34.445L33.035 34.5543C33.4364 34.5897 33.8217 34.7473 34.1299 35.0078L35.0707 35.7894C35.9665 36.5355 37.3054 36.3554 37.9764 35.4034L38.6796 34.4032C38.9108 34.0719 39.2415 33.8178 39.6203 33.6795L40.7666 33.255C41.8583 32.8497 42.3752 31.5986 41.884 30.5405L41.3702 29.4309C41.2001 29.0642 41.1455 28.6526 41.2129 28.2537L41.4184 27.0477C41.6143 25.8995 40.7923 24.8252 39.6332 24.7223L38.4163 24.613C38.0149 24.5776 37.6297 24.42 37.3214 24.1595L36.3807 23.3779C35.4848 22.6318 34.1459 22.8119 33.4749 23.7639Z" fill="white"></path><path d="M35.7249 33.8051C33.3984 33.8051 31.5124 31.9159 31.5124 29.5854C31.5124 27.2549 33.3984 25.3657 35.7249 25.3657C38.0515 25.3657 39.9375 27.2549 39.9375 29.5854C39.9375 31.9159 38.0515 33.8051 35.7249 33.8051Z" fill="#FB4311"></path><path opacity="0.2" d="M38.6737 30.634C38.3687 28.3247 36.2495 26.6973 33.941 27.0061C33.1511 27.1122 32.4415 27.4338 31.8636 27.9002C32.4351 26.5912 33.652 25.6038 35.1675 25.4012C37.4729 25.0956 39.592 26.7198 39.9002 29.0291C40.1025 30.5471 39.4668 31.9816 38.3558 32.8757C38.6544 32.1939 38.7796 31.4252 38.6737 30.634Z" fill="#27233D"></path><path opacity="0.2" d="M27.6921 32.7665C27.1725 32.7665 26.7513 32.3446 26.7513 31.8242C26.7513 31.3037 27.1725 30.8818 27.6921 30.8818C28.2116 30.8818 28.6328 31.3037 28.6328 31.8242C28.6328 32.3446 28.2116 32.7665 27.6921 32.7665Z" fill="white"></path><path d="M59.3258 22.5837C62.5431 22.1463 65.6607 22.7381 68.3514 24.105C68.1459 23.0372 68.6853 22.1366 67.6001 21.458C69.1477 21.9083 69.6293 23.0018 69.3628 24.6935C70.387 23.7254 70.1366 22.1559 69.8926 21.6799C70.6182 22.32 71.5461 23.1819 70.6985 25.2982L72.8369 23.6836C72.9493 23.6 73.1002 23.719 73.0424 23.8477L71.8833 26.4721C73.5978 25.1985 74.5322 25.533 75.2675 26.1087C74.6767 25.9382 73.7423 26.7262 73.0263 27.334C74.1758 26.9545 75.5243 27.4691 76.1215 29.4278C75.3477 28.2635 74.3235 28.2957 73.6364 28.5015C75.2065 30.5567 76.2789 33.0364 76.6545 35.7831C77.8008 44.2224 71.8993 51.9928 63.4742 53.141C55.049 54.2892 47.2918 48.3778 46.1455 39.9384C44.9992 31.4991 50.9007 23.7287 59.3258 22.5805V22.5837Z" fill="#FB4311"></path><path opacity="0.1" d="M50.9134 26.5752C49.4942 29.3026 48.8713 32.4802 49.3176 35.7607C50.4639 44.2001 58.2212 50.1115 66.6463 48.9633C69.9213 48.5163 72.811 47.0658 75.0586 44.9688C72.8271 49.2592 68.6242 52.4401 63.474 53.1412C55.0489 54.2894 47.2916 48.378 46.1453 39.9386C45.4454 34.7798 47.3815 29.8718 50.9134 26.5752Z" fill="#27233D"></path><path opacity="0.1" d="M64.4849 43.869C59.0552 43.869 54.6535 39.4599 54.6535 34.0209C54.6535 28.582 59.0552 24.1729 64.4849 24.1729C69.9147 24.1729 74.3164 28.582 74.3164 34.0209C74.3164 39.4599 69.9147 43.869 64.4849 43.869Z" fill="white"></path><path opacity="0.2" d="M54.5727 33.0818C53.7499 33.0818 53.0829 32.4137 53.0829 31.5895C53.0829 30.7653 53.7499 30.0972 54.5727 30.0972C55.3955 30.0972 56.0625 30.7653 56.0625 31.5895C56.0625 32.4137 55.3955 33.0818 54.5727 33.0818Z" fill="white"></path><path opacity="0.2" d="M56.8092 34.687C56.2897 34.687 55.8685 34.265 55.8685 33.7446C55.8685 33.2242 56.2897 32.8022 56.8092 32.8022C57.3288 32.8022 57.75 33.2242 57.75 33.7446C57.75 34.265 57.3288 34.687 56.8092 34.687Z" fill="white"></path><path d="M48.0027 69.0164C39.4998 69.0164 32.6069 62.1119 32.6069 53.5946C32.6069 45.0774 39.4998 38.1729 48.0027 38.1729C56.5055 38.1729 63.3984 45.0774 63.3984 53.5946C63.3984 62.1119 56.5055 69.0164 48.0027 69.0164Z" fill="#FB4311"></path><path opacity="0.1" d="M37.5149 42.3091C36.0958 45.0364 35.4729 48.2141 35.9192 51.4946C37.0654 59.934 44.8227 65.8454 53.2479 64.6972C56.5229 64.2502 59.4126 62.7997 61.6602 60.7027C59.4287 64.9931 55.2257 68.174 50.0756 68.8751C41.6504 70.0233 33.8932 64.1119 32.7469 55.6725C32.0469 50.5137 33.9831 45.6057 37.5149 42.3091Z" fill="#27233D"></path><path opacity="0.1" d="M51.0826 59.6024C45.6528 59.6024 41.2511 55.1933 41.2511 49.7543C41.2511 44.3154 45.6528 39.9062 51.0826 39.9062C56.5124 39.9062 60.9141 44.3154 60.9141 49.7543C60.9141 55.1933 56.5124 59.6024 51.0826 59.6024Z" fill="white"></path><path opacity="0.2" d="M41.1703 48.8123C40.3475 48.8123 39.6805 48.1442 39.6805 47.32C39.6805 46.4958 40.3475 45.8276 41.1703 45.8276C41.9931 45.8276 42.6602 46.4958 42.6602 47.32C42.6602 48.1442 41.9931 48.8123 41.1703 48.8123Z" fill="white"></path><path opacity="0.2" d="M43.4069 50.4174C42.8873 50.4174 42.4661 49.9955 42.4661 49.4751C42.4661 48.9546 42.8873 48.5327 43.4069 48.5327C43.9265 48.5327 44.3477 48.9546 44.3477 49.4751C44.3477 49.9955 43.9265 50.4174 43.4069 50.4174Z" fill="white"></path><path opacity="0.6" d="M49.4741 42.5146L48.7741 43.5181C48.543 43.8494 48.2154 44.1035 47.8366 44.245L46.6903 44.6727C45.5986 45.0812 45.0881 46.3323 45.5794 47.3904L46.0963 48.5C46.2665 48.8667 46.3243 49.2784 46.2569 49.6772L46.0546 50.8833C45.8619 52.0347 46.6871 53.1024 47.8494 53.2054L49.0663 53.3115C49.4709 53.3469 49.853 53.5045 50.1644 53.7618L51.1052 54.5401C52.0042 55.2831 53.3431 55.0997 54.0077 54.1445L54.7077 53.141C54.9389 52.8098 55.2664 52.5557 55.6452 52.4142L56.7915 51.9864C57.8832 51.578 58.3937 50.3268 57.9024 49.2687L57.3855 48.1591C57.2153 47.7925 57.1575 47.3808 57.2249 46.982L57.4272 45.7759C57.6199 44.6245 56.7947 43.5567 55.6324 43.4538L54.4155 43.3476C54.0109 43.3123 53.6289 43.1547 53.3174 42.8974L52.3766 42.119C51.4776 41.3761 50.1387 41.5594 49.4741 42.5146Z" fill="white"></path><path d="M51.7445 52.5492C49.4179 52.5492 47.5319 50.66 47.5319 48.3296C47.5319 45.9991 49.4179 44.1099 51.7445 44.1099C54.071 44.1099 55.957 45.9991 55.957 48.3296C55.957 50.66 54.071 52.5492 51.7445 52.5492Z" fill="#FB4311"></path><path opacity="0.2" d="M54.6983 49.3688C54.3836 47.0596 52.2613 45.4418 49.9559 45.7538C49.1661 45.8599 48.4597 46.1848 47.8818 46.6543C48.4501 45.3453 49.6605 44.3547 51.176 44.1457C53.4814 43.8305 55.607 45.4483 55.9184 47.7607C56.1239 49.2788 55.4946 50.7132 54.3868 51.6106C54.6822 50.9287 54.8075 50.16 54.6983 49.3656V49.3688Z" fill="#27233D"></path><path opacity="0.1" d="M59.8769 32.6576C59.404 29.1726 61.8411 25.9635 65.3202 25.4899C68.7993 25.0162 72.003 27.4574 72.4758 30.9423C72.9487 34.4273 70.5117 37.6364 67.0326 38.1101C63.5535 38.5838 60.3498 36.1426 59.8769 32.6576Z" fill="white"></path><path d="M114.038 198.556C115.878 197.781 117.766 197.109 119.657 196.466C119.005 196.688 118.356 196.91 117.705 197.128C122.778 195.408 127.979 193.98 133.277 193.16C134.911 192.906 136.555 192.719 138.206 192.613C137.496 192.658 136.786 192.7 136.077 192.745C138.8 192.581 141.554 192.635 144.235 193.185C143.539 193.041 142.842 192.896 142.148 192.748C143.548 193.044 144.913 193.478 146.197 194.118C145.584 193.806 144.974 193.494 144.361 193.179C145.253 193.636 146.088 194.189 146.839 194.851C146.335 194.398 145.828 193.944 145.324 193.494C145.972 194.083 146.544 194.739 147.032 195.466C146.656 194.9 146.284 194.334 145.908 193.768C146.339 194.427 146.698 195.118 146.955 195.865C146.733 195.212 146.512 194.562 146.294 193.909C146.512 194.572 146.644 195.253 146.692 195.951C146.647 195.241 146.605 194.53 146.56 193.819C146.608 194.671 146.531 195.517 146.361 196.353C146.505 195.655 146.65 194.958 146.798 194.263C146.534 195.475 146.082 196.633 145.52 197.736C145.831 197.122 146.143 196.511 146.457 195.897C145.356 198.026 143.892 199.943 142.303 201.731C142.755 201.226 143.208 200.718 143.657 200.213C139.878 204.436 135.393 208.006 130.795 211.29C129.501 212.213 128.191 213.113 126.868 213.994C127.433 213.618 127.998 213.245 128.564 212.869C124.749 215.4 120.829 217.79 116.809 219.983C116.545 220.128 116.282 220.269 116.019 220.408C114.218 221.356 112.718 222.952 112.031 224.894C111.37 226.76 111.424 229.31 112.391 231.076C113.36 232.851 114.879 234.462 116.87 235.07C118.886 235.688 121.124 235.72 123.041 234.71C127.135 232.555 131.103 230.117 134.969 227.576C142.916 222.353 150.67 216.725 156.687 209.26C159.599 205.648 161.667 201.474 162.348 196.862C163.07 191.97 161.031 186.525 157.458 183.16C155.191 181.028 152.757 179.407 149.79 178.365C147.356 177.513 144.72 177.04 142.148 176.853C137.191 176.493 132.092 177.091 127.228 178.056C120.456 179.401 113.742 181.523 107.35 184.129C107.244 184.17 107.138 184.215 107.035 184.257C105.26 185.003 103.677 186.965 103.047 188.744C102.386 190.609 102.44 193.16 103.407 194.925C104.377 196.701 105.895 198.312 107.886 198.92C110.002 199.566 112.005 199.425 114.057 198.56L114.038 198.556Z" fill="#21242D"></path><path d="M117.771 217.255C115.973 215.779 113.915 214.551 111.648 213.631C108.398 212.315 104.77 211.788 101.113 212.129C99.8224 212.248 98.5092 212.486 97.3405 213.071C96.1685 213.653 95.1507 214.625 94.8039 215.792C94.3833 217.201 94.9837 218.616 95.6741 219.851C93.3141 220.588 91.0184 221.842 89.3199 223.572C88.5718 224.331 87.9103 225.187 87.5571 226.142C86.9246 227.85 87.3966 229.744 88.5718 231.056C89.7469 232.365 91.5546 233.115 93.4426 233.301C91.6445 234.015 90.296 236.016 90.1386 237.775C89.9813 239.534 90.7262 241.22 91.8596 242.551C92.4376 243.23 93.1247 243.838 93.9595 244.23C95.8731 245.134 98.2523 244.809 100.465 244.465C99.6041 245.407 99.7582 246.961 100.381 247.954C101.004 248.948 102.189 249.55 103.435 249.755C104.684 249.964 106 249.817 107.278 249.566C111.712 248.694 115.844 246.578 119.408 243.883C123.939 240.457 126.385 235.733 125.518 230.59C124.645 225.415 121.913 220.652 117.777 217.259L117.771 217.255Z" fill="white"></path><path d="M114.819 217.362C116.21 215.625 118.313 214.48 120.525 214.258C122.737 214.036 125.027 214.74 126.731 216.168C127.923 217.165 128.812 218.471 129.563 219.832C131.194 222.787 132.225 226.116 132.219 229.493C132.212 232.87 131.114 236.289 128.899 238.833C127.817 240.078 126.314 241.155 124.673 241.027C123.334 240.921 122.175 240.026 121.312 238.997L114.819 217.365V217.362Z" fill="white"></path><path d="M123.327 240.831L122.521 240.007C123.69 238.859 124.467 237.222 124.83 235.151C125.238 232.816 124.994 230.24 124.13 227.705C120.878 218.182 113.156 214.937 113.079 214.908L113.512 213.837C113.849 213.975 121.793 217.291 125.222 227.332C126.15 230.05 126.407 232.822 125.967 235.347C125.562 237.663 124.676 239.509 123.331 240.831H123.327Z" fill="#21242D"></path><path d="M90.1099 226.814L89.2045 226.104C89.3554 225.911 92.9129 221.408 96.7049 221.138L96.7852 222.289C93.5037 222.521 90.142 226.769 90.1099 226.814Z" fill="#21242D"></path><path d="M108.505 232.96C108.355 232.056 109.799 231.063 111.731 230.743C113.662 230.422 115.349 230.895 115.499 231.799C115.648 232.704 114.204 233.696 112.272 234.017C110.341 234.338 108.654 233.865 108.505 232.96Z" fill="#21242D"></path><path d="M112.672 228.826C110.723 228.644 109.211 227.758 109.296 226.845C109.38 225.933 111.029 225.34 112.978 225.521C114.928 225.702 116.439 226.588 116.355 227.501C116.27 228.414 114.621 229.007 112.672 228.826Z" fill="#21242D"></path><path d="M112.893 238.83C112.345 238.096 113.172 236.549 114.739 235.375C116.307 234.2 118.022 233.842 118.57 234.576C119.118 235.31 118.292 236.858 116.724 238.032C115.157 239.207 113.441 239.564 112.893 238.83Z" fill="#21242D"></path><path d="M82.0601 253.117C81.7358 254.152 81.3473 255.169 80.9588 256.179C81.1675 255.638 81.3762 255.098 81.5849 254.558C80.5157 257.32 79.318 260.032 78.0241 262.695C76.1169 266.619 74.001 270.439 71.6828 274.135C70.1319 276.611 68.488 279.027 66.7574 281.381C67.0881 280.931 67.422 280.477 67.7527 280.027C63.7906 285.398 59.3597 290.428 54.4472 294.947C52.9445 296.33 51.3937 297.661 49.8044 298.945C50.2346 298.597 50.6649 298.253 51.0951 297.906C46.6225 301.498 41.8223 304.663 36.7332 307.307C35.3237 308.04 34.1806 309.819 33.8178 311.321C33.4454 312.868 33.6894 314.881 34.5916 316.222C35.5259 317.615 36.9034 318.811 38.5987 319.143C40.3518 319.484 41.9026 319.194 43.4919 318.368C50.6135 314.666 57.1539 309.919 63.1099 304.547C68.1316 300.016 72.6653 294.95 76.7077 289.528C80.429 284.533 83.8517 279.355 86.8281 273.878C88.7771 270.291 90.5526 266.609 92.1131 262.836C93.0089 260.665 93.9432 258.469 94.6239 256.217C94.6303 256.195 94.64 256.172 94.6464 256.146C95.1248 254.625 94.6817 252.567 93.8726 251.245C93.0442 249.888 91.4484 248.633 89.8655 248.325C88.2184 248.006 86.4043 248.135 84.9723 249.1C83.4921 250.097 82.5963 251.403 82.0569 253.114L82.0601 253.117Z" fill="#21242D"></path><path d="M53.1038 296.78L52.5066 296.056C68.9491 282.487 78.437 260.736 78.5301 260.517L79.3906 260.89C79.2943 261.112 69.7229 283.063 53.1006 296.78H53.1038Z" fill="#FFF5D9"></path><path d="M60.6317 306.76L60.0602 306.014C67.596 300.225 74.9294 290.258 75.0033 290.155L75.7578 290.711C75.684 290.811 68.2734 300.884 60.6285 306.76H60.6317Z" fill="#FFF5D9"></path><path d="M45.8906 326.633L36.1073 326.98C35.5326 327.492 21.2734 315.958 19.9377 314.842C15.022 310.735 9.84297 305.95 5.75883 300.984C1.31509 295.574 -1.25034 288.817 0.608719 282.198C0.916954 281.114 1.34078 280.033 1.89625 278.959C3.13883 276.557 5.41529 274.53 8.02246 273.253C13.0506 270.793 19.3116 271.118 21.8096 276.981C22.9366 279.638 23.0843 282.587 23.4536 285.449C24.3847 292.708 26.9533 298.938 30.3086 304.805C30.8833 305.824 31.4902 306.834 32.1163 307.834C35.0734 312.575 42.5514 321.867 45.8874 326.63L45.8906 326.633Z" fill="#21242D"></path><path d="M50.0117 322.108L45.8955 326.633C42.5595 321.87 35.0847 312.578 32.1244 307.838C31.495 306.837 30.8914 305.828 30.3167 304.808C26.9614 298.942 24.3928 292.709 23.4616 285.453C23.0956 282.59 22.9447 279.641 21.8177 276.984C19.3197 271.121 13.0586 270.796 8.03051 273.257C5.42334 274.534 3.1469 276.563 1.90432 278.962C1.34885 280.033 0.925022 281.117 0.616787 282.201C1.71809 275.171 5.52931 270.706 10.0309 268.481C19.0115 264.049 30.7566 268.542 29.2443 279.448C26.9999 295.7 49.6553 321.696 50.0085 322.102V322.108H50.0117Z" fill="white"></path><path d="M52.9139 318.934L52.7116 319.155H52.7052L50.0081 322.108V322.101C49.6485 321.696 26.9931 295.7 29.2374 279.448C30.7465 268.542 19.0046 264.049 10.024 268.481C10.024 268.481 27.9114 252.879 40.9119 266.284C50.8044 276.489 47.4812 292.007 45.3267 298.819C44.6525 300.958 44.097 302.238 44.097 302.238L53.1515 314.852C54.0505 316.103 53.9445 317.808 52.9107 318.937L52.9139 318.934Z" fill="#35FF7E"></path><path d="M57.4332 319.898C55.9209 321.001 53.8114 320.67 52.7101 319.155L52.9124 318.933C53.9463 317.805 54.049 316.103 53.1532 314.849L44.0988 302.235C44.0988 302.235 44.6574 300.955 45.3285 298.816C46.067 298.999 46.7573 299.437 47.2389 300.109L58.1749 315.164C59.2762 316.679 58.9423 318.795 57.4332 319.895V319.898Z" fill="#35FF7E"></path><path d="M50.9532 312.585L43.5684 302.299L43.6679 302.058C43.7225 301.926 49.0588 288.836 46.4484 277.727L47.3603 277.512C49.839 288.067 45.3568 300.295 44.6279 302.174L51.7109 312.038L50.95 312.588L50.9532 312.585Z" fill="#21242D"></path><path d="M51.5164 108.325C52.3095 107.547 53.1379 106.772 54.0594 106.084C54.2873 105.913 54.5217 105.749 54.7625 105.588C54.8813 105.508 55.0033 105.427 55.1254 105.35C55.1157 105.357 55.5074 105.112 55.379 105.189C55.2345 105.276 55.607 105.061 55.6391 105.041C56.0469 104.797 56.1624 104.726 55.9859 104.836C55.8895 104.894 55.9249 104.874 56.0918 104.778C56.3487 104.636 56.6055 104.491 56.8688 104.356C57.3954 104.086 57.9412 103.835 58.4999 103.61C58.7793 103.498 59.065 103.388 59.3508 103.285C59.3379 103.289 59.842 103.118 59.6269 103.189C59.4021 103.263 59.8645 103.115 59.9062 103.102C60.5227 102.919 61.1552 102.758 61.7942 102.629C62.5487 102.475 63.3354 102.423 64.0096 102.095C64.7064 101.758 65.0885 101.159 64.9825 100.519C64.883 99.9405 64.3147 99.3198 63.5344 99.2008C61.8488 98.9403 60.0315 99.5867 58.4967 100.095C57.1899 100.529 55.9505 101.079 54.8011 101.735C52.3223 103.15 50.2803 105.003 49.0955 107.225C48.5496 108.248 50.6367 109.194 51.5132 108.332L51.5164 108.325Z" fill="black"></path><path d="M111.679 112.136C110.918 111.326 110.122 110.515 109.229 109.792C109.008 109.612 108.78 109.438 108.548 109.267C108.433 109.181 108.314 109.097 108.195 109.013C108.205 109.02 107.823 108.762 107.948 108.843C108.089 108.936 107.726 108.705 107.694 108.685C107.296 108.422 107.184 108.348 107.357 108.463C107.45 108.524 107.418 108.505 107.254 108.399C107.004 108.245 106.754 108.093 106.497 107.946C105.98 107.653 105.447 107.383 104.894 107.132C104.618 107.006 104.339 106.887 104.056 106.772C104.069 106.775 103.572 106.582 103.784 106.662C104.005 106.746 103.549 106.579 103.507 106.566C102.897 106.357 102.274 106.173 101.639 106.016C100.891 105.832 100.107 105.746 99.4458 105.392C98.7651 105.025 98.4055 104.414 98.5403 103.781C98.6623 103.205 99.2563 102.61 100.04 102.52C101.735 102.327 103.527 103.047 105.036 103.62C106.323 104.109 107.54 104.707 108.661 105.408C111.079 106.923 113.044 108.859 114.138 111.126C114.642 112.172 112.52 113.03 111.679 112.133V112.136Z" fill="black"></path><path d="M94.9237 158.895C86.7682 157.994 81.3208 146.686 82.7568 133.636C84.1927 120.587 91.9681 110.738 100.124 111.639C108.279 112.539 113.727 123.848 112.291 136.897C110.855 149.946 103.079 159.795 94.9237 158.895Z" fill="white" stroke="black" stroke-width="0.5" stroke-miterlimit="10"></path><mask id="mask0_3338_1115" style="mask-type:luminance" maskUnits="userSpaceOnUse" x="82" y="113" width="29" height="44"><path d="M94.1097 156.816C86.6204 155.99 81.6181 145.605 82.9367 133.622C84.2553 121.639 91.3955 112.595 98.8847 113.422C106.374 114.249 111.376 124.634 110.058 136.617C108.739 148.6 101.599 157.643 94.1097 156.816Z" fill="white"></path></mask><g mask="url(#mask0_3338_1115)"><path d="M92.4944 120.119C96.5015 120.563 99.433 125.136 99.9531 131.061L90.9115 134.496L98.6239 140.87C96.7038 145.955 93.082 149.287 89.3286 148.872C84.3679 148.325 81.0512 141.443 81.9277 133.502C82.801 125.561 87.5338 119.569 92.4944 120.119Z" fill="black"></path></g><path d="M60.2128 155.06C52.0572 154.159 46.6099 142.851 48.0458 129.801C49.4818 116.752 57.2572 106.903 65.4128 107.804C73.5683 108.704 79.0156 120.013 77.5797 133.062C76.1438 146.111 68.3683 155.96 60.2128 155.06Z" fill="white" stroke="black" stroke-width="0.5" stroke-miterlimit="10"></path><mask id="mask1_3338_1115" style="mask-type:luminance" maskUnits="userSpaceOnUse" x="47" y="109" width="29" height="44"><path d="M59.2074 152.843C51.7181 152.016 46.7157 141.631 48.0343 129.648C49.3529 117.665 56.4931 108.622 63.9824 109.449C71.4717 110.275 76.474 120.66 75.1555 132.643C73.8369 144.626 66.6967 153.67 59.2074 152.843Z" fill="white"></path></mask><g mask="url(#mask1_3338_1115)"><path d="M57.5921 116.143C61.5992 116.587 64.5306 121.161 65.0508 127.085L56.0092 130.52L63.7215 136.895C61.8014 141.979 58.1797 145.311 54.4262 144.896C49.4655 144.35 46.1488 137.467 47.0253 129.526C47.8987 121.585 52.6314 115.593 57.5921 116.143Z" fill="black"></path></g><path d="M52.8213 156.871C52.4938 157.177 51.4471 156.913 50.8949 156.238C50.4775 155.726 50.3394 154.977 50.5866 154.543C50.6573 154.417 50.7118 154.404 50.7311 154.404C50.9687 154.382 50.9783 155.224 51.5434 155.816C52.1053 156.405 52.9305 156.443 52.9016 156.733C52.8952 156.8 52.847 156.842 52.8181 156.871H52.8213Z" fill="black"></path><path d="M98.8051 162.162C98.9785 162.574 100.038 162.766 100.818 162.381C101.409 162.088 101.843 161.461 101.798 160.962C101.785 160.817 101.74 160.785 101.724 160.776C101.518 160.657 101.162 161.422 100.401 161.724C99.6463 162.027 98.879 161.724 98.7858 162.001C98.7634 162.065 98.7891 162.123 98.8051 162.162Z" fill="black"></path><path d="M97.1523 191.561C89.3469 198.904 76.2436 207.739 61.6923 202.921L60.0933 168.321C68.6115 172.843 81.2075 177.677 92.699 174.904C91.5591 177.461 91.0294 180.485 92.0889 183.739C93.2641 187.345 95.1167 189.841 97.1523 191.561Z" fill="white"></path><path d="M60.9154 203.329C60.193 203.075 59.4609 202.782 58.7288 202.454L59.2458 201.287C60.1352 201.683 61.0246 202.027 61.8883 202.313C75.8874 206.951 88.5507 198.772 96.7126 191.095L97.5859 192.024C89.1736 199.939 76.0832 208.356 61.4901 203.522C61.3007 203.458 61.108 203.394 60.9154 203.326V203.329Z" fill="#21242D"></path><path d="M69.9739 173.396C66.2333 172.074 62.7721 170.459 59.7957 168.88C53.7112 165.648 49.6303 162.528 49.5886 162.496L50.3656 161.483C50.4041 161.515 54.4112 164.574 60.3929 167.751C68.8341 172.232 81.2663 177.001 92.5491 174.28L92.8477 175.522C85.1995 177.368 77.0858 175.911 69.9739 173.396Z" fill="#21242D"></path><path d="M101.938 195.009C100.586 194.53 99.1416 193.835 97.7352 192.825C97.4045 192.59 97.0706 192.327 96.7431 192.047C94.351 190.024 92.5819 187.297 91.487 183.939C90.5013 180.919 90.7132 177.793 92.1195 174.644C92.7842 173.158 93.7089 171.675 94.8712 170.241C96.7206 167.967 98.509 166.616 98.5861 166.562L99.3503 167.584C99.3342 167.597 97.6068 168.903 95.8633 171.048C94.7717 172.396 93.9047 173.782 93.2851 175.165C92.0136 178.015 91.8177 180.832 92.7007 183.543C93.7217 186.673 95.3592 189.207 97.5683 191.076C97.8701 191.333 98.1783 191.574 98.4801 191.79C102.978 195.025 108.071 194.761 108.122 194.758L108.199 196.032C108.039 196.041 105.277 196.193 101.938 195.012V195.009Z" fill="#21242D"></path><path d="M72.4436 173.323L73.3945 204.148L72.1205 204.188L71.1695 173.362L72.4436 173.323Z" fill="#21242D"></path><path d="M84.1217 175.51L89.4609 197.994L88.2208 198.29L82.8816 175.805L84.1217 175.51Z" fill="#21242D"></path></g><defs><linearGradient id="paint0_linear_3338_1115" x1="135.545" y1="198.335" x2="23.3419" y2="104.341" gradientUnits="userSpaceOnUse"><stop stop-color="#FF4A00"></stop><stop offset="0.03" stop-color="#FF4D00"></stop><stop offset="0.24" stop-color="#FF6500"></stop><stop offset="0.46" stop-color="#FF7600"></stop><stop offset="0.7" stop-color="#FF8000"></stop><stop offset="1" stop-color="#FF8400"></stop></linearGradient><clipPath id="clip0_3338_1115"><rect width="176" height="327" fill="white" transform="matrix(-1 0 0 1 176 0)"></rect></clipPath></defs></svg>