<?xml version="1.0" encoding="utf-8"?>
<!-- Generator: Adobe Illustrator 27.0.0, SVG Export Plug-In . SVG Version: 6.00 Build 0)  -->
<svg version="1.1" id="Layer_1" xmlns="http://www.w3.org/2000/svg" xmlns:xlink="http://www.w3.org/1999/xlink" x="0px" y="0px"
	 viewBox="0 0 1080 845.2" style="enable-background:new 0 0 1080 845.2;" xml:space="preserve">
<style type="text/css">
	.st0{fill:#3EE595;}
</style>
<g>
	<path class="st0" d="M931.1,323.1c-10.4-52.5-92.6-35-80.7,17.2C860.8,392.8,943,375.3,931.1,323.1z M870,336.1
		c-6.1-26.8,36.1-35.8,41.4-8.8C917.5,354.1,875.4,363.1,870,336.1z"/>
	<path class="st0" d="M1027.4,376c-62.6-301-7.3-200.8-288.5-160.6l4.2,19.7l223.6-47.6C973.6,187.8,1002.4,443.1,1027.4,376z
		 M908.5,431C928,418.8,763.9,330.3,762,323.9l5.9,27.8l118.2,76.8l-76.7,118.3l5.9,27.8L908.5,431z M1030.3,589.3
		c-10.6-7.5-63.5-382.4-89.9-374.1c0,0-192.9,41-192.9,41l4.2,19.7l183-38.9l73.8,346.8l-183,38.9l4.2,19.7
		C835.6,635.2,1041.5,610.3,1030.3,589.3z M1079.6,621.4c-41-244.1-95.3-314.5-21.8-5.7l-223.6,47.6l4.2,19.7
		C843.8,675.1,1091.4,643.6,1079.6,621.4z"/>
	<path class="st0" d="M391,801c-89,18-168.7,32.4-243.5,44c-8.3,1.3-11.3-5.2-12.2-8.1c-0.1-0.6-0.4-1.2-0.7-1.8
		c-0.6-1.2-1-2.1-1.2-3.1c-19-85.7-34.4-178.1-50.9-276C60.8,427.6,38.5,294.9,8,179.5c-0.2-0.8-0.3-1.7-0.4-2.9
		c-0.1-1.2-0.3-2.5-0.7-3.5c-0.1-0.6-0.4-1-0.5-1.5L0.2,141c-1.2-5.8,2.7-11.6,8.4-12.7c0.6-0.1,1.8-0.2,2.5-0.3
		c0.2,0,1.8-0.6,1.8-0.6c103.8-20.7,209.9-39.5,312.4-57.6C433.1,50.8,544.5,31.2,653.7,9c14.1-2.9,28.2-5.7,42.4-8.8
		c7.7-1.6,10.5,3.9,11.4,7.2c0.1,0.7,0.4,1.3,0.8,1.9c0.6,1.2,1,2.3,1.2,3.5c9.6,56.5,19.8,114.8,30.2,172.8
		c0.5,2.3,1.6,4.5,3.3,6.1c3.5,3.5,4.7,9.8,2.6,14.2c-1,2.1-1.4,4.6-1,7c28.5,158,63.8,339,92.1,472.3c0.5,2.5,0.4,4.7-0.4,6.4
		c-0.6,1.3-0.9,2.6-1,4c-0.3,5-3,8.2-8,9.3c-37.9,8.4-75.7,17-113.5,25.5C608,754.2,498.8,778.9,391,800.7L391,801z M74.7,326.5
		c-2.8,0.6-5.2,2.1-6.9,4.5c-1.8,2.5-2.5,5.7-2,8.8c12.2,63.3,24.2,133.8,35.7,202.1c15.6,92.3,31.8,187.7,49.3,269.7
		c1.2,5.9,6.9,9.8,12.8,8.9c69.7-11.1,143.5-24.6,225.5-41.2c108.5-22,218.2-46.7,324.4-70.7c30.1-6.8,60.2-13.6,90.3-20.3
		c6.1-1.3,9.9-7.3,8.6-13.4c-27.1-128.4-60.6-300.5-87.5-449.1c-0.6-3-2.3-5.6-4.8-7.4c-2.6-1.7-5.6-2.4-8.6-1.7
		c-199.7,40.1-415,81.3-636.2,109.9c-0.3,0.1-0.6,0.1-0.7,0.1L74.7,326.5z M318.7,93c-6,1.2-9.9,6.9-8.9,13
		c7.6,45,18.6,93.1,33.7,147.3c1.5,5.7,7.1,9.2,12.8,8.1c102.5-17.8,214.3-38.9,352.1-66.5c6-1.2,9.9-7,8.9-13.1
		c-8.8-49.8-17.4-98.9-25.5-146.5c-0.5-3-2.2-5.7-4.8-7.4c-2.6-1.7-5.7-2.3-8.6-1.7l-6,1.2C557.4,50.6,440,71.5,326.6,91.6
		C326.6,91.6,318.9,93,318.7,93L318.7,93z M229.6,109c-5.9,1.2-9.9,6.9-8.9,13c3.9,23.6,8.1,47,12.3,70.5
		c4.5,25.3,9.1,50.6,13.1,75.8c1,6.2,6.8,10.4,13,9.5c17.9-2.8,35.7-5.8,53.5-8.7c0.1,0,0.3-0.1,0.4-0.1c3-0.6,5.7-2.4,7.2-5
		c1.8-2.7,2.2-6.1,1.3-9.2c-14.7-53.3-25.6-100.7-32.9-144.7c-0.5-3-2.2-5.6-4.7-7.4c-2.5-1.7-5.5-2.5-8.5-2l-45.9,8.3L229.6,109z
		 M134.2,126.4c-2.9,0.6-5.5,2.3-7.1,4.7c-1.7,2.6-2.3,5.6-1.7,8.7c9.1,45.1,18.5,93.3,24.6,142.6c0.3,3,1.9,5.8,4.3,7.6
		c2.4,1.8,5.5,2.7,8.5,2.2l6.8-1c15.3-2.2,30.6-4.5,45.8-6.8c0.2,0,0.4-0.1,0.6-0.1c2.8-0.6,5.2-2.1,6.9-4.5c1.8-2.5,2.5-5.5,2-8.5
		c-4.1-24.9-8.5-49.7-13-74.5c-4.2-23.6-8.4-47.2-12.3-70.8c-0.5-3-2.2-5.6-4.7-7.5c-2.5-1.7-5.6-2.4-8.6-1.9l-52.1,9.6L134.2,126.4
		z M34.5,145.2c-3,0.6-5.5,2.4-7.2,4.8c-1.7,2.6-2.2,5.6-1.6,8.5l1.7,8.5c0.1,0.7,0.2,1.4,0.1,2.3c-0.1,1.8,0.2,3.5,1,5.1
		c0.5,1.1,0.7,1.5,0.9,1.9c8,30.3,15.7,63,23.7,100.1c0.1,0.5,0.2,0.8,0.3,1.3c0.3,0.9,0.5,1.9,0.6,3c0.1,0.4,0.2,0.7,0.2,1
		c0.5,2.7,2.9,14.4,2.9,14.4c1.2,5.9,6.7,9.8,12.6,9c13.4-1.7,26.7-3.6,40-5.4c0,0,9.9-1.4,10.1-1.5c5.7-1.2,9.7-6.6,9-12.5
		c-6.2-49.8-15.9-99.6-24.6-142.5c-1.2-6.1-7.1-10.1-13.1-8.9l-7.8,1.6c-16.2,3-32.4,6-48.6,9.2L34.5,145.2z M468.5,715
		c-82.8,16.8-189.8-9.4-229.1-106.6c-23.8-58.8-20-125.1,10.3-182c28.8-53.9,77.8-91.4,134.6-102.9c2.4-0.5,4.9-1,7.3-1.3
		c0.1,0,0.3-0.1,0.5-0.1c1.8-0.4,3.3-1.1,4.7-2.2c1-0.8,2-1.3,3.4-1.6c0.4-0.1,0.8-0.2,1.2-0.2c56.2-5.6,134.1,0.5,186.7,61.4
		c23.5,27.2,62.3,82.6,58.8,147.8c-4.6,85.2-73.6,161.4-167.6,185.1c-3.6,0.9-7.2,1.8-10.8,2.5L468.5,715z M388,344.3
		c-59.3,12-110.2,58.4-132.9,121c-21.3,58.8-12.6,121.1,23,166.4c42.6,54,110.9,77.7,182.7,63.2c7.7-1.5,15.4-3.6,23-6
		c67.2-21.3,137-77.9,141.3-155.9c2.7-49.7-14.3-96.8-48-132.5c-37.5-39.8-91.8-62.5-148.9-62.3c-0.8,0-1.4,0.1-2.2,0.2
		c-1.2,0.2-2.4,0.7-3.4,1.3c-1.1,0.6-2.3,1-3.5,1.3c-0.7,0.1-1.5,0.3-2.3,0.3C407.3,341.4,397.5,342.5,388,344.3L388,344.3z
		 M454.8,635.1c-70.2,14.2-120-23.4-136.6-64.2c-14.1-34.9-11.9-74.4,6.1-108.2c17.1-32.2,46.3-54.5,80.1-61.4c0,0,2.2-0.4,2.3-0.5
		c1.1-0.2,2.2-0.6,3.1-1.1c1.1-0.6,2.3-1,3.6-1.3c0.5-0.1,1-0.2,1.5-0.3c46.9-4.7,86.2,8.5,110.8,36.9c13.9,16,36.8,48.9,34.6,88
		c-2.7,50.9-43.7,96.3-99.3,110.4c-2.1,0.4-4.2,1-6.4,1.5L454.8,635.1z M410,429c-30.2,6.1-56.2,29.8-67.8,62
		c-11,30.5-6.8,61.2,11.5,84.5c21.7,27.5,56.7,39.6,93.5,32.1c4.1-0.8,8.1-1.8,12-3.1c34.6-11,70.6-39.8,72.8-79.2
		c1.4-25.7-7-49-24.4-67.5c-18.6-19.6-45.4-31.3-73.7-32c-0.9,0-1.7,0.1-2.5,0.2c-0.6,0.1-1.2,0.2-1.8,0.6c-0.7,0.2-1.4,0.5-2.3,0.7
		c-0.8,0.2-1.8,0.4-2.7,0.3c-5,0-9.9,0.6-14.7,1.6L410,429z M480.8,523c-1.8,0.4-11,1.7-13.2-8c-1.4-6.1-5.4-15-12-20.1
		c-8.3-6.3-15.2-8.9-23.4-10.9c-2.4-0.6-3.9-2.8-4.7-4.1c-1.6-3-2-6.7-1.1-9.4c1.3-3.6,3.8-5.9,7.7-6.7c2.1-0.4,4.5-0.3,7,0.2
		c24.1,6,42.4,24.1,47.9,47.3c0.6,3,0.4,5.2-0.8,7.1C486.7,520.6,484.1,522.3,480.8,523L480.8,523z M520.7,189.4
		c-5.2,1-8.9-0.9-11.1-5.8c-0.6-1.3-1.4-2.5-2.3-3.5c-1.4-1.4-2.3-3.2-2.8-5.4c-1.8-9-4.3-17.8-6.5-26.3c-2.2-8.4-4.5-17-6.3-25.4
		c-0.9-4.6,0.4-8,4.1-10.2c2-1.3,3.7-3.2,4.6-5.4c1.2-3,3.5-4.7,7.1-5.4l62.7-12.7c8.2-1.7,10.9,4.9,11.6,7.7
		c0.2,0.7,0.5,1.4,0.8,2.1c0.6,1.1,0.9,2.1,1.1,3.1c4.1,20.2,8.3,39.8,14.3,59.4c1.1,3.4-1.7,7.6-4.8,9.8c-0.8,0.5-1.4,1.2-2,1.9
		c-1.3,1.5-3.1,2.5-5.7,3l-64.8,13.1L520.7,189.4z M525.2,120.5c-3,0.6-5.7,2.4-7.3,5.1c-1.7,2.7-2.2,5.9-1.4,8.9l5.5,21.6
		c1.5,5.9,7.3,9.5,13.2,8.3l27.2-5.5c3-0.6,5.7-2.4,7.3-5.1c1.7-2.7,2.2-5.9,1.4-8.9c-1.8-7.1-3.4-14.1-5-21.2
		c-1.2-6.1-7.2-9.9-13.3-8.7L525.2,120.5L525.2,120.5z M653.7,157.3c-2.5,0.5-10.7,1.4-12.5-7.8l-12.3-60.9
		c-1.9-9.2,6.1-11.6,8.5-12.1c2.4-0.5,10.7-1.4,12.5,7.8l12.3,60.9C664,154.4,656.1,156.8,653.7,157.3z"/>
</g>
</svg>
