<?xml version="1.0" encoding="utf-8"?>
<!-- Generator: Adobe Illustrator 27.0.0, SVG Export Plug-In . SVG Version: 6.00 Build 0)  -->
<svg version="1.1" id="Layer_1" xmlns="http://www.w3.org/2000/svg" xmlns:xlink="http://www.w3.org/1999/xlink" x="0px" y="0px"
	 viewBox="0 0 988.1 888" style="enable-background:new 0 0 988.1 888;" xml:space="preserve">
<style type="text/css">
	.st0{fill:#3EE595;}
</style>
<g>
	<g>
		<g>
			<path class="st0" d="M213,295.2c-4.5,3.8-10.4,5.8-16.3,5.8c-2.9,0-5.7-0.5-8.4-1.5c-7.3-2.7-12.3-9-13.7-17.1
				c-1.5-8.1,1-15.7,7-20.8c6.6-5.6,16.6-7.4,24.7-4.4c7.3,2.7,12.3,9,13.7,17.1C221.5,282.6,218.9,290.1,213,295.2z"/>
		</g>
	</g>
	<g>
		<g>
			<g>
				<path class="st0" d="M874,507.1c0.2,0,0.4-0.1,0.6-0.1c0,0,0,0,0,0c0.2-0.1,0.3-0.2,0.5-0.2c0.1-0.1,0.3-0.1,0.4-0.2
					C875,506.7,874.5,506.9,874,507.1z"/>
				<path class="st0" d="M982.6,462.5c-4.4-24.8-11.8-66.4-23.8-140.7c-14.8-87.3-30.3-178.6-33.2-195.4c-0.2-1.1-0.8-2-1.7-2.7
					L756.5,0.8c-0.9-0.7-2.1-0.9-3.2-0.7L459.9,51.8c-1.1,0.2-2.1,0.8-2.7,1.7c-0.6,0.9-0.9,2-0.7,3.1l21.8,123.6l-85.2,15
					c-2.3,0.4-3.8,2.6-3.4,4.8l5.8,32.7l-149.7,26.4c-6.8,1.2-11.4,7.7-10.2,14.5c1.1,6.1,6.4,10.4,12.3,10.4c0.7,0,1.5-0.1,2.2-0.2
					l149.7-26.4l82.7,468.8c0.4,2,2.1,3.5,4.1,3.5c0.2,0,0.5,0,0.7-0.1L894,657.9c0.1,0.4,0.3,0.8,0.4,1.2c0.1,0.2,0.1,0.3,0.2,0.5
					c7.4,14.8,6.8,37.8-1.3,54.8c-4.3,9.1-12.8,20.6-28.7,24.1c-240.1,52.6-425.5,86.1-548.1,108.2l-15.2,2.8
					C220.9,864,168,869.1,139.4,864.9c-22.6-3.2-24.5-11.2-26.5-18.8c-2.2-9-9.1-48.6-17.7-98.9c-6-34.7-12.8-74.1-20-114.9
					c-7.9-57.6-18.6-109.8-28.1-155.8C33.9,412,23.5,360.9,28.7,331.8c6.6-13.3,43-17.8,72.3-21.4c32.5-4,52.8-6.9,59.1-16.4
					c1.9-2.8,2.4-6.2,1.4-9.6c-0.1-0.2-0.2-0.5-0.3-0.7c-4.9-10.2-18.2-6.8-31-3.6c-8,2-16.4,4.1-23.5,3.7c-0.2,0-0.5,0-0.7,0
					l-3.9,0.5c-35.6,4.3-76,9.1-93.7,32.9C0.9,327.5-1.6,340.4,1,355.7c6.3,39.9,76.9,438.4,87.1,493.6c1.8,9.8,7.3,17.9,16.3,24
					c15.7,10.6,41.5,14.7,72.3,14.7c62.1,0,144.7-16.5,206.2-28.8c8-1.6,15.6-3.1,22.6-4.5C540.3,831,700.8,801.5,870.1,763
					c26.3-5.9,46.8-26.6,52.2-52.8c6.2-27.6,0.7-44.3-5.2-62c-2-6-4-12.2-5.7-19.1c-0.7-2.9-1.3-5.9-1.8-9.1l-16.1-91.2
					c0.1,0,0.2,0,0.3,0c39-7.3,71.3-13.5,89.6-17.2c1.6-0.3,2.9-1.6,3.2-3.2c0.1-0.7,0.3-1.2,0.4-1.8
					C988.9,497.9,988.8,497.2,982.6,462.5z M883.7,125.3c-19.2,3.5-34.8,6.9-47.4,9.6c-27.2,5.9-42.2,9.1-48.8,4.4
					c-6.3-4.5-8.2-18.4-11.5-43.8c-1.9-14.4-4.2-32.6-8.3-55.4L883.7,125.3z M503.5,701.3l-85.5-485l64.7-11.4l67.7,383.8
					c0.2,1.1,0.8,2.1,1.8,2.7c0.7,0.5,1.5,0.7,2.4,0.7c0.3,0,0.5,0,0.8-0.1c37.5-7.5,118.3-22.5,203.9-38.3
					c37.4-6.9,75.3-13.9,109.6-20.3c3.3,20.1,9.2,52.4,14.7,79.9c0,0,0,0,0,0c1.3,7.6,2.5,14.5,3.5,20.2L503.5,701.3z M576.5,583.7
					c1.4-0.3,2.9-0.6,4.4-0.8C579.4,583.2,577.9,583.4,576.5,583.7z M879.5,506C879.5,506,879.5,506,879.5,506
					c-0.9-0.1-1.8,0-2.6,0.2c-0.3,0-0.5,0.1-0.8,0.2c-0.2,0-0.3,0.1-0.5,0.1c-0.1,0-0.1,0-0.1,0c-0.1,0-0.3,0.1-0.4,0.2
					c-0.2,0.1-0.3,0.2-0.5,0.2c0,0,0,0,0,0c-0.2,0-0.4,0.1-0.6,0.1c0,0,0,0,0,0c-37.4,7-80.3,14.9-122.5,22.7
					c-73.1,13.5-142.3,26.3-180.1,33.6L484.9,72.9l255.1-45c6.5,32.7,9.9,57.7,12.4,76.5l0.3,2.1c4,29,6.4,46.5,18.2,55.2
					c5.1,3.7,11.7,5.6,20.6,5.6c5.4,0,11.6-0.7,18.9-1.9c0,0,0,0,0.1,0c11.3-2.2,21.6-4.3,31.5-6.4c17.9-3.7,36.3-7.6,61.6-11.7
					c9.9,57.7,49.2,289,58,343.2C942.7,494.2,913.7,499.7,879.5,506z"/>
				<path class="st0" d="M717.8,131.6c-1.5,4.1-4.9,6.8-9.4,7.5l-133.1,23.5c-0.7,0.1-1.5,0.2-2.2,0.2c-2.5,0-5-0.8-7.2-2.3
					c-2.8-1.9-4.6-4.8-5.2-8.1s0.2-6.6,2.1-9.4c1.9-2.7,4.8-4.6,8.1-5.2l133.1-23.5c4.4-0.8,8.6,0.6,11.4,3.9
					C718.5,121.8,719.4,127.2,717.8,131.6z"/>
				<path class="st0" d="M839.8,203c-1.5,4.1-4.9,6.8-9.4,7.5c-0.6,0.1-1.2,0.1-1.8-0.1c-4.8-0.1-35.2,6-64.6,11.8
					c-34.3,6.8-77.1,15.4-111.9,21c-28.6,4.6-45.1,6.2-55,6.2c-10,0-13.1-1.7-14.9-3.4c-1.1-1.1-1.7-2.5-1.8-4
					c-0.5-1.5-0.5-3,0.2-4.5c2-4.6,8.9-10.3,66.9-21.4c34.8-6.7,78.1-13.3,112.9-18.6c30.6-4.7,59.5-9.1,64-10.8
					c0.5-0.4,1.1-0.6,1.7-0.8c4.4-0.8,8.6,0.6,11.4,3.9C840.4,193.3,841.4,198.6,839.8,203z"/>
			</g>
		</g>
		<g>
			<g>
				<path class="st0" d="M867.6,391.4c-4.5,3.8-10.4,5.8-16.3,5.8c-2.9,0-5.7-0.5-8.4-1.5c-7.4-2.7-12.3-8.9-13.7-17.1
					c-1.5-8.1,1-15.7,7-20.8c6.6-5.6,16.6-7.4,24.7-4.4c7.3,2.7,12.3,9,13.6,17.1C876.1,378.8,873.5,386.4,867.6,391.4z"/>
			</g>
		</g>
		<g>
			<g>
				<path class="st0" d="M908.7,612c-1.9-10.7-5.1-28.8-8.2-46.3c-2.4-13.2-4.8-26.6-6.6-36.8c-0.1,0-0.2,0-0.3,0l16.1,91.2
					c0.5,3.2,1.1,6.2,1.8,9.1C910.7,624.6,909.8,619.1,908.7,612z"/>
			</g>
		</g>
		<g>
			<g>
				<path class="st0" d="M576.5,583.7c1.4-0.3,2.9-0.6,4.4-0.8C579.4,583.2,577.9,583.4,576.5,583.7z"/>
				<path class="st0" d="M576.5,583.7c1.4-0.3,2.9-0.6,4.4-0.8C579.4,583.2,577.9,583.4,576.5,583.7z M576.5,583.7
					c1.4-0.3,2.9-0.6,4.4-0.8C579.4,583.2,577.9,583.4,576.5,583.7z"/>
			</g>
		</g>
		<g>
			<g>
				<path class="st0" d="M860.5,290c-1.5,4.1-4.9,6.8-9.4,7.5c-0.6,0.1-1.2,0.1-1.8-0.1h-0.1c-5.2,0-35.3,6-64.5,11.8
					c-34.3,6.8-77.1,15.4-111.9,21c-28.6,4.6-45.1,6.2-55,6.2c-10,0-13.1-1.6-14.9-3.4c-1.1-1.1-1.7-2.5-1.8-4
					c-0.5-1.5-0.5-3,0.2-4.5c2-4.6,8.9-10.3,66.9-21.4c34.8-6.7,78.1-13.3,112.9-18.7c30.6-4.7,59.5-9.1,64-10.8
					c0.5-0.4,1.1-0.6,1.7-0.8c4.5-0.8,8.6,0.6,11.4,3.9C861.2,280.3,862.1,285.6,860.5,290z"/>
			</g>
		</g>
		<g>
			<g>
				<path class="st0" d="M805.6,391.8c-1.5,4.1-4.9,6.8-9.4,7.5l-84,14.8c-0.8,0.2-1.7,0.2-2.5,0.2c-3.5,0-6.6-1.4-8.9-4.1
					c-3-3.6-4-8.9-2.3-13.3c1.5-4.1,4.9-6.8,9.4-7.5l0,0c0.3-0.1,0.6-0.1,0.9-0.2l83.1-14.7c4.4-0.8,8.6,0.6,11.4,3.9
					C806.3,382.1,807.2,387.5,805.6,391.8z"/>
			</g>
		</g>
	</g>
</g>
<g>
	<g>
		<path class="st0" d="M360.5,408.9c-1.5,4.1-4.9,6.8-9.4,7.5c-0.6,0.1-1.2,0-1.8-0.1c-4.8-0.1-35.2,6-64.6,11.8
			c-34.3,6.9-77.1,15.4-111.8,21c-28.6,4.6-45.2,6.2-55,6.2c-10,0-13.1-1.7-14.9-3.5c-1.1-1.1-1.7-2.5-1.8-4c-0.5-1.5-0.5-3,0.2-4.5
			c2-4.5,9-10.3,66.9-21.4c34.8-6.7,78.1-13.3,112.9-18.7c30.6-4.7,59.4-9.1,64-10.8c0.5-0.4,1.1-0.6,1.7-0.8
			c4.4-0.9,8.6,0.6,11.4,3.9C361.2,399.2,362.1,404.5,360.5,408.9z"/>
	</g>
</g>
<g>
	<g>
		<path class="st0" d="M371.8,465.4c-1.5,4.1-4.9,6.8-9.4,7.5c-0.6,0.1-1.2,0.1-1.8-0.1h-0.2c-5.2,0-35.3,6-64.5,11.8
			c-34.3,6.8-77.1,15.4-111.9,21c-28.6,4.6-45.1,6.2-55,6.2c-10,0-13.1-1.6-14.9-3.4c-1.1-1.1-1.7-2.5-1.8-4c-0.5-1.5-0.5-3,0.2-4.5
			c2-4.6,8.9-10.3,66.9-21.4c34.8-6.7,78.1-13.3,112.9-18.6c30.6-4.7,59.5-9.1,64-10.9c0.5-0.4,1.1-0.6,1.7-0.8
			c4.5-0.8,8.6,0.6,11.4,3.9C372.4,455.6,373.4,461,371.8,465.4z"/>
	</g>
</g>
</svg>
