<?xml version="1.0" encoding="utf-8"?>
<!-- Generator: Adobe Illustrator 27.0.0, SVG Export Plug-In . SVG Version: 6.00 Build 0)  -->
<svg version="1.1" id="Layer_1" xmlns="http://www.w3.org/2000/svg" xmlns:xlink="http://www.w3.org/1999/xlink" x="0px" y="0px"
	 viewBox="0 0 851.1 662.8" style="enable-background:new 0 0 851.1 662.8;" xml:space="preserve">
<style type="text/css">
	.st0{fill:#3EE595;}
</style>
<g>
	<path class="st0" d="M801,12.5c-1.8-6.4-7.6-11-14.5-11.3C527-3.1,246.4,0.1,12.1,89.8c-4.7,1.8-8.2,6.1-8.9,11.1
		c-9.9,73.8,5.8,159.6,7.7,235.4c0,0.4,0,0.9,0.1,1.3c10.5,78.9,12.7,164.4,28.5,245.1h0c0.8,4.1,1.6,8.2,2.5,12.2
		c4.2,19.6,9.3,38.8,15.7,57.6c2.2,6.4,8.4,10.5,15.2,10.3c252.2-7.1,507.1-27.4,756.1-70.2c1.2-0.2,2.4-0.5,3.5-1
		c6.6-2.9,19.4-6.3,18.3-12.7C851.6,392,849.8,189.6,801,12.5z M56.1,581.5C30.9,428,17.1,272.4,15.7,116.7
		c-0.1-5.7,3.4-10.9,8.6-13.1c222.6-92.2,503.4-89.7,754.2-88.2c7.4,0.3,13.5,5.6,14.9,12.7c28.9,155.8,43.6,314.6,43.7,473.5
		c0,0.3,0,0.7,0,1c-132.5,22.6-267.6,40.8-401.3,53.8C310.4,570.5,181.4,573.5,56.1,581.5z M831.7,573.7c-2.1,3-5.4,4.9-9,5.5
		C577.6,620.4,328.5,640.9,81.2,648c-7.8,0.2-14.5-5.1-15.9-12.7c-2.5-13.7-4.9-27.5-7.2-41.2c257.4-12.1,534.3-21.9,778.3-83
		C836,531.3,842.6,558.7,831.7,573.7z"/>
	<path class="st0" d="M42.1,594.9L42.1,594.9c-0.9-4-1.8-8.1-2.5-12.2h0C40.4,586.7,41.3,590.8,42.1,594.9z"/>
	<path class="st0" d="M781.5,264.2c0-0.6-0.1-1.2-0.2-1.7c-10.5-63.2-9.5-140.6-34.6-197.3c-2.2-5.1-7.3-8.4-12.8-8.4
		c-220.1-0.9-440.8,20-656.9,62.5c-5.7,1.1-10.1,5.7-11.2,11.5c-12.7,71.6,7.6,159,11.2,234c0,0.7,0.1,1.3,0.2,2
		c10.2,48.8,6.4,111.8,26.6,155.2c2.3,4.9,7.3,8,12.8,8c220.2-1.5,440.7-22.6,657.3-62.6c5.5-1,9.8-5.2,11.1-10.6
		C799.1,398.8,782.8,325.4,781.5,264.2z M774.3,440.8c-0.1,6.7-4.9,12.5-11.5,13.7c-210.1,38.3-423.5,58.7-636.6,60.6
		c-6.9,0.1-12.8-4.8-14-11.6C91.3,385.6,79.5,265.9,76.8,145.9c-0.2-6.8,4.7-12.8,11.4-14.1c210-40.5,423.7-60.9,637-60.5
		c6.6,0,12.4,4.7,13.7,11.1C763.7,199.9,775.6,320.4,774.3,440.8z"/>
	<path class="st0" d="M635.8,382.9L635.8,382.9c-0.2-3.9-0.3-8.3-0.5-12.6c-0.2-3.3-0.5-6.5-1.1-9.6c-0.4-2.3-1-4.5-1.8-6.6
		c-1.2-3.1-3-5.9-5.6-8c-1.3-1-2.8-1.8-4.5-2.4c-1.7-0.5-3.6-0.8-5.6-0.8c-0.5,0-1,0-1.5,0l-0.1,0L467.2,358l-0.1,0
		c-2.9,0.4-5.5,1.2-7.6,2.5c-1.6,1-2.9,2.2-4,3.6c-1.6,2.1-2.6,4.6-3.2,7.2c-0.6,2.6-0.8,5.4-0.8,8.3c0,3.2,0.3,6.4,0.7,9.7
		c-8.1-0.3-19.9,1.4-34,3.7c-4.9,0.8-10.4,1.7-13.2,1.9l-7.6-86.4l48.2-4.9c0.4,3.2,0.7,6.1,0.7,8.5c0,0.5,0,1,0,1.4
		c0,0.1,0,0.3,0,0.4c0.2,2.9,1,5.4,2.4,7.5c1,1.6,2.4,2.9,3.9,3.9c2.3,1.5,5.1,2.4,8.2,3c3.1,0.6,6.5,0.8,10.3,0.8
		c5.5,0,11.8-0.5,18.7-1c6.9-0.5,14.4-1.2,22.4-1.5h0c5.6-0.3,13.2-1.2,21.8-2.4c12.8-1.7,27.9-4.1,41.6-6
		c6.9-0.9,13.4-1.8,19.2-2.4c5.8-0.6,10.8-1,14.5-1c0.7,0,1.4,0,2,0c0.1,0,0.3,0,0.4,0c3.1-0.3,5.7-1.1,7.9-2.2
		c1.6-0.8,3-1.9,4.1-3.2c1.7-1.9,2.7-4.1,3.3-6.5c0.6-2.3,0.8-4.8,0.8-7.3c0-4.5-0.6-9.3-0.8-13.8c-0.2-3.9-0.3-8.3-0.5-12.6
		c-0.2-3.2-0.5-6.5-1.1-9.6c-0.4-2.3-1-4.5-1.8-6.6c-1.2-3.1-3-5.9-5.6-8c-1.3-1-2.8-1.8-4.5-2.4c-1.7-0.5-3.5-0.8-5.5-0.8
		c-0.5,0-1.1,0-1.6,0.1h-0.1l-147.9,15.2l0,0c-2.9,0.3-5.5,1.2-7.6,2.5c-1.6,1-2.9,2.2-4,3.6c-1.6,2.1-2.6,4.5-3.2,7.2
		c-0.6,2.6-0.9,5.4-0.9,8.2c0,4.3,0.5,8.8,1.2,13.1c-6.3,0.6-16.2,1.3-26,2c-7.8,0.5-15,1.1-21.6,1.6l-7.1-80l48-4.9
		c0.3,1.7,0.5,3.4,0.7,4.9c0.3,2.3,0.5,4.4,0.5,6.2c0,0.5,0,0.9,0,1.3c0,0.1,0,0.3,0,0.4c0.2,2.9,1,5.4,2.4,7.5c1,1.6,2.4,2.9,4,3.9
		c2.3,1.5,5.1,2.5,8.2,3c3.1,0.6,6.5,0.8,10.3,0.8c5.5,0,11.8-0.4,18.7-1c6.9-0.5,14.4-1.2,22.4-1.5h0.1c5.7-0.4,13.5-1.4,22.4-2.5
		c13.3-1.8,28.9-4,42.9-5.9c7-0.9,13.6-1.8,19.3-2.4c5.6-0.6,10.4-1,13.7-1c0.5,0.1,1.1,0.1,1.7,0.1c2.2,0,4.3-0.6,6.2-1.5
		c2.8-1.4,5.2-3.6,7-6.2c1.7-2.6,2.8-5.7,2.8-8.9c0-1-0.1-2-0.3-3v0c-0.4-1.7-0.6-3.7-0.8-6.1c-0.3-4.1-0.3-9-0.4-14
		c-0.1-3.8-0.3-7.6-0.7-11.3c-0.3-2.8-0.8-5.5-1.5-8c-1.1-3.8-2.8-7.2-5.5-9.8c-1.4-1.3-3-2.3-4.8-3c-1.8-0.7-3.9-1.1-6.2-1.1
		c-0.5,0-1.1,0-1.7,0.1l-0.1,0c-1.8,0.2-5.4,0.6-10.1,1.1c-16.7,1.7-48.7,4.8-77.7,7.7c-14.5,1.5-28.3,2.9-39,4
		c-5.4,0.6-10,1.1-13.6,1.6c-1.8,0.2-3.4,0.4-4.6,0.6c-1.1,0.2-2.1,0.3-2.8,0.5c-2.9,0.2-5.4,0.8-7.5,2c-1.6,0.9-3,2.1-4.1,3.5
		c-1.6,2.1-2.7,4.5-3.3,7.1c-0.6,2.6-0.8,5.5-0.8,8.4c0,3.1,0.3,6.4,0.6,9.7c-8.3-0.3-20.7,1.5-36.2,4.1c-7.6,1.3-17.1,2.8-19.3,2.5
		c-0.8-0.5-1.7-0.6-2.6-0.2c-1.1,0.5-1.8,1.6-1.6,2.8l7.9,89.6c-23.9,2.1-38,4.1-46.3,6.2c-0.5-9.1-1.5-18.2-3.3-27
		c-2-9.9-5.1-19.4-9.7-28.2c-0.3-0.6-0.8-1-1.4-1.2c-7-3-14.1-3.9-21.1-3.9c-7,0-14,1-20.8,1.9c-6.9,0.9-13.7,1.8-20.4,1.8
		c-0.1,0-0.3,0-0.4,0c-0.3,0-0.5,0-0.8,0.1c-4.1,1.1-9.8,1.6-16,2.1c-4.6,0.3-9.5,0.6-14.4,1.2c-3.6,0.4-7.2,1-10.5,1.9
		c-5,1.3-9.6,3.3-13.1,6.6c-1.8,1.7-3.2,3.7-4.2,6c-1,2.3-1.6,5-1.7,8c0,0.2,0,0.4,0,0.5c1.1,6.5,1.4,15.7,1.5,25.9
		c0.2,15.3,0,32.9,2.5,48c1.3,7.6,3.2,14.5,6.3,20.4c1.5,2.9,3.4,5.5,5.6,7.7c2.2,2.2,4.8,4,7.8,5.3c0.2,0.1,0.4,0.2,0.6,0.2
		c5.8,1,11.8,1.4,17.8,1.4c11.2,0,22.5-1.3,33.2-2c0.1,0,0.2,0,0.3,0c4.5-0.8,10.4-1.4,16.7-2.1c9.5-1.1,20.1-2.7,28.8-6.2
		c4.4-1.8,8.4-4,11.5-7.1c1.6-1.5,2.9-3.3,4-5.3c1-2,1.8-4.1,2.2-6.5c0-0.2,0-0.3,0-0.5c-0.3-11.8-0.1-24.4-0.5-37.1l47-4.8
		l8.4,95.7c0.1,0.7,0.4,1.4,1,1.9c0.5,0.4,1.1,0.6,1.8,0.6c0.1,0,0.2,0,0.3,0l57.9-5.9c0.6,4.1,1.1,7.9,1.1,10.9c0,0.5,0,0.9,0,1.4
		c0,0.1,0,0.3,0,0.4c0.2,2.9,1,5.4,2.4,7.5c1,1.6,2.4,2.9,4,3.9c2.3,1.5,5.1,2.5,8.2,3c3.1,0.6,6.5,0.8,10.3,0.8
		c5.5,0,11.8-0.5,18.7-1c6.9-0.5,14.4-1.2,22.4-1.5h0c5.6-0.3,13.1-1.2,21.7-2.4c12.8-1.7,27.8-4,41.6-5.9
		c6.9-0.9,13.4-1.8,19.2-2.4c5.8-0.6,10.8-1,14.5-1c0.7,0,1.4,0,2,0c0.1,0,0.3,0,0.4,0c3.1-0.3,5.7-1.1,7.9-2.2
		c1.6-0.8,3-1.9,4.1-3.2c1.7-1.9,2.7-4.1,3.3-6.5c0.6-2.3,0.8-4.8,0.8-7.3C636.7,392.2,636.1,387.5,635.8,382.9z M456.1,272.7
		c0.4-0.8,0.8-1.4,1.3-1.9c0.5-0.4,1-0.8,1.7-1c0,0,0,0,0,0c0.1,0,0.2,0,0.4,0c5.5-0.6,42.4-4.4,77.9-8c17.8-1.8,35.2-3.6,48.3-4.9
		c6.5-0.7,11.9-1.2,15.8-1.6c1.9-0.2,3.4-0.4,4.5-0.5c0.5,0,0.9-0.1,1.2-0.1c0,0,0.1,0,0.1,0c0.7,0.1,1.2,0.3,1.7,0.5
		c0.5,0.3,0.9,0.6,1.3,1c0.7,0.8,1.4,1.9,1.9,3.3c0.8,2.2,1.3,5,1.6,8.2c0.3,3.2,0.3,6.7,0.3,10.2c0,1.9,0,3.7,0,5.5
		c0,3,0,5.8,0.2,8.4c0.2,2.1,0.4,4,0.9,5.7c-0.7,1.2-1.3,2.2-2,2.9c-0.6,0.7-1.1,1.1-1.7,1.5c-0.8,0.5-1.7,0.8-3,1.1
		c-1.3,0.2-2.8,0.3-4.8,0.3c-1.7,0-3.6,0-5.8,0c-6.9,0-16.5,0.4-30.1,3.7c-12.9,1.6-29.7,4-46.4,6c-16.8,2-33.4,3.5-45.7,3.5
		c-5.1,0-9.5-0.3-12.6-0.9c-1.6-0.3-2.8-0.7-3.7-1c-0.2-0.1-0.4-0.2-0.6-0.3c0.1-0.9,0.2-1.8,0.2-2.8c0-2.3-0.3-4.8-0.7-7.5
		c-0.6-4-1.5-8.3-2.2-12.6c-0.7-4.2-1.3-8.3-1.3-11.8C455,276.6,455.4,274.2,456.1,272.7z M448.1,182.1c0.4-0.8,0.8-1.4,1.3-1.9
		c0.5-0.4,1-0.8,1.7-1.1h0c2-0.2,11.8-1.2,25.5-2.6c21.2-2.2,51.8-5.3,77.1-7.9c12.7-1.3,24-2.5,32.3-3.3c4.1-0.4,7.5-0.8,9.8-1
		c1.2-0.1,2.1-0.2,2.7-0.3c0.3,0,0.5-0.1,0.7-0.1c0.7,0.1,1.2,0.3,1.7,0.5c0.5,0.2,0.9,0.6,1.3,1c0.7,0.7,1.4,1.8,1.9,3.2
		c0.8,2.1,1.3,5,1.6,8.1c0.3,3.2,0.3,6.6,0.3,10.1c0,1.9,0,3.8,0,5.6c0,3,0,5.9,0.2,8.5c0.2,2.1,0.4,4,0.9,5.8
		c-0.7,1.2-1.3,2.2-2,2.9c-0.6,0.7-1.1,1.1-1.7,1.5c-0.8,0.5-1.7,0.8-3,1.1c-1.2,0.2-2.8,0.3-4.8,0.3c-1.7,0-3.7,0-5.9,0
		c-6.8,0-16.4,0.4-30,3.7c-13,1.6-29.9,4-46.6,5.9c-16.8,2-33.5,3.5-45.7,3.5c-5.1,0-9.4-0.3-12.5-0.9c-1.5-0.3-2.8-0.7-3.6-1
		c-0.2-0.1-0.4-0.2-0.6-0.3c0.1-0.9,0.2-1.9,0.2-2.8c0-2.3-0.3-4.8-0.7-7.5c-0.6-4-1.5-8.3-2.2-12.6c-0.7-4.2-1.3-8.4-1.3-11.8
		C447,186.1,447.4,183.7,448.1,182.1z M307.3,362c-11.5,3.9-25.7,5.2-39.9,5.6c-13.8,0.4-27.6,0-38.9,0.7c-2.2-1-4-2.7-5.7-5
		c-1.6-2.2-2.9-4.9-4-8c-2-5.5-3.2-12.4-4-19.8c-1.2-11.2-1.3-23.6-1.4-35.1c-0.1-5.7-0.1-11.2-0.3-16.1s-0.5-9.4-1.2-13.1l0-0.1
		c0-0.1,0-0.2,0-0.3c0-0.2,0-0.4,0.3-0.8c0.2-0.3,0.6-0.8,1.1-1.2c1.1-0.9,2.9-1.9,5.2-2.8c4-1.6,9.6-3.1,16.1-4.4
		c19.4-3.8,46.4-5.5,64.3-5.5c4.3,0,8.2,0.1,11.2,0.3c1.5,0.1,2.8,0.2,3.9,0.4c0.4,0,0.7,0.1,1,0.1c5.5,14.2,8,29.7,9.2,45.6
		c1.2,16.1,1.1,32.6,1.1,48.7C320.8,356,314.6,359.5,307.3,362z M467.4,404.8c-0.6-4-1.5-8.3-2.2-12.6c-0.7-4.2-1.3-8.4-1.3-11.9
		c0-2.8,0.4-5.1,1.1-6.7c0.4-0.8,0.8-1.4,1.3-1.9c0.5-0.4,1-0.8,1.7-1h0c1.9-0.2,11.7-1.2,25.6-2.6c21.2-2.2,51.8-5.3,77.2-7.9
		c12.7-1.3,24-2.5,32.3-3.3c4.1-0.4,7.4-0.8,9.8-1c1.2-0.1,2.1-0.2,2.7-0.3c0.3,0,0.5-0.1,0.7-0.1c0.7,0.1,1.2,0.3,1.7,0.5
		c0.5,0.2,0.9,0.6,1.3,1c0.7,0.8,1.4,1.9,1.9,3.3c0.8,2.1,1.3,5,1.6,8.2c0.3,3.2,0.3,6.7,0.3,10.2c0,1.9,0,3.7,0,5.5
		c0,3,0,5.8,0.2,8.4c0.2,2.1,0.4,4,0.9,5.7c-0.7,1.2-1.3,2.2-1.9,2.9c-0.6,0.7-1.1,1.1-1.6,1.5c-0.8,0.5-1.7,0.8-2.9,1.1
		c-1.2,0.2-2.8,0.3-4.6,0.3c-1.8,0-4-0.1-6.6-0.1c-6.8,0-16.3,0.4-29.6,3.6c-12.9,1.7-29.8,4-46.5,6c-16.8,2-33.4,3.5-45.6,3.5
		c-5.1,0-9.5-0.3-12.6-0.9c-1.5-0.3-2.8-0.7-3.6-1c-0.2-0.1-0.4-0.2-0.6-0.3c0.1-0.9,0.2-1.8,0.2-2.7
		C468.1,409.9,467.8,407.4,467.4,404.8z"/>
</g>
</svg>
