<?xml version="1.0" encoding="utf-8"?>
<!-- Generator: Adobe Illustrator 27.0.0, SVG Export Plug-In . SVG Version: 6.00 Build 0)  -->
<svg version="1.1" id="Layer_1" xmlns="http://www.w3.org/2000/svg" xmlns:xlink="http://www.w3.org/1999/xlink" x="0px" y="0px"
	 viewBox="0 0 937 1038.6" style="enable-background:new 0 0 937 1038.6;" xml:space="preserve">
<style type="text/css">
	.st0{fill:#3EE595;}
</style>
<g>
	<g>
		<path class="st0" d="M936,845.1L855.2,387c-2.9-16.3-18.5-27.2-34.8-24.3L138.1,483c172.2-86.3,650.7-326.1,650.7-326.1
			c35.4-20.5-26.8-73.5-28.9-86.8c-34.4-58.7-63.6-87-109.8-59.5c-0.1,0-0.1,0.1-0.2,0.1C606,35.1,355.6,163.2,9,340.5
			c-8,4.1-11.2,14-7.2,22l68,136c12.3,72.2,23.1,140.7,32,196.8c49.4,252.6,27.1,367.1,205.4,339.1c185-39.2,297.2-79.8,573.6-111.1
			C917.6,917.2,942.5,881.9,936,845.1z M823.6,381c6.2-1.1,12.2,3.1,13.3,9.3l21,119.3l-94.4,16.6l27.6-139.5L823.6,381z
			 M771.6,390.2L744,529.7l-53.7,9.5l27.6-139.5L771.6,390.2z M698.3,403.1l-27.6,139.5l-53.7,9.5l27.6-139.5L698.3,403.1z
			 M625.1,416l-27.6,139.5l-53.7,9.5l27.6-139.5L625.1,416z M551.8,428.9l-27.6,139.5l-53.7,9.5l27.6-139.5L551.8,428.9z
			 M478.5,441.8l-27.6,139.5l-53.7,9.5l27.6-139.6L478.5,441.8z M405.3,454.7l-27.6,139.5l-53.7,9.5l27.6-139.5L405.3,454.7z
			 M332,467.7l-27.6,139.5l-53.7,9.5l27.6-139.5L332,467.7z M258.7,480.6l-27.6,139.5l-53.7,9.5L205.1,490L258.7,480.6z M741.2,75.5
			c12.5,20.7,29,40.9,40.6,63.1c0,0.5-22.3,12.1-59,30.7L706.3,27.8C714.9,35.7,724.7,50.2,741.2,75.5z M686.8,20.7l18.3,157.4
			c-17.5,8.8-37.3,18.8-59,29.7l-19-164C650.1,33.5,669.8,25.8,686.8,20.7z M609.5,52l19.1,164.7c-18.7,9.4-38.4,19.3-59,29.6
			L550.5,81.2C572,70.2,591.6,60.4,609.5,52z M532.8,90.3l19.1,164.9c-19.2,9.6-39,19.5-59,29.5l-19-163.5
			C495,110.1,514.6,99.8,532.8,90.3z M456.4,130.5l18.9,163c-19.6,9.8-39.3,19.7-59,29.5l-18.7-161.2
			C418.3,150.8,437.9,140.3,456.4,130.5z M380.1,171.1l18.6,160.7c-19.9,10-39.6,19.8-59,29.5l-18.5-159.1
			C341.8,191.4,361.3,181,380.1,171.1z M303.7,211.4l18.4,158.7c-20.3,10.2-40.1,20-59,29.5l-18.2-157.4
			C265.2,231.6,284.8,221.3,303.7,211.4z M227.2,251.3l18.2,157.1c-21.2,10.6-41,20.5-59,29.5l-18.1-156.4
			C188.6,271.1,208.2,261.1,227.2,251.3z M150.7,290.4l18.1,156.2c-22.3,11.2-41.1,20.6-55.2,27.6L95.5,318.3
			C114.4,308.8,132.8,299.5,150.7,290.4z M19.3,356.1c20.1-9.9,39.6-19.5,58.6-29L96,483.2c-6.7,3.4-10.4,5.3-10.5,5.4L19.3,356.1z
			 M90.5,510.2l94.9-16.7L157.8,633l-47.9,8.4C104,601.7,97.6,558,90.5,510.2z M878.3,904.9c-677,59.4-677.4,337.9-765.6-245.1
			l748.5-132l56.5,320.5C922.4,874.8,904.7,900.1,878.3,904.9z"/>
	</g>
	<g>
		<path class="st0" d="M286.1,905.3c-41.1,4.7-31.8-61.5-41.9-88.7c-1.7-32.5-34.8-106.6,24.1-97c42.4,10.5,127.2,31.3,170,41.9
			c20.4,4.4,24.9,29.5,7.2,40.7C403,827.7,331.9,884.1,286.1,905.3z M263.1,813.3c6,16.3,3.8,63.9,16.9,73.4
			c43.4-18.1,114.6-76.4,155.2-100.1c16-10.5-66.6-20.3-84-27.6C252.8,742.3,236.9,698.2,263.1,813.3z"/>
	</g>
	<g>
		<path class="st0" d="M791.7,617.5c-6.7-3.9-279.4,61.1-275.5,39.2c-12.1-19,268.4-51.7,272.3-57.4
			C800.2,596.9,803.6,615.5,791.7,617.5z"/>
	</g>
	<g>
		<path class="st0" d="M804.9,692.5c-6.7-3.9-279.4,61.1-275.5,39.2c-12.1-19,268.4-51.7,272.3-57.4
			C813.4,672,816.8,690.6,804.9,692.5z"/>
	</g>
	<g>
		<path class="st0" d="M817.8,765.8c-6.7-3.9-279.4,61.1-275.5,39.2c-12.1-19,268.4-51.7,272.3-57.4
			C826.3,745.3,829.8,763.9,817.8,765.8z"/>
	</g>
	<g>
		<path class="st0" d="M830.9,839.7c-6.7-3.9-279.4,61.1-275.5,39.2c-12.1-19,268.4-51.7,272.3-57.4
			C839.4,819.2,842.8,837.8,830.9,839.7z"/>
	</g>
</g>
</svg>
