<svg xmlns="http://www.w3.org/2000/svg" width="114" height="92" viewBox="0 0 114 92" fill="none"><path d="M86.2519 35.2885C86.5299 35.7182 87.1037 35.8411 87.5334 35.563C87.9631 35.285 88.086 34.7112 87.808 34.2815L86.2519 35.2885ZM25.838 34.2815C25.56 34.7112 25.6829 35.285 26.1126 35.563C26.5423 35.8411 27.1161 35.7182 27.3941 35.2885L25.838 34.2815ZM74.2991 46.3827C74.5625 45.9438 74.4202 45.3745 73.9813 45.1112C73.5424 44.8479 72.9731 44.9902 72.7098 45.4291L74.2991 46.3827ZM23.4605 91.3161H90.1858V89.4627H23.4605V91.3161ZM113.354 68.1476V57.0268H111.501V68.1476H113.354ZM0.29201 57.0268V68.1476H2.14549V57.0268H0.29201ZM56.8231 0.495623C25.6019 0.495623 0.29201 25.8055 0.29201 57.0268H2.14549C2.14549 26.8291 26.6255 2.3491 56.8231 2.3491V0.495623ZM113.354 57.0268C113.354 25.8055 88.0444 0.495623 56.8231 0.495623V2.3491C87.0208 2.3491 111.501 26.8291 111.501 57.0268H113.354ZM90.1858 91.3161C102.981 91.3161 113.354 80.9432 113.354 68.1476H111.501C111.501 79.9196 101.958 89.4627 90.1858 89.4627V91.3161ZM23.4605 89.4627C11.6885 89.4627 2.14549 79.9196 2.14549 68.1476H0.29201C0.29201 80.9432 10.6649 91.3161 23.4605 91.3161V89.4627ZM41.0686 90.3894C41.0686 81.6884 48.1221 74.6348 56.8231 74.6348V72.7813C47.0985 72.7813 39.2151 80.6647 39.2151 90.3894H41.0686ZM56.8231 74.6348C65.5242 74.6348 72.5777 81.6884 72.5777 90.3894H74.4312C74.4312 80.6647 66.5478 72.7813 56.8231 72.7813V74.6348ZM56.823 19.0304C71.7579 19.0304 80.5604 26.4934 86.2519 35.2885L87.808 34.2815C81.867 25.1008 72.5391 17.1769 56.823 17.1769V19.0304ZM27.3941 35.2885C33.0855 26.4934 41.8881 19.0304 56.823 19.0304V17.1769C41.1069 17.1769 31.779 25.1008 25.838 34.2815L27.3941 35.2885ZM57.6178 74.1849L74.2991 46.3827L72.7098 45.4291L56.0285 73.2313L57.6178 74.1849Z" fill="#E91D25"></path></svg>