<svg xmlns="http://www.w3.org/2000/svg" width="102" height="92" viewBox="0 0 102 92" fill="none"><path d="M95.3741 59.9213L95.0709 60.797L95.0709 60.797L95.3741 59.9213ZM95.3741 31.8905L95.6773 32.7662L95.6773 32.7662L95.3741 31.8905ZM6.22812 59.9213L6.53132 60.797L6.53132 60.797L6.22812 59.9213ZM6.22812 31.8905L5.92493 32.7662L5.92493 32.7662L6.22812 31.8905ZM66.2843 31.7333C66.6462 31.3714 66.6462 30.7847 66.2843 30.4227C65.9224 30.0608 65.3356 30.0608 64.9737 30.4227L66.2843 31.7333ZM35.318 60.0784C34.9561 60.4403 34.9561 61.0271 35.318 61.389C35.6799 61.7509 36.2667 61.7509 36.6286 61.389L35.318 60.0784ZM21.1455 89.4627C10.7384 89.4627 2.30174 81.026 2.30174 70.6189H0.44826C0.44826 82.0497 9.71471 91.3161 21.1455 91.3161V89.4627ZM99.3005 70.6189C99.3005 81.026 90.8639 89.4627 80.4568 89.4627V91.3161C91.8876 91.3161 101.154 82.0497 101.154 70.6189H99.3005ZM80.4568 2.3491C90.8639 2.3491 99.3005 10.7857 99.3005 21.1928H101.154C101.154 9.76207 91.8876 0.495623 80.4568 0.495623V2.3491ZM21.1455 0.495623C9.71471 0.495623 0.44826 9.76207 0.44826 21.1928H2.30174C2.30174 10.7857 10.7384 2.3491 21.1455 2.3491V0.495623ZM95.6773 59.0456C90.2332 57.1607 86.3262 51.9884 86.3262 45.9059H84.4727C84.4727 52.8024 88.9035 58.6617 95.0709 60.797L95.6773 59.0456ZM86.3262 45.9059C86.3262 39.8234 90.2332 34.6511 95.6773 32.7662L95.0709 31.0147C88.9035 33.15 84.4727 39.0093 84.4727 45.9059H86.3262ZM15.2761 45.9059C15.2761 51.9884 11.369 57.1607 5.92493 59.0456L6.53132 60.797C12.6988 58.6617 17.1296 52.8024 17.1296 45.9059H15.2761ZM5.92493 32.7662C11.369 34.6511 15.2761 39.8234 15.2761 45.9059H17.1296C17.1296 39.0093 12.6988 33.15 6.53132 31.0147L5.92493 32.7662ZM101.154 26.1354V21.1928H99.3005V26.1354H101.154ZM99.3005 65.6763V70.6189H101.154V65.6763H99.3005ZM0.44826 65.6763V70.6189H2.30174V65.6763H0.44826ZM2.30174 26.1354V21.1928H0.44826V26.1354H2.30174ZM80.4568 89.4627H21.1455V91.3161H80.4568V89.4627ZM80.4568 0.495623H21.1455V2.3491H80.4568V0.495623ZM5.92493 59.0456C3.15169 60.0057 0.44826 62.3903 0.44826 65.6763H2.30174C2.30174 63.5029 4.14554 61.623 6.53132 60.797L5.92493 59.0456ZM95.6773 32.7662C98.4506 31.8061 101.154 29.4214 101.154 26.1354H99.3005C99.3005 28.3089 97.4567 30.1887 95.0709 31.0147L95.6773 32.7662ZM6.53132 31.0147C4.14555 30.1887 2.30174 28.3089 2.30174 26.1354H0.44826C0.44826 29.4214 3.15169 31.8061 5.92493 32.7662L6.53132 31.0147ZM95.0709 60.797C97.4567 61.623 99.3005 63.5029 99.3005 65.6763H101.154C101.154 62.3903 98.4506 60.0057 95.6773 59.0456L95.0709 60.797ZM39.9892 31.078C39.9892 33.2959 38.1912 35.0939 35.9733 35.0939V36.9474C39.2148 36.9474 41.8426 34.3196 41.8426 31.078H39.9892ZM35.9733 35.0939C33.7554 35.0939 31.9574 33.2959 31.9574 31.078H30.1039C30.1039 34.3196 32.7317 36.9474 35.9733 36.9474V35.0939ZM31.9574 31.078C31.9574 28.8601 33.7554 27.0622 35.9733 27.0622V25.2087C32.7317 25.2087 30.1039 27.8365 30.1039 31.078H31.9574ZM35.9733 27.0622C38.1912 27.0622 39.9892 28.8601 39.9892 31.078H41.8426C41.8426 27.8365 39.2148 25.2087 35.9733 25.2087V27.0622ZM69.6448 60.7337C69.6448 62.9516 67.8469 64.7496 65.629 64.7496V66.6031C68.8705 66.6031 71.4983 63.9753 71.4983 60.7337H69.6448ZM65.629 64.7496C63.4111 64.7496 61.6131 62.9516 61.6131 60.7337H59.7596C59.7596 63.9753 62.3874 66.6031 65.629 66.6031V64.7496ZM61.6131 60.7337C61.6131 58.5158 63.4111 56.7178 65.629 56.7178V54.8644C62.3874 54.8644 59.7596 57.4922 59.7596 60.7337H61.6131ZM65.629 56.7178C67.8469 56.7178 69.6448 58.5158 69.6448 60.7337H71.4983C71.4983 57.4922 68.8705 54.8644 65.629 54.8644V56.7178ZM64.9737 30.4227L35.318 60.0784L36.6286 61.389L66.2843 31.7333L64.9737 30.4227Z" fill="#E91D25"></path></svg>