<svg xmlns="http://www.w3.org/2000/svg" width="91" height="118" viewBox="0 0 91 118" fill="none"><path d="M69.9759 26.9851C69.9759 40.5809 59.0063 51.5952 45.4835 51.5952V53.4486C60.038 53.4486 71.8294 41.5965 71.8294 26.9851H69.9759ZM45.4835 51.5952C31.9608 51.5952 20.9911 40.5809 20.9911 26.9851H19.1376C19.1376 41.5965 30.9291 53.4486 45.4835 53.4486V51.5952ZM20.9911 26.9851C20.9911 13.3893 31.9608 2.37498 45.4835 2.37498V0.521502C30.9291 0.521502 19.1376 12.3737 19.1376 26.9851H20.9911ZM45.4835 2.37498C59.0063 2.37498 69.9759 13.3893 69.9759 26.9851H71.8294C71.8294 12.3737 60.038 0.521502 45.4835 0.521502V2.37498ZM89.0403 94.0193C89.0403 99.6517 84.472 104.998 76.5221 108.991C68.6265 112.957 57.654 115.437 45.4835 115.437V117.291C57.8806 117.291 69.1498 114.769 77.3541 110.648C85.5041 106.554 90.8938 100.727 90.8938 94.0193H89.0403ZM45.4835 115.437C33.313 115.437 22.3405 112.957 14.4449 108.991C6.49507 104.998 1.92674 99.6517 1.92674 94.0193H0.0732601C0.0732601 100.727 5.4629 106.554 13.6129 110.648C21.8172 114.769 33.0865 117.291 45.4835 117.291V115.437ZM1.92674 94.0193C1.92674 88.3868 6.49507 83.0406 14.4449 79.0473C22.3405 75.0812 33.313 72.6013 45.4835 72.6013V70.7478C33.0865 70.7478 21.8172 73.2699 13.6129 77.391C5.4629 81.4849 0.0732601 87.3111 0.0732601 94.0193H1.92674ZM45.4835 72.6013C57.654 72.6013 68.6265 75.0812 76.5221 79.0473C84.472 83.0406 89.0403 88.3868 89.0403 94.0193H90.8938C90.8938 87.3111 85.5041 81.4849 77.3541 77.391C69.1498 73.2699 57.8806 70.7478 45.4835 70.7478V72.6013Z" fill="#E91D25"></path></svg>