<svg xmlns="http://www.w3.org/2000/svg" width="71" height="99" viewBox="0 0 71 99" fill="none"><path d="M35.4828 58.9897C40.7847 58.9897 45.0828 54.6916 45.0828 49.3897C45.0828 44.0877 40.7847 39.7896 35.4828 39.7896C30.1809 39.7896 25.8828 44.0877 25.8828 49.3897C25.8828 54.6916 30.1809 58.9897 35.4828 58.9897ZM35.4828 58.9897V97.3897M11.4828 20.5896H59.4828C64.7847 20.5896 69.0828 16.2916 69.0828 10.9896C69.0828 5.68772 64.7847 1.38965 59.4828 1.38965H11.4828C6.18088 1.38965 1.88281 5.68772 1.88281 10.9896C1.88281 16.2916 6.18088 20.5896 11.4828 20.5896ZM11.4443 20.5896H59.5213L67.7487 46.1649C70.1337 52.1876 69.2888 58.899 65.4714 64.2544L40.0518 95.1146C37.8895 98.148 33.0761 98.148 30.9139 95.1146L5.49425 64.2544C1.67677 58.899 0.831872 52.1876 3.21696 46.1649L11.4443 20.5896Z" stroke="#E91D25" stroke-width="2"></path></svg>