<svg xmlns="http://www.w3.org/2000/svg" width="99" height="99" viewBox="0 0 99 99" fill="none"><path d="M72.0666 40.4055C68.5102 31.6016 59.8829 25.3896 49.8047 25.3896C36.5499 25.3896 25.8047 36.1348 25.8047 49.3897C25.8047 59.4678 32.0167 68.0951 40.8205 71.6515M49.3994 97.388C23.0763 97.1703 1.80469 75.7641 1.80469 49.3897C1.80469 22.88 23.295 1.38965 49.8047 1.38965C76.1791 1.38965 97.5853 22.6613 97.803 48.9843M50.0797 56.2226L62.6204 93.8446C64.1959 98.5713 70.8817 98.5713 72.4573 93.8446L77.0882 79.9521C77.6042 78.404 78.819 77.1892 80.3671 76.6731L94.2597 72.0423C98.9864 70.4667 98.9864 63.7809 94.2597 62.2053L56.6377 49.6647C52.5846 48.3137 48.7287 52.1696 50.0797 56.2226Z" stroke="#E91D25" stroke-width="2" stroke-linecap="round" stroke-linejoin="round"></path></svg>